%TF.GenerationSoftware,KiCad,Pcbnew,(5.0.1)-3*%
%TF.CreationDate,2019-04-27T14:44:02+01:00*%
%TF.ProjectId,Fractional clock divider panel,4672616374696F6E616C20636C6F636B,rev?*%
%TF.SameCoordinates,Original*%
%TF.FileFunction,Legend,Bot*%
%TF.FilePolarity,Positive*%
%FSLAX46Y46*%
G04 Gerber Fmt 4.6, Leading zero omitted, Abs format (unit mm)*
G04 Created by KiCad (PCBNEW (5.0.1)-3) date 27/04/2019 14:44:02*
%MOMM*%
%LPD*%
G01*
G04 APERTURE LIST*
%ADD10C,0.300000*%
%ADD11C,0.150000*%
G04 APERTURE END LIST*
D10*
X33928571Y-23678571D02*
X33928571Y-24750000D01*
X34000000Y-24964285D01*
X34142857Y-25107142D01*
X34357142Y-25178571D01*
X34500000Y-25178571D01*
X32500000Y-25178571D02*
X33214285Y-25178571D01*
X33214285Y-23678571D01*
X31142857Y-25035714D02*
X31214285Y-25107142D01*
X31428571Y-25178571D01*
X31571428Y-25178571D01*
X31785714Y-25107142D01*
X31928571Y-24964285D01*
X32000000Y-24821428D01*
X32071428Y-24535714D01*
X32071428Y-24321428D01*
X32000000Y-24035714D01*
X31928571Y-23892857D01*
X31785714Y-23750000D01*
X31571428Y-23678571D01*
X31428571Y-23678571D01*
X31214285Y-23750000D01*
X31142857Y-23821428D01*
X30071428Y-23678571D02*
X30071428Y-24750000D01*
X30142857Y-24964285D01*
X30285714Y-25107142D01*
X30500000Y-25178571D01*
X30642857Y-25178571D01*
X28642857Y-25178571D02*
X29357142Y-25178571D01*
X29357142Y-23678571D01*
X27285714Y-25035714D02*
X27357142Y-25107142D01*
X27571428Y-25178571D01*
X27714285Y-25178571D01*
X27928571Y-25107142D01*
X28071428Y-24964285D01*
X28142857Y-24821428D01*
X28214285Y-24535714D01*
X28214285Y-24321428D01*
X28142857Y-24035714D01*
X28071428Y-23892857D01*
X27928571Y-23750000D01*
X27714285Y-23678571D01*
X27571428Y-23678571D01*
X27357142Y-23750000D01*
X27285714Y-23821428D01*
X26214285Y-23678571D02*
X26214285Y-24750000D01*
X26285714Y-24964285D01*
X26428571Y-25107142D01*
X26642857Y-25178571D01*
X26785714Y-25178571D01*
X24785714Y-25178571D02*
X25500000Y-25178571D01*
X25500000Y-23678571D01*
X23428571Y-25035714D02*
X23500000Y-25107142D01*
X23714285Y-25178571D01*
X23857142Y-25178571D01*
X24071428Y-25107142D01*
X24214285Y-24964285D01*
X24285714Y-24821428D01*
X24357142Y-24535714D01*
X24357142Y-24321428D01*
X24285714Y-24035714D01*
X24214285Y-23892857D01*
X24071428Y-23750000D01*
X23857142Y-23678571D01*
X23714285Y-23678571D01*
X23500000Y-23750000D01*
X23428571Y-23821428D01*
X22357142Y-23678571D02*
X22357142Y-24750000D01*
X22428571Y-24964285D01*
X22571428Y-25107142D01*
X22785714Y-25178571D01*
X22928571Y-25178571D01*
X20928571Y-25178571D02*
X21642857Y-25178571D01*
X21642857Y-23678571D01*
X19571428Y-25035714D02*
X19642857Y-25107142D01*
X19857142Y-25178571D01*
X20000000Y-25178571D01*
X20214285Y-25107142D01*
X20357142Y-24964285D01*
X20428571Y-24821428D01*
X20500000Y-24535714D01*
X20500000Y-24321428D01*
X20428571Y-24035714D01*
X20357142Y-23892857D01*
X20214285Y-23750000D01*
X20000000Y-23678571D01*
X19857142Y-23678571D01*
X19642857Y-23750000D01*
X19571428Y-23821428D01*
D11*
X51640055Y-94500000D02*
G75*
G03X51640055Y-94500000I-3640055J0D01*
G01*
X35605551Y-94500000D02*
G75*
G03X35605551Y-94500000I-3605551J0D01*
G01*
X35640055Y-72500000D02*
G75*
G03X35640055Y-72500000I-3640055J0D01*
G01*
X35640055Y-53500000D02*
G75*
G03X35640055Y-53500000I-3640055J0D01*
G01*
X35605551Y-34500000D02*
G75*
G03X35605551Y-34500000I-3605551J0D01*
G01*
X18000000Y-144500000D02*
X18000000Y-16000000D01*
X58500000Y-144500000D02*
X18000000Y-144500000D01*
X18000000Y-16000000D02*
X58500000Y-16000000D01*
X58500000Y-16000000D02*
X58500000Y-144500000D01*
M02*
