M48
;DRILL file {KiCad (5.0.1)-3} date 27/04/2019 14:44:11
;FORMAT={-:-/ absolute / inch / decimal}
FMAT,2
INCH,TZ
T1C0.1299
T2C0.2441
T3C0.2835
%
G90
G05
M72
T1
X0.8661Y-2.4213
X0.8661Y-1.6732
X1.6339Y-3.1693
X1.4961Y-4.1142
X1.9685Y-4.1142
X0.8661Y-3.1693
X0.8661Y-3.3465
X1.0039Y-5.5709
X1.0039Y-0.748
X1.0236Y-4.1142
T2
X1.9685Y-4.4488
X1.8504Y-2.4803
X1.9685Y-4.9606
X1.0236Y-4.4488
X1.8504Y-1.7323
X1.0236Y-4.9606
X1.4961Y-4.4488
X1.4961Y-4.9606
T3
X1.2598Y-2.1063
X1.8898Y-3.7205
X1.2598Y-1.3583
X1.2598Y-2.8543
X1.2598Y-3.7205
T0
M30
