%TF.GenerationSoftware,KiCad,Pcbnew,(5.0.1)-3*%
%TF.CreationDate,2019-04-27T14:44:02+01:00*%
%TF.ProjectId,Fractional clock divider panel,4672616374696F6E616C20636C6F636B,rev?*%
%TF.SameCoordinates,Original*%
%TF.FileFunction,Legend,Top*%
%TF.FilePolarity,Positive*%
%FSLAX46Y46*%
G04 Gerber Fmt 4.6, Leading zero omitted, Abs format (unit mm)*
G04 Created by KiCad (PCBNEW (5.0.1)-3) date 27/04/2019 14:44:02*
%MOMM*%
%LPD*%
G01*
G04 APERTURE LIST*
%ADD10C,0.150000*%
%ADD11C,0.400000*%
%ADD12C,0.300000*%
%ADD13C,0.010000*%
G04 APERTURE END LIST*
D10*
X51640055Y-94500000D02*
G75*
G03X51640055Y-94500000I-3640055J0D01*
G01*
X35605551Y-94500000D02*
G75*
G03X35605551Y-94500000I-3605551J0D01*
G01*
X35640055Y-72500000D02*
G75*
G03X35640055Y-72500000I-3640055J0D01*
G01*
X35640055Y-53500000D02*
G75*
G03X35640055Y-53500000I-3640055J0D01*
G01*
X35605551Y-34500000D02*
G75*
G03X35605551Y-34500000I-3605551J0D01*
G01*
D11*
X44238095Y-86642857D02*
X45761904Y-86642857D01*
X49738095Y-86642857D02*
X51261904Y-86642857D01*
X50500000Y-87404761D02*
X50500000Y-85880952D01*
X48000000Y-88000000D02*
X48000000Y-85500000D01*
X18000000Y-23000000D02*
X58500000Y-23000000D01*
X18000000Y-137500000D02*
X58500000Y-137500000D01*
X53500000Y-59500000D02*
X53500000Y-62000000D01*
X55000000Y-64000000D02*
X52500000Y-64000000D01*
X52500000Y-62000000D02*
X52500000Y-59500000D01*
X52500000Y-59500000D02*
X53500000Y-59500000D01*
X25904761Y-81309523D02*
X26190476Y-81404761D01*
X26666666Y-81404761D01*
X26857142Y-81309523D01*
X26952380Y-81214285D01*
X27047619Y-81023809D01*
X27047619Y-80833333D01*
X26952380Y-80642857D01*
X26857142Y-80547619D01*
X26666666Y-80452380D01*
X26285714Y-80357142D01*
X26095238Y-80261904D01*
X26000000Y-80166666D01*
X25904761Y-79976190D01*
X25904761Y-79785714D01*
X26000000Y-79595238D01*
X26095238Y-79500000D01*
X26285714Y-79404761D01*
X26761904Y-79404761D01*
X27047619Y-79500000D01*
X27904761Y-81404761D02*
X27904761Y-79404761D01*
X27904761Y-80357142D02*
X29047619Y-80357142D01*
X29047619Y-81404761D02*
X29047619Y-79404761D01*
X30000000Y-79404761D02*
X30000000Y-81023809D01*
X30095238Y-81214285D01*
X30190476Y-81309523D01*
X30380952Y-81404761D01*
X30761904Y-81404761D01*
X30952380Y-81309523D01*
X31047619Y-81214285D01*
X31142857Y-81023809D01*
X31142857Y-79404761D01*
X32761904Y-80357142D02*
X32095238Y-80357142D01*
X32095238Y-81404761D02*
X32095238Y-79404761D01*
X33047619Y-79404761D01*
X34476190Y-80357142D02*
X33809523Y-80357142D01*
X33809523Y-81404761D02*
X33809523Y-79404761D01*
X34761904Y-79404761D01*
X36476190Y-81404761D02*
X35523809Y-81404761D01*
X35523809Y-79404761D01*
X37142857Y-80357142D02*
X37809523Y-80357142D01*
X38095238Y-81404761D02*
X37142857Y-81404761D01*
X37142857Y-79404761D01*
X38095238Y-79404761D01*
X25190476Y-62404761D02*
X25190476Y-60404761D01*
X25666666Y-60404761D01*
X25952380Y-60500000D01*
X26142857Y-60690476D01*
X26238095Y-60880952D01*
X26333333Y-61261904D01*
X26333333Y-61547619D01*
X26238095Y-61928571D01*
X26142857Y-62119047D01*
X25952380Y-62309523D01*
X25666666Y-62404761D01*
X25190476Y-62404761D01*
X27190476Y-62404761D02*
X27190476Y-60404761D01*
X27857142Y-60404761D02*
X28523809Y-62404761D01*
X29190476Y-60404761D01*
X29857142Y-62404761D02*
X29857142Y-60404761D01*
X30714285Y-62309523D02*
X31000000Y-62404761D01*
X31476190Y-62404761D01*
X31666666Y-62309523D01*
X31761904Y-62214285D01*
X31857142Y-62023809D01*
X31857142Y-61833333D01*
X31761904Y-61642857D01*
X31666666Y-61547619D01*
X31476190Y-61452380D01*
X31095238Y-61357142D01*
X30904761Y-61261904D01*
X30809523Y-61166666D01*
X30714285Y-60976190D01*
X30714285Y-60785714D01*
X30809523Y-60595238D01*
X30904761Y-60500000D01*
X31095238Y-60404761D01*
X31571428Y-60404761D01*
X31857142Y-60500000D01*
X32714285Y-62404761D02*
X32714285Y-60404761D01*
X34047619Y-60404761D02*
X34428571Y-60404761D01*
X34619047Y-60500000D01*
X34809523Y-60690476D01*
X34904761Y-61071428D01*
X34904761Y-61738095D01*
X34809523Y-62119047D01*
X34619047Y-62309523D01*
X34428571Y-62404761D01*
X34047619Y-62404761D01*
X33857142Y-62309523D01*
X33666666Y-62119047D01*
X33571428Y-61738095D01*
X33571428Y-61071428D01*
X33666666Y-60690476D01*
X33857142Y-60500000D01*
X34047619Y-60404761D01*
X35761904Y-62404761D02*
X35761904Y-60404761D01*
X36904761Y-62404761D01*
X36904761Y-60404761D01*
X37761904Y-62309523D02*
X38047619Y-62404761D01*
X38523809Y-62404761D01*
X38714285Y-62309523D01*
X38809523Y-62214285D01*
X38904761Y-62023809D01*
X38904761Y-61833333D01*
X38809523Y-61642857D01*
X38714285Y-61547619D01*
X38523809Y-61452380D01*
X38142857Y-61357142D01*
X37952380Y-61261904D01*
X37857142Y-61166666D01*
X37761904Y-60976190D01*
X37761904Y-60785714D01*
X37857142Y-60595238D01*
X37952380Y-60500000D01*
X38142857Y-60404761D01*
X38619047Y-60404761D01*
X38904761Y-60500000D01*
X49761904Y-132714285D02*
X49666666Y-132809523D01*
X49380952Y-132904761D01*
X49190476Y-132904761D01*
X48904761Y-132809523D01*
X48714285Y-132619047D01*
X48619047Y-132428571D01*
X48523809Y-132047619D01*
X48523809Y-131761904D01*
X48619047Y-131380952D01*
X48714285Y-131190476D01*
X48904761Y-131000000D01*
X49190476Y-130904761D01*
X49380952Y-130904761D01*
X49666666Y-131000000D01*
X49761904Y-131095238D01*
X50333333Y-130904761D02*
X51000000Y-132904761D01*
X51666666Y-130904761D01*
X27857142Y-43404761D02*
X26904761Y-43404761D01*
X26904761Y-41404761D01*
X28523809Y-42357142D02*
X29190476Y-42357142D01*
X29476190Y-43404761D02*
X28523809Y-43404761D01*
X28523809Y-41404761D01*
X29476190Y-41404761D01*
X30333333Y-43404761D02*
X30333333Y-41404761D01*
X31476190Y-43404761D01*
X31476190Y-41404761D01*
X33476190Y-41500000D02*
X33285714Y-41404761D01*
X33000000Y-41404761D01*
X32714285Y-41500000D01*
X32523809Y-41690476D01*
X32428571Y-41880952D01*
X32333333Y-42261904D01*
X32333333Y-42547619D01*
X32428571Y-42928571D01*
X32523809Y-43119047D01*
X32714285Y-43309523D01*
X33000000Y-43404761D01*
X33190476Y-43404761D01*
X33476190Y-43309523D01*
X33571428Y-43214285D01*
X33571428Y-42547619D01*
X33190476Y-42547619D01*
X34142857Y-41404761D02*
X35285714Y-41404761D01*
X34714285Y-43404761D02*
X34714285Y-41404761D01*
X35952380Y-43404761D02*
X35952380Y-41404761D01*
X35952380Y-42357142D02*
X37095238Y-42357142D01*
X37095238Y-43404761D02*
X37095238Y-41404761D01*
X22761904Y-132714285D02*
X22666666Y-132809523D01*
X22380952Y-132904761D01*
X22190476Y-132904761D01*
X21904761Y-132809523D01*
X21714285Y-132619047D01*
X21619047Y-132428571D01*
X21523809Y-132047619D01*
X21523809Y-131761904D01*
X21619047Y-131380952D01*
X21714285Y-131190476D01*
X21904761Y-131000000D01*
X22190476Y-130904761D01*
X22380952Y-130904761D01*
X22666666Y-131000000D01*
X22761904Y-131095238D01*
X24571428Y-132904761D02*
X23619047Y-132904761D01*
X23619047Y-130904761D01*
X25619047Y-130904761D02*
X26000000Y-130904761D01*
X26190476Y-131000000D01*
X26380952Y-131190476D01*
X26476190Y-131571428D01*
X26476190Y-132238095D01*
X26380952Y-132619047D01*
X26190476Y-132809523D01*
X26000000Y-132904761D01*
X25619047Y-132904761D01*
X25428571Y-132809523D01*
X25238095Y-132619047D01*
X25142857Y-132238095D01*
X25142857Y-131571428D01*
X25238095Y-131190476D01*
X25428571Y-131000000D01*
X25619047Y-130904761D01*
X28476190Y-132714285D02*
X28380952Y-132809523D01*
X28095238Y-132904761D01*
X27904761Y-132904761D01*
X27619047Y-132809523D01*
X27428571Y-132619047D01*
X27333333Y-132428571D01*
X27238095Y-132047619D01*
X27238095Y-131761904D01*
X27333333Y-131380952D01*
X27428571Y-131190476D01*
X27619047Y-131000000D01*
X27904761Y-130904761D01*
X28095238Y-130904761D01*
X28380952Y-131000000D01*
X28476190Y-131095238D01*
X29333333Y-132904761D02*
X29333333Y-130904761D01*
X30476190Y-132904761D02*
X29619047Y-131761904D01*
X30476190Y-130904761D02*
X29333333Y-132047619D01*
X46714285Y-119904761D02*
X46714285Y-117904761D01*
X47476190Y-117904761D01*
X47666666Y-118000000D01*
X47761904Y-118095238D01*
X47857142Y-118285714D01*
X47857142Y-118571428D01*
X47761904Y-118761904D01*
X47666666Y-118857142D01*
X47476190Y-118952380D01*
X46714285Y-118952380D01*
X48619047Y-119333333D02*
X49571428Y-119333333D01*
X48428571Y-119904761D02*
X49095238Y-117904761D01*
X49761904Y-119904761D01*
X50333333Y-119809523D02*
X50619047Y-119904761D01*
X51095238Y-119904761D01*
X51285714Y-119809523D01*
X51380952Y-119714285D01*
X51476190Y-119523809D01*
X51476190Y-119333333D01*
X51380952Y-119142857D01*
X51285714Y-119047619D01*
X51095238Y-118952380D01*
X50714285Y-118857142D01*
X50523809Y-118761904D01*
X50428571Y-118666666D01*
X50333333Y-118476190D01*
X50333333Y-118285714D01*
X50428571Y-118095238D01*
X50523809Y-118000000D01*
X50714285Y-117904761D01*
X51190476Y-117904761D01*
X51476190Y-118000000D01*
X52238095Y-119809523D02*
X52523809Y-119904761D01*
X53000000Y-119904761D01*
X53190476Y-119809523D01*
X53285714Y-119714285D01*
X53380952Y-119523809D01*
X53380952Y-119333333D01*
X53285714Y-119142857D01*
X53190476Y-119047619D01*
X53000000Y-118952380D01*
X52619047Y-118857142D01*
X52428571Y-118761904D01*
X52333333Y-118666666D01*
X52238095Y-118476190D01*
X52238095Y-118285714D01*
X52333333Y-118095238D01*
X52428571Y-118000000D01*
X52619047Y-117904761D01*
X53095238Y-117904761D01*
X53380952Y-118000000D01*
X35095238Y-132904761D02*
X34428571Y-131952380D01*
X33952380Y-132904761D02*
X33952380Y-130904761D01*
X34714285Y-130904761D01*
X34904761Y-131000000D01*
X35000000Y-131095238D01*
X35095238Y-131285714D01*
X35095238Y-131571428D01*
X35000000Y-131761904D01*
X34904761Y-131857142D01*
X34714285Y-131952380D01*
X33952380Y-131952380D01*
X35952380Y-131857142D02*
X36619047Y-131857142D01*
X36904761Y-132904761D02*
X35952380Y-132904761D01*
X35952380Y-130904761D01*
X36904761Y-130904761D01*
X37666666Y-132809523D02*
X37952380Y-132904761D01*
X38428571Y-132904761D01*
X38619047Y-132809523D01*
X38714285Y-132714285D01*
X38809523Y-132523809D01*
X38809523Y-132333333D01*
X38714285Y-132142857D01*
X38619047Y-132047619D01*
X38428571Y-131952380D01*
X38047619Y-131857142D01*
X37857142Y-131761904D01*
X37761904Y-131666666D01*
X37666666Y-131476190D01*
X37666666Y-131285714D01*
X37761904Y-131095238D01*
X37857142Y-131000000D01*
X38047619Y-130904761D01*
X38523809Y-130904761D01*
X38809523Y-131000000D01*
X39666666Y-131857142D02*
X40333333Y-131857142D01*
X40619047Y-132904761D02*
X39666666Y-132904761D01*
X39666666Y-130904761D01*
X40619047Y-130904761D01*
X41190476Y-130904761D02*
X42333333Y-130904761D01*
X41761904Y-132904761D02*
X41761904Y-130904761D01*
X28285714Y-85809523D02*
X28571428Y-85904761D01*
X29047619Y-85904761D01*
X29238095Y-85809523D01*
X29333333Y-85714285D01*
X29428571Y-85523809D01*
X29428571Y-85333333D01*
X29333333Y-85142857D01*
X29238095Y-85047619D01*
X29047619Y-84952380D01*
X28666666Y-84857142D01*
X28476190Y-84761904D01*
X28380952Y-84666666D01*
X28285714Y-84476190D01*
X28285714Y-84285714D01*
X28380952Y-84095238D01*
X28476190Y-84000000D01*
X28666666Y-83904761D01*
X29142857Y-83904761D01*
X29428571Y-84000000D01*
X30285714Y-85904761D02*
X30285714Y-83904761D01*
X30285714Y-84857142D02*
X31428571Y-84857142D01*
X31428571Y-85904761D02*
X31428571Y-83904761D01*
X32380952Y-85904761D02*
X32380952Y-83904761D01*
X34000000Y-84857142D02*
X33333333Y-84857142D01*
X33333333Y-85904761D02*
X33333333Y-83904761D01*
X34285714Y-83904761D01*
X34761904Y-83904761D02*
X35904761Y-83904761D01*
X35333333Y-85904761D02*
X35333333Y-83904761D01*
X54000000Y-43000000D02*
X54000000Y-42500000D01*
X54000000Y-38000000D02*
X56000000Y-41000000D01*
X54000000Y-37000000D02*
X54000000Y-37500000D01*
X54000000Y-46000000D02*
X54000000Y-50000000D01*
X54000000Y-50000000D02*
X52000000Y-48000000D01*
X52000000Y-41000000D02*
X56000000Y-41000000D01*
X51000000Y-40000000D02*
X51500000Y-40000000D01*
X52000000Y-48000000D02*
X54000000Y-46000000D01*
X55000000Y-66000000D02*
X56500000Y-66000000D01*
X56236068Y-40000000D02*
G75*
G03X56236068Y-40000000I-2236068J0D01*
G01*
X50000000Y-106500000D02*
X50000000Y-108500000D01*
X54000000Y-45000000D02*
X54000000Y-45500000D01*
X51000000Y-44000000D02*
X57500000Y-44000000D01*
X26000000Y-106500000D02*
X26000000Y-108500000D01*
X52500000Y-66000000D02*
X52000000Y-66000000D01*
X22000000Y-63500000D02*
X22000000Y-78500000D01*
X51000000Y-63000000D02*
X57500000Y-63000000D01*
X54000000Y-51000000D02*
X54000000Y-50500000D01*
X38000000Y-106500000D02*
X38000000Y-108500000D01*
X56000000Y-131500000D02*
X56000000Y-94500000D01*
X52500000Y-131500000D02*
X56000000Y-131500000D01*
X56000000Y-94500000D02*
X54000000Y-94500000D01*
X54000000Y-94500000D02*
X52000000Y-94500000D01*
X22000000Y-82500000D02*
X22000000Y-83000000D01*
X35047619Y-119714285D02*
X34952380Y-119809523D01*
X34666666Y-119904761D01*
X34476190Y-119904761D01*
X34190476Y-119809523D01*
X34000000Y-119619047D01*
X33904761Y-119428571D01*
X33809523Y-119047619D01*
X33809523Y-118761904D01*
X33904761Y-118380952D01*
X34000000Y-118190476D01*
X34190476Y-118000000D01*
X34476190Y-117904761D01*
X34666666Y-117904761D01*
X34952380Y-118000000D01*
X35047619Y-118095238D01*
X36285714Y-118952380D02*
X36285714Y-119904761D01*
X35619047Y-117904761D02*
X36285714Y-118952380D01*
X36952380Y-117904761D01*
X38761904Y-119714285D02*
X38666666Y-119809523D01*
X38380952Y-119904761D01*
X38190476Y-119904761D01*
X37904761Y-119809523D01*
X37714285Y-119619047D01*
X37619047Y-119428571D01*
X37523809Y-119047619D01*
X37523809Y-118761904D01*
X37619047Y-118380952D01*
X37714285Y-118190476D01*
X37904761Y-118000000D01*
X38190476Y-117904761D01*
X38380952Y-117904761D01*
X38666666Y-118000000D01*
X38761904Y-118095238D01*
X40571428Y-119904761D02*
X39619047Y-119904761D01*
X39619047Y-117904761D01*
X41238095Y-118857142D02*
X41904761Y-118857142D01*
X42190476Y-119904761D02*
X41238095Y-119904761D01*
X41238095Y-117904761D01*
X42190476Y-117904761D01*
X24000000Y-117904761D02*
X24380952Y-117904761D01*
X24571428Y-118000000D01*
X24761904Y-118190476D01*
X24857142Y-118571428D01*
X24857142Y-119238095D01*
X24761904Y-119619047D01*
X24571428Y-119809523D01*
X24380952Y-119904761D01*
X24000000Y-119904761D01*
X23809523Y-119809523D01*
X23619047Y-119619047D01*
X23523809Y-119238095D01*
X23523809Y-118571428D01*
X23619047Y-118190476D01*
X23809523Y-118000000D01*
X24000000Y-117904761D01*
X25714285Y-117904761D02*
X25714285Y-119523809D01*
X25809523Y-119714285D01*
X25904761Y-119809523D01*
X26095238Y-119904761D01*
X26476190Y-119904761D01*
X26666666Y-119809523D01*
X26761904Y-119714285D01*
X26857142Y-119523809D01*
X26857142Y-117904761D01*
X27523809Y-117904761D02*
X28666666Y-117904761D01*
X28095238Y-119904761D02*
X28095238Y-117904761D01*
X51000000Y-48000000D02*
X51500000Y-48000000D01*
X56236068Y-48000000D02*
G75*
G03X56236068Y-48000000I-2236068J0D01*
G01*
X36000000Y-94500000D02*
X44000000Y-94500000D01*
X22000000Y-87000000D02*
X22000000Y-94000000D01*
D12*
X30379642Y-142178571D02*
X30567142Y-140678571D01*
X30933214Y-141750000D01*
X31567142Y-140678571D01*
X31379642Y-142178571D01*
X32076071Y-141750000D02*
X32790357Y-141750000D01*
X31879642Y-142178571D02*
X32567142Y-140678571D01*
X32879642Y-142178571D01*
X33352857Y-140678571D02*
X34210000Y-140678571D01*
X33593928Y-142178571D02*
X33781428Y-140678571D01*
X34620714Y-141392857D02*
X35120714Y-141392857D01*
X35236785Y-142178571D02*
X34522500Y-142178571D01*
X34710000Y-140678571D01*
X35424285Y-140678571D01*
X36736785Y-142178571D02*
X36326071Y-141464285D01*
X35879642Y-142178571D02*
X36067142Y-140678571D01*
X36638571Y-140678571D01*
X36772500Y-140750000D01*
X36835000Y-140821428D01*
X36888571Y-140964285D01*
X36861785Y-141178571D01*
X36772500Y-141321428D01*
X36692142Y-141392857D01*
X36540357Y-141464285D01*
X35968928Y-141464285D01*
X37379642Y-142178571D02*
X37567142Y-140678571D01*
X38076071Y-141750000D02*
X38790357Y-141750000D01*
X37879642Y-142178571D02*
X38567142Y-140678571D01*
X38879642Y-142178571D01*
X40093928Y-142178571D02*
X39379642Y-142178571D01*
X39567142Y-140678571D01*
X41736785Y-142178571D02*
X41924285Y-140678571D01*
X42290357Y-141750000D01*
X42924285Y-140678571D01*
X42736785Y-142178571D01*
X43549285Y-141392857D02*
X44049285Y-141392857D01*
X44165357Y-142178571D02*
X43451071Y-142178571D01*
X43638571Y-140678571D01*
X44352857Y-140678571D01*
X44781428Y-140678571D02*
X45638571Y-140678571D01*
X45022500Y-142178571D02*
X45210000Y-140678571D01*
X45951071Y-142178571D02*
X46138571Y-140678571D01*
X46049285Y-141392857D02*
X46906428Y-141392857D01*
X46808214Y-142178571D02*
X46995714Y-140678571D01*
X47995714Y-140678571D02*
X48281428Y-140678571D01*
X48415357Y-140750000D01*
X48540357Y-140892857D01*
X48576071Y-141178571D01*
X48513571Y-141678571D01*
X48406428Y-141964285D01*
X48245714Y-142107142D01*
X48093928Y-142178571D01*
X47808214Y-142178571D01*
X47674285Y-142107142D01*
X47549285Y-141964285D01*
X47513571Y-141678571D01*
X47576071Y-141178571D01*
X47683214Y-140892857D01*
X47843928Y-140750000D01*
X47995714Y-140678571D01*
X49093928Y-142178571D02*
X49281428Y-140678571D01*
X49638571Y-140678571D01*
X49843928Y-140750000D01*
X49968928Y-140892857D01*
X50022500Y-141035714D01*
X50058214Y-141321428D01*
X50031428Y-141535714D01*
X49924285Y-141821428D01*
X49835000Y-141964285D01*
X49674285Y-142107142D01*
X49451071Y-142178571D01*
X49093928Y-142178571D01*
X50531428Y-142107142D02*
X50736785Y-142178571D01*
X51093928Y-142178571D01*
X51245714Y-142107142D01*
X51326071Y-142035714D01*
X51415357Y-141892857D01*
X51433214Y-141750000D01*
X51379642Y-141607142D01*
X51317142Y-141535714D01*
X51183214Y-141464285D01*
X50906428Y-141392857D01*
X50772500Y-141321428D01*
X50710000Y-141250000D01*
X50656428Y-141107142D01*
X50674285Y-140964285D01*
X50763571Y-140821428D01*
X50843928Y-140750000D01*
X50995714Y-140678571D01*
X51352857Y-140678571D01*
X51558214Y-140750000D01*
D10*
X18000000Y-144500000D02*
X18000000Y-16000000D01*
X58500000Y-144500000D02*
X18000000Y-144500000D01*
X18000000Y-16000000D02*
X58500000Y-16000000D01*
X58500000Y-16000000D02*
X58500000Y-144500000D01*
D11*
X55000000Y-64000000D02*
X55000000Y-66000000D01*
X32158720Y-20892857D02*
X32024791Y-21011904D01*
X31652767Y-21130952D01*
X31414672Y-21130952D01*
X31072410Y-21011904D01*
X30864077Y-20773809D01*
X30774791Y-20535714D01*
X30715267Y-20059523D01*
X30759910Y-19702380D01*
X30938482Y-19226190D01*
X31087291Y-18988095D01*
X31355148Y-18750000D01*
X31727172Y-18630952D01*
X31965267Y-18630952D01*
X32307529Y-18750000D01*
X32411696Y-18869047D01*
X34390863Y-21130952D02*
X33200386Y-21130952D01*
X33512886Y-18630952D01*
X36012886Y-18630952D02*
X36489077Y-18630952D01*
X36712291Y-18750000D01*
X36920625Y-18988095D01*
X36980148Y-19464285D01*
X36875982Y-20297619D01*
X36697410Y-20773809D01*
X36429553Y-21011904D01*
X36176577Y-21130952D01*
X35700386Y-21130952D01*
X35477172Y-21011904D01*
X35268839Y-20773809D01*
X35209315Y-20297619D01*
X35313482Y-19464285D01*
X35492053Y-18988095D01*
X35759910Y-18750000D01*
X36012886Y-18630952D01*
X39301577Y-20892857D02*
X39167648Y-21011904D01*
X38795625Y-21130952D01*
X38557529Y-21130952D01*
X38215267Y-21011904D01*
X38006934Y-20773809D01*
X37917648Y-20535714D01*
X37858125Y-20059523D01*
X37902767Y-19702380D01*
X38081339Y-19226190D01*
X38230148Y-18988095D01*
X38498005Y-18750000D01*
X38870029Y-18630952D01*
X39108125Y-18630952D01*
X39450386Y-18750000D01*
X39554553Y-18869047D01*
X40343244Y-21130952D02*
X40655744Y-18630952D01*
X41771815Y-21130952D02*
X40878958Y-19702380D01*
X42084315Y-18630952D02*
X40477172Y-20059523D01*
X46206339Y-20892857D02*
X46072410Y-21011904D01*
X45700386Y-21130952D01*
X45462291Y-21130952D01*
X45120029Y-21011904D01*
X44911696Y-20773809D01*
X44822410Y-20535714D01*
X44762886Y-20059523D01*
X44807529Y-19702380D01*
X44986101Y-19226190D01*
X45134910Y-18988095D01*
X45402767Y-18750000D01*
X45774791Y-18630952D01*
X46012886Y-18630952D01*
X46355148Y-18750000D01*
X46459315Y-18869047D01*
X47248005Y-21130952D02*
X47560505Y-18630952D01*
X47411696Y-19821428D02*
X48840267Y-19821428D01*
X48676577Y-21130952D02*
X48989077Y-18630952D01*
X50655744Y-18630952D02*
X51131934Y-18630952D01*
X51355148Y-18750000D01*
X51563482Y-18988095D01*
X51623005Y-19464285D01*
X51518839Y-20297619D01*
X51340267Y-20773809D01*
X51072410Y-21011904D01*
X50819434Y-21130952D01*
X50343244Y-21130952D01*
X50120029Y-21011904D01*
X49911696Y-20773809D01*
X49852172Y-20297619D01*
X49956339Y-19464285D01*
X50134910Y-18988095D01*
X50402767Y-18750000D01*
X50655744Y-18630952D01*
X52486101Y-21130952D02*
X52798601Y-18630952D01*
X53750982Y-18630952D01*
X53974196Y-18750000D01*
X54078363Y-18869047D01*
X54167648Y-19107142D01*
X54123005Y-19464285D01*
X53974196Y-19702380D01*
X53840267Y-19821428D01*
X53587291Y-19940476D01*
X52634910Y-19940476D01*
X54000000Y-38000000D02*
X52000000Y-41000000D01*
X56500000Y-40000000D02*
X57000000Y-40000000D01*
X56500000Y-48000000D02*
X57000000Y-48000000D01*
X52500000Y-62000000D02*
X52000000Y-62000000D01*
X22000000Y-94500000D02*
X28000000Y-94500000D01*
X22000000Y-94000000D02*
X22000000Y-94500000D01*
X22000000Y-44500000D02*
X22000000Y-59500000D01*
X53500000Y-62000000D02*
X56500000Y-62000000D01*
X52500000Y-64000000D02*
X52500000Y-66000000D01*
X54272002Y-113000000D02*
G75*
G03X54272002Y-113000000I-4272002J0D01*
G01*
X42472136Y-113000000D02*
G75*
G03X42472136Y-113000000I-4472136J0D01*
G01*
X30272002Y-113000000D02*
G75*
G03X30272002Y-113000000I-4272002J0D01*
G01*
D13*
G36*
X32168172Y-44252582D02*
X32197989Y-44277328D01*
X32218140Y-44322994D01*
X32230445Y-44403326D01*
X32236724Y-44532071D01*
X32238797Y-44722975D01*
X32238871Y-44786667D01*
X32238871Y-45282915D01*
X32455798Y-45282915D01*
X32637340Y-45290854D01*
X32873923Y-45312627D01*
X33142778Y-45345166D01*
X33421137Y-45385405D01*
X33686230Y-45430278D01*
X33915289Y-45476718D01*
X33943974Y-45483355D01*
X34100720Y-45519098D01*
X34229918Y-45546270D01*
X34310350Y-45560491D01*
X34322993Y-45561599D01*
X34359951Y-45526923D01*
X34408168Y-45436796D01*
X34449238Y-45332680D01*
X34505857Y-45191988D01*
X34559573Y-45116066D01*
X34611164Y-45091887D01*
X34706079Y-45099841D01*
X34752402Y-45160923D01*
X34751551Y-45279667D01*
X34715726Y-45426268D01*
X34644360Y-45660681D01*
X35066645Y-45826011D01*
X35556388Y-46033778D01*
X36020907Y-46261866D01*
X36358217Y-46451615D01*
X36591190Y-46591957D01*
X36735553Y-46385320D01*
X36850450Y-46246191D01*
X36947502Y-46183973D01*
X37027756Y-46198228D01*
X37069472Y-46245178D01*
X37083238Y-46298110D01*
X37060303Y-46373048D01*
X36994471Y-46487125D01*
X36966489Y-46529947D01*
X36821563Y-46748222D01*
X37097046Y-46953073D01*
X37385459Y-47182306D01*
X37693974Y-47453250D01*
X37996790Y-47742558D01*
X38191081Y-47942992D01*
X38430281Y-48198972D01*
X38602920Y-48054737D01*
X38743528Y-47957564D01*
X38862236Y-47914753D01*
X38948066Y-47928662D01*
X38982588Y-47973103D01*
X38984441Y-48047644D01*
X38955855Y-48131044D01*
X38911842Y-48185556D01*
X38896013Y-48190803D01*
X38850869Y-48215554D01*
X38770926Y-48275901D01*
X38734765Y-48306024D01*
X38601975Y-48419628D01*
X38818164Y-48712478D01*
X38984544Y-48950111D01*
X39157040Y-49217699D01*
X39322375Y-49493007D01*
X39467275Y-49753799D01*
X39578463Y-49977839D01*
X39592561Y-50009532D01*
X39650321Y-50134368D01*
X39698209Y-50223950D01*
X39726096Y-50259376D01*
X39726489Y-50259404D01*
X39771072Y-50244874D01*
X39873371Y-50205389D01*
X40017809Y-50147114D01*
X40175845Y-50081645D01*
X40382433Y-49998476D01*
X40529376Y-49949337D01*
X40628307Y-49932764D01*
X40690855Y-49947292D01*
X40728653Y-49991459D01*
X40737187Y-50011002D01*
X40738885Y-50072123D01*
X40691498Y-50134893D01*
X40587703Y-50204480D01*
X40420173Y-50286053D01*
X40241066Y-50361117D01*
X40081852Y-50425557D01*
X39952521Y-50478788D01*
X39869404Y-50514036D01*
X39847471Y-50524377D01*
X39852668Y-50564363D01*
X39879010Y-50663057D01*
X39921812Y-50803850D01*
X39956660Y-50911342D01*
X40049511Y-51210445D01*
X40135835Y-51524121D01*
X40210439Y-51830820D01*
X40268127Y-52108990D01*
X40303704Y-52337078D01*
X40306525Y-52362808D01*
X40332366Y-52614957D01*
X40575352Y-52607053D01*
X40740379Y-52602641D01*
X40841488Y-52605561D01*
X40894335Y-52620312D01*
X40914576Y-52651393D01*
X40917868Y-52703303D01*
X40917868Y-52705487D01*
X40905263Y-52783925D01*
X40857469Y-52834616D01*
X40759523Y-52866167D01*
X40603002Y-52886572D01*
X40387666Y-52906896D01*
X40395268Y-53464263D01*
X40393167Y-53729933D01*
X40381685Y-54027046D01*
X40362758Y-54317053D01*
X40341510Y-54535503D01*
X40319398Y-54727505D01*
X40302447Y-54888146D01*
X40292121Y-55002455D01*
X40289884Y-55055461D01*
X40290466Y-55057347D01*
X40331531Y-55069798D01*
X40428067Y-55094218D01*
X40539655Y-55120747D01*
X40673403Y-55155600D01*
X40747547Y-55189367D01*
X40781014Y-55234100D01*
X40790633Y-55280572D01*
X40781141Y-55366703D01*
X40722406Y-55411545D01*
X40606497Y-55417719D01*
X40449988Y-55393056D01*
X40330053Y-55370752D01*
X40247198Y-55360242D01*
X40223770Y-55361804D01*
X40209423Y-55402983D01*
X40177969Y-55506099D01*
X40133792Y-55656418D01*
X40081273Y-55839209D01*
X40071194Y-55874699D01*
X39995838Y-56118391D01*
X39899792Y-56397212D01*
X39796238Y-56674232D01*
X39711759Y-56881631D01*
X39493920Y-57389098D01*
X39680887Y-57483841D01*
X39838153Y-57574396D01*
X39924665Y-57653224D01*
X39947067Y-57727297D01*
X39940085Y-57755825D01*
X39889298Y-57823016D01*
X39803398Y-57836127D01*
X39673713Y-57794862D01*
X39570075Y-57743230D01*
X39453677Y-57686909D01*
X39368000Y-57658082D01*
X39332773Y-57662182D01*
X39296080Y-57734046D01*
X39220544Y-57855903D01*
X39115564Y-58014399D01*
X38990538Y-58196179D01*
X38854865Y-58387891D01*
X38717944Y-58576180D01*
X38589172Y-58747692D01*
X38477949Y-58889075D01*
X38424101Y-58953253D01*
X38306162Y-59089437D01*
X38205558Y-59207182D01*
X38135380Y-59291075D01*
X38111594Y-59321098D01*
X38108551Y-59360854D01*
X38145880Y-59426954D01*
X38229700Y-59527542D01*
X38366131Y-59670760D01*
X38400230Y-59705197D01*
X38569778Y-59884932D01*
X38677426Y-60022638D01*
X38725637Y-60123167D01*
X38716868Y-60191373D01*
X38665239Y-60228029D01*
X38597223Y-60249260D01*
X38578046Y-60252194D01*
X38543136Y-60225224D01*
X38461413Y-60150222D01*
X38341768Y-60036051D01*
X38193090Y-59891575D01*
X38024271Y-59725656D01*
X37844200Y-59547159D01*
X37661769Y-59364945D01*
X37485867Y-59187879D01*
X37325385Y-59024824D01*
X37189215Y-58884643D01*
X37086245Y-58776198D01*
X37025367Y-58708354D01*
X37013510Y-58692461D01*
X36993713Y-58604578D01*
X37000797Y-58563072D01*
X37044856Y-58507348D01*
X37117175Y-58506266D01*
X37222627Y-58562293D01*
X37366080Y-58677897D01*
X37525654Y-58828918D01*
X37857517Y-59157367D01*
X38067271Y-58933713D01*
X38206956Y-58776485D01*
X38355639Y-58594923D01*
X38506432Y-58399131D01*
X38652447Y-58199210D01*
X38786793Y-58005263D01*
X38902584Y-57827391D01*
X38992929Y-57675697D01*
X39050941Y-57560281D01*
X39069730Y-57491248D01*
X39060834Y-57476704D01*
X39005096Y-57448566D01*
X38907726Y-57391528D01*
X38830483Y-57343596D01*
X38716823Y-57262600D01*
X38663290Y-57197057D01*
X38655880Y-57136507D01*
X38695514Y-57057378D01*
X38783913Y-57038951D01*
X38922221Y-57081191D01*
X39011405Y-57125571D01*
X39124355Y-57180051D01*
X39210441Y-57208880D01*
X39241944Y-57208946D01*
X39280835Y-57156043D01*
X39338797Y-57040386D01*
X39410930Y-56875152D01*
X39492337Y-56673521D01*
X39578121Y-56448669D01*
X39663384Y-56213773D01*
X39743228Y-55982012D01*
X39812755Y-55766562D01*
X39867068Y-55580602D01*
X39901268Y-55437308D01*
X39902153Y-55432626D01*
X39928570Y-55290958D01*
X39676746Y-55233567D01*
X39539056Y-55198882D01*
X39461326Y-55166436D01*
X39425075Y-55124789D01*
X39412654Y-55070110D01*
X39426554Y-54979651D01*
X39497373Y-54935492D01*
X39629193Y-54936149D01*
X39728885Y-54955007D01*
X39844703Y-54979735D01*
X39929895Y-54994411D01*
X39947590Y-54996049D01*
X39975305Y-54959002D01*
X40003499Y-54855366D01*
X40031070Y-54698161D01*
X40056917Y-54500407D01*
X40079936Y-54275122D01*
X40099027Y-54035327D01*
X40113086Y-53794041D01*
X40121013Y-53564282D01*
X40121704Y-53359072D01*
X40114059Y-53191428D01*
X40106214Y-53122020D01*
X40079191Y-52941818D01*
X39841533Y-52959008D01*
X39661243Y-52957780D01*
X39540737Y-52925483D01*
X39486884Y-52864308D01*
X39484639Y-52845148D01*
X39519681Y-52775669D01*
X39606199Y-52717537D01*
X39716286Y-52688246D01*
X39736307Y-52687387D01*
X39902749Y-52674892D01*
X40001261Y-52636494D01*
X40040463Y-52568207D01*
X40042006Y-52545967D01*
X40031855Y-52429322D01*
X40003830Y-52259410D01*
X39961574Y-52050493D01*
X39908730Y-51816831D01*
X39848942Y-51572685D01*
X39785852Y-51332316D01*
X39723103Y-51109986D01*
X39664339Y-50919955D01*
X39613202Y-50776485D01*
X39573335Y-50693837D01*
X39566761Y-50685569D01*
X39520343Y-50687405D01*
X39416403Y-50715977D01*
X39270491Y-50766386D01*
X39103639Y-50831482D01*
X38878200Y-50918168D01*
X38715314Y-50965947D01*
X38608155Y-50974980D01*
X38549893Y-50945425D01*
X38533702Y-50877443D01*
X38536690Y-50844746D01*
X38557463Y-50799945D01*
X38614157Y-50751930D01*
X38717925Y-50693979D01*
X38879922Y-50619372D01*
X38986990Y-50573405D01*
X39178003Y-50490255D01*
X39305023Y-50428153D01*
X39378750Y-50380563D01*
X39409884Y-50340950D01*
X39411956Y-50313818D01*
X39380480Y-50222339D01*
X39312634Y-50078397D01*
X39216513Y-49895581D01*
X39100213Y-49687480D01*
X38971828Y-49467684D01*
X38839454Y-49249780D01*
X38711185Y-49047358D01*
X38595118Y-48874006D01*
X38499346Y-48743315D01*
X38432107Y-48668989D01*
X38387274Y-48647003D01*
X38331349Y-48661676D01*
X38245452Y-48720471D01*
X38190549Y-48764493D01*
X38053808Y-48860973D01*
X37952086Y-48893095D01*
X37875448Y-48862220D01*
X37836712Y-48812935D01*
X37821573Y-48766857D01*
X37841174Y-48715293D01*
X37905286Y-48642989D01*
X38003430Y-48552626D01*
X38214227Y-48365276D01*
X37724747Y-47887419D01*
X37475368Y-47649887D01*
X37237948Y-47435012D01*
X37023136Y-47251889D01*
X36841585Y-47109617D01*
X36710235Y-47020942D01*
X36660351Y-47035402D01*
X36584912Y-47113231D01*
X36533709Y-47183115D01*
X36441394Y-47313078D01*
X36375938Y-47385174D01*
X36323153Y-47409760D01*
X36268852Y-47397198D01*
X36252067Y-47388768D01*
X36195275Y-47336749D01*
X36188633Y-47259819D01*
X36233865Y-47146154D01*
X36304941Y-47026450D01*
X36373376Y-46916245D01*
X36401842Y-46851747D01*
X36394448Y-46812352D01*
X36355305Y-46777457D01*
X36354706Y-46777016D01*
X36246306Y-46707521D01*
X36087176Y-46618781D01*
X35890698Y-46516993D01*
X35670249Y-46408356D01*
X35439211Y-46299068D01*
X35210963Y-46195327D01*
X34998885Y-46103331D01*
X34816357Y-46029278D01*
X34676759Y-45979366D01*
X34593470Y-45959792D01*
X34590387Y-45959718D01*
X34558335Y-45994699D01*
X34517468Y-46085050D01*
X34487501Y-46175348D01*
X34429617Y-46340418D01*
X34369752Y-46433131D01*
X34301006Y-46460603D01*
X34232012Y-46438823D01*
X34174591Y-46396249D01*
X34154274Y-46337234D01*
X34169679Y-46242117D01*
X34209561Y-46118965D01*
X34246095Y-46004596D01*
X34267205Y-45917560D01*
X34269279Y-45898263D01*
X34231595Y-45862381D01*
X34126293Y-45820986D01*
X33964995Y-45776355D01*
X33759326Y-45730762D01*
X33520908Y-45686486D01*
X33261366Y-45645802D01*
X32992321Y-45610987D01*
X32725398Y-45584317D01*
X32628309Y-45576886D01*
X32241415Y-45550025D01*
X32230190Y-46039251D01*
X32223475Y-46252893D01*
X32213616Y-46400028D01*
X32198744Y-46493762D01*
X32176992Y-46547199D01*
X32154706Y-46568928D01*
X32067903Y-46591442D01*
X32025317Y-46584388D01*
X31997775Y-46563311D01*
X31979114Y-46516350D01*
X31967712Y-46430467D01*
X31961949Y-46292627D01*
X31960204Y-46089793D01*
X31960188Y-46060497D01*
X31960188Y-45561599D01*
X31763167Y-45561599D01*
X31591866Y-45569419D01*
X31364590Y-45590878D01*
X31103227Y-45622970D01*
X30829669Y-45662688D01*
X30565804Y-45707028D01*
X30333522Y-45752984D01*
X30278135Y-45765496D01*
X30101199Y-45809401D01*
X29991806Y-45850199D01*
X29939683Y-45901660D01*
X29934559Y-45977556D01*
X29966160Y-46091658D01*
X29987980Y-46154473D01*
X30025352Y-46304337D01*
X30010404Y-46401618D01*
X29946608Y-46453039D01*
X29862350Y-46461088D01*
X29794138Y-46407860D01*
X29735276Y-46286096D01*
X29705751Y-46191900D01*
X29666950Y-46062211D01*
X29635059Y-45993920D01*
X29597415Y-45971245D01*
X29541356Y-45978403D01*
X29535582Y-45979820D01*
X29397086Y-46022748D01*
X29218886Y-46090626D01*
X29012862Y-46177590D01*
X28790894Y-46277772D01*
X28564862Y-46385308D01*
X28346646Y-46494332D01*
X28148128Y-46598978D01*
X27981187Y-46693381D01*
X27857704Y-46771675D01*
X27789559Y-46827994D01*
X27779937Y-46846632D01*
X27800902Y-46896466D01*
X27854638Y-46987014D01*
X27899373Y-47054545D01*
X27984990Y-47195446D01*
X28014171Y-47293044D01*
X27988587Y-47358476D01*
X27949138Y-47386166D01*
X27878385Y-47408756D01*
X27814961Y-47388504D01*
X27744328Y-47315672D01*
X27659314Y-47192037D01*
X27583699Y-47082129D01*
X27530300Y-47030516D01*
X27483903Y-47025213D01*
X27460273Y-47035265D01*
X27348413Y-47107667D01*
X27193994Y-47225055D01*
X27010544Y-47375896D01*
X26811589Y-47548659D01*
X26610655Y-47731809D01*
X26421270Y-47913815D01*
X26372210Y-47962943D01*
X25979687Y-48360114D01*
X26183104Y-48547125D01*
X26300716Y-48659663D01*
X26363944Y-48736225D01*
X26380022Y-48791262D01*
X26356184Y-48839227D01*
X26338746Y-48858025D01*
X26271166Y-48899359D01*
X26189832Y-48889516D01*
X26080110Y-48824472D01*
X26005707Y-48766458D01*
X25906137Y-48689617D01*
X25830073Y-48639514D01*
X25802547Y-48628276D01*
X25754622Y-48662535D01*
X25677050Y-48755465D01*
X25576660Y-48895536D01*
X25460282Y-49071219D01*
X25334743Y-49270984D01*
X25206874Y-49483301D01*
X25083503Y-49696642D01*
X24971460Y-49899476D01*
X24877572Y-50080274D01*
X24808671Y-50227507D01*
X24771583Y-50329644D01*
X24769817Y-50371849D01*
X24812343Y-50398488D01*
X24913218Y-50447264D01*
X25056784Y-50510938D01*
X25206752Y-50573853D01*
X25408550Y-50660089D01*
X25544201Y-50728804D01*
X25623203Y-50787342D01*
X25655051Y-50843043D01*
X25649242Y-50903252D01*
X25645672Y-50913223D01*
X25613754Y-50962690D01*
X25558965Y-50983387D01*
X25469863Y-50973697D01*
X25335009Y-50932006D01*
X25142962Y-50856698D01*
X25090383Y-50834823D01*
X24920208Y-50766458D01*
X24776412Y-50714179D01*
X24674924Y-50683414D01*
X24632576Y-50678802D01*
X24601878Y-50728521D01*
X24556674Y-50840641D01*
X24501519Y-51000256D01*
X24440973Y-51192460D01*
X24379594Y-51402347D01*
X24321939Y-51615010D01*
X24272568Y-51815544D01*
X24242916Y-51953063D01*
X24194418Y-52198948D01*
X24160332Y-52377799D01*
X24140075Y-52500782D01*
X24133066Y-52579062D01*
X24138722Y-52623805D01*
X24156461Y-52646176D01*
X24185702Y-52657342D01*
X24205929Y-52662605D01*
X24308897Y-52679526D01*
X24434503Y-52687341D01*
X24440815Y-52687387D01*
X24574929Y-52711626D01*
X24653681Y-52777501D01*
X24667138Y-52875125D01*
X24647892Y-52913512D01*
X24597423Y-52935627D01*
X24498395Y-52945814D01*
X24375214Y-52948282D01*
X24097335Y-52949855D01*
X24086419Y-53525554D01*
X24086540Y-53737655D01*
X24093554Y-53970426D01*
X24106232Y-54209289D01*
X24123350Y-54439664D01*
X24143680Y-54646973D01*
X24165996Y-54816637D01*
X24189072Y-54934078D01*
X24208998Y-54982614D01*
X24256450Y-54986724D01*
X24357020Y-54975214D01*
X24454463Y-54957455D01*
X24627533Y-54935642D01*
X24736506Y-54956942D01*
X24785213Y-55022921D01*
X24786012Y-55093068D01*
X24763705Y-55143456D01*
X24702489Y-55182280D01*
X24585572Y-55218472D01*
X24521474Y-55233751D01*
X24268810Y-55291326D01*
X24294336Y-55452716D01*
X24323121Y-55584194D01*
X24372869Y-55758917D01*
X24438821Y-55964405D01*
X24516219Y-56188178D01*
X24600306Y-56417754D01*
X24686322Y-56640653D01*
X24769510Y-56844395D01*
X24845111Y-57016498D01*
X24908367Y-57144483D01*
X24954520Y-57215868D01*
X24970594Y-57226489D01*
X25014989Y-57208672D01*
X25106156Y-57162669D01*
X25190607Y-57117006D01*
X25314746Y-57054668D01*
X25395610Y-57033663D01*
X25454542Y-57048804D01*
X25459358Y-57051674D01*
X25526047Y-57122868D01*
X25514024Y-57204643D01*
X25423446Y-57296645D01*
X25321552Y-57362315D01*
X25210978Y-57430149D01*
X25135214Y-57485660D01*
X25112539Y-57512596D01*
X25136021Y-57577904D01*
X25201137Y-57694151D01*
X25299893Y-57850011D01*
X25424295Y-58034159D01*
X25566348Y-58235269D01*
X25718058Y-58442014D01*
X25871431Y-58643070D01*
X26018472Y-58827109D01*
X26146816Y-58977898D01*
X26305763Y-59156736D01*
X26639131Y-58825100D01*
X26793468Y-58675674D01*
X26905862Y-58577999D01*
X26987037Y-58524110D01*
X27047720Y-58506044D01*
X27067675Y-58506920D01*
X27129182Y-58522922D01*
X27161256Y-58553332D01*
X27160130Y-58603552D01*
X27122039Y-58678984D01*
X27043214Y-58785030D01*
X26919890Y-58927093D01*
X26748301Y-59110575D01*
X26524679Y-59340877D01*
X26393250Y-59474190D01*
X26190927Y-59677738D01*
X26006585Y-59861317D01*
X25847662Y-60017671D01*
X25721594Y-60139544D01*
X25635820Y-60219681D01*
X25597775Y-60250826D01*
X25597012Y-60250984D01*
X25544122Y-60232034D01*
X25500705Y-60209193D01*
X25451131Y-60166925D01*
X25439975Y-60112352D01*
X25471957Y-60036384D01*
X25551799Y-59929931D01*
X25684222Y-59783903D01*
X25765344Y-59699654D01*
X26099654Y-59356426D01*
X25763963Y-58958307D01*
X25604217Y-58759858D01*
X25426373Y-58524536D01*
X25253529Y-58283607D01*
X25124754Y-58093087D01*
X24821235Y-57625985D01*
X24609953Y-57746868D01*
X24482562Y-57814110D01*
X24398422Y-57840898D01*
X24335928Y-57832962D01*
X24317674Y-57824403D01*
X24243195Y-57757034D01*
X24245321Y-57678953D01*
X24322421Y-57594242D01*
X24437607Y-57524130D01*
X24551401Y-57459761D01*
X24632612Y-57401329D01*
X24657752Y-57372239D01*
X24650222Y-57316155D01*
X24614026Y-57207518D01*
X24555862Y-57065114D01*
X24519967Y-56985692D01*
X24413397Y-56738482D01*
X24302723Y-56449611D01*
X24197426Y-56146535D01*
X24106988Y-55856706D01*
X24040889Y-55607579D01*
X24034914Y-55581136D01*
X23983742Y-55349106D01*
X23851432Y-55372123D01*
X23711570Y-55396470D01*
X23583208Y-55418835D01*
X23483015Y-55426025D01*
X23425782Y-55394313D01*
X23401292Y-55356572D01*
X23378016Y-55271212D01*
X23415992Y-55205136D01*
X23521490Y-55152916D01*
X23683149Y-55112526D01*
X23806985Y-55087434D01*
X23892052Y-55068805D01*
X23917951Y-55061513D01*
X23911357Y-55023224D01*
X23894433Y-54928398D01*
X23874510Y-54817868D01*
X23860007Y-54704331D01*
X23844879Y-54527683D01*
X23830192Y-54304419D01*
X23817010Y-54051034D01*
X23806401Y-53784024D01*
X23805070Y-53742947D01*
X23778840Y-52906896D01*
X23548084Y-52886367D01*
X23382113Y-52858705D01*
X23284062Y-52807893D01*
X23244100Y-52727952D01*
X23241989Y-52700233D01*
X23265389Y-52642839D01*
X23343445Y-52610198D01*
X23485216Y-52599740D01*
X23587464Y-52602232D01*
X23834020Y-52613266D01*
X23858033Y-52461492D01*
X23904894Y-52202364D01*
X23968627Y-51901137D01*
X24042389Y-51586740D01*
X24119336Y-51288103D01*
X24192624Y-51034155D01*
X24204738Y-50995925D01*
X24258016Y-50827832D01*
X24300809Y-50687407D01*
X24327863Y-50592218D01*
X24334656Y-50561379D01*
X24300731Y-50532735D01*
X24207211Y-50481660D01*
X24068396Y-50415375D01*
X23898586Y-50341104D01*
X23898276Y-50340973D01*
X23702379Y-50255824D01*
X23570472Y-50190538D01*
X23491461Y-50138477D01*
X23454249Y-50093002D01*
X23447976Y-50071551D01*
X23470424Y-49980821D01*
X23513596Y-49944370D01*
X23563776Y-49931798D01*
X23639491Y-49941319D01*
X23754112Y-49976560D01*
X23921011Y-50041147D01*
X24017367Y-50081018D01*
X24186199Y-50151212D01*
X24326217Y-50208409D01*
X24422288Y-50246493D01*
X24459016Y-50259404D01*
X24481871Y-50225989D01*
X24532568Y-50134898D01*
X24603715Y-49999860D01*
X24687926Y-49834604D01*
X24691919Y-49826648D01*
X24800584Y-49622562D01*
X24938045Y-49382785D01*
X25087035Y-49136574D01*
X25230289Y-48913188D01*
X25236441Y-48903966D01*
X25563927Y-48414040D01*
X25373747Y-48249054D01*
X25252736Y-48130088D01*
X25200058Y-48041304D01*
X25198224Y-48007238D01*
X25242248Y-47933764D01*
X25328769Y-47919920D01*
X25448785Y-47964607D01*
X25577499Y-48053549D01*
X25759511Y-48202694D01*
X25996276Y-47937819D01*
X26124318Y-47803578D01*
X26291775Y-47640891D01*
X26483254Y-47463438D01*
X26683362Y-47284901D01*
X26876707Y-47118960D01*
X27047896Y-46979296D01*
X27181536Y-46879590D01*
X27203116Y-46865186D01*
X27289383Y-46802178D01*
X27337766Y-46753015D01*
X27341513Y-46743223D01*
X27320862Y-46694403D01*
X27267386Y-46604583D01*
X27222570Y-46536990D01*
X27139446Y-46403104D01*
X27107619Y-46309919D01*
X27123422Y-46240525D01*
X27150909Y-46206552D01*
X27214202Y-46165306D01*
X27278877Y-46178203D01*
X27355805Y-46251515D01*
X27446240Y-46376951D01*
X27591100Y-46595126D01*
X27755189Y-46494391D01*
X27943475Y-46386309D01*
X28182266Y-46260263D01*
X28448079Y-46127706D01*
X28717427Y-46000090D01*
X28966828Y-45888871D01*
X29150260Y-45813996D01*
X29305425Y-45753964D01*
X29429846Y-45704279D01*
X29506623Y-45671776D01*
X29522734Y-45663420D01*
X29519836Y-45621138D01*
X29498396Y-45525415D01*
X29470856Y-45424409D01*
X29430932Y-45256911D01*
X29429832Y-45151333D01*
X29469904Y-45098819D01*
X29553500Y-45090509D01*
X29559272Y-45091142D01*
X29622140Y-45108011D01*
X29667939Y-45153012D01*
X29709917Y-45244391D01*
X29744125Y-45345732D01*
X29821291Y-45587703D01*
X30203984Y-45494728D01*
X30469841Y-45437067D01*
X30766801Y-45384074D01*
X31071208Y-45339047D01*
X31359406Y-45305283D01*
X31607739Y-45286081D01*
X31723355Y-45282915D01*
X31960188Y-45282915D01*
X31960188Y-44787245D01*
X31961534Y-44576562D01*
X31966744Y-44431816D01*
X31977571Y-44339346D01*
X31995774Y-44285493D01*
X32023106Y-44256597D01*
X32028831Y-44253160D01*
X32130030Y-44238263D01*
X32168172Y-44252582D01*
X32168172Y-44252582D01*
G37*
X32168172Y-44252582D02*
X32197989Y-44277328D01*
X32218140Y-44322994D01*
X32230445Y-44403326D01*
X32236724Y-44532071D01*
X32238797Y-44722975D01*
X32238871Y-44786667D01*
X32238871Y-45282915D01*
X32455798Y-45282915D01*
X32637340Y-45290854D01*
X32873923Y-45312627D01*
X33142778Y-45345166D01*
X33421137Y-45385405D01*
X33686230Y-45430278D01*
X33915289Y-45476718D01*
X33943974Y-45483355D01*
X34100720Y-45519098D01*
X34229918Y-45546270D01*
X34310350Y-45560491D01*
X34322993Y-45561599D01*
X34359951Y-45526923D01*
X34408168Y-45436796D01*
X34449238Y-45332680D01*
X34505857Y-45191988D01*
X34559573Y-45116066D01*
X34611164Y-45091887D01*
X34706079Y-45099841D01*
X34752402Y-45160923D01*
X34751551Y-45279667D01*
X34715726Y-45426268D01*
X34644360Y-45660681D01*
X35066645Y-45826011D01*
X35556388Y-46033778D01*
X36020907Y-46261866D01*
X36358217Y-46451615D01*
X36591190Y-46591957D01*
X36735553Y-46385320D01*
X36850450Y-46246191D01*
X36947502Y-46183973D01*
X37027756Y-46198228D01*
X37069472Y-46245178D01*
X37083238Y-46298110D01*
X37060303Y-46373048D01*
X36994471Y-46487125D01*
X36966489Y-46529947D01*
X36821563Y-46748222D01*
X37097046Y-46953073D01*
X37385459Y-47182306D01*
X37693974Y-47453250D01*
X37996790Y-47742558D01*
X38191081Y-47942992D01*
X38430281Y-48198972D01*
X38602920Y-48054737D01*
X38743528Y-47957564D01*
X38862236Y-47914753D01*
X38948066Y-47928662D01*
X38982588Y-47973103D01*
X38984441Y-48047644D01*
X38955855Y-48131044D01*
X38911842Y-48185556D01*
X38896013Y-48190803D01*
X38850869Y-48215554D01*
X38770926Y-48275901D01*
X38734765Y-48306024D01*
X38601975Y-48419628D01*
X38818164Y-48712478D01*
X38984544Y-48950111D01*
X39157040Y-49217699D01*
X39322375Y-49493007D01*
X39467275Y-49753799D01*
X39578463Y-49977839D01*
X39592561Y-50009532D01*
X39650321Y-50134368D01*
X39698209Y-50223950D01*
X39726096Y-50259376D01*
X39726489Y-50259404D01*
X39771072Y-50244874D01*
X39873371Y-50205389D01*
X40017809Y-50147114D01*
X40175845Y-50081645D01*
X40382433Y-49998476D01*
X40529376Y-49949337D01*
X40628307Y-49932764D01*
X40690855Y-49947292D01*
X40728653Y-49991459D01*
X40737187Y-50011002D01*
X40738885Y-50072123D01*
X40691498Y-50134893D01*
X40587703Y-50204480D01*
X40420173Y-50286053D01*
X40241066Y-50361117D01*
X40081852Y-50425557D01*
X39952521Y-50478788D01*
X39869404Y-50514036D01*
X39847471Y-50524377D01*
X39852668Y-50564363D01*
X39879010Y-50663057D01*
X39921812Y-50803850D01*
X39956660Y-50911342D01*
X40049511Y-51210445D01*
X40135835Y-51524121D01*
X40210439Y-51830820D01*
X40268127Y-52108990D01*
X40303704Y-52337078D01*
X40306525Y-52362808D01*
X40332366Y-52614957D01*
X40575352Y-52607053D01*
X40740379Y-52602641D01*
X40841488Y-52605561D01*
X40894335Y-52620312D01*
X40914576Y-52651393D01*
X40917868Y-52703303D01*
X40917868Y-52705487D01*
X40905263Y-52783925D01*
X40857469Y-52834616D01*
X40759523Y-52866167D01*
X40603002Y-52886572D01*
X40387666Y-52906896D01*
X40395268Y-53464263D01*
X40393167Y-53729933D01*
X40381685Y-54027046D01*
X40362758Y-54317053D01*
X40341510Y-54535503D01*
X40319398Y-54727505D01*
X40302447Y-54888146D01*
X40292121Y-55002455D01*
X40289884Y-55055461D01*
X40290466Y-55057347D01*
X40331531Y-55069798D01*
X40428067Y-55094218D01*
X40539655Y-55120747D01*
X40673403Y-55155600D01*
X40747547Y-55189367D01*
X40781014Y-55234100D01*
X40790633Y-55280572D01*
X40781141Y-55366703D01*
X40722406Y-55411545D01*
X40606497Y-55417719D01*
X40449988Y-55393056D01*
X40330053Y-55370752D01*
X40247198Y-55360242D01*
X40223770Y-55361804D01*
X40209423Y-55402983D01*
X40177969Y-55506099D01*
X40133792Y-55656418D01*
X40081273Y-55839209D01*
X40071194Y-55874699D01*
X39995838Y-56118391D01*
X39899792Y-56397212D01*
X39796238Y-56674232D01*
X39711759Y-56881631D01*
X39493920Y-57389098D01*
X39680887Y-57483841D01*
X39838153Y-57574396D01*
X39924665Y-57653224D01*
X39947067Y-57727297D01*
X39940085Y-57755825D01*
X39889298Y-57823016D01*
X39803398Y-57836127D01*
X39673713Y-57794862D01*
X39570075Y-57743230D01*
X39453677Y-57686909D01*
X39368000Y-57658082D01*
X39332773Y-57662182D01*
X39296080Y-57734046D01*
X39220544Y-57855903D01*
X39115564Y-58014399D01*
X38990538Y-58196179D01*
X38854865Y-58387891D01*
X38717944Y-58576180D01*
X38589172Y-58747692D01*
X38477949Y-58889075D01*
X38424101Y-58953253D01*
X38306162Y-59089437D01*
X38205558Y-59207182D01*
X38135380Y-59291075D01*
X38111594Y-59321098D01*
X38108551Y-59360854D01*
X38145880Y-59426954D01*
X38229700Y-59527542D01*
X38366131Y-59670760D01*
X38400230Y-59705197D01*
X38569778Y-59884932D01*
X38677426Y-60022638D01*
X38725637Y-60123167D01*
X38716868Y-60191373D01*
X38665239Y-60228029D01*
X38597223Y-60249260D01*
X38578046Y-60252194D01*
X38543136Y-60225224D01*
X38461413Y-60150222D01*
X38341768Y-60036051D01*
X38193090Y-59891575D01*
X38024271Y-59725656D01*
X37844200Y-59547159D01*
X37661769Y-59364945D01*
X37485867Y-59187879D01*
X37325385Y-59024824D01*
X37189215Y-58884643D01*
X37086245Y-58776198D01*
X37025367Y-58708354D01*
X37013510Y-58692461D01*
X36993713Y-58604578D01*
X37000797Y-58563072D01*
X37044856Y-58507348D01*
X37117175Y-58506266D01*
X37222627Y-58562293D01*
X37366080Y-58677897D01*
X37525654Y-58828918D01*
X37857517Y-59157367D01*
X38067271Y-58933713D01*
X38206956Y-58776485D01*
X38355639Y-58594923D01*
X38506432Y-58399131D01*
X38652447Y-58199210D01*
X38786793Y-58005263D01*
X38902584Y-57827391D01*
X38992929Y-57675697D01*
X39050941Y-57560281D01*
X39069730Y-57491248D01*
X39060834Y-57476704D01*
X39005096Y-57448566D01*
X38907726Y-57391528D01*
X38830483Y-57343596D01*
X38716823Y-57262600D01*
X38663290Y-57197057D01*
X38655880Y-57136507D01*
X38695514Y-57057378D01*
X38783913Y-57038951D01*
X38922221Y-57081191D01*
X39011405Y-57125571D01*
X39124355Y-57180051D01*
X39210441Y-57208880D01*
X39241944Y-57208946D01*
X39280835Y-57156043D01*
X39338797Y-57040386D01*
X39410930Y-56875152D01*
X39492337Y-56673521D01*
X39578121Y-56448669D01*
X39663384Y-56213773D01*
X39743228Y-55982012D01*
X39812755Y-55766562D01*
X39867068Y-55580602D01*
X39901268Y-55437308D01*
X39902153Y-55432626D01*
X39928570Y-55290958D01*
X39676746Y-55233567D01*
X39539056Y-55198882D01*
X39461326Y-55166436D01*
X39425075Y-55124789D01*
X39412654Y-55070110D01*
X39426554Y-54979651D01*
X39497373Y-54935492D01*
X39629193Y-54936149D01*
X39728885Y-54955007D01*
X39844703Y-54979735D01*
X39929895Y-54994411D01*
X39947590Y-54996049D01*
X39975305Y-54959002D01*
X40003499Y-54855366D01*
X40031070Y-54698161D01*
X40056917Y-54500407D01*
X40079936Y-54275122D01*
X40099027Y-54035327D01*
X40113086Y-53794041D01*
X40121013Y-53564282D01*
X40121704Y-53359072D01*
X40114059Y-53191428D01*
X40106214Y-53122020D01*
X40079191Y-52941818D01*
X39841533Y-52959008D01*
X39661243Y-52957780D01*
X39540737Y-52925483D01*
X39486884Y-52864308D01*
X39484639Y-52845148D01*
X39519681Y-52775669D01*
X39606199Y-52717537D01*
X39716286Y-52688246D01*
X39736307Y-52687387D01*
X39902749Y-52674892D01*
X40001261Y-52636494D01*
X40040463Y-52568207D01*
X40042006Y-52545967D01*
X40031855Y-52429322D01*
X40003830Y-52259410D01*
X39961574Y-52050493D01*
X39908730Y-51816831D01*
X39848942Y-51572685D01*
X39785852Y-51332316D01*
X39723103Y-51109986D01*
X39664339Y-50919955D01*
X39613202Y-50776485D01*
X39573335Y-50693837D01*
X39566761Y-50685569D01*
X39520343Y-50687405D01*
X39416403Y-50715977D01*
X39270491Y-50766386D01*
X39103639Y-50831482D01*
X38878200Y-50918168D01*
X38715314Y-50965947D01*
X38608155Y-50974980D01*
X38549893Y-50945425D01*
X38533702Y-50877443D01*
X38536690Y-50844746D01*
X38557463Y-50799945D01*
X38614157Y-50751930D01*
X38717925Y-50693979D01*
X38879922Y-50619372D01*
X38986990Y-50573405D01*
X39178003Y-50490255D01*
X39305023Y-50428153D01*
X39378750Y-50380563D01*
X39409884Y-50340950D01*
X39411956Y-50313818D01*
X39380480Y-50222339D01*
X39312634Y-50078397D01*
X39216513Y-49895581D01*
X39100213Y-49687480D01*
X38971828Y-49467684D01*
X38839454Y-49249780D01*
X38711185Y-49047358D01*
X38595118Y-48874006D01*
X38499346Y-48743315D01*
X38432107Y-48668989D01*
X38387274Y-48647003D01*
X38331349Y-48661676D01*
X38245452Y-48720471D01*
X38190549Y-48764493D01*
X38053808Y-48860973D01*
X37952086Y-48893095D01*
X37875448Y-48862220D01*
X37836712Y-48812935D01*
X37821573Y-48766857D01*
X37841174Y-48715293D01*
X37905286Y-48642989D01*
X38003430Y-48552626D01*
X38214227Y-48365276D01*
X37724747Y-47887419D01*
X37475368Y-47649887D01*
X37237948Y-47435012D01*
X37023136Y-47251889D01*
X36841585Y-47109617D01*
X36710235Y-47020942D01*
X36660351Y-47035402D01*
X36584912Y-47113231D01*
X36533709Y-47183115D01*
X36441394Y-47313078D01*
X36375938Y-47385174D01*
X36323153Y-47409760D01*
X36268852Y-47397198D01*
X36252067Y-47388768D01*
X36195275Y-47336749D01*
X36188633Y-47259819D01*
X36233865Y-47146154D01*
X36304941Y-47026450D01*
X36373376Y-46916245D01*
X36401842Y-46851747D01*
X36394448Y-46812352D01*
X36355305Y-46777457D01*
X36354706Y-46777016D01*
X36246306Y-46707521D01*
X36087176Y-46618781D01*
X35890698Y-46516993D01*
X35670249Y-46408356D01*
X35439211Y-46299068D01*
X35210963Y-46195327D01*
X34998885Y-46103331D01*
X34816357Y-46029278D01*
X34676759Y-45979366D01*
X34593470Y-45959792D01*
X34590387Y-45959718D01*
X34558335Y-45994699D01*
X34517468Y-46085050D01*
X34487501Y-46175348D01*
X34429617Y-46340418D01*
X34369752Y-46433131D01*
X34301006Y-46460603D01*
X34232012Y-46438823D01*
X34174591Y-46396249D01*
X34154274Y-46337234D01*
X34169679Y-46242117D01*
X34209561Y-46118965D01*
X34246095Y-46004596D01*
X34267205Y-45917560D01*
X34269279Y-45898263D01*
X34231595Y-45862381D01*
X34126293Y-45820986D01*
X33964995Y-45776355D01*
X33759326Y-45730762D01*
X33520908Y-45686486D01*
X33261366Y-45645802D01*
X32992321Y-45610987D01*
X32725398Y-45584317D01*
X32628309Y-45576886D01*
X32241415Y-45550025D01*
X32230190Y-46039251D01*
X32223475Y-46252893D01*
X32213616Y-46400028D01*
X32198744Y-46493762D01*
X32176992Y-46547199D01*
X32154706Y-46568928D01*
X32067903Y-46591442D01*
X32025317Y-46584388D01*
X31997775Y-46563311D01*
X31979114Y-46516350D01*
X31967712Y-46430467D01*
X31961949Y-46292627D01*
X31960204Y-46089793D01*
X31960188Y-46060497D01*
X31960188Y-45561599D01*
X31763167Y-45561599D01*
X31591866Y-45569419D01*
X31364590Y-45590878D01*
X31103227Y-45622970D01*
X30829669Y-45662688D01*
X30565804Y-45707028D01*
X30333522Y-45752984D01*
X30278135Y-45765496D01*
X30101199Y-45809401D01*
X29991806Y-45850199D01*
X29939683Y-45901660D01*
X29934559Y-45977556D01*
X29966160Y-46091658D01*
X29987980Y-46154473D01*
X30025352Y-46304337D01*
X30010404Y-46401618D01*
X29946608Y-46453039D01*
X29862350Y-46461088D01*
X29794138Y-46407860D01*
X29735276Y-46286096D01*
X29705751Y-46191900D01*
X29666950Y-46062211D01*
X29635059Y-45993920D01*
X29597415Y-45971245D01*
X29541356Y-45978403D01*
X29535582Y-45979820D01*
X29397086Y-46022748D01*
X29218886Y-46090626D01*
X29012862Y-46177590D01*
X28790894Y-46277772D01*
X28564862Y-46385308D01*
X28346646Y-46494332D01*
X28148128Y-46598978D01*
X27981187Y-46693381D01*
X27857704Y-46771675D01*
X27789559Y-46827994D01*
X27779937Y-46846632D01*
X27800902Y-46896466D01*
X27854638Y-46987014D01*
X27899373Y-47054545D01*
X27984990Y-47195446D01*
X28014171Y-47293044D01*
X27988587Y-47358476D01*
X27949138Y-47386166D01*
X27878385Y-47408756D01*
X27814961Y-47388504D01*
X27744328Y-47315672D01*
X27659314Y-47192037D01*
X27583699Y-47082129D01*
X27530300Y-47030516D01*
X27483903Y-47025213D01*
X27460273Y-47035265D01*
X27348413Y-47107667D01*
X27193994Y-47225055D01*
X27010544Y-47375896D01*
X26811589Y-47548659D01*
X26610655Y-47731809D01*
X26421270Y-47913815D01*
X26372210Y-47962943D01*
X25979687Y-48360114D01*
X26183104Y-48547125D01*
X26300716Y-48659663D01*
X26363944Y-48736225D01*
X26380022Y-48791262D01*
X26356184Y-48839227D01*
X26338746Y-48858025D01*
X26271166Y-48899359D01*
X26189832Y-48889516D01*
X26080110Y-48824472D01*
X26005707Y-48766458D01*
X25906137Y-48689617D01*
X25830073Y-48639514D01*
X25802547Y-48628276D01*
X25754622Y-48662535D01*
X25677050Y-48755465D01*
X25576660Y-48895536D01*
X25460282Y-49071219D01*
X25334743Y-49270984D01*
X25206874Y-49483301D01*
X25083503Y-49696642D01*
X24971460Y-49899476D01*
X24877572Y-50080274D01*
X24808671Y-50227507D01*
X24771583Y-50329644D01*
X24769817Y-50371849D01*
X24812343Y-50398488D01*
X24913218Y-50447264D01*
X25056784Y-50510938D01*
X25206752Y-50573853D01*
X25408550Y-50660089D01*
X25544201Y-50728804D01*
X25623203Y-50787342D01*
X25655051Y-50843043D01*
X25649242Y-50903252D01*
X25645672Y-50913223D01*
X25613754Y-50962690D01*
X25558965Y-50983387D01*
X25469863Y-50973697D01*
X25335009Y-50932006D01*
X25142962Y-50856698D01*
X25090383Y-50834823D01*
X24920208Y-50766458D01*
X24776412Y-50714179D01*
X24674924Y-50683414D01*
X24632576Y-50678802D01*
X24601878Y-50728521D01*
X24556674Y-50840641D01*
X24501519Y-51000256D01*
X24440973Y-51192460D01*
X24379594Y-51402347D01*
X24321939Y-51615010D01*
X24272568Y-51815544D01*
X24242916Y-51953063D01*
X24194418Y-52198948D01*
X24160332Y-52377799D01*
X24140075Y-52500782D01*
X24133066Y-52579062D01*
X24138722Y-52623805D01*
X24156461Y-52646176D01*
X24185702Y-52657342D01*
X24205929Y-52662605D01*
X24308897Y-52679526D01*
X24434503Y-52687341D01*
X24440815Y-52687387D01*
X24574929Y-52711626D01*
X24653681Y-52777501D01*
X24667138Y-52875125D01*
X24647892Y-52913512D01*
X24597423Y-52935627D01*
X24498395Y-52945814D01*
X24375214Y-52948282D01*
X24097335Y-52949855D01*
X24086419Y-53525554D01*
X24086540Y-53737655D01*
X24093554Y-53970426D01*
X24106232Y-54209289D01*
X24123350Y-54439664D01*
X24143680Y-54646973D01*
X24165996Y-54816637D01*
X24189072Y-54934078D01*
X24208998Y-54982614D01*
X24256450Y-54986724D01*
X24357020Y-54975214D01*
X24454463Y-54957455D01*
X24627533Y-54935642D01*
X24736506Y-54956942D01*
X24785213Y-55022921D01*
X24786012Y-55093068D01*
X24763705Y-55143456D01*
X24702489Y-55182280D01*
X24585572Y-55218472D01*
X24521474Y-55233751D01*
X24268810Y-55291326D01*
X24294336Y-55452716D01*
X24323121Y-55584194D01*
X24372869Y-55758917D01*
X24438821Y-55964405D01*
X24516219Y-56188178D01*
X24600306Y-56417754D01*
X24686322Y-56640653D01*
X24769510Y-56844395D01*
X24845111Y-57016498D01*
X24908367Y-57144483D01*
X24954520Y-57215868D01*
X24970594Y-57226489D01*
X25014989Y-57208672D01*
X25106156Y-57162669D01*
X25190607Y-57117006D01*
X25314746Y-57054668D01*
X25395610Y-57033663D01*
X25454542Y-57048804D01*
X25459358Y-57051674D01*
X25526047Y-57122868D01*
X25514024Y-57204643D01*
X25423446Y-57296645D01*
X25321552Y-57362315D01*
X25210978Y-57430149D01*
X25135214Y-57485660D01*
X25112539Y-57512596D01*
X25136021Y-57577904D01*
X25201137Y-57694151D01*
X25299893Y-57850011D01*
X25424295Y-58034159D01*
X25566348Y-58235269D01*
X25718058Y-58442014D01*
X25871431Y-58643070D01*
X26018472Y-58827109D01*
X26146816Y-58977898D01*
X26305763Y-59156736D01*
X26639131Y-58825100D01*
X26793468Y-58675674D01*
X26905862Y-58577999D01*
X26987037Y-58524110D01*
X27047720Y-58506044D01*
X27067675Y-58506920D01*
X27129182Y-58522922D01*
X27161256Y-58553332D01*
X27160130Y-58603552D01*
X27122039Y-58678984D01*
X27043214Y-58785030D01*
X26919890Y-58927093D01*
X26748301Y-59110575D01*
X26524679Y-59340877D01*
X26393250Y-59474190D01*
X26190927Y-59677738D01*
X26006585Y-59861317D01*
X25847662Y-60017671D01*
X25721594Y-60139544D01*
X25635820Y-60219681D01*
X25597775Y-60250826D01*
X25597012Y-60250984D01*
X25544122Y-60232034D01*
X25500705Y-60209193D01*
X25451131Y-60166925D01*
X25439975Y-60112352D01*
X25471957Y-60036384D01*
X25551799Y-59929931D01*
X25684222Y-59783903D01*
X25765344Y-59699654D01*
X26099654Y-59356426D01*
X25763963Y-58958307D01*
X25604217Y-58759858D01*
X25426373Y-58524536D01*
X25253529Y-58283607D01*
X25124754Y-58093087D01*
X24821235Y-57625985D01*
X24609953Y-57746868D01*
X24482562Y-57814110D01*
X24398422Y-57840898D01*
X24335928Y-57832962D01*
X24317674Y-57824403D01*
X24243195Y-57757034D01*
X24245321Y-57678953D01*
X24322421Y-57594242D01*
X24437607Y-57524130D01*
X24551401Y-57459761D01*
X24632612Y-57401329D01*
X24657752Y-57372239D01*
X24650222Y-57316155D01*
X24614026Y-57207518D01*
X24555862Y-57065114D01*
X24519967Y-56985692D01*
X24413397Y-56738482D01*
X24302723Y-56449611D01*
X24197426Y-56146535D01*
X24106988Y-55856706D01*
X24040889Y-55607579D01*
X24034914Y-55581136D01*
X23983742Y-55349106D01*
X23851432Y-55372123D01*
X23711570Y-55396470D01*
X23583208Y-55418835D01*
X23483015Y-55426025D01*
X23425782Y-55394313D01*
X23401292Y-55356572D01*
X23378016Y-55271212D01*
X23415992Y-55205136D01*
X23521490Y-55152916D01*
X23683149Y-55112526D01*
X23806985Y-55087434D01*
X23892052Y-55068805D01*
X23917951Y-55061513D01*
X23911357Y-55023224D01*
X23894433Y-54928398D01*
X23874510Y-54817868D01*
X23860007Y-54704331D01*
X23844879Y-54527683D01*
X23830192Y-54304419D01*
X23817010Y-54051034D01*
X23806401Y-53784024D01*
X23805070Y-53742947D01*
X23778840Y-52906896D01*
X23548084Y-52886367D01*
X23382113Y-52858705D01*
X23284062Y-52807893D01*
X23244100Y-52727952D01*
X23241989Y-52700233D01*
X23265389Y-52642839D01*
X23343445Y-52610198D01*
X23485216Y-52599740D01*
X23587464Y-52602232D01*
X23834020Y-52613266D01*
X23858033Y-52461492D01*
X23904894Y-52202364D01*
X23968627Y-51901137D01*
X24042389Y-51586740D01*
X24119336Y-51288103D01*
X24192624Y-51034155D01*
X24204738Y-50995925D01*
X24258016Y-50827832D01*
X24300809Y-50687407D01*
X24327863Y-50592218D01*
X24334656Y-50561379D01*
X24300731Y-50532735D01*
X24207211Y-50481660D01*
X24068396Y-50415375D01*
X23898586Y-50341104D01*
X23898276Y-50340973D01*
X23702379Y-50255824D01*
X23570472Y-50190538D01*
X23491461Y-50138477D01*
X23454249Y-50093002D01*
X23447976Y-50071551D01*
X23470424Y-49980821D01*
X23513596Y-49944370D01*
X23563776Y-49931798D01*
X23639491Y-49941319D01*
X23754112Y-49976560D01*
X23921011Y-50041147D01*
X24017367Y-50081018D01*
X24186199Y-50151212D01*
X24326217Y-50208409D01*
X24422288Y-50246493D01*
X24459016Y-50259404D01*
X24481871Y-50225989D01*
X24532568Y-50134898D01*
X24603715Y-49999860D01*
X24687926Y-49834604D01*
X24691919Y-49826648D01*
X24800584Y-49622562D01*
X24938045Y-49382785D01*
X25087035Y-49136574D01*
X25230289Y-48913188D01*
X25236441Y-48903966D01*
X25563927Y-48414040D01*
X25373747Y-48249054D01*
X25252736Y-48130088D01*
X25200058Y-48041304D01*
X25198224Y-48007238D01*
X25242248Y-47933764D01*
X25328769Y-47919920D01*
X25448785Y-47964607D01*
X25577499Y-48053549D01*
X25759511Y-48202694D01*
X25996276Y-47937819D01*
X26124318Y-47803578D01*
X26291775Y-47640891D01*
X26483254Y-47463438D01*
X26683362Y-47284901D01*
X26876707Y-47118960D01*
X27047896Y-46979296D01*
X27181536Y-46879590D01*
X27203116Y-46865186D01*
X27289383Y-46802178D01*
X27337766Y-46753015D01*
X27341513Y-46743223D01*
X27320862Y-46694403D01*
X27267386Y-46604583D01*
X27222570Y-46536990D01*
X27139446Y-46403104D01*
X27107619Y-46309919D01*
X27123422Y-46240525D01*
X27150909Y-46206552D01*
X27214202Y-46165306D01*
X27278877Y-46178203D01*
X27355805Y-46251515D01*
X27446240Y-46376951D01*
X27591100Y-46595126D01*
X27755189Y-46494391D01*
X27943475Y-46386309D01*
X28182266Y-46260263D01*
X28448079Y-46127706D01*
X28717427Y-46000090D01*
X28966828Y-45888871D01*
X29150260Y-45813996D01*
X29305425Y-45753964D01*
X29429846Y-45704279D01*
X29506623Y-45671776D01*
X29522734Y-45663420D01*
X29519836Y-45621138D01*
X29498396Y-45525415D01*
X29470856Y-45424409D01*
X29430932Y-45256911D01*
X29429832Y-45151333D01*
X29469904Y-45098819D01*
X29553500Y-45090509D01*
X29559272Y-45091142D01*
X29622140Y-45108011D01*
X29667939Y-45153012D01*
X29709917Y-45244391D01*
X29744125Y-45345732D01*
X29821291Y-45587703D01*
X30203984Y-45494728D01*
X30469841Y-45437067D01*
X30766801Y-45384074D01*
X31071208Y-45339047D01*
X31359406Y-45305283D01*
X31607739Y-45286081D01*
X31723355Y-45282915D01*
X31960188Y-45282915D01*
X31960188Y-44787245D01*
X31961534Y-44576562D01*
X31966744Y-44431816D01*
X31977571Y-44339346D01*
X31995774Y-44285493D01*
X32023106Y-44256597D01*
X32028831Y-44253160D01*
X32130030Y-44238263D01*
X32168172Y-44252582D01*
G36*
X32168172Y-25252582D02*
X32197989Y-25277328D01*
X32218140Y-25322994D01*
X32230445Y-25403326D01*
X32236724Y-25532071D01*
X32238797Y-25722975D01*
X32238871Y-25786667D01*
X32238871Y-26282915D01*
X32455798Y-26282915D01*
X32637340Y-26290854D01*
X32873923Y-26312627D01*
X33142778Y-26345166D01*
X33421137Y-26385405D01*
X33686230Y-26430278D01*
X33915289Y-26476718D01*
X33943974Y-26483355D01*
X34100720Y-26519098D01*
X34229918Y-26546270D01*
X34310350Y-26560491D01*
X34322993Y-26561599D01*
X34359951Y-26526923D01*
X34408168Y-26436796D01*
X34449238Y-26332680D01*
X34505857Y-26191988D01*
X34559573Y-26116066D01*
X34611164Y-26091887D01*
X34706079Y-26099841D01*
X34752402Y-26160923D01*
X34751551Y-26279667D01*
X34715726Y-26426268D01*
X34644360Y-26660681D01*
X35066645Y-26826011D01*
X35556388Y-27033778D01*
X36020907Y-27261866D01*
X36358217Y-27451615D01*
X36591190Y-27591957D01*
X36735553Y-27385320D01*
X36850450Y-27246191D01*
X36947502Y-27183973D01*
X37027756Y-27198228D01*
X37069472Y-27245178D01*
X37083238Y-27298110D01*
X37060303Y-27373048D01*
X36994471Y-27487125D01*
X36966489Y-27529947D01*
X36821563Y-27748222D01*
X37097046Y-27953073D01*
X37385459Y-28182306D01*
X37693974Y-28453250D01*
X37996790Y-28742558D01*
X38191081Y-28942992D01*
X38430281Y-29198972D01*
X38602920Y-29054737D01*
X38743528Y-28957564D01*
X38862236Y-28914753D01*
X38948066Y-28928662D01*
X38982588Y-28973103D01*
X38984441Y-29047644D01*
X38955855Y-29131044D01*
X38911842Y-29185556D01*
X38896013Y-29190803D01*
X38850869Y-29215554D01*
X38770926Y-29275901D01*
X38734765Y-29306024D01*
X38601975Y-29419628D01*
X38818164Y-29712478D01*
X38984544Y-29950111D01*
X39157040Y-30217699D01*
X39322375Y-30493007D01*
X39467275Y-30753799D01*
X39578463Y-30977839D01*
X39592561Y-31009532D01*
X39650321Y-31134368D01*
X39698209Y-31223950D01*
X39726096Y-31259376D01*
X39726489Y-31259404D01*
X39771072Y-31244874D01*
X39873371Y-31205389D01*
X40017809Y-31147114D01*
X40175845Y-31081645D01*
X40382433Y-30998476D01*
X40529376Y-30949337D01*
X40628307Y-30932764D01*
X40690855Y-30947292D01*
X40728653Y-30991459D01*
X40737187Y-31011002D01*
X40738885Y-31072123D01*
X40691498Y-31134893D01*
X40587703Y-31204480D01*
X40420173Y-31286053D01*
X40241066Y-31361117D01*
X40081852Y-31425557D01*
X39952521Y-31478788D01*
X39869404Y-31514036D01*
X39847471Y-31524377D01*
X39852668Y-31564363D01*
X39879010Y-31663057D01*
X39921812Y-31803850D01*
X39956660Y-31911342D01*
X40049511Y-32210445D01*
X40135835Y-32524121D01*
X40210439Y-32830820D01*
X40268127Y-33108990D01*
X40303704Y-33337078D01*
X40306525Y-33362808D01*
X40332366Y-33614957D01*
X40575352Y-33607053D01*
X40740379Y-33602641D01*
X40841488Y-33605561D01*
X40894335Y-33620312D01*
X40914576Y-33651393D01*
X40917868Y-33703303D01*
X40917868Y-33705487D01*
X40905263Y-33783925D01*
X40857469Y-33834616D01*
X40759523Y-33866167D01*
X40603002Y-33886572D01*
X40387666Y-33906896D01*
X40395268Y-34464263D01*
X40393167Y-34729933D01*
X40381685Y-35027046D01*
X40362758Y-35317053D01*
X40341510Y-35535503D01*
X40319398Y-35727505D01*
X40302447Y-35888146D01*
X40292121Y-36002455D01*
X40289884Y-36055461D01*
X40290466Y-36057347D01*
X40331531Y-36069798D01*
X40428067Y-36094218D01*
X40539655Y-36120747D01*
X40673403Y-36155600D01*
X40747547Y-36189367D01*
X40781014Y-36234100D01*
X40790633Y-36280572D01*
X40781141Y-36366703D01*
X40722406Y-36411545D01*
X40606497Y-36417719D01*
X40449988Y-36393056D01*
X40330053Y-36370752D01*
X40247198Y-36360242D01*
X40223770Y-36361804D01*
X40209423Y-36402983D01*
X40177969Y-36506099D01*
X40133792Y-36656418D01*
X40081273Y-36839209D01*
X40071194Y-36874699D01*
X39995838Y-37118391D01*
X39899792Y-37397212D01*
X39796238Y-37674232D01*
X39711759Y-37881631D01*
X39493920Y-38389098D01*
X39680887Y-38483841D01*
X39838153Y-38574396D01*
X39924665Y-38653224D01*
X39947067Y-38727297D01*
X39940085Y-38755825D01*
X39889298Y-38823016D01*
X39803398Y-38836127D01*
X39673713Y-38794862D01*
X39570075Y-38743230D01*
X39453677Y-38686909D01*
X39368000Y-38658082D01*
X39332773Y-38662182D01*
X39296080Y-38734046D01*
X39220544Y-38855903D01*
X39115564Y-39014399D01*
X38990538Y-39196179D01*
X38854865Y-39387891D01*
X38717944Y-39576180D01*
X38589172Y-39747692D01*
X38477949Y-39889075D01*
X38424101Y-39953253D01*
X38306162Y-40089437D01*
X38205558Y-40207182D01*
X38135380Y-40291075D01*
X38111594Y-40321098D01*
X38108551Y-40360854D01*
X38145880Y-40426954D01*
X38229700Y-40527542D01*
X38366131Y-40670760D01*
X38400230Y-40705197D01*
X38569778Y-40884932D01*
X38677426Y-41022638D01*
X38725637Y-41123167D01*
X38716868Y-41191373D01*
X38665239Y-41228029D01*
X38597223Y-41249260D01*
X38578046Y-41252194D01*
X38543136Y-41225224D01*
X38461413Y-41150222D01*
X38341768Y-41036051D01*
X38193090Y-40891575D01*
X38024271Y-40725656D01*
X37844200Y-40547159D01*
X37661769Y-40364945D01*
X37485867Y-40187879D01*
X37325385Y-40024824D01*
X37189215Y-39884643D01*
X37086245Y-39776198D01*
X37025367Y-39708354D01*
X37013510Y-39692461D01*
X36993713Y-39604578D01*
X37000797Y-39563072D01*
X37044856Y-39507348D01*
X37117175Y-39506266D01*
X37222627Y-39562293D01*
X37366080Y-39677897D01*
X37525654Y-39828918D01*
X37857517Y-40157367D01*
X38067271Y-39933713D01*
X38206956Y-39776485D01*
X38355639Y-39594923D01*
X38506432Y-39399131D01*
X38652447Y-39199210D01*
X38786793Y-39005263D01*
X38902584Y-38827391D01*
X38992929Y-38675697D01*
X39050941Y-38560281D01*
X39069730Y-38491248D01*
X39060834Y-38476704D01*
X39005096Y-38448566D01*
X38907726Y-38391528D01*
X38830483Y-38343596D01*
X38716823Y-38262600D01*
X38663290Y-38197057D01*
X38655880Y-38136507D01*
X38695514Y-38057378D01*
X38783913Y-38038951D01*
X38922221Y-38081191D01*
X39011405Y-38125571D01*
X39124355Y-38180051D01*
X39210441Y-38208880D01*
X39241944Y-38208946D01*
X39280835Y-38156043D01*
X39338797Y-38040386D01*
X39410930Y-37875152D01*
X39492337Y-37673521D01*
X39578121Y-37448669D01*
X39663384Y-37213773D01*
X39743228Y-36982012D01*
X39812755Y-36766562D01*
X39867068Y-36580602D01*
X39901268Y-36437308D01*
X39902153Y-36432626D01*
X39928570Y-36290958D01*
X39676746Y-36233567D01*
X39539056Y-36198882D01*
X39461326Y-36166436D01*
X39425075Y-36124789D01*
X39412654Y-36070110D01*
X39426554Y-35979651D01*
X39497373Y-35935492D01*
X39629193Y-35936149D01*
X39728885Y-35955007D01*
X39844703Y-35979735D01*
X39929895Y-35994411D01*
X39947590Y-35996049D01*
X39975305Y-35959002D01*
X40003499Y-35855366D01*
X40031070Y-35698161D01*
X40056917Y-35500407D01*
X40079936Y-35275122D01*
X40099027Y-35035327D01*
X40113086Y-34794041D01*
X40121013Y-34564282D01*
X40121704Y-34359072D01*
X40114059Y-34191428D01*
X40106214Y-34122020D01*
X40079191Y-33941818D01*
X39841533Y-33959008D01*
X39661243Y-33957780D01*
X39540737Y-33925483D01*
X39486884Y-33864308D01*
X39484639Y-33845148D01*
X39519681Y-33775669D01*
X39606199Y-33717537D01*
X39716286Y-33688246D01*
X39736307Y-33687387D01*
X39902749Y-33674892D01*
X40001261Y-33636494D01*
X40040463Y-33568207D01*
X40042006Y-33545967D01*
X40031855Y-33429322D01*
X40003830Y-33259410D01*
X39961574Y-33050493D01*
X39908730Y-32816831D01*
X39848942Y-32572685D01*
X39785852Y-32332316D01*
X39723103Y-32109986D01*
X39664339Y-31919955D01*
X39613202Y-31776485D01*
X39573335Y-31693837D01*
X39566761Y-31685569D01*
X39520343Y-31687405D01*
X39416403Y-31715977D01*
X39270491Y-31766386D01*
X39103639Y-31831482D01*
X38878200Y-31918168D01*
X38715314Y-31965947D01*
X38608155Y-31974980D01*
X38549893Y-31945425D01*
X38533702Y-31877443D01*
X38536690Y-31844746D01*
X38557463Y-31799945D01*
X38614157Y-31751930D01*
X38717925Y-31693979D01*
X38879922Y-31619372D01*
X38986990Y-31573405D01*
X39178003Y-31490255D01*
X39305023Y-31428153D01*
X39378750Y-31380563D01*
X39409884Y-31340950D01*
X39411956Y-31313818D01*
X39380480Y-31222339D01*
X39312634Y-31078397D01*
X39216513Y-30895581D01*
X39100213Y-30687480D01*
X38971828Y-30467684D01*
X38839454Y-30249780D01*
X38711185Y-30047358D01*
X38595118Y-29874006D01*
X38499346Y-29743315D01*
X38432107Y-29668989D01*
X38387274Y-29647003D01*
X38331349Y-29661676D01*
X38245452Y-29720471D01*
X38190549Y-29764493D01*
X38053808Y-29860973D01*
X37952086Y-29893095D01*
X37875448Y-29862220D01*
X37836712Y-29812935D01*
X37821573Y-29766857D01*
X37841174Y-29715293D01*
X37905286Y-29642989D01*
X38003430Y-29552626D01*
X38214227Y-29365276D01*
X37724747Y-28887419D01*
X37475368Y-28649887D01*
X37237948Y-28435012D01*
X37023136Y-28251889D01*
X36841585Y-28109617D01*
X36710235Y-28020942D01*
X36660351Y-28035402D01*
X36584912Y-28113231D01*
X36533709Y-28183115D01*
X36441394Y-28313078D01*
X36375938Y-28385174D01*
X36323153Y-28409760D01*
X36268852Y-28397198D01*
X36252067Y-28388768D01*
X36195275Y-28336749D01*
X36188633Y-28259819D01*
X36233865Y-28146154D01*
X36304941Y-28026450D01*
X36373376Y-27916245D01*
X36401842Y-27851747D01*
X36394448Y-27812352D01*
X36355305Y-27777457D01*
X36354706Y-27777016D01*
X36246306Y-27707521D01*
X36087176Y-27618781D01*
X35890698Y-27516993D01*
X35670249Y-27408356D01*
X35439211Y-27299068D01*
X35210963Y-27195327D01*
X34998885Y-27103331D01*
X34816357Y-27029278D01*
X34676759Y-26979366D01*
X34593470Y-26959792D01*
X34590387Y-26959718D01*
X34558335Y-26994699D01*
X34517468Y-27085050D01*
X34487501Y-27175348D01*
X34429617Y-27340418D01*
X34369752Y-27433131D01*
X34301006Y-27460603D01*
X34232012Y-27438823D01*
X34174591Y-27396249D01*
X34154274Y-27337234D01*
X34169679Y-27242117D01*
X34209561Y-27118965D01*
X34246095Y-27004596D01*
X34267205Y-26917560D01*
X34269279Y-26898263D01*
X34231595Y-26862381D01*
X34126293Y-26820986D01*
X33964995Y-26776355D01*
X33759326Y-26730762D01*
X33520908Y-26686486D01*
X33261366Y-26645802D01*
X32992321Y-26610987D01*
X32725398Y-26584317D01*
X32628309Y-26576886D01*
X32241415Y-26550025D01*
X32230190Y-27039251D01*
X32223475Y-27252893D01*
X32213616Y-27400028D01*
X32198744Y-27493762D01*
X32176992Y-27547199D01*
X32154706Y-27568928D01*
X32067903Y-27591442D01*
X32025317Y-27584388D01*
X31997775Y-27563311D01*
X31979114Y-27516350D01*
X31967712Y-27430467D01*
X31961949Y-27292627D01*
X31960204Y-27089793D01*
X31960188Y-27060497D01*
X31960188Y-26561599D01*
X31763167Y-26561599D01*
X31591866Y-26569419D01*
X31364590Y-26590878D01*
X31103227Y-26622970D01*
X30829669Y-26662688D01*
X30565804Y-26707028D01*
X30333522Y-26752984D01*
X30278135Y-26765496D01*
X30101199Y-26809401D01*
X29991806Y-26850199D01*
X29939683Y-26901660D01*
X29934559Y-26977556D01*
X29966160Y-27091658D01*
X29987980Y-27154473D01*
X30025352Y-27304337D01*
X30010404Y-27401618D01*
X29946608Y-27453039D01*
X29862350Y-27461088D01*
X29794138Y-27407860D01*
X29735276Y-27286096D01*
X29705751Y-27191900D01*
X29666950Y-27062211D01*
X29635059Y-26993920D01*
X29597415Y-26971245D01*
X29541356Y-26978403D01*
X29535582Y-26979820D01*
X29397086Y-27022748D01*
X29218886Y-27090626D01*
X29012862Y-27177590D01*
X28790894Y-27277772D01*
X28564862Y-27385308D01*
X28346646Y-27494332D01*
X28148128Y-27598978D01*
X27981187Y-27693381D01*
X27857704Y-27771675D01*
X27789559Y-27827994D01*
X27779937Y-27846632D01*
X27800902Y-27896466D01*
X27854638Y-27987014D01*
X27899373Y-28054545D01*
X27984990Y-28195446D01*
X28014171Y-28293044D01*
X27988587Y-28358476D01*
X27949138Y-28386166D01*
X27878385Y-28408756D01*
X27814961Y-28388504D01*
X27744328Y-28315672D01*
X27659314Y-28192037D01*
X27583699Y-28082129D01*
X27530300Y-28030516D01*
X27483903Y-28025213D01*
X27460273Y-28035265D01*
X27348413Y-28107667D01*
X27193994Y-28225055D01*
X27010544Y-28375896D01*
X26811589Y-28548659D01*
X26610655Y-28731809D01*
X26421270Y-28913815D01*
X26372210Y-28962943D01*
X25979687Y-29360114D01*
X26183104Y-29547125D01*
X26300716Y-29659663D01*
X26363944Y-29736225D01*
X26380022Y-29791262D01*
X26356184Y-29839227D01*
X26338746Y-29858025D01*
X26271166Y-29899359D01*
X26189832Y-29889516D01*
X26080110Y-29824472D01*
X26005707Y-29766458D01*
X25906137Y-29689617D01*
X25830073Y-29639514D01*
X25802547Y-29628276D01*
X25754622Y-29662535D01*
X25677050Y-29755465D01*
X25576660Y-29895536D01*
X25460282Y-30071219D01*
X25334743Y-30270984D01*
X25206874Y-30483301D01*
X25083503Y-30696642D01*
X24971460Y-30899476D01*
X24877572Y-31080274D01*
X24808671Y-31227507D01*
X24771583Y-31329644D01*
X24769817Y-31371849D01*
X24812343Y-31398488D01*
X24913218Y-31447264D01*
X25056784Y-31510938D01*
X25206752Y-31573853D01*
X25408550Y-31660089D01*
X25544201Y-31728804D01*
X25623203Y-31787342D01*
X25655051Y-31843043D01*
X25649242Y-31903252D01*
X25645672Y-31913223D01*
X25613754Y-31962690D01*
X25558965Y-31983387D01*
X25469863Y-31973697D01*
X25335009Y-31932006D01*
X25142962Y-31856698D01*
X25090383Y-31834823D01*
X24920208Y-31766458D01*
X24776412Y-31714179D01*
X24674924Y-31683414D01*
X24632576Y-31678802D01*
X24601878Y-31728521D01*
X24556674Y-31840641D01*
X24501519Y-32000256D01*
X24440973Y-32192460D01*
X24379594Y-32402347D01*
X24321939Y-32615010D01*
X24272568Y-32815544D01*
X24242916Y-32953063D01*
X24194418Y-33198948D01*
X24160332Y-33377799D01*
X24140075Y-33500782D01*
X24133066Y-33579062D01*
X24138722Y-33623805D01*
X24156461Y-33646176D01*
X24185702Y-33657342D01*
X24205929Y-33662605D01*
X24308897Y-33679526D01*
X24434503Y-33687341D01*
X24440815Y-33687387D01*
X24574929Y-33711626D01*
X24653681Y-33777501D01*
X24667138Y-33875125D01*
X24647892Y-33913512D01*
X24597423Y-33935627D01*
X24498395Y-33945814D01*
X24375214Y-33948282D01*
X24097335Y-33949855D01*
X24086419Y-34525554D01*
X24086540Y-34737655D01*
X24093554Y-34970426D01*
X24106232Y-35209289D01*
X24123350Y-35439664D01*
X24143680Y-35646973D01*
X24165996Y-35816637D01*
X24189072Y-35934078D01*
X24208998Y-35982614D01*
X24256450Y-35986724D01*
X24357020Y-35975214D01*
X24454463Y-35957455D01*
X24627533Y-35935642D01*
X24736506Y-35956942D01*
X24785213Y-36022921D01*
X24786012Y-36093068D01*
X24763705Y-36143456D01*
X24702489Y-36182280D01*
X24585572Y-36218472D01*
X24521474Y-36233751D01*
X24268810Y-36291326D01*
X24294336Y-36452716D01*
X24323121Y-36584194D01*
X24372869Y-36758917D01*
X24438821Y-36964405D01*
X24516219Y-37188178D01*
X24600306Y-37417754D01*
X24686322Y-37640653D01*
X24769510Y-37844395D01*
X24845111Y-38016498D01*
X24908367Y-38144483D01*
X24954520Y-38215868D01*
X24970594Y-38226489D01*
X25014989Y-38208672D01*
X25106156Y-38162669D01*
X25190607Y-38117006D01*
X25314746Y-38054668D01*
X25395610Y-38033663D01*
X25454542Y-38048804D01*
X25459358Y-38051674D01*
X25526047Y-38122868D01*
X25514024Y-38204643D01*
X25423446Y-38296645D01*
X25321552Y-38362315D01*
X25210978Y-38430149D01*
X25135214Y-38485660D01*
X25112539Y-38512596D01*
X25136021Y-38577904D01*
X25201137Y-38694151D01*
X25299893Y-38850011D01*
X25424295Y-39034159D01*
X25566348Y-39235269D01*
X25718058Y-39442014D01*
X25871431Y-39643070D01*
X26018472Y-39827109D01*
X26146816Y-39977898D01*
X26305763Y-40156736D01*
X26639131Y-39825100D01*
X26793468Y-39675674D01*
X26905862Y-39577999D01*
X26987037Y-39524110D01*
X27047720Y-39506044D01*
X27067675Y-39506920D01*
X27129182Y-39522922D01*
X27161256Y-39553332D01*
X27160130Y-39603552D01*
X27122039Y-39678984D01*
X27043214Y-39785030D01*
X26919890Y-39927093D01*
X26748301Y-40110575D01*
X26524679Y-40340877D01*
X26393250Y-40474190D01*
X26190927Y-40677738D01*
X26006585Y-40861317D01*
X25847662Y-41017671D01*
X25721594Y-41139544D01*
X25635820Y-41219681D01*
X25597775Y-41250826D01*
X25597012Y-41250984D01*
X25544122Y-41232034D01*
X25500705Y-41209193D01*
X25451131Y-41166925D01*
X25439975Y-41112352D01*
X25471957Y-41036384D01*
X25551799Y-40929931D01*
X25684222Y-40783903D01*
X25765344Y-40699654D01*
X26099654Y-40356426D01*
X25763963Y-39958307D01*
X25604217Y-39759858D01*
X25426373Y-39524536D01*
X25253529Y-39283607D01*
X25124754Y-39093087D01*
X24821235Y-38625985D01*
X24609953Y-38746868D01*
X24482562Y-38814110D01*
X24398422Y-38840898D01*
X24335928Y-38832962D01*
X24317674Y-38824403D01*
X24243195Y-38757034D01*
X24245321Y-38678953D01*
X24322421Y-38594242D01*
X24437607Y-38524130D01*
X24551401Y-38459761D01*
X24632612Y-38401329D01*
X24657752Y-38372239D01*
X24650222Y-38316155D01*
X24614026Y-38207518D01*
X24555862Y-38065114D01*
X24519967Y-37985692D01*
X24413397Y-37738482D01*
X24302723Y-37449611D01*
X24197426Y-37146535D01*
X24106988Y-36856706D01*
X24040889Y-36607579D01*
X24034914Y-36581136D01*
X23983742Y-36349106D01*
X23851432Y-36372123D01*
X23711570Y-36396470D01*
X23583208Y-36418835D01*
X23483015Y-36426025D01*
X23425782Y-36394313D01*
X23401292Y-36356572D01*
X23378016Y-36271212D01*
X23415992Y-36205136D01*
X23521490Y-36152916D01*
X23683149Y-36112526D01*
X23806985Y-36087434D01*
X23892052Y-36068805D01*
X23917951Y-36061513D01*
X23911357Y-36023224D01*
X23894433Y-35928398D01*
X23874510Y-35817868D01*
X23860007Y-35704331D01*
X23844879Y-35527683D01*
X23830192Y-35304419D01*
X23817010Y-35051034D01*
X23806401Y-34784024D01*
X23805070Y-34742947D01*
X23778840Y-33906896D01*
X23548084Y-33886367D01*
X23382113Y-33858705D01*
X23284062Y-33807893D01*
X23244100Y-33727952D01*
X23241989Y-33700233D01*
X23265389Y-33642839D01*
X23343445Y-33610198D01*
X23485216Y-33599740D01*
X23587464Y-33602232D01*
X23834020Y-33613266D01*
X23858033Y-33461492D01*
X23904894Y-33202364D01*
X23968627Y-32901137D01*
X24042389Y-32586740D01*
X24119336Y-32288103D01*
X24192624Y-32034155D01*
X24204738Y-31995925D01*
X24258016Y-31827832D01*
X24300809Y-31687407D01*
X24327863Y-31592218D01*
X24334656Y-31561379D01*
X24300731Y-31532735D01*
X24207211Y-31481660D01*
X24068396Y-31415375D01*
X23898586Y-31341104D01*
X23898276Y-31340973D01*
X23702379Y-31255824D01*
X23570472Y-31190538D01*
X23491461Y-31138477D01*
X23454249Y-31093002D01*
X23447976Y-31071551D01*
X23470424Y-30980821D01*
X23513596Y-30944370D01*
X23563776Y-30931798D01*
X23639491Y-30941319D01*
X23754112Y-30976560D01*
X23921011Y-31041147D01*
X24017367Y-31081018D01*
X24186199Y-31151212D01*
X24326217Y-31208409D01*
X24422288Y-31246493D01*
X24459016Y-31259404D01*
X24481871Y-31225989D01*
X24532568Y-31134898D01*
X24603715Y-30999860D01*
X24687926Y-30834604D01*
X24691919Y-30826648D01*
X24800584Y-30622562D01*
X24938045Y-30382785D01*
X25087035Y-30136574D01*
X25230289Y-29913188D01*
X25236441Y-29903966D01*
X25563927Y-29414040D01*
X25373747Y-29249054D01*
X25252736Y-29130088D01*
X25200058Y-29041304D01*
X25198224Y-29007238D01*
X25242248Y-28933764D01*
X25328769Y-28919920D01*
X25448785Y-28964607D01*
X25577499Y-29053549D01*
X25759511Y-29202694D01*
X25996276Y-28937819D01*
X26124318Y-28803578D01*
X26291775Y-28640891D01*
X26483254Y-28463438D01*
X26683362Y-28284901D01*
X26876707Y-28118960D01*
X27047896Y-27979296D01*
X27181536Y-27879590D01*
X27203116Y-27865186D01*
X27289383Y-27802178D01*
X27337766Y-27753015D01*
X27341513Y-27743223D01*
X27320862Y-27694403D01*
X27267386Y-27604583D01*
X27222570Y-27536990D01*
X27139446Y-27403104D01*
X27107619Y-27309919D01*
X27123422Y-27240525D01*
X27150909Y-27206552D01*
X27214202Y-27165306D01*
X27278877Y-27178203D01*
X27355805Y-27251515D01*
X27446240Y-27376951D01*
X27591100Y-27595126D01*
X27755189Y-27494391D01*
X27943475Y-27386309D01*
X28182266Y-27260263D01*
X28448079Y-27127706D01*
X28717427Y-27000090D01*
X28966828Y-26888871D01*
X29150260Y-26813996D01*
X29305425Y-26753964D01*
X29429846Y-26704279D01*
X29506623Y-26671776D01*
X29522734Y-26663420D01*
X29519836Y-26621138D01*
X29498396Y-26525415D01*
X29470856Y-26424409D01*
X29430932Y-26256911D01*
X29429832Y-26151333D01*
X29469904Y-26098819D01*
X29553500Y-26090509D01*
X29559272Y-26091142D01*
X29622140Y-26108011D01*
X29667939Y-26153012D01*
X29709917Y-26244391D01*
X29744125Y-26345732D01*
X29821291Y-26587703D01*
X30203984Y-26494728D01*
X30469841Y-26437067D01*
X30766801Y-26384074D01*
X31071208Y-26339047D01*
X31359406Y-26305283D01*
X31607739Y-26286081D01*
X31723355Y-26282915D01*
X31960188Y-26282915D01*
X31960188Y-25787245D01*
X31961534Y-25576562D01*
X31966744Y-25431816D01*
X31977571Y-25339346D01*
X31995774Y-25285493D01*
X32023106Y-25256597D01*
X32028831Y-25253160D01*
X32130030Y-25238263D01*
X32168172Y-25252582D01*
X32168172Y-25252582D01*
G37*
X32168172Y-25252582D02*
X32197989Y-25277328D01*
X32218140Y-25322994D01*
X32230445Y-25403326D01*
X32236724Y-25532071D01*
X32238797Y-25722975D01*
X32238871Y-25786667D01*
X32238871Y-26282915D01*
X32455798Y-26282915D01*
X32637340Y-26290854D01*
X32873923Y-26312627D01*
X33142778Y-26345166D01*
X33421137Y-26385405D01*
X33686230Y-26430278D01*
X33915289Y-26476718D01*
X33943974Y-26483355D01*
X34100720Y-26519098D01*
X34229918Y-26546270D01*
X34310350Y-26560491D01*
X34322993Y-26561599D01*
X34359951Y-26526923D01*
X34408168Y-26436796D01*
X34449238Y-26332680D01*
X34505857Y-26191988D01*
X34559573Y-26116066D01*
X34611164Y-26091887D01*
X34706079Y-26099841D01*
X34752402Y-26160923D01*
X34751551Y-26279667D01*
X34715726Y-26426268D01*
X34644360Y-26660681D01*
X35066645Y-26826011D01*
X35556388Y-27033778D01*
X36020907Y-27261866D01*
X36358217Y-27451615D01*
X36591190Y-27591957D01*
X36735553Y-27385320D01*
X36850450Y-27246191D01*
X36947502Y-27183973D01*
X37027756Y-27198228D01*
X37069472Y-27245178D01*
X37083238Y-27298110D01*
X37060303Y-27373048D01*
X36994471Y-27487125D01*
X36966489Y-27529947D01*
X36821563Y-27748222D01*
X37097046Y-27953073D01*
X37385459Y-28182306D01*
X37693974Y-28453250D01*
X37996790Y-28742558D01*
X38191081Y-28942992D01*
X38430281Y-29198972D01*
X38602920Y-29054737D01*
X38743528Y-28957564D01*
X38862236Y-28914753D01*
X38948066Y-28928662D01*
X38982588Y-28973103D01*
X38984441Y-29047644D01*
X38955855Y-29131044D01*
X38911842Y-29185556D01*
X38896013Y-29190803D01*
X38850869Y-29215554D01*
X38770926Y-29275901D01*
X38734765Y-29306024D01*
X38601975Y-29419628D01*
X38818164Y-29712478D01*
X38984544Y-29950111D01*
X39157040Y-30217699D01*
X39322375Y-30493007D01*
X39467275Y-30753799D01*
X39578463Y-30977839D01*
X39592561Y-31009532D01*
X39650321Y-31134368D01*
X39698209Y-31223950D01*
X39726096Y-31259376D01*
X39726489Y-31259404D01*
X39771072Y-31244874D01*
X39873371Y-31205389D01*
X40017809Y-31147114D01*
X40175845Y-31081645D01*
X40382433Y-30998476D01*
X40529376Y-30949337D01*
X40628307Y-30932764D01*
X40690855Y-30947292D01*
X40728653Y-30991459D01*
X40737187Y-31011002D01*
X40738885Y-31072123D01*
X40691498Y-31134893D01*
X40587703Y-31204480D01*
X40420173Y-31286053D01*
X40241066Y-31361117D01*
X40081852Y-31425557D01*
X39952521Y-31478788D01*
X39869404Y-31514036D01*
X39847471Y-31524377D01*
X39852668Y-31564363D01*
X39879010Y-31663057D01*
X39921812Y-31803850D01*
X39956660Y-31911342D01*
X40049511Y-32210445D01*
X40135835Y-32524121D01*
X40210439Y-32830820D01*
X40268127Y-33108990D01*
X40303704Y-33337078D01*
X40306525Y-33362808D01*
X40332366Y-33614957D01*
X40575352Y-33607053D01*
X40740379Y-33602641D01*
X40841488Y-33605561D01*
X40894335Y-33620312D01*
X40914576Y-33651393D01*
X40917868Y-33703303D01*
X40917868Y-33705487D01*
X40905263Y-33783925D01*
X40857469Y-33834616D01*
X40759523Y-33866167D01*
X40603002Y-33886572D01*
X40387666Y-33906896D01*
X40395268Y-34464263D01*
X40393167Y-34729933D01*
X40381685Y-35027046D01*
X40362758Y-35317053D01*
X40341510Y-35535503D01*
X40319398Y-35727505D01*
X40302447Y-35888146D01*
X40292121Y-36002455D01*
X40289884Y-36055461D01*
X40290466Y-36057347D01*
X40331531Y-36069798D01*
X40428067Y-36094218D01*
X40539655Y-36120747D01*
X40673403Y-36155600D01*
X40747547Y-36189367D01*
X40781014Y-36234100D01*
X40790633Y-36280572D01*
X40781141Y-36366703D01*
X40722406Y-36411545D01*
X40606497Y-36417719D01*
X40449988Y-36393056D01*
X40330053Y-36370752D01*
X40247198Y-36360242D01*
X40223770Y-36361804D01*
X40209423Y-36402983D01*
X40177969Y-36506099D01*
X40133792Y-36656418D01*
X40081273Y-36839209D01*
X40071194Y-36874699D01*
X39995838Y-37118391D01*
X39899792Y-37397212D01*
X39796238Y-37674232D01*
X39711759Y-37881631D01*
X39493920Y-38389098D01*
X39680887Y-38483841D01*
X39838153Y-38574396D01*
X39924665Y-38653224D01*
X39947067Y-38727297D01*
X39940085Y-38755825D01*
X39889298Y-38823016D01*
X39803398Y-38836127D01*
X39673713Y-38794862D01*
X39570075Y-38743230D01*
X39453677Y-38686909D01*
X39368000Y-38658082D01*
X39332773Y-38662182D01*
X39296080Y-38734046D01*
X39220544Y-38855903D01*
X39115564Y-39014399D01*
X38990538Y-39196179D01*
X38854865Y-39387891D01*
X38717944Y-39576180D01*
X38589172Y-39747692D01*
X38477949Y-39889075D01*
X38424101Y-39953253D01*
X38306162Y-40089437D01*
X38205558Y-40207182D01*
X38135380Y-40291075D01*
X38111594Y-40321098D01*
X38108551Y-40360854D01*
X38145880Y-40426954D01*
X38229700Y-40527542D01*
X38366131Y-40670760D01*
X38400230Y-40705197D01*
X38569778Y-40884932D01*
X38677426Y-41022638D01*
X38725637Y-41123167D01*
X38716868Y-41191373D01*
X38665239Y-41228029D01*
X38597223Y-41249260D01*
X38578046Y-41252194D01*
X38543136Y-41225224D01*
X38461413Y-41150222D01*
X38341768Y-41036051D01*
X38193090Y-40891575D01*
X38024271Y-40725656D01*
X37844200Y-40547159D01*
X37661769Y-40364945D01*
X37485867Y-40187879D01*
X37325385Y-40024824D01*
X37189215Y-39884643D01*
X37086245Y-39776198D01*
X37025367Y-39708354D01*
X37013510Y-39692461D01*
X36993713Y-39604578D01*
X37000797Y-39563072D01*
X37044856Y-39507348D01*
X37117175Y-39506266D01*
X37222627Y-39562293D01*
X37366080Y-39677897D01*
X37525654Y-39828918D01*
X37857517Y-40157367D01*
X38067271Y-39933713D01*
X38206956Y-39776485D01*
X38355639Y-39594923D01*
X38506432Y-39399131D01*
X38652447Y-39199210D01*
X38786793Y-39005263D01*
X38902584Y-38827391D01*
X38992929Y-38675697D01*
X39050941Y-38560281D01*
X39069730Y-38491248D01*
X39060834Y-38476704D01*
X39005096Y-38448566D01*
X38907726Y-38391528D01*
X38830483Y-38343596D01*
X38716823Y-38262600D01*
X38663290Y-38197057D01*
X38655880Y-38136507D01*
X38695514Y-38057378D01*
X38783913Y-38038951D01*
X38922221Y-38081191D01*
X39011405Y-38125571D01*
X39124355Y-38180051D01*
X39210441Y-38208880D01*
X39241944Y-38208946D01*
X39280835Y-38156043D01*
X39338797Y-38040386D01*
X39410930Y-37875152D01*
X39492337Y-37673521D01*
X39578121Y-37448669D01*
X39663384Y-37213773D01*
X39743228Y-36982012D01*
X39812755Y-36766562D01*
X39867068Y-36580602D01*
X39901268Y-36437308D01*
X39902153Y-36432626D01*
X39928570Y-36290958D01*
X39676746Y-36233567D01*
X39539056Y-36198882D01*
X39461326Y-36166436D01*
X39425075Y-36124789D01*
X39412654Y-36070110D01*
X39426554Y-35979651D01*
X39497373Y-35935492D01*
X39629193Y-35936149D01*
X39728885Y-35955007D01*
X39844703Y-35979735D01*
X39929895Y-35994411D01*
X39947590Y-35996049D01*
X39975305Y-35959002D01*
X40003499Y-35855366D01*
X40031070Y-35698161D01*
X40056917Y-35500407D01*
X40079936Y-35275122D01*
X40099027Y-35035327D01*
X40113086Y-34794041D01*
X40121013Y-34564282D01*
X40121704Y-34359072D01*
X40114059Y-34191428D01*
X40106214Y-34122020D01*
X40079191Y-33941818D01*
X39841533Y-33959008D01*
X39661243Y-33957780D01*
X39540737Y-33925483D01*
X39486884Y-33864308D01*
X39484639Y-33845148D01*
X39519681Y-33775669D01*
X39606199Y-33717537D01*
X39716286Y-33688246D01*
X39736307Y-33687387D01*
X39902749Y-33674892D01*
X40001261Y-33636494D01*
X40040463Y-33568207D01*
X40042006Y-33545967D01*
X40031855Y-33429322D01*
X40003830Y-33259410D01*
X39961574Y-33050493D01*
X39908730Y-32816831D01*
X39848942Y-32572685D01*
X39785852Y-32332316D01*
X39723103Y-32109986D01*
X39664339Y-31919955D01*
X39613202Y-31776485D01*
X39573335Y-31693837D01*
X39566761Y-31685569D01*
X39520343Y-31687405D01*
X39416403Y-31715977D01*
X39270491Y-31766386D01*
X39103639Y-31831482D01*
X38878200Y-31918168D01*
X38715314Y-31965947D01*
X38608155Y-31974980D01*
X38549893Y-31945425D01*
X38533702Y-31877443D01*
X38536690Y-31844746D01*
X38557463Y-31799945D01*
X38614157Y-31751930D01*
X38717925Y-31693979D01*
X38879922Y-31619372D01*
X38986990Y-31573405D01*
X39178003Y-31490255D01*
X39305023Y-31428153D01*
X39378750Y-31380563D01*
X39409884Y-31340950D01*
X39411956Y-31313818D01*
X39380480Y-31222339D01*
X39312634Y-31078397D01*
X39216513Y-30895581D01*
X39100213Y-30687480D01*
X38971828Y-30467684D01*
X38839454Y-30249780D01*
X38711185Y-30047358D01*
X38595118Y-29874006D01*
X38499346Y-29743315D01*
X38432107Y-29668989D01*
X38387274Y-29647003D01*
X38331349Y-29661676D01*
X38245452Y-29720471D01*
X38190549Y-29764493D01*
X38053808Y-29860973D01*
X37952086Y-29893095D01*
X37875448Y-29862220D01*
X37836712Y-29812935D01*
X37821573Y-29766857D01*
X37841174Y-29715293D01*
X37905286Y-29642989D01*
X38003430Y-29552626D01*
X38214227Y-29365276D01*
X37724747Y-28887419D01*
X37475368Y-28649887D01*
X37237948Y-28435012D01*
X37023136Y-28251889D01*
X36841585Y-28109617D01*
X36710235Y-28020942D01*
X36660351Y-28035402D01*
X36584912Y-28113231D01*
X36533709Y-28183115D01*
X36441394Y-28313078D01*
X36375938Y-28385174D01*
X36323153Y-28409760D01*
X36268852Y-28397198D01*
X36252067Y-28388768D01*
X36195275Y-28336749D01*
X36188633Y-28259819D01*
X36233865Y-28146154D01*
X36304941Y-28026450D01*
X36373376Y-27916245D01*
X36401842Y-27851747D01*
X36394448Y-27812352D01*
X36355305Y-27777457D01*
X36354706Y-27777016D01*
X36246306Y-27707521D01*
X36087176Y-27618781D01*
X35890698Y-27516993D01*
X35670249Y-27408356D01*
X35439211Y-27299068D01*
X35210963Y-27195327D01*
X34998885Y-27103331D01*
X34816357Y-27029278D01*
X34676759Y-26979366D01*
X34593470Y-26959792D01*
X34590387Y-26959718D01*
X34558335Y-26994699D01*
X34517468Y-27085050D01*
X34487501Y-27175348D01*
X34429617Y-27340418D01*
X34369752Y-27433131D01*
X34301006Y-27460603D01*
X34232012Y-27438823D01*
X34174591Y-27396249D01*
X34154274Y-27337234D01*
X34169679Y-27242117D01*
X34209561Y-27118965D01*
X34246095Y-27004596D01*
X34267205Y-26917560D01*
X34269279Y-26898263D01*
X34231595Y-26862381D01*
X34126293Y-26820986D01*
X33964995Y-26776355D01*
X33759326Y-26730762D01*
X33520908Y-26686486D01*
X33261366Y-26645802D01*
X32992321Y-26610987D01*
X32725398Y-26584317D01*
X32628309Y-26576886D01*
X32241415Y-26550025D01*
X32230190Y-27039251D01*
X32223475Y-27252893D01*
X32213616Y-27400028D01*
X32198744Y-27493762D01*
X32176992Y-27547199D01*
X32154706Y-27568928D01*
X32067903Y-27591442D01*
X32025317Y-27584388D01*
X31997775Y-27563311D01*
X31979114Y-27516350D01*
X31967712Y-27430467D01*
X31961949Y-27292627D01*
X31960204Y-27089793D01*
X31960188Y-27060497D01*
X31960188Y-26561599D01*
X31763167Y-26561599D01*
X31591866Y-26569419D01*
X31364590Y-26590878D01*
X31103227Y-26622970D01*
X30829669Y-26662688D01*
X30565804Y-26707028D01*
X30333522Y-26752984D01*
X30278135Y-26765496D01*
X30101199Y-26809401D01*
X29991806Y-26850199D01*
X29939683Y-26901660D01*
X29934559Y-26977556D01*
X29966160Y-27091658D01*
X29987980Y-27154473D01*
X30025352Y-27304337D01*
X30010404Y-27401618D01*
X29946608Y-27453039D01*
X29862350Y-27461088D01*
X29794138Y-27407860D01*
X29735276Y-27286096D01*
X29705751Y-27191900D01*
X29666950Y-27062211D01*
X29635059Y-26993920D01*
X29597415Y-26971245D01*
X29541356Y-26978403D01*
X29535582Y-26979820D01*
X29397086Y-27022748D01*
X29218886Y-27090626D01*
X29012862Y-27177590D01*
X28790894Y-27277772D01*
X28564862Y-27385308D01*
X28346646Y-27494332D01*
X28148128Y-27598978D01*
X27981187Y-27693381D01*
X27857704Y-27771675D01*
X27789559Y-27827994D01*
X27779937Y-27846632D01*
X27800902Y-27896466D01*
X27854638Y-27987014D01*
X27899373Y-28054545D01*
X27984990Y-28195446D01*
X28014171Y-28293044D01*
X27988587Y-28358476D01*
X27949138Y-28386166D01*
X27878385Y-28408756D01*
X27814961Y-28388504D01*
X27744328Y-28315672D01*
X27659314Y-28192037D01*
X27583699Y-28082129D01*
X27530300Y-28030516D01*
X27483903Y-28025213D01*
X27460273Y-28035265D01*
X27348413Y-28107667D01*
X27193994Y-28225055D01*
X27010544Y-28375896D01*
X26811589Y-28548659D01*
X26610655Y-28731809D01*
X26421270Y-28913815D01*
X26372210Y-28962943D01*
X25979687Y-29360114D01*
X26183104Y-29547125D01*
X26300716Y-29659663D01*
X26363944Y-29736225D01*
X26380022Y-29791262D01*
X26356184Y-29839227D01*
X26338746Y-29858025D01*
X26271166Y-29899359D01*
X26189832Y-29889516D01*
X26080110Y-29824472D01*
X26005707Y-29766458D01*
X25906137Y-29689617D01*
X25830073Y-29639514D01*
X25802547Y-29628276D01*
X25754622Y-29662535D01*
X25677050Y-29755465D01*
X25576660Y-29895536D01*
X25460282Y-30071219D01*
X25334743Y-30270984D01*
X25206874Y-30483301D01*
X25083503Y-30696642D01*
X24971460Y-30899476D01*
X24877572Y-31080274D01*
X24808671Y-31227507D01*
X24771583Y-31329644D01*
X24769817Y-31371849D01*
X24812343Y-31398488D01*
X24913218Y-31447264D01*
X25056784Y-31510938D01*
X25206752Y-31573853D01*
X25408550Y-31660089D01*
X25544201Y-31728804D01*
X25623203Y-31787342D01*
X25655051Y-31843043D01*
X25649242Y-31903252D01*
X25645672Y-31913223D01*
X25613754Y-31962690D01*
X25558965Y-31983387D01*
X25469863Y-31973697D01*
X25335009Y-31932006D01*
X25142962Y-31856698D01*
X25090383Y-31834823D01*
X24920208Y-31766458D01*
X24776412Y-31714179D01*
X24674924Y-31683414D01*
X24632576Y-31678802D01*
X24601878Y-31728521D01*
X24556674Y-31840641D01*
X24501519Y-32000256D01*
X24440973Y-32192460D01*
X24379594Y-32402347D01*
X24321939Y-32615010D01*
X24272568Y-32815544D01*
X24242916Y-32953063D01*
X24194418Y-33198948D01*
X24160332Y-33377799D01*
X24140075Y-33500782D01*
X24133066Y-33579062D01*
X24138722Y-33623805D01*
X24156461Y-33646176D01*
X24185702Y-33657342D01*
X24205929Y-33662605D01*
X24308897Y-33679526D01*
X24434503Y-33687341D01*
X24440815Y-33687387D01*
X24574929Y-33711626D01*
X24653681Y-33777501D01*
X24667138Y-33875125D01*
X24647892Y-33913512D01*
X24597423Y-33935627D01*
X24498395Y-33945814D01*
X24375214Y-33948282D01*
X24097335Y-33949855D01*
X24086419Y-34525554D01*
X24086540Y-34737655D01*
X24093554Y-34970426D01*
X24106232Y-35209289D01*
X24123350Y-35439664D01*
X24143680Y-35646973D01*
X24165996Y-35816637D01*
X24189072Y-35934078D01*
X24208998Y-35982614D01*
X24256450Y-35986724D01*
X24357020Y-35975214D01*
X24454463Y-35957455D01*
X24627533Y-35935642D01*
X24736506Y-35956942D01*
X24785213Y-36022921D01*
X24786012Y-36093068D01*
X24763705Y-36143456D01*
X24702489Y-36182280D01*
X24585572Y-36218472D01*
X24521474Y-36233751D01*
X24268810Y-36291326D01*
X24294336Y-36452716D01*
X24323121Y-36584194D01*
X24372869Y-36758917D01*
X24438821Y-36964405D01*
X24516219Y-37188178D01*
X24600306Y-37417754D01*
X24686322Y-37640653D01*
X24769510Y-37844395D01*
X24845111Y-38016498D01*
X24908367Y-38144483D01*
X24954520Y-38215868D01*
X24970594Y-38226489D01*
X25014989Y-38208672D01*
X25106156Y-38162669D01*
X25190607Y-38117006D01*
X25314746Y-38054668D01*
X25395610Y-38033663D01*
X25454542Y-38048804D01*
X25459358Y-38051674D01*
X25526047Y-38122868D01*
X25514024Y-38204643D01*
X25423446Y-38296645D01*
X25321552Y-38362315D01*
X25210978Y-38430149D01*
X25135214Y-38485660D01*
X25112539Y-38512596D01*
X25136021Y-38577904D01*
X25201137Y-38694151D01*
X25299893Y-38850011D01*
X25424295Y-39034159D01*
X25566348Y-39235269D01*
X25718058Y-39442014D01*
X25871431Y-39643070D01*
X26018472Y-39827109D01*
X26146816Y-39977898D01*
X26305763Y-40156736D01*
X26639131Y-39825100D01*
X26793468Y-39675674D01*
X26905862Y-39577999D01*
X26987037Y-39524110D01*
X27047720Y-39506044D01*
X27067675Y-39506920D01*
X27129182Y-39522922D01*
X27161256Y-39553332D01*
X27160130Y-39603552D01*
X27122039Y-39678984D01*
X27043214Y-39785030D01*
X26919890Y-39927093D01*
X26748301Y-40110575D01*
X26524679Y-40340877D01*
X26393250Y-40474190D01*
X26190927Y-40677738D01*
X26006585Y-40861317D01*
X25847662Y-41017671D01*
X25721594Y-41139544D01*
X25635820Y-41219681D01*
X25597775Y-41250826D01*
X25597012Y-41250984D01*
X25544122Y-41232034D01*
X25500705Y-41209193D01*
X25451131Y-41166925D01*
X25439975Y-41112352D01*
X25471957Y-41036384D01*
X25551799Y-40929931D01*
X25684222Y-40783903D01*
X25765344Y-40699654D01*
X26099654Y-40356426D01*
X25763963Y-39958307D01*
X25604217Y-39759858D01*
X25426373Y-39524536D01*
X25253529Y-39283607D01*
X25124754Y-39093087D01*
X24821235Y-38625985D01*
X24609953Y-38746868D01*
X24482562Y-38814110D01*
X24398422Y-38840898D01*
X24335928Y-38832962D01*
X24317674Y-38824403D01*
X24243195Y-38757034D01*
X24245321Y-38678953D01*
X24322421Y-38594242D01*
X24437607Y-38524130D01*
X24551401Y-38459761D01*
X24632612Y-38401329D01*
X24657752Y-38372239D01*
X24650222Y-38316155D01*
X24614026Y-38207518D01*
X24555862Y-38065114D01*
X24519967Y-37985692D01*
X24413397Y-37738482D01*
X24302723Y-37449611D01*
X24197426Y-37146535D01*
X24106988Y-36856706D01*
X24040889Y-36607579D01*
X24034914Y-36581136D01*
X23983742Y-36349106D01*
X23851432Y-36372123D01*
X23711570Y-36396470D01*
X23583208Y-36418835D01*
X23483015Y-36426025D01*
X23425782Y-36394313D01*
X23401292Y-36356572D01*
X23378016Y-36271212D01*
X23415992Y-36205136D01*
X23521490Y-36152916D01*
X23683149Y-36112526D01*
X23806985Y-36087434D01*
X23892052Y-36068805D01*
X23917951Y-36061513D01*
X23911357Y-36023224D01*
X23894433Y-35928398D01*
X23874510Y-35817868D01*
X23860007Y-35704331D01*
X23844879Y-35527683D01*
X23830192Y-35304419D01*
X23817010Y-35051034D01*
X23806401Y-34784024D01*
X23805070Y-34742947D01*
X23778840Y-33906896D01*
X23548084Y-33886367D01*
X23382113Y-33858705D01*
X23284062Y-33807893D01*
X23244100Y-33727952D01*
X23241989Y-33700233D01*
X23265389Y-33642839D01*
X23343445Y-33610198D01*
X23485216Y-33599740D01*
X23587464Y-33602232D01*
X23834020Y-33613266D01*
X23858033Y-33461492D01*
X23904894Y-33202364D01*
X23968627Y-32901137D01*
X24042389Y-32586740D01*
X24119336Y-32288103D01*
X24192624Y-32034155D01*
X24204738Y-31995925D01*
X24258016Y-31827832D01*
X24300809Y-31687407D01*
X24327863Y-31592218D01*
X24334656Y-31561379D01*
X24300731Y-31532735D01*
X24207211Y-31481660D01*
X24068396Y-31415375D01*
X23898586Y-31341104D01*
X23898276Y-31340973D01*
X23702379Y-31255824D01*
X23570472Y-31190538D01*
X23491461Y-31138477D01*
X23454249Y-31093002D01*
X23447976Y-31071551D01*
X23470424Y-30980821D01*
X23513596Y-30944370D01*
X23563776Y-30931798D01*
X23639491Y-30941319D01*
X23754112Y-30976560D01*
X23921011Y-31041147D01*
X24017367Y-31081018D01*
X24186199Y-31151212D01*
X24326217Y-31208409D01*
X24422288Y-31246493D01*
X24459016Y-31259404D01*
X24481871Y-31225989D01*
X24532568Y-31134898D01*
X24603715Y-30999860D01*
X24687926Y-30834604D01*
X24691919Y-30826648D01*
X24800584Y-30622562D01*
X24938045Y-30382785D01*
X25087035Y-30136574D01*
X25230289Y-29913188D01*
X25236441Y-29903966D01*
X25563927Y-29414040D01*
X25373747Y-29249054D01*
X25252736Y-29130088D01*
X25200058Y-29041304D01*
X25198224Y-29007238D01*
X25242248Y-28933764D01*
X25328769Y-28919920D01*
X25448785Y-28964607D01*
X25577499Y-29053549D01*
X25759511Y-29202694D01*
X25996276Y-28937819D01*
X26124318Y-28803578D01*
X26291775Y-28640891D01*
X26483254Y-28463438D01*
X26683362Y-28284901D01*
X26876707Y-28118960D01*
X27047896Y-27979296D01*
X27181536Y-27879590D01*
X27203116Y-27865186D01*
X27289383Y-27802178D01*
X27337766Y-27753015D01*
X27341513Y-27743223D01*
X27320862Y-27694403D01*
X27267386Y-27604583D01*
X27222570Y-27536990D01*
X27139446Y-27403104D01*
X27107619Y-27309919D01*
X27123422Y-27240525D01*
X27150909Y-27206552D01*
X27214202Y-27165306D01*
X27278877Y-27178203D01*
X27355805Y-27251515D01*
X27446240Y-27376951D01*
X27591100Y-27595126D01*
X27755189Y-27494391D01*
X27943475Y-27386309D01*
X28182266Y-27260263D01*
X28448079Y-27127706D01*
X28717427Y-27000090D01*
X28966828Y-26888871D01*
X29150260Y-26813996D01*
X29305425Y-26753964D01*
X29429846Y-26704279D01*
X29506623Y-26671776D01*
X29522734Y-26663420D01*
X29519836Y-26621138D01*
X29498396Y-26525415D01*
X29470856Y-26424409D01*
X29430932Y-26256911D01*
X29429832Y-26151333D01*
X29469904Y-26098819D01*
X29553500Y-26090509D01*
X29559272Y-26091142D01*
X29622140Y-26108011D01*
X29667939Y-26153012D01*
X29709917Y-26244391D01*
X29744125Y-26345732D01*
X29821291Y-26587703D01*
X30203984Y-26494728D01*
X30469841Y-26437067D01*
X30766801Y-26384074D01*
X31071208Y-26339047D01*
X31359406Y-26305283D01*
X31607739Y-26286081D01*
X31723355Y-26282915D01*
X31960188Y-26282915D01*
X31960188Y-25787245D01*
X31961534Y-25576562D01*
X31966744Y-25431816D01*
X31977571Y-25339346D01*
X31995774Y-25285493D01*
X32023106Y-25256597D01*
X32028831Y-25253160D01*
X32130030Y-25238263D01*
X32168172Y-25252582D01*
M02*
