%TF.GenerationSoftware,KiCad,Pcbnew,(5.0.1)-3*%
%TF.CreationDate,2019-04-27T14:44:02+01:00*%
%TF.ProjectId,Fractional clock divider panel,4672616374696F6E616C20636C6F636B,rev?*%
%TF.SameCoordinates,Original*%
%TF.FileFunction,Copper,L1,Top,Signal*%
%TF.FilePolarity,Positive*%
%FSLAX46Y46*%
G04 Gerber Fmt 4.6, Leading zero omitted, Abs format (unit mm)*
G04 Created by KiCad (PCBNEW (5.0.1)-3) date 27/04/2019 14:44:02*
%MOMM*%
%LPD*%
G01*
G04 APERTURE LIST*
%ADD10C,0.150000*%
%ADD11C,6.200000*%
%ADD12C,7.200000*%
%ADD13C,3.300000*%
%ADD14C,0.254000*%
G04 APERTURE END LIST*
D10*
X51640055Y-94500000D02*
G75*
G03X51640055Y-94500000I-3640055J0D01*
G01*
X35605551Y-94500000D02*
G75*
G03X35605551Y-94500000I-3605551J0D01*
G01*
X35640055Y-72500000D02*
G75*
G03X35640055Y-72500000I-3640055J0D01*
G01*
X35640055Y-53500000D02*
G75*
G03X35640055Y-53500000I-3640055J0D01*
G01*
X35605551Y-34500000D02*
G75*
G03X35605551Y-34500000I-3605551J0D01*
G01*
X18000000Y-144500000D02*
X18000000Y-16000000D01*
X58500000Y-144500000D02*
X18000000Y-144500000D01*
X18000000Y-16000000D02*
X58500000Y-16000000D01*
X58500000Y-16000000D02*
X58500000Y-144500000D01*
D11*
X47000000Y-63000000D03*
X47000000Y-44000000D03*
D12*
X48000000Y-94500000D03*
X32000000Y-94500000D03*
X32000000Y-72500000D03*
X32000000Y-53500000D03*
X32000000Y-34500000D03*
D13*
X22000000Y-61500000D03*
D11*
X38000000Y-126000000D03*
X38000000Y-113000000D03*
X50000000Y-113000000D03*
X50000000Y-126000000D03*
X26000000Y-126000000D03*
X26000000Y-113000000D03*
D13*
X26000000Y-104500000D03*
X25500000Y-19000000D03*
X25500000Y-141500000D03*
X22000000Y-85000000D03*
X22000000Y-80500000D03*
X50000000Y-104500000D03*
X22000000Y-42500000D03*
X38000000Y-104500000D03*
X41500000Y-80500000D03*
D14*
G36*
X25482565Y-16715000D02*
X25045485Y-16715000D01*
X25028756Y-16721930D01*
X25010650Y-16722206D01*
X24235379Y-17043334D01*
X24230443Y-17052601D01*
X24205651Y-17062870D01*
X23562870Y-17705651D01*
X23552601Y-17730443D01*
X23543334Y-17735379D01*
X23382272Y-18141653D01*
X23215000Y-18545485D01*
X23215000Y-18563594D01*
X23208327Y-18580426D01*
X23215000Y-19017435D01*
X23215000Y-19454515D01*
X23221930Y-19471244D01*
X23222206Y-19489350D01*
X23543334Y-20264621D01*
X23552601Y-20269557D01*
X23562870Y-20294349D01*
X24205651Y-20937130D01*
X24230443Y-20947399D01*
X24235379Y-20956666D01*
X24641653Y-21117728D01*
X25045485Y-21285000D01*
X25063594Y-21285000D01*
X25080426Y-21291673D01*
X25517435Y-21285000D01*
X25954515Y-21285000D01*
X25971244Y-21278070D01*
X25989350Y-21277794D01*
X26764621Y-20956666D01*
X26769557Y-20947399D01*
X26794349Y-20937130D01*
X27437130Y-20294349D01*
X27447399Y-20269557D01*
X27456666Y-20264621D01*
X27617728Y-19858347D01*
X27785000Y-19454515D01*
X27785000Y-19436406D01*
X27791673Y-19419574D01*
X27785000Y-18982565D01*
X27785000Y-18545485D01*
X27778070Y-18528756D01*
X27777794Y-18510650D01*
X27456666Y-17735379D01*
X27447399Y-17730443D01*
X27437130Y-17705651D01*
X26794349Y-17062870D01*
X26769557Y-17052601D01*
X26764621Y-17043334D01*
X26358347Y-16882272D01*
X25954515Y-16715000D01*
X25936406Y-16715000D01*
X25923794Y-16710000D01*
X57790000Y-16710000D01*
X57790001Y-143790000D01*
X25189989Y-143790000D01*
X25517435Y-143785000D01*
X25954515Y-143785000D01*
X25971244Y-143778070D01*
X25989350Y-143777794D01*
X26764621Y-143456666D01*
X26769557Y-143447399D01*
X26794349Y-143437130D01*
X27437130Y-142794349D01*
X27447399Y-142769557D01*
X27456666Y-142764621D01*
X27617728Y-142358347D01*
X27785000Y-141954515D01*
X27785000Y-141936406D01*
X27791673Y-141919574D01*
X27785000Y-141482565D01*
X27785000Y-141045485D01*
X27778070Y-141028756D01*
X27777794Y-141010650D01*
X27456666Y-140235379D01*
X27447399Y-140230443D01*
X27437130Y-140205651D01*
X26794349Y-139562870D01*
X26769557Y-139552601D01*
X26764621Y-139543334D01*
X26358347Y-139382272D01*
X25954515Y-139215000D01*
X25936406Y-139215000D01*
X25919574Y-139208327D01*
X25482565Y-139215000D01*
X25045485Y-139215000D01*
X25028756Y-139221930D01*
X25010650Y-139222206D01*
X24235379Y-139543334D01*
X24230443Y-139552601D01*
X24205651Y-139562870D01*
X23562870Y-140205651D01*
X23552601Y-140230443D01*
X23543334Y-140235379D01*
X23382272Y-140641653D01*
X23215000Y-141045485D01*
X23215000Y-141063594D01*
X23208327Y-141080426D01*
X23215000Y-141517435D01*
X23215000Y-141954515D01*
X23221930Y-141971244D01*
X23222206Y-141989350D01*
X23543334Y-142764621D01*
X23552601Y-142769557D01*
X23562870Y-142794349D01*
X24205651Y-143437130D01*
X24230443Y-143447399D01*
X24235379Y-143456666D01*
X24641653Y-143617728D01*
X25045485Y-143785000D01*
X25063594Y-143785000D01*
X25076206Y-143790000D01*
X18710000Y-143790000D01*
X18710000Y-126720835D01*
X22260671Y-126720835D01*
X22265000Y-126731463D01*
X22265000Y-126742938D01*
X22545061Y-127419065D01*
X22821162Y-128096944D01*
X22833490Y-128115394D01*
X22833620Y-128115708D01*
X22833860Y-128115948D01*
X22846188Y-128134398D01*
X22868982Y-128151070D01*
X23848930Y-129131018D01*
X23865602Y-129153812D01*
X23876178Y-129158266D01*
X23884292Y-129166380D01*
X24560425Y-129446444D01*
X25234985Y-129730541D01*
X25246461Y-129730609D01*
X25257062Y-129735000D01*
X25988900Y-129735000D01*
X26720835Y-129739329D01*
X26731463Y-129735000D01*
X26742938Y-129735000D01*
X27419065Y-129454939D01*
X28096944Y-129178838D01*
X28115394Y-129166510D01*
X28115708Y-129166380D01*
X28115948Y-129166140D01*
X28134398Y-129153812D01*
X28151070Y-129131018D01*
X29131018Y-128151070D01*
X29153812Y-128134398D01*
X29158266Y-128123822D01*
X29166380Y-128115708D01*
X29446444Y-127439575D01*
X29730541Y-126765015D01*
X29730609Y-126753539D01*
X29735000Y-126742938D01*
X29735000Y-126720835D01*
X34260671Y-126720835D01*
X34265000Y-126731463D01*
X34265000Y-126742938D01*
X34545061Y-127419065D01*
X34821162Y-128096944D01*
X34833490Y-128115394D01*
X34833620Y-128115708D01*
X34833860Y-128115948D01*
X34846188Y-128134398D01*
X34868982Y-128151070D01*
X35848930Y-129131018D01*
X35865602Y-129153812D01*
X35876178Y-129158266D01*
X35884292Y-129166380D01*
X36560425Y-129446444D01*
X37234985Y-129730541D01*
X37246461Y-129730609D01*
X37257062Y-129735000D01*
X37988900Y-129735000D01*
X38720835Y-129739329D01*
X38731463Y-129735000D01*
X38742938Y-129735000D01*
X39419065Y-129454939D01*
X40096944Y-129178838D01*
X40115394Y-129166510D01*
X40115708Y-129166380D01*
X40115948Y-129166140D01*
X40134398Y-129153812D01*
X40151070Y-129131018D01*
X41131018Y-128151070D01*
X41153812Y-128134398D01*
X41158266Y-128123822D01*
X41166380Y-128115708D01*
X41446444Y-127439575D01*
X41730541Y-126765015D01*
X41730609Y-126753539D01*
X41735000Y-126742938D01*
X41735000Y-126720835D01*
X46260671Y-126720835D01*
X46265000Y-126731463D01*
X46265000Y-126742938D01*
X46545061Y-127419065D01*
X46821162Y-128096944D01*
X46833490Y-128115394D01*
X46833620Y-128115708D01*
X46833860Y-128115948D01*
X46846188Y-128134398D01*
X46868982Y-128151070D01*
X47848930Y-129131018D01*
X47865602Y-129153812D01*
X47876178Y-129158266D01*
X47884292Y-129166380D01*
X48560425Y-129446444D01*
X49234985Y-129730541D01*
X49246461Y-129730609D01*
X49257062Y-129735000D01*
X49988900Y-129735000D01*
X50720835Y-129739329D01*
X50731463Y-129735000D01*
X50742938Y-129735000D01*
X51419065Y-129454939D01*
X52096944Y-129178838D01*
X52115394Y-129166510D01*
X52115708Y-129166380D01*
X52115948Y-129166140D01*
X52134398Y-129153812D01*
X52151070Y-129131018D01*
X53131018Y-128151070D01*
X53153812Y-128134398D01*
X53158266Y-128123822D01*
X53166380Y-128115708D01*
X53446444Y-127439575D01*
X53730541Y-126765015D01*
X53730609Y-126753539D01*
X53735000Y-126742938D01*
X53735000Y-126011100D01*
X53739329Y-125279165D01*
X53735000Y-125268537D01*
X53735000Y-125257062D01*
X53454939Y-124580935D01*
X53178838Y-123903056D01*
X53166510Y-123884606D01*
X53166380Y-123884292D01*
X53166140Y-123884052D01*
X53153812Y-123865602D01*
X53131018Y-123848930D01*
X52151070Y-122868982D01*
X52134398Y-122846188D01*
X52123822Y-122841734D01*
X52115708Y-122833620D01*
X51439575Y-122553556D01*
X50765015Y-122269459D01*
X50753539Y-122269391D01*
X50742938Y-122265000D01*
X50011100Y-122265000D01*
X49279165Y-122260671D01*
X49268537Y-122265000D01*
X49257062Y-122265000D01*
X48580935Y-122545061D01*
X47903056Y-122821162D01*
X47884606Y-122833490D01*
X47884292Y-122833620D01*
X47884052Y-122833860D01*
X47865602Y-122846188D01*
X47848930Y-122868982D01*
X46868982Y-123848930D01*
X46846188Y-123865602D01*
X46841734Y-123876178D01*
X46833620Y-123884292D01*
X46553556Y-124560425D01*
X46269459Y-125234985D01*
X46269391Y-125246461D01*
X46265000Y-125257062D01*
X46265000Y-125988900D01*
X46260671Y-126720835D01*
X41735000Y-126720835D01*
X41735000Y-126011100D01*
X41739329Y-125279165D01*
X41735000Y-125268537D01*
X41735000Y-125257062D01*
X41454939Y-124580935D01*
X41178838Y-123903056D01*
X41166510Y-123884606D01*
X41166380Y-123884292D01*
X41166140Y-123884052D01*
X41153812Y-123865602D01*
X41131018Y-123848930D01*
X40151070Y-122868982D01*
X40134398Y-122846188D01*
X40123822Y-122841734D01*
X40115708Y-122833620D01*
X39439575Y-122553556D01*
X38765015Y-122269459D01*
X38753539Y-122269391D01*
X38742938Y-122265000D01*
X38011100Y-122265000D01*
X37279165Y-122260671D01*
X37268537Y-122265000D01*
X37257062Y-122265000D01*
X36580935Y-122545061D01*
X35903056Y-122821162D01*
X35884606Y-122833490D01*
X35884292Y-122833620D01*
X35884052Y-122833860D01*
X35865602Y-122846188D01*
X35848930Y-122868982D01*
X34868982Y-123848930D01*
X34846188Y-123865602D01*
X34841734Y-123876178D01*
X34833620Y-123884292D01*
X34553556Y-124560425D01*
X34269459Y-125234985D01*
X34269391Y-125246461D01*
X34265000Y-125257062D01*
X34265000Y-125988900D01*
X34260671Y-126720835D01*
X29735000Y-126720835D01*
X29735000Y-126011100D01*
X29739329Y-125279165D01*
X29735000Y-125268537D01*
X29735000Y-125257062D01*
X29454939Y-124580935D01*
X29178838Y-123903056D01*
X29166510Y-123884606D01*
X29166380Y-123884292D01*
X29166140Y-123884052D01*
X29153812Y-123865602D01*
X29131018Y-123848930D01*
X28151070Y-122868982D01*
X28134398Y-122846188D01*
X28123822Y-122841734D01*
X28115708Y-122833620D01*
X27439575Y-122553556D01*
X26765015Y-122269459D01*
X26753539Y-122269391D01*
X26742938Y-122265000D01*
X26011100Y-122265000D01*
X25279165Y-122260671D01*
X25268537Y-122265000D01*
X25257062Y-122265000D01*
X24580935Y-122545061D01*
X23903056Y-122821162D01*
X23884606Y-122833490D01*
X23884292Y-122833620D01*
X23884052Y-122833860D01*
X23865602Y-122846188D01*
X23848930Y-122868982D01*
X22868982Y-123848930D01*
X22846188Y-123865602D01*
X22841734Y-123876178D01*
X22833620Y-123884292D01*
X22553556Y-124560425D01*
X22269459Y-125234985D01*
X22269391Y-125246461D01*
X22265000Y-125257062D01*
X22265000Y-125988900D01*
X22260671Y-126720835D01*
X18710000Y-126720835D01*
X18710000Y-113720835D01*
X22260671Y-113720835D01*
X22265000Y-113731463D01*
X22265000Y-113742938D01*
X22545061Y-114419065D01*
X22821162Y-115096944D01*
X22833490Y-115115394D01*
X22833620Y-115115708D01*
X22833860Y-115115948D01*
X22846188Y-115134398D01*
X22868982Y-115151070D01*
X23848930Y-116131018D01*
X23865602Y-116153812D01*
X23876178Y-116158266D01*
X23884292Y-116166380D01*
X24560425Y-116446444D01*
X25234985Y-116730541D01*
X25246461Y-116730609D01*
X25257062Y-116735000D01*
X25988900Y-116735000D01*
X26720835Y-116739329D01*
X26731463Y-116735000D01*
X26742938Y-116735000D01*
X27419065Y-116454939D01*
X28096944Y-116178838D01*
X28115394Y-116166510D01*
X28115708Y-116166380D01*
X28115948Y-116166140D01*
X28134398Y-116153812D01*
X28151070Y-116131018D01*
X29131018Y-115151070D01*
X29153812Y-115134398D01*
X29158266Y-115123822D01*
X29166380Y-115115708D01*
X29446444Y-114439575D01*
X29730541Y-113765015D01*
X29730609Y-113753539D01*
X29735000Y-113742938D01*
X29735000Y-113720835D01*
X34260671Y-113720835D01*
X34265000Y-113731463D01*
X34265000Y-113742938D01*
X34545061Y-114419065D01*
X34821162Y-115096944D01*
X34833490Y-115115394D01*
X34833620Y-115115708D01*
X34833860Y-115115948D01*
X34846188Y-115134398D01*
X34868982Y-115151070D01*
X35848930Y-116131018D01*
X35865602Y-116153812D01*
X35876178Y-116158266D01*
X35884292Y-116166380D01*
X36560425Y-116446444D01*
X37234985Y-116730541D01*
X37246461Y-116730609D01*
X37257062Y-116735000D01*
X37988900Y-116735000D01*
X38720835Y-116739329D01*
X38731463Y-116735000D01*
X38742938Y-116735000D01*
X39419065Y-116454939D01*
X40096944Y-116178838D01*
X40115394Y-116166510D01*
X40115708Y-116166380D01*
X40115948Y-116166140D01*
X40134398Y-116153812D01*
X40151070Y-116131018D01*
X41131018Y-115151070D01*
X41153812Y-115134398D01*
X41158266Y-115123822D01*
X41166380Y-115115708D01*
X41446444Y-114439575D01*
X41730541Y-113765015D01*
X41730609Y-113753539D01*
X41735000Y-113742938D01*
X41735000Y-113720835D01*
X46260671Y-113720835D01*
X46265000Y-113731463D01*
X46265000Y-113742938D01*
X46545061Y-114419065D01*
X46821162Y-115096944D01*
X46833490Y-115115394D01*
X46833620Y-115115708D01*
X46833860Y-115115948D01*
X46846188Y-115134398D01*
X46868982Y-115151070D01*
X47848930Y-116131018D01*
X47865602Y-116153812D01*
X47876178Y-116158266D01*
X47884292Y-116166380D01*
X48560425Y-116446444D01*
X49234985Y-116730541D01*
X49246461Y-116730609D01*
X49257062Y-116735000D01*
X49988900Y-116735000D01*
X50720835Y-116739329D01*
X50731463Y-116735000D01*
X50742938Y-116735000D01*
X51419065Y-116454939D01*
X52096944Y-116178838D01*
X52115394Y-116166510D01*
X52115708Y-116166380D01*
X52115948Y-116166140D01*
X52134398Y-116153812D01*
X52151070Y-116131018D01*
X53131018Y-115151070D01*
X53153812Y-115134398D01*
X53158266Y-115123822D01*
X53166380Y-115115708D01*
X53446444Y-114439575D01*
X53730541Y-113765015D01*
X53730609Y-113753539D01*
X53735000Y-113742938D01*
X53735000Y-113011100D01*
X53739329Y-112279165D01*
X53735000Y-112268537D01*
X53735000Y-112257062D01*
X53454939Y-111580935D01*
X53178838Y-110903056D01*
X53166510Y-110884606D01*
X53166380Y-110884292D01*
X53166140Y-110884052D01*
X53153812Y-110865602D01*
X53131018Y-110848930D01*
X52151070Y-109868982D01*
X52134398Y-109846188D01*
X52123822Y-109841734D01*
X52115708Y-109833620D01*
X51439575Y-109553556D01*
X50765015Y-109269459D01*
X50753539Y-109269391D01*
X50742938Y-109265000D01*
X50011100Y-109265000D01*
X49279165Y-109260671D01*
X49268537Y-109265000D01*
X49257062Y-109265000D01*
X48580935Y-109545061D01*
X47903056Y-109821162D01*
X47884606Y-109833490D01*
X47884292Y-109833620D01*
X47884052Y-109833860D01*
X47865602Y-109846188D01*
X47848930Y-109868982D01*
X46868982Y-110848930D01*
X46846188Y-110865602D01*
X46841734Y-110876178D01*
X46833620Y-110884292D01*
X46553556Y-111560425D01*
X46269459Y-112234985D01*
X46269391Y-112246461D01*
X46265000Y-112257062D01*
X46265000Y-112988900D01*
X46260671Y-113720835D01*
X41735000Y-113720835D01*
X41735000Y-113011100D01*
X41739329Y-112279165D01*
X41735000Y-112268537D01*
X41735000Y-112257062D01*
X41454939Y-111580935D01*
X41178838Y-110903056D01*
X41166510Y-110884606D01*
X41166380Y-110884292D01*
X41166140Y-110884052D01*
X41153812Y-110865602D01*
X41131018Y-110848930D01*
X40151070Y-109868982D01*
X40134398Y-109846188D01*
X40123822Y-109841734D01*
X40115708Y-109833620D01*
X39439575Y-109553556D01*
X38765015Y-109269459D01*
X38753539Y-109269391D01*
X38742938Y-109265000D01*
X38011100Y-109265000D01*
X37279165Y-109260671D01*
X37268537Y-109265000D01*
X37257062Y-109265000D01*
X36580935Y-109545061D01*
X35903056Y-109821162D01*
X35884606Y-109833490D01*
X35884292Y-109833620D01*
X35884052Y-109833860D01*
X35865602Y-109846188D01*
X35848930Y-109868982D01*
X34868982Y-110848930D01*
X34846188Y-110865602D01*
X34841734Y-110876178D01*
X34833620Y-110884292D01*
X34553556Y-111560425D01*
X34269459Y-112234985D01*
X34269391Y-112246461D01*
X34265000Y-112257062D01*
X34265000Y-112988900D01*
X34260671Y-113720835D01*
X29735000Y-113720835D01*
X29735000Y-113011100D01*
X29739329Y-112279165D01*
X29735000Y-112268537D01*
X29735000Y-112257062D01*
X29454939Y-111580935D01*
X29178838Y-110903056D01*
X29166510Y-110884606D01*
X29166380Y-110884292D01*
X29166140Y-110884052D01*
X29153812Y-110865602D01*
X29131018Y-110848930D01*
X28151070Y-109868982D01*
X28134398Y-109846188D01*
X28123822Y-109841734D01*
X28115708Y-109833620D01*
X27439575Y-109553556D01*
X26765015Y-109269459D01*
X26753539Y-109269391D01*
X26742938Y-109265000D01*
X26011100Y-109265000D01*
X25279165Y-109260671D01*
X25268537Y-109265000D01*
X25257062Y-109265000D01*
X24580935Y-109545061D01*
X23903056Y-109821162D01*
X23884606Y-109833490D01*
X23884292Y-109833620D01*
X23884052Y-109833860D01*
X23865602Y-109846188D01*
X23848930Y-109868982D01*
X22868982Y-110848930D01*
X22846188Y-110865602D01*
X22841734Y-110876178D01*
X22833620Y-110884292D01*
X22553556Y-111560425D01*
X22269459Y-112234985D01*
X22269391Y-112246461D01*
X22265000Y-112257062D01*
X22265000Y-112988900D01*
X22260671Y-113720835D01*
X18710000Y-113720835D01*
X18710000Y-104080426D01*
X23708327Y-104080426D01*
X23715000Y-104517435D01*
X23715000Y-104954515D01*
X23721930Y-104971244D01*
X23722206Y-104989350D01*
X24043334Y-105764621D01*
X24052601Y-105769557D01*
X24062870Y-105794349D01*
X24705651Y-106437130D01*
X24730443Y-106447399D01*
X24735379Y-106456666D01*
X25141653Y-106617728D01*
X25545485Y-106785000D01*
X25563594Y-106785000D01*
X25580426Y-106791673D01*
X26017435Y-106785000D01*
X26454515Y-106785000D01*
X26471244Y-106778070D01*
X26489350Y-106777794D01*
X27264621Y-106456666D01*
X27269557Y-106447399D01*
X27294349Y-106437130D01*
X27937130Y-105794349D01*
X27947399Y-105769557D01*
X27956666Y-105764621D01*
X28117728Y-105358347D01*
X28285000Y-104954515D01*
X28285000Y-104936406D01*
X28291673Y-104919574D01*
X28285000Y-104482565D01*
X28285000Y-104080426D01*
X35708327Y-104080426D01*
X35715000Y-104517435D01*
X35715000Y-104954515D01*
X35721930Y-104971244D01*
X35722206Y-104989350D01*
X36043334Y-105764621D01*
X36052601Y-105769557D01*
X36062870Y-105794349D01*
X36705651Y-106437130D01*
X36730443Y-106447399D01*
X36735379Y-106456666D01*
X37141653Y-106617728D01*
X37545485Y-106785000D01*
X37563594Y-106785000D01*
X37580426Y-106791673D01*
X38017435Y-106785000D01*
X38454515Y-106785000D01*
X38471244Y-106778070D01*
X38489350Y-106777794D01*
X39264621Y-106456666D01*
X39269557Y-106447399D01*
X39294349Y-106437130D01*
X39937130Y-105794349D01*
X39947399Y-105769557D01*
X39956666Y-105764621D01*
X40117728Y-105358347D01*
X40285000Y-104954515D01*
X40285000Y-104936406D01*
X40291673Y-104919574D01*
X40285000Y-104482565D01*
X40285000Y-104080426D01*
X47708327Y-104080426D01*
X47715000Y-104517435D01*
X47715000Y-104954515D01*
X47721930Y-104971244D01*
X47722206Y-104989350D01*
X48043334Y-105764621D01*
X48052601Y-105769557D01*
X48062870Y-105794349D01*
X48705651Y-106437130D01*
X48730443Y-106447399D01*
X48735379Y-106456666D01*
X49141653Y-106617728D01*
X49545485Y-106785000D01*
X49563594Y-106785000D01*
X49580426Y-106791673D01*
X50017435Y-106785000D01*
X50454515Y-106785000D01*
X50471244Y-106778070D01*
X50489350Y-106777794D01*
X51264621Y-106456666D01*
X51269557Y-106447399D01*
X51294349Y-106437130D01*
X51937130Y-105794349D01*
X51947399Y-105769557D01*
X51956666Y-105764621D01*
X52117728Y-105358347D01*
X52285000Y-104954515D01*
X52285000Y-104936406D01*
X52291673Y-104919574D01*
X52285000Y-104482565D01*
X52285000Y-104045485D01*
X52278070Y-104028756D01*
X52277794Y-104010650D01*
X51956666Y-103235379D01*
X51947399Y-103230443D01*
X51937130Y-103205651D01*
X51294349Y-102562870D01*
X51269557Y-102552601D01*
X51264621Y-102543334D01*
X50858347Y-102382272D01*
X50454515Y-102215000D01*
X50436406Y-102215000D01*
X50419574Y-102208327D01*
X49982565Y-102215000D01*
X49545485Y-102215000D01*
X49528756Y-102221930D01*
X49510650Y-102222206D01*
X48735379Y-102543334D01*
X48730443Y-102552601D01*
X48705651Y-102562870D01*
X48062870Y-103205651D01*
X48052601Y-103230443D01*
X48043334Y-103235379D01*
X47882272Y-103641653D01*
X47715000Y-104045485D01*
X47715000Y-104063594D01*
X47708327Y-104080426D01*
X40285000Y-104080426D01*
X40285000Y-104045485D01*
X40278070Y-104028756D01*
X40277794Y-104010650D01*
X39956666Y-103235379D01*
X39947399Y-103230443D01*
X39937130Y-103205651D01*
X39294349Y-102562870D01*
X39269557Y-102552601D01*
X39264621Y-102543334D01*
X38858347Y-102382272D01*
X38454515Y-102215000D01*
X38436406Y-102215000D01*
X38419574Y-102208327D01*
X37982565Y-102215000D01*
X37545485Y-102215000D01*
X37528756Y-102221930D01*
X37510650Y-102222206D01*
X36735379Y-102543334D01*
X36730443Y-102552601D01*
X36705651Y-102562870D01*
X36062870Y-103205651D01*
X36052601Y-103230443D01*
X36043334Y-103235379D01*
X35882272Y-103641653D01*
X35715000Y-104045485D01*
X35715000Y-104063594D01*
X35708327Y-104080426D01*
X28285000Y-104080426D01*
X28285000Y-104045485D01*
X28278070Y-104028756D01*
X28277794Y-104010650D01*
X27956666Y-103235379D01*
X27947399Y-103230443D01*
X27937130Y-103205651D01*
X27294349Y-102562870D01*
X27269557Y-102552601D01*
X27264621Y-102543334D01*
X26858347Y-102382272D01*
X26454515Y-102215000D01*
X26436406Y-102215000D01*
X26419574Y-102208327D01*
X25982565Y-102215000D01*
X25545485Y-102215000D01*
X25528756Y-102221930D01*
X25510650Y-102222206D01*
X24735379Y-102543334D01*
X24730443Y-102552601D01*
X24705651Y-102562870D01*
X24062870Y-103205651D01*
X24052601Y-103230443D01*
X24043334Y-103235379D01*
X23882272Y-103641653D01*
X23715000Y-104045485D01*
X23715000Y-104063594D01*
X23708327Y-104080426D01*
X18710000Y-104080426D01*
X18710000Y-94500000D01*
X27664449Y-94500000D01*
X27759191Y-95401412D01*
X28039277Y-96263427D01*
X28492466Y-97048373D01*
X29098950Y-97721942D01*
X29556406Y-98054303D01*
X29565805Y-98066447D01*
X29583478Y-98073972D01*
X29588230Y-98077425D01*
X29601065Y-98090260D01*
X29612303Y-98094915D01*
X29832224Y-98254697D01*
X30660241Y-98623354D01*
X31086457Y-98713949D01*
X31115917Y-98726493D01*
X31137584Y-98726707D01*
X31157606Y-98735000D01*
X31185495Y-98735000D01*
X31546812Y-98811800D01*
X32453188Y-98811800D01*
X32777493Y-98742867D01*
X32800623Y-98743095D01*
X32820724Y-98735000D01*
X32842394Y-98735000D01*
X32871791Y-98722823D01*
X33339759Y-98623354D01*
X34167776Y-98254697D01*
X34359782Y-98115197D01*
X34363441Y-98113723D01*
X34397938Y-98090673D01*
X34398935Y-98090260D01*
X34399698Y-98089497D01*
X34434195Y-98066447D01*
X34443594Y-98054303D01*
X34901050Y-97721942D01*
X35507534Y-97048373D01*
X35960723Y-96263427D01*
X36240809Y-95401412D01*
X36335551Y-94500000D01*
X43629945Y-94500000D01*
X43725441Y-95408586D01*
X44007756Y-96277462D01*
X44464551Y-97068654D01*
X45075862Y-97747584D01*
X45814972Y-98284579D01*
X46649579Y-98656169D01*
X47543205Y-98846115D01*
X48456795Y-98846115D01*
X49350421Y-98656169D01*
X50185028Y-98284579D01*
X50924138Y-97747584D01*
X51535449Y-97068654D01*
X51992244Y-96277462D01*
X52274559Y-95408586D01*
X52370055Y-94500000D01*
X52274559Y-93591414D01*
X51992244Y-92722538D01*
X51535449Y-91931346D01*
X50924138Y-91252416D01*
X50185028Y-90715421D01*
X49350421Y-90343831D01*
X48456795Y-90153885D01*
X47543205Y-90153885D01*
X46649579Y-90343831D01*
X45814973Y-90715421D01*
X45075862Y-91252416D01*
X44464551Y-91931346D01*
X44007756Y-92722538D01*
X43725441Y-93591414D01*
X43629945Y-94500000D01*
X36335551Y-94500000D01*
X36240809Y-93598588D01*
X35960723Y-92736573D01*
X35507534Y-91951627D01*
X34901050Y-91278058D01*
X34443594Y-90945697D01*
X34434195Y-90933553D01*
X34416522Y-90926028D01*
X34411770Y-90922575D01*
X34398935Y-90909740D01*
X34387697Y-90905085D01*
X34167776Y-90745303D01*
X33339759Y-90376646D01*
X32913543Y-90286051D01*
X32884083Y-90273507D01*
X32862416Y-90273293D01*
X32842394Y-90265000D01*
X32814505Y-90265000D01*
X32453188Y-90188200D01*
X31546812Y-90188200D01*
X31222507Y-90257133D01*
X31199377Y-90256905D01*
X31179276Y-90265000D01*
X31157606Y-90265000D01*
X31128209Y-90277177D01*
X30660241Y-90376646D01*
X29832225Y-90745303D01*
X29640220Y-90884803D01*
X29636559Y-90886277D01*
X29602062Y-90909327D01*
X29601065Y-90909740D01*
X29600302Y-90910503D01*
X29565805Y-90933553D01*
X29556405Y-90945698D01*
X29098950Y-91278058D01*
X28492466Y-91951627D01*
X28039277Y-92736573D01*
X27759191Y-93598588D01*
X27664449Y-94500000D01*
X18710000Y-94500000D01*
X18710000Y-80080426D01*
X19708327Y-80080426D01*
X19715000Y-80517435D01*
X19715000Y-80954515D01*
X19721930Y-80971244D01*
X19722206Y-80989350D01*
X20043334Y-81764621D01*
X20052601Y-81769557D01*
X20062870Y-81794349D01*
X20705651Y-82437130D01*
X20730443Y-82447399D01*
X20735379Y-82456666D01*
X21141653Y-82617728D01*
X21452268Y-82746388D01*
X20735379Y-83043334D01*
X20730443Y-83052601D01*
X20705651Y-83062870D01*
X20062870Y-83705651D01*
X20052601Y-83730443D01*
X20043334Y-83735379D01*
X19882272Y-84141653D01*
X19715000Y-84545485D01*
X19715000Y-84563594D01*
X19708327Y-84580426D01*
X19715000Y-85017435D01*
X19715000Y-85454515D01*
X19721930Y-85471244D01*
X19722206Y-85489350D01*
X20043334Y-86264621D01*
X20052601Y-86269557D01*
X20062870Y-86294349D01*
X20705651Y-86937130D01*
X20730443Y-86947399D01*
X20735379Y-86956666D01*
X21141653Y-87117728D01*
X21545485Y-87285000D01*
X21563594Y-87285000D01*
X21580426Y-87291673D01*
X22017435Y-87285000D01*
X22454515Y-87285000D01*
X22471244Y-87278070D01*
X22489350Y-87277794D01*
X23264621Y-86956666D01*
X23269557Y-86947399D01*
X23294349Y-86937130D01*
X23937130Y-86294349D01*
X23947399Y-86269557D01*
X23956666Y-86264621D01*
X24117728Y-85858347D01*
X24285000Y-85454515D01*
X24285000Y-85436406D01*
X24291673Y-85419574D01*
X24285000Y-84982565D01*
X24285000Y-84545485D01*
X24278070Y-84528756D01*
X24277794Y-84510650D01*
X23956666Y-83735379D01*
X23947399Y-83730443D01*
X23937130Y-83705651D01*
X23294349Y-83062870D01*
X23269557Y-83052601D01*
X23264621Y-83043334D01*
X22858347Y-82882272D01*
X22547732Y-82753612D01*
X23264621Y-82456666D01*
X23269557Y-82447399D01*
X23294349Y-82437130D01*
X23937130Y-81794349D01*
X23947399Y-81769557D01*
X23956666Y-81764621D01*
X24117728Y-81358347D01*
X24285000Y-80954515D01*
X24285000Y-80936406D01*
X24291673Y-80919574D01*
X24285000Y-80482565D01*
X24285000Y-80080426D01*
X39208327Y-80080426D01*
X39215000Y-80517435D01*
X39215000Y-80954515D01*
X39221930Y-80971244D01*
X39222206Y-80989350D01*
X39543334Y-81764621D01*
X39552601Y-81769557D01*
X39562870Y-81794349D01*
X40205651Y-82437130D01*
X40230443Y-82447399D01*
X40235379Y-82456666D01*
X40641653Y-82617728D01*
X41045485Y-82785000D01*
X41063594Y-82785000D01*
X41080426Y-82791673D01*
X41517435Y-82785000D01*
X41954515Y-82785000D01*
X41971244Y-82778070D01*
X41989350Y-82777794D01*
X42764621Y-82456666D01*
X42769557Y-82447399D01*
X42794349Y-82437130D01*
X43437130Y-81794349D01*
X43447399Y-81769557D01*
X43456666Y-81764621D01*
X43617728Y-81358347D01*
X43785000Y-80954515D01*
X43785000Y-80936406D01*
X43791673Y-80919574D01*
X43785000Y-80482565D01*
X43785000Y-80045485D01*
X43778070Y-80028756D01*
X43777794Y-80010650D01*
X43456666Y-79235379D01*
X43447399Y-79230443D01*
X43437130Y-79205651D01*
X42794349Y-78562870D01*
X42769557Y-78552601D01*
X42764621Y-78543334D01*
X42358347Y-78382272D01*
X41954515Y-78215000D01*
X41936406Y-78215000D01*
X41919574Y-78208327D01*
X41482565Y-78215000D01*
X41045485Y-78215000D01*
X41028756Y-78221930D01*
X41010650Y-78222206D01*
X40235379Y-78543334D01*
X40230443Y-78552601D01*
X40205651Y-78562870D01*
X39562870Y-79205651D01*
X39552601Y-79230443D01*
X39543334Y-79235379D01*
X39382272Y-79641653D01*
X39215000Y-80045485D01*
X39215000Y-80063594D01*
X39208327Y-80080426D01*
X24285000Y-80080426D01*
X24285000Y-80045485D01*
X24278070Y-80028756D01*
X24277794Y-80010650D01*
X23956666Y-79235379D01*
X23947399Y-79230443D01*
X23937130Y-79205651D01*
X23294349Y-78562870D01*
X23269557Y-78552601D01*
X23264621Y-78543334D01*
X22858347Y-78382272D01*
X22454515Y-78215000D01*
X22436406Y-78215000D01*
X22419574Y-78208327D01*
X21982565Y-78215000D01*
X21545485Y-78215000D01*
X21528756Y-78221930D01*
X21510650Y-78222206D01*
X20735379Y-78543334D01*
X20730443Y-78552601D01*
X20705651Y-78562870D01*
X20062870Y-79205651D01*
X20052601Y-79230443D01*
X20043334Y-79235379D01*
X19882272Y-79641653D01*
X19715000Y-80045485D01*
X19715000Y-80063594D01*
X19708327Y-80080426D01*
X18710000Y-80080426D01*
X18710000Y-72500000D01*
X27629945Y-72500000D01*
X27725441Y-73408586D01*
X28007756Y-74277462D01*
X28464551Y-75068654D01*
X29075862Y-75747584D01*
X29814972Y-76284579D01*
X30649579Y-76656169D01*
X31543205Y-76846115D01*
X32456795Y-76846115D01*
X33350421Y-76656169D01*
X34185028Y-76284579D01*
X34924138Y-75747584D01*
X35535449Y-75068654D01*
X35992244Y-74277462D01*
X36274559Y-73408586D01*
X36370055Y-72500000D01*
X36274559Y-71591414D01*
X35992244Y-70722538D01*
X35535449Y-69931346D01*
X34924138Y-69252416D01*
X34185028Y-68715421D01*
X33350421Y-68343831D01*
X32456795Y-68153885D01*
X31543205Y-68153885D01*
X30649579Y-68343831D01*
X29814973Y-68715421D01*
X29075862Y-69252416D01*
X28464551Y-69931346D01*
X28007756Y-70722538D01*
X27725441Y-71591414D01*
X27629945Y-72500000D01*
X18710000Y-72500000D01*
X18710000Y-61080426D01*
X19708327Y-61080426D01*
X19715000Y-61517435D01*
X19715000Y-61954515D01*
X19721930Y-61971244D01*
X19722206Y-61989350D01*
X20043334Y-62764621D01*
X20052601Y-62769557D01*
X20062870Y-62794349D01*
X20705651Y-63437130D01*
X20730443Y-63447399D01*
X20735379Y-63456666D01*
X21141653Y-63617728D01*
X21545485Y-63785000D01*
X21563594Y-63785000D01*
X21580426Y-63791673D01*
X22017435Y-63785000D01*
X22454515Y-63785000D01*
X22471244Y-63778070D01*
X22489350Y-63777794D01*
X22626861Y-63720835D01*
X43260671Y-63720835D01*
X43265000Y-63731463D01*
X43265000Y-63742938D01*
X43545061Y-64419065D01*
X43821162Y-65096944D01*
X43833490Y-65115394D01*
X43833620Y-65115708D01*
X43833860Y-65115948D01*
X43846188Y-65134398D01*
X43868982Y-65151070D01*
X44848930Y-66131018D01*
X44865602Y-66153812D01*
X44876178Y-66158266D01*
X44884292Y-66166380D01*
X45560425Y-66446444D01*
X46234985Y-66730541D01*
X46246461Y-66730609D01*
X46257062Y-66735000D01*
X46988900Y-66735000D01*
X47720835Y-66739329D01*
X47731463Y-66735000D01*
X47742938Y-66735000D01*
X48419065Y-66454939D01*
X49096944Y-66178838D01*
X49115394Y-66166510D01*
X49115708Y-66166380D01*
X49115948Y-66166140D01*
X49134398Y-66153812D01*
X49151070Y-66131018D01*
X50131018Y-65151070D01*
X50153812Y-65134398D01*
X50158266Y-65123822D01*
X50166380Y-65115708D01*
X50446444Y-64439575D01*
X50730541Y-63765015D01*
X50730609Y-63753539D01*
X50735000Y-63742938D01*
X50735000Y-63011100D01*
X50739329Y-62279165D01*
X50735000Y-62268537D01*
X50735000Y-62257062D01*
X50454939Y-61580935D01*
X50178838Y-60903056D01*
X50166510Y-60884606D01*
X50166380Y-60884292D01*
X50166140Y-60884052D01*
X50153812Y-60865602D01*
X50131018Y-60848930D01*
X49151070Y-59868982D01*
X49134398Y-59846188D01*
X49123822Y-59841734D01*
X49115708Y-59833620D01*
X48439575Y-59553556D01*
X47765015Y-59269459D01*
X47753539Y-59269391D01*
X47742938Y-59265000D01*
X47011100Y-59265000D01*
X46279165Y-59260671D01*
X46268537Y-59265000D01*
X46257062Y-59265000D01*
X45580935Y-59545061D01*
X44903056Y-59821162D01*
X44884606Y-59833490D01*
X44884292Y-59833620D01*
X44884052Y-59833860D01*
X44865602Y-59846188D01*
X44848930Y-59868982D01*
X43868982Y-60848930D01*
X43846188Y-60865602D01*
X43841734Y-60876178D01*
X43833620Y-60884292D01*
X43553556Y-61560425D01*
X43269459Y-62234985D01*
X43269391Y-62246461D01*
X43265000Y-62257062D01*
X43265000Y-62988900D01*
X43260671Y-63720835D01*
X22626861Y-63720835D01*
X23264621Y-63456666D01*
X23269557Y-63447399D01*
X23294349Y-63437130D01*
X23937130Y-62794349D01*
X23947399Y-62769557D01*
X23956666Y-62764621D01*
X24117728Y-62358347D01*
X24285000Y-61954515D01*
X24285000Y-61936406D01*
X24291673Y-61919574D01*
X24285000Y-61482565D01*
X24285000Y-61045485D01*
X24278070Y-61028756D01*
X24277794Y-61010650D01*
X23956666Y-60235379D01*
X23947399Y-60230443D01*
X23937130Y-60205651D01*
X23294349Y-59562870D01*
X23269557Y-59552601D01*
X23264621Y-59543334D01*
X22858347Y-59382272D01*
X22454515Y-59215000D01*
X22436406Y-59215000D01*
X22419574Y-59208327D01*
X21982565Y-59215000D01*
X21545485Y-59215000D01*
X21528756Y-59221930D01*
X21510650Y-59222206D01*
X20735379Y-59543334D01*
X20730443Y-59552601D01*
X20705651Y-59562870D01*
X20062870Y-60205651D01*
X20052601Y-60230443D01*
X20043334Y-60235379D01*
X19882272Y-60641653D01*
X19715000Y-61045485D01*
X19715000Y-61063594D01*
X19708327Y-61080426D01*
X18710000Y-61080426D01*
X18710000Y-53500000D01*
X27629945Y-53500000D01*
X27725441Y-54408586D01*
X28007756Y-55277462D01*
X28464551Y-56068654D01*
X29075862Y-56747584D01*
X29814972Y-57284579D01*
X30649579Y-57656169D01*
X31543205Y-57846115D01*
X32456795Y-57846115D01*
X33350421Y-57656169D01*
X34185028Y-57284579D01*
X34924138Y-56747584D01*
X35535449Y-56068654D01*
X35992244Y-55277462D01*
X36274559Y-54408586D01*
X36370055Y-53500000D01*
X36274559Y-52591414D01*
X35992244Y-51722538D01*
X35535449Y-50931346D01*
X34924138Y-50252416D01*
X34185028Y-49715421D01*
X33350421Y-49343831D01*
X32456795Y-49153885D01*
X31543205Y-49153885D01*
X30649579Y-49343831D01*
X29814973Y-49715421D01*
X29075862Y-50252416D01*
X28464551Y-50931346D01*
X28007756Y-51722538D01*
X27725441Y-52591414D01*
X27629945Y-53500000D01*
X18710000Y-53500000D01*
X18710000Y-42080426D01*
X19708327Y-42080426D01*
X19715000Y-42517435D01*
X19715000Y-42954515D01*
X19721930Y-42971244D01*
X19722206Y-42989350D01*
X20043334Y-43764621D01*
X20052601Y-43769557D01*
X20062870Y-43794349D01*
X20705651Y-44437130D01*
X20730443Y-44447399D01*
X20735379Y-44456666D01*
X21141653Y-44617728D01*
X21545485Y-44785000D01*
X21563594Y-44785000D01*
X21580426Y-44791673D01*
X22017435Y-44785000D01*
X22454515Y-44785000D01*
X22471244Y-44778070D01*
X22489350Y-44777794D01*
X22626861Y-44720835D01*
X43260671Y-44720835D01*
X43265000Y-44731463D01*
X43265000Y-44742938D01*
X43545061Y-45419065D01*
X43821162Y-46096944D01*
X43833490Y-46115394D01*
X43833620Y-46115708D01*
X43833860Y-46115948D01*
X43846188Y-46134398D01*
X43868982Y-46151070D01*
X44848930Y-47131018D01*
X44865602Y-47153812D01*
X44876178Y-47158266D01*
X44884292Y-47166380D01*
X45560425Y-47446444D01*
X46234985Y-47730541D01*
X46246461Y-47730609D01*
X46257062Y-47735000D01*
X46988900Y-47735000D01*
X47720835Y-47739329D01*
X47731463Y-47735000D01*
X47742938Y-47735000D01*
X48419065Y-47454939D01*
X49096944Y-47178838D01*
X49115394Y-47166510D01*
X49115708Y-47166380D01*
X49115948Y-47166140D01*
X49134398Y-47153812D01*
X49151070Y-47131018D01*
X50131018Y-46151070D01*
X50153812Y-46134398D01*
X50158266Y-46123822D01*
X50166380Y-46115708D01*
X50446444Y-45439575D01*
X50730541Y-44765015D01*
X50730609Y-44753539D01*
X50735000Y-44742938D01*
X50735000Y-44011100D01*
X50739329Y-43279165D01*
X50735000Y-43268537D01*
X50735000Y-43257062D01*
X50454939Y-42580935D01*
X50178838Y-41903056D01*
X50166510Y-41884606D01*
X50166380Y-41884292D01*
X50166140Y-41884052D01*
X50153812Y-41865602D01*
X50131018Y-41848930D01*
X49151070Y-40868982D01*
X49134398Y-40846188D01*
X49123822Y-40841734D01*
X49115708Y-40833620D01*
X48439575Y-40553556D01*
X47765015Y-40269459D01*
X47753539Y-40269391D01*
X47742938Y-40265000D01*
X47011100Y-40265000D01*
X46279165Y-40260671D01*
X46268537Y-40265000D01*
X46257062Y-40265000D01*
X45580935Y-40545061D01*
X44903056Y-40821162D01*
X44884606Y-40833490D01*
X44884292Y-40833620D01*
X44884052Y-40833860D01*
X44865602Y-40846188D01*
X44848930Y-40868982D01*
X43868982Y-41848930D01*
X43846188Y-41865602D01*
X43841734Y-41876178D01*
X43833620Y-41884292D01*
X43553556Y-42560425D01*
X43269459Y-43234985D01*
X43269391Y-43246461D01*
X43265000Y-43257062D01*
X43265000Y-43988900D01*
X43260671Y-44720835D01*
X22626861Y-44720835D01*
X23264621Y-44456666D01*
X23269557Y-44447399D01*
X23294349Y-44437130D01*
X23937130Y-43794349D01*
X23947399Y-43769557D01*
X23956666Y-43764621D01*
X24117728Y-43358347D01*
X24285000Y-42954515D01*
X24285000Y-42936406D01*
X24291673Y-42919574D01*
X24285000Y-42482565D01*
X24285000Y-42045485D01*
X24278070Y-42028756D01*
X24277794Y-42010650D01*
X23956666Y-41235379D01*
X23947399Y-41230443D01*
X23937130Y-41205651D01*
X23294349Y-40562870D01*
X23269557Y-40552601D01*
X23264621Y-40543334D01*
X22858347Y-40382272D01*
X22454515Y-40215000D01*
X22436406Y-40215000D01*
X22419574Y-40208327D01*
X21982565Y-40215000D01*
X21545485Y-40215000D01*
X21528756Y-40221930D01*
X21510650Y-40222206D01*
X20735379Y-40543334D01*
X20730443Y-40552601D01*
X20705651Y-40562870D01*
X20062870Y-41205651D01*
X20052601Y-41230443D01*
X20043334Y-41235379D01*
X19882272Y-41641653D01*
X19715000Y-42045485D01*
X19715000Y-42063594D01*
X19708327Y-42080426D01*
X18710000Y-42080426D01*
X18710000Y-34500000D01*
X27664449Y-34500000D01*
X27759191Y-35401412D01*
X28039277Y-36263427D01*
X28492466Y-37048373D01*
X29098950Y-37721942D01*
X29556406Y-38054303D01*
X29565805Y-38066447D01*
X29583478Y-38073972D01*
X29588230Y-38077425D01*
X29601065Y-38090260D01*
X29612303Y-38094915D01*
X29832224Y-38254697D01*
X30660241Y-38623354D01*
X31086457Y-38713949D01*
X31115917Y-38726493D01*
X31137584Y-38726707D01*
X31157606Y-38735000D01*
X31185495Y-38735000D01*
X31546812Y-38811800D01*
X32453188Y-38811800D01*
X32777493Y-38742867D01*
X32800623Y-38743095D01*
X32820724Y-38735000D01*
X32842394Y-38735000D01*
X32871791Y-38722823D01*
X33339759Y-38623354D01*
X34167776Y-38254697D01*
X34359782Y-38115197D01*
X34363441Y-38113723D01*
X34397938Y-38090673D01*
X34398935Y-38090260D01*
X34399698Y-38089497D01*
X34434195Y-38066447D01*
X34443594Y-38054303D01*
X34901050Y-37721942D01*
X35507534Y-37048373D01*
X35960723Y-36263427D01*
X36240809Y-35401412D01*
X36335551Y-34500000D01*
X36240809Y-33598588D01*
X35960723Y-32736573D01*
X35507534Y-31951627D01*
X34901050Y-31278058D01*
X34443594Y-30945697D01*
X34434195Y-30933553D01*
X34416522Y-30926028D01*
X34411770Y-30922575D01*
X34398935Y-30909740D01*
X34387697Y-30905085D01*
X34167776Y-30745303D01*
X33339759Y-30376646D01*
X32913543Y-30286051D01*
X32884083Y-30273507D01*
X32862416Y-30273293D01*
X32842394Y-30265000D01*
X32814505Y-30265000D01*
X32453188Y-30188200D01*
X31546812Y-30188200D01*
X31222507Y-30257133D01*
X31199377Y-30256905D01*
X31179276Y-30265000D01*
X31157606Y-30265000D01*
X31128209Y-30277177D01*
X30660241Y-30376646D01*
X29832225Y-30745303D01*
X29640220Y-30884803D01*
X29636559Y-30886277D01*
X29602062Y-30909327D01*
X29601065Y-30909740D01*
X29600302Y-30910503D01*
X29565805Y-30933553D01*
X29556405Y-30945698D01*
X29098950Y-31278058D01*
X28492466Y-31951627D01*
X28039277Y-32736573D01*
X27759191Y-33598588D01*
X27664449Y-34500000D01*
X18710000Y-34500000D01*
X18710000Y-16710000D01*
X25810011Y-16710000D01*
X25482565Y-16715000D01*
X25482565Y-16715000D01*
G37*
X25482565Y-16715000D02*
X25045485Y-16715000D01*
X25028756Y-16721930D01*
X25010650Y-16722206D01*
X24235379Y-17043334D01*
X24230443Y-17052601D01*
X24205651Y-17062870D01*
X23562870Y-17705651D01*
X23552601Y-17730443D01*
X23543334Y-17735379D01*
X23382272Y-18141653D01*
X23215000Y-18545485D01*
X23215000Y-18563594D01*
X23208327Y-18580426D01*
X23215000Y-19017435D01*
X23215000Y-19454515D01*
X23221930Y-19471244D01*
X23222206Y-19489350D01*
X23543334Y-20264621D01*
X23552601Y-20269557D01*
X23562870Y-20294349D01*
X24205651Y-20937130D01*
X24230443Y-20947399D01*
X24235379Y-20956666D01*
X24641653Y-21117728D01*
X25045485Y-21285000D01*
X25063594Y-21285000D01*
X25080426Y-21291673D01*
X25517435Y-21285000D01*
X25954515Y-21285000D01*
X25971244Y-21278070D01*
X25989350Y-21277794D01*
X26764621Y-20956666D01*
X26769557Y-20947399D01*
X26794349Y-20937130D01*
X27437130Y-20294349D01*
X27447399Y-20269557D01*
X27456666Y-20264621D01*
X27617728Y-19858347D01*
X27785000Y-19454515D01*
X27785000Y-19436406D01*
X27791673Y-19419574D01*
X27785000Y-18982565D01*
X27785000Y-18545485D01*
X27778070Y-18528756D01*
X27777794Y-18510650D01*
X27456666Y-17735379D01*
X27447399Y-17730443D01*
X27437130Y-17705651D01*
X26794349Y-17062870D01*
X26769557Y-17052601D01*
X26764621Y-17043334D01*
X26358347Y-16882272D01*
X25954515Y-16715000D01*
X25936406Y-16715000D01*
X25923794Y-16710000D01*
X57790000Y-16710000D01*
X57790001Y-143790000D01*
X25189989Y-143790000D01*
X25517435Y-143785000D01*
X25954515Y-143785000D01*
X25971244Y-143778070D01*
X25989350Y-143777794D01*
X26764621Y-143456666D01*
X26769557Y-143447399D01*
X26794349Y-143437130D01*
X27437130Y-142794349D01*
X27447399Y-142769557D01*
X27456666Y-142764621D01*
X27617728Y-142358347D01*
X27785000Y-141954515D01*
X27785000Y-141936406D01*
X27791673Y-141919574D01*
X27785000Y-141482565D01*
X27785000Y-141045485D01*
X27778070Y-141028756D01*
X27777794Y-141010650D01*
X27456666Y-140235379D01*
X27447399Y-140230443D01*
X27437130Y-140205651D01*
X26794349Y-139562870D01*
X26769557Y-139552601D01*
X26764621Y-139543334D01*
X26358347Y-139382272D01*
X25954515Y-139215000D01*
X25936406Y-139215000D01*
X25919574Y-139208327D01*
X25482565Y-139215000D01*
X25045485Y-139215000D01*
X25028756Y-139221930D01*
X25010650Y-139222206D01*
X24235379Y-139543334D01*
X24230443Y-139552601D01*
X24205651Y-139562870D01*
X23562870Y-140205651D01*
X23552601Y-140230443D01*
X23543334Y-140235379D01*
X23382272Y-140641653D01*
X23215000Y-141045485D01*
X23215000Y-141063594D01*
X23208327Y-141080426D01*
X23215000Y-141517435D01*
X23215000Y-141954515D01*
X23221930Y-141971244D01*
X23222206Y-141989350D01*
X23543334Y-142764621D01*
X23552601Y-142769557D01*
X23562870Y-142794349D01*
X24205651Y-143437130D01*
X24230443Y-143447399D01*
X24235379Y-143456666D01*
X24641653Y-143617728D01*
X25045485Y-143785000D01*
X25063594Y-143785000D01*
X25076206Y-143790000D01*
X18710000Y-143790000D01*
X18710000Y-126720835D01*
X22260671Y-126720835D01*
X22265000Y-126731463D01*
X22265000Y-126742938D01*
X22545061Y-127419065D01*
X22821162Y-128096944D01*
X22833490Y-128115394D01*
X22833620Y-128115708D01*
X22833860Y-128115948D01*
X22846188Y-128134398D01*
X22868982Y-128151070D01*
X23848930Y-129131018D01*
X23865602Y-129153812D01*
X23876178Y-129158266D01*
X23884292Y-129166380D01*
X24560425Y-129446444D01*
X25234985Y-129730541D01*
X25246461Y-129730609D01*
X25257062Y-129735000D01*
X25988900Y-129735000D01*
X26720835Y-129739329D01*
X26731463Y-129735000D01*
X26742938Y-129735000D01*
X27419065Y-129454939D01*
X28096944Y-129178838D01*
X28115394Y-129166510D01*
X28115708Y-129166380D01*
X28115948Y-129166140D01*
X28134398Y-129153812D01*
X28151070Y-129131018D01*
X29131018Y-128151070D01*
X29153812Y-128134398D01*
X29158266Y-128123822D01*
X29166380Y-128115708D01*
X29446444Y-127439575D01*
X29730541Y-126765015D01*
X29730609Y-126753539D01*
X29735000Y-126742938D01*
X29735000Y-126720835D01*
X34260671Y-126720835D01*
X34265000Y-126731463D01*
X34265000Y-126742938D01*
X34545061Y-127419065D01*
X34821162Y-128096944D01*
X34833490Y-128115394D01*
X34833620Y-128115708D01*
X34833860Y-128115948D01*
X34846188Y-128134398D01*
X34868982Y-128151070D01*
X35848930Y-129131018D01*
X35865602Y-129153812D01*
X35876178Y-129158266D01*
X35884292Y-129166380D01*
X36560425Y-129446444D01*
X37234985Y-129730541D01*
X37246461Y-129730609D01*
X37257062Y-129735000D01*
X37988900Y-129735000D01*
X38720835Y-129739329D01*
X38731463Y-129735000D01*
X38742938Y-129735000D01*
X39419065Y-129454939D01*
X40096944Y-129178838D01*
X40115394Y-129166510D01*
X40115708Y-129166380D01*
X40115948Y-129166140D01*
X40134398Y-129153812D01*
X40151070Y-129131018D01*
X41131018Y-128151070D01*
X41153812Y-128134398D01*
X41158266Y-128123822D01*
X41166380Y-128115708D01*
X41446444Y-127439575D01*
X41730541Y-126765015D01*
X41730609Y-126753539D01*
X41735000Y-126742938D01*
X41735000Y-126720835D01*
X46260671Y-126720835D01*
X46265000Y-126731463D01*
X46265000Y-126742938D01*
X46545061Y-127419065D01*
X46821162Y-128096944D01*
X46833490Y-128115394D01*
X46833620Y-128115708D01*
X46833860Y-128115948D01*
X46846188Y-128134398D01*
X46868982Y-128151070D01*
X47848930Y-129131018D01*
X47865602Y-129153812D01*
X47876178Y-129158266D01*
X47884292Y-129166380D01*
X48560425Y-129446444D01*
X49234985Y-129730541D01*
X49246461Y-129730609D01*
X49257062Y-129735000D01*
X49988900Y-129735000D01*
X50720835Y-129739329D01*
X50731463Y-129735000D01*
X50742938Y-129735000D01*
X51419065Y-129454939D01*
X52096944Y-129178838D01*
X52115394Y-129166510D01*
X52115708Y-129166380D01*
X52115948Y-129166140D01*
X52134398Y-129153812D01*
X52151070Y-129131018D01*
X53131018Y-128151070D01*
X53153812Y-128134398D01*
X53158266Y-128123822D01*
X53166380Y-128115708D01*
X53446444Y-127439575D01*
X53730541Y-126765015D01*
X53730609Y-126753539D01*
X53735000Y-126742938D01*
X53735000Y-126011100D01*
X53739329Y-125279165D01*
X53735000Y-125268537D01*
X53735000Y-125257062D01*
X53454939Y-124580935D01*
X53178838Y-123903056D01*
X53166510Y-123884606D01*
X53166380Y-123884292D01*
X53166140Y-123884052D01*
X53153812Y-123865602D01*
X53131018Y-123848930D01*
X52151070Y-122868982D01*
X52134398Y-122846188D01*
X52123822Y-122841734D01*
X52115708Y-122833620D01*
X51439575Y-122553556D01*
X50765015Y-122269459D01*
X50753539Y-122269391D01*
X50742938Y-122265000D01*
X50011100Y-122265000D01*
X49279165Y-122260671D01*
X49268537Y-122265000D01*
X49257062Y-122265000D01*
X48580935Y-122545061D01*
X47903056Y-122821162D01*
X47884606Y-122833490D01*
X47884292Y-122833620D01*
X47884052Y-122833860D01*
X47865602Y-122846188D01*
X47848930Y-122868982D01*
X46868982Y-123848930D01*
X46846188Y-123865602D01*
X46841734Y-123876178D01*
X46833620Y-123884292D01*
X46553556Y-124560425D01*
X46269459Y-125234985D01*
X46269391Y-125246461D01*
X46265000Y-125257062D01*
X46265000Y-125988900D01*
X46260671Y-126720835D01*
X41735000Y-126720835D01*
X41735000Y-126011100D01*
X41739329Y-125279165D01*
X41735000Y-125268537D01*
X41735000Y-125257062D01*
X41454939Y-124580935D01*
X41178838Y-123903056D01*
X41166510Y-123884606D01*
X41166380Y-123884292D01*
X41166140Y-123884052D01*
X41153812Y-123865602D01*
X41131018Y-123848930D01*
X40151070Y-122868982D01*
X40134398Y-122846188D01*
X40123822Y-122841734D01*
X40115708Y-122833620D01*
X39439575Y-122553556D01*
X38765015Y-122269459D01*
X38753539Y-122269391D01*
X38742938Y-122265000D01*
X38011100Y-122265000D01*
X37279165Y-122260671D01*
X37268537Y-122265000D01*
X37257062Y-122265000D01*
X36580935Y-122545061D01*
X35903056Y-122821162D01*
X35884606Y-122833490D01*
X35884292Y-122833620D01*
X35884052Y-122833860D01*
X35865602Y-122846188D01*
X35848930Y-122868982D01*
X34868982Y-123848930D01*
X34846188Y-123865602D01*
X34841734Y-123876178D01*
X34833620Y-123884292D01*
X34553556Y-124560425D01*
X34269459Y-125234985D01*
X34269391Y-125246461D01*
X34265000Y-125257062D01*
X34265000Y-125988900D01*
X34260671Y-126720835D01*
X29735000Y-126720835D01*
X29735000Y-126011100D01*
X29739329Y-125279165D01*
X29735000Y-125268537D01*
X29735000Y-125257062D01*
X29454939Y-124580935D01*
X29178838Y-123903056D01*
X29166510Y-123884606D01*
X29166380Y-123884292D01*
X29166140Y-123884052D01*
X29153812Y-123865602D01*
X29131018Y-123848930D01*
X28151070Y-122868982D01*
X28134398Y-122846188D01*
X28123822Y-122841734D01*
X28115708Y-122833620D01*
X27439575Y-122553556D01*
X26765015Y-122269459D01*
X26753539Y-122269391D01*
X26742938Y-122265000D01*
X26011100Y-122265000D01*
X25279165Y-122260671D01*
X25268537Y-122265000D01*
X25257062Y-122265000D01*
X24580935Y-122545061D01*
X23903056Y-122821162D01*
X23884606Y-122833490D01*
X23884292Y-122833620D01*
X23884052Y-122833860D01*
X23865602Y-122846188D01*
X23848930Y-122868982D01*
X22868982Y-123848930D01*
X22846188Y-123865602D01*
X22841734Y-123876178D01*
X22833620Y-123884292D01*
X22553556Y-124560425D01*
X22269459Y-125234985D01*
X22269391Y-125246461D01*
X22265000Y-125257062D01*
X22265000Y-125988900D01*
X22260671Y-126720835D01*
X18710000Y-126720835D01*
X18710000Y-113720835D01*
X22260671Y-113720835D01*
X22265000Y-113731463D01*
X22265000Y-113742938D01*
X22545061Y-114419065D01*
X22821162Y-115096944D01*
X22833490Y-115115394D01*
X22833620Y-115115708D01*
X22833860Y-115115948D01*
X22846188Y-115134398D01*
X22868982Y-115151070D01*
X23848930Y-116131018D01*
X23865602Y-116153812D01*
X23876178Y-116158266D01*
X23884292Y-116166380D01*
X24560425Y-116446444D01*
X25234985Y-116730541D01*
X25246461Y-116730609D01*
X25257062Y-116735000D01*
X25988900Y-116735000D01*
X26720835Y-116739329D01*
X26731463Y-116735000D01*
X26742938Y-116735000D01*
X27419065Y-116454939D01*
X28096944Y-116178838D01*
X28115394Y-116166510D01*
X28115708Y-116166380D01*
X28115948Y-116166140D01*
X28134398Y-116153812D01*
X28151070Y-116131018D01*
X29131018Y-115151070D01*
X29153812Y-115134398D01*
X29158266Y-115123822D01*
X29166380Y-115115708D01*
X29446444Y-114439575D01*
X29730541Y-113765015D01*
X29730609Y-113753539D01*
X29735000Y-113742938D01*
X29735000Y-113720835D01*
X34260671Y-113720835D01*
X34265000Y-113731463D01*
X34265000Y-113742938D01*
X34545061Y-114419065D01*
X34821162Y-115096944D01*
X34833490Y-115115394D01*
X34833620Y-115115708D01*
X34833860Y-115115948D01*
X34846188Y-115134398D01*
X34868982Y-115151070D01*
X35848930Y-116131018D01*
X35865602Y-116153812D01*
X35876178Y-116158266D01*
X35884292Y-116166380D01*
X36560425Y-116446444D01*
X37234985Y-116730541D01*
X37246461Y-116730609D01*
X37257062Y-116735000D01*
X37988900Y-116735000D01*
X38720835Y-116739329D01*
X38731463Y-116735000D01*
X38742938Y-116735000D01*
X39419065Y-116454939D01*
X40096944Y-116178838D01*
X40115394Y-116166510D01*
X40115708Y-116166380D01*
X40115948Y-116166140D01*
X40134398Y-116153812D01*
X40151070Y-116131018D01*
X41131018Y-115151070D01*
X41153812Y-115134398D01*
X41158266Y-115123822D01*
X41166380Y-115115708D01*
X41446444Y-114439575D01*
X41730541Y-113765015D01*
X41730609Y-113753539D01*
X41735000Y-113742938D01*
X41735000Y-113720835D01*
X46260671Y-113720835D01*
X46265000Y-113731463D01*
X46265000Y-113742938D01*
X46545061Y-114419065D01*
X46821162Y-115096944D01*
X46833490Y-115115394D01*
X46833620Y-115115708D01*
X46833860Y-115115948D01*
X46846188Y-115134398D01*
X46868982Y-115151070D01*
X47848930Y-116131018D01*
X47865602Y-116153812D01*
X47876178Y-116158266D01*
X47884292Y-116166380D01*
X48560425Y-116446444D01*
X49234985Y-116730541D01*
X49246461Y-116730609D01*
X49257062Y-116735000D01*
X49988900Y-116735000D01*
X50720835Y-116739329D01*
X50731463Y-116735000D01*
X50742938Y-116735000D01*
X51419065Y-116454939D01*
X52096944Y-116178838D01*
X52115394Y-116166510D01*
X52115708Y-116166380D01*
X52115948Y-116166140D01*
X52134398Y-116153812D01*
X52151070Y-116131018D01*
X53131018Y-115151070D01*
X53153812Y-115134398D01*
X53158266Y-115123822D01*
X53166380Y-115115708D01*
X53446444Y-114439575D01*
X53730541Y-113765015D01*
X53730609Y-113753539D01*
X53735000Y-113742938D01*
X53735000Y-113011100D01*
X53739329Y-112279165D01*
X53735000Y-112268537D01*
X53735000Y-112257062D01*
X53454939Y-111580935D01*
X53178838Y-110903056D01*
X53166510Y-110884606D01*
X53166380Y-110884292D01*
X53166140Y-110884052D01*
X53153812Y-110865602D01*
X53131018Y-110848930D01*
X52151070Y-109868982D01*
X52134398Y-109846188D01*
X52123822Y-109841734D01*
X52115708Y-109833620D01*
X51439575Y-109553556D01*
X50765015Y-109269459D01*
X50753539Y-109269391D01*
X50742938Y-109265000D01*
X50011100Y-109265000D01*
X49279165Y-109260671D01*
X49268537Y-109265000D01*
X49257062Y-109265000D01*
X48580935Y-109545061D01*
X47903056Y-109821162D01*
X47884606Y-109833490D01*
X47884292Y-109833620D01*
X47884052Y-109833860D01*
X47865602Y-109846188D01*
X47848930Y-109868982D01*
X46868982Y-110848930D01*
X46846188Y-110865602D01*
X46841734Y-110876178D01*
X46833620Y-110884292D01*
X46553556Y-111560425D01*
X46269459Y-112234985D01*
X46269391Y-112246461D01*
X46265000Y-112257062D01*
X46265000Y-112988900D01*
X46260671Y-113720835D01*
X41735000Y-113720835D01*
X41735000Y-113011100D01*
X41739329Y-112279165D01*
X41735000Y-112268537D01*
X41735000Y-112257062D01*
X41454939Y-111580935D01*
X41178838Y-110903056D01*
X41166510Y-110884606D01*
X41166380Y-110884292D01*
X41166140Y-110884052D01*
X41153812Y-110865602D01*
X41131018Y-110848930D01*
X40151070Y-109868982D01*
X40134398Y-109846188D01*
X40123822Y-109841734D01*
X40115708Y-109833620D01*
X39439575Y-109553556D01*
X38765015Y-109269459D01*
X38753539Y-109269391D01*
X38742938Y-109265000D01*
X38011100Y-109265000D01*
X37279165Y-109260671D01*
X37268537Y-109265000D01*
X37257062Y-109265000D01*
X36580935Y-109545061D01*
X35903056Y-109821162D01*
X35884606Y-109833490D01*
X35884292Y-109833620D01*
X35884052Y-109833860D01*
X35865602Y-109846188D01*
X35848930Y-109868982D01*
X34868982Y-110848930D01*
X34846188Y-110865602D01*
X34841734Y-110876178D01*
X34833620Y-110884292D01*
X34553556Y-111560425D01*
X34269459Y-112234985D01*
X34269391Y-112246461D01*
X34265000Y-112257062D01*
X34265000Y-112988900D01*
X34260671Y-113720835D01*
X29735000Y-113720835D01*
X29735000Y-113011100D01*
X29739329Y-112279165D01*
X29735000Y-112268537D01*
X29735000Y-112257062D01*
X29454939Y-111580935D01*
X29178838Y-110903056D01*
X29166510Y-110884606D01*
X29166380Y-110884292D01*
X29166140Y-110884052D01*
X29153812Y-110865602D01*
X29131018Y-110848930D01*
X28151070Y-109868982D01*
X28134398Y-109846188D01*
X28123822Y-109841734D01*
X28115708Y-109833620D01*
X27439575Y-109553556D01*
X26765015Y-109269459D01*
X26753539Y-109269391D01*
X26742938Y-109265000D01*
X26011100Y-109265000D01*
X25279165Y-109260671D01*
X25268537Y-109265000D01*
X25257062Y-109265000D01*
X24580935Y-109545061D01*
X23903056Y-109821162D01*
X23884606Y-109833490D01*
X23884292Y-109833620D01*
X23884052Y-109833860D01*
X23865602Y-109846188D01*
X23848930Y-109868982D01*
X22868982Y-110848930D01*
X22846188Y-110865602D01*
X22841734Y-110876178D01*
X22833620Y-110884292D01*
X22553556Y-111560425D01*
X22269459Y-112234985D01*
X22269391Y-112246461D01*
X22265000Y-112257062D01*
X22265000Y-112988900D01*
X22260671Y-113720835D01*
X18710000Y-113720835D01*
X18710000Y-104080426D01*
X23708327Y-104080426D01*
X23715000Y-104517435D01*
X23715000Y-104954515D01*
X23721930Y-104971244D01*
X23722206Y-104989350D01*
X24043334Y-105764621D01*
X24052601Y-105769557D01*
X24062870Y-105794349D01*
X24705651Y-106437130D01*
X24730443Y-106447399D01*
X24735379Y-106456666D01*
X25141653Y-106617728D01*
X25545485Y-106785000D01*
X25563594Y-106785000D01*
X25580426Y-106791673D01*
X26017435Y-106785000D01*
X26454515Y-106785000D01*
X26471244Y-106778070D01*
X26489350Y-106777794D01*
X27264621Y-106456666D01*
X27269557Y-106447399D01*
X27294349Y-106437130D01*
X27937130Y-105794349D01*
X27947399Y-105769557D01*
X27956666Y-105764621D01*
X28117728Y-105358347D01*
X28285000Y-104954515D01*
X28285000Y-104936406D01*
X28291673Y-104919574D01*
X28285000Y-104482565D01*
X28285000Y-104080426D01*
X35708327Y-104080426D01*
X35715000Y-104517435D01*
X35715000Y-104954515D01*
X35721930Y-104971244D01*
X35722206Y-104989350D01*
X36043334Y-105764621D01*
X36052601Y-105769557D01*
X36062870Y-105794349D01*
X36705651Y-106437130D01*
X36730443Y-106447399D01*
X36735379Y-106456666D01*
X37141653Y-106617728D01*
X37545485Y-106785000D01*
X37563594Y-106785000D01*
X37580426Y-106791673D01*
X38017435Y-106785000D01*
X38454515Y-106785000D01*
X38471244Y-106778070D01*
X38489350Y-106777794D01*
X39264621Y-106456666D01*
X39269557Y-106447399D01*
X39294349Y-106437130D01*
X39937130Y-105794349D01*
X39947399Y-105769557D01*
X39956666Y-105764621D01*
X40117728Y-105358347D01*
X40285000Y-104954515D01*
X40285000Y-104936406D01*
X40291673Y-104919574D01*
X40285000Y-104482565D01*
X40285000Y-104080426D01*
X47708327Y-104080426D01*
X47715000Y-104517435D01*
X47715000Y-104954515D01*
X47721930Y-104971244D01*
X47722206Y-104989350D01*
X48043334Y-105764621D01*
X48052601Y-105769557D01*
X48062870Y-105794349D01*
X48705651Y-106437130D01*
X48730443Y-106447399D01*
X48735379Y-106456666D01*
X49141653Y-106617728D01*
X49545485Y-106785000D01*
X49563594Y-106785000D01*
X49580426Y-106791673D01*
X50017435Y-106785000D01*
X50454515Y-106785000D01*
X50471244Y-106778070D01*
X50489350Y-106777794D01*
X51264621Y-106456666D01*
X51269557Y-106447399D01*
X51294349Y-106437130D01*
X51937130Y-105794349D01*
X51947399Y-105769557D01*
X51956666Y-105764621D01*
X52117728Y-105358347D01*
X52285000Y-104954515D01*
X52285000Y-104936406D01*
X52291673Y-104919574D01*
X52285000Y-104482565D01*
X52285000Y-104045485D01*
X52278070Y-104028756D01*
X52277794Y-104010650D01*
X51956666Y-103235379D01*
X51947399Y-103230443D01*
X51937130Y-103205651D01*
X51294349Y-102562870D01*
X51269557Y-102552601D01*
X51264621Y-102543334D01*
X50858347Y-102382272D01*
X50454515Y-102215000D01*
X50436406Y-102215000D01*
X50419574Y-102208327D01*
X49982565Y-102215000D01*
X49545485Y-102215000D01*
X49528756Y-102221930D01*
X49510650Y-102222206D01*
X48735379Y-102543334D01*
X48730443Y-102552601D01*
X48705651Y-102562870D01*
X48062870Y-103205651D01*
X48052601Y-103230443D01*
X48043334Y-103235379D01*
X47882272Y-103641653D01*
X47715000Y-104045485D01*
X47715000Y-104063594D01*
X47708327Y-104080426D01*
X40285000Y-104080426D01*
X40285000Y-104045485D01*
X40278070Y-104028756D01*
X40277794Y-104010650D01*
X39956666Y-103235379D01*
X39947399Y-103230443D01*
X39937130Y-103205651D01*
X39294349Y-102562870D01*
X39269557Y-102552601D01*
X39264621Y-102543334D01*
X38858347Y-102382272D01*
X38454515Y-102215000D01*
X38436406Y-102215000D01*
X38419574Y-102208327D01*
X37982565Y-102215000D01*
X37545485Y-102215000D01*
X37528756Y-102221930D01*
X37510650Y-102222206D01*
X36735379Y-102543334D01*
X36730443Y-102552601D01*
X36705651Y-102562870D01*
X36062870Y-103205651D01*
X36052601Y-103230443D01*
X36043334Y-103235379D01*
X35882272Y-103641653D01*
X35715000Y-104045485D01*
X35715000Y-104063594D01*
X35708327Y-104080426D01*
X28285000Y-104080426D01*
X28285000Y-104045485D01*
X28278070Y-104028756D01*
X28277794Y-104010650D01*
X27956666Y-103235379D01*
X27947399Y-103230443D01*
X27937130Y-103205651D01*
X27294349Y-102562870D01*
X27269557Y-102552601D01*
X27264621Y-102543334D01*
X26858347Y-102382272D01*
X26454515Y-102215000D01*
X26436406Y-102215000D01*
X26419574Y-102208327D01*
X25982565Y-102215000D01*
X25545485Y-102215000D01*
X25528756Y-102221930D01*
X25510650Y-102222206D01*
X24735379Y-102543334D01*
X24730443Y-102552601D01*
X24705651Y-102562870D01*
X24062870Y-103205651D01*
X24052601Y-103230443D01*
X24043334Y-103235379D01*
X23882272Y-103641653D01*
X23715000Y-104045485D01*
X23715000Y-104063594D01*
X23708327Y-104080426D01*
X18710000Y-104080426D01*
X18710000Y-94500000D01*
X27664449Y-94500000D01*
X27759191Y-95401412D01*
X28039277Y-96263427D01*
X28492466Y-97048373D01*
X29098950Y-97721942D01*
X29556406Y-98054303D01*
X29565805Y-98066447D01*
X29583478Y-98073972D01*
X29588230Y-98077425D01*
X29601065Y-98090260D01*
X29612303Y-98094915D01*
X29832224Y-98254697D01*
X30660241Y-98623354D01*
X31086457Y-98713949D01*
X31115917Y-98726493D01*
X31137584Y-98726707D01*
X31157606Y-98735000D01*
X31185495Y-98735000D01*
X31546812Y-98811800D01*
X32453188Y-98811800D01*
X32777493Y-98742867D01*
X32800623Y-98743095D01*
X32820724Y-98735000D01*
X32842394Y-98735000D01*
X32871791Y-98722823D01*
X33339759Y-98623354D01*
X34167776Y-98254697D01*
X34359782Y-98115197D01*
X34363441Y-98113723D01*
X34397938Y-98090673D01*
X34398935Y-98090260D01*
X34399698Y-98089497D01*
X34434195Y-98066447D01*
X34443594Y-98054303D01*
X34901050Y-97721942D01*
X35507534Y-97048373D01*
X35960723Y-96263427D01*
X36240809Y-95401412D01*
X36335551Y-94500000D01*
X43629945Y-94500000D01*
X43725441Y-95408586D01*
X44007756Y-96277462D01*
X44464551Y-97068654D01*
X45075862Y-97747584D01*
X45814972Y-98284579D01*
X46649579Y-98656169D01*
X47543205Y-98846115D01*
X48456795Y-98846115D01*
X49350421Y-98656169D01*
X50185028Y-98284579D01*
X50924138Y-97747584D01*
X51535449Y-97068654D01*
X51992244Y-96277462D01*
X52274559Y-95408586D01*
X52370055Y-94500000D01*
X52274559Y-93591414D01*
X51992244Y-92722538D01*
X51535449Y-91931346D01*
X50924138Y-91252416D01*
X50185028Y-90715421D01*
X49350421Y-90343831D01*
X48456795Y-90153885D01*
X47543205Y-90153885D01*
X46649579Y-90343831D01*
X45814973Y-90715421D01*
X45075862Y-91252416D01*
X44464551Y-91931346D01*
X44007756Y-92722538D01*
X43725441Y-93591414D01*
X43629945Y-94500000D01*
X36335551Y-94500000D01*
X36240809Y-93598588D01*
X35960723Y-92736573D01*
X35507534Y-91951627D01*
X34901050Y-91278058D01*
X34443594Y-90945697D01*
X34434195Y-90933553D01*
X34416522Y-90926028D01*
X34411770Y-90922575D01*
X34398935Y-90909740D01*
X34387697Y-90905085D01*
X34167776Y-90745303D01*
X33339759Y-90376646D01*
X32913543Y-90286051D01*
X32884083Y-90273507D01*
X32862416Y-90273293D01*
X32842394Y-90265000D01*
X32814505Y-90265000D01*
X32453188Y-90188200D01*
X31546812Y-90188200D01*
X31222507Y-90257133D01*
X31199377Y-90256905D01*
X31179276Y-90265000D01*
X31157606Y-90265000D01*
X31128209Y-90277177D01*
X30660241Y-90376646D01*
X29832225Y-90745303D01*
X29640220Y-90884803D01*
X29636559Y-90886277D01*
X29602062Y-90909327D01*
X29601065Y-90909740D01*
X29600302Y-90910503D01*
X29565805Y-90933553D01*
X29556405Y-90945698D01*
X29098950Y-91278058D01*
X28492466Y-91951627D01*
X28039277Y-92736573D01*
X27759191Y-93598588D01*
X27664449Y-94500000D01*
X18710000Y-94500000D01*
X18710000Y-80080426D01*
X19708327Y-80080426D01*
X19715000Y-80517435D01*
X19715000Y-80954515D01*
X19721930Y-80971244D01*
X19722206Y-80989350D01*
X20043334Y-81764621D01*
X20052601Y-81769557D01*
X20062870Y-81794349D01*
X20705651Y-82437130D01*
X20730443Y-82447399D01*
X20735379Y-82456666D01*
X21141653Y-82617728D01*
X21452268Y-82746388D01*
X20735379Y-83043334D01*
X20730443Y-83052601D01*
X20705651Y-83062870D01*
X20062870Y-83705651D01*
X20052601Y-83730443D01*
X20043334Y-83735379D01*
X19882272Y-84141653D01*
X19715000Y-84545485D01*
X19715000Y-84563594D01*
X19708327Y-84580426D01*
X19715000Y-85017435D01*
X19715000Y-85454515D01*
X19721930Y-85471244D01*
X19722206Y-85489350D01*
X20043334Y-86264621D01*
X20052601Y-86269557D01*
X20062870Y-86294349D01*
X20705651Y-86937130D01*
X20730443Y-86947399D01*
X20735379Y-86956666D01*
X21141653Y-87117728D01*
X21545485Y-87285000D01*
X21563594Y-87285000D01*
X21580426Y-87291673D01*
X22017435Y-87285000D01*
X22454515Y-87285000D01*
X22471244Y-87278070D01*
X22489350Y-87277794D01*
X23264621Y-86956666D01*
X23269557Y-86947399D01*
X23294349Y-86937130D01*
X23937130Y-86294349D01*
X23947399Y-86269557D01*
X23956666Y-86264621D01*
X24117728Y-85858347D01*
X24285000Y-85454515D01*
X24285000Y-85436406D01*
X24291673Y-85419574D01*
X24285000Y-84982565D01*
X24285000Y-84545485D01*
X24278070Y-84528756D01*
X24277794Y-84510650D01*
X23956666Y-83735379D01*
X23947399Y-83730443D01*
X23937130Y-83705651D01*
X23294349Y-83062870D01*
X23269557Y-83052601D01*
X23264621Y-83043334D01*
X22858347Y-82882272D01*
X22547732Y-82753612D01*
X23264621Y-82456666D01*
X23269557Y-82447399D01*
X23294349Y-82437130D01*
X23937130Y-81794349D01*
X23947399Y-81769557D01*
X23956666Y-81764621D01*
X24117728Y-81358347D01*
X24285000Y-80954515D01*
X24285000Y-80936406D01*
X24291673Y-80919574D01*
X24285000Y-80482565D01*
X24285000Y-80080426D01*
X39208327Y-80080426D01*
X39215000Y-80517435D01*
X39215000Y-80954515D01*
X39221930Y-80971244D01*
X39222206Y-80989350D01*
X39543334Y-81764621D01*
X39552601Y-81769557D01*
X39562870Y-81794349D01*
X40205651Y-82437130D01*
X40230443Y-82447399D01*
X40235379Y-82456666D01*
X40641653Y-82617728D01*
X41045485Y-82785000D01*
X41063594Y-82785000D01*
X41080426Y-82791673D01*
X41517435Y-82785000D01*
X41954515Y-82785000D01*
X41971244Y-82778070D01*
X41989350Y-82777794D01*
X42764621Y-82456666D01*
X42769557Y-82447399D01*
X42794349Y-82437130D01*
X43437130Y-81794349D01*
X43447399Y-81769557D01*
X43456666Y-81764621D01*
X43617728Y-81358347D01*
X43785000Y-80954515D01*
X43785000Y-80936406D01*
X43791673Y-80919574D01*
X43785000Y-80482565D01*
X43785000Y-80045485D01*
X43778070Y-80028756D01*
X43777794Y-80010650D01*
X43456666Y-79235379D01*
X43447399Y-79230443D01*
X43437130Y-79205651D01*
X42794349Y-78562870D01*
X42769557Y-78552601D01*
X42764621Y-78543334D01*
X42358347Y-78382272D01*
X41954515Y-78215000D01*
X41936406Y-78215000D01*
X41919574Y-78208327D01*
X41482565Y-78215000D01*
X41045485Y-78215000D01*
X41028756Y-78221930D01*
X41010650Y-78222206D01*
X40235379Y-78543334D01*
X40230443Y-78552601D01*
X40205651Y-78562870D01*
X39562870Y-79205651D01*
X39552601Y-79230443D01*
X39543334Y-79235379D01*
X39382272Y-79641653D01*
X39215000Y-80045485D01*
X39215000Y-80063594D01*
X39208327Y-80080426D01*
X24285000Y-80080426D01*
X24285000Y-80045485D01*
X24278070Y-80028756D01*
X24277794Y-80010650D01*
X23956666Y-79235379D01*
X23947399Y-79230443D01*
X23937130Y-79205651D01*
X23294349Y-78562870D01*
X23269557Y-78552601D01*
X23264621Y-78543334D01*
X22858347Y-78382272D01*
X22454515Y-78215000D01*
X22436406Y-78215000D01*
X22419574Y-78208327D01*
X21982565Y-78215000D01*
X21545485Y-78215000D01*
X21528756Y-78221930D01*
X21510650Y-78222206D01*
X20735379Y-78543334D01*
X20730443Y-78552601D01*
X20705651Y-78562870D01*
X20062870Y-79205651D01*
X20052601Y-79230443D01*
X20043334Y-79235379D01*
X19882272Y-79641653D01*
X19715000Y-80045485D01*
X19715000Y-80063594D01*
X19708327Y-80080426D01*
X18710000Y-80080426D01*
X18710000Y-72500000D01*
X27629945Y-72500000D01*
X27725441Y-73408586D01*
X28007756Y-74277462D01*
X28464551Y-75068654D01*
X29075862Y-75747584D01*
X29814972Y-76284579D01*
X30649579Y-76656169D01*
X31543205Y-76846115D01*
X32456795Y-76846115D01*
X33350421Y-76656169D01*
X34185028Y-76284579D01*
X34924138Y-75747584D01*
X35535449Y-75068654D01*
X35992244Y-74277462D01*
X36274559Y-73408586D01*
X36370055Y-72500000D01*
X36274559Y-71591414D01*
X35992244Y-70722538D01*
X35535449Y-69931346D01*
X34924138Y-69252416D01*
X34185028Y-68715421D01*
X33350421Y-68343831D01*
X32456795Y-68153885D01*
X31543205Y-68153885D01*
X30649579Y-68343831D01*
X29814973Y-68715421D01*
X29075862Y-69252416D01*
X28464551Y-69931346D01*
X28007756Y-70722538D01*
X27725441Y-71591414D01*
X27629945Y-72500000D01*
X18710000Y-72500000D01*
X18710000Y-61080426D01*
X19708327Y-61080426D01*
X19715000Y-61517435D01*
X19715000Y-61954515D01*
X19721930Y-61971244D01*
X19722206Y-61989350D01*
X20043334Y-62764621D01*
X20052601Y-62769557D01*
X20062870Y-62794349D01*
X20705651Y-63437130D01*
X20730443Y-63447399D01*
X20735379Y-63456666D01*
X21141653Y-63617728D01*
X21545485Y-63785000D01*
X21563594Y-63785000D01*
X21580426Y-63791673D01*
X22017435Y-63785000D01*
X22454515Y-63785000D01*
X22471244Y-63778070D01*
X22489350Y-63777794D01*
X22626861Y-63720835D01*
X43260671Y-63720835D01*
X43265000Y-63731463D01*
X43265000Y-63742938D01*
X43545061Y-64419065D01*
X43821162Y-65096944D01*
X43833490Y-65115394D01*
X43833620Y-65115708D01*
X43833860Y-65115948D01*
X43846188Y-65134398D01*
X43868982Y-65151070D01*
X44848930Y-66131018D01*
X44865602Y-66153812D01*
X44876178Y-66158266D01*
X44884292Y-66166380D01*
X45560425Y-66446444D01*
X46234985Y-66730541D01*
X46246461Y-66730609D01*
X46257062Y-66735000D01*
X46988900Y-66735000D01*
X47720835Y-66739329D01*
X47731463Y-66735000D01*
X47742938Y-66735000D01*
X48419065Y-66454939D01*
X49096944Y-66178838D01*
X49115394Y-66166510D01*
X49115708Y-66166380D01*
X49115948Y-66166140D01*
X49134398Y-66153812D01*
X49151070Y-66131018D01*
X50131018Y-65151070D01*
X50153812Y-65134398D01*
X50158266Y-65123822D01*
X50166380Y-65115708D01*
X50446444Y-64439575D01*
X50730541Y-63765015D01*
X50730609Y-63753539D01*
X50735000Y-63742938D01*
X50735000Y-63011100D01*
X50739329Y-62279165D01*
X50735000Y-62268537D01*
X50735000Y-62257062D01*
X50454939Y-61580935D01*
X50178838Y-60903056D01*
X50166510Y-60884606D01*
X50166380Y-60884292D01*
X50166140Y-60884052D01*
X50153812Y-60865602D01*
X50131018Y-60848930D01*
X49151070Y-59868982D01*
X49134398Y-59846188D01*
X49123822Y-59841734D01*
X49115708Y-59833620D01*
X48439575Y-59553556D01*
X47765015Y-59269459D01*
X47753539Y-59269391D01*
X47742938Y-59265000D01*
X47011100Y-59265000D01*
X46279165Y-59260671D01*
X46268537Y-59265000D01*
X46257062Y-59265000D01*
X45580935Y-59545061D01*
X44903056Y-59821162D01*
X44884606Y-59833490D01*
X44884292Y-59833620D01*
X44884052Y-59833860D01*
X44865602Y-59846188D01*
X44848930Y-59868982D01*
X43868982Y-60848930D01*
X43846188Y-60865602D01*
X43841734Y-60876178D01*
X43833620Y-60884292D01*
X43553556Y-61560425D01*
X43269459Y-62234985D01*
X43269391Y-62246461D01*
X43265000Y-62257062D01*
X43265000Y-62988900D01*
X43260671Y-63720835D01*
X22626861Y-63720835D01*
X23264621Y-63456666D01*
X23269557Y-63447399D01*
X23294349Y-63437130D01*
X23937130Y-62794349D01*
X23947399Y-62769557D01*
X23956666Y-62764621D01*
X24117728Y-62358347D01*
X24285000Y-61954515D01*
X24285000Y-61936406D01*
X24291673Y-61919574D01*
X24285000Y-61482565D01*
X24285000Y-61045485D01*
X24278070Y-61028756D01*
X24277794Y-61010650D01*
X23956666Y-60235379D01*
X23947399Y-60230443D01*
X23937130Y-60205651D01*
X23294349Y-59562870D01*
X23269557Y-59552601D01*
X23264621Y-59543334D01*
X22858347Y-59382272D01*
X22454515Y-59215000D01*
X22436406Y-59215000D01*
X22419574Y-59208327D01*
X21982565Y-59215000D01*
X21545485Y-59215000D01*
X21528756Y-59221930D01*
X21510650Y-59222206D01*
X20735379Y-59543334D01*
X20730443Y-59552601D01*
X20705651Y-59562870D01*
X20062870Y-60205651D01*
X20052601Y-60230443D01*
X20043334Y-60235379D01*
X19882272Y-60641653D01*
X19715000Y-61045485D01*
X19715000Y-61063594D01*
X19708327Y-61080426D01*
X18710000Y-61080426D01*
X18710000Y-53500000D01*
X27629945Y-53500000D01*
X27725441Y-54408586D01*
X28007756Y-55277462D01*
X28464551Y-56068654D01*
X29075862Y-56747584D01*
X29814972Y-57284579D01*
X30649579Y-57656169D01*
X31543205Y-57846115D01*
X32456795Y-57846115D01*
X33350421Y-57656169D01*
X34185028Y-57284579D01*
X34924138Y-56747584D01*
X35535449Y-56068654D01*
X35992244Y-55277462D01*
X36274559Y-54408586D01*
X36370055Y-53500000D01*
X36274559Y-52591414D01*
X35992244Y-51722538D01*
X35535449Y-50931346D01*
X34924138Y-50252416D01*
X34185028Y-49715421D01*
X33350421Y-49343831D01*
X32456795Y-49153885D01*
X31543205Y-49153885D01*
X30649579Y-49343831D01*
X29814973Y-49715421D01*
X29075862Y-50252416D01*
X28464551Y-50931346D01*
X28007756Y-51722538D01*
X27725441Y-52591414D01*
X27629945Y-53500000D01*
X18710000Y-53500000D01*
X18710000Y-42080426D01*
X19708327Y-42080426D01*
X19715000Y-42517435D01*
X19715000Y-42954515D01*
X19721930Y-42971244D01*
X19722206Y-42989350D01*
X20043334Y-43764621D01*
X20052601Y-43769557D01*
X20062870Y-43794349D01*
X20705651Y-44437130D01*
X20730443Y-44447399D01*
X20735379Y-44456666D01*
X21141653Y-44617728D01*
X21545485Y-44785000D01*
X21563594Y-44785000D01*
X21580426Y-44791673D01*
X22017435Y-44785000D01*
X22454515Y-44785000D01*
X22471244Y-44778070D01*
X22489350Y-44777794D01*
X22626861Y-44720835D01*
X43260671Y-44720835D01*
X43265000Y-44731463D01*
X43265000Y-44742938D01*
X43545061Y-45419065D01*
X43821162Y-46096944D01*
X43833490Y-46115394D01*
X43833620Y-46115708D01*
X43833860Y-46115948D01*
X43846188Y-46134398D01*
X43868982Y-46151070D01*
X44848930Y-47131018D01*
X44865602Y-47153812D01*
X44876178Y-47158266D01*
X44884292Y-47166380D01*
X45560425Y-47446444D01*
X46234985Y-47730541D01*
X46246461Y-47730609D01*
X46257062Y-47735000D01*
X46988900Y-47735000D01*
X47720835Y-47739329D01*
X47731463Y-47735000D01*
X47742938Y-47735000D01*
X48419065Y-47454939D01*
X49096944Y-47178838D01*
X49115394Y-47166510D01*
X49115708Y-47166380D01*
X49115948Y-47166140D01*
X49134398Y-47153812D01*
X49151070Y-47131018D01*
X50131018Y-46151070D01*
X50153812Y-46134398D01*
X50158266Y-46123822D01*
X50166380Y-46115708D01*
X50446444Y-45439575D01*
X50730541Y-44765015D01*
X50730609Y-44753539D01*
X50735000Y-44742938D01*
X50735000Y-44011100D01*
X50739329Y-43279165D01*
X50735000Y-43268537D01*
X50735000Y-43257062D01*
X50454939Y-42580935D01*
X50178838Y-41903056D01*
X50166510Y-41884606D01*
X50166380Y-41884292D01*
X50166140Y-41884052D01*
X50153812Y-41865602D01*
X50131018Y-41848930D01*
X49151070Y-40868982D01*
X49134398Y-40846188D01*
X49123822Y-40841734D01*
X49115708Y-40833620D01*
X48439575Y-40553556D01*
X47765015Y-40269459D01*
X47753539Y-40269391D01*
X47742938Y-40265000D01*
X47011100Y-40265000D01*
X46279165Y-40260671D01*
X46268537Y-40265000D01*
X46257062Y-40265000D01*
X45580935Y-40545061D01*
X44903056Y-40821162D01*
X44884606Y-40833490D01*
X44884292Y-40833620D01*
X44884052Y-40833860D01*
X44865602Y-40846188D01*
X44848930Y-40868982D01*
X43868982Y-41848930D01*
X43846188Y-41865602D01*
X43841734Y-41876178D01*
X43833620Y-41884292D01*
X43553556Y-42560425D01*
X43269459Y-43234985D01*
X43269391Y-43246461D01*
X43265000Y-43257062D01*
X43265000Y-43988900D01*
X43260671Y-44720835D01*
X22626861Y-44720835D01*
X23264621Y-44456666D01*
X23269557Y-44447399D01*
X23294349Y-44437130D01*
X23937130Y-43794349D01*
X23947399Y-43769557D01*
X23956666Y-43764621D01*
X24117728Y-43358347D01*
X24285000Y-42954515D01*
X24285000Y-42936406D01*
X24291673Y-42919574D01*
X24285000Y-42482565D01*
X24285000Y-42045485D01*
X24278070Y-42028756D01*
X24277794Y-42010650D01*
X23956666Y-41235379D01*
X23947399Y-41230443D01*
X23937130Y-41205651D01*
X23294349Y-40562870D01*
X23269557Y-40552601D01*
X23264621Y-40543334D01*
X22858347Y-40382272D01*
X22454515Y-40215000D01*
X22436406Y-40215000D01*
X22419574Y-40208327D01*
X21982565Y-40215000D01*
X21545485Y-40215000D01*
X21528756Y-40221930D01*
X21510650Y-40222206D01*
X20735379Y-40543334D01*
X20730443Y-40552601D01*
X20705651Y-40562870D01*
X20062870Y-41205651D01*
X20052601Y-41230443D01*
X20043334Y-41235379D01*
X19882272Y-41641653D01*
X19715000Y-42045485D01*
X19715000Y-42063594D01*
X19708327Y-42080426D01*
X18710000Y-42080426D01*
X18710000Y-34500000D01*
X27664449Y-34500000D01*
X27759191Y-35401412D01*
X28039277Y-36263427D01*
X28492466Y-37048373D01*
X29098950Y-37721942D01*
X29556406Y-38054303D01*
X29565805Y-38066447D01*
X29583478Y-38073972D01*
X29588230Y-38077425D01*
X29601065Y-38090260D01*
X29612303Y-38094915D01*
X29832224Y-38254697D01*
X30660241Y-38623354D01*
X31086457Y-38713949D01*
X31115917Y-38726493D01*
X31137584Y-38726707D01*
X31157606Y-38735000D01*
X31185495Y-38735000D01*
X31546812Y-38811800D01*
X32453188Y-38811800D01*
X32777493Y-38742867D01*
X32800623Y-38743095D01*
X32820724Y-38735000D01*
X32842394Y-38735000D01*
X32871791Y-38722823D01*
X33339759Y-38623354D01*
X34167776Y-38254697D01*
X34359782Y-38115197D01*
X34363441Y-38113723D01*
X34397938Y-38090673D01*
X34398935Y-38090260D01*
X34399698Y-38089497D01*
X34434195Y-38066447D01*
X34443594Y-38054303D01*
X34901050Y-37721942D01*
X35507534Y-37048373D01*
X35960723Y-36263427D01*
X36240809Y-35401412D01*
X36335551Y-34500000D01*
X36240809Y-33598588D01*
X35960723Y-32736573D01*
X35507534Y-31951627D01*
X34901050Y-31278058D01*
X34443594Y-30945697D01*
X34434195Y-30933553D01*
X34416522Y-30926028D01*
X34411770Y-30922575D01*
X34398935Y-30909740D01*
X34387697Y-30905085D01*
X34167776Y-30745303D01*
X33339759Y-30376646D01*
X32913543Y-30286051D01*
X32884083Y-30273507D01*
X32862416Y-30273293D01*
X32842394Y-30265000D01*
X32814505Y-30265000D01*
X32453188Y-30188200D01*
X31546812Y-30188200D01*
X31222507Y-30257133D01*
X31199377Y-30256905D01*
X31179276Y-30265000D01*
X31157606Y-30265000D01*
X31128209Y-30277177D01*
X30660241Y-30376646D01*
X29832225Y-30745303D01*
X29640220Y-30884803D01*
X29636559Y-30886277D01*
X29602062Y-30909327D01*
X29601065Y-30909740D01*
X29600302Y-30910503D01*
X29565805Y-30933553D01*
X29556405Y-30945698D01*
X29098950Y-31278058D01*
X28492466Y-31951627D01*
X28039277Y-32736573D01*
X27759191Y-33598588D01*
X27664449Y-34500000D01*
X18710000Y-34500000D01*
X18710000Y-16710000D01*
X25810011Y-16710000D01*
X25482565Y-16715000D01*
M02*
