M48
;DRILL file {KiCad (5.0.1)-3} date 27/04/2019 14:04:06
;FORMAT={-:-/ absolute / inch / decimal}
FMAT,2
INCH,TZ
T1C0.0157
T2C0.0295
T3C0.0315
T4C0.0394
T5C0.0433
%
G90
G05
M72
T1
X2.5945Y-2.5984
X2.5945Y-3.3071
X2.6181Y-3.5827
X2.6728Y-4.1675
X2.6772Y-4.0354
X2.6772Y-4.1142
X2.7146Y-2.9921
X2.7146Y-3.7776
X2.7559Y-2.9528
X2.7559Y-3.8189
X2.7756Y-1.9094
X2.7953Y-0.9055
X2.8543Y-3.3878
X2.8937Y-1.5748
X2.9724Y-3.0512
X2.9724Y-3.3465
X2.9921Y-1.178
X3.0108Y-3.9886
X3.1102Y-2.9331
X3.1289Y-3.2012
X3.1666Y-3.2719
X3.1666Y-3.9886
X3.1693Y-1.5354
X3.2087Y-1.5945
X3.2264Y-1.2795
X3.2273Y-3.2012
X3.2283Y-4.1929
X3.2677Y-2.2638
X3.2847Y-3.2634
X3.2847Y-3.913
X3.2921Y-1.8355
X3.3071Y-1.5945
X3.3071Y-2.0276
X3.3454Y-3.9886
X3.3898Y-1.5945
X3.3898Y-1.811
X3.4055Y-1.9291
X3.4055Y-3.3268
X3.4311Y-1.6929
X3.4443Y-1.1805
X3.4665Y-1.3392
X3.4843Y-3.0709
X3.4843Y-4.0354
X3.5827Y-1.122
X3.5827Y-2.9724
X3.6194Y-3.9412
X3.622Y-1.2205
X3.622Y-3.3602
X3.6398Y-3.7842
X3.6811Y-1.676
X3.6811Y-2.6772
X3.6811Y-3.1693
X3.7055Y-1.7176
X3.7286Y-3.7965
X3.7371Y-3.3661
X3.7391Y-3.2012
X3.7598Y-1.752
X3.7608Y-4.1339
X3.7618Y-2.0472
X3.8359Y-3.9609
X3.837Y-3.198
X3.9587Y-3.3268
X3.9715Y-2.7756
T2
X2.4803Y-2.1457
X2.5303Y-2.0957
X2.5803Y-2.1457
X3.7689Y-4.5563
X3.8189Y-4.5063
X3.8189Y-4.6063
T3
X3.7194Y-3.9036
X3.7194Y-4.3036
X3.1183Y-3.913
X3.1183Y-4.313
X3.2365Y-2.8666
X3.2365Y-3.2666
X2.7321Y-3.8984
X2.7321Y-4.2984
X3.1879Y-3.4327
X3.1879Y-3.7327
X3.2879Y-3.4327
X3.2879Y-3.7327
X3.3879Y-3.4327
X3.3879Y-3.7327
X3.4879Y-3.4327
X3.4879Y-3.7327
X3.5879Y-3.4327
X3.5879Y-3.7327
X3.6879Y-3.4327
X3.6879Y-3.7327
X3.7879Y-3.4327
X3.7879Y-3.7327
X2.8699Y-3.8984
X2.8699Y-4.2984
X3.8467Y-2.8603
X3.8467Y-3.2603
X3.2365Y-3.913
X3.2365Y-4.313
X3.4816Y-2.8585
X3.4816Y-3.2522
X2.8346Y-2.8543
X2.8346Y-3.2543
X3.1092Y-2.8666
X3.1092Y-3.2666
X2.5Y-1.6732
X2.5787Y-1.6732
X2.9724Y-2.8677
X2.9724Y-3.2677
X3.8488Y-3.907
X3.8488Y-4.307
X2.9921Y-3.5039
X2.9921Y-3.9039
X2.7362Y-4.5079
X3.1362Y-4.5079
X3.4816Y-3.9018
X3.4816Y-4.2955
X2.5Y-1.9094
X2.5787Y-1.9094
X3.5997Y-2.8585
X3.5997Y-3.2585
X3.7286Y-2.8603
X3.7286Y-3.2603
X3.6013Y-3.9036
X3.6013Y-4.3036
X2.5Y-2.8283
X2.5Y-3.2283
X3.3546Y-3.9067
X3.3546Y-4.3067
X3.3546Y-2.8634
X3.3546Y-3.2634
T4
X2.5Y-3.4843
X2.5Y-3.5843
X2.5Y-3.6843
X2.5Y-3.7843
X2.5Y-3.8843
X2.5Y-3.9843
X2.5Y-4.0843
X2.5Y-4.1843
X2.5Y-4.2843
X3.8976Y-0.9449
X3.8976Y-1.0449
X3.8976Y-1.1449
X3.8976Y-1.2449
X3.8976Y-1.3449
X3.8976Y-1.4449
X3.8976Y-1.5449
X3.8976Y-1.6449
X3.8976Y-1.7449
X3.8976Y-1.8449
X3.8976Y-1.9449
X3.8976Y-2.0449
X3.8976Y-2.1449
X3.8976Y-2.2449
X3.8976Y-2.3449
X2.5181Y-0.7567
X2.5181Y-0.8567
X2.5181Y-0.9567
X2.5181Y-1.0567
X2.5181Y-1.1567
X2.5181Y-1.2567
X2.5181Y-1.3567
X2.5181Y-1.4567
X2.6181Y-0.7567
X2.6181Y-0.8567
X2.6181Y-0.9567
X2.6181Y-1.0567
X2.6181Y-1.1567
X2.6181Y-1.2567
X2.6181Y-1.3567
X2.6181Y-1.4567
X3.2677Y-0.6693
X3.3677Y-0.6693
X3.4677Y-0.6693
X3.5677Y-0.6693
X3.6677Y-0.6693
X3.7677Y-0.6693
T5
X3.4843Y-2.1654
X3.4843Y-2.5654
X2.9134Y-0.6827
X2.9134Y-1.0827
X3.0071Y-1.3776
X3.0071Y-1.4776
X3.0071Y-1.5776
X3.0071Y-1.6776
X3.0071Y-1.7776
X3.0071Y-1.8776
X3.0071Y-1.9776
X3.0071Y-2.0776
X3.0071Y-2.1776
X3.0071Y-2.2776
X3.0071Y-2.3776
X3.0071Y-2.4776
X3.0071Y-2.5776
X3.0071Y-2.6776
X3.1071Y-1.4776
X3.1071Y-1.6776
X3.1071Y-1.7776
X3.1071Y-1.8776
X3.1071Y-2.6776
X3.2071Y-2.6776
X3.3071Y-2.6776
X3.4071Y-2.6776
X3.5071Y-2.6776
X3.6071Y-1.3776
X3.6071Y-1.4776
X3.6071Y-1.5776
X3.6071Y-1.6776
X3.6071Y-1.7776
X3.6071Y-1.8776
X3.6071Y-1.9776
X3.6071Y-2.0776
X3.6071Y-2.1776
X3.6071Y-2.2776
X3.6071Y-2.3776
X3.6071Y-2.4776
X3.6071Y-2.5776
X3.6071Y-2.6776
X2.5Y-2.2969
X2.5Y-2.6969
X3.2417Y-4.5079
X3.6417Y-4.5079
X3.3661Y-2.1591
X3.3661Y-2.5591
X2.7756Y-0.689
X2.7756Y-1.089
T0
M30
