%TF.GenerationSoftware,KiCad,Pcbnew,(5.0.1)-3*%
%TF.CreationDate,2019-04-27T14:03:59+01:00*%
%TF.ProjectId,Fractional clock divider bottom board,4672616374696F6E616C20636C6F636B,rev?*%
%TF.SameCoordinates,Original*%
%TF.FileFunction,Copper,L1,Top,Signal*%
%TF.FilePolarity,Positive*%
%FSLAX46Y46*%
G04 Gerber Fmt 4.6, Leading zero omitted, Abs format (unit mm)*
G04 Created by KiCad (PCBNEW (5.0.1)-3) date 27/04/2019 14:03:59*
%MOMM*%
%LPD*%
G01*
G04 APERTURE LIST*
%ADD10C,0.150000*%
%ADD11R,1.800000X1.100000*%
%ADD12C,0.100000*%
%ADD13C,1.100000*%
%ADD14R,1.100000X1.800000*%
%ADD15O,1.600000X1.600000*%
%ADD16C,1.600000*%
%ADD17R,1.600000X1.600000*%
%ADD18O,2.200000X2.200000*%
%ADD19R,2.200000X2.200000*%
%ADD20R,1.700000X1.700000*%
%ADD21O,1.700000X1.700000*%
%ADD22R,1.600000X2.400000*%
%ADD23O,1.600000X2.400000*%
%ADD24C,1.200000*%
%ADD25C,0.800000*%
%ADD26C,1.270000*%
%ADD27C,0.500000*%
%ADD28C,0.254000*%
G04 APERTURE END LIST*
D10*
X61500000Y-120000000D02*
X101750000Y-120000000D01*
X101750000Y-15000000D02*
X101750000Y-120000000D01*
X61500000Y-15000000D02*
X61500000Y-120000000D01*
X61500000Y-15000000D02*
X101750000Y-15000000D01*
D11*
X97400000Y-117000000D03*
D12*
G36*
X98051955Y-113911324D02*
X98078650Y-113915284D01*
X98104828Y-113921841D01*
X98130238Y-113930933D01*
X98154634Y-113942472D01*
X98177782Y-113956346D01*
X98199458Y-113972422D01*
X98219454Y-113990546D01*
X98237578Y-114010542D01*
X98253654Y-114032218D01*
X98267528Y-114055366D01*
X98279067Y-114079762D01*
X98288159Y-114105172D01*
X98294716Y-114131350D01*
X98298676Y-114158045D01*
X98300000Y-114185000D01*
X98300000Y-114735000D01*
X98298676Y-114761955D01*
X98294716Y-114788650D01*
X98288159Y-114814828D01*
X98279067Y-114840238D01*
X98267528Y-114864634D01*
X98253654Y-114887782D01*
X98237578Y-114909458D01*
X98219454Y-114929454D01*
X98199458Y-114947578D01*
X98177782Y-114963654D01*
X98154634Y-114977528D01*
X98130238Y-114989067D01*
X98104828Y-114998159D01*
X98078650Y-115004716D01*
X98051955Y-115008676D01*
X98025000Y-115010000D01*
X96775000Y-115010000D01*
X96748045Y-115008676D01*
X96721350Y-115004716D01*
X96695172Y-114998159D01*
X96669762Y-114989067D01*
X96645366Y-114977528D01*
X96622218Y-114963654D01*
X96600542Y-114947578D01*
X96580546Y-114929454D01*
X96562422Y-114909458D01*
X96546346Y-114887782D01*
X96532472Y-114864634D01*
X96520933Y-114840238D01*
X96511841Y-114814828D01*
X96505284Y-114788650D01*
X96501324Y-114761955D01*
X96500000Y-114735000D01*
X96500000Y-114185000D01*
X96501324Y-114158045D01*
X96505284Y-114131350D01*
X96511841Y-114105172D01*
X96520933Y-114079762D01*
X96532472Y-114055366D01*
X96546346Y-114032218D01*
X96562422Y-114010542D01*
X96580546Y-113990546D01*
X96600542Y-113972422D01*
X96622218Y-113956346D01*
X96645366Y-113942472D01*
X96669762Y-113930933D01*
X96695172Y-113921841D01*
X96721350Y-113915284D01*
X96748045Y-113911324D01*
X96775000Y-113910000D01*
X98025000Y-113910000D01*
X98051955Y-113911324D01*
X98051955Y-113911324D01*
G37*
D13*
X97400000Y-114460000D03*
D12*
G36*
X95981955Y-115181324D02*
X96008650Y-115185284D01*
X96034828Y-115191841D01*
X96060238Y-115200933D01*
X96084634Y-115212472D01*
X96107782Y-115226346D01*
X96129458Y-115242422D01*
X96149454Y-115260546D01*
X96167578Y-115280542D01*
X96183654Y-115302218D01*
X96197528Y-115325366D01*
X96209067Y-115349762D01*
X96218159Y-115375172D01*
X96224716Y-115401350D01*
X96228676Y-115428045D01*
X96230000Y-115455000D01*
X96230000Y-116005000D01*
X96228676Y-116031955D01*
X96224716Y-116058650D01*
X96218159Y-116084828D01*
X96209067Y-116110238D01*
X96197528Y-116134634D01*
X96183654Y-116157782D01*
X96167578Y-116179458D01*
X96149454Y-116199454D01*
X96129458Y-116217578D01*
X96107782Y-116233654D01*
X96084634Y-116247528D01*
X96060238Y-116259067D01*
X96034828Y-116268159D01*
X96008650Y-116274716D01*
X95981955Y-116278676D01*
X95955000Y-116280000D01*
X94705000Y-116280000D01*
X94678045Y-116278676D01*
X94651350Y-116274716D01*
X94625172Y-116268159D01*
X94599762Y-116259067D01*
X94575366Y-116247528D01*
X94552218Y-116233654D01*
X94530542Y-116217578D01*
X94510546Y-116199454D01*
X94492422Y-116179458D01*
X94476346Y-116157782D01*
X94462472Y-116134634D01*
X94450933Y-116110238D01*
X94441841Y-116084828D01*
X94435284Y-116058650D01*
X94431324Y-116031955D01*
X94430000Y-116005000D01*
X94430000Y-115455000D01*
X94431324Y-115428045D01*
X94435284Y-115401350D01*
X94441841Y-115375172D01*
X94450933Y-115349762D01*
X94462472Y-115325366D01*
X94476346Y-115302218D01*
X94492422Y-115280542D01*
X94510546Y-115260546D01*
X94530542Y-115242422D01*
X94552218Y-115226346D01*
X94575366Y-115212472D01*
X94599762Y-115200933D01*
X94625172Y-115191841D01*
X94651350Y-115185284D01*
X94678045Y-115181324D01*
X94705000Y-115180000D01*
X95955000Y-115180000D01*
X95981955Y-115181324D01*
X95981955Y-115181324D01*
G37*
D13*
X95330000Y-115730000D03*
D14*
X63000000Y-54900000D03*
D12*
G36*
X65841955Y-54001324D02*
X65868650Y-54005284D01*
X65894828Y-54011841D01*
X65920238Y-54020933D01*
X65944634Y-54032472D01*
X65967782Y-54046346D01*
X65989458Y-54062422D01*
X66009454Y-54080546D01*
X66027578Y-54100542D01*
X66043654Y-54122218D01*
X66057528Y-54145366D01*
X66069067Y-54169762D01*
X66078159Y-54195172D01*
X66084716Y-54221350D01*
X66088676Y-54248045D01*
X66090000Y-54275000D01*
X66090000Y-55525000D01*
X66088676Y-55551955D01*
X66084716Y-55578650D01*
X66078159Y-55604828D01*
X66069067Y-55630238D01*
X66057528Y-55654634D01*
X66043654Y-55677782D01*
X66027578Y-55699458D01*
X66009454Y-55719454D01*
X65989458Y-55737578D01*
X65967782Y-55753654D01*
X65944634Y-55767528D01*
X65920238Y-55779067D01*
X65894828Y-55788159D01*
X65868650Y-55794716D01*
X65841955Y-55798676D01*
X65815000Y-55800000D01*
X65265000Y-55800000D01*
X65238045Y-55798676D01*
X65211350Y-55794716D01*
X65185172Y-55788159D01*
X65159762Y-55779067D01*
X65135366Y-55767528D01*
X65112218Y-55753654D01*
X65090542Y-55737578D01*
X65070546Y-55719454D01*
X65052422Y-55699458D01*
X65036346Y-55677782D01*
X65022472Y-55654634D01*
X65010933Y-55630238D01*
X65001841Y-55604828D01*
X64995284Y-55578650D01*
X64991324Y-55551955D01*
X64990000Y-55525000D01*
X64990000Y-54275000D01*
X64991324Y-54248045D01*
X64995284Y-54221350D01*
X65001841Y-54195172D01*
X65010933Y-54169762D01*
X65022472Y-54145366D01*
X65036346Y-54122218D01*
X65052422Y-54100542D01*
X65070546Y-54080546D01*
X65090542Y-54062422D01*
X65112218Y-54046346D01*
X65135366Y-54032472D01*
X65159762Y-54020933D01*
X65185172Y-54011841D01*
X65211350Y-54005284D01*
X65238045Y-54001324D01*
X65265000Y-54000000D01*
X65815000Y-54000000D01*
X65841955Y-54001324D01*
X65841955Y-54001324D01*
G37*
D13*
X65540000Y-54900000D03*
D12*
G36*
X64571955Y-51931324D02*
X64598650Y-51935284D01*
X64624828Y-51941841D01*
X64650238Y-51950933D01*
X64674634Y-51962472D01*
X64697782Y-51976346D01*
X64719458Y-51992422D01*
X64739454Y-52010546D01*
X64757578Y-52030542D01*
X64773654Y-52052218D01*
X64787528Y-52075366D01*
X64799067Y-52099762D01*
X64808159Y-52125172D01*
X64814716Y-52151350D01*
X64818676Y-52178045D01*
X64820000Y-52205000D01*
X64820000Y-53455000D01*
X64818676Y-53481955D01*
X64814716Y-53508650D01*
X64808159Y-53534828D01*
X64799067Y-53560238D01*
X64787528Y-53584634D01*
X64773654Y-53607782D01*
X64757578Y-53629458D01*
X64739454Y-53649454D01*
X64719458Y-53667578D01*
X64697782Y-53683654D01*
X64674634Y-53697528D01*
X64650238Y-53709067D01*
X64624828Y-53718159D01*
X64598650Y-53724716D01*
X64571955Y-53728676D01*
X64545000Y-53730000D01*
X63995000Y-53730000D01*
X63968045Y-53728676D01*
X63941350Y-53724716D01*
X63915172Y-53718159D01*
X63889762Y-53709067D01*
X63865366Y-53697528D01*
X63842218Y-53683654D01*
X63820542Y-53667578D01*
X63800546Y-53649454D01*
X63782422Y-53629458D01*
X63766346Y-53607782D01*
X63752472Y-53584634D01*
X63740933Y-53560238D01*
X63731841Y-53534828D01*
X63725284Y-53508650D01*
X63721324Y-53481955D01*
X63720000Y-53455000D01*
X63720000Y-52205000D01*
X63721324Y-52178045D01*
X63725284Y-52151350D01*
X63731841Y-52125172D01*
X63740933Y-52099762D01*
X63752472Y-52075366D01*
X63766346Y-52052218D01*
X63782422Y-52030542D01*
X63800546Y-52010546D01*
X63820542Y-51992422D01*
X63842218Y-51976346D01*
X63865366Y-51962472D01*
X63889762Y-51950933D01*
X63915172Y-51941841D01*
X63941350Y-51935284D01*
X63968045Y-51931324D01*
X63995000Y-51930000D01*
X64545000Y-51930000D01*
X64571955Y-51931324D01*
X64571955Y-51931324D01*
G37*
D13*
X64270000Y-52830000D03*
D15*
X88431834Y-72606702D03*
D16*
X88431834Y-82606702D03*
D15*
X88431834Y-99106702D03*
D16*
X88431834Y-109106702D03*
D17*
X65500000Y-42500000D03*
D16*
X63500000Y-42500000D03*
X65500000Y-48500000D03*
D17*
X63500000Y-48500000D03*
D18*
X74000000Y-17340000D03*
D19*
X74000000Y-27500000D03*
X70500000Y-17500000D03*
D18*
X70500000Y-27660000D03*
D19*
X92500000Y-114500000D03*
D18*
X82340000Y-114500000D03*
D19*
X63500000Y-58340000D03*
D18*
X63500000Y-68500000D03*
X88500000Y-65160000D03*
D19*
X88500000Y-55000000D03*
D18*
X85500000Y-54840000D03*
D19*
X85500000Y-65000000D03*
D20*
X66500000Y-37000000D03*
D21*
X63960000Y-37000000D03*
X66500000Y-34460000D03*
X63960000Y-34460000D03*
X66500000Y-31920000D03*
X63960000Y-31920000D03*
X66500000Y-29380000D03*
X63960000Y-29380000D03*
X66500000Y-26840000D03*
X63960000Y-26840000D03*
X66500000Y-24300000D03*
X63960000Y-24300000D03*
X66500000Y-21760000D03*
X63960000Y-21760000D03*
X66500000Y-19220000D03*
X63960000Y-19220000D03*
X95700000Y-17000000D03*
X93160000Y-17000000D03*
X90620000Y-17000000D03*
X88080000Y-17000000D03*
X85540000Y-17000000D03*
D20*
X83000000Y-17000000D03*
X99000000Y-24000000D03*
D21*
X99000000Y-26540000D03*
X99000000Y-29080000D03*
X99000000Y-31620000D03*
X99000000Y-34160000D03*
X99000000Y-36700000D03*
X99000000Y-39240000D03*
X99000000Y-41780000D03*
X99000000Y-44320000D03*
X99000000Y-46860000D03*
X99000000Y-49400000D03*
X99000000Y-51940000D03*
X99000000Y-54480000D03*
X99000000Y-57020000D03*
X99000000Y-59560000D03*
X63500000Y-108820000D03*
X63500000Y-106280000D03*
X63500000Y-103740000D03*
X63500000Y-101200000D03*
X63500000Y-98660000D03*
X63500000Y-96120000D03*
X63500000Y-93580000D03*
X63500000Y-91040000D03*
D20*
X63500000Y-88500000D03*
D16*
X97759090Y-99236542D03*
D15*
X97759090Y-109396542D03*
X94705873Y-72651486D03*
D16*
X94705873Y-82811486D03*
X85205873Y-82890678D03*
D15*
X85205873Y-72730678D03*
X91473391Y-99151486D03*
D16*
X91473391Y-109311486D03*
X97705873Y-82811486D03*
D15*
X97705873Y-72651486D03*
D16*
X82205873Y-72811486D03*
D15*
X82205873Y-82971486D03*
D16*
X94473391Y-109311486D03*
D15*
X94473391Y-99151486D03*
D16*
X91431834Y-72606702D03*
D15*
X91431834Y-82766702D03*
X78973391Y-82971486D03*
D16*
X78973391Y-72811486D03*
D15*
X75500000Y-72840000D03*
D16*
X75500000Y-83000000D03*
D15*
X72000000Y-82660000D03*
D16*
X72000000Y-72500000D03*
X69394226Y-99018477D03*
D15*
X69394226Y-109178477D03*
X72894226Y-109178477D03*
D16*
X72894226Y-99018477D03*
X79205873Y-99390678D03*
D15*
X79205873Y-109550678D03*
X82205873Y-109550678D03*
D16*
X82205873Y-99390678D03*
D15*
X79660000Y-114500000D03*
D16*
X69500000Y-114500000D03*
X63500000Y-82000000D03*
D15*
X63500000Y-71840000D03*
D16*
X85205873Y-109390678D03*
D15*
X85205873Y-99230678D03*
X76000000Y-99160000D03*
D16*
X76000000Y-89000000D03*
D22*
X80973391Y-94811486D03*
D23*
X96213391Y-87191486D03*
X83513391Y-94811486D03*
X93673391Y-87191486D03*
X86053391Y-94811486D03*
X91133391Y-87191486D03*
X88593391Y-94811486D03*
X88593391Y-87191486D03*
X91133391Y-94811486D03*
X86053391Y-87191486D03*
X93673391Y-94811486D03*
X83513391Y-87191486D03*
X96213391Y-94811486D03*
X80973391Y-87191486D03*
D16*
X84000000Y-68010000D03*
X81460000Y-68010000D03*
X78920000Y-68010000D03*
X76380000Y-68010000D03*
X86540000Y-68010000D03*
X89080000Y-68010000D03*
X91620000Y-68010000D03*
X76380000Y-65470000D03*
X76380000Y-62930000D03*
X76380000Y-60390000D03*
X76380000Y-57850000D03*
X76380000Y-55310000D03*
X76380000Y-52770000D03*
X76380000Y-50230000D03*
X76380000Y-47690000D03*
X76380000Y-45150000D03*
X76380000Y-42610000D03*
X76380000Y-40070000D03*
X76380000Y-37530000D03*
X76380000Y-34990000D03*
X78920000Y-37530000D03*
X78920000Y-42610000D03*
X78920000Y-45150000D03*
X78920000Y-47690000D03*
X91620000Y-65470000D03*
X91620000Y-62930000D03*
X91620000Y-60390000D03*
X91620000Y-57850000D03*
X91620000Y-55310000D03*
X91620000Y-52770000D03*
X91620000Y-50230000D03*
X91620000Y-47690000D03*
X91620000Y-45150000D03*
X91620000Y-42610000D03*
X91620000Y-40070000D03*
X91620000Y-37530000D03*
D17*
X91620000Y-34990000D03*
D24*
X66500000Y-91000000D03*
X68000000Y-102500000D03*
X88500000Y-102500000D03*
X73500000Y-40000000D03*
X88500000Y-78000000D03*
X75500000Y-77500000D03*
X70500000Y-48500000D03*
X71000000Y-23000000D03*
D25*
X72500000Y-86050000D03*
X75500000Y-85000000D03*
X65900001Y-84000000D03*
X65900001Y-66000000D03*
D24*
X80500000Y-39000000D03*
X91000000Y-28500000D03*
X76000000Y-29920000D03*
D25*
X87485301Y-29985301D03*
X83620464Y-46620464D03*
X86100001Y-40500000D03*
X87150001Y-43000000D03*
X88050011Y-34015269D03*
X92000000Y-31000000D03*
X86100001Y-46000000D03*
X84000000Y-51500000D03*
X86500000Y-49000000D03*
X93500000Y-42570001D03*
X94120929Y-43626004D03*
X95500000Y-44500000D03*
X95549990Y-52000000D03*
X67889702Y-105854422D03*
X82000000Y-106500000D03*
X79000000Y-74500000D03*
X70000000Y-75000000D03*
X70000000Y-97000000D03*
X68950000Y-95950000D03*
X68950000Y-76000000D03*
X91000000Y-75500000D03*
X68000000Y-104500000D03*
X95523391Y-105000000D03*
X92450656Y-96119679D03*
X97431834Y-100606702D03*
X91931834Y-100106702D03*
X94973391Y-81311486D03*
X97460818Y-81230362D03*
X83431834Y-82890678D03*
X94707656Y-96432264D03*
X92000000Y-85350000D03*
X94921905Y-85500000D03*
X79473391Y-81311486D03*
X81973391Y-81311486D03*
X80431834Y-83106702D03*
X83431834Y-99390678D03*
X84973391Y-101311486D03*
X76473391Y-101311486D03*
X80431834Y-101311486D03*
X81500000Y-40500000D03*
X81950000Y-32500000D03*
X84000000Y-40500000D03*
X83000000Y-57500000D03*
X100875000Y-70500000D03*
X93500000Y-80500000D03*
X93500000Y-68000000D03*
X100550000Y-84500000D03*
X86500000Y-84500000D03*
D26*
X74000000Y-27500000D02*
X74000000Y-27635000D01*
X63500000Y-91040000D02*
X66460000Y-91040000D01*
X66460000Y-91040000D02*
X66500000Y-91000000D01*
X87900001Y-103099999D02*
X88500000Y-102500000D01*
X68000000Y-102500000D02*
X68599999Y-103099999D01*
X68599999Y-103099999D02*
X87900001Y-103099999D01*
X65500000Y-40430000D02*
X65500000Y-42500000D01*
X65930000Y-40000000D02*
X65500000Y-40430000D01*
X73500000Y-40000000D02*
X65930000Y-40000000D01*
X88000000Y-77500000D02*
X88500000Y-78000000D01*
X75500000Y-77500000D02*
X88000000Y-77500000D01*
X65500000Y-48500000D02*
X70500000Y-48500000D01*
X74000000Y-17340000D02*
X74000000Y-20000000D01*
X74000000Y-20000000D02*
X71000000Y-23000000D01*
X70220000Y-17220000D02*
X70500000Y-17500000D01*
X68780000Y-19220000D02*
X70500000Y-17500000D01*
X66500000Y-19220000D02*
X68780000Y-19220000D01*
D27*
X63500000Y-58340000D02*
X63500000Y-56740000D01*
X63500000Y-56740000D02*
X63760000Y-56740000D01*
X64270000Y-56230000D02*
X64270000Y-53230000D01*
X63760000Y-56740000D02*
X64270000Y-56230000D01*
X66395999Y-86050000D02*
X72500000Y-86050000D01*
X64850000Y-84504001D02*
X66395999Y-86050000D01*
X64850000Y-83495999D02*
X64850000Y-84504001D01*
X63500000Y-65154001D02*
X65250001Y-66904002D01*
X63500000Y-58340000D02*
X63500000Y-65154001D01*
X65250001Y-66904002D02*
X65404002Y-66904002D01*
X65404002Y-66904002D02*
X67500000Y-69000000D01*
X67500000Y-80845999D02*
X64850000Y-83495999D01*
X67340000Y-71840000D02*
X63500000Y-71840000D01*
X67500000Y-72000000D02*
X67340000Y-71840000D01*
X67500000Y-72000000D02*
X67500000Y-80845999D01*
X67500000Y-69000000D02*
X67500000Y-72000000D01*
X75500000Y-85000000D02*
X66900001Y-85000000D01*
X66900001Y-85000000D02*
X65900001Y-84000000D01*
X75850000Y-66000000D02*
X76380000Y-65470000D01*
X65900001Y-66000000D02*
X75850000Y-66000000D01*
X88190000Y-65470000D02*
X88500000Y-65160000D01*
X84470000Y-65000000D02*
X84000000Y-65470000D01*
X85500000Y-65000000D02*
X84470000Y-65000000D01*
X76380000Y-65470000D02*
X84000000Y-65470000D01*
X84000000Y-65470000D02*
X88190000Y-65470000D01*
D26*
X76380000Y-40070000D02*
X79430000Y-40070000D01*
X79430000Y-40070000D02*
X80500000Y-39000000D01*
X98420000Y-28500000D02*
X99000000Y-29080000D01*
X91000000Y-28500000D02*
X98420000Y-28500000D01*
X63960000Y-31920000D02*
X66500000Y-31920000D01*
X74000000Y-31920000D02*
X76000000Y-29920000D01*
X66500000Y-31920000D02*
X74000000Y-31920000D01*
D27*
X77830001Y-58939999D02*
X77830001Y-52169999D01*
X76380000Y-60390000D02*
X77830001Y-58939999D01*
X77830001Y-52169999D02*
X83379536Y-46620464D01*
X83379536Y-46620464D02*
X83620464Y-46620464D01*
X87485301Y-30550986D02*
X87485301Y-29985301D01*
X87485301Y-31787505D02*
X87485301Y-30550986D01*
X86100001Y-33172805D02*
X87485301Y-31787505D01*
X86100001Y-40500000D02*
X86100001Y-33172805D01*
X88050011Y-42099990D02*
X87150001Y-43000000D01*
X88050011Y-34015269D02*
X88050011Y-42099990D01*
X99000000Y-31620000D02*
X96620000Y-31620000D01*
X96620000Y-31620000D02*
X96500000Y-31500000D01*
X96620000Y-31620000D02*
X96000000Y-31000000D01*
X96000000Y-31000000D02*
X92000000Y-31000000D01*
X87150002Y-39650002D02*
X87000011Y-39500011D01*
X87150002Y-41004001D02*
X87150002Y-39650002D01*
X86100001Y-46000000D02*
X86100001Y-42054002D01*
X86100001Y-42054002D02*
X87150002Y-41004001D01*
X87000011Y-39500011D02*
X87000011Y-33545601D01*
X99000000Y-34160000D02*
X97660000Y-34160000D01*
X97660000Y-34160000D02*
X95500000Y-32000000D01*
X91545612Y-32000000D02*
X90045612Y-30500000D01*
X95500000Y-32000000D02*
X91545612Y-32000000D01*
X87000011Y-33545601D02*
X90045612Y-30500000D01*
X78730011Y-56769989D02*
X84000000Y-51500000D01*
X76380000Y-62930000D02*
X78730011Y-60579989D01*
X78730011Y-60579989D02*
X78730011Y-56769989D01*
X89100012Y-46399988D02*
X89100012Y-34399988D01*
X86500000Y-49000000D02*
X89100012Y-46399988D01*
X89100012Y-34399988D02*
X90500000Y-33000000D01*
X95300000Y-33000000D02*
X99000000Y-36700000D01*
X90500000Y-33000000D02*
X95300000Y-33000000D01*
X92419999Y-49430001D02*
X91620000Y-50230000D01*
X93070001Y-48779999D02*
X92419999Y-49430001D01*
X93070001Y-43000000D02*
X93070001Y-48779999D01*
X93500000Y-42570001D02*
X93070001Y-43000000D01*
X94120929Y-50269071D02*
X91620000Y-52770000D01*
X94120929Y-43626004D02*
X94120929Y-50269071D01*
X95500000Y-50162806D02*
X95500000Y-44500000D01*
X93070001Y-52592805D02*
X95500000Y-50162806D01*
X91620000Y-55310000D02*
X93070001Y-53859999D01*
X93070001Y-53859999D02*
X93070001Y-52592805D01*
X97030000Y-37530000D02*
X91620000Y-37530000D01*
X97499999Y-37999999D02*
X97030000Y-37530000D01*
X99000000Y-46860000D02*
X97499999Y-45359999D01*
X97499999Y-45359999D02*
X97499999Y-37999999D01*
X93070001Y-41520001D02*
X91620000Y-40070000D01*
X96520001Y-41520001D02*
X93070001Y-41520001D01*
X96599989Y-41599989D02*
X96520001Y-41520001D01*
X99000000Y-49400000D02*
X96599989Y-46999989D01*
X96599989Y-46999989D02*
X96599989Y-41599989D01*
X99000000Y-51940000D02*
X95609990Y-51940000D01*
X95609990Y-51940000D02*
X95549990Y-52000000D01*
X99000000Y-54480000D02*
X98412905Y-54480000D01*
X72674226Y-109398477D02*
X72894226Y-109178477D01*
X68938477Y-109178477D02*
X69394226Y-109178477D01*
X63500000Y-103740000D02*
X68938477Y-109178477D01*
X81754421Y-106254421D02*
X82000000Y-106500000D01*
X67889702Y-105854422D02*
X68289701Y-106254421D01*
X68289701Y-106254421D02*
X81754421Y-106254421D01*
X79000000Y-74500000D02*
X78500000Y-75000000D01*
X78500000Y-75000000D02*
X70000000Y-75000000D01*
X65160000Y-97000000D02*
X63500000Y-98660000D01*
X70000000Y-97000000D02*
X65160000Y-97000000D01*
X68270001Y-95270001D02*
X68950000Y-95950000D01*
X63500000Y-96120000D02*
X64349999Y-95270001D01*
X64349999Y-95270001D02*
X68270001Y-95270001D01*
X90449999Y-76050001D02*
X91000000Y-75500000D01*
X69565686Y-76050001D02*
X90449999Y-76050001D01*
X68950000Y-76000000D02*
X69515685Y-76000000D01*
X69515685Y-76000000D02*
X69565686Y-76050001D01*
X68000000Y-104500000D02*
X68500000Y-105000000D01*
X68500000Y-105000000D02*
X95523391Y-105000000D01*
X71070000Y-53000000D02*
X76380000Y-47690000D01*
X67040000Y-53000000D02*
X65540000Y-54500000D01*
X71070000Y-53000000D02*
X67040000Y-53000000D01*
X93673391Y-94811486D02*
X93673391Y-94896944D01*
X93673391Y-94896944D02*
X92450656Y-96119679D01*
X97431834Y-100606702D02*
X92431834Y-100606702D01*
X92431834Y-100606702D02*
X91931834Y-100106702D01*
X94973391Y-81311486D02*
X97379694Y-81311486D01*
X97379694Y-81311486D02*
X97460818Y-81230362D01*
X82286681Y-82890678D02*
X82205873Y-82971486D01*
X85205873Y-82890678D02*
X83431834Y-82890678D01*
X83431834Y-82890678D02*
X82286681Y-82890678D01*
X94707656Y-96317221D02*
X96213391Y-94811486D01*
X94707656Y-96432264D02*
X94707656Y-96317221D01*
X94771905Y-85350000D02*
X92000000Y-85350000D01*
X96213391Y-87191486D02*
X96213391Y-86791486D01*
X96213391Y-86791486D02*
X94921905Y-85500000D01*
X94921905Y-85500000D02*
X94771905Y-85350000D01*
X79473391Y-81311486D02*
X81973391Y-81311486D01*
X79108607Y-83106702D02*
X78973391Y-82971486D01*
X80431834Y-83106702D02*
X79108607Y-83106702D01*
X79205873Y-99390678D02*
X82205873Y-99390678D01*
X85045873Y-99390678D02*
X85205873Y-99230678D01*
X82205873Y-99390678D02*
X83431834Y-99390678D01*
X83431834Y-99390678D02*
X85045873Y-99390678D01*
X78133391Y-101311486D02*
X76473391Y-101311486D01*
X80431834Y-101311486D02*
X78133391Y-101311486D01*
X84973391Y-101311486D02*
X80431834Y-101311486D01*
X83000000Y-39000000D02*
X83000000Y-17000000D01*
X81500000Y-40500000D02*
X83000000Y-39000000D01*
X76723998Y-32500000D02*
X81950000Y-32500000D01*
X74929999Y-34293999D02*
X76723998Y-32500000D01*
X76380000Y-45150000D02*
X74929999Y-43699999D01*
X74929999Y-43699999D02*
X74929999Y-34293999D01*
X84000000Y-21080000D02*
X88080000Y-17000000D01*
X84000000Y-40500000D02*
X84000000Y-21080000D01*
X90620000Y-17000000D02*
X86340001Y-21279999D01*
X86340001Y-31659999D02*
X84900010Y-33099990D01*
X86340001Y-21279999D02*
X86340001Y-31659999D01*
X83000000Y-54749998D02*
X83000000Y-56000000D01*
X85050001Y-52699997D02*
X83000000Y-54749998D01*
X85050001Y-33249981D02*
X85050001Y-52699997D01*
X84900010Y-33099990D02*
X85050001Y-33249981D01*
X83000000Y-56000000D02*
X83000000Y-57500000D01*
X100875000Y-70500000D02*
X100875000Y-73125000D01*
X100875000Y-73125000D02*
X93500000Y-80500000D01*
X93500000Y-59730000D02*
X91620000Y-57850000D01*
X93500000Y-68000000D02*
X93500000Y-59730000D01*
X100550000Y-84500000D02*
X86500000Y-84500000D01*
D28*
G36*
X101040001Y-69465000D02*
X100669126Y-69465000D01*
X100288720Y-69622569D01*
X99997569Y-69913720D01*
X99840000Y-70294126D01*
X99840000Y-70705874D01*
X99990000Y-71068007D01*
X99990001Y-72758420D01*
X93275853Y-79472569D01*
X92913720Y-79622569D01*
X92622569Y-79913720D01*
X92465000Y-80294126D01*
X92465000Y-80705874D01*
X92622569Y-81086280D01*
X92913720Y-81377431D01*
X93294126Y-81535000D01*
X93705874Y-81535000D01*
X93938391Y-81438689D01*
X93938391Y-81517360D01*
X93959178Y-81567545D01*
X93893011Y-81594952D01*
X93489339Y-81998624D01*
X93270873Y-82526047D01*
X93270873Y-83096925D01*
X93485467Y-83615000D01*
X92590879Y-83615000D01*
X92783574Y-83326611D01*
X92894947Y-82766702D01*
X92783574Y-82206793D01*
X92466411Y-81732125D01*
X91991743Y-81414962D01*
X91573167Y-81331702D01*
X91290501Y-81331702D01*
X90871925Y-81414962D01*
X90397257Y-81732125D01*
X90080094Y-82206793D01*
X89968721Y-82766702D01*
X90080094Y-83326611D01*
X90272789Y-83615000D01*
X89452932Y-83615000D01*
X89648368Y-83419564D01*
X89866834Y-82892141D01*
X89866834Y-82321263D01*
X89648368Y-81793840D01*
X89244696Y-81390168D01*
X88717273Y-81171702D01*
X88146395Y-81171702D01*
X87618972Y-81390168D01*
X87215300Y-81793840D01*
X86996834Y-82321263D01*
X86996834Y-82892141D01*
X87215300Y-83419564D01*
X87410736Y-83615000D01*
X87068007Y-83615000D01*
X86705874Y-83465000D01*
X86521214Y-83465000D01*
X86640873Y-83176117D01*
X86640873Y-82605239D01*
X86422407Y-82077816D01*
X86018735Y-81674144D01*
X85491312Y-81455678D01*
X84920434Y-81455678D01*
X84393011Y-81674144D01*
X84061477Y-82005678D01*
X83999841Y-82005678D01*
X83637708Y-81855678D01*
X83225960Y-81855678D01*
X83159857Y-81883059D01*
X82922584Y-81724518D01*
X83008391Y-81517360D01*
X83008391Y-81105612D01*
X82850822Y-80725206D01*
X82559671Y-80434055D01*
X82179265Y-80276486D01*
X81767517Y-80276486D01*
X81405384Y-80426486D01*
X80041398Y-80426486D01*
X79679265Y-80276486D01*
X79267517Y-80276486D01*
X78887111Y-80434055D01*
X78595960Y-80725206D01*
X78438391Y-81105612D01*
X78438391Y-81517360D01*
X78475676Y-81607375D01*
X78413482Y-81619746D01*
X77938814Y-81936909D01*
X77621651Y-82411577D01*
X77510278Y-82971486D01*
X77621651Y-83531395D01*
X77938814Y-84006063D01*
X78413482Y-84323226D01*
X78832058Y-84406486D01*
X79114724Y-84406486D01*
X79533300Y-84323226D01*
X79966076Y-84034055D01*
X80225960Y-84141702D01*
X80637708Y-84141702D01*
X81018114Y-83984133D01*
X81101156Y-83901091D01*
X81171296Y-84006063D01*
X81645964Y-84323226D01*
X82064540Y-84406486D01*
X82347206Y-84406486D01*
X82765782Y-84323226D01*
X83240450Y-84006063D01*
X83294162Y-83925678D01*
X83637708Y-83925678D01*
X83999841Y-83775678D01*
X84061477Y-83775678D01*
X84393011Y-84107212D01*
X84920434Y-84325678D01*
X85465000Y-84325678D01*
X85465000Y-84705874D01*
X85622569Y-85086280D01*
X85895974Y-85359685D01*
X85493482Y-85439746D01*
X85018814Y-85756910D01*
X84783391Y-86109245D01*
X84547967Y-85756909D01*
X84073299Y-85439746D01*
X83513391Y-85328373D01*
X82953482Y-85439746D01*
X82478814Y-85756910D01*
X82243391Y-86109245D01*
X82007967Y-85756909D01*
X81533299Y-85439746D01*
X80973391Y-85328373D01*
X80413482Y-85439746D01*
X79938814Y-85756910D01*
X79621651Y-86231578D01*
X79538391Y-86650154D01*
X79538391Y-87732819D01*
X79621651Y-88151395D01*
X79938815Y-88626063D01*
X80413483Y-88943226D01*
X80973391Y-89054599D01*
X81533300Y-88943226D01*
X82007968Y-88626063D01*
X82243391Y-88273727D01*
X82478815Y-88626063D01*
X82953483Y-88943226D01*
X83513391Y-89054599D01*
X84073300Y-88943226D01*
X84547968Y-88626063D01*
X84783391Y-88273727D01*
X85018815Y-88626063D01*
X85493483Y-88943226D01*
X86053391Y-89054599D01*
X86613300Y-88943226D01*
X87087968Y-88626063D01*
X87323391Y-88273727D01*
X87558815Y-88626063D01*
X88033483Y-88943226D01*
X88593391Y-89054599D01*
X89153300Y-88943226D01*
X89627968Y-88626063D01*
X89863391Y-88273727D01*
X90098815Y-88626063D01*
X90573483Y-88943226D01*
X91133391Y-89054599D01*
X91693300Y-88943226D01*
X92167968Y-88626063D01*
X92403391Y-88273727D01*
X92638815Y-88626063D01*
X93113483Y-88943226D01*
X93673391Y-89054599D01*
X94233300Y-88943226D01*
X94707968Y-88626063D01*
X94943391Y-88273727D01*
X95178815Y-88626063D01*
X95653483Y-88943226D01*
X96213391Y-89054599D01*
X96773300Y-88943226D01*
X97247968Y-88626063D01*
X97565131Y-88151395D01*
X97648391Y-87732818D01*
X97648391Y-86650153D01*
X97565131Y-86231577D01*
X97247967Y-85756909D01*
X96773299Y-85439746D01*
X96498073Y-85385000D01*
X99981993Y-85385000D01*
X100344126Y-85535000D01*
X100755874Y-85535000D01*
X101040001Y-85417311D01*
X101040001Y-119290000D01*
X62210000Y-119290000D01*
X62210000Y-117285750D01*
X95865000Y-117285750D01*
X95865000Y-117676309D01*
X95961673Y-117909698D01*
X96140301Y-118088327D01*
X96373690Y-118185000D01*
X97114250Y-118185000D01*
X97273000Y-118026250D01*
X97273000Y-117127000D01*
X97527000Y-117127000D01*
X97527000Y-118026250D01*
X97685750Y-118185000D01*
X98426310Y-118185000D01*
X98659699Y-118088327D01*
X98838327Y-117909698D01*
X98935000Y-117676309D01*
X98935000Y-117285750D01*
X98776250Y-117127000D01*
X97527000Y-117127000D01*
X97273000Y-117127000D01*
X96023750Y-117127000D01*
X95865000Y-117285750D01*
X62210000Y-117285750D01*
X62210000Y-115507745D01*
X68671861Y-115507745D01*
X68745995Y-115753864D01*
X69283223Y-115946965D01*
X69853454Y-115919778D01*
X70254005Y-115753864D01*
X70328139Y-115507745D01*
X69500000Y-114679605D01*
X68671861Y-115507745D01*
X62210000Y-115507745D01*
X62210000Y-114283223D01*
X68053035Y-114283223D01*
X68080222Y-114853454D01*
X68246136Y-115254005D01*
X68492255Y-115328139D01*
X69320395Y-114500000D01*
X69679605Y-114500000D01*
X70507745Y-115328139D01*
X70753864Y-115254005D01*
X70946965Y-114716777D01*
X70936630Y-114500000D01*
X78196887Y-114500000D01*
X78308260Y-115059909D01*
X78625423Y-115534577D01*
X79100091Y-115851740D01*
X79518667Y-115935000D01*
X79801333Y-115935000D01*
X80219909Y-115851740D01*
X80694577Y-115534577D01*
X80830817Y-115330679D01*
X80865466Y-115414332D01*
X81327608Y-115909012D01*
X81943877Y-116189183D01*
X82213000Y-116071604D01*
X82213000Y-114627000D01*
X82467000Y-114627000D01*
X82467000Y-116071604D01*
X82736123Y-116189183D01*
X83352392Y-115909012D01*
X83814534Y-115414332D01*
X84029175Y-114896122D01*
X83911125Y-114627000D01*
X82467000Y-114627000D01*
X82213000Y-114627000D01*
X82193000Y-114627000D01*
X82193000Y-114373000D01*
X82213000Y-114373000D01*
X82213000Y-112928396D01*
X82467000Y-112928396D01*
X82467000Y-114373000D01*
X83911125Y-114373000D01*
X84029175Y-114103878D01*
X83814534Y-113585668D01*
X83641079Y-113400000D01*
X90752560Y-113400000D01*
X90752560Y-115600000D01*
X90801843Y-115847765D01*
X90942191Y-116057809D01*
X91152235Y-116198157D01*
X91400000Y-116247440D01*
X93600000Y-116247440D01*
X93822001Y-116203282D01*
X93852777Y-116358003D01*
X94052736Y-116657264D01*
X94351997Y-116857223D01*
X94705000Y-116927440D01*
X95955000Y-116927440D01*
X96228687Y-116873000D01*
X97273000Y-116873000D01*
X97273000Y-115973750D01*
X97527000Y-115973750D01*
X97527000Y-116873000D01*
X98776250Y-116873000D01*
X98935000Y-116714250D01*
X98935000Y-116323691D01*
X98838327Y-116090302D01*
X98659699Y-115911673D01*
X98426310Y-115815000D01*
X97685750Y-115815000D01*
X97527000Y-115973750D01*
X97273000Y-115973750D01*
X97114250Y-115815000D01*
X96877440Y-115815000D01*
X96877440Y-115657440D01*
X98025000Y-115657440D01*
X98378003Y-115587223D01*
X98677264Y-115387264D01*
X98877223Y-115088003D01*
X98947440Y-114735000D01*
X98947440Y-114185000D01*
X98877223Y-113831997D01*
X98677264Y-113532736D01*
X98378003Y-113332777D01*
X98025000Y-113262560D01*
X96775000Y-113262560D01*
X96421997Y-113332777D01*
X96122736Y-113532736D01*
X95922777Y-113831997D01*
X95852560Y-114185000D01*
X95852560Y-114532560D01*
X94705000Y-114532560D01*
X94351997Y-114602777D01*
X94247440Y-114672639D01*
X94247440Y-113400000D01*
X94198157Y-113152235D01*
X94057809Y-112942191D01*
X93847765Y-112801843D01*
X93600000Y-112752560D01*
X91400000Y-112752560D01*
X91152235Y-112801843D01*
X90942191Y-112942191D01*
X90801843Y-113152235D01*
X90752560Y-113400000D01*
X83641079Y-113400000D01*
X83352392Y-113090988D01*
X82736123Y-112810817D01*
X82467000Y-112928396D01*
X82213000Y-112928396D01*
X81943877Y-112810817D01*
X81327608Y-113090988D01*
X80865466Y-113585668D01*
X80830817Y-113669321D01*
X80694577Y-113465423D01*
X80219909Y-113148260D01*
X79801333Y-113065000D01*
X79518667Y-113065000D01*
X79100091Y-113148260D01*
X78625423Y-113465423D01*
X78308260Y-113940091D01*
X78196887Y-114500000D01*
X70936630Y-114500000D01*
X70919778Y-114146546D01*
X70753864Y-113745995D01*
X70507745Y-113671861D01*
X69679605Y-114500000D01*
X69320395Y-114500000D01*
X68492255Y-113671861D01*
X68246136Y-113745995D01*
X68053035Y-114283223D01*
X62210000Y-114283223D01*
X62210000Y-113492255D01*
X68671861Y-113492255D01*
X69500000Y-114320395D01*
X70328139Y-113492255D01*
X70254005Y-113246136D01*
X69716777Y-113053035D01*
X69146546Y-113080222D01*
X68745995Y-113246136D01*
X68671861Y-113492255D01*
X62210000Y-113492255D01*
X62210000Y-109542608D01*
X62228355Y-109586924D01*
X62618642Y-110015183D01*
X63143108Y-110261486D01*
X63373000Y-110140819D01*
X63373000Y-108947000D01*
X63627000Y-108947000D01*
X63627000Y-110140819D01*
X63856892Y-110261486D01*
X64381358Y-110015183D01*
X64771645Y-109586924D01*
X64941476Y-109176890D01*
X64820155Y-108947000D01*
X63627000Y-108947000D01*
X63373000Y-108947000D01*
X63353000Y-108947000D01*
X63353000Y-108693000D01*
X63373000Y-108693000D01*
X63373000Y-108673000D01*
X63627000Y-108673000D01*
X63627000Y-108693000D01*
X64820155Y-108693000D01*
X64941476Y-108463110D01*
X64771645Y-108053076D01*
X64381358Y-107624817D01*
X64251522Y-107563843D01*
X64570625Y-107350625D01*
X64898839Y-106859418D01*
X64976651Y-106468229D01*
X67991752Y-109483331D01*
X68042486Y-109738386D01*
X68359649Y-110213054D01*
X68834317Y-110530217D01*
X69252893Y-110613477D01*
X69535559Y-110613477D01*
X69954135Y-110530217D01*
X70428803Y-110213054D01*
X70745966Y-109738386D01*
X70857339Y-109178477D01*
X71431113Y-109178477D01*
X71542486Y-109738386D01*
X71859649Y-110213054D01*
X72334317Y-110530217D01*
X72752893Y-110613477D01*
X73035559Y-110613477D01*
X73454135Y-110530217D01*
X73928803Y-110213054D01*
X74245966Y-109738386D01*
X74283303Y-109550678D01*
X77742760Y-109550678D01*
X77854133Y-110110587D01*
X78171296Y-110585255D01*
X78645964Y-110902418D01*
X79064540Y-110985678D01*
X79347206Y-110985678D01*
X79765782Y-110902418D01*
X80240450Y-110585255D01*
X80557613Y-110110587D01*
X80668986Y-109550678D01*
X80742760Y-109550678D01*
X80854133Y-110110587D01*
X81171296Y-110585255D01*
X81645964Y-110902418D01*
X82064540Y-110985678D01*
X82347206Y-110985678D01*
X82765782Y-110902418D01*
X83240450Y-110585255D01*
X83557613Y-110110587D01*
X83668986Y-109550678D01*
X83580383Y-109105239D01*
X83770873Y-109105239D01*
X83770873Y-109676117D01*
X83989339Y-110203540D01*
X84393011Y-110607212D01*
X84920434Y-110825678D01*
X85491312Y-110825678D01*
X86018735Y-110607212D01*
X86422407Y-110203540D01*
X86459310Y-110114447D01*
X87603695Y-110114447D01*
X87677829Y-110360566D01*
X88215057Y-110553667D01*
X88785288Y-110526480D01*
X89185839Y-110360566D01*
X89259973Y-110114447D01*
X88431834Y-109286307D01*
X87603695Y-110114447D01*
X86459310Y-110114447D01*
X86640873Y-109676117D01*
X86640873Y-109105239D01*
X86551687Y-108889925D01*
X86984869Y-108889925D01*
X87012056Y-109460156D01*
X87177970Y-109860707D01*
X87424089Y-109934841D01*
X88252229Y-109106702D01*
X88611439Y-109106702D01*
X89439579Y-109934841D01*
X89685698Y-109860707D01*
X89878799Y-109323479D01*
X89864619Y-109026047D01*
X90038391Y-109026047D01*
X90038391Y-109596925D01*
X90256857Y-110124348D01*
X90660529Y-110528020D01*
X91187952Y-110746486D01*
X91758830Y-110746486D01*
X92286253Y-110528020D01*
X92689925Y-110124348D01*
X92908391Y-109596925D01*
X92908391Y-109026047D01*
X93038391Y-109026047D01*
X93038391Y-109596925D01*
X93256857Y-110124348D01*
X93660529Y-110528020D01*
X94187952Y-110746486D01*
X94758830Y-110746486D01*
X95286253Y-110528020D01*
X95689925Y-110124348D01*
X95846814Y-109745583D01*
X96367176Y-109745583D01*
X96606701Y-110251676D01*
X97021667Y-110627583D01*
X97410051Y-110788446D01*
X97632090Y-110666457D01*
X97632090Y-109523542D01*
X97886090Y-109523542D01*
X97886090Y-110666457D01*
X98108129Y-110788446D01*
X98496513Y-110627583D01*
X98911479Y-110251676D01*
X99151004Y-109745583D01*
X99029719Y-109523542D01*
X97886090Y-109523542D01*
X97632090Y-109523542D01*
X96488461Y-109523542D01*
X96367176Y-109745583D01*
X95846814Y-109745583D01*
X95908391Y-109596925D01*
X95908391Y-109047501D01*
X96367176Y-109047501D01*
X96488461Y-109269542D01*
X97632090Y-109269542D01*
X97632090Y-108126627D01*
X97886090Y-108126627D01*
X97886090Y-109269542D01*
X99029719Y-109269542D01*
X99151004Y-109047501D01*
X98911479Y-108541408D01*
X98496513Y-108165501D01*
X98108129Y-108004638D01*
X97886090Y-108126627D01*
X97632090Y-108126627D01*
X97410051Y-108004638D01*
X97021667Y-108165501D01*
X96606701Y-108541408D01*
X96367176Y-109047501D01*
X95908391Y-109047501D01*
X95908391Y-109026047D01*
X95689925Y-108498624D01*
X95286253Y-108094952D01*
X94758830Y-107876486D01*
X94187952Y-107876486D01*
X93660529Y-108094952D01*
X93256857Y-108498624D01*
X93038391Y-109026047D01*
X92908391Y-109026047D01*
X92689925Y-108498624D01*
X92286253Y-108094952D01*
X91758830Y-107876486D01*
X91187952Y-107876486D01*
X90660529Y-108094952D01*
X90256857Y-108498624D01*
X90038391Y-109026047D01*
X89864619Y-109026047D01*
X89851612Y-108753248D01*
X89685698Y-108352697D01*
X89439579Y-108278563D01*
X88611439Y-109106702D01*
X88252229Y-109106702D01*
X87424089Y-108278563D01*
X87177970Y-108352697D01*
X86984869Y-108889925D01*
X86551687Y-108889925D01*
X86422407Y-108577816D01*
X86018735Y-108174144D01*
X85837218Y-108098957D01*
X87603695Y-108098957D01*
X88431834Y-108927097D01*
X89259973Y-108098957D01*
X89185839Y-107852838D01*
X88648611Y-107659737D01*
X88078380Y-107686924D01*
X87677829Y-107852838D01*
X87603695Y-108098957D01*
X85837218Y-108098957D01*
X85491312Y-107955678D01*
X84920434Y-107955678D01*
X84393011Y-108174144D01*
X83989339Y-108577816D01*
X83770873Y-109105239D01*
X83580383Y-109105239D01*
X83557613Y-108990769D01*
X83240450Y-108516101D01*
X82765782Y-108198938D01*
X82347206Y-108115678D01*
X82064540Y-108115678D01*
X81645964Y-108198938D01*
X81171296Y-108516101D01*
X80854133Y-108990769D01*
X80742760Y-109550678D01*
X80668986Y-109550678D01*
X80557613Y-108990769D01*
X80240450Y-108516101D01*
X79765782Y-108198938D01*
X79347206Y-108115678D01*
X79064540Y-108115678D01*
X78645964Y-108198938D01*
X78171296Y-108516101D01*
X77854133Y-108990769D01*
X77742760Y-109550678D01*
X74283303Y-109550678D01*
X74357339Y-109178477D01*
X74245966Y-108618568D01*
X73928803Y-108143900D01*
X73454135Y-107826737D01*
X73035559Y-107743477D01*
X72752893Y-107743477D01*
X72334317Y-107826737D01*
X71859649Y-108143900D01*
X71542486Y-108618568D01*
X71431113Y-109178477D01*
X70857339Y-109178477D01*
X70745966Y-108618568D01*
X70428803Y-108143900D01*
X69954135Y-107826737D01*
X69535559Y-107743477D01*
X69252893Y-107743477D01*
X68837652Y-107826074D01*
X68138203Y-107126624D01*
X68202536Y-107139421D01*
X68202539Y-107139421D01*
X68289700Y-107156758D01*
X68376861Y-107139421D01*
X81175710Y-107139421D01*
X81413720Y-107377431D01*
X81794126Y-107535000D01*
X82205874Y-107535000D01*
X82586280Y-107377431D01*
X82877431Y-107086280D01*
X83035000Y-106705874D01*
X83035000Y-106294126D01*
X82877431Y-105913720D01*
X82848711Y-105885000D01*
X94955384Y-105885000D01*
X95317517Y-106035000D01*
X95729265Y-106035000D01*
X96109671Y-105877431D01*
X96400822Y-105586280D01*
X96558391Y-105205874D01*
X96558391Y-104794126D01*
X96400822Y-104413720D01*
X96109671Y-104122569D01*
X95729265Y-103965000D01*
X95317517Y-103965000D01*
X94955384Y-104115000D01*
X88666882Y-104115000D01*
X88815619Y-104015617D01*
X88886472Y-103909578D01*
X89486470Y-103309580D01*
X89696313Y-102995529D01*
X89794879Y-102500000D01*
X89696313Y-102004471D01*
X89415618Y-101584382D01*
X88995529Y-101303687D01*
X88500000Y-101205121D01*
X88004471Y-101303687D01*
X87690420Y-101513530D01*
X87373951Y-101829999D01*
X85878892Y-101829999D01*
X86008391Y-101517360D01*
X86008391Y-101105612D01*
X85850822Y-100725206D01*
X85717615Y-100591999D01*
X85765782Y-100582418D01*
X86240450Y-100265255D01*
X86557613Y-99790587D01*
X86668986Y-99230678D01*
X86644326Y-99106702D01*
X86968721Y-99106702D01*
X87080094Y-99666611D01*
X87397257Y-100141279D01*
X87871925Y-100458442D01*
X88290501Y-100541702D01*
X88573167Y-100541702D01*
X88991743Y-100458442D01*
X89466411Y-100141279D01*
X89783574Y-99666611D01*
X89886038Y-99151486D01*
X90010278Y-99151486D01*
X90121651Y-99711395D01*
X90438814Y-100186063D01*
X90913482Y-100503226D01*
X90981400Y-100516736D01*
X91054403Y-100692982D01*
X91345554Y-100984133D01*
X91707687Y-101134133D01*
X91744409Y-101170855D01*
X91793785Y-101244751D01*
X92086524Y-101440354D01*
X92344669Y-101491702D01*
X92344673Y-101491702D01*
X92431834Y-101509039D01*
X92518995Y-101491702D01*
X96863827Y-101491702D01*
X97225960Y-101641702D01*
X97637708Y-101641702D01*
X98018114Y-101484133D01*
X98309265Y-101192982D01*
X98466834Y-100812576D01*
X98466834Y-100496617D01*
X98571952Y-100453076D01*
X98975624Y-100049404D01*
X99194090Y-99521981D01*
X99194090Y-98951103D01*
X98975624Y-98423680D01*
X98571952Y-98020008D01*
X98044529Y-97801542D01*
X97473651Y-97801542D01*
X96946228Y-98020008D01*
X96542556Y-98423680D01*
X96324090Y-98951103D01*
X96324090Y-99521981D01*
X96406817Y-99721702D01*
X95818244Y-99721702D01*
X95825131Y-99711395D01*
X95936504Y-99151486D01*
X95825131Y-98591577D01*
X95507968Y-98116909D01*
X95033300Y-97799746D01*
X94614724Y-97716486D01*
X94332058Y-97716486D01*
X93913482Y-97799746D01*
X93438814Y-98116909D01*
X93121651Y-98591577D01*
X93010278Y-99151486D01*
X93121651Y-99711395D01*
X93128538Y-99721702D01*
X92892638Y-99721702D01*
X92845647Y-99608256D01*
X92936504Y-99151486D01*
X92825131Y-98591577D01*
X92507968Y-98116909D01*
X92033300Y-97799746D01*
X91614724Y-97716486D01*
X91332058Y-97716486D01*
X90913482Y-97799746D01*
X90438814Y-98116909D01*
X90121651Y-98591577D01*
X90010278Y-99151486D01*
X89886038Y-99151486D01*
X89894947Y-99106702D01*
X89783574Y-98546793D01*
X89466411Y-98072125D01*
X88991743Y-97754962D01*
X88573167Y-97671702D01*
X88290501Y-97671702D01*
X87871925Y-97754962D01*
X87397257Y-98072125D01*
X87080094Y-98546793D01*
X86968721Y-99106702D01*
X86644326Y-99106702D01*
X86557613Y-98670769D01*
X86240450Y-98196101D01*
X85765782Y-97878938D01*
X85347206Y-97795678D01*
X85064540Y-97795678D01*
X84645964Y-97878938D01*
X84171296Y-98196101D01*
X83972116Y-98494194D01*
X83637708Y-98355678D01*
X83225960Y-98355678D01*
X83207794Y-98363203D01*
X83018735Y-98174144D01*
X82491312Y-97955678D01*
X81920434Y-97955678D01*
X81393011Y-98174144D01*
X81061477Y-98505678D01*
X80350269Y-98505678D01*
X80018735Y-98174144D01*
X79491312Y-97955678D01*
X78920434Y-97955678D01*
X78393011Y-98174144D01*
X77989339Y-98577816D01*
X77770873Y-99105239D01*
X77770873Y-99676117D01*
X77989339Y-100203540D01*
X78212285Y-100426486D01*
X77041398Y-100426486D01*
X76822931Y-100335994D01*
X77034577Y-100194577D01*
X77351740Y-99719909D01*
X77463113Y-99160000D01*
X77351740Y-98600091D01*
X77034577Y-98125423D01*
X76559909Y-97808260D01*
X76141333Y-97725000D01*
X75858667Y-97725000D01*
X75440091Y-97808260D01*
X74965423Y-98125423D01*
X74648260Y-98600091D01*
X74536887Y-99160000D01*
X74648260Y-99719909D01*
X74965423Y-100194577D01*
X75440091Y-100511740D01*
X75748149Y-100573017D01*
X75595960Y-100725206D01*
X75438391Y-101105612D01*
X75438391Y-101517360D01*
X75567890Y-101829999D01*
X69126049Y-101829999D01*
X68809580Y-101513530D01*
X68495529Y-101303688D01*
X68000000Y-101205121D01*
X67504471Y-101303688D01*
X67084382Y-101584382D01*
X66803688Y-102004471D01*
X66705121Y-102500000D01*
X66803688Y-102995529D01*
X67013530Y-103309580D01*
X67370120Y-103666170D01*
X67122569Y-103913720D01*
X66965000Y-104294126D01*
X66965000Y-104705874D01*
X67122569Y-105086280D01*
X67158351Y-105122062D01*
X67012271Y-105268142D01*
X66854702Y-105648548D01*
X66854702Y-105843123D01*
X64970538Y-103958960D01*
X65014092Y-103740000D01*
X64898839Y-103160582D01*
X64570625Y-102669375D01*
X64272239Y-102470000D01*
X64570625Y-102270625D01*
X64898839Y-101779418D01*
X65014092Y-101200000D01*
X64898839Y-100620582D01*
X64570625Y-100129375D01*
X64272239Y-99930000D01*
X64570625Y-99730625D01*
X64898839Y-99239418D01*
X65014092Y-98660000D01*
X64970538Y-98441040D01*
X65526579Y-97885000D01*
X68498307Y-97885000D01*
X68177692Y-98205615D01*
X67959226Y-98733038D01*
X67959226Y-99303916D01*
X68177692Y-99831339D01*
X68581364Y-100235011D01*
X69108787Y-100453477D01*
X69679665Y-100453477D01*
X70207088Y-100235011D01*
X70610760Y-99831339D01*
X70829226Y-99303916D01*
X70829226Y-98733038D01*
X71459226Y-98733038D01*
X71459226Y-99303916D01*
X71677692Y-99831339D01*
X72081364Y-100235011D01*
X72608787Y-100453477D01*
X73179665Y-100453477D01*
X73707088Y-100235011D01*
X74110760Y-99831339D01*
X74329226Y-99303916D01*
X74329226Y-98733038D01*
X74110760Y-98205615D01*
X73707088Y-97801943D01*
X73179665Y-97583477D01*
X72608787Y-97583477D01*
X72081364Y-97801943D01*
X71677692Y-98205615D01*
X71459226Y-98733038D01*
X70829226Y-98733038D01*
X70610760Y-98205615D01*
X70371529Y-97966384D01*
X70586280Y-97877431D01*
X70877431Y-97586280D01*
X71035000Y-97205874D01*
X71035000Y-96794126D01*
X70877431Y-96413720D01*
X70586280Y-96122569D01*
X70205874Y-95965000D01*
X69985000Y-95965000D01*
X69985000Y-95744126D01*
X69827431Y-95363720D01*
X69536280Y-95072569D01*
X69174148Y-94922569D01*
X68957426Y-94705848D01*
X68908050Y-94631952D01*
X68615311Y-94436349D01*
X68357166Y-94385001D01*
X68357162Y-94385001D01*
X68270001Y-94367664D01*
X68182840Y-94385001D01*
X64748109Y-94385001D01*
X64898839Y-94159418D01*
X65007829Y-93611486D01*
X79525951Y-93611486D01*
X79525951Y-96011486D01*
X79575234Y-96259251D01*
X79715582Y-96469295D01*
X79925626Y-96609643D01*
X80173391Y-96658926D01*
X81773391Y-96658926D01*
X82021156Y-96609643D01*
X82231200Y-96469295D01*
X82371548Y-96259251D01*
X82398176Y-96125379D01*
X82478815Y-96246063D01*
X82953483Y-96563226D01*
X83513391Y-96674599D01*
X84073300Y-96563226D01*
X84547968Y-96246063D01*
X84785890Y-95889987D01*
X85128495Y-96315986D01*
X85621572Y-96585853D01*
X85704352Y-96603390D01*
X85926391Y-96481401D01*
X85926391Y-94938486D01*
X85906391Y-94938486D01*
X85906391Y-94684486D01*
X85926391Y-94684486D01*
X85926391Y-93141571D01*
X86180391Y-93141571D01*
X86180391Y-94684486D01*
X86200391Y-94684486D01*
X86200391Y-94938486D01*
X86180391Y-94938486D01*
X86180391Y-96481401D01*
X86402430Y-96603390D01*
X86485210Y-96585853D01*
X86978287Y-96315986D01*
X87320892Y-95889987D01*
X87558815Y-96246063D01*
X88033483Y-96563226D01*
X88593391Y-96674599D01*
X89153300Y-96563226D01*
X89627968Y-96246063D01*
X89863391Y-95893727D01*
X90098815Y-96246063D01*
X90573483Y-96563226D01*
X91133391Y-96674599D01*
X91527744Y-96596157D01*
X91573225Y-96705959D01*
X91864376Y-96997110D01*
X92244782Y-97154679D01*
X92656530Y-97154679D01*
X93036936Y-96997110D01*
X93328087Y-96705959D01*
X93366373Y-96613529D01*
X93673391Y-96674599D01*
X93686665Y-96671959D01*
X93830225Y-97018544D01*
X94121376Y-97309695D01*
X94501782Y-97467264D01*
X94913530Y-97467264D01*
X95293936Y-97309695D01*
X95585087Y-97018544D01*
X95742656Y-96638138D01*
X95742656Y-96580964D01*
X96213391Y-96674599D01*
X96773300Y-96563226D01*
X97247968Y-96246063D01*
X97565131Y-95771395D01*
X97648391Y-95352818D01*
X97648391Y-94270153D01*
X97565131Y-93851577D01*
X97247967Y-93376909D01*
X96773299Y-93059746D01*
X96213391Y-92948373D01*
X95653482Y-93059746D01*
X95178814Y-93376910D01*
X94943391Y-93729245D01*
X94707967Y-93376909D01*
X94233299Y-93059746D01*
X93673391Y-92948373D01*
X93113482Y-93059746D01*
X92638814Y-93376910D01*
X92403391Y-93729245D01*
X92167967Y-93376909D01*
X91693299Y-93059746D01*
X91133391Y-92948373D01*
X90573482Y-93059746D01*
X90098814Y-93376910D01*
X89863391Y-93729245D01*
X89627967Y-93376909D01*
X89153299Y-93059746D01*
X88593391Y-92948373D01*
X88033482Y-93059746D01*
X87558814Y-93376910D01*
X87320892Y-93732985D01*
X86978287Y-93306986D01*
X86485210Y-93037119D01*
X86402430Y-93019582D01*
X86180391Y-93141571D01*
X85926391Y-93141571D01*
X85704352Y-93019582D01*
X85621572Y-93037119D01*
X85128495Y-93306986D01*
X84785890Y-93732985D01*
X84547967Y-93376909D01*
X84073299Y-93059746D01*
X83513391Y-92948373D01*
X82953482Y-93059746D01*
X82478814Y-93376910D01*
X82398176Y-93497593D01*
X82371548Y-93363721D01*
X82231200Y-93153677D01*
X82021156Y-93013329D01*
X81773391Y-92964046D01*
X80173391Y-92964046D01*
X79925626Y-93013329D01*
X79715582Y-93153677D01*
X79575234Y-93363721D01*
X79525951Y-93611486D01*
X65007829Y-93611486D01*
X65014092Y-93580000D01*
X64898839Y-93000582D01*
X64570625Y-92509375D01*
X64272239Y-92310000D01*
X66334925Y-92310000D01*
X66460000Y-92334879D01*
X66585075Y-92310000D01*
X66585080Y-92310000D01*
X66955529Y-92236313D01*
X67375618Y-91955618D01*
X67446471Y-91849579D01*
X67486470Y-91809580D01*
X67696313Y-91495528D01*
X67794879Y-91000000D01*
X67696313Y-90504471D01*
X67415618Y-90084382D01*
X66995529Y-89803687D01*
X66500000Y-89705121D01*
X66173829Y-89770000D01*
X64828026Y-89770000D01*
X64888327Y-89709699D01*
X64985000Y-89476310D01*
X64985000Y-88785750D01*
X64913811Y-88714561D01*
X74565000Y-88714561D01*
X74565000Y-89285439D01*
X74783466Y-89812862D01*
X75187138Y-90216534D01*
X75714561Y-90435000D01*
X76285439Y-90435000D01*
X76812862Y-90216534D01*
X77216534Y-89812862D01*
X77435000Y-89285439D01*
X77435000Y-88714561D01*
X77216534Y-88187138D01*
X76812862Y-87783466D01*
X76285439Y-87565000D01*
X75714561Y-87565000D01*
X75187138Y-87783466D01*
X74783466Y-88187138D01*
X74565000Y-88714561D01*
X64913811Y-88714561D01*
X64826250Y-88627000D01*
X63627000Y-88627000D01*
X63627000Y-88647000D01*
X63373000Y-88647000D01*
X63373000Y-88627000D01*
X63353000Y-88627000D01*
X63353000Y-88373000D01*
X63373000Y-88373000D01*
X63373000Y-87173750D01*
X63627000Y-87173750D01*
X63627000Y-88373000D01*
X64826250Y-88373000D01*
X64985000Y-88214250D01*
X64985000Y-87523690D01*
X64888327Y-87290301D01*
X64709698Y-87111673D01*
X64476309Y-87015000D01*
X63785750Y-87015000D01*
X63627000Y-87173750D01*
X63373000Y-87173750D01*
X63214250Y-87015000D01*
X62523691Y-87015000D01*
X62290302Y-87111673D01*
X62210000Y-87191975D01*
X62210000Y-82666765D01*
X62246136Y-82754005D01*
X62492255Y-82828139D01*
X63320395Y-82000000D01*
X62492255Y-81171861D01*
X62246136Y-81245995D01*
X62210000Y-81346529D01*
X62210000Y-80992255D01*
X62671861Y-80992255D01*
X63500000Y-81820395D01*
X64328139Y-80992255D01*
X64254005Y-80746136D01*
X63716777Y-80553035D01*
X63146546Y-80580222D01*
X62745995Y-80746136D01*
X62671861Y-80992255D01*
X62210000Y-80992255D01*
X62210000Y-72492309D01*
X62465423Y-72874577D01*
X62940091Y-73191740D01*
X63358667Y-73275000D01*
X63641333Y-73275000D01*
X64059909Y-73191740D01*
X64534577Y-72874577D01*
X64634521Y-72725000D01*
X66615000Y-72725000D01*
X66615001Y-80479419D01*
X64943810Y-82150610D01*
X64919778Y-81646546D01*
X64753864Y-81245995D01*
X64507745Y-81171861D01*
X63679605Y-82000000D01*
X63693748Y-82014143D01*
X63514142Y-82193748D01*
X63500000Y-82179605D01*
X62671861Y-83007745D01*
X62745995Y-83253864D01*
X63283223Y-83446965D01*
X63853454Y-83419778D01*
X63972644Y-83370408D01*
X63965000Y-83408835D01*
X63965000Y-83408838D01*
X63947663Y-83495999D01*
X63965000Y-83583160D01*
X63965001Y-84416836D01*
X63947663Y-84504001D01*
X64016348Y-84849310D01*
X64162576Y-85068155D01*
X64162578Y-85068157D01*
X64211952Y-85142050D01*
X64285845Y-85191424D01*
X65708576Y-86614156D01*
X65757950Y-86688049D01*
X65831843Y-86737423D01*
X65831844Y-86737424D01*
X65912752Y-86791485D01*
X66050689Y-86883652D01*
X66308834Y-86935000D01*
X66308838Y-86935000D01*
X66395999Y-86952337D01*
X66483160Y-86935000D01*
X71931993Y-86935000D01*
X72294126Y-87085000D01*
X72705874Y-87085000D01*
X73086280Y-86927431D01*
X73377431Y-86636280D01*
X73535000Y-86255874D01*
X73535000Y-85885000D01*
X74931993Y-85885000D01*
X75294126Y-86035000D01*
X75705874Y-86035000D01*
X76086280Y-85877431D01*
X76377431Y-85586280D01*
X76535000Y-85205874D01*
X76535000Y-84794126D01*
X76377431Y-84413720D01*
X76219088Y-84255377D01*
X76312862Y-84216534D01*
X76716534Y-83812862D01*
X76935000Y-83285439D01*
X76935000Y-82714561D01*
X76716534Y-82187138D01*
X76312862Y-81783466D01*
X75785439Y-81565000D01*
X75214561Y-81565000D01*
X74687138Y-81783466D01*
X74283466Y-82187138D01*
X74065000Y-82714561D01*
X74065000Y-83285439D01*
X74283466Y-83812862D01*
X74585604Y-84115000D01*
X67266580Y-84115000D01*
X66927432Y-83775852D01*
X66777432Y-83413720D01*
X66486281Y-83122569D01*
X66478310Y-83119267D01*
X66937577Y-82660000D01*
X70536887Y-82660000D01*
X70648260Y-83219909D01*
X70965423Y-83694577D01*
X71440091Y-84011740D01*
X71858667Y-84095000D01*
X72141333Y-84095000D01*
X72559909Y-84011740D01*
X73034577Y-83694577D01*
X73351740Y-83219909D01*
X73463113Y-82660000D01*
X73351740Y-82100091D01*
X73034577Y-81625423D01*
X72559909Y-81308260D01*
X72141333Y-81225000D01*
X71858667Y-81225000D01*
X71440091Y-81308260D01*
X70965423Y-81625423D01*
X70648260Y-82100091D01*
X70536887Y-82660000D01*
X66937577Y-82660000D01*
X68064156Y-81533422D01*
X68138049Y-81484048D01*
X68255508Y-81308260D01*
X68333652Y-81191309D01*
X68354543Y-81086280D01*
X68385000Y-80933164D01*
X68385000Y-80933160D01*
X68402337Y-80845999D01*
X68385000Y-80758838D01*
X68385000Y-76886245D01*
X68744126Y-77035000D01*
X69155874Y-77035000D01*
X69423646Y-76924086D01*
X69478521Y-76935001D01*
X69478526Y-76935001D01*
X69565685Y-76952338D01*
X69652845Y-76935001D01*
X74350105Y-76935001D01*
X74303687Y-77004471D01*
X74205120Y-77500000D01*
X74303687Y-77995529D01*
X74584382Y-78415618D01*
X75004471Y-78696313D01*
X75374920Y-78770000D01*
X87473950Y-78770000D01*
X87690420Y-78986470D01*
X88004471Y-79196313D01*
X88500000Y-79294879D01*
X88995529Y-79196313D01*
X89415618Y-78915618D01*
X89696313Y-78495529D01*
X89794879Y-78000000D01*
X89696313Y-77504471D01*
X89486470Y-77190420D01*
X89231051Y-76935001D01*
X90362838Y-76935001D01*
X90449999Y-76952338D01*
X90537160Y-76935001D01*
X90537164Y-76935001D01*
X90795309Y-76883653D01*
X91088048Y-76688050D01*
X91137424Y-76614154D01*
X91224147Y-76527431D01*
X91586280Y-76377431D01*
X91877431Y-76086280D01*
X92035000Y-75705874D01*
X92035000Y-75294126D01*
X91877431Y-74913720D01*
X91586280Y-74622569D01*
X91205874Y-74465000D01*
X90794126Y-74465000D01*
X90413720Y-74622569D01*
X90122569Y-74913720D01*
X90018485Y-75165001D01*
X79798710Y-75165001D01*
X79877431Y-75086280D01*
X80035000Y-74705874D01*
X80035000Y-74294126D01*
X79884203Y-73930070D01*
X80189925Y-73624348D01*
X80408391Y-73096925D01*
X80408391Y-72526047D01*
X80770873Y-72526047D01*
X80770873Y-73096925D01*
X80989339Y-73624348D01*
X81393011Y-74028020D01*
X81920434Y-74246486D01*
X82491312Y-74246486D01*
X83018735Y-74028020D01*
X83422407Y-73624348D01*
X83640873Y-73096925D01*
X83640873Y-73079719D01*
X83813959Y-73079719D01*
X84053484Y-73585812D01*
X84468450Y-73961719D01*
X84856834Y-74122582D01*
X85078873Y-74000593D01*
X85078873Y-72857678D01*
X85332873Y-72857678D01*
X85332873Y-74000593D01*
X85554912Y-74122582D01*
X85943296Y-73961719D01*
X86358262Y-73585812D01*
X86597787Y-73079719D01*
X86530068Y-72955743D01*
X87039920Y-72955743D01*
X87279445Y-73461836D01*
X87694411Y-73837743D01*
X88082795Y-73998606D01*
X88304834Y-73876617D01*
X88304834Y-72733702D01*
X88558834Y-72733702D01*
X88558834Y-73876617D01*
X88780873Y-73998606D01*
X89169257Y-73837743D01*
X89584223Y-73461836D01*
X89823748Y-72955743D01*
X89702463Y-72733702D01*
X88558834Y-72733702D01*
X88304834Y-72733702D01*
X87161205Y-72733702D01*
X87039920Y-72955743D01*
X86530068Y-72955743D01*
X86476502Y-72857678D01*
X85332873Y-72857678D01*
X85078873Y-72857678D01*
X83935244Y-72857678D01*
X83813959Y-73079719D01*
X83640873Y-73079719D01*
X83640873Y-72526047D01*
X83581057Y-72381637D01*
X83813959Y-72381637D01*
X83935244Y-72603678D01*
X85078873Y-72603678D01*
X85078873Y-71460763D01*
X85332873Y-71460763D01*
X85332873Y-72603678D01*
X86476502Y-72603678D01*
X86597787Y-72381637D01*
X86539112Y-72257661D01*
X87039920Y-72257661D01*
X87161205Y-72479702D01*
X88304834Y-72479702D01*
X88304834Y-71336787D01*
X88558834Y-71336787D01*
X88558834Y-72479702D01*
X89702463Y-72479702D01*
X89789006Y-72321263D01*
X89996834Y-72321263D01*
X89996834Y-72892141D01*
X90215300Y-73419564D01*
X90618972Y-73823236D01*
X91146395Y-74041702D01*
X91717273Y-74041702D01*
X92244696Y-73823236D01*
X92648368Y-73419564D01*
X92821938Y-73000527D01*
X93313959Y-73000527D01*
X93553484Y-73506620D01*
X93968450Y-73882527D01*
X94356834Y-74043390D01*
X94578873Y-73921401D01*
X94578873Y-72778486D01*
X94832873Y-72778486D01*
X94832873Y-73921401D01*
X95054912Y-74043390D01*
X95443296Y-73882527D01*
X95858262Y-73506620D01*
X96097787Y-73000527D01*
X95976502Y-72778486D01*
X94832873Y-72778486D01*
X94578873Y-72778486D01*
X93435244Y-72778486D01*
X93313959Y-73000527D01*
X92821938Y-73000527D01*
X92866834Y-72892141D01*
X92866834Y-72651486D01*
X96242760Y-72651486D01*
X96354133Y-73211395D01*
X96671296Y-73686063D01*
X97145964Y-74003226D01*
X97564540Y-74086486D01*
X97847206Y-74086486D01*
X98265782Y-74003226D01*
X98740450Y-73686063D01*
X99057613Y-73211395D01*
X99168986Y-72651486D01*
X99057613Y-72091577D01*
X98740450Y-71616909D01*
X98265782Y-71299746D01*
X97847206Y-71216486D01*
X97564540Y-71216486D01*
X97145964Y-71299746D01*
X96671296Y-71616909D01*
X96354133Y-72091577D01*
X96242760Y-72651486D01*
X92866834Y-72651486D01*
X92866834Y-72321263D01*
X92859040Y-72302445D01*
X93313959Y-72302445D01*
X93435244Y-72524486D01*
X94578873Y-72524486D01*
X94578873Y-71381571D01*
X94832873Y-71381571D01*
X94832873Y-72524486D01*
X95976502Y-72524486D01*
X96097787Y-72302445D01*
X95858262Y-71796352D01*
X95443296Y-71420445D01*
X95054912Y-71259582D01*
X94832873Y-71381571D01*
X94578873Y-71381571D01*
X94356834Y-71259582D01*
X93968450Y-71420445D01*
X93553484Y-71796352D01*
X93313959Y-72302445D01*
X92859040Y-72302445D01*
X92648368Y-71793840D01*
X92244696Y-71390168D01*
X91717273Y-71171702D01*
X91146395Y-71171702D01*
X90618972Y-71390168D01*
X90215300Y-71793840D01*
X89996834Y-72321263D01*
X89789006Y-72321263D01*
X89823748Y-72257661D01*
X89584223Y-71751568D01*
X89169257Y-71375661D01*
X88780873Y-71214798D01*
X88558834Y-71336787D01*
X88304834Y-71336787D01*
X88082795Y-71214798D01*
X87694411Y-71375661D01*
X87279445Y-71751568D01*
X87039920Y-72257661D01*
X86539112Y-72257661D01*
X86358262Y-71875544D01*
X85943296Y-71499637D01*
X85554912Y-71338774D01*
X85332873Y-71460763D01*
X85078873Y-71460763D01*
X84856834Y-71338774D01*
X84468450Y-71499637D01*
X84053484Y-71875544D01*
X83813959Y-72381637D01*
X83581057Y-72381637D01*
X83422407Y-71998624D01*
X83018735Y-71594952D01*
X82491312Y-71376486D01*
X81920434Y-71376486D01*
X81393011Y-71594952D01*
X80989339Y-71998624D01*
X80770873Y-72526047D01*
X80408391Y-72526047D01*
X80189925Y-71998624D01*
X79786253Y-71594952D01*
X79258830Y-71376486D01*
X78687952Y-71376486D01*
X78160529Y-71594952D01*
X77756857Y-71998624D01*
X77538391Y-72526047D01*
X77538391Y-73096925D01*
X77756857Y-73624348D01*
X78100210Y-73967701D01*
X78039196Y-74115000D01*
X76174759Y-74115000D01*
X76534577Y-73874577D01*
X76851740Y-73399909D01*
X76963113Y-72840000D01*
X76851740Y-72280091D01*
X76534577Y-71805423D01*
X76059909Y-71488260D01*
X75641333Y-71405000D01*
X75358667Y-71405000D01*
X74940091Y-71488260D01*
X74465423Y-71805423D01*
X74148260Y-72280091D01*
X74036887Y-72840000D01*
X74148260Y-73399909D01*
X74465423Y-73874577D01*
X74825241Y-74115000D01*
X70568007Y-74115000D01*
X70205874Y-73965000D01*
X69794126Y-73965000D01*
X69413720Y-74122569D01*
X69122569Y-74413720D01*
X68965000Y-74794126D01*
X68965000Y-74965000D01*
X68744126Y-74965000D01*
X68385000Y-75113755D01*
X68385000Y-73507745D01*
X71171861Y-73507745D01*
X71245995Y-73753864D01*
X71783223Y-73946965D01*
X72353454Y-73919778D01*
X72754005Y-73753864D01*
X72828139Y-73507745D01*
X72000000Y-72679605D01*
X71171861Y-73507745D01*
X68385000Y-73507745D01*
X68385000Y-72283223D01*
X70553035Y-72283223D01*
X70580222Y-72853454D01*
X70746136Y-73254005D01*
X70992255Y-73328139D01*
X71820395Y-72500000D01*
X72179605Y-72500000D01*
X73007745Y-73328139D01*
X73253864Y-73254005D01*
X73446965Y-72716777D01*
X73419778Y-72146546D01*
X73253864Y-71745995D01*
X73007745Y-71671861D01*
X72179605Y-72500000D01*
X71820395Y-72500000D01*
X70992255Y-71671861D01*
X70746136Y-71745995D01*
X70553035Y-72283223D01*
X68385000Y-72283223D01*
X68385000Y-72087159D01*
X68402337Y-71999999D01*
X68385000Y-71912840D01*
X68385000Y-71492255D01*
X71171861Y-71492255D01*
X72000000Y-72320395D01*
X72828139Y-71492255D01*
X72754005Y-71246136D01*
X72216777Y-71053035D01*
X71646546Y-71080222D01*
X71245995Y-71246136D01*
X71171861Y-71492255D01*
X68385000Y-71492255D01*
X68385000Y-69087161D01*
X68402337Y-69000000D01*
X68385000Y-68912839D01*
X68385000Y-68912835D01*
X68333652Y-68654690D01*
X68138049Y-68361951D01*
X68064156Y-68312577D01*
X66636578Y-66885000D01*
X75475604Y-66885000D01*
X75163466Y-67197138D01*
X74945000Y-67724561D01*
X74945000Y-68295439D01*
X75163466Y-68822862D01*
X75567138Y-69226534D01*
X76094561Y-69445000D01*
X76665439Y-69445000D01*
X77192862Y-69226534D01*
X77596534Y-68822862D01*
X77650000Y-68693784D01*
X77703466Y-68822862D01*
X78107138Y-69226534D01*
X78634561Y-69445000D01*
X79205439Y-69445000D01*
X79732862Y-69226534D01*
X80136534Y-68822862D01*
X80190000Y-68693784D01*
X80243466Y-68822862D01*
X80647138Y-69226534D01*
X81174561Y-69445000D01*
X81745439Y-69445000D01*
X82272862Y-69226534D01*
X82481651Y-69017745D01*
X83171861Y-69017745D01*
X83245995Y-69263864D01*
X83783223Y-69456965D01*
X84353454Y-69429778D01*
X84754005Y-69263864D01*
X84828139Y-69017745D01*
X84000000Y-68189605D01*
X83171861Y-69017745D01*
X82481651Y-69017745D01*
X82676534Y-68822862D01*
X82723525Y-68709417D01*
X82746136Y-68764005D01*
X82992255Y-68838139D01*
X83820395Y-68010000D01*
X82992255Y-67181861D01*
X82746136Y-67255995D01*
X82725126Y-67314448D01*
X82676534Y-67197138D01*
X82272862Y-66793466D01*
X81745439Y-66575000D01*
X81174561Y-66575000D01*
X80647138Y-66793466D01*
X80243466Y-67197138D01*
X80190000Y-67326216D01*
X80136534Y-67197138D01*
X79732862Y-66793466D01*
X79205439Y-66575000D01*
X78634561Y-66575000D01*
X78107138Y-66793466D01*
X77703466Y-67197138D01*
X77650000Y-67326216D01*
X77596534Y-67197138D01*
X77192862Y-66793466D01*
X77063784Y-66740000D01*
X77192862Y-66686534D01*
X77524396Y-66355000D01*
X83806677Y-66355000D01*
X83942191Y-66557809D01*
X83967779Y-66574907D01*
X83646546Y-66590222D01*
X83245995Y-66756136D01*
X83171861Y-67002255D01*
X84000000Y-67830395D01*
X84828139Y-67002255D01*
X84754005Y-66756136D01*
X84729812Y-66747440D01*
X85838254Y-66747440D01*
X85727138Y-66793466D01*
X85323466Y-67197138D01*
X85276475Y-67310583D01*
X85253864Y-67255995D01*
X85007745Y-67181861D01*
X84179605Y-68010000D01*
X85007745Y-68838139D01*
X85253864Y-68764005D01*
X85274874Y-68705552D01*
X85323466Y-68822862D01*
X85727138Y-69226534D01*
X86254561Y-69445000D01*
X86825439Y-69445000D01*
X87352862Y-69226534D01*
X87756534Y-68822862D01*
X87810000Y-68693784D01*
X87863466Y-68822862D01*
X88267138Y-69226534D01*
X88794561Y-69445000D01*
X89365439Y-69445000D01*
X89892862Y-69226534D01*
X90296534Y-68822862D01*
X90350000Y-68693784D01*
X90403466Y-68822862D01*
X90807138Y-69226534D01*
X91334561Y-69445000D01*
X91905439Y-69445000D01*
X92432862Y-69226534D01*
X92836534Y-68822862D01*
X92843158Y-68806869D01*
X92913720Y-68877431D01*
X93294126Y-69035000D01*
X93705874Y-69035000D01*
X94086280Y-68877431D01*
X94377431Y-68586280D01*
X94535000Y-68205874D01*
X94535000Y-67794126D01*
X94385000Y-67431993D01*
X94385000Y-59916890D01*
X97558524Y-59916890D01*
X97728355Y-60326924D01*
X98118642Y-60755183D01*
X98643108Y-61001486D01*
X98873000Y-60880819D01*
X98873000Y-59687000D01*
X99127000Y-59687000D01*
X99127000Y-60880819D01*
X99356892Y-61001486D01*
X99881358Y-60755183D01*
X100271645Y-60326924D01*
X100441476Y-59916890D01*
X100320155Y-59687000D01*
X99127000Y-59687000D01*
X98873000Y-59687000D01*
X97679845Y-59687000D01*
X97558524Y-59916890D01*
X94385000Y-59916890D01*
X94385000Y-59817159D01*
X94402337Y-59729999D01*
X94385000Y-59642839D01*
X94385000Y-59642835D01*
X94333652Y-59384690D01*
X94238535Y-59242338D01*
X94187424Y-59165845D01*
X94187423Y-59165844D01*
X94138049Y-59091951D01*
X94064156Y-59042577D01*
X93055000Y-58033422D01*
X93055000Y-57564561D01*
X92836534Y-57037138D01*
X92432862Y-56633466D01*
X92303784Y-56580000D01*
X92432862Y-56526534D01*
X92836534Y-56122862D01*
X93055000Y-55595439D01*
X93055000Y-55126579D01*
X93634157Y-54547422D01*
X93708050Y-54498048D01*
X93770432Y-54404688D01*
X93835556Y-54307223D01*
X93903653Y-54205309D01*
X93955001Y-53947164D01*
X93955001Y-53947159D01*
X93972338Y-53860000D01*
X93955001Y-53772840D01*
X93955001Y-52959383D01*
X94571671Y-52342714D01*
X94672559Y-52586280D01*
X94963710Y-52877431D01*
X95344116Y-53035000D01*
X95755864Y-53035000D01*
X96136270Y-52877431D01*
X96188701Y-52825000D01*
X97805344Y-52825000D01*
X97929375Y-53010625D01*
X98227761Y-53210000D01*
X97929375Y-53409375D01*
X97601161Y-53900582D01*
X97485908Y-54480000D01*
X97601161Y-55059418D01*
X97929375Y-55550625D01*
X98227761Y-55750000D01*
X97929375Y-55949375D01*
X97601161Y-56440582D01*
X97485908Y-57020000D01*
X97601161Y-57599418D01*
X97929375Y-58090625D01*
X98248478Y-58303843D01*
X98118642Y-58364817D01*
X97728355Y-58793076D01*
X97558524Y-59203110D01*
X97679845Y-59433000D01*
X98873000Y-59433000D01*
X98873000Y-59413000D01*
X99127000Y-59413000D01*
X99127000Y-59433000D01*
X100320155Y-59433000D01*
X100441476Y-59203110D01*
X100271645Y-58793076D01*
X99881358Y-58364817D01*
X99751522Y-58303843D01*
X100070625Y-58090625D01*
X100398839Y-57599418D01*
X100514092Y-57020000D01*
X100398839Y-56440582D01*
X100070625Y-55949375D01*
X99772239Y-55750000D01*
X100070625Y-55550625D01*
X100398839Y-55059418D01*
X100514092Y-54480000D01*
X100398839Y-53900582D01*
X100070625Y-53409375D01*
X99772239Y-53210000D01*
X100070625Y-53010625D01*
X100398839Y-52519418D01*
X100514092Y-51940000D01*
X100398839Y-51360582D01*
X100070625Y-50869375D01*
X99772239Y-50670000D01*
X100070625Y-50470625D01*
X100398839Y-49979418D01*
X100514092Y-49400000D01*
X100398839Y-48820582D01*
X100070625Y-48329375D01*
X99772239Y-48130000D01*
X100070625Y-47930625D01*
X100398839Y-47439418D01*
X100514092Y-46860000D01*
X100398839Y-46280582D01*
X100070625Y-45789375D01*
X99772239Y-45590000D01*
X100070625Y-45390625D01*
X100398839Y-44899418D01*
X100514092Y-44320000D01*
X100398839Y-43740582D01*
X100070625Y-43249375D01*
X99772239Y-43050000D01*
X100070625Y-42850625D01*
X100398839Y-42359418D01*
X100514092Y-41780000D01*
X100398839Y-41200582D01*
X100070625Y-40709375D01*
X99772239Y-40510000D01*
X100070625Y-40310625D01*
X100398839Y-39819418D01*
X100514092Y-39240000D01*
X100398839Y-38660582D01*
X100070625Y-38169375D01*
X99772239Y-37970000D01*
X100070625Y-37770625D01*
X100398839Y-37279418D01*
X100514092Y-36700000D01*
X100398839Y-36120582D01*
X100070625Y-35629375D01*
X99772239Y-35430000D01*
X100070625Y-35230625D01*
X100398839Y-34739418D01*
X100514092Y-34160000D01*
X100398839Y-33580582D01*
X100070625Y-33089375D01*
X99772239Y-32890000D01*
X100070625Y-32690625D01*
X100398839Y-32199418D01*
X100514092Y-31620000D01*
X100398839Y-31040582D01*
X100070625Y-30549375D01*
X99772239Y-30350000D01*
X100070625Y-30150625D01*
X100398839Y-29659418D01*
X100514092Y-29080000D01*
X100398839Y-28500582D01*
X100070625Y-28009375D01*
X99751522Y-27796157D01*
X99881358Y-27735183D01*
X100271645Y-27306924D01*
X100441476Y-26896890D01*
X100320155Y-26667000D01*
X99127000Y-26667000D01*
X99127000Y-26687000D01*
X98873000Y-26687000D01*
X98873000Y-26667000D01*
X97679845Y-26667000D01*
X97558524Y-26896890D01*
X97696494Y-27230000D01*
X90874920Y-27230000D01*
X90504471Y-27303687D01*
X90084382Y-27584382D01*
X89803687Y-28004471D01*
X89705120Y-28500000D01*
X89803687Y-28995529D01*
X90084382Y-29415618D01*
X90504471Y-29696313D01*
X90874920Y-29770000D01*
X97675050Y-29770000D01*
X97929375Y-30150625D01*
X98227761Y-30350000D01*
X97929375Y-30549375D01*
X97805344Y-30735000D01*
X96986579Y-30735000D01*
X96687425Y-30435846D01*
X96638049Y-30361951D01*
X96345310Y-30166348D01*
X96087165Y-30115000D01*
X96087161Y-30115000D01*
X96000000Y-30097663D01*
X95912839Y-30115000D01*
X92568007Y-30115000D01*
X92205874Y-29965000D01*
X91794126Y-29965000D01*
X91413720Y-30122569D01*
X91166740Y-30369549D01*
X90733036Y-29935845D01*
X90683661Y-29861951D01*
X90560155Y-29779427D01*
X90390921Y-29666348D01*
X90045612Y-29597663D01*
X90045611Y-29597663D01*
X89959871Y-29614718D01*
X89700303Y-29666348D01*
X89700302Y-29666349D01*
X89700301Y-29666349D01*
X89481457Y-29812576D01*
X89481455Y-29812578D01*
X89407563Y-29861951D01*
X89358189Y-29935844D01*
X88370301Y-30923732D01*
X88370301Y-30553308D01*
X88520301Y-30191175D01*
X88520301Y-29779427D01*
X88362732Y-29399021D01*
X88071581Y-29107870D01*
X87691175Y-28950301D01*
X87279427Y-28950301D01*
X87225001Y-28972845D01*
X87225001Y-24285750D01*
X97515000Y-24285750D01*
X97515000Y-24976310D01*
X97611673Y-25209699D01*
X97790302Y-25388327D01*
X97999878Y-25475136D01*
X97728355Y-25773076D01*
X97558524Y-26183110D01*
X97679845Y-26413000D01*
X98873000Y-26413000D01*
X98873000Y-24127000D01*
X99127000Y-24127000D01*
X99127000Y-26413000D01*
X100320155Y-26413000D01*
X100441476Y-26183110D01*
X100271645Y-25773076D01*
X100000122Y-25475136D01*
X100209698Y-25388327D01*
X100388327Y-25209699D01*
X100485000Y-24976310D01*
X100485000Y-24285750D01*
X100326250Y-24127000D01*
X99127000Y-24127000D01*
X98873000Y-24127000D01*
X97673750Y-24127000D01*
X97515000Y-24285750D01*
X87225001Y-24285750D01*
X87225001Y-23023690D01*
X97515000Y-23023690D01*
X97515000Y-23714250D01*
X97673750Y-23873000D01*
X98873000Y-23873000D01*
X98873000Y-22673750D01*
X99127000Y-22673750D01*
X99127000Y-23873000D01*
X100326250Y-23873000D01*
X100485000Y-23714250D01*
X100485000Y-23023690D01*
X100388327Y-22790301D01*
X100209698Y-22611673D01*
X99976309Y-22515000D01*
X99285750Y-22515000D01*
X99127000Y-22673750D01*
X98873000Y-22673750D01*
X98714250Y-22515000D01*
X98023691Y-22515000D01*
X97790302Y-22611673D01*
X97611673Y-22790301D01*
X97515000Y-23023690D01*
X87225001Y-23023690D01*
X87225001Y-21646577D01*
X90401040Y-18470538D01*
X90473744Y-18485000D01*
X90766256Y-18485000D01*
X91199418Y-18398839D01*
X91690625Y-18070625D01*
X91890000Y-17772239D01*
X92089375Y-18070625D01*
X92580582Y-18398839D01*
X93013744Y-18485000D01*
X93306256Y-18485000D01*
X93739418Y-18398839D01*
X94230625Y-18070625D01*
X94443843Y-17751522D01*
X94504817Y-17881358D01*
X94933076Y-18271645D01*
X95343110Y-18441476D01*
X95573000Y-18320155D01*
X95573000Y-17127000D01*
X95827000Y-17127000D01*
X95827000Y-18320155D01*
X96056890Y-18441476D01*
X96466924Y-18271645D01*
X96895183Y-17881358D01*
X97141486Y-17356892D01*
X97020819Y-17127000D01*
X95827000Y-17127000D01*
X95573000Y-17127000D01*
X95553000Y-17127000D01*
X95553000Y-16873000D01*
X95573000Y-16873000D01*
X95573000Y-16853000D01*
X95827000Y-16853000D01*
X95827000Y-16873000D01*
X97020819Y-16873000D01*
X97141486Y-16643108D01*
X96895183Y-16118642D01*
X96466924Y-15728355D01*
X96422608Y-15710000D01*
X101040000Y-15710000D01*
X101040001Y-69465000D01*
X101040001Y-69465000D01*
G37*
X101040001Y-69465000D02*
X100669126Y-69465000D01*
X100288720Y-69622569D01*
X99997569Y-69913720D01*
X99840000Y-70294126D01*
X99840000Y-70705874D01*
X99990000Y-71068007D01*
X99990001Y-72758420D01*
X93275853Y-79472569D01*
X92913720Y-79622569D01*
X92622569Y-79913720D01*
X92465000Y-80294126D01*
X92465000Y-80705874D01*
X92622569Y-81086280D01*
X92913720Y-81377431D01*
X93294126Y-81535000D01*
X93705874Y-81535000D01*
X93938391Y-81438689D01*
X93938391Y-81517360D01*
X93959178Y-81567545D01*
X93893011Y-81594952D01*
X93489339Y-81998624D01*
X93270873Y-82526047D01*
X93270873Y-83096925D01*
X93485467Y-83615000D01*
X92590879Y-83615000D01*
X92783574Y-83326611D01*
X92894947Y-82766702D01*
X92783574Y-82206793D01*
X92466411Y-81732125D01*
X91991743Y-81414962D01*
X91573167Y-81331702D01*
X91290501Y-81331702D01*
X90871925Y-81414962D01*
X90397257Y-81732125D01*
X90080094Y-82206793D01*
X89968721Y-82766702D01*
X90080094Y-83326611D01*
X90272789Y-83615000D01*
X89452932Y-83615000D01*
X89648368Y-83419564D01*
X89866834Y-82892141D01*
X89866834Y-82321263D01*
X89648368Y-81793840D01*
X89244696Y-81390168D01*
X88717273Y-81171702D01*
X88146395Y-81171702D01*
X87618972Y-81390168D01*
X87215300Y-81793840D01*
X86996834Y-82321263D01*
X86996834Y-82892141D01*
X87215300Y-83419564D01*
X87410736Y-83615000D01*
X87068007Y-83615000D01*
X86705874Y-83465000D01*
X86521214Y-83465000D01*
X86640873Y-83176117D01*
X86640873Y-82605239D01*
X86422407Y-82077816D01*
X86018735Y-81674144D01*
X85491312Y-81455678D01*
X84920434Y-81455678D01*
X84393011Y-81674144D01*
X84061477Y-82005678D01*
X83999841Y-82005678D01*
X83637708Y-81855678D01*
X83225960Y-81855678D01*
X83159857Y-81883059D01*
X82922584Y-81724518D01*
X83008391Y-81517360D01*
X83008391Y-81105612D01*
X82850822Y-80725206D01*
X82559671Y-80434055D01*
X82179265Y-80276486D01*
X81767517Y-80276486D01*
X81405384Y-80426486D01*
X80041398Y-80426486D01*
X79679265Y-80276486D01*
X79267517Y-80276486D01*
X78887111Y-80434055D01*
X78595960Y-80725206D01*
X78438391Y-81105612D01*
X78438391Y-81517360D01*
X78475676Y-81607375D01*
X78413482Y-81619746D01*
X77938814Y-81936909D01*
X77621651Y-82411577D01*
X77510278Y-82971486D01*
X77621651Y-83531395D01*
X77938814Y-84006063D01*
X78413482Y-84323226D01*
X78832058Y-84406486D01*
X79114724Y-84406486D01*
X79533300Y-84323226D01*
X79966076Y-84034055D01*
X80225960Y-84141702D01*
X80637708Y-84141702D01*
X81018114Y-83984133D01*
X81101156Y-83901091D01*
X81171296Y-84006063D01*
X81645964Y-84323226D01*
X82064540Y-84406486D01*
X82347206Y-84406486D01*
X82765782Y-84323226D01*
X83240450Y-84006063D01*
X83294162Y-83925678D01*
X83637708Y-83925678D01*
X83999841Y-83775678D01*
X84061477Y-83775678D01*
X84393011Y-84107212D01*
X84920434Y-84325678D01*
X85465000Y-84325678D01*
X85465000Y-84705874D01*
X85622569Y-85086280D01*
X85895974Y-85359685D01*
X85493482Y-85439746D01*
X85018814Y-85756910D01*
X84783391Y-86109245D01*
X84547967Y-85756909D01*
X84073299Y-85439746D01*
X83513391Y-85328373D01*
X82953482Y-85439746D01*
X82478814Y-85756910D01*
X82243391Y-86109245D01*
X82007967Y-85756909D01*
X81533299Y-85439746D01*
X80973391Y-85328373D01*
X80413482Y-85439746D01*
X79938814Y-85756910D01*
X79621651Y-86231578D01*
X79538391Y-86650154D01*
X79538391Y-87732819D01*
X79621651Y-88151395D01*
X79938815Y-88626063D01*
X80413483Y-88943226D01*
X80973391Y-89054599D01*
X81533300Y-88943226D01*
X82007968Y-88626063D01*
X82243391Y-88273727D01*
X82478815Y-88626063D01*
X82953483Y-88943226D01*
X83513391Y-89054599D01*
X84073300Y-88943226D01*
X84547968Y-88626063D01*
X84783391Y-88273727D01*
X85018815Y-88626063D01*
X85493483Y-88943226D01*
X86053391Y-89054599D01*
X86613300Y-88943226D01*
X87087968Y-88626063D01*
X87323391Y-88273727D01*
X87558815Y-88626063D01*
X88033483Y-88943226D01*
X88593391Y-89054599D01*
X89153300Y-88943226D01*
X89627968Y-88626063D01*
X89863391Y-88273727D01*
X90098815Y-88626063D01*
X90573483Y-88943226D01*
X91133391Y-89054599D01*
X91693300Y-88943226D01*
X92167968Y-88626063D01*
X92403391Y-88273727D01*
X92638815Y-88626063D01*
X93113483Y-88943226D01*
X93673391Y-89054599D01*
X94233300Y-88943226D01*
X94707968Y-88626063D01*
X94943391Y-88273727D01*
X95178815Y-88626063D01*
X95653483Y-88943226D01*
X96213391Y-89054599D01*
X96773300Y-88943226D01*
X97247968Y-88626063D01*
X97565131Y-88151395D01*
X97648391Y-87732818D01*
X97648391Y-86650153D01*
X97565131Y-86231577D01*
X97247967Y-85756909D01*
X96773299Y-85439746D01*
X96498073Y-85385000D01*
X99981993Y-85385000D01*
X100344126Y-85535000D01*
X100755874Y-85535000D01*
X101040001Y-85417311D01*
X101040001Y-119290000D01*
X62210000Y-119290000D01*
X62210000Y-117285750D01*
X95865000Y-117285750D01*
X95865000Y-117676309D01*
X95961673Y-117909698D01*
X96140301Y-118088327D01*
X96373690Y-118185000D01*
X97114250Y-118185000D01*
X97273000Y-118026250D01*
X97273000Y-117127000D01*
X97527000Y-117127000D01*
X97527000Y-118026250D01*
X97685750Y-118185000D01*
X98426310Y-118185000D01*
X98659699Y-118088327D01*
X98838327Y-117909698D01*
X98935000Y-117676309D01*
X98935000Y-117285750D01*
X98776250Y-117127000D01*
X97527000Y-117127000D01*
X97273000Y-117127000D01*
X96023750Y-117127000D01*
X95865000Y-117285750D01*
X62210000Y-117285750D01*
X62210000Y-115507745D01*
X68671861Y-115507745D01*
X68745995Y-115753864D01*
X69283223Y-115946965D01*
X69853454Y-115919778D01*
X70254005Y-115753864D01*
X70328139Y-115507745D01*
X69500000Y-114679605D01*
X68671861Y-115507745D01*
X62210000Y-115507745D01*
X62210000Y-114283223D01*
X68053035Y-114283223D01*
X68080222Y-114853454D01*
X68246136Y-115254005D01*
X68492255Y-115328139D01*
X69320395Y-114500000D01*
X69679605Y-114500000D01*
X70507745Y-115328139D01*
X70753864Y-115254005D01*
X70946965Y-114716777D01*
X70936630Y-114500000D01*
X78196887Y-114500000D01*
X78308260Y-115059909D01*
X78625423Y-115534577D01*
X79100091Y-115851740D01*
X79518667Y-115935000D01*
X79801333Y-115935000D01*
X80219909Y-115851740D01*
X80694577Y-115534577D01*
X80830817Y-115330679D01*
X80865466Y-115414332D01*
X81327608Y-115909012D01*
X81943877Y-116189183D01*
X82213000Y-116071604D01*
X82213000Y-114627000D01*
X82467000Y-114627000D01*
X82467000Y-116071604D01*
X82736123Y-116189183D01*
X83352392Y-115909012D01*
X83814534Y-115414332D01*
X84029175Y-114896122D01*
X83911125Y-114627000D01*
X82467000Y-114627000D01*
X82213000Y-114627000D01*
X82193000Y-114627000D01*
X82193000Y-114373000D01*
X82213000Y-114373000D01*
X82213000Y-112928396D01*
X82467000Y-112928396D01*
X82467000Y-114373000D01*
X83911125Y-114373000D01*
X84029175Y-114103878D01*
X83814534Y-113585668D01*
X83641079Y-113400000D01*
X90752560Y-113400000D01*
X90752560Y-115600000D01*
X90801843Y-115847765D01*
X90942191Y-116057809D01*
X91152235Y-116198157D01*
X91400000Y-116247440D01*
X93600000Y-116247440D01*
X93822001Y-116203282D01*
X93852777Y-116358003D01*
X94052736Y-116657264D01*
X94351997Y-116857223D01*
X94705000Y-116927440D01*
X95955000Y-116927440D01*
X96228687Y-116873000D01*
X97273000Y-116873000D01*
X97273000Y-115973750D01*
X97527000Y-115973750D01*
X97527000Y-116873000D01*
X98776250Y-116873000D01*
X98935000Y-116714250D01*
X98935000Y-116323691D01*
X98838327Y-116090302D01*
X98659699Y-115911673D01*
X98426310Y-115815000D01*
X97685750Y-115815000D01*
X97527000Y-115973750D01*
X97273000Y-115973750D01*
X97114250Y-115815000D01*
X96877440Y-115815000D01*
X96877440Y-115657440D01*
X98025000Y-115657440D01*
X98378003Y-115587223D01*
X98677264Y-115387264D01*
X98877223Y-115088003D01*
X98947440Y-114735000D01*
X98947440Y-114185000D01*
X98877223Y-113831997D01*
X98677264Y-113532736D01*
X98378003Y-113332777D01*
X98025000Y-113262560D01*
X96775000Y-113262560D01*
X96421997Y-113332777D01*
X96122736Y-113532736D01*
X95922777Y-113831997D01*
X95852560Y-114185000D01*
X95852560Y-114532560D01*
X94705000Y-114532560D01*
X94351997Y-114602777D01*
X94247440Y-114672639D01*
X94247440Y-113400000D01*
X94198157Y-113152235D01*
X94057809Y-112942191D01*
X93847765Y-112801843D01*
X93600000Y-112752560D01*
X91400000Y-112752560D01*
X91152235Y-112801843D01*
X90942191Y-112942191D01*
X90801843Y-113152235D01*
X90752560Y-113400000D01*
X83641079Y-113400000D01*
X83352392Y-113090988D01*
X82736123Y-112810817D01*
X82467000Y-112928396D01*
X82213000Y-112928396D01*
X81943877Y-112810817D01*
X81327608Y-113090988D01*
X80865466Y-113585668D01*
X80830817Y-113669321D01*
X80694577Y-113465423D01*
X80219909Y-113148260D01*
X79801333Y-113065000D01*
X79518667Y-113065000D01*
X79100091Y-113148260D01*
X78625423Y-113465423D01*
X78308260Y-113940091D01*
X78196887Y-114500000D01*
X70936630Y-114500000D01*
X70919778Y-114146546D01*
X70753864Y-113745995D01*
X70507745Y-113671861D01*
X69679605Y-114500000D01*
X69320395Y-114500000D01*
X68492255Y-113671861D01*
X68246136Y-113745995D01*
X68053035Y-114283223D01*
X62210000Y-114283223D01*
X62210000Y-113492255D01*
X68671861Y-113492255D01*
X69500000Y-114320395D01*
X70328139Y-113492255D01*
X70254005Y-113246136D01*
X69716777Y-113053035D01*
X69146546Y-113080222D01*
X68745995Y-113246136D01*
X68671861Y-113492255D01*
X62210000Y-113492255D01*
X62210000Y-109542608D01*
X62228355Y-109586924D01*
X62618642Y-110015183D01*
X63143108Y-110261486D01*
X63373000Y-110140819D01*
X63373000Y-108947000D01*
X63627000Y-108947000D01*
X63627000Y-110140819D01*
X63856892Y-110261486D01*
X64381358Y-110015183D01*
X64771645Y-109586924D01*
X64941476Y-109176890D01*
X64820155Y-108947000D01*
X63627000Y-108947000D01*
X63373000Y-108947000D01*
X63353000Y-108947000D01*
X63353000Y-108693000D01*
X63373000Y-108693000D01*
X63373000Y-108673000D01*
X63627000Y-108673000D01*
X63627000Y-108693000D01*
X64820155Y-108693000D01*
X64941476Y-108463110D01*
X64771645Y-108053076D01*
X64381358Y-107624817D01*
X64251522Y-107563843D01*
X64570625Y-107350625D01*
X64898839Y-106859418D01*
X64976651Y-106468229D01*
X67991752Y-109483331D01*
X68042486Y-109738386D01*
X68359649Y-110213054D01*
X68834317Y-110530217D01*
X69252893Y-110613477D01*
X69535559Y-110613477D01*
X69954135Y-110530217D01*
X70428803Y-110213054D01*
X70745966Y-109738386D01*
X70857339Y-109178477D01*
X71431113Y-109178477D01*
X71542486Y-109738386D01*
X71859649Y-110213054D01*
X72334317Y-110530217D01*
X72752893Y-110613477D01*
X73035559Y-110613477D01*
X73454135Y-110530217D01*
X73928803Y-110213054D01*
X74245966Y-109738386D01*
X74283303Y-109550678D01*
X77742760Y-109550678D01*
X77854133Y-110110587D01*
X78171296Y-110585255D01*
X78645964Y-110902418D01*
X79064540Y-110985678D01*
X79347206Y-110985678D01*
X79765782Y-110902418D01*
X80240450Y-110585255D01*
X80557613Y-110110587D01*
X80668986Y-109550678D01*
X80742760Y-109550678D01*
X80854133Y-110110587D01*
X81171296Y-110585255D01*
X81645964Y-110902418D01*
X82064540Y-110985678D01*
X82347206Y-110985678D01*
X82765782Y-110902418D01*
X83240450Y-110585255D01*
X83557613Y-110110587D01*
X83668986Y-109550678D01*
X83580383Y-109105239D01*
X83770873Y-109105239D01*
X83770873Y-109676117D01*
X83989339Y-110203540D01*
X84393011Y-110607212D01*
X84920434Y-110825678D01*
X85491312Y-110825678D01*
X86018735Y-110607212D01*
X86422407Y-110203540D01*
X86459310Y-110114447D01*
X87603695Y-110114447D01*
X87677829Y-110360566D01*
X88215057Y-110553667D01*
X88785288Y-110526480D01*
X89185839Y-110360566D01*
X89259973Y-110114447D01*
X88431834Y-109286307D01*
X87603695Y-110114447D01*
X86459310Y-110114447D01*
X86640873Y-109676117D01*
X86640873Y-109105239D01*
X86551687Y-108889925D01*
X86984869Y-108889925D01*
X87012056Y-109460156D01*
X87177970Y-109860707D01*
X87424089Y-109934841D01*
X88252229Y-109106702D01*
X88611439Y-109106702D01*
X89439579Y-109934841D01*
X89685698Y-109860707D01*
X89878799Y-109323479D01*
X89864619Y-109026047D01*
X90038391Y-109026047D01*
X90038391Y-109596925D01*
X90256857Y-110124348D01*
X90660529Y-110528020D01*
X91187952Y-110746486D01*
X91758830Y-110746486D01*
X92286253Y-110528020D01*
X92689925Y-110124348D01*
X92908391Y-109596925D01*
X92908391Y-109026047D01*
X93038391Y-109026047D01*
X93038391Y-109596925D01*
X93256857Y-110124348D01*
X93660529Y-110528020D01*
X94187952Y-110746486D01*
X94758830Y-110746486D01*
X95286253Y-110528020D01*
X95689925Y-110124348D01*
X95846814Y-109745583D01*
X96367176Y-109745583D01*
X96606701Y-110251676D01*
X97021667Y-110627583D01*
X97410051Y-110788446D01*
X97632090Y-110666457D01*
X97632090Y-109523542D01*
X97886090Y-109523542D01*
X97886090Y-110666457D01*
X98108129Y-110788446D01*
X98496513Y-110627583D01*
X98911479Y-110251676D01*
X99151004Y-109745583D01*
X99029719Y-109523542D01*
X97886090Y-109523542D01*
X97632090Y-109523542D01*
X96488461Y-109523542D01*
X96367176Y-109745583D01*
X95846814Y-109745583D01*
X95908391Y-109596925D01*
X95908391Y-109047501D01*
X96367176Y-109047501D01*
X96488461Y-109269542D01*
X97632090Y-109269542D01*
X97632090Y-108126627D01*
X97886090Y-108126627D01*
X97886090Y-109269542D01*
X99029719Y-109269542D01*
X99151004Y-109047501D01*
X98911479Y-108541408D01*
X98496513Y-108165501D01*
X98108129Y-108004638D01*
X97886090Y-108126627D01*
X97632090Y-108126627D01*
X97410051Y-108004638D01*
X97021667Y-108165501D01*
X96606701Y-108541408D01*
X96367176Y-109047501D01*
X95908391Y-109047501D01*
X95908391Y-109026047D01*
X95689925Y-108498624D01*
X95286253Y-108094952D01*
X94758830Y-107876486D01*
X94187952Y-107876486D01*
X93660529Y-108094952D01*
X93256857Y-108498624D01*
X93038391Y-109026047D01*
X92908391Y-109026047D01*
X92689925Y-108498624D01*
X92286253Y-108094952D01*
X91758830Y-107876486D01*
X91187952Y-107876486D01*
X90660529Y-108094952D01*
X90256857Y-108498624D01*
X90038391Y-109026047D01*
X89864619Y-109026047D01*
X89851612Y-108753248D01*
X89685698Y-108352697D01*
X89439579Y-108278563D01*
X88611439Y-109106702D01*
X88252229Y-109106702D01*
X87424089Y-108278563D01*
X87177970Y-108352697D01*
X86984869Y-108889925D01*
X86551687Y-108889925D01*
X86422407Y-108577816D01*
X86018735Y-108174144D01*
X85837218Y-108098957D01*
X87603695Y-108098957D01*
X88431834Y-108927097D01*
X89259973Y-108098957D01*
X89185839Y-107852838D01*
X88648611Y-107659737D01*
X88078380Y-107686924D01*
X87677829Y-107852838D01*
X87603695Y-108098957D01*
X85837218Y-108098957D01*
X85491312Y-107955678D01*
X84920434Y-107955678D01*
X84393011Y-108174144D01*
X83989339Y-108577816D01*
X83770873Y-109105239D01*
X83580383Y-109105239D01*
X83557613Y-108990769D01*
X83240450Y-108516101D01*
X82765782Y-108198938D01*
X82347206Y-108115678D01*
X82064540Y-108115678D01*
X81645964Y-108198938D01*
X81171296Y-108516101D01*
X80854133Y-108990769D01*
X80742760Y-109550678D01*
X80668986Y-109550678D01*
X80557613Y-108990769D01*
X80240450Y-108516101D01*
X79765782Y-108198938D01*
X79347206Y-108115678D01*
X79064540Y-108115678D01*
X78645964Y-108198938D01*
X78171296Y-108516101D01*
X77854133Y-108990769D01*
X77742760Y-109550678D01*
X74283303Y-109550678D01*
X74357339Y-109178477D01*
X74245966Y-108618568D01*
X73928803Y-108143900D01*
X73454135Y-107826737D01*
X73035559Y-107743477D01*
X72752893Y-107743477D01*
X72334317Y-107826737D01*
X71859649Y-108143900D01*
X71542486Y-108618568D01*
X71431113Y-109178477D01*
X70857339Y-109178477D01*
X70745966Y-108618568D01*
X70428803Y-108143900D01*
X69954135Y-107826737D01*
X69535559Y-107743477D01*
X69252893Y-107743477D01*
X68837652Y-107826074D01*
X68138203Y-107126624D01*
X68202536Y-107139421D01*
X68202539Y-107139421D01*
X68289700Y-107156758D01*
X68376861Y-107139421D01*
X81175710Y-107139421D01*
X81413720Y-107377431D01*
X81794126Y-107535000D01*
X82205874Y-107535000D01*
X82586280Y-107377431D01*
X82877431Y-107086280D01*
X83035000Y-106705874D01*
X83035000Y-106294126D01*
X82877431Y-105913720D01*
X82848711Y-105885000D01*
X94955384Y-105885000D01*
X95317517Y-106035000D01*
X95729265Y-106035000D01*
X96109671Y-105877431D01*
X96400822Y-105586280D01*
X96558391Y-105205874D01*
X96558391Y-104794126D01*
X96400822Y-104413720D01*
X96109671Y-104122569D01*
X95729265Y-103965000D01*
X95317517Y-103965000D01*
X94955384Y-104115000D01*
X88666882Y-104115000D01*
X88815619Y-104015617D01*
X88886472Y-103909578D01*
X89486470Y-103309580D01*
X89696313Y-102995529D01*
X89794879Y-102500000D01*
X89696313Y-102004471D01*
X89415618Y-101584382D01*
X88995529Y-101303687D01*
X88500000Y-101205121D01*
X88004471Y-101303687D01*
X87690420Y-101513530D01*
X87373951Y-101829999D01*
X85878892Y-101829999D01*
X86008391Y-101517360D01*
X86008391Y-101105612D01*
X85850822Y-100725206D01*
X85717615Y-100591999D01*
X85765782Y-100582418D01*
X86240450Y-100265255D01*
X86557613Y-99790587D01*
X86668986Y-99230678D01*
X86644326Y-99106702D01*
X86968721Y-99106702D01*
X87080094Y-99666611D01*
X87397257Y-100141279D01*
X87871925Y-100458442D01*
X88290501Y-100541702D01*
X88573167Y-100541702D01*
X88991743Y-100458442D01*
X89466411Y-100141279D01*
X89783574Y-99666611D01*
X89886038Y-99151486D01*
X90010278Y-99151486D01*
X90121651Y-99711395D01*
X90438814Y-100186063D01*
X90913482Y-100503226D01*
X90981400Y-100516736D01*
X91054403Y-100692982D01*
X91345554Y-100984133D01*
X91707687Y-101134133D01*
X91744409Y-101170855D01*
X91793785Y-101244751D01*
X92086524Y-101440354D01*
X92344669Y-101491702D01*
X92344673Y-101491702D01*
X92431834Y-101509039D01*
X92518995Y-101491702D01*
X96863827Y-101491702D01*
X97225960Y-101641702D01*
X97637708Y-101641702D01*
X98018114Y-101484133D01*
X98309265Y-101192982D01*
X98466834Y-100812576D01*
X98466834Y-100496617D01*
X98571952Y-100453076D01*
X98975624Y-100049404D01*
X99194090Y-99521981D01*
X99194090Y-98951103D01*
X98975624Y-98423680D01*
X98571952Y-98020008D01*
X98044529Y-97801542D01*
X97473651Y-97801542D01*
X96946228Y-98020008D01*
X96542556Y-98423680D01*
X96324090Y-98951103D01*
X96324090Y-99521981D01*
X96406817Y-99721702D01*
X95818244Y-99721702D01*
X95825131Y-99711395D01*
X95936504Y-99151486D01*
X95825131Y-98591577D01*
X95507968Y-98116909D01*
X95033300Y-97799746D01*
X94614724Y-97716486D01*
X94332058Y-97716486D01*
X93913482Y-97799746D01*
X93438814Y-98116909D01*
X93121651Y-98591577D01*
X93010278Y-99151486D01*
X93121651Y-99711395D01*
X93128538Y-99721702D01*
X92892638Y-99721702D01*
X92845647Y-99608256D01*
X92936504Y-99151486D01*
X92825131Y-98591577D01*
X92507968Y-98116909D01*
X92033300Y-97799746D01*
X91614724Y-97716486D01*
X91332058Y-97716486D01*
X90913482Y-97799746D01*
X90438814Y-98116909D01*
X90121651Y-98591577D01*
X90010278Y-99151486D01*
X89886038Y-99151486D01*
X89894947Y-99106702D01*
X89783574Y-98546793D01*
X89466411Y-98072125D01*
X88991743Y-97754962D01*
X88573167Y-97671702D01*
X88290501Y-97671702D01*
X87871925Y-97754962D01*
X87397257Y-98072125D01*
X87080094Y-98546793D01*
X86968721Y-99106702D01*
X86644326Y-99106702D01*
X86557613Y-98670769D01*
X86240450Y-98196101D01*
X85765782Y-97878938D01*
X85347206Y-97795678D01*
X85064540Y-97795678D01*
X84645964Y-97878938D01*
X84171296Y-98196101D01*
X83972116Y-98494194D01*
X83637708Y-98355678D01*
X83225960Y-98355678D01*
X83207794Y-98363203D01*
X83018735Y-98174144D01*
X82491312Y-97955678D01*
X81920434Y-97955678D01*
X81393011Y-98174144D01*
X81061477Y-98505678D01*
X80350269Y-98505678D01*
X80018735Y-98174144D01*
X79491312Y-97955678D01*
X78920434Y-97955678D01*
X78393011Y-98174144D01*
X77989339Y-98577816D01*
X77770873Y-99105239D01*
X77770873Y-99676117D01*
X77989339Y-100203540D01*
X78212285Y-100426486D01*
X77041398Y-100426486D01*
X76822931Y-100335994D01*
X77034577Y-100194577D01*
X77351740Y-99719909D01*
X77463113Y-99160000D01*
X77351740Y-98600091D01*
X77034577Y-98125423D01*
X76559909Y-97808260D01*
X76141333Y-97725000D01*
X75858667Y-97725000D01*
X75440091Y-97808260D01*
X74965423Y-98125423D01*
X74648260Y-98600091D01*
X74536887Y-99160000D01*
X74648260Y-99719909D01*
X74965423Y-100194577D01*
X75440091Y-100511740D01*
X75748149Y-100573017D01*
X75595960Y-100725206D01*
X75438391Y-101105612D01*
X75438391Y-101517360D01*
X75567890Y-101829999D01*
X69126049Y-101829999D01*
X68809580Y-101513530D01*
X68495529Y-101303688D01*
X68000000Y-101205121D01*
X67504471Y-101303688D01*
X67084382Y-101584382D01*
X66803688Y-102004471D01*
X66705121Y-102500000D01*
X66803688Y-102995529D01*
X67013530Y-103309580D01*
X67370120Y-103666170D01*
X67122569Y-103913720D01*
X66965000Y-104294126D01*
X66965000Y-104705874D01*
X67122569Y-105086280D01*
X67158351Y-105122062D01*
X67012271Y-105268142D01*
X66854702Y-105648548D01*
X66854702Y-105843123D01*
X64970538Y-103958960D01*
X65014092Y-103740000D01*
X64898839Y-103160582D01*
X64570625Y-102669375D01*
X64272239Y-102470000D01*
X64570625Y-102270625D01*
X64898839Y-101779418D01*
X65014092Y-101200000D01*
X64898839Y-100620582D01*
X64570625Y-100129375D01*
X64272239Y-99930000D01*
X64570625Y-99730625D01*
X64898839Y-99239418D01*
X65014092Y-98660000D01*
X64970538Y-98441040D01*
X65526579Y-97885000D01*
X68498307Y-97885000D01*
X68177692Y-98205615D01*
X67959226Y-98733038D01*
X67959226Y-99303916D01*
X68177692Y-99831339D01*
X68581364Y-100235011D01*
X69108787Y-100453477D01*
X69679665Y-100453477D01*
X70207088Y-100235011D01*
X70610760Y-99831339D01*
X70829226Y-99303916D01*
X70829226Y-98733038D01*
X71459226Y-98733038D01*
X71459226Y-99303916D01*
X71677692Y-99831339D01*
X72081364Y-100235011D01*
X72608787Y-100453477D01*
X73179665Y-100453477D01*
X73707088Y-100235011D01*
X74110760Y-99831339D01*
X74329226Y-99303916D01*
X74329226Y-98733038D01*
X74110760Y-98205615D01*
X73707088Y-97801943D01*
X73179665Y-97583477D01*
X72608787Y-97583477D01*
X72081364Y-97801943D01*
X71677692Y-98205615D01*
X71459226Y-98733038D01*
X70829226Y-98733038D01*
X70610760Y-98205615D01*
X70371529Y-97966384D01*
X70586280Y-97877431D01*
X70877431Y-97586280D01*
X71035000Y-97205874D01*
X71035000Y-96794126D01*
X70877431Y-96413720D01*
X70586280Y-96122569D01*
X70205874Y-95965000D01*
X69985000Y-95965000D01*
X69985000Y-95744126D01*
X69827431Y-95363720D01*
X69536280Y-95072569D01*
X69174148Y-94922569D01*
X68957426Y-94705848D01*
X68908050Y-94631952D01*
X68615311Y-94436349D01*
X68357166Y-94385001D01*
X68357162Y-94385001D01*
X68270001Y-94367664D01*
X68182840Y-94385001D01*
X64748109Y-94385001D01*
X64898839Y-94159418D01*
X65007829Y-93611486D01*
X79525951Y-93611486D01*
X79525951Y-96011486D01*
X79575234Y-96259251D01*
X79715582Y-96469295D01*
X79925626Y-96609643D01*
X80173391Y-96658926D01*
X81773391Y-96658926D01*
X82021156Y-96609643D01*
X82231200Y-96469295D01*
X82371548Y-96259251D01*
X82398176Y-96125379D01*
X82478815Y-96246063D01*
X82953483Y-96563226D01*
X83513391Y-96674599D01*
X84073300Y-96563226D01*
X84547968Y-96246063D01*
X84785890Y-95889987D01*
X85128495Y-96315986D01*
X85621572Y-96585853D01*
X85704352Y-96603390D01*
X85926391Y-96481401D01*
X85926391Y-94938486D01*
X85906391Y-94938486D01*
X85906391Y-94684486D01*
X85926391Y-94684486D01*
X85926391Y-93141571D01*
X86180391Y-93141571D01*
X86180391Y-94684486D01*
X86200391Y-94684486D01*
X86200391Y-94938486D01*
X86180391Y-94938486D01*
X86180391Y-96481401D01*
X86402430Y-96603390D01*
X86485210Y-96585853D01*
X86978287Y-96315986D01*
X87320892Y-95889987D01*
X87558815Y-96246063D01*
X88033483Y-96563226D01*
X88593391Y-96674599D01*
X89153300Y-96563226D01*
X89627968Y-96246063D01*
X89863391Y-95893727D01*
X90098815Y-96246063D01*
X90573483Y-96563226D01*
X91133391Y-96674599D01*
X91527744Y-96596157D01*
X91573225Y-96705959D01*
X91864376Y-96997110D01*
X92244782Y-97154679D01*
X92656530Y-97154679D01*
X93036936Y-96997110D01*
X93328087Y-96705959D01*
X93366373Y-96613529D01*
X93673391Y-96674599D01*
X93686665Y-96671959D01*
X93830225Y-97018544D01*
X94121376Y-97309695D01*
X94501782Y-97467264D01*
X94913530Y-97467264D01*
X95293936Y-97309695D01*
X95585087Y-97018544D01*
X95742656Y-96638138D01*
X95742656Y-96580964D01*
X96213391Y-96674599D01*
X96773300Y-96563226D01*
X97247968Y-96246063D01*
X97565131Y-95771395D01*
X97648391Y-95352818D01*
X97648391Y-94270153D01*
X97565131Y-93851577D01*
X97247967Y-93376909D01*
X96773299Y-93059746D01*
X96213391Y-92948373D01*
X95653482Y-93059746D01*
X95178814Y-93376910D01*
X94943391Y-93729245D01*
X94707967Y-93376909D01*
X94233299Y-93059746D01*
X93673391Y-92948373D01*
X93113482Y-93059746D01*
X92638814Y-93376910D01*
X92403391Y-93729245D01*
X92167967Y-93376909D01*
X91693299Y-93059746D01*
X91133391Y-92948373D01*
X90573482Y-93059746D01*
X90098814Y-93376910D01*
X89863391Y-93729245D01*
X89627967Y-93376909D01*
X89153299Y-93059746D01*
X88593391Y-92948373D01*
X88033482Y-93059746D01*
X87558814Y-93376910D01*
X87320892Y-93732985D01*
X86978287Y-93306986D01*
X86485210Y-93037119D01*
X86402430Y-93019582D01*
X86180391Y-93141571D01*
X85926391Y-93141571D01*
X85704352Y-93019582D01*
X85621572Y-93037119D01*
X85128495Y-93306986D01*
X84785890Y-93732985D01*
X84547967Y-93376909D01*
X84073299Y-93059746D01*
X83513391Y-92948373D01*
X82953482Y-93059746D01*
X82478814Y-93376910D01*
X82398176Y-93497593D01*
X82371548Y-93363721D01*
X82231200Y-93153677D01*
X82021156Y-93013329D01*
X81773391Y-92964046D01*
X80173391Y-92964046D01*
X79925626Y-93013329D01*
X79715582Y-93153677D01*
X79575234Y-93363721D01*
X79525951Y-93611486D01*
X65007829Y-93611486D01*
X65014092Y-93580000D01*
X64898839Y-93000582D01*
X64570625Y-92509375D01*
X64272239Y-92310000D01*
X66334925Y-92310000D01*
X66460000Y-92334879D01*
X66585075Y-92310000D01*
X66585080Y-92310000D01*
X66955529Y-92236313D01*
X67375618Y-91955618D01*
X67446471Y-91849579D01*
X67486470Y-91809580D01*
X67696313Y-91495528D01*
X67794879Y-91000000D01*
X67696313Y-90504471D01*
X67415618Y-90084382D01*
X66995529Y-89803687D01*
X66500000Y-89705121D01*
X66173829Y-89770000D01*
X64828026Y-89770000D01*
X64888327Y-89709699D01*
X64985000Y-89476310D01*
X64985000Y-88785750D01*
X64913811Y-88714561D01*
X74565000Y-88714561D01*
X74565000Y-89285439D01*
X74783466Y-89812862D01*
X75187138Y-90216534D01*
X75714561Y-90435000D01*
X76285439Y-90435000D01*
X76812862Y-90216534D01*
X77216534Y-89812862D01*
X77435000Y-89285439D01*
X77435000Y-88714561D01*
X77216534Y-88187138D01*
X76812862Y-87783466D01*
X76285439Y-87565000D01*
X75714561Y-87565000D01*
X75187138Y-87783466D01*
X74783466Y-88187138D01*
X74565000Y-88714561D01*
X64913811Y-88714561D01*
X64826250Y-88627000D01*
X63627000Y-88627000D01*
X63627000Y-88647000D01*
X63373000Y-88647000D01*
X63373000Y-88627000D01*
X63353000Y-88627000D01*
X63353000Y-88373000D01*
X63373000Y-88373000D01*
X63373000Y-87173750D01*
X63627000Y-87173750D01*
X63627000Y-88373000D01*
X64826250Y-88373000D01*
X64985000Y-88214250D01*
X64985000Y-87523690D01*
X64888327Y-87290301D01*
X64709698Y-87111673D01*
X64476309Y-87015000D01*
X63785750Y-87015000D01*
X63627000Y-87173750D01*
X63373000Y-87173750D01*
X63214250Y-87015000D01*
X62523691Y-87015000D01*
X62290302Y-87111673D01*
X62210000Y-87191975D01*
X62210000Y-82666765D01*
X62246136Y-82754005D01*
X62492255Y-82828139D01*
X63320395Y-82000000D01*
X62492255Y-81171861D01*
X62246136Y-81245995D01*
X62210000Y-81346529D01*
X62210000Y-80992255D01*
X62671861Y-80992255D01*
X63500000Y-81820395D01*
X64328139Y-80992255D01*
X64254005Y-80746136D01*
X63716777Y-80553035D01*
X63146546Y-80580222D01*
X62745995Y-80746136D01*
X62671861Y-80992255D01*
X62210000Y-80992255D01*
X62210000Y-72492309D01*
X62465423Y-72874577D01*
X62940091Y-73191740D01*
X63358667Y-73275000D01*
X63641333Y-73275000D01*
X64059909Y-73191740D01*
X64534577Y-72874577D01*
X64634521Y-72725000D01*
X66615000Y-72725000D01*
X66615001Y-80479419D01*
X64943810Y-82150610D01*
X64919778Y-81646546D01*
X64753864Y-81245995D01*
X64507745Y-81171861D01*
X63679605Y-82000000D01*
X63693748Y-82014143D01*
X63514142Y-82193748D01*
X63500000Y-82179605D01*
X62671861Y-83007745D01*
X62745995Y-83253864D01*
X63283223Y-83446965D01*
X63853454Y-83419778D01*
X63972644Y-83370408D01*
X63965000Y-83408835D01*
X63965000Y-83408838D01*
X63947663Y-83495999D01*
X63965000Y-83583160D01*
X63965001Y-84416836D01*
X63947663Y-84504001D01*
X64016348Y-84849310D01*
X64162576Y-85068155D01*
X64162578Y-85068157D01*
X64211952Y-85142050D01*
X64285845Y-85191424D01*
X65708576Y-86614156D01*
X65757950Y-86688049D01*
X65831843Y-86737423D01*
X65831844Y-86737424D01*
X65912752Y-86791485D01*
X66050689Y-86883652D01*
X66308834Y-86935000D01*
X66308838Y-86935000D01*
X66395999Y-86952337D01*
X66483160Y-86935000D01*
X71931993Y-86935000D01*
X72294126Y-87085000D01*
X72705874Y-87085000D01*
X73086280Y-86927431D01*
X73377431Y-86636280D01*
X73535000Y-86255874D01*
X73535000Y-85885000D01*
X74931993Y-85885000D01*
X75294126Y-86035000D01*
X75705874Y-86035000D01*
X76086280Y-85877431D01*
X76377431Y-85586280D01*
X76535000Y-85205874D01*
X76535000Y-84794126D01*
X76377431Y-84413720D01*
X76219088Y-84255377D01*
X76312862Y-84216534D01*
X76716534Y-83812862D01*
X76935000Y-83285439D01*
X76935000Y-82714561D01*
X76716534Y-82187138D01*
X76312862Y-81783466D01*
X75785439Y-81565000D01*
X75214561Y-81565000D01*
X74687138Y-81783466D01*
X74283466Y-82187138D01*
X74065000Y-82714561D01*
X74065000Y-83285439D01*
X74283466Y-83812862D01*
X74585604Y-84115000D01*
X67266580Y-84115000D01*
X66927432Y-83775852D01*
X66777432Y-83413720D01*
X66486281Y-83122569D01*
X66478310Y-83119267D01*
X66937577Y-82660000D01*
X70536887Y-82660000D01*
X70648260Y-83219909D01*
X70965423Y-83694577D01*
X71440091Y-84011740D01*
X71858667Y-84095000D01*
X72141333Y-84095000D01*
X72559909Y-84011740D01*
X73034577Y-83694577D01*
X73351740Y-83219909D01*
X73463113Y-82660000D01*
X73351740Y-82100091D01*
X73034577Y-81625423D01*
X72559909Y-81308260D01*
X72141333Y-81225000D01*
X71858667Y-81225000D01*
X71440091Y-81308260D01*
X70965423Y-81625423D01*
X70648260Y-82100091D01*
X70536887Y-82660000D01*
X66937577Y-82660000D01*
X68064156Y-81533422D01*
X68138049Y-81484048D01*
X68255508Y-81308260D01*
X68333652Y-81191309D01*
X68354543Y-81086280D01*
X68385000Y-80933164D01*
X68385000Y-80933160D01*
X68402337Y-80845999D01*
X68385000Y-80758838D01*
X68385000Y-76886245D01*
X68744126Y-77035000D01*
X69155874Y-77035000D01*
X69423646Y-76924086D01*
X69478521Y-76935001D01*
X69478526Y-76935001D01*
X69565685Y-76952338D01*
X69652845Y-76935001D01*
X74350105Y-76935001D01*
X74303687Y-77004471D01*
X74205120Y-77500000D01*
X74303687Y-77995529D01*
X74584382Y-78415618D01*
X75004471Y-78696313D01*
X75374920Y-78770000D01*
X87473950Y-78770000D01*
X87690420Y-78986470D01*
X88004471Y-79196313D01*
X88500000Y-79294879D01*
X88995529Y-79196313D01*
X89415618Y-78915618D01*
X89696313Y-78495529D01*
X89794879Y-78000000D01*
X89696313Y-77504471D01*
X89486470Y-77190420D01*
X89231051Y-76935001D01*
X90362838Y-76935001D01*
X90449999Y-76952338D01*
X90537160Y-76935001D01*
X90537164Y-76935001D01*
X90795309Y-76883653D01*
X91088048Y-76688050D01*
X91137424Y-76614154D01*
X91224147Y-76527431D01*
X91586280Y-76377431D01*
X91877431Y-76086280D01*
X92035000Y-75705874D01*
X92035000Y-75294126D01*
X91877431Y-74913720D01*
X91586280Y-74622569D01*
X91205874Y-74465000D01*
X90794126Y-74465000D01*
X90413720Y-74622569D01*
X90122569Y-74913720D01*
X90018485Y-75165001D01*
X79798710Y-75165001D01*
X79877431Y-75086280D01*
X80035000Y-74705874D01*
X80035000Y-74294126D01*
X79884203Y-73930070D01*
X80189925Y-73624348D01*
X80408391Y-73096925D01*
X80408391Y-72526047D01*
X80770873Y-72526047D01*
X80770873Y-73096925D01*
X80989339Y-73624348D01*
X81393011Y-74028020D01*
X81920434Y-74246486D01*
X82491312Y-74246486D01*
X83018735Y-74028020D01*
X83422407Y-73624348D01*
X83640873Y-73096925D01*
X83640873Y-73079719D01*
X83813959Y-73079719D01*
X84053484Y-73585812D01*
X84468450Y-73961719D01*
X84856834Y-74122582D01*
X85078873Y-74000593D01*
X85078873Y-72857678D01*
X85332873Y-72857678D01*
X85332873Y-74000593D01*
X85554912Y-74122582D01*
X85943296Y-73961719D01*
X86358262Y-73585812D01*
X86597787Y-73079719D01*
X86530068Y-72955743D01*
X87039920Y-72955743D01*
X87279445Y-73461836D01*
X87694411Y-73837743D01*
X88082795Y-73998606D01*
X88304834Y-73876617D01*
X88304834Y-72733702D01*
X88558834Y-72733702D01*
X88558834Y-73876617D01*
X88780873Y-73998606D01*
X89169257Y-73837743D01*
X89584223Y-73461836D01*
X89823748Y-72955743D01*
X89702463Y-72733702D01*
X88558834Y-72733702D01*
X88304834Y-72733702D01*
X87161205Y-72733702D01*
X87039920Y-72955743D01*
X86530068Y-72955743D01*
X86476502Y-72857678D01*
X85332873Y-72857678D01*
X85078873Y-72857678D01*
X83935244Y-72857678D01*
X83813959Y-73079719D01*
X83640873Y-73079719D01*
X83640873Y-72526047D01*
X83581057Y-72381637D01*
X83813959Y-72381637D01*
X83935244Y-72603678D01*
X85078873Y-72603678D01*
X85078873Y-71460763D01*
X85332873Y-71460763D01*
X85332873Y-72603678D01*
X86476502Y-72603678D01*
X86597787Y-72381637D01*
X86539112Y-72257661D01*
X87039920Y-72257661D01*
X87161205Y-72479702D01*
X88304834Y-72479702D01*
X88304834Y-71336787D01*
X88558834Y-71336787D01*
X88558834Y-72479702D01*
X89702463Y-72479702D01*
X89789006Y-72321263D01*
X89996834Y-72321263D01*
X89996834Y-72892141D01*
X90215300Y-73419564D01*
X90618972Y-73823236D01*
X91146395Y-74041702D01*
X91717273Y-74041702D01*
X92244696Y-73823236D01*
X92648368Y-73419564D01*
X92821938Y-73000527D01*
X93313959Y-73000527D01*
X93553484Y-73506620D01*
X93968450Y-73882527D01*
X94356834Y-74043390D01*
X94578873Y-73921401D01*
X94578873Y-72778486D01*
X94832873Y-72778486D01*
X94832873Y-73921401D01*
X95054912Y-74043390D01*
X95443296Y-73882527D01*
X95858262Y-73506620D01*
X96097787Y-73000527D01*
X95976502Y-72778486D01*
X94832873Y-72778486D01*
X94578873Y-72778486D01*
X93435244Y-72778486D01*
X93313959Y-73000527D01*
X92821938Y-73000527D01*
X92866834Y-72892141D01*
X92866834Y-72651486D01*
X96242760Y-72651486D01*
X96354133Y-73211395D01*
X96671296Y-73686063D01*
X97145964Y-74003226D01*
X97564540Y-74086486D01*
X97847206Y-74086486D01*
X98265782Y-74003226D01*
X98740450Y-73686063D01*
X99057613Y-73211395D01*
X99168986Y-72651486D01*
X99057613Y-72091577D01*
X98740450Y-71616909D01*
X98265782Y-71299746D01*
X97847206Y-71216486D01*
X97564540Y-71216486D01*
X97145964Y-71299746D01*
X96671296Y-71616909D01*
X96354133Y-72091577D01*
X96242760Y-72651486D01*
X92866834Y-72651486D01*
X92866834Y-72321263D01*
X92859040Y-72302445D01*
X93313959Y-72302445D01*
X93435244Y-72524486D01*
X94578873Y-72524486D01*
X94578873Y-71381571D01*
X94832873Y-71381571D01*
X94832873Y-72524486D01*
X95976502Y-72524486D01*
X96097787Y-72302445D01*
X95858262Y-71796352D01*
X95443296Y-71420445D01*
X95054912Y-71259582D01*
X94832873Y-71381571D01*
X94578873Y-71381571D01*
X94356834Y-71259582D01*
X93968450Y-71420445D01*
X93553484Y-71796352D01*
X93313959Y-72302445D01*
X92859040Y-72302445D01*
X92648368Y-71793840D01*
X92244696Y-71390168D01*
X91717273Y-71171702D01*
X91146395Y-71171702D01*
X90618972Y-71390168D01*
X90215300Y-71793840D01*
X89996834Y-72321263D01*
X89789006Y-72321263D01*
X89823748Y-72257661D01*
X89584223Y-71751568D01*
X89169257Y-71375661D01*
X88780873Y-71214798D01*
X88558834Y-71336787D01*
X88304834Y-71336787D01*
X88082795Y-71214798D01*
X87694411Y-71375661D01*
X87279445Y-71751568D01*
X87039920Y-72257661D01*
X86539112Y-72257661D01*
X86358262Y-71875544D01*
X85943296Y-71499637D01*
X85554912Y-71338774D01*
X85332873Y-71460763D01*
X85078873Y-71460763D01*
X84856834Y-71338774D01*
X84468450Y-71499637D01*
X84053484Y-71875544D01*
X83813959Y-72381637D01*
X83581057Y-72381637D01*
X83422407Y-71998624D01*
X83018735Y-71594952D01*
X82491312Y-71376486D01*
X81920434Y-71376486D01*
X81393011Y-71594952D01*
X80989339Y-71998624D01*
X80770873Y-72526047D01*
X80408391Y-72526047D01*
X80189925Y-71998624D01*
X79786253Y-71594952D01*
X79258830Y-71376486D01*
X78687952Y-71376486D01*
X78160529Y-71594952D01*
X77756857Y-71998624D01*
X77538391Y-72526047D01*
X77538391Y-73096925D01*
X77756857Y-73624348D01*
X78100210Y-73967701D01*
X78039196Y-74115000D01*
X76174759Y-74115000D01*
X76534577Y-73874577D01*
X76851740Y-73399909D01*
X76963113Y-72840000D01*
X76851740Y-72280091D01*
X76534577Y-71805423D01*
X76059909Y-71488260D01*
X75641333Y-71405000D01*
X75358667Y-71405000D01*
X74940091Y-71488260D01*
X74465423Y-71805423D01*
X74148260Y-72280091D01*
X74036887Y-72840000D01*
X74148260Y-73399909D01*
X74465423Y-73874577D01*
X74825241Y-74115000D01*
X70568007Y-74115000D01*
X70205874Y-73965000D01*
X69794126Y-73965000D01*
X69413720Y-74122569D01*
X69122569Y-74413720D01*
X68965000Y-74794126D01*
X68965000Y-74965000D01*
X68744126Y-74965000D01*
X68385000Y-75113755D01*
X68385000Y-73507745D01*
X71171861Y-73507745D01*
X71245995Y-73753864D01*
X71783223Y-73946965D01*
X72353454Y-73919778D01*
X72754005Y-73753864D01*
X72828139Y-73507745D01*
X72000000Y-72679605D01*
X71171861Y-73507745D01*
X68385000Y-73507745D01*
X68385000Y-72283223D01*
X70553035Y-72283223D01*
X70580222Y-72853454D01*
X70746136Y-73254005D01*
X70992255Y-73328139D01*
X71820395Y-72500000D01*
X72179605Y-72500000D01*
X73007745Y-73328139D01*
X73253864Y-73254005D01*
X73446965Y-72716777D01*
X73419778Y-72146546D01*
X73253864Y-71745995D01*
X73007745Y-71671861D01*
X72179605Y-72500000D01*
X71820395Y-72500000D01*
X70992255Y-71671861D01*
X70746136Y-71745995D01*
X70553035Y-72283223D01*
X68385000Y-72283223D01*
X68385000Y-72087159D01*
X68402337Y-71999999D01*
X68385000Y-71912840D01*
X68385000Y-71492255D01*
X71171861Y-71492255D01*
X72000000Y-72320395D01*
X72828139Y-71492255D01*
X72754005Y-71246136D01*
X72216777Y-71053035D01*
X71646546Y-71080222D01*
X71245995Y-71246136D01*
X71171861Y-71492255D01*
X68385000Y-71492255D01*
X68385000Y-69087161D01*
X68402337Y-69000000D01*
X68385000Y-68912839D01*
X68385000Y-68912835D01*
X68333652Y-68654690D01*
X68138049Y-68361951D01*
X68064156Y-68312577D01*
X66636578Y-66885000D01*
X75475604Y-66885000D01*
X75163466Y-67197138D01*
X74945000Y-67724561D01*
X74945000Y-68295439D01*
X75163466Y-68822862D01*
X75567138Y-69226534D01*
X76094561Y-69445000D01*
X76665439Y-69445000D01*
X77192862Y-69226534D01*
X77596534Y-68822862D01*
X77650000Y-68693784D01*
X77703466Y-68822862D01*
X78107138Y-69226534D01*
X78634561Y-69445000D01*
X79205439Y-69445000D01*
X79732862Y-69226534D01*
X80136534Y-68822862D01*
X80190000Y-68693784D01*
X80243466Y-68822862D01*
X80647138Y-69226534D01*
X81174561Y-69445000D01*
X81745439Y-69445000D01*
X82272862Y-69226534D01*
X82481651Y-69017745D01*
X83171861Y-69017745D01*
X83245995Y-69263864D01*
X83783223Y-69456965D01*
X84353454Y-69429778D01*
X84754005Y-69263864D01*
X84828139Y-69017745D01*
X84000000Y-68189605D01*
X83171861Y-69017745D01*
X82481651Y-69017745D01*
X82676534Y-68822862D01*
X82723525Y-68709417D01*
X82746136Y-68764005D01*
X82992255Y-68838139D01*
X83820395Y-68010000D01*
X82992255Y-67181861D01*
X82746136Y-67255995D01*
X82725126Y-67314448D01*
X82676534Y-67197138D01*
X82272862Y-66793466D01*
X81745439Y-66575000D01*
X81174561Y-66575000D01*
X80647138Y-66793466D01*
X80243466Y-67197138D01*
X80190000Y-67326216D01*
X80136534Y-67197138D01*
X79732862Y-66793466D01*
X79205439Y-66575000D01*
X78634561Y-66575000D01*
X78107138Y-66793466D01*
X77703466Y-67197138D01*
X77650000Y-67326216D01*
X77596534Y-67197138D01*
X77192862Y-66793466D01*
X77063784Y-66740000D01*
X77192862Y-66686534D01*
X77524396Y-66355000D01*
X83806677Y-66355000D01*
X83942191Y-66557809D01*
X83967779Y-66574907D01*
X83646546Y-66590222D01*
X83245995Y-66756136D01*
X83171861Y-67002255D01*
X84000000Y-67830395D01*
X84828139Y-67002255D01*
X84754005Y-66756136D01*
X84729812Y-66747440D01*
X85838254Y-66747440D01*
X85727138Y-66793466D01*
X85323466Y-67197138D01*
X85276475Y-67310583D01*
X85253864Y-67255995D01*
X85007745Y-67181861D01*
X84179605Y-68010000D01*
X85007745Y-68838139D01*
X85253864Y-68764005D01*
X85274874Y-68705552D01*
X85323466Y-68822862D01*
X85727138Y-69226534D01*
X86254561Y-69445000D01*
X86825439Y-69445000D01*
X87352862Y-69226534D01*
X87756534Y-68822862D01*
X87810000Y-68693784D01*
X87863466Y-68822862D01*
X88267138Y-69226534D01*
X88794561Y-69445000D01*
X89365439Y-69445000D01*
X89892862Y-69226534D01*
X90296534Y-68822862D01*
X90350000Y-68693784D01*
X90403466Y-68822862D01*
X90807138Y-69226534D01*
X91334561Y-69445000D01*
X91905439Y-69445000D01*
X92432862Y-69226534D01*
X92836534Y-68822862D01*
X92843158Y-68806869D01*
X92913720Y-68877431D01*
X93294126Y-69035000D01*
X93705874Y-69035000D01*
X94086280Y-68877431D01*
X94377431Y-68586280D01*
X94535000Y-68205874D01*
X94535000Y-67794126D01*
X94385000Y-67431993D01*
X94385000Y-59916890D01*
X97558524Y-59916890D01*
X97728355Y-60326924D01*
X98118642Y-60755183D01*
X98643108Y-61001486D01*
X98873000Y-60880819D01*
X98873000Y-59687000D01*
X99127000Y-59687000D01*
X99127000Y-60880819D01*
X99356892Y-61001486D01*
X99881358Y-60755183D01*
X100271645Y-60326924D01*
X100441476Y-59916890D01*
X100320155Y-59687000D01*
X99127000Y-59687000D01*
X98873000Y-59687000D01*
X97679845Y-59687000D01*
X97558524Y-59916890D01*
X94385000Y-59916890D01*
X94385000Y-59817159D01*
X94402337Y-59729999D01*
X94385000Y-59642839D01*
X94385000Y-59642835D01*
X94333652Y-59384690D01*
X94238535Y-59242338D01*
X94187424Y-59165845D01*
X94187423Y-59165844D01*
X94138049Y-59091951D01*
X94064156Y-59042577D01*
X93055000Y-58033422D01*
X93055000Y-57564561D01*
X92836534Y-57037138D01*
X92432862Y-56633466D01*
X92303784Y-56580000D01*
X92432862Y-56526534D01*
X92836534Y-56122862D01*
X93055000Y-55595439D01*
X93055000Y-55126579D01*
X93634157Y-54547422D01*
X93708050Y-54498048D01*
X93770432Y-54404688D01*
X93835556Y-54307223D01*
X93903653Y-54205309D01*
X93955001Y-53947164D01*
X93955001Y-53947159D01*
X93972338Y-53860000D01*
X93955001Y-53772840D01*
X93955001Y-52959383D01*
X94571671Y-52342714D01*
X94672559Y-52586280D01*
X94963710Y-52877431D01*
X95344116Y-53035000D01*
X95755864Y-53035000D01*
X96136270Y-52877431D01*
X96188701Y-52825000D01*
X97805344Y-52825000D01*
X97929375Y-53010625D01*
X98227761Y-53210000D01*
X97929375Y-53409375D01*
X97601161Y-53900582D01*
X97485908Y-54480000D01*
X97601161Y-55059418D01*
X97929375Y-55550625D01*
X98227761Y-55750000D01*
X97929375Y-55949375D01*
X97601161Y-56440582D01*
X97485908Y-57020000D01*
X97601161Y-57599418D01*
X97929375Y-58090625D01*
X98248478Y-58303843D01*
X98118642Y-58364817D01*
X97728355Y-58793076D01*
X97558524Y-59203110D01*
X97679845Y-59433000D01*
X98873000Y-59433000D01*
X98873000Y-59413000D01*
X99127000Y-59413000D01*
X99127000Y-59433000D01*
X100320155Y-59433000D01*
X100441476Y-59203110D01*
X100271645Y-58793076D01*
X99881358Y-58364817D01*
X99751522Y-58303843D01*
X100070625Y-58090625D01*
X100398839Y-57599418D01*
X100514092Y-57020000D01*
X100398839Y-56440582D01*
X100070625Y-55949375D01*
X99772239Y-55750000D01*
X100070625Y-55550625D01*
X100398839Y-55059418D01*
X100514092Y-54480000D01*
X100398839Y-53900582D01*
X100070625Y-53409375D01*
X99772239Y-53210000D01*
X100070625Y-53010625D01*
X100398839Y-52519418D01*
X100514092Y-51940000D01*
X100398839Y-51360582D01*
X100070625Y-50869375D01*
X99772239Y-50670000D01*
X100070625Y-50470625D01*
X100398839Y-49979418D01*
X100514092Y-49400000D01*
X100398839Y-48820582D01*
X100070625Y-48329375D01*
X99772239Y-48130000D01*
X100070625Y-47930625D01*
X100398839Y-47439418D01*
X100514092Y-46860000D01*
X100398839Y-46280582D01*
X100070625Y-45789375D01*
X99772239Y-45590000D01*
X100070625Y-45390625D01*
X100398839Y-44899418D01*
X100514092Y-44320000D01*
X100398839Y-43740582D01*
X100070625Y-43249375D01*
X99772239Y-43050000D01*
X100070625Y-42850625D01*
X100398839Y-42359418D01*
X100514092Y-41780000D01*
X100398839Y-41200582D01*
X100070625Y-40709375D01*
X99772239Y-40510000D01*
X100070625Y-40310625D01*
X100398839Y-39819418D01*
X100514092Y-39240000D01*
X100398839Y-38660582D01*
X100070625Y-38169375D01*
X99772239Y-37970000D01*
X100070625Y-37770625D01*
X100398839Y-37279418D01*
X100514092Y-36700000D01*
X100398839Y-36120582D01*
X100070625Y-35629375D01*
X99772239Y-35430000D01*
X100070625Y-35230625D01*
X100398839Y-34739418D01*
X100514092Y-34160000D01*
X100398839Y-33580582D01*
X100070625Y-33089375D01*
X99772239Y-32890000D01*
X100070625Y-32690625D01*
X100398839Y-32199418D01*
X100514092Y-31620000D01*
X100398839Y-31040582D01*
X100070625Y-30549375D01*
X99772239Y-30350000D01*
X100070625Y-30150625D01*
X100398839Y-29659418D01*
X100514092Y-29080000D01*
X100398839Y-28500582D01*
X100070625Y-28009375D01*
X99751522Y-27796157D01*
X99881358Y-27735183D01*
X100271645Y-27306924D01*
X100441476Y-26896890D01*
X100320155Y-26667000D01*
X99127000Y-26667000D01*
X99127000Y-26687000D01*
X98873000Y-26687000D01*
X98873000Y-26667000D01*
X97679845Y-26667000D01*
X97558524Y-26896890D01*
X97696494Y-27230000D01*
X90874920Y-27230000D01*
X90504471Y-27303687D01*
X90084382Y-27584382D01*
X89803687Y-28004471D01*
X89705120Y-28500000D01*
X89803687Y-28995529D01*
X90084382Y-29415618D01*
X90504471Y-29696313D01*
X90874920Y-29770000D01*
X97675050Y-29770000D01*
X97929375Y-30150625D01*
X98227761Y-30350000D01*
X97929375Y-30549375D01*
X97805344Y-30735000D01*
X96986579Y-30735000D01*
X96687425Y-30435846D01*
X96638049Y-30361951D01*
X96345310Y-30166348D01*
X96087165Y-30115000D01*
X96087161Y-30115000D01*
X96000000Y-30097663D01*
X95912839Y-30115000D01*
X92568007Y-30115000D01*
X92205874Y-29965000D01*
X91794126Y-29965000D01*
X91413720Y-30122569D01*
X91166740Y-30369549D01*
X90733036Y-29935845D01*
X90683661Y-29861951D01*
X90560155Y-29779427D01*
X90390921Y-29666348D01*
X90045612Y-29597663D01*
X90045611Y-29597663D01*
X89959871Y-29614718D01*
X89700303Y-29666348D01*
X89700302Y-29666349D01*
X89700301Y-29666349D01*
X89481457Y-29812576D01*
X89481455Y-29812578D01*
X89407563Y-29861951D01*
X89358189Y-29935844D01*
X88370301Y-30923732D01*
X88370301Y-30553308D01*
X88520301Y-30191175D01*
X88520301Y-29779427D01*
X88362732Y-29399021D01*
X88071581Y-29107870D01*
X87691175Y-28950301D01*
X87279427Y-28950301D01*
X87225001Y-28972845D01*
X87225001Y-24285750D01*
X97515000Y-24285750D01*
X97515000Y-24976310D01*
X97611673Y-25209699D01*
X97790302Y-25388327D01*
X97999878Y-25475136D01*
X97728355Y-25773076D01*
X97558524Y-26183110D01*
X97679845Y-26413000D01*
X98873000Y-26413000D01*
X98873000Y-24127000D01*
X99127000Y-24127000D01*
X99127000Y-26413000D01*
X100320155Y-26413000D01*
X100441476Y-26183110D01*
X100271645Y-25773076D01*
X100000122Y-25475136D01*
X100209698Y-25388327D01*
X100388327Y-25209699D01*
X100485000Y-24976310D01*
X100485000Y-24285750D01*
X100326250Y-24127000D01*
X99127000Y-24127000D01*
X98873000Y-24127000D01*
X97673750Y-24127000D01*
X97515000Y-24285750D01*
X87225001Y-24285750D01*
X87225001Y-23023690D01*
X97515000Y-23023690D01*
X97515000Y-23714250D01*
X97673750Y-23873000D01*
X98873000Y-23873000D01*
X98873000Y-22673750D01*
X99127000Y-22673750D01*
X99127000Y-23873000D01*
X100326250Y-23873000D01*
X100485000Y-23714250D01*
X100485000Y-23023690D01*
X100388327Y-22790301D01*
X100209698Y-22611673D01*
X99976309Y-22515000D01*
X99285750Y-22515000D01*
X99127000Y-22673750D01*
X98873000Y-22673750D01*
X98714250Y-22515000D01*
X98023691Y-22515000D01*
X97790302Y-22611673D01*
X97611673Y-22790301D01*
X97515000Y-23023690D01*
X87225001Y-23023690D01*
X87225001Y-21646577D01*
X90401040Y-18470538D01*
X90473744Y-18485000D01*
X90766256Y-18485000D01*
X91199418Y-18398839D01*
X91690625Y-18070625D01*
X91890000Y-17772239D01*
X92089375Y-18070625D01*
X92580582Y-18398839D01*
X93013744Y-18485000D01*
X93306256Y-18485000D01*
X93739418Y-18398839D01*
X94230625Y-18070625D01*
X94443843Y-17751522D01*
X94504817Y-17881358D01*
X94933076Y-18271645D01*
X95343110Y-18441476D01*
X95573000Y-18320155D01*
X95573000Y-17127000D01*
X95827000Y-17127000D01*
X95827000Y-18320155D01*
X96056890Y-18441476D01*
X96466924Y-18271645D01*
X96895183Y-17881358D01*
X97141486Y-17356892D01*
X97020819Y-17127000D01*
X95827000Y-17127000D01*
X95573000Y-17127000D01*
X95553000Y-17127000D01*
X95553000Y-16873000D01*
X95573000Y-16873000D01*
X95573000Y-16853000D01*
X95827000Y-16853000D01*
X95827000Y-16873000D01*
X97020819Y-16873000D01*
X97141486Y-16643108D01*
X96895183Y-16118642D01*
X96466924Y-15728355D01*
X96422608Y-15710000D01*
X101040000Y-15710000D01*
X101040001Y-69465000D01*
G36*
X62400000Y-60087440D02*
X62615000Y-60087440D01*
X62615001Y-65066836D01*
X62597663Y-65154001D01*
X62666348Y-65499310D01*
X62812576Y-65718155D01*
X62812578Y-65718157D01*
X62861952Y-65792050D01*
X62935845Y-65841424D01*
X63911696Y-66817276D01*
X63896122Y-66810825D01*
X63627000Y-66928875D01*
X63627000Y-68373000D01*
X65071604Y-68373000D01*
X65189183Y-68103877D01*
X65053210Y-67804788D01*
X66615000Y-69366579D01*
X66615001Y-70955000D01*
X64634521Y-70955000D01*
X64534577Y-70805423D01*
X64059909Y-70488260D01*
X63641333Y-70405000D01*
X63358667Y-70405000D01*
X62940091Y-70488260D01*
X62465423Y-70805423D01*
X62210000Y-71187691D01*
X62210000Y-69623576D01*
X62585668Y-69974534D01*
X63103878Y-70189175D01*
X63373000Y-70071125D01*
X63373000Y-68627000D01*
X63627000Y-68627000D01*
X63627000Y-70071125D01*
X63896122Y-70189175D01*
X64414332Y-69974534D01*
X64909012Y-69512392D01*
X65189183Y-68896123D01*
X65071604Y-68627000D01*
X63627000Y-68627000D01*
X63373000Y-68627000D01*
X63353000Y-68627000D01*
X63353000Y-68373000D01*
X63373000Y-68373000D01*
X63373000Y-66928875D01*
X63103878Y-66810825D01*
X62585668Y-67025466D01*
X62210000Y-67376424D01*
X62210000Y-60049647D01*
X62400000Y-60087440D01*
X62400000Y-60087440D01*
G37*
X62400000Y-60087440D02*
X62615000Y-60087440D01*
X62615001Y-65066836D01*
X62597663Y-65154001D01*
X62666348Y-65499310D01*
X62812576Y-65718155D01*
X62812578Y-65718157D01*
X62861952Y-65792050D01*
X62935845Y-65841424D01*
X63911696Y-66817276D01*
X63896122Y-66810825D01*
X63627000Y-66928875D01*
X63627000Y-68373000D01*
X65071604Y-68373000D01*
X65189183Y-68103877D01*
X65053210Y-67804788D01*
X66615000Y-69366579D01*
X66615001Y-70955000D01*
X64634521Y-70955000D01*
X64534577Y-70805423D01*
X64059909Y-70488260D01*
X63641333Y-70405000D01*
X63358667Y-70405000D01*
X62940091Y-70488260D01*
X62465423Y-70805423D01*
X62210000Y-71187691D01*
X62210000Y-69623576D01*
X62585668Y-69974534D01*
X63103878Y-70189175D01*
X63373000Y-70071125D01*
X63373000Y-68627000D01*
X63627000Y-68627000D01*
X63627000Y-70071125D01*
X63896122Y-70189175D01*
X64414332Y-69974534D01*
X64909012Y-69512392D01*
X65189183Y-68896123D01*
X65071604Y-68627000D01*
X63627000Y-68627000D01*
X63373000Y-68627000D01*
X63353000Y-68627000D01*
X63353000Y-68373000D01*
X63373000Y-68373000D01*
X63373000Y-66928875D01*
X63103878Y-66810825D01*
X62585668Y-67025466D01*
X62210000Y-67376424D01*
X62210000Y-60049647D01*
X62400000Y-60087440D01*
G36*
X82115000Y-54662834D02*
X82115000Y-54662837D01*
X82097663Y-54749998D01*
X82115000Y-54837159D01*
X82115001Y-55912832D01*
X82115000Y-55912836D01*
X82115001Y-56931992D01*
X81965000Y-57294126D01*
X81965000Y-57705874D01*
X82122569Y-58086280D01*
X82413720Y-58377431D01*
X82794126Y-58535000D01*
X83205874Y-58535000D01*
X83586280Y-58377431D01*
X83877431Y-58086280D01*
X84035000Y-57705874D01*
X84035000Y-57294126D01*
X83885000Y-56931993D01*
X83885000Y-55399297D01*
X84090988Y-55852392D01*
X84585668Y-56314534D01*
X85103878Y-56529175D01*
X85373000Y-56411125D01*
X85373000Y-54967000D01*
X85353000Y-54967000D01*
X85353000Y-54713000D01*
X85373000Y-54713000D01*
X85373000Y-54693000D01*
X85627000Y-54693000D01*
X85627000Y-54713000D01*
X85647000Y-54713000D01*
X85647000Y-54967000D01*
X85627000Y-54967000D01*
X85627000Y-56411125D01*
X85896122Y-56529175D01*
X86414332Y-56314534D01*
X86752560Y-55998553D01*
X86752560Y-56100000D01*
X86801843Y-56347765D01*
X86942191Y-56557809D01*
X87152235Y-56698157D01*
X87400000Y-56747440D01*
X89600000Y-56747440D01*
X89847765Y-56698157D01*
X90057809Y-56557809D01*
X90198157Y-56347765D01*
X90247440Y-56100000D01*
X90247440Y-55746182D01*
X90403466Y-56122862D01*
X90807138Y-56526534D01*
X90936216Y-56580000D01*
X90807138Y-56633466D01*
X90403466Y-57037138D01*
X90185000Y-57564561D01*
X90185000Y-58135439D01*
X90403466Y-58662862D01*
X90807138Y-59066534D01*
X90936216Y-59120000D01*
X90807138Y-59173466D01*
X90403466Y-59577138D01*
X90185000Y-60104561D01*
X90185000Y-60675439D01*
X90403466Y-61202862D01*
X90807138Y-61606534D01*
X90936216Y-61660000D01*
X90807138Y-61713466D01*
X90403466Y-62117138D01*
X90185000Y-62644561D01*
X90185000Y-63215439D01*
X90403466Y-63742862D01*
X90807138Y-64146534D01*
X90936216Y-64200000D01*
X90807138Y-64253466D01*
X90403466Y-64657138D01*
X90245042Y-65039606D01*
X90134334Y-64483037D01*
X89750865Y-63909135D01*
X89176963Y-63525666D01*
X88670880Y-63425000D01*
X88329120Y-63425000D01*
X87823037Y-63525666D01*
X87249135Y-63909135D01*
X87247440Y-63911672D01*
X87247440Y-63900000D01*
X87198157Y-63652235D01*
X87057809Y-63442191D01*
X86847765Y-63301843D01*
X86600000Y-63252560D01*
X84400000Y-63252560D01*
X84152235Y-63301843D01*
X83942191Y-63442191D01*
X83801843Y-63652235D01*
X83752560Y-63900000D01*
X83752560Y-64465862D01*
X83633422Y-64585000D01*
X77524396Y-64585000D01*
X77192862Y-64253466D01*
X77063784Y-64200000D01*
X77192862Y-64146534D01*
X77596534Y-63742862D01*
X77815000Y-63215439D01*
X77815000Y-62746578D01*
X79294167Y-61267412D01*
X79368060Y-61218038D01*
X79563663Y-60925299D01*
X79615011Y-60667154D01*
X79615011Y-60667150D01*
X79632348Y-60579990D01*
X79615011Y-60492830D01*
X79615011Y-57136567D01*
X82121519Y-54630059D01*
X82115000Y-54662834D01*
X82115000Y-54662834D01*
G37*
X82115000Y-54662834D02*
X82115000Y-54662837D01*
X82097663Y-54749998D01*
X82115000Y-54837159D01*
X82115001Y-55912832D01*
X82115000Y-55912836D01*
X82115001Y-56931992D01*
X81965000Y-57294126D01*
X81965000Y-57705874D01*
X82122569Y-58086280D01*
X82413720Y-58377431D01*
X82794126Y-58535000D01*
X83205874Y-58535000D01*
X83586280Y-58377431D01*
X83877431Y-58086280D01*
X84035000Y-57705874D01*
X84035000Y-57294126D01*
X83885000Y-56931993D01*
X83885000Y-55399297D01*
X84090988Y-55852392D01*
X84585668Y-56314534D01*
X85103878Y-56529175D01*
X85373000Y-56411125D01*
X85373000Y-54967000D01*
X85353000Y-54967000D01*
X85353000Y-54713000D01*
X85373000Y-54713000D01*
X85373000Y-54693000D01*
X85627000Y-54693000D01*
X85627000Y-54713000D01*
X85647000Y-54713000D01*
X85647000Y-54967000D01*
X85627000Y-54967000D01*
X85627000Y-56411125D01*
X85896122Y-56529175D01*
X86414332Y-56314534D01*
X86752560Y-55998553D01*
X86752560Y-56100000D01*
X86801843Y-56347765D01*
X86942191Y-56557809D01*
X87152235Y-56698157D01*
X87400000Y-56747440D01*
X89600000Y-56747440D01*
X89847765Y-56698157D01*
X90057809Y-56557809D01*
X90198157Y-56347765D01*
X90247440Y-56100000D01*
X90247440Y-55746182D01*
X90403466Y-56122862D01*
X90807138Y-56526534D01*
X90936216Y-56580000D01*
X90807138Y-56633466D01*
X90403466Y-57037138D01*
X90185000Y-57564561D01*
X90185000Y-58135439D01*
X90403466Y-58662862D01*
X90807138Y-59066534D01*
X90936216Y-59120000D01*
X90807138Y-59173466D01*
X90403466Y-59577138D01*
X90185000Y-60104561D01*
X90185000Y-60675439D01*
X90403466Y-61202862D01*
X90807138Y-61606534D01*
X90936216Y-61660000D01*
X90807138Y-61713466D01*
X90403466Y-62117138D01*
X90185000Y-62644561D01*
X90185000Y-63215439D01*
X90403466Y-63742862D01*
X90807138Y-64146534D01*
X90936216Y-64200000D01*
X90807138Y-64253466D01*
X90403466Y-64657138D01*
X90245042Y-65039606D01*
X90134334Y-64483037D01*
X89750865Y-63909135D01*
X89176963Y-63525666D01*
X88670880Y-63425000D01*
X88329120Y-63425000D01*
X87823037Y-63525666D01*
X87249135Y-63909135D01*
X87247440Y-63911672D01*
X87247440Y-63900000D01*
X87198157Y-63652235D01*
X87057809Y-63442191D01*
X86847765Y-63301843D01*
X86600000Y-63252560D01*
X84400000Y-63252560D01*
X84152235Y-63301843D01*
X83942191Y-63442191D01*
X83801843Y-63652235D01*
X83752560Y-63900000D01*
X83752560Y-64465862D01*
X83633422Y-64585000D01*
X77524396Y-64585000D01*
X77192862Y-64253466D01*
X77063784Y-64200000D01*
X77192862Y-64146534D01*
X77596534Y-63742862D01*
X77815000Y-63215439D01*
X77815000Y-62746578D01*
X79294167Y-61267412D01*
X79368060Y-61218038D01*
X79563663Y-60925299D01*
X79615011Y-60667154D01*
X79615011Y-60667150D01*
X79632348Y-60579990D01*
X79615011Y-60492830D01*
X79615011Y-57136567D01*
X82121519Y-54630059D01*
X82115000Y-54662834D01*
G36*
X72749135Y-16089135D02*
X72365666Y-16663037D01*
X72247440Y-17257401D01*
X72247440Y-16400000D01*
X72198157Y-16152235D01*
X72057809Y-15942191D01*
X71847765Y-15801843D01*
X71600000Y-15752560D01*
X69400000Y-15752560D01*
X69152235Y-15801843D01*
X68942191Y-15942191D01*
X68801843Y-16152235D01*
X68752560Y-16400000D01*
X68752560Y-17451389D01*
X68253950Y-17950000D01*
X67272239Y-17950000D01*
X67079418Y-17821161D01*
X66646256Y-17735000D01*
X66353744Y-17735000D01*
X65920582Y-17821161D01*
X65429375Y-18149375D01*
X65230000Y-18447761D01*
X65030625Y-18149375D01*
X64539418Y-17821161D01*
X64106256Y-17735000D01*
X63813744Y-17735000D01*
X63380582Y-17821161D01*
X62889375Y-18149375D01*
X62561161Y-18640582D01*
X62445908Y-19220000D01*
X62561161Y-19799418D01*
X62889375Y-20290625D01*
X63208478Y-20503843D01*
X63078642Y-20564817D01*
X62688355Y-20993076D01*
X62518524Y-21403110D01*
X62639845Y-21633000D01*
X63833000Y-21633000D01*
X63833000Y-21613000D01*
X64087000Y-21613000D01*
X64087000Y-21633000D01*
X66373000Y-21633000D01*
X66373000Y-21613000D01*
X66627000Y-21613000D01*
X66627000Y-21633000D01*
X67820155Y-21633000D01*
X67941476Y-21403110D01*
X67771645Y-20993076D01*
X67381358Y-20564817D01*
X67251522Y-20503843D01*
X67272239Y-20490000D01*
X68654925Y-20490000D01*
X68780000Y-20514879D01*
X68905075Y-20490000D01*
X68905080Y-20490000D01*
X69275529Y-20416313D01*
X69695618Y-20135618D01*
X69766471Y-20029579D01*
X70548611Y-19247440D01*
X71600000Y-19247440D01*
X71847765Y-19198157D01*
X72057809Y-19057809D01*
X72198157Y-18847765D01*
X72247440Y-18600000D01*
X72247440Y-17422599D01*
X72365666Y-18016963D01*
X72730000Y-18562228D01*
X72730001Y-19473948D01*
X70013530Y-22190420D01*
X69803688Y-22504471D01*
X69705121Y-23000000D01*
X69803688Y-23495529D01*
X70084382Y-23915618D01*
X70504471Y-24196312D01*
X71000000Y-24294879D01*
X71495529Y-24196312D01*
X71809580Y-23986470D01*
X74809581Y-20986469D01*
X74915618Y-20915618D01*
X75036511Y-20734690D01*
X75196313Y-20495529D01*
X75219758Y-20377661D01*
X75270000Y-20125080D01*
X75270000Y-20125076D01*
X75294879Y-20000000D01*
X75270000Y-19874924D01*
X75270000Y-18562227D01*
X75634334Y-18016963D01*
X75768990Y-17340000D01*
X75634334Y-16663037D01*
X75250865Y-16089135D01*
X74683449Y-15710000D01*
X81680291Y-15710000D01*
X81551843Y-15902235D01*
X81502560Y-16150000D01*
X81502560Y-17850000D01*
X81551843Y-18097765D01*
X81692191Y-18307809D01*
X81902235Y-18448157D01*
X82115001Y-18490478D01*
X82115000Y-31465000D01*
X81744126Y-31465000D01*
X81381993Y-31615000D01*
X76811159Y-31615000D01*
X76723998Y-31597663D01*
X76636837Y-31615000D01*
X76636833Y-31615000D01*
X76410607Y-31659999D01*
X76378688Y-31666348D01*
X76159843Y-31812576D01*
X76159842Y-31812577D01*
X76085949Y-31861951D01*
X76036575Y-31935844D01*
X74365844Y-33606576D01*
X74291951Y-33655950D01*
X74242577Y-33729843D01*
X74242575Y-33729845D01*
X74096347Y-33948690D01*
X74027662Y-34293999D01*
X74045000Y-34381164D01*
X74045000Y-38836742D01*
X73995529Y-38803687D01*
X73625080Y-38730000D01*
X66055076Y-38730000D01*
X65930000Y-38705121D01*
X65804924Y-38730000D01*
X65804920Y-38730000D01*
X65434471Y-38803687D01*
X65014382Y-39084382D01*
X64943529Y-39190421D01*
X64690421Y-39443529D01*
X64584382Y-39514382D01*
X64303687Y-39934472D01*
X64230000Y-40304921D01*
X64230000Y-40304925D01*
X64205121Y-40430000D01*
X64230000Y-40555076D01*
X64230000Y-41237508D01*
X63716777Y-41053035D01*
X63146546Y-41080222D01*
X62745995Y-41246136D01*
X62671861Y-41492255D01*
X63500000Y-42320395D01*
X63514142Y-42306252D01*
X63693748Y-42485858D01*
X63679605Y-42500000D01*
X63693748Y-42514143D01*
X63514142Y-42693748D01*
X63500000Y-42679605D01*
X62671861Y-43507745D01*
X62745995Y-43753864D01*
X63283223Y-43946965D01*
X63853454Y-43919778D01*
X64243067Y-43758395D01*
X64452235Y-43898157D01*
X64700000Y-43947440D01*
X66300000Y-43947440D01*
X66547765Y-43898157D01*
X66757809Y-43757809D01*
X66898157Y-43547765D01*
X66947440Y-43300000D01*
X66947440Y-41700000D01*
X66898157Y-41452235D01*
X66776391Y-41270000D01*
X73625080Y-41270000D01*
X73995529Y-41196313D01*
X74044999Y-41163258D01*
X74044999Y-43612838D01*
X74027662Y-43699999D01*
X74044999Y-43787160D01*
X74044999Y-43787163D01*
X74096347Y-44045308D01*
X74291950Y-44338048D01*
X74365846Y-44387424D01*
X74945000Y-44966578D01*
X74945000Y-45435439D01*
X75163466Y-45962862D01*
X75567138Y-46366534D01*
X75696216Y-46420000D01*
X75567138Y-46473466D01*
X75163466Y-46877138D01*
X74945000Y-47404561D01*
X74945000Y-47873421D01*
X70703422Y-52115000D01*
X67127159Y-52115000D01*
X67039999Y-52097663D01*
X66952839Y-52115000D01*
X66952835Y-52115000D01*
X66694690Y-52166348D01*
X66586880Y-52238385D01*
X66475845Y-52312576D01*
X66475844Y-52312577D01*
X66401951Y-52361951D01*
X66352577Y-52435844D01*
X65467440Y-53320982D01*
X65467440Y-52205000D01*
X65397223Y-51851997D01*
X65197264Y-51552736D01*
X64898003Y-51352777D01*
X64545000Y-51282560D01*
X63995000Y-51282560D01*
X63641997Y-51352777D01*
X63342736Y-51552736D01*
X63142777Y-51851997D01*
X63072560Y-52205000D01*
X63072560Y-53455000D01*
X63127000Y-53728687D01*
X63127000Y-54773000D01*
X63147000Y-54773000D01*
X63147000Y-55027000D01*
X63127000Y-55027000D01*
X63127000Y-55047000D01*
X62873000Y-55047000D01*
X62873000Y-55027000D01*
X62853000Y-55027000D01*
X62853000Y-54773000D01*
X62873000Y-54773000D01*
X62873000Y-53523750D01*
X62714250Y-53365000D01*
X62323691Y-53365000D01*
X62210000Y-53412092D01*
X62210000Y-49708026D01*
X62340302Y-49838327D01*
X62573691Y-49935000D01*
X63214250Y-49935000D01*
X63373000Y-49776250D01*
X63373000Y-48627000D01*
X63353000Y-48627000D01*
X63353000Y-48373000D01*
X63373000Y-48373000D01*
X63373000Y-47223750D01*
X63627000Y-47223750D01*
X63627000Y-48373000D01*
X63647000Y-48373000D01*
X63647000Y-48627000D01*
X63627000Y-48627000D01*
X63627000Y-49776250D01*
X63785750Y-49935000D01*
X64426309Y-49935000D01*
X64659698Y-49838327D01*
X64753856Y-49744170D01*
X65214561Y-49935000D01*
X65785439Y-49935000D01*
X66183784Y-49770000D01*
X70625080Y-49770000D01*
X70995529Y-49696313D01*
X71415618Y-49415618D01*
X71696313Y-48995529D01*
X71794880Y-48500000D01*
X71696313Y-48004471D01*
X71415618Y-47584382D01*
X70995529Y-47303687D01*
X70625080Y-47230000D01*
X66183784Y-47230000D01*
X65785439Y-47065000D01*
X65214561Y-47065000D01*
X64753856Y-47255830D01*
X64659698Y-47161673D01*
X64426309Y-47065000D01*
X63785750Y-47065000D01*
X63627000Y-47223750D01*
X63373000Y-47223750D01*
X63214250Y-47065000D01*
X62573691Y-47065000D01*
X62340302Y-47161673D01*
X62210000Y-47291974D01*
X62210000Y-43166765D01*
X62246136Y-43254005D01*
X62492255Y-43328139D01*
X63320395Y-42500000D01*
X62492255Y-41671861D01*
X62246136Y-41745995D01*
X62210000Y-41846529D01*
X62210000Y-29380000D01*
X62445908Y-29380000D01*
X62561161Y-29959418D01*
X62889375Y-30450625D01*
X63187761Y-30650000D01*
X62889375Y-30849375D01*
X62561161Y-31340582D01*
X62445908Y-31920000D01*
X62561161Y-32499418D01*
X62889375Y-32990625D01*
X63187761Y-33190000D01*
X62889375Y-33389375D01*
X62561161Y-33880582D01*
X62445908Y-34460000D01*
X62561161Y-35039418D01*
X62889375Y-35530625D01*
X63187761Y-35730000D01*
X62889375Y-35929375D01*
X62561161Y-36420582D01*
X62445908Y-37000000D01*
X62561161Y-37579418D01*
X62889375Y-38070625D01*
X63380582Y-38398839D01*
X63813744Y-38485000D01*
X64106256Y-38485000D01*
X64539418Y-38398839D01*
X65030625Y-38070625D01*
X65042816Y-38052381D01*
X65051843Y-38097765D01*
X65192191Y-38307809D01*
X65402235Y-38448157D01*
X65650000Y-38497440D01*
X67350000Y-38497440D01*
X67597765Y-38448157D01*
X67807809Y-38307809D01*
X67948157Y-38097765D01*
X67997440Y-37850000D01*
X67997440Y-36150000D01*
X67948157Y-35902235D01*
X67807809Y-35692191D01*
X67597765Y-35551843D01*
X67552381Y-35542816D01*
X67570625Y-35530625D01*
X67898839Y-35039418D01*
X68014092Y-34460000D01*
X67898839Y-33880582D01*
X67570625Y-33389375D01*
X67272239Y-33190000D01*
X73874925Y-33190000D01*
X74000000Y-33214879D01*
X74125075Y-33190000D01*
X74125080Y-33190000D01*
X74495529Y-33116313D01*
X74915618Y-32835618D01*
X74986471Y-32729579D01*
X76986470Y-30729581D01*
X77196312Y-30415530D01*
X77294879Y-29920001D01*
X77196312Y-29424471D01*
X76915618Y-29004382D01*
X76495529Y-28723688D01*
X75999999Y-28625121D01*
X75731833Y-28678463D01*
X75747440Y-28600000D01*
X75747440Y-26400000D01*
X75698157Y-26152235D01*
X75557809Y-25942191D01*
X75347765Y-25801843D01*
X75100000Y-25752560D01*
X72900000Y-25752560D01*
X72652235Y-25801843D01*
X72442191Y-25942191D01*
X72301843Y-26152235D01*
X72252560Y-26400000D01*
X72252560Y-27577401D01*
X72134334Y-26983037D01*
X71750865Y-26409135D01*
X71176963Y-26025666D01*
X70670880Y-25925000D01*
X70329120Y-25925000D01*
X69823037Y-26025666D01*
X69249135Y-26409135D01*
X68865666Y-26983037D01*
X68731010Y-27660000D01*
X68865666Y-28336963D01*
X69249135Y-28910865D01*
X69823037Y-29294334D01*
X70329120Y-29395000D01*
X70670880Y-29395000D01*
X71176963Y-29294334D01*
X71750865Y-28910865D01*
X72134334Y-28336963D01*
X72252560Y-27742599D01*
X72252560Y-28600000D01*
X72301843Y-28847765D01*
X72442191Y-29057809D01*
X72652235Y-29198157D01*
X72900000Y-29247440D01*
X74876509Y-29247440D01*
X73473950Y-30650000D01*
X67272239Y-30650000D01*
X67570625Y-30450625D01*
X67898839Y-29959418D01*
X68014092Y-29380000D01*
X67898839Y-28800582D01*
X67570625Y-28309375D01*
X67251522Y-28096157D01*
X67381358Y-28035183D01*
X67771645Y-27606924D01*
X67941476Y-27196890D01*
X67820155Y-26967000D01*
X66627000Y-26967000D01*
X66627000Y-26987000D01*
X66373000Y-26987000D01*
X66373000Y-26967000D01*
X64087000Y-26967000D01*
X64087000Y-26987000D01*
X63833000Y-26987000D01*
X63833000Y-26967000D01*
X62639845Y-26967000D01*
X62518524Y-27196890D01*
X62688355Y-27606924D01*
X63078642Y-28035183D01*
X63208478Y-28096157D01*
X62889375Y-28309375D01*
X62561161Y-28800582D01*
X62445908Y-29380000D01*
X62210000Y-29380000D01*
X62210000Y-24656890D01*
X62518524Y-24656890D01*
X62688355Y-25066924D01*
X63078642Y-25495183D01*
X63237954Y-25570000D01*
X63078642Y-25644817D01*
X62688355Y-26073076D01*
X62518524Y-26483110D01*
X62639845Y-26713000D01*
X63833000Y-26713000D01*
X63833000Y-24427000D01*
X64087000Y-24427000D01*
X64087000Y-26713000D01*
X66373000Y-26713000D01*
X66373000Y-24427000D01*
X66627000Y-24427000D01*
X66627000Y-26713000D01*
X67820155Y-26713000D01*
X67941476Y-26483110D01*
X67771645Y-26073076D01*
X67381358Y-25644817D01*
X67222046Y-25570000D01*
X67381358Y-25495183D01*
X67771645Y-25066924D01*
X67941476Y-24656890D01*
X67820155Y-24427000D01*
X66627000Y-24427000D01*
X66373000Y-24427000D01*
X64087000Y-24427000D01*
X63833000Y-24427000D01*
X62639845Y-24427000D01*
X62518524Y-24656890D01*
X62210000Y-24656890D01*
X62210000Y-22116890D01*
X62518524Y-22116890D01*
X62688355Y-22526924D01*
X63078642Y-22955183D01*
X63237954Y-23030000D01*
X63078642Y-23104817D01*
X62688355Y-23533076D01*
X62518524Y-23943110D01*
X62639845Y-24173000D01*
X63833000Y-24173000D01*
X63833000Y-21887000D01*
X64087000Y-21887000D01*
X64087000Y-24173000D01*
X66373000Y-24173000D01*
X66373000Y-21887000D01*
X66627000Y-21887000D01*
X66627000Y-24173000D01*
X67820155Y-24173000D01*
X67941476Y-23943110D01*
X67771645Y-23533076D01*
X67381358Y-23104817D01*
X67222046Y-23030000D01*
X67381358Y-22955183D01*
X67771645Y-22526924D01*
X67941476Y-22116890D01*
X67820155Y-21887000D01*
X66627000Y-21887000D01*
X66373000Y-21887000D01*
X64087000Y-21887000D01*
X63833000Y-21887000D01*
X62639845Y-21887000D01*
X62518524Y-22116890D01*
X62210000Y-22116890D01*
X62210000Y-15710000D01*
X73316551Y-15710000D01*
X72749135Y-16089135D01*
X72749135Y-16089135D01*
G37*
X72749135Y-16089135D02*
X72365666Y-16663037D01*
X72247440Y-17257401D01*
X72247440Y-16400000D01*
X72198157Y-16152235D01*
X72057809Y-15942191D01*
X71847765Y-15801843D01*
X71600000Y-15752560D01*
X69400000Y-15752560D01*
X69152235Y-15801843D01*
X68942191Y-15942191D01*
X68801843Y-16152235D01*
X68752560Y-16400000D01*
X68752560Y-17451389D01*
X68253950Y-17950000D01*
X67272239Y-17950000D01*
X67079418Y-17821161D01*
X66646256Y-17735000D01*
X66353744Y-17735000D01*
X65920582Y-17821161D01*
X65429375Y-18149375D01*
X65230000Y-18447761D01*
X65030625Y-18149375D01*
X64539418Y-17821161D01*
X64106256Y-17735000D01*
X63813744Y-17735000D01*
X63380582Y-17821161D01*
X62889375Y-18149375D01*
X62561161Y-18640582D01*
X62445908Y-19220000D01*
X62561161Y-19799418D01*
X62889375Y-20290625D01*
X63208478Y-20503843D01*
X63078642Y-20564817D01*
X62688355Y-20993076D01*
X62518524Y-21403110D01*
X62639845Y-21633000D01*
X63833000Y-21633000D01*
X63833000Y-21613000D01*
X64087000Y-21613000D01*
X64087000Y-21633000D01*
X66373000Y-21633000D01*
X66373000Y-21613000D01*
X66627000Y-21613000D01*
X66627000Y-21633000D01*
X67820155Y-21633000D01*
X67941476Y-21403110D01*
X67771645Y-20993076D01*
X67381358Y-20564817D01*
X67251522Y-20503843D01*
X67272239Y-20490000D01*
X68654925Y-20490000D01*
X68780000Y-20514879D01*
X68905075Y-20490000D01*
X68905080Y-20490000D01*
X69275529Y-20416313D01*
X69695618Y-20135618D01*
X69766471Y-20029579D01*
X70548611Y-19247440D01*
X71600000Y-19247440D01*
X71847765Y-19198157D01*
X72057809Y-19057809D01*
X72198157Y-18847765D01*
X72247440Y-18600000D01*
X72247440Y-17422599D01*
X72365666Y-18016963D01*
X72730000Y-18562228D01*
X72730001Y-19473948D01*
X70013530Y-22190420D01*
X69803688Y-22504471D01*
X69705121Y-23000000D01*
X69803688Y-23495529D01*
X70084382Y-23915618D01*
X70504471Y-24196312D01*
X71000000Y-24294879D01*
X71495529Y-24196312D01*
X71809580Y-23986470D01*
X74809581Y-20986469D01*
X74915618Y-20915618D01*
X75036511Y-20734690D01*
X75196313Y-20495529D01*
X75219758Y-20377661D01*
X75270000Y-20125080D01*
X75270000Y-20125076D01*
X75294879Y-20000000D01*
X75270000Y-19874924D01*
X75270000Y-18562227D01*
X75634334Y-18016963D01*
X75768990Y-17340000D01*
X75634334Y-16663037D01*
X75250865Y-16089135D01*
X74683449Y-15710000D01*
X81680291Y-15710000D01*
X81551843Y-15902235D01*
X81502560Y-16150000D01*
X81502560Y-17850000D01*
X81551843Y-18097765D01*
X81692191Y-18307809D01*
X81902235Y-18448157D01*
X82115001Y-18490478D01*
X82115000Y-31465000D01*
X81744126Y-31465000D01*
X81381993Y-31615000D01*
X76811159Y-31615000D01*
X76723998Y-31597663D01*
X76636837Y-31615000D01*
X76636833Y-31615000D01*
X76410607Y-31659999D01*
X76378688Y-31666348D01*
X76159843Y-31812576D01*
X76159842Y-31812577D01*
X76085949Y-31861951D01*
X76036575Y-31935844D01*
X74365844Y-33606576D01*
X74291951Y-33655950D01*
X74242577Y-33729843D01*
X74242575Y-33729845D01*
X74096347Y-33948690D01*
X74027662Y-34293999D01*
X74045000Y-34381164D01*
X74045000Y-38836742D01*
X73995529Y-38803687D01*
X73625080Y-38730000D01*
X66055076Y-38730000D01*
X65930000Y-38705121D01*
X65804924Y-38730000D01*
X65804920Y-38730000D01*
X65434471Y-38803687D01*
X65014382Y-39084382D01*
X64943529Y-39190421D01*
X64690421Y-39443529D01*
X64584382Y-39514382D01*
X64303687Y-39934472D01*
X64230000Y-40304921D01*
X64230000Y-40304925D01*
X64205121Y-40430000D01*
X64230000Y-40555076D01*
X64230000Y-41237508D01*
X63716777Y-41053035D01*
X63146546Y-41080222D01*
X62745995Y-41246136D01*
X62671861Y-41492255D01*
X63500000Y-42320395D01*
X63514142Y-42306252D01*
X63693748Y-42485858D01*
X63679605Y-42500000D01*
X63693748Y-42514143D01*
X63514142Y-42693748D01*
X63500000Y-42679605D01*
X62671861Y-43507745D01*
X62745995Y-43753864D01*
X63283223Y-43946965D01*
X63853454Y-43919778D01*
X64243067Y-43758395D01*
X64452235Y-43898157D01*
X64700000Y-43947440D01*
X66300000Y-43947440D01*
X66547765Y-43898157D01*
X66757809Y-43757809D01*
X66898157Y-43547765D01*
X66947440Y-43300000D01*
X66947440Y-41700000D01*
X66898157Y-41452235D01*
X66776391Y-41270000D01*
X73625080Y-41270000D01*
X73995529Y-41196313D01*
X74044999Y-41163258D01*
X74044999Y-43612838D01*
X74027662Y-43699999D01*
X74044999Y-43787160D01*
X74044999Y-43787163D01*
X74096347Y-44045308D01*
X74291950Y-44338048D01*
X74365846Y-44387424D01*
X74945000Y-44966578D01*
X74945000Y-45435439D01*
X75163466Y-45962862D01*
X75567138Y-46366534D01*
X75696216Y-46420000D01*
X75567138Y-46473466D01*
X75163466Y-46877138D01*
X74945000Y-47404561D01*
X74945000Y-47873421D01*
X70703422Y-52115000D01*
X67127159Y-52115000D01*
X67039999Y-52097663D01*
X66952839Y-52115000D01*
X66952835Y-52115000D01*
X66694690Y-52166348D01*
X66586880Y-52238385D01*
X66475845Y-52312576D01*
X66475844Y-52312577D01*
X66401951Y-52361951D01*
X66352577Y-52435844D01*
X65467440Y-53320982D01*
X65467440Y-52205000D01*
X65397223Y-51851997D01*
X65197264Y-51552736D01*
X64898003Y-51352777D01*
X64545000Y-51282560D01*
X63995000Y-51282560D01*
X63641997Y-51352777D01*
X63342736Y-51552736D01*
X63142777Y-51851997D01*
X63072560Y-52205000D01*
X63072560Y-53455000D01*
X63127000Y-53728687D01*
X63127000Y-54773000D01*
X63147000Y-54773000D01*
X63147000Y-55027000D01*
X63127000Y-55027000D01*
X63127000Y-55047000D01*
X62873000Y-55047000D01*
X62873000Y-55027000D01*
X62853000Y-55027000D01*
X62853000Y-54773000D01*
X62873000Y-54773000D01*
X62873000Y-53523750D01*
X62714250Y-53365000D01*
X62323691Y-53365000D01*
X62210000Y-53412092D01*
X62210000Y-49708026D01*
X62340302Y-49838327D01*
X62573691Y-49935000D01*
X63214250Y-49935000D01*
X63373000Y-49776250D01*
X63373000Y-48627000D01*
X63353000Y-48627000D01*
X63353000Y-48373000D01*
X63373000Y-48373000D01*
X63373000Y-47223750D01*
X63627000Y-47223750D01*
X63627000Y-48373000D01*
X63647000Y-48373000D01*
X63647000Y-48627000D01*
X63627000Y-48627000D01*
X63627000Y-49776250D01*
X63785750Y-49935000D01*
X64426309Y-49935000D01*
X64659698Y-49838327D01*
X64753856Y-49744170D01*
X65214561Y-49935000D01*
X65785439Y-49935000D01*
X66183784Y-49770000D01*
X70625080Y-49770000D01*
X70995529Y-49696313D01*
X71415618Y-49415618D01*
X71696313Y-48995529D01*
X71794880Y-48500000D01*
X71696313Y-48004471D01*
X71415618Y-47584382D01*
X70995529Y-47303687D01*
X70625080Y-47230000D01*
X66183784Y-47230000D01*
X65785439Y-47065000D01*
X65214561Y-47065000D01*
X64753856Y-47255830D01*
X64659698Y-47161673D01*
X64426309Y-47065000D01*
X63785750Y-47065000D01*
X63627000Y-47223750D01*
X63373000Y-47223750D01*
X63214250Y-47065000D01*
X62573691Y-47065000D01*
X62340302Y-47161673D01*
X62210000Y-47291974D01*
X62210000Y-43166765D01*
X62246136Y-43254005D01*
X62492255Y-43328139D01*
X63320395Y-42500000D01*
X62492255Y-41671861D01*
X62246136Y-41745995D01*
X62210000Y-41846529D01*
X62210000Y-29380000D01*
X62445908Y-29380000D01*
X62561161Y-29959418D01*
X62889375Y-30450625D01*
X63187761Y-30650000D01*
X62889375Y-30849375D01*
X62561161Y-31340582D01*
X62445908Y-31920000D01*
X62561161Y-32499418D01*
X62889375Y-32990625D01*
X63187761Y-33190000D01*
X62889375Y-33389375D01*
X62561161Y-33880582D01*
X62445908Y-34460000D01*
X62561161Y-35039418D01*
X62889375Y-35530625D01*
X63187761Y-35730000D01*
X62889375Y-35929375D01*
X62561161Y-36420582D01*
X62445908Y-37000000D01*
X62561161Y-37579418D01*
X62889375Y-38070625D01*
X63380582Y-38398839D01*
X63813744Y-38485000D01*
X64106256Y-38485000D01*
X64539418Y-38398839D01*
X65030625Y-38070625D01*
X65042816Y-38052381D01*
X65051843Y-38097765D01*
X65192191Y-38307809D01*
X65402235Y-38448157D01*
X65650000Y-38497440D01*
X67350000Y-38497440D01*
X67597765Y-38448157D01*
X67807809Y-38307809D01*
X67948157Y-38097765D01*
X67997440Y-37850000D01*
X67997440Y-36150000D01*
X67948157Y-35902235D01*
X67807809Y-35692191D01*
X67597765Y-35551843D01*
X67552381Y-35542816D01*
X67570625Y-35530625D01*
X67898839Y-35039418D01*
X68014092Y-34460000D01*
X67898839Y-33880582D01*
X67570625Y-33389375D01*
X67272239Y-33190000D01*
X73874925Y-33190000D01*
X74000000Y-33214879D01*
X74125075Y-33190000D01*
X74125080Y-33190000D01*
X74495529Y-33116313D01*
X74915618Y-32835618D01*
X74986471Y-32729579D01*
X76986470Y-30729581D01*
X77196312Y-30415530D01*
X77294879Y-29920001D01*
X77196312Y-29424471D01*
X76915618Y-29004382D01*
X76495529Y-28723688D01*
X75999999Y-28625121D01*
X75731833Y-28678463D01*
X75747440Y-28600000D01*
X75747440Y-26400000D01*
X75698157Y-26152235D01*
X75557809Y-25942191D01*
X75347765Y-25801843D01*
X75100000Y-25752560D01*
X72900000Y-25752560D01*
X72652235Y-25801843D01*
X72442191Y-25942191D01*
X72301843Y-26152235D01*
X72252560Y-26400000D01*
X72252560Y-27577401D01*
X72134334Y-26983037D01*
X71750865Y-26409135D01*
X71176963Y-26025666D01*
X70670880Y-25925000D01*
X70329120Y-25925000D01*
X69823037Y-26025666D01*
X69249135Y-26409135D01*
X68865666Y-26983037D01*
X68731010Y-27660000D01*
X68865666Y-28336963D01*
X69249135Y-28910865D01*
X69823037Y-29294334D01*
X70329120Y-29395000D01*
X70670880Y-29395000D01*
X71176963Y-29294334D01*
X71750865Y-28910865D01*
X72134334Y-28336963D01*
X72252560Y-27742599D01*
X72252560Y-28600000D01*
X72301843Y-28847765D01*
X72442191Y-29057809D01*
X72652235Y-29198157D01*
X72900000Y-29247440D01*
X74876509Y-29247440D01*
X73473950Y-30650000D01*
X67272239Y-30650000D01*
X67570625Y-30450625D01*
X67898839Y-29959418D01*
X68014092Y-29380000D01*
X67898839Y-28800582D01*
X67570625Y-28309375D01*
X67251522Y-28096157D01*
X67381358Y-28035183D01*
X67771645Y-27606924D01*
X67941476Y-27196890D01*
X67820155Y-26967000D01*
X66627000Y-26967000D01*
X66627000Y-26987000D01*
X66373000Y-26987000D01*
X66373000Y-26967000D01*
X64087000Y-26967000D01*
X64087000Y-26987000D01*
X63833000Y-26987000D01*
X63833000Y-26967000D01*
X62639845Y-26967000D01*
X62518524Y-27196890D01*
X62688355Y-27606924D01*
X63078642Y-28035183D01*
X63208478Y-28096157D01*
X62889375Y-28309375D01*
X62561161Y-28800582D01*
X62445908Y-29380000D01*
X62210000Y-29380000D01*
X62210000Y-24656890D01*
X62518524Y-24656890D01*
X62688355Y-25066924D01*
X63078642Y-25495183D01*
X63237954Y-25570000D01*
X63078642Y-25644817D01*
X62688355Y-26073076D01*
X62518524Y-26483110D01*
X62639845Y-26713000D01*
X63833000Y-26713000D01*
X63833000Y-24427000D01*
X64087000Y-24427000D01*
X64087000Y-26713000D01*
X66373000Y-26713000D01*
X66373000Y-24427000D01*
X66627000Y-24427000D01*
X66627000Y-26713000D01*
X67820155Y-26713000D01*
X67941476Y-26483110D01*
X67771645Y-26073076D01*
X67381358Y-25644817D01*
X67222046Y-25570000D01*
X67381358Y-25495183D01*
X67771645Y-25066924D01*
X67941476Y-24656890D01*
X67820155Y-24427000D01*
X66627000Y-24427000D01*
X66373000Y-24427000D01*
X64087000Y-24427000D01*
X63833000Y-24427000D01*
X62639845Y-24427000D01*
X62518524Y-24656890D01*
X62210000Y-24656890D01*
X62210000Y-22116890D01*
X62518524Y-22116890D01*
X62688355Y-22526924D01*
X63078642Y-22955183D01*
X63237954Y-23030000D01*
X63078642Y-23104817D01*
X62688355Y-23533076D01*
X62518524Y-23943110D01*
X62639845Y-24173000D01*
X63833000Y-24173000D01*
X63833000Y-21887000D01*
X64087000Y-21887000D01*
X64087000Y-24173000D01*
X66373000Y-24173000D01*
X66373000Y-21887000D01*
X66627000Y-21887000D01*
X66627000Y-24173000D01*
X67820155Y-24173000D01*
X67941476Y-23943110D01*
X67771645Y-23533076D01*
X67381358Y-23104817D01*
X67222046Y-23030000D01*
X67381358Y-22955183D01*
X67771645Y-22526924D01*
X67941476Y-22116890D01*
X67820155Y-21887000D01*
X66627000Y-21887000D01*
X66373000Y-21887000D01*
X64087000Y-21887000D01*
X63833000Y-21887000D01*
X62639845Y-21887000D01*
X62518524Y-22116890D01*
X62210000Y-22116890D01*
X62210000Y-15710000D01*
X73316551Y-15710000D01*
X72749135Y-16089135D01*
G36*
X97529462Y-36481040D02*
X97485908Y-36700000D01*
X97502023Y-36781015D01*
X97375310Y-36696348D01*
X97117165Y-36645000D01*
X97117161Y-36645000D01*
X97030000Y-36627663D01*
X96942839Y-36645000D01*
X92764396Y-36645000D01*
X92544396Y-36425000D01*
X92546310Y-36425000D01*
X92779699Y-36328327D01*
X92958327Y-36149698D01*
X93055000Y-35916309D01*
X93055000Y-35275750D01*
X92896250Y-35117000D01*
X91747000Y-35117000D01*
X91747000Y-35137000D01*
X91493000Y-35137000D01*
X91493000Y-35117000D01*
X90343750Y-35117000D01*
X90185000Y-35275750D01*
X90185000Y-35916309D01*
X90281673Y-36149698D01*
X90460301Y-36328327D01*
X90693690Y-36425000D01*
X90695604Y-36425000D01*
X90403466Y-36717138D01*
X90185000Y-37244561D01*
X90185000Y-37815439D01*
X90403466Y-38342862D01*
X90807138Y-38746534D01*
X90936216Y-38800000D01*
X90807138Y-38853466D01*
X90403466Y-39257138D01*
X90185000Y-39784561D01*
X90185000Y-40355439D01*
X90403466Y-40882862D01*
X90807138Y-41286534D01*
X90936216Y-41340000D01*
X90807138Y-41393466D01*
X90403466Y-41797138D01*
X90185000Y-42324561D01*
X90185000Y-42895439D01*
X90403466Y-43422862D01*
X90807138Y-43826534D01*
X90936216Y-43880000D01*
X90807138Y-43933466D01*
X90403466Y-44337138D01*
X90185000Y-44864561D01*
X90185000Y-45435439D01*
X90403466Y-45962862D01*
X90807138Y-46366534D01*
X90936216Y-46420000D01*
X90807138Y-46473466D01*
X90403466Y-46877138D01*
X90185000Y-47404561D01*
X90185000Y-47975439D01*
X90403466Y-48502862D01*
X90807138Y-48906534D01*
X90936216Y-48960000D01*
X90807138Y-49013466D01*
X90403466Y-49417138D01*
X90185000Y-49944561D01*
X90185000Y-50515439D01*
X90403466Y-51042862D01*
X90807138Y-51446534D01*
X90936216Y-51500000D01*
X90807138Y-51553466D01*
X90403466Y-51957138D01*
X90185000Y-52484561D01*
X90185000Y-53055439D01*
X90403466Y-53582862D01*
X90807138Y-53986534D01*
X90936216Y-54040000D01*
X90807138Y-54093466D01*
X90403466Y-54497138D01*
X90247440Y-54873818D01*
X90247440Y-53900000D01*
X90198157Y-53652235D01*
X90057809Y-53442191D01*
X89847765Y-53301843D01*
X89600000Y-53252560D01*
X87400000Y-53252560D01*
X87152235Y-53301843D01*
X86942191Y-53442191D01*
X86801843Y-53652235D01*
X86789220Y-53715695D01*
X86414332Y-53365466D01*
X85896122Y-53150825D01*
X85778745Y-53202312D01*
X85813148Y-53150825D01*
X85883653Y-53045307D01*
X85935001Y-52787162D01*
X85935001Y-52787158D01*
X85952338Y-52699998D01*
X85935001Y-52612838D01*
X85935001Y-49886246D01*
X86294126Y-50035000D01*
X86705874Y-50035000D01*
X87086280Y-49877431D01*
X87377431Y-49586280D01*
X87527431Y-49224147D01*
X89664168Y-47087411D01*
X89738061Y-47038037D01*
X89933664Y-46745298D01*
X89985012Y-46487153D01*
X89985012Y-46487149D01*
X90002349Y-46399989D01*
X89985012Y-46312829D01*
X89985012Y-34766566D01*
X90185000Y-34566578D01*
X90185000Y-34704250D01*
X90343750Y-34863000D01*
X91493000Y-34863000D01*
X91493000Y-34843000D01*
X91747000Y-34843000D01*
X91747000Y-34863000D01*
X92896250Y-34863000D01*
X93055000Y-34704250D01*
X93055000Y-34063691D01*
X92980984Y-33885000D01*
X94933422Y-33885000D01*
X97529462Y-36481040D01*
X97529462Y-36481040D01*
G37*
X97529462Y-36481040D02*
X97485908Y-36700000D01*
X97502023Y-36781015D01*
X97375310Y-36696348D01*
X97117165Y-36645000D01*
X97117161Y-36645000D01*
X97030000Y-36627663D01*
X96942839Y-36645000D01*
X92764396Y-36645000D01*
X92544396Y-36425000D01*
X92546310Y-36425000D01*
X92779699Y-36328327D01*
X92958327Y-36149698D01*
X93055000Y-35916309D01*
X93055000Y-35275750D01*
X92896250Y-35117000D01*
X91747000Y-35117000D01*
X91747000Y-35137000D01*
X91493000Y-35137000D01*
X91493000Y-35117000D01*
X90343750Y-35117000D01*
X90185000Y-35275750D01*
X90185000Y-35916309D01*
X90281673Y-36149698D01*
X90460301Y-36328327D01*
X90693690Y-36425000D01*
X90695604Y-36425000D01*
X90403466Y-36717138D01*
X90185000Y-37244561D01*
X90185000Y-37815439D01*
X90403466Y-38342862D01*
X90807138Y-38746534D01*
X90936216Y-38800000D01*
X90807138Y-38853466D01*
X90403466Y-39257138D01*
X90185000Y-39784561D01*
X90185000Y-40355439D01*
X90403466Y-40882862D01*
X90807138Y-41286534D01*
X90936216Y-41340000D01*
X90807138Y-41393466D01*
X90403466Y-41797138D01*
X90185000Y-42324561D01*
X90185000Y-42895439D01*
X90403466Y-43422862D01*
X90807138Y-43826534D01*
X90936216Y-43880000D01*
X90807138Y-43933466D01*
X90403466Y-44337138D01*
X90185000Y-44864561D01*
X90185000Y-45435439D01*
X90403466Y-45962862D01*
X90807138Y-46366534D01*
X90936216Y-46420000D01*
X90807138Y-46473466D01*
X90403466Y-46877138D01*
X90185000Y-47404561D01*
X90185000Y-47975439D01*
X90403466Y-48502862D01*
X90807138Y-48906534D01*
X90936216Y-48960000D01*
X90807138Y-49013466D01*
X90403466Y-49417138D01*
X90185000Y-49944561D01*
X90185000Y-50515439D01*
X90403466Y-51042862D01*
X90807138Y-51446534D01*
X90936216Y-51500000D01*
X90807138Y-51553466D01*
X90403466Y-51957138D01*
X90185000Y-52484561D01*
X90185000Y-53055439D01*
X90403466Y-53582862D01*
X90807138Y-53986534D01*
X90936216Y-54040000D01*
X90807138Y-54093466D01*
X90403466Y-54497138D01*
X90247440Y-54873818D01*
X90247440Y-53900000D01*
X90198157Y-53652235D01*
X90057809Y-53442191D01*
X89847765Y-53301843D01*
X89600000Y-53252560D01*
X87400000Y-53252560D01*
X87152235Y-53301843D01*
X86942191Y-53442191D01*
X86801843Y-53652235D01*
X86789220Y-53715695D01*
X86414332Y-53365466D01*
X85896122Y-53150825D01*
X85778745Y-53202312D01*
X85813148Y-53150825D01*
X85883653Y-53045307D01*
X85935001Y-52787162D01*
X85935001Y-52787158D01*
X85952338Y-52699998D01*
X85935001Y-52612838D01*
X85935001Y-49886246D01*
X86294126Y-50035000D01*
X86705874Y-50035000D01*
X87086280Y-49877431D01*
X87377431Y-49586280D01*
X87527431Y-49224147D01*
X89664168Y-47087411D01*
X89738061Y-47038037D01*
X89933664Y-46745298D01*
X89985012Y-46487153D01*
X89985012Y-46487149D01*
X90002349Y-46399989D01*
X89985012Y-46312829D01*
X89985012Y-34766566D01*
X90185000Y-34566578D01*
X90185000Y-34704250D01*
X90343750Y-34863000D01*
X91493000Y-34863000D01*
X91493000Y-34843000D01*
X91747000Y-34843000D01*
X91747000Y-34863000D01*
X92896250Y-34863000D01*
X93055000Y-34704250D01*
X93055000Y-34063691D01*
X92980984Y-33885000D01*
X94933422Y-33885000D01*
X97529462Y-36481040D01*
G36*
X81744126Y-33535000D02*
X82115000Y-33535000D01*
X82115000Y-38633421D01*
X81787171Y-38961250D01*
X81696313Y-38504471D01*
X81415618Y-38084382D01*
X80995529Y-37803687D01*
X80500000Y-37705121D01*
X80355000Y-37733963D01*
X80355000Y-37244561D01*
X80136534Y-36717138D01*
X79732862Y-36313466D01*
X79205439Y-36095000D01*
X78634561Y-36095000D01*
X78107138Y-36313466D01*
X77703466Y-36717138D01*
X77656475Y-36830583D01*
X77633864Y-36775995D01*
X77387745Y-36701861D01*
X76559605Y-37530000D01*
X77387745Y-38358139D01*
X77633864Y-38284005D01*
X77654874Y-38225552D01*
X77703466Y-38342862D01*
X78107138Y-38746534D01*
X78236216Y-38800000D01*
X77095049Y-38800000D01*
X77134005Y-38783864D01*
X77208139Y-38537745D01*
X76380000Y-37709605D01*
X76365858Y-37723748D01*
X76186253Y-37544143D01*
X76200395Y-37530000D01*
X76186253Y-37515858D01*
X76365858Y-37336252D01*
X76380000Y-37350395D01*
X77208139Y-36522255D01*
X77134005Y-36276136D01*
X77075552Y-36255126D01*
X77192862Y-36206534D01*
X77596534Y-35802862D01*
X77815000Y-35275439D01*
X77815000Y-34704561D01*
X77596534Y-34177138D01*
X77192862Y-33773466D01*
X76845849Y-33629728D01*
X77090577Y-33385000D01*
X81381993Y-33385000D01*
X81744126Y-33535000D01*
X81744126Y-33535000D01*
G37*
X81744126Y-33535000D02*
X82115000Y-33535000D01*
X82115000Y-38633421D01*
X81787171Y-38961250D01*
X81696313Y-38504471D01*
X81415618Y-38084382D01*
X80995529Y-37803687D01*
X80500000Y-37705121D01*
X80355000Y-37733963D01*
X80355000Y-37244561D01*
X80136534Y-36717138D01*
X79732862Y-36313466D01*
X79205439Y-36095000D01*
X78634561Y-36095000D01*
X78107138Y-36313466D01*
X77703466Y-36717138D01*
X77656475Y-36830583D01*
X77633864Y-36775995D01*
X77387745Y-36701861D01*
X76559605Y-37530000D01*
X77387745Y-38358139D01*
X77633864Y-38284005D01*
X77654874Y-38225552D01*
X77703466Y-38342862D01*
X78107138Y-38746534D01*
X78236216Y-38800000D01*
X77095049Y-38800000D01*
X77134005Y-38783864D01*
X77208139Y-38537745D01*
X76380000Y-37709605D01*
X76365858Y-37723748D01*
X76186253Y-37544143D01*
X76200395Y-37530000D01*
X76186253Y-37515858D01*
X76365858Y-37336252D01*
X76380000Y-37350395D01*
X77208139Y-36522255D01*
X77134005Y-36276136D01*
X77075552Y-36255126D01*
X77192862Y-36206534D01*
X77596534Y-35802862D01*
X77815000Y-35275439D01*
X77815000Y-34704561D01*
X77596534Y-34177138D01*
X77192862Y-33773466D01*
X76845849Y-33629728D01*
X77090577Y-33385000D01*
X81381993Y-33385000D01*
X81744126Y-33535000D01*
M02*
