%TF.GenerationSoftware,KiCad,Pcbnew,(5.0.1)-3*%
%TF.CreationDate,2019-04-27T14:03:59+01:00*%
%TF.ProjectId,Fractional clock divider bottom board,4672616374696F6E616C20636C6F636B,rev?*%
%TF.SameCoordinates,Original*%
%TF.FileFunction,Legend,Bot*%
%TF.FilePolarity,Positive*%
%FSLAX46Y46*%
G04 Gerber Fmt 4.6, Leading zero omitted, Abs format (unit mm)*
G04 Created by KiCad (PCBNEW (5.0.1)-3) date 27/04/2019 14:03:59*
%MOMM*%
%LPD*%
G01*
G04 APERTURE LIST*
%ADD10C,0.200000*%
%ADD11C,0.150000*%
%ADD12C,0.120000*%
G04 APERTURE END LIST*
D10*
X83833333Y-20952380D02*
X84166666Y-20476190D01*
X84404761Y-20952380D02*
X84404761Y-19952380D01*
X84023809Y-19952380D01*
X83928571Y-20000000D01*
X83880952Y-20047619D01*
X83833333Y-20142857D01*
X83833333Y-20285714D01*
X83880952Y-20380952D01*
X83928571Y-20428571D01*
X84023809Y-20476190D01*
X84404761Y-20476190D01*
X83404761Y-20428571D02*
X83071428Y-20428571D01*
X82928571Y-20952380D02*
X83404761Y-20952380D01*
X83404761Y-19952380D01*
X82928571Y-19952380D01*
X82500000Y-20952380D02*
X82500000Y-19952380D01*
X82261904Y-19952380D01*
X82119047Y-20000000D01*
X82023809Y-20095238D01*
X81976190Y-20190476D01*
X81928571Y-20380952D01*
X81928571Y-20523809D01*
X81976190Y-20714285D01*
X82023809Y-20809523D01*
X82119047Y-20904761D01*
X82261904Y-20952380D01*
X82500000Y-20952380D01*
X80785714Y-20904761D02*
X80642857Y-20952380D01*
X80404761Y-20952380D01*
X80309523Y-20904761D01*
X80261904Y-20857142D01*
X80214285Y-20761904D01*
X80214285Y-20666666D01*
X80261904Y-20571428D01*
X80309523Y-20523809D01*
X80404761Y-20476190D01*
X80595238Y-20428571D01*
X80690476Y-20380952D01*
X80738095Y-20333333D01*
X80785714Y-20238095D01*
X80785714Y-20142857D01*
X80738095Y-20047619D01*
X80690476Y-20000000D01*
X80595238Y-19952380D01*
X80357142Y-19952380D01*
X80214285Y-20000000D01*
X79928571Y-19952380D02*
X79357142Y-19952380D01*
X79642857Y-20952380D02*
X79642857Y-19952380D01*
X78452380Y-20952380D02*
X78785714Y-20476190D01*
X79023809Y-20952380D02*
X79023809Y-19952380D01*
X78642857Y-19952380D01*
X78547619Y-20000000D01*
X78500000Y-20047619D01*
X78452380Y-20142857D01*
X78452380Y-20285714D01*
X78500000Y-20380952D01*
X78547619Y-20428571D01*
X78642857Y-20476190D01*
X79023809Y-20476190D01*
X78023809Y-20952380D02*
X78023809Y-19952380D01*
X77547619Y-20952380D02*
X77547619Y-19952380D01*
X77166666Y-19952380D01*
X77071428Y-20000000D01*
X77023809Y-20047619D01*
X76976190Y-20142857D01*
X76976190Y-20285714D01*
X77023809Y-20380952D01*
X77071428Y-20428571D01*
X77166666Y-20476190D01*
X77547619Y-20476190D01*
X76547619Y-20428571D02*
X76214285Y-20428571D01*
X76071428Y-20952380D02*
X76547619Y-20952380D01*
X76547619Y-19952380D01*
X76071428Y-19952380D01*
X74595238Y-21333333D02*
X74642857Y-21285714D01*
X74738095Y-21142857D01*
X74785714Y-21047619D01*
X74833333Y-20904761D01*
X74880952Y-20666666D01*
X74880952Y-20476190D01*
X74833333Y-20238095D01*
X74785714Y-20095238D01*
X74738095Y-20000000D01*
X74642857Y-19857142D01*
X74595238Y-19809523D01*
X73452380Y-20571428D02*
X72690476Y-20571428D01*
X71690476Y-20952380D02*
X72261904Y-20952380D01*
X71976190Y-20952380D02*
X71976190Y-19952380D01*
X72071428Y-20095238D01*
X72166666Y-20190476D01*
X72261904Y-20238095D01*
X71309523Y-20047619D02*
X71261904Y-20000000D01*
X71166666Y-19952380D01*
X70928571Y-19952380D01*
X70833333Y-20000000D01*
X70785714Y-20047619D01*
X70738095Y-20142857D01*
X70738095Y-20238095D01*
X70785714Y-20380952D01*
X71357142Y-20952380D01*
X70738095Y-20952380D01*
X70404761Y-20285714D02*
X70166666Y-20952380D01*
X69928571Y-20285714D01*
X68880952Y-21333333D02*
X68833333Y-21285714D01*
X68738095Y-21142857D01*
X68690476Y-21047619D01*
X68642857Y-20904761D01*
X68595238Y-20666666D01*
X68595238Y-20476190D01*
X68642857Y-20238095D01*
X68690476Y-20095238D01*
X68738095Y-20000000D01*
X68833333Y-19857142D01*
X68880952Y-19809523D01*
X75500000Y-19500000D02*
X75500000Y-19000000D01*
X68500000Y-19500000D02*
X75500000Y-19500000D01*
X68500000Y-19000000D02*
X68500000Y-19500000D01*
X68500000Y-19500000D02*
X68500000Y-19000000D01*
X68500000Y-19000000D02*
X75500000Y-19000000D01*
D11*
X61500000Y-120000000D02*
X101750000Y-120000000D01*
X101750000Y-15000000D02*
X101750000Y-120000000D01*
X61500000Y-15000000D02*
X61500000Y-120000000D01*
X61500000Y-15000000D02*
X101750000Y-15000000D01*
D12*
X62630000Y-38330000D02*
X65230000Y-38330000D01*
X62630000Y-38330000D02*
X62630000Y-17890000D01*
X62630000Y-17890000D02*
X67830000Y-17890000D01*
X67830000Y-35730000D02*
X67830000Y-17890000D01*
X65230000Y-35730000D02*
X67830000Y-35730000D01*
X65230000Y-38330000D02*
X65230000Y-35730000D01*
X67830000Y-38330000D02*
X67830000Y-37000000D01*
X66500000Y-38330000D02*
X67830000Y-38330000D01*
D11*
X87810000Y-33720000D02*
X87810000Y-32450000D01*
X87810000Y-32450000D02*
X80190000Y-32450000D01*
X80190000Y-32450000D02*
X80190000Y-33720000D01*
X89080000Y-45150000D02*
X89080000Y-48960000D01*
X89080000Y-48960000D02*
X86540000Y-48960000D01*
X86540000Y-48960000D02*
X86540000Y-45150000D01*
X86540000Y-45150000D02*
X89080000Y-45150000D01*
X87810000Y-38800000D02*
X80190000Y-38800000D01*
X80190000Y-38800000D02*
X80190000Y-33720000D01*
X87810000Y-38800000D02*
X87810000Y-33720000D01*
X89080000Y-40070000D02*
X89080000Y-42610000D01*
X89080000Y-42610000D02*
X86540000Y-42610000D01*
X86540000Y-42610000D02*
X86540000Y-40070000D01*
X86540000Y-40070000D02*
X89080000Y-40070000D01*
X81460000Y-66740000D02*
X86540000Y-66740000D01*
X86540000Y-66740000D02*
X86540000Y-64200000D01*
X86540000Y-64200000D02*
X81460000Y-64200000D01*
X89080000Y-60390000D02*
X78920000Y-60390000D01*
X78920000Y-51500000D02*
X89080000Y-51500000D01*
X78920000Y-60390000D02*
X78920000Y-51500000D01*
X89080000Y-60390000D02*
X89080000Y-51500000D01*
X75110000Y-33720000D02*
X75110000Y-69280000D01*
X75110000Y-69280000D02*
X92890000Y-69280000D01*
X92890000Y-69280000D02*
X92890000Y-33720000D01*
X92890000Y-33720000D02*
X75110000Y-33720000D01*
X65991904Y-40222380D02*
X65991904Y-39222380D01*
X65991904Y-39698571D02*
X65420476Y-39698571D01*
X65420476Y-40222380D02*
X65420476Y-39222380D01*
X64420476Y-40222380D02*
X64991904Y-40222380D01*
X64706190Y-40222380D02*
X64706190Y-39222380D01*
X64801428Y-39365238D01*
X64896666Y-39460476D01*
X64991904Y-39508095D01*
X73292380Y-50738095D02*
X74101904Y-50738095D01*
X74197142Y-50785714D01*
X74244761Y-50833333D01*
X74292380Y-50928571D01*
X74292380Y-51119047D01*
X74244761Y-51214285D01*
X74197142Y-51261904D01*
X74101904Y-51309523D01*
X73292380Y-51309523D01*
X73387619Y-51738095D02*
X73340000Y-51785714D01*
X73292380Y-51880952D01*
X73292380Y-52119047D01*
X73340000Y-52214285D01*
X73387619Y-52261904D01*
X73482857Y-52309523D01*
X73578095Y-52309523D01*
X73720952Y-52261904D01*
X74292380Y-51690476D01*
X74292380Y-52309523D01*
M02*
