%TF.GenerationSoftware,KiCad,Pcbnew,(5.0.1)-3*%
%TF.CreationDate,2019-04-27T14:05:43+01:00*%
%TF.ProjectId,Fractional clock divider top board,4672616374696F6E616C20636C6F636B,rev?*%
%TF.SameCoordinates,Original*%
%TF.FileFunction,Copper,L2,Bot,Signal*%
%TF.FilePolarity,Positive*%
%FSLAX46Y46*%
G04 Gerber Fmt 4.6, Leading zero omitted, Abs format (unit mm)*
G04 Created by KiCad (PCBNEW (5.0.1)-3) date 27/04/2019 14:05:43*
%MOMM*%
%LPD*%
G01*
G04 APERTURE LIST*
%ADD10C,0.150000*%
%ADD11C,2.500000*%
%ADD12R,1.100000X1.800000*%
%ADD13C,0.100000*%
%ADD14C,1.100000*%
%ADD15C,2.000000*%
%ADD16C,1.300000*%
%ADD17C,1.600000*%
%ADD18O,1.600000X1.600000*%
%ADD19C,1.800000*%
%ADD20R,1.800000X1.800000*%
%ADD21R,1.700000X1.700000*%
%ADD22O,1.700000X1.700000*%
%ADD23C,3.000000*%
%ADD24R,2.000000X2.000000*%
%ADD25C,3.200000*%
%ADD26O,2.500000X3.500000*%
%ADD27C,1.200000*%
%ADD28C,0.800000*%
%ADD29C,1.270000*%
%ADD30C,0.500000*%
%ADD31C,0.254000*%
G04 APERTURE END LIST*
D10*
X55250000Y-15000000D02*
X55250000Y-120000000D01*
X15000000Y-15000000D02*
X55250000Y-15000000D01*
X15000000Y-120000000D02*
X55250000Y-120000000D01*
X15000000Y-15000000D02*
X15000000Y-120000000D01*
D11*
X50380000Y-113500000D03*
X53480000Y-113500000D03*
X42080000Y-113500000D03*
X35000000Y-110120000D03*
X35000000Y-107020000D03*
X35000000Y-118420000D03*
X19620000Y-113500000D03*
X16520000Y-113500000D03*
X27920000Y-113500000D03*
X47000000Y-104380000D03*
X47000000Y-107480000D03*
X47000000Y-96080000D03*
X31620000Y-100500000D03*
X28520000Y-100500000D03*
X39920000Y-100500000D03*
X23000000Y-103880000D03*
X23000000Y-106980000D03*
X23000000Y-95580000D03*
D12*
X53500000Y-90600000D03*
D13*
G36*
X51261955Y-89701324D02*
X51288650Y-89705284D01*
X51314828Y-89711841D01*
X51340238Y-89720933D01*
X51364634Y-89732472D01*
X51387782Y-89746346D01*
X51409458Y-89762422D01*
X51429454Y-89780546D01*
X51447578Y-89800542D01*
X51463654Y-89822218D01*
X51477528Y-89845366D01*
X51489067Y-89869762D01*
X51498159Y-89895172D01*
X51504716Y-89921350D01*
X51508676Y-89948045D01*
X51510000Y-89975000D01*
X51510000Y-91225000D01*
X51508676Y-91251955D01*
X51504716Y-91278650D01*
X51498159Y-91304828D01*
X51489067Y-91330238D01*
X51477528Y-91354634D01*
X51463654Y-91377782D01*
X51447578Y-91399458D01*
X51429454Y-91419454D01*
X51409458Y-91437578D01*
X51387782Y-91453654D01*
X51364634Y-91467528D01*
X51340238Y-91479067D01*
X51314828Y-91488159D01*
X51288650Y-91494716D01*
X51261955Y-91498676D01*
X51235000Y-91500000D01*
X50685000Y-91500000D01*
X50658045Y-91498676D01*
X50631350Y-91494716D01*
X50605172Y-91488159D01*
X50579762Y-91479067D01*
X50555366Y-91467528D01*
X50532218Y-91453654D01*
X50510542Y-91437578D01*
X50490546Y-91419454D01*
X50472422Y-91399458D01*
X50456346Y-91377782D01*
X50442472Y-91354634D01*
X50430933Y-91330238D01*
X50421841Y-91304828D01*
X50415284Y-91278650D01*
X50411324Y-91251955D01*
X50410000Y-91225000D01*
X50410000Y-89975000D01*
X50411324Y-89948045D01*
X50415284Y-89921350D01*
X50421841Y-89895172D01*
X50430933Y-89869762D01*
X50442472Y-89845366D01*
X50456346Y-89822218D01*
X50472422Y-89800542D01*
X50490546Y-89780546D01*
X50510542Y-89762422D01*
X50532218Y-89746346D01*
X50555366Y-89732472D01*
X50579762Y-89720933D01*
X50605172Y-89711841D01*
X50631350Y-89705284D01*
X50658045Y-89701324D01*
X50685000Y-89700000D01*
X51235000Y-89700000D01*
X51261955Y-89701324D01*
X51261955Y-89701324D01*
G37*
D14*
X50960000Y-90600000D03*
D13*
G36*
X52531955Y-91771324D02*
X52558650Y-91775284D01*
X52584828Y-91781841D01*
X52610238Y-91790933D01*
X52634634Y-91802472D01*
X52657782Y-91816346D01*
X52679458Y-91832422D01*
X52699454Y-91850546D01*
X52717578Y-91870542D01*
X52733654Y-91892218D01*
X52747528Y-91915366D01*
X52759067Y-91939762D01*
X52768159Y-91965172D01*
X52774716Y-91991350D01*
X52778676Y-92018045D01*
X52780000Y-92045000D01*
X52780000Y-93295000D01*
X52778676Y-93321955D01*
X52774716Y-93348650D01*
X52768159Y-93374828D01*
X52759067Y-93400238D01*
X52747528Y-93424634D01*
X52733654Y-93447782D01*
X52717578Y-93469458D01*
X52699454Y-93489454D01*
X52679458Y-93507578D01*
X52657782Y-93523654D01*
X52634634Y-93537528D01*
X52610238Y-93549067D01*
X52584828Y-93558159D01*
X52558650Y-93564716D01*
X52531955Y-93568676D01*
X52505000Y-93570000D01*
X51955000Y-93570000D01*
X51928045Y-93568676D01*
X51901350Y-93564716D01*
X51875172Y-93558159D01*
X51849762Y-93549067D01*
X51825366Y-93537528D01*
X51802218Y-93523654D01*
X51780542Y-93507578D01*
X51760546Y-93489454D01*
X51742422Y-93469458D01*
X51726346Y-93447782D01*
X51712472Y-93424634D01*
X51700933Y-93400238D01*
X51691841Y-93374828D01*
X51685284Y-93348650D01*
X51681324Y-93321955D01*
X51680000Y-93295000D01*
X51680000Y-92045000D01*
X51681324Y-92018045D01*
X51685284Y-91991350D01*
X51691841Y-91965172D01*
X51700933Y-91939762D01*
X51712472Y-91915366D01*
X51726346Y-91892218D01*
X51742422Y-91870542D01*
X51760546Y-91850546D01*
X51780542Y-91832422D01*
X51802218Y-91816346D01*
X51825366Y-91802472D01*
X51849762Y-91790933D01*
X51875172Y-91781841D01*
X51901350Y-91775284D01*
X51928045Y-91771324D01*
X51955000Y-91770000D01*
X52505000Y-91770000D01*
X52531955Y-91771324D01*
X52531955Y-91771324D01*
G37*
D14*
X52230000Y-92670000D03*
D12*
X41500000Y-90100000D03*
D13*
G36*
X39261955Y-89201324D02*
X39288650Y-89205284D01*
X39314828Y-89211841D01*
X39340238Y-89220933D01*
X39364634Y-89232472D01*
X39387782Y-89246346D01*
X39409458Y-89262422D01*
X39429454Y-89280546D01*
X39447578Y-89300542D01*
X39463654Y-89322218D01*
X39477528Y-89345366D01*
X39489067Y-89369762D01*
X39498159Y-89395172D01*
X39504716Y-89421350D01*
X39508676Y-89448045D01*
X39510000Y-89475000D01*
X39510000Y-90725000D01*
X39508676Y-90751955D01*
X39504716Y-90778650D01*
X39498159Y-90804828D01*
X39489067Y-90830238D01*
X39477528Y-90854634D01*
X39463654Y-90877782D01*
X39447578Y-90899458D01*
X39429454Y-90919454D01*
X39409458Y-90937578D01*
X39387782Y-90953654D01*
X39364634Y-90967528D01*
X39340238Y-90979067D01*
X39314828Y-90988159D01*
X39288650Y-90994716D01*
X39261955Y-90998676D01*
X39235000Y-91000000D01*
X38685000Y-91000000D01*
X38658045Y-90998676D01*
X38631350Y-90994716D01*
X38605172Y-90988159D01*
X38579762Y-90979067D01*
X38555366Y-90967528D01*
X38532218Y-90953654D01*
X38510542Y-90937578D01*
X38490546Y-90919454D01*
X38472422Y-90899458D01*
X38456346Y-90877782D01*
X38442472Y-90854634D01*
X38430933Y-90830238D01*
X38421841Y-90804828D01*
X38415284Y-90778650D01*
X38411324Y-90751955D01*
X38410000Y-90725000D01*
X38410000Y-89475000D01*
X38411324Y-89448045D01*
X38415284Y-89421350D01*
X38421841Y-89395172D01*
X38430933Y-89369762D01*
X38442472Y-89345366D01*
X38456346Y-89322218D01*
X38472422Y-89300542D01*
X38490546Y-89280546D01*
X38510542Y-89262422D01*
X38532218Y-89246346D01*
X38555366Y-89232472D01*
X38579762Y-89220933D01*
X38605172Y-89211841D01*
X38631350Y-89205284D01*
X38658045Y-89201324D01*
X38685000Y-89200000D01*
X39235000Y-89200000D01*
X39261955Y-89201324D01*
X39261955Y-89201324D01*
G37*
D14*
X38960000Y-90100000D03*
D13*
G36*
X40531955Y-91271324D02*
X40558650Y-91275284D01*
X40584828Y-91281841D01*
X40610238Y-91290933D01*
X40634634Y-91302472D01*
X40657782Y-91316346D01*
X40679458Y-91332422D01*
X40699454Y-91350546D01*
X40717578Y-91370542D01*
X40733654Y-91392218D01*
X40747528Y-91415366D01*
X40759067Y-91439762D01*
X40768159Y-91465172D01*
X40774716Y-91491350D01*
X40778676Y-91518045D01*
X40780000Y-91545000D01*
X40780000Y-92795000D01*
X40778676Y-92821955D01*
X40774716Y-92848650D01*
X40768159Y-92874828D01*
X40759067Y-92900238D01*
X40747528Y-92924634D01*
X40733654Y-92947782D01*
X40717578Y-92969458D01*
X40699454Y-92989454D01*
X40679458Y-93007578D01*
X40657782Y-93023654D01*
X40634634Y-93037528D01*
X40610238Y-93049067D01*
X40584828Y-93058159D01*
X40558650Y-93064716D01*
X40531955Y-93068676D01*
X40505000Y-93070000D01*
X39955000Y-93070000D01*
X39928045Y-93068676D01*
X39901350Y-93064716D01*
X39875172Y-93058159D01*
X39849762Y-93049067D01*
X39825366Y-93037528D01*
X39802218Y-93023654D01*
X39780542Y-93007578D01*
X39760546Y-92989454D01*
X39742422Y-92969458D01*
X39726346Y-92947782D01*
X39712472Y-92924634D01*
X39700933Y-92900238D01*
X39691841Y-92874828D01*
X39685284Y-92848650D01*
X39681324Y-92821955D01*
X39680000Y-92795000D01*
X39680000Y-91545000D01*
X39681324Y-91518045D01*
X39685284Y-91491350D01*
X39691841Y-91465172D01*
X39700933Y-91439762D01*
X39712472Y-91415366D01*
X39726346Y-91392218D01*
X39742422Y-91370542D01*
X39760546Y-91350546D01*
X39780542Y-91332422D01*
X39802218Y-91316346D01*
X39825366Y-91302472D01*
X39849762Y-91290933D01*
X39875172Y-91281841D01*
X39901350Y-91275284D01*
X39928045Y-91271324D01*
X39955000Y-91270000D01*
X40505000Y-91270000D01*
X40531955Y-91271324D01*
X40531955Y-91271324D01*
G37*
D14*
X40230000Y-92170000D03*
D12*
X29500000Y-90600000D03*
D13*
G36*
X27261955Y-89701324D02*
X27288650Y-89705284D01*
X27314828Y-89711841D01*
X27340238Y-89720933D01*
X27364634Y-89732472D01*
X27387782Y-89746346D01*
X27409458Y-89762422D01*
X27429454Y-89780546D01*
X27447578Y-89800542D01*
X27463654Y-89822218D01*
X27477528Y-89845366D01*
X27489067Y-89869762D01*
X27498159Y-89895172D01*
X27504716Y-89921350D01*
X27508676Y-89948045D01*
X27510000Y-89975000D01*
X27510000Y-91225000D01*
X27508676Y-91251955D01*
X27504716Y-91278650D01*
X27498159Y-91304828D01*
X27489067Y-91330238D01*
X27477528Y-91354634D01*
X27463654Y-91377782D01*
X27447578Y-91399458D01*
X27429454Y-91419454D01*
X27409458Y-91437578D01*
X27387782Y-91453654D01*
X27364634Y-91467528D01*
X27340238Y-91479067D01*
X27314828Y-91488159D01*
X27288650Y-91494716D01*
X27261955Y-91498676D01*
X27235000Y-91500000D01*
X26685000Y-91500000D01*
X26658045Y-91498676D01*
X26631350Y-91494716D01*
X26605172Y-91488159D01*
X26579762Y-91479067D01*
X26555366Y-91467528D01*
X26532218Y-91453654D01*
X26510542Y-91437578D01*
X26490546Y-91419454D01*
X26472422Y-91399458D01*
X26456346Y-91377782D01*
X26442472Y-91354634D01*
X26430933Y-91330238D01*
X26421841Y-91304828D01*
X26415284Y-91278650D01*
X26411324Y-91251955D01*
X26410000Y-91225000D01*
X26410000Y-89975000D01*
X26411324Y-89948045D01*
X26415284Y-89921350D01*
X26421841Y-89895172D01*
X26430933Y-89869762D01*
X26442472Y-89845366D01*
X26456346Y-89822218D01*
X26472422Y-89800542D01*
X26490546Y-89780546D01*
X26510542Y-89762422D01*
X26532218Y-89746346D01*
X26555366Y-89732472D01*
X26579762Y-89720933D01*
X26605172Y-89711841D01*
X26631350Y-89705284D01*
X26658045Y-89701324D01*
X26685000Y-89700000D01*
X27235000Y-89700000D01*
X27261955Y-89701324D01*
X27261955Y-89701324D01*
G37*
D14*
X26960000Y-90600000D03*
D13*
G36*
X28531955Y-91771324D02*
X28558650Y-91775284D01*
X28584828Y-91781841D01*
X28610238Y-91790933D01*
X28634634Y-91802472D01*
X28657782Y-91816346D01*
X28679458Y-91832422D01*
X28699454Y-91850546D01*
X28717578Y-91870542D01*
X28733654Y-91892218D01*
X28747528Y-91915366D01*
X28759067Y-91939762D01*
X28768159Y-91965172D01*
X28774716Y-91991350D01*
X28778676Y-92018045D01*
X28780000Y-92045000D01*
X28780000Y-93295000D01*
X28778676Y-93321955D01*
X28774716Y-93348650D01*
X28768159Y-93374828D01*
X28759067Y-93400238D01*
X28747528Y-93424634D01*
X28733654Y-93447782D01*
X28717578Y-93469458D01*
X28699454Y-93489454D01*
X28679458Y-93507578D01*
X28657782Y-93523654D01*
X28634634Y-93537528D01*
X28610238Y-93549067D01*
X28584828Y-93558159D01*
X28558650Y-93564716D01*
X28531955Y-93568676D01*
X28505000Y-93570000D01*
X27955000Y-93570000D01*
X27928045Y-93568676D01*
X27901350Y-93564716D01*
X27875172Y-93558159D01*
X27849762Y-93549067D01*
X27825366Y-93537528D01*
X27802218Y-93523654D01*
X27780542Y-93507578D01*
X27760546Y-93489454D01*
X27742422Y-93469458D01*
X27726346Y-93447782D01*
X27712472Y-93424634D01*
X27700933Y-93400238D01*
X27691841Y-93374828D01*
X27685284Y-93348650D01*
X27681324Y-93321955D01*
X27680000Y-93295000D01*
X27680000Y-92045000D01*
X27681324Y-92018045D01*
X27685284Y-91991350D01*
X27691841Y-91965172D01*
X27700933Y-91939762D01*
X27712472Y-91915366D01*
X27726346Y-91892218D01*
X27742422Y-91870542D01*
X27760546Y-91850546D01*
X27780542Y-91832422D01*
X27802218Y-91816346D01*
X27825366Y-91802472D01*
X27849762Y-91790933D01*
X27875172Y-91781841D01*
X27901350Y-91775284D01*
X27928045Y-91771324D01*
X27955000Y-91770000D01*
X28505000Y-91770000D01*
X28531955Y-91771324D01*
X28531955Y-91771324D01*
G37*
D14*
X28230000Y-92670000D03*
D15*
X29000000Y-17200000D03*
X29000000Y-26800000D03*
D16*
X36500000Y-19500000D03*
X36500000Y-22000000D03*
X36500000Y-24500000D03*
D15*
X45000000Y-77200000D03*
X45000000Y-86800000D03*
D16*
X52500000Y-79500000D03*
X52500000Y-82000000D03*
X52500000Y-84500000D03*
D15*
X29000000Y-36200000D03*
X29000000Y-45800000D03*
D16*
X36500000Y-38500000D03*
X36500000Y-41000000D03*
X36500000Y-43500000D03*
D17*
X40000000Y-73000000D03*
D18*
X50160000Y-73000000D03*
D19*
X33460000Y-92000000D03*
D20*
X36000000Y-92000000D03*
X24000000Y-92000000D03*
D19*
X21460000Y-92000000D03*
X45460000Y-92000000D03*
D20*
X48000000Y-92000000D03*
X17500000Y-30000000D03*
D19*
X20040000Y-30000000D03*
X20040000Y-49000000D03*
D20*
X17500000Y-49000000D03*
X17500000Y-68000000D03*
D19*
X20040000Y-68000000D03*
D20*
X17500000Y-72500000D03*
D19*
X20040000Y-72500000D03*
X38000000Y-69040000D03*
D20*
X38000000Y-66500000D03*
D21*
X36500000Y-17000000D03*
D22*
X39040000Y-17000000D03*
X41580000Y-17000000D03*
X44120000Y-17000000D03*
X46660000Y-17000000D03*
X49200000Y-17000000D03*
X52500000Y-59560000D03*
X52500000Y-57020000D03*
X52500000Y-54480000D03*
X52500000Y-51940000D03*
X52500000Y-49400000D03*
X52500000Y-46860000D03*
X52500000Y-44320000D03*
X52500000Y-41780000D03*
X52500000Y-39240000D03*
X52500000Y-36700000D03*
X52500000Y-34160000D03*
X52500000Y-31620000D03*
X52500000Y-29080000D03*
X52500000Y-26540000D03*
D21*
X52500000Y-24000000D03*
X17000000Y-88500000D03*
D22*
X17000000Y-91040000D03*
X17000000Y-93580000D03*
X17000000Y-96120000D03*
X17000000Y-98660000D03*
X17000000Y-101200000D03*
X17000000Y-103740000D03*
X17000000Y-106280000D03*
X17000000Y-108820000D03*
D18*
X33660000Y-75000000D03*
D17*
X23500000Y-75000000D03*
X20500000Y-76500000D03*
D18*
X20500000Y-86660000D03*
X42840000Y-70000000D03*
D17*
X53000000Y-70000000D03*
D18*
X52660000Y-63500000D03*
D17*
X42500000Y-63500000D03*
D18*
X32660000Y-30000000D03*
D17*
X22500000Y-30000000D03*
X18000000Y-44000000D03*
D18*
X18000000Y-33840000D03*
X32660000Y-33500000D03*
D17*
X22500000Y-33500000D03*
X42500000Y-20500000D03*
D18*
X52660000Y-20500000D03*
D23*
X44000000Y-26800000D03*
X44000000Y-31500000D03*
X44000000Y-36200000D03*
D24*
X21500000Y-57500000D03*
D15*
X21500000Y-60000000D03*
X21500000Y-62500000D03*
D25*
X29000000Y-54400000D03*
X29000000Y-65600000D03*
D15*
X36000000Y-57500000D03*
X36000000Y-62500000D03*
D26*
X27250000Y-82000000D03*
X30750000Y-82000000D03*
D23*
X44000000Y-55200000D03*
X44000000Y-50500000D03*
X44000000Y-45800000D03*
D27*
X33500000Y-88714990D03*
X21500000Y-89000000D03*
D28*
X39920000Y-94000000D03*
D27*
X47000000Y-39500000D03*
X47000000Y-29500000D03*
X46500000Y-23000000D03*
X41000000Y-57500000D03*
X41000000Y-39500000D03*
D28*
X39000000Y-31500000D03*
X40500000Y-34000000D03*
X44120000Y-19960000D03*
X28000000Y-95500000D03*
X46500000Y-46000000D03*
X47399999Y-56500000D03*
X50550000Y-52000000D03*
X51000000Y-67000000D03*
X42500000Y-68000000D03*
X37500000Y-71000000D03*
X50550000Y-49000000D03*
X50550000Y-27000000D03*
X47111039Y-44967219D03*
X38500000Y-63500000D03*
X38000000Y-57500000D03*
X36000000Y-47500000D03*
X31565000Y-42000000D03*
X31000000Y-62500000D03*
X34500000Y-55500000D03*
X42500000Y-41000000D03*
X37000000Y-46500000D03*
X34500000Y-46500000D03*
X42500000Y-42900001D03*
X39500000Y-43000000D03*
X54500000Y-82000000D03*
X39000000Y-33000000D03*
X39000000Y-41000000D03*
X36160000Y-77500000D03*
X29000000Y-87479990D03*
X48000000Y-81500000D03*
X47500000Y-70500000D03*
X25050000Y-67949999D03*
X24000000Y-72500000D03*
X41500000Y-35500000D03*
X24000000Y-45000000D03*
D29*
X33460000Y-91000000D02*
X33460000Y-88754990D01*
X33460000Y-88754990D02*
X33500000Y-88714990D01*
X21460000Y-89040000D02*
X21500000Y-89000000D01*
X21460000Y-92000000D02*
X21460000Y-89040000D01*
X33460000Y-91000000D02*
X33460000Y-92000000D01*
D30*
X29099990Y-110099990D02*
X32500000Y-113500000D01*
X17849999Y-102049999D02*
X18549999Y-102049999D01*
X18549999Y-102049999D02*
X20900010Y-104400010D01*
X32500000Y-113500000D02*
X42080000Y-113500000D01*
X20900010Y-104400010D02*
X20900010Y-108400010D01*
X20900010Y-108400010D02*
X22599990Y-110099990D01*
X22599990Y-110099990D02*
X29099990Y-110099990D01*
X17000000Y-101200000D02*
X17849999Y-102049999D01*
X40230000Y-100190000D02*
X39920000Y-100500000D01*
X40230000Y-91770000D02*
X39920000Y-92080000D01*
X39920000Y-94000000D02*
X39920000Y-100500000D01*
X39920000Y-92080000D02*
X39920000Y-94000000D01*
D29*
X47000000Y-29500000D02*
X47000000Y-34000000D01*
X47000000Y-33500000D02*
X47000000Y-34000000D01*
X47000000Y-34000000D02*
X47000000Y-39500000D01*
X47000000Y-29500000D02*
X47000000Y-23500000D01*
X47000000Y-23500000D02*
X46500000Y-23000000D01*
X41000000Y-57500000D02*
X41000000Y-39500000D01*
X41500000Y-79500000D02*
X52500000Y-79500000D01*
X36000000Y-62500000D02*
X36000000Y-74000000D01*
X36000000Y-74000000D02*
X41500000Y-79500000D01*
D30*
X36500000Y-17000000D02*
X33000000Y-17000000D01*
X32660000Y-17340000D02*
X32660000Y-30000000D01*
X33000000Y-17000000D02*
X32660000Y-17340000D01*
X39040000Y-17000000D02*
X39040000Y-18202081D01*
X39040000Y-18202081D02*
X39040000Y-31460000D01*
X39040000Y-31460000D02*
X39000000Y-31500000D01*
X41500000Y-16580000D02*
X41580000Y-16500000D01*
X41580000Y-17000000D02*
X40500000Y-18080000D01*
X40500000Y-18080000D02*
X40500000Y-34000000D01*
X44120000Y-17000000D02*
X44120000Y-19960000D01*
X46660000Y-19160000D02*
X46660000Y-16500000D01*
X49500000Y-22000000D02*
X46660000Y-19160000D01*
X49500000Y-69000000D02*
X49500000Y-22000000D01*
X50160000Y-69660000D02*
X50160000Y-73000000D01*
X49500000Y-69000000D02*
X50160000Y-69660000D01*
X28230000Y-95270000D02*
X28000000Y-95500000D01*
X28230000Y-92270000D02*
X28230000Y-95270000D01*
X46500000Y-46000000D02*
X47500000Y-47000000D01*
X47500000Y-47000000D02*
X47500000Y-56399999D01*
X47500000Y-56399999D02*
X47399999Y-56500000D01*
X50550000Y-52000000D02*
X51000000Y-52450000D01*
X51000000Y-52450000D02*
X51000000Y-67000000D01*
X42500000Y-68000000D02*
X39500000Y-71000000D01*
X39500000Y-71000000D02*
X37500000Y-71000000D01*
X50550000Y-49000000D02*
X50550000Y-27000000D01*
X44000000Y-42000000D02*
X44000000Y-36200000D01*
X44143820Y-42000000D02*
X44000000Y-42000000D01*
X47111039Y-44967219D02*
X44143820Y-42000000D01*
X38500000Y-63500000D02*
X38500000Y-58000000D01*
X38500000Y-58000000D02*
X38000000Y-57500000D01*
X36000000Y-47500000D02*
X36000000Y-57500000D01*
X31565000Y-42000000D02*
X31565000Y-61935000D01*
X31565000Y-61935000D02*
X31000000Y-62500000D01*
X34500000Y-46500000D02*
X34500000Y-55500000D01*
X42500000Y-41000000D02*
X42500000Y-42900001D01*
X39500000Y-44000000D02*
X37000000Y-46500000D01*
X39500000Y-43000000D02*
X39500000Y-44000000D01*
X54375000Y-38575000D02*
X52500000Y-36700000D01*
X54375000Y-78000000D02*
X54375000Y-38575000D01*
X54500000Y-78125000D02*
X54375000Y-78000000D01*
X54500000Y-82000000D02*
X54500000Y-78125000D01*
X39000000Y-33000000D02*
X39000000Y-41000000D01*
X25420000Y-111000000D02*
X27920000Y-113500000D01*
X20000000Y-111000000D02*
X25420000Y-111000000D01*
X20000000Y-105000000D02*
X20000000Y-111000000D01*
X17000000Y-103740000D02*
X18740000Y-103740000D01*
X18740000Y-103740000D02*
X20000000Y-105000000D01*
X41500000Y-90500000D02*
X41500000Y-82840000D01*
X41500000Y-82840000D02*
X36160000Y-77500000D01*
X29500000Y-91000000D02*
X29500000Y-87979990D01*
X29500000Y-87979990D02*
X29000000Y-87479990D01*
X54160000Y-90340000D02*
X53500000Y-91000000D01*
X52000000Y-87660000D02*
X53340000Y-89000000D01*
X53340000Y-90840000D02*
X53500000Y-91000000D01*
X53340000Y-89000000D02*
X53340000Y-90840000D01*
X52000000Y-87660000D02*
X48000000Y-83660000D01*
X48000000Y-83660000D02*
X48000000Y-81500000D01*
X43340000Y-70500000D02*
X42840000Y-70000000D01*
X47500000Y-70500000D02*
X43340000Y-70500000D01*
X22500000Y-30000000D02*
X20040000Y-30000000D01*
X20040000Y-46040000D02*
X20040000Y-49000000D01*
X18000000Y-44000000D02*
X20040000Y-46040000D01*
X25050000Y-45550000D02*
X25050000Y-67949999D01*
X25000000Y-45500000D02*
X25050000Y-45550000D01*
X25050000Y-36050000D02*
X22500000Y-33500000D01*
X25050000Y-45550000D02*
X25050000Y-36050000D01*
X24000000Y-45000000D02*
X24000000Y-72500000D01*
X42500000Y-20500000D02*
X41500000Y-21500000D01*
X41500000Y-21500000D02*
X41500000Y-35500000D01*
D31*
G36*
X28073847Y-15813914D02*
X27613914Y-16273847D01*
X27365000Y-16874778D01*
X27365000Y-17525222D01*
X27613914Y-18126153D01*
X28073847Y-18586086D01*
X28674778Y-18835000D01*
X29325222Y-18835000D01*
X29926153Y-18586086D01*
X30386086Y-18126153D01*
X30635000Y-17525222D01*
X30635000Y-16874778D01*
X30386086Y-16273847D01*
X29926153Y-15813914D01*
X29675283Y-15710000D01*
X35180291Y-15710000D01*
X35051843Y-15902235D01*
X35009522Y-16115000D01*
X33087161Y-16115000D01*
X33000000Y-16097663D01*
X32912839Y-16115000D01*
X32912835Y-16115000D01*
X32654690Y-16166348D01*
X32361951Y-16361951D01*
X32312575Y-16435847D01*
X32095847Y-16652575D01*
X32021951Y-16701951D01*
X31826348Y-16994691D01*
X31775000Y-17252836D01*
X31775000Y-17252839D01*
X31757663Y-17340000D01*
X31775000Y-17427161D01*
X31775001Y-28865478D01*
X31625423Y-28965423D01*
X31308260Y-29440091D01*
X31196887Y-30000000D01*
X31308260Y-30559909D01*
X31625423Y-31034577D01*
X32100091Y-31351740D01*
X32518667Y-31435000D01*
X32801333Y-31435000D01*
X33219909Y-31351740D01*
X33694577Y-31034577D01*
X34011740Y-30559909D01*
X34123113Y-30000000D01*
X34011740Y-29440091D01*
X33694577Y-28965423D01*
X33545000Y-28865479D01*
X33545000Y-25399016D01*
X35780590Y-25399016D01*
X35836271Y-25629611D01*
X36319078Y-25797622D01*
X36829428Y-25768083D01*
X37163729Y-25629611D01*
X37219410Y-25399016D01*
X36500000Y-24679605D01*
X35780590Y-25399016D01*
X33545000Y-25399016D01*
X33545000Y-24319078D01*
X35202378Y-24319078D01*
X35231917Y-24829428D01*
X35370389Y-25163729D01*
X35600984Y-25219410D01*
X36320395Y-24500000D01*
X36679605Y-24500000D01*
X37399016Y-25219410D01*
X37629611Y-25163729D01*
X37797622Y-24680922D01*
X37768083Y-24170572D01*
X37629611Y-23836271D01*
X37399016Y-23780590D01*
X36679605Y-24500000D01*
X36320395Y-24500000D01*
X35600984Y-23780590D01*
X35370389Y-23836271D01*
X35202378Y-24319078D01*
X33545000Y-24319078D01*
X33545000Y-17885000D01*
X35009522Y-17885000D01*
X35051843Y-18097765D01*
X35192191Y-18307809D01*
X35402235Y-18448157D01*
X35650000Y-18497440D01*
X35685295Y-18497440D01*
X35410629Y-18772106D01*
X35215000Y-19244398D01*
X35215000Y-19755602D01*
X35410629Y-20227894D01*
X35772106Y-20589371D01*
X36159900Y-20750000D01*
X35772106Y-20910629D01*
X35410629Y-21272106D01*
X35215000Y-21744398D01*
X35215000Y-22255602D01*
X35410629Y-22727894D01*
X35772106Y-23089371D01*
X36143408Y-23243169D01*
X35836271Y-23370389D01*
X35780590Y-23600984D01*
X36500000Y-24320395D01*
X37219410Y-23600984D01*
X37163729Y-23370389D01*
X36829906Y-23254223D01*
X37227894Y-23089371D01*
X37589371Y-22727894D01*
X37785000Y-22255602D01*
X37785000Y-21744398D01*
X37589371Y-21272106D01*
X37227894Y-20910629D01*
X36840100Y-20750000D01*
X37227894Y-20589371D01*
X37589371Y-20227894D01*
X37785000Y-19755602D01*
X37785000Y-19244398D01*
X37589371Y-18772106D01*
X37314705Y-18497440D01*
X37350000Y-18497440D01*
X37597765Y-18448157D01*
X37807809Y-18307809D01*
X37948157Y-18097765D01*
X37957184Y-18052381D01*
X37969375Y-18070625D01*
X38155000Y-18194656D01*
X38155001Y-30881288D01*
X38122569Y-30913720D01*
X37965000Y-31294126D01*
X37965000Y-31705874D01*
X38122569Y-32086280D01*
X38286289Y-32250000D01*
X38122569Y-32413720D01*
X37965000Y-32794126D01*
X37965000Y-33205874D01*
X38115000Y-33568007D01*
X38115001Y-40431991D01*
X37965000Y-40794126D01*
X37965000Y-41205874D01*
X38122569Y-41586280D01*
X38413720Y-41877431D01*
X38794126Y-42035000D01*
X39125131Y-42035000D01*
X38913720Y-42122569D01*
X38622569Y-42413720D01*
X38465000Y-42794126D01*
X38465000Y-43205874D01*
X38615001Y-43568008D01*
X38615001Y-43633421D01*
X36775853Y-45472569D01*
X36413720Y-45622569D01*
X36122569Y-45913720D01*
X35965000Y-46294126D01*
X35965000Y-46465000D01*
X35794126Y-46465000D01*
X35535000Y-46572333D01*
X35535000Y-46294126D01*
X35377431Y-45913720D01*
X35086280Y-45622569D01*
X34705874Y-45465000D01*
X34294126Y-45465000D01*
X33913720Y-45622569D01*
X33622569Y-45913720D01*
X33465000Y-46294126D01*
X33465000Y-46705874D01*
X33615000Y-47068007D01*
X33615001Y-54931991D01*
X33465000Y-55294126D01*
X33465000Y-55705874D01*
X33622569Y-56086280D01*
X33913720Y-56377431D01*
X34294126Y-56535000D01*
X34652761Y-56535000D01*
X34613914Y-56573847D01*
X34365000Y-57174778D01*
X34365000Y-57825222D01*
X34613914Y-58426153D01*
X35073847Y-58886086D01*
X35674778Y-59135000D01*
X36325222Y-59135000D01*
X36926153Y-58886086D01*
X37386086Y-58426153D01*
X37408450Y-58372161D01*
X37413720Y-58377431D01*
X37615001Y-58460804D01*
X37615000Y-62126494D01*
X37386086Y-61573847D01*
X36926153Y-61113914D01*
X36325222Y-60865000D01*
X35674778Y-60865000D01*
X35073847Y-61113914D01*
X34613914Y-61573847D01*
X34365000Y-62174778D01*
X34365000Y-62825222D01*
X34613914Y-63426153D01*
X34730000Y-63542239D01*
X34730001Y-73874920D01*
X34708002Y-73985515D01*
X34694577Y-73965423D01*
X34219909Y-73648260D01*
X33801333Y-73565000D01*
X33518667Y-73565000D01*
X33100091Y-73648260D01*
X32625423Y-73965423D01*
X32308260Y-74440091D01*
X32196887Y-75000000D01*
X32308260Y-75559909D01*
X32625423Y-76034577D01*
X33100091Y-76351740D01*
X33518667Y-76435000D01*
X33801333Y-76435000D01*
X34219909Y-76351740D01*
X34694577Y-76034577D01*
X35011740Y-75559909D01*
X35123113Y-75000000D01*
X35109692Y-74932529D01*
X35190419Y-74986469D01*
X40513531Y-80309582D01*
X40584382Y-80415618D01*
X40690418Y-80486469D01*
X40690419Y-80486470D01*
X40952084Y-80661309D01*
X41004471Y-80696313D01*
X41374920Y-80770000D01*
X41374924Y-80770000D01*
X41500000Y-80794879D01*
X41625076Y-80770000D01*
X47266289Y-80770000D01*
X47122569Y-80913720D01*
X46965000Y-81294126D01*
X46965000Y-81705874D01*
X47115001Y-82068009D01*
X47115000Y-83572839D01*
X47097663Y-83660000D01*
X47115000Y-83747161D01*
X47115000Y-83747164D01*
X47166348Y-84005309D01*
X47361951Y-84298049D01*
X47435847Y-84347425D01*
X51435845Y-88347424D01*
X51435848Y-88347426D01*
X52427471Y-89339050D01*
X52351843Y-89452235D01*
X52302560Y-89700000D01*
X52302560Y-91122560D01*
X52157440Y-91122560D01*
X52157440Y-89975000D01*
X52087223Y-89621997D01*
X51887264Y-89322736D01*
X51588003Y-89122777D01*
X51235000Y-89052560D01*
X50685000Y-89052560D01*
X50331997Y-89122777D01*
X50032736Y-89322736D01*
X49832777Y-89621997D01*
X49762560Y-89975000D01*
X49762560Y-91225000D01*
X49832777Y-91578003D01*
X50032736Y-91877264D01*
X50331997Y-92077223D01*
X50685000Y-92147440D01*
X51032560Y-92147440D01*
X51032560Y-93295000D01*
X51102777Y-93648003D01*
X51302736Y-93947264D01*
X51601997Y-94147223D01*
X51955000Y-94217440D01*
X52505000Y-94217440D01*
X52858003Y-94147223D01*
X53157264Y-93947264D01*
X53357223Y-93648003D01*
X53427440Y-93295000D01*
X53427440Y-92147440D01*
X54050000Y-92147440D01*
X54297765Y-92098157D01*
X54505405Y-91959415D01*
X54409837Y-111837625D01*
X53804194Y-111605612D01*
X53054565Y-111625750D01*
X52455533Y-111873877D01*
X52326285Y-112166680D01*
X53480000Y-113320395D01*
X53494143Y-113306253D01*
X53673748Y-113485858D01*
X53659605Y-113500000D01*
X53673748Y-113514143D01*
X53494143Y-113693748D01*
X53480000Y-113679605D01*
X52326285Y-114833320D01*
X52455533Y-115126123D01*
X53155806Y-115394388D01*
X53905435Y-115374250D01*
X54393806Y-115171960D01*
X54374008Y-119290000D01*
X36679944Y-119290000D01*
X36885000Y-118794950D01*
X36885000Y-118045050D01*
X36598026Y-117352233D01*
X36067767Y-116821974D01*
X35374950Y-116535000D01*
X34625050Y-116535000D01*
X33932233Y-116821974D01*
X33401974Y-117352233D01*
X33115000Y-118045050D01*
X33115000Y-118794950D01*
X33320056Y-119290000D01*
X15710000Y-119290000D01*
X15710000Y-115208282D01*
X16195806Y-115394388D01*
X16945435Y-115374250D01*
X17544467Y-115126123D01*
X17673715Y-114833320D01*
X18466285Y-114833320D01*
X18595533Y-115126123D01*
X19295806Y-115394388D01*
X20045435Y-115374250D01*
X20644467Y-115126123D01*
X20773715Y-114833320D01*
X19620000Y-113679605D01*
X18466285Y-114833320D01*
X17673715Y-114833320D01*
X16520000Y-113679605D01*
X16505858Y-113693748D01*
X16326253Y-113514143D01*
X16340395Y-113500000D01*
X16699605Y-113500000D01*
X17853320Y-114653715D01*
X18070000Y-114558069D01*
X18286680Y-114653715D01*
X19440395Y-113500000D01*
X19799605Y-113500000D01*
X20953320Y-114653715D01*
X21246123Y-114524467D01*
X21514388Y-113824194D01*
X21494250Y-113074565D01*
X21246123Y-112475533D01*
X20953320Y-112346285D01*
X19799605Y-113500000D01*
X19440395Y-113500000D01*
X18286680Y-112346285D01*
X18070000Y-112441931D01*
X17853320Y-112346285D01*
X16699605Y-113500000D01*
X16340395Y-113500000D01*
X16326253Y-113485858D01*
X16505858Y-113306253D01*
X16520000Y-113320395D01*
X17673715Y-112166680D01*
X17544467Y-111873877D01*
X16844194Y-111605612D01*
X16094565Y-111625750D01*
X15710000Y-111785042D01*
X15710000Y-109542608D01*
X15728355Y-109586924D01*
X16118642Y-110015183D01*
X16643108Y-110261486D01*
X16873000Y-110140819D01*
X16873000Y-108947000D01*
X17127000Y-108947000D01*
X17127000Y-110140819D01*
X17356892Y-110261486D01*
X17881358Y-110015183D01*
X18271645Y-109586924D01*
X18441476Y-109176890D01*
X18320155Y-108947000D01*
X17127000Y-108947000D01*
X16873000Y-108947000D01*
X16853000Y-108947000D01*
X16853000Y-108693000D01*
X16873000Y-108693000D01*
X16873000Y-108673000D01*
X17127000Y-108673000D01*
X17127000Y-108693000D01*
X18320155Y-108693000D01*
X18441476Y-108463110D01*
X18271645Y-108053076D01*
X17881358Y-107624817D01*
X17751522Y-107563843D01*
X18070625Y-107350625D01*
X18398839Y-106859418D01*
X18514092Y-106280000D01*
X18398839Y-105700582D01*
X18070625Y-105209375D01*
X17772239Y-105010000D01*
X18070625Y-104810625D01*
X18194656Y-104625000D01*
X18373422Y-104625000D01*
X19115000Y-105366579D01*
X19115001Y-110912831D01*
X19097662Y-111000000D01*
X19166348Y-111345310D01*
X19350926Y-111621550D01*
X19194565Y-111625750D01*
X18595533Y-111873877D01*
X18466285Y-112166680D01*
X19620000Y-113320395D01*
X20773715Y-112166680D01*
X20649377Y-111885000D01*
X25053422Y-111885000D01*
X26110705Y-112942283D01*
X26035000Y-113125050D01*
X26035000Y-113874950D01*
X26321974Y-114567767D01*
X26852233Y-115098026D01*
X27545050Y-115385000D01*
X28294950Y-115385000D01*
X28987767Y-115098026D01*
X29518026Y-114567767D01*
X29805000Y-113874950D01*
X29805000Y-113125050D01*
X29518026Y-112432233D01*
X28987767Y-111901974D01*
X28294950Y-111615000D01*
X27545050Y-111615000D01*
X27362283Y-111690705D01*
X26656568Y-110984990D01*
X28733412Y-110984990D01*
X31812577Y-114064156D01*
X31861951Y-114138049D01*
X31935844Y-114187423D01*
X31935845Y-114187424D01*
X32046880Y-114261615D01*
X32154690Y-114333652D01*
X32412835Y-114385000D01*
X32412839Y-114385000D01*
X32499999Y-114402337D01*
X32587159Y-114385000D01*
X40406269Y-114385000D01*
X40481974Y-114567767D01*
X41012233Y-115098026D01*
X41705050Y-115385000D01*
X42454950Y-115385000D01*
X43147767Y-115098026D01*
X43412473Y-114833320D01*
X49226285Y-114833320D01*
X49355533Y-115126123D01*
X50055806Y-115394388D01*
X50805435Y-115374250D01*
X51404467Y-115126123D01*
X51533715Y-114833320D01*
X50380000Y-113679605D01*
X49226285Y-114833320D01*
X43412473Y-114833320D01*
X43678026Y-114567767D01*
X43965000Y-113874950D01*
X43965000Y-113175806D01*
X48485612Y-113175806D01*
X48505750Y-113925435D01*
X48753877Y-114524467D01*
X49046680Y-114653715D01*
X50200395Y-113500000D01*
X50559605Y-113500000D01*
X51713320Y-114653715D01*
X51930000Y-114558069D01*
X52146680Y-114653715D01*
X53300395Y-113500000D01*
X52146680Y-112346285D01*
X51930000Y-112441931D01*
X51713320Y-112346285D01*
X50559605Y-113500000D01*
X50200395Y-113500000D01*
X49046680Y-112346285D01*
X48753877Y-112475533D01*
X48485612Y-113175806D01*
X43965000Y-113175806D01*
X43965000Y-113125050D01*
X43678026Y-112432233D01*
X43412473Y-112166680D01*
X49226285Y-112166680D01*
X50380000Y-113320395D01*
X51533715Y-112166680D01*
X51404467Y-111873877D01*
X50704194Y-111605612D01*
X49954565Y-111625750D01*
X49355533Y-111873877D01*
X49226285Y-112166680D01*
X43412473Y-112166680D01*
X43147767Y-111901974D01*
X42454950Y-111615000D01*
X41705050Y-111615000D01*
X41012233Y-111901974D01*
X40481974Y-112432233D01*
X40406269Y-112615000D01*
X32866579Y-112615000D01*
X31704899Y-111453320D01*
X33846285Y-111453320D01*
X33975533Y-111746123D01*
X34675806Y-112014388D01*
X35425435Y-111994250D01*
X36024467Y-111746123D01*
X36153715Y-111453320D01*
X35000000Y-110299605D01*
X33846285Y-111453320D01*
X31704899Y-111453320D01*
X30047385Y-109795806D01*
X33105612Y-109795806D01*
X33125750Y-110545435D01*
X33373877Y-111144467D01*
X33666680Y-111273715D01*
X34820395Y-110120000D01*
X35179605Y-110120000D01*
X36333320Y-111273715D01*
X36626123Y-111144467D01*
X36894388Y-110444194D01*
X36874250Y-109694565D01*
X36626123Y-109095533D01*
X36333320Y-108966285D01*
X35179605Y-110120000D01*
X34820395Y-110120000D01*
X33666680Y-108966285D01*
X33373877Y-109095533D01*
X33105612Y-109795806D01*
X30047385Y-109795806D01*
X29787415Y-109535837D01*
X29738039Y-109461941D01*
X29445300Y-109266338D01*
X29187155Y-109214990D01*
X29187151Y-109214990D01*
X29099990Y-109197653D01*
X29012829Y-109214990D01*
X22966569Y-109214990D01*
X22595018Y-108843439D01*
X22675806Y-108874388D01*
X23425435Y-108854250D01*
X24024467Y-108606123D01*
X24136058Y-108353320D01*
X33846285Y-108353320D01*
X33941931Y-108570000D01*
X33846285Y-108786680D01*
X35000000Y-109940395D01*
X36127075Y-108813320D01*
X45846285Y-108813320D01*
X45975533Y-109106123D01*
X46675806Y-109374388D01*
X47425435Y-109354250D01*
X48024467Y-109106123D01*
X48153715Y-108813320D01*
X47000000Y-107659605D01*
X45846285Y-108813320D01*
X36127075Y-108813320D01*
X36153715Y-108786680D01*
X36058069Y-108570000D01*
X36153715Y-108353320D01*
X35000000Y-107199605D01*
X33846285Y-108353320D01*
X24136058Y-108353320D01*
X24153715Y-108313320D01*
X23000000Y-107159605D01*
X22985858Y-107173748D01*
X22806253Y-106994143D01*
X22820395Y-106980000D01*
X23179605Y-106980000D01*
X24333320Y-108133715D01*
X24626123Y-108004467D01*
X24894388Y-107304194D01*
X24878045Y-106695806D01*
X33105612Y-106695806D01*
X33125750Y-107445435D01*
X33373877Y-108044467D01*
X33666680Y-108173715D01*
X34820395Y-107020000D01*
X35179605Y-107020000D01*
X36333320Y-108173715D01*
X36626123Y-108044467D01*
X36894388Y-107344194D01*
X36889328Y-107155806D01*
X45105612Y-107155806D01*
X45125750Y-107905435D01*
X45373877Y-108504467D01*
X45666680Y-108633715D01*
X46820395Y-107480000D01*
X47179605Y-107480000D01*
X48333320Y-108633715D01*
X48626123Y-108504467D01*
X48894388Y-107804194D01*
X48874250Y-107054565D01*
X48626123Y-106455533D01*
X48333320Y-106326285D01*
X47179605Y-107480000D01*
X46820395Y-107480000D01*
X45666680Y-106326285D01*
X45373877Y-106455533D01*
X45105612Y-107155806D01*
X36889328Y-107155806D01*
X36874250Y-106594565D01*
X36626123Y-105995533D01*
X36333320Y-105866285D01*
X35179605Y-107020000D01*
X34820395Y-107020000D01*
X33666680Y-105866285D01*
X33373877Y-105995533D01*
X33105612Y-106695806D01*
X24878045Y-106695806D01*
X24874250Y-106554565D01*
X24626123Y-105955533D01*
X24333320Y-105826285D01*
X23179605Y-106980000D01*
X22820395Y-106980000D01*
X22806253Y-106965858D01*
X22985858Y-106786253D01*
X23000000Y-106800395D01*
X24113715Y-105686680D01*
X33846285Y-105686680D01*
X35000000Y-106840395D01*
X36153715Y-105686680D01*
X36024467Y-105393877D01*
X35324194Y-105125612D01*
X34574565Y-105145750D01*
X33975533Y-105393877D01*
X33846285Y-105686680D01*
X24113715Y-105686680D01*
X24153715Y-105646680D01*
X24075746Y-105470047D01*
X24598026Y-104947767D01*
X24885000Y-104254950D01*
X24885000Y-104005050D01*
X45115000Y-104005050D01*
X45115000Y-104754950D01*
X45401974Y-105447767D01*
X45924254Y-105970047D01*
X45846285Y-106146680D01*
X47000000Y-107300395D01*
X48153715Y-106146680D01*
X48075746Y-105970047D01*
X48598026Y-105447767D01*
X48885000Y-104754950D01*
X48885000Y-104005050D01*
X48598026Y-103312233D01*
X48067767Y-102781974D01*
X47374950Y-102495000D01*
X46625050Y-102495000D01*
X45932233Y-102781974D01*
X45401974Y-103312233D01*
X45115000Y-104005050D01*
X24885000Y-104005050D01*
X24885000Y-103505050D01*
X24598026Y-102812233D01*
X24067767Y-102281974D01*
X23374950Y-101995000D01*
X22625050Y-101995000D01*
X21932233Y-102281974D01*
X21401974Y-102812233D01*
X21156482Y-103404903D01*
X19584899Y-101833320D01*
X27366285Y-101833320D01*
X27495533Y-102126123D01*
X28195806Y-102394388D01*
X28945435Y-102374250D01*
X29544467Y-102126123D01*
X29673715Y-101833320D01*
X28520000Y-100679605D01*
X27366285Y-101833320D01*
X19584899Y-101833320D01*
X19237424Y-101485846D01*
X19188048Y-101411950D01*
X18895309Y-101216347D01*
X18637164Y-101164999D01*
X18637160Y-101164999D01*
X18549999Y-101147662D01*
X18505444Y-101156524D01*
X18398839Y-100620582D01*
X18101650Y-100175806D01*
X26625612Y-100175806D01*
X26645750Y-100925435D01*
X26893877Y-101524467D01*
X27186680Y-101653715D01*
X28340395Y-100500000D01*
X28699605Y-100500000D01*
X29853320Y-101653715D01*
X30029953Y-101575746D01*
X30552233Y-102098026D01*
X31245050Y-102385000D01*
X31994950Y-102385000D01*
X32687767Y-102098026D01*
X33218026Y-101567767D01*
X33505000Y-100874950D01*
X33505000Y-100125050D01*
X33218026Y-99432233D01*
X32687767Y-98901974D01*
X31994950Y-98615000D01*
X31245050Y-98615000D01*
X30552233Y-98901974D01*
X30029953Y-99424254D01*
X29853320Y-99346285D01*
X28699605Y-100500000D01*
X28340395Y-100500000D01*
X27186680Y-99346285D01*
X26893877Y-99475533D01*
X26625612Y-100175806D01*
X18101650Y-100175806D01*
X18070625Y-100129375D01*
X17772239Y-99930000D01*
X18070625Y-99730625D01*
X18398839Y-99239418D01*
X18413307Y-99166680D01*
X27366285Y-99166680D01*
X28520000Y-100320395D01*
X29673715Y-99166680D01*
X29544467Y-98873877D01*
X28844194Y-98605612D01*
X28094565Y-98625750D01*
X27495533Y-98873877D01*
X27366285Y-99166680D01*
X18413307Y-99166680D01*
X18514092Y-98660000D01*
X18398839Y-98080582D01*
X18070625Y-97589375D01*
X17772239Y-97390000D01*
X18070625Y-97190625D01*
X18398839Y-96699418D01*
X18514092Y-96120000D01*
X18398839Y-95540582D01*
X18174644Y-95205050D01*
X21115000Y-95205050D01*
X21115000Y-95954950D01*
X21401974Y-96647767D01*
X21932233Y-97178026D01*
X22625050Y-97465000D01*
X23374950Y-97465000D01*
X24067767Y-97178026D01*
X24598026Y-96647767D01*
X24885000Y-95954950D01*
X24885000Y-95205050D01*
X24598026Y-94512233D01*
X24067767Y-93981974D01*
X23374950Y-93695000D01*
X22625050Y-93695000D01*
X21932233Y-93981974D01*
X21401974Y-94512233D01*
X21115000Y-95205050D01*
X18174644Y-95205050D01*
X18070625Y-95049375D01*
X17772239Y-94850000D01*
X18070625Y-94650625D01*
X18398839Y-94159418D01*
X18514092Y-93580000D01*
X18398839Y-93000582D01*
X18070625Y-92509375D01*
X17772239Y-92310000D01*
X18070625Y-92110625D01*
X18398839Y-91619418D01*
X18514092Y-91040000D01*
X18398839Y-90460582D01*
X18070625Y-89969375D01*
X18048967Y-89954904D01*
X18209698Y-89888327D01*
X18388327Y-89709699D01*
X18485000Y-89476310D01*
X18485000Y-88785750D01*
X18326250Y-88627000D01*
X17127000Y-88627000D01*
X17127000Y-88647000D01*
X16873000Y-88647000D01*
X16873000Y-88627000D01*
X16853000Y-88627000D01*
X16853000Y-88373000D01*
X16873000Y-88373000D01*
X16873000Y-87173750D01*
X17127000Y-87173750D01*
X17127000Y-88373000D01*
X18326250Y-88373000D01*
X18485000Y-88214250D01*
X18485000Y-87523690D01*
X18388327Y-87290301D01*
X18209698Y-87111673D01*
X17976309Y-87015000D01*
X17285750Y-87015000D01*
X17127000Y-87173750D01*
X16873000Y-87173750D01*
X16714250Y-87015000D01*
X16023691Y-87015000D01*
X15790302Y-87111673D01*
X15710000Y-87191975D01*
X15710000Y-86660000D01*
X19036887Y-86660000D01*
X19148260Y-87219909D01*
X19465423Y-87694577D01*
X19940091Y-88011740D01*
X20358667Y-88095000D01*
X20588356Y-88095000D01*
X20544383Y-88124382D01*
X20473532Y-88230418D01*
X20473530Y-88230420D01*
X20263688Y-88544471D01*
X20165121Y-89040000D01*
X20190001Y-89165080D01*
X20190000Y-91099183D01*
X20158690Y-91130493D01*
X19925000Y-91694670D01*
X19925000Y-92305330D01*
X20158690Y-92869507D01*
X20590493Y-93301310D01*
X21154670Y-93535000D01*
X21765330Y-93535000D01*
X22329507Y-93301310D01*
X22498725Y-93132092D01*
X22501843Y-93147765D01*
X22642191Y-93357809D01*
X22852235Y-93498157D01*
X23100000Y-93547440D01*
X24900000Y-93547440D01*
X25147765Y-93498157D01*
X25357809Y-93357809D01*
X25498157Y-93147765D01*
X25547440Y-92900000D01*
X25547440Y-91100000D01*
X25498157Y-90852235D01*
X25357809Y-90642191D01*
X25147765Y-90501843D01*
X24900000Y-90452560D01*
X23100000Y-90452560D01*
X22852235Y-90501843D01*
X22730000Y-90583518D01*
X22730000Y-89975000D01*
X25762560Y-89975000D01*
X25762560Y-91225000D01*
X25832777Y-91578003D01*
X26032736Y-91877264D01*
X26331997Y-92077223D01*
X26685000Y-92147440D01*
X27032560Y-92147440D01*
X27032560Y-93295000D01*
X27102777Y-93648003D01*
X27302736Y-93947264D01*
X27345001Y-93975504D01*
X27345001Y-94691288D01*
X27122569Y-94913720D01*
X26965000Y-95294126D01*
X26965000Y-95705874D01*
X27122569Y-96086280D01*
X27413720Y-96377431D01*
X27794126Y-96535000D01*
X28205874Y-96535000D01*
X28586280Y-96377431D01*
X28877431Y-96086280D01*
X29035000Y-95705874D01*
X29035000Y-95658191D01*
X29063652Y-95615310D01*
X29115000Y-95357165D01*
X29115000Y-95357160D01*
X29132337Y-95270001D01*
X29115000Y-95182841D01*
X29115000Y-93975504D01*
X29157264Y-93947264D01*
X29357223Y-93648003D01*
X29427440Y-93295000D01*
X29427440Y-92147440D01*
X30050000Y-92147440D01*
X30297765Y-92098157D01*
X30507809Y-91957809D01*
X30648157Y-91747765D01*
X30658718Y-91694670D01*
X31925000Y-91694670D01*
X31925000Y-92305330D01*
X32158690Y-92869507D01*
X32590493Y-93301310D01*
X33154670Y-93535000D01*
X33765330Y-93535000D01*
X34329507Y-93301310D01*
X34498725Y-93132092D01*
X34501843Y-93147765D01*
X34642191Y-93357809D01*
X34852235Y-93498157D01*
X35100000Y-93547440D01*
X36900000Y-93547440D01*
X37147765Y-93498157D01*
X37357809Y-93357809D01*
X37498157Y-93147765D01*
X37547440Y-92900000D01*
X37547440Y-91100000D01*
X37498157Y-90852235D01*
X37357809Y-90642191D01*
X37147765Y-90501843D01*
X36900000Y-90452560D01*
X35100000Y-90452560D01*
X34852235Y-90501843D01*
X34730000Y-90583518D01*
X34730000Y-89041161D01*
X34794879Y-88714990D01*
X34696313Y-88219461D01*
X34415618Y-87799372D01*
X33995529Y-87518677D01*
X33500000Y-87420111D01*
X33004472Y-87518677D01*
X32690420Y-87728520D01*
X32650419Y-87768521D01*
X32544383Y-87839372D01*
X32473532Y-87945408D01*
X32473530Y-87945410D01*
X32263688Y-88259461D01*
X32165121Y-88754990D01*
X32190001Y-88880070D01*
X32190000Y-90874920D01*
X32190000Y-91099183D01*
X32158690Y-91130493D01*
X31925000Y-91694670D01*
X30658718Y-91694670D01*
X30697440Y-91500000D01*
X30697440Y-89700000D01*
X30648157Y-89452235D01*
X30507809Y-89242191D01*
X30385000Y-89160132D01*
X30385000Y-88067151D01*
X30402337Y-87979990D01*
X30385000Y-87892829D01*
X30385000Y-87892825D01*
X30333652Y-87634680D01*
X30138049Y-87341941D01*
X30064153Y-87292565D01*
X30027431Y-87255843D01*
X29877431Y-86893710D01*
X29586280Y-86602559D01*
X29205874Y-86444990D01*
X28794126Y-86444990D01*
X28413720Y-86602559D01*
X28122569Y-86893710D01*
X27965000Y-87274116D01*
X27965000Y-87685864D01*
X28122569Y-88066270D01*
X28413720Y-88357421D01*
X28615001Y-88440794D01*
X28615001Y-89160132D01*
X28492191Y-89242191D01*
X28351843Y-89452235D01*
X28302560Y-89700000D01*
X28302560Y-91122560D01*
X28157440Y-91122560D01*
X28157440Y-89975000D01*
X28087223Y-89621997D01*
X27887264Y-89322736D01*
X27588003Y-89122777D01*
X27235000Y-89052560D01*
X26685000Y-89052560D01*
X26331997Y-89122777D01*
X26032736Y-89322736D01*
X25832777Y-89621997D01*
X25762560Y-89975000D01*
X22730000Y-89975000D01*
X22730000Y-89326171D01*
X22794879Y-89000000D01*
X22696313Y-88504471D01*
X22415618Y-88084382D01*
X21995529Y-87803687D01*
X21514485Y-87708002D01*
X21534577Y-87694577D01*
X21851740Y-87219909D01*
X21963113Y-86660000D01*
X21851740Y-86100091D01*
X21534577Y-85625423D01*
X21059909Y-85308260D01*
X20641333Y-85225000D01*
X20358667Y-85225000D01*
X19940091Y-85308260D01*
X19465423Y-85625423D01*
X19148260Y-86100091D01*
X19036887Y-86660000D01*
X15710000Y-86660000D01*
X15710000Y-82127000D01*
X25365000Y-82127000D01*
X25365000Y-82627000D01*
X25557088Y-83338691D01*
X26006906Y-83922699D01*
X26645974Y-84290114D01*
X26830355Y-84337695D01*
X27123000Y-84221572D01*
X27123000Y-82127000D01*
X25365000Y-82127000D01*
X15710000Y-82127000D01*
X15710000Y-81373000D01*
X25365000Y-81373000D01*
X25365000Y-81873000D01*
X27123000Y-81873000D01*
X27123000Y-79778428D01*
X27377000Y-79778428D01*
X27377000Y-81873000D01*
X27397000Y-81873000D01*
X27397000Y-82127000D01*
X27377000Y-82127000D01*
X27377000Y-84221572D01*
X27669645Y-84337695D01*
X27854026Y-84290114D01*
X28493094Y-83922699D01*
X28942912Y-83338691D01*
X28972840Y-83227805D01*
X28974369Y-83235490D01*
X29390992Y-83859009D01*
X30014511Y-84275631D01*
X30750000Y-84421929D01*
X31485490Y-84275631D01*
X32109009Y-83859009D01*
X32525631Y-83235490D01*
X32635000Y-82685655D01*
X32635000Y-81314345D01*
X32525631Y-80764510D01*
X32109009Y-80140991D01*
X31485489Y-79724369D01*
X30750000Y-79578071D01*
X30014510Y-79724369D01*
X29390991Y-80140991D01*
X28974369Y-80764511D01*
X28972841Y-80772195D01*
X28942912Y-80661309D01*
X28493094Y-80077301D01*
X27854026Y-79709886D01*
X27669645Y-79662305D01*
X27377000Y-79778428D01*
X27123000Y-79778428D01*
X26830355Y-79662305D01*
X26645974Y-79709886D01*
X26006906Y-80077301D01*
X25557088Y-80661309D01*
X25365000Y-81373000D01*
X15710000Y-81373000D01*
X15710000Y-77507745D01*
X19671861Y-77507745D01*
X19745995Y-77753864D01*
X20283223Y-77946965D01*
X20853454Y-77919778D01*
X21254005Y-77753864D01*
X21328139Y-77507745D01*
X20500000Y-76679605D01*
X19671861Y-77507745D01*
X15710000Y-77507745D01*
X15710000Y-76283223D01*
X19053035Y-76283223D01*
X19080222Y-76853454D01*
X19246136Y-77254005D01*
X19492255Y-77328139D01*
X20320395Y-76500000D01*
X20679605Y-76500000D01*
X21507745Y-77328139D01*
X21620665Y-77294126D01*
X35125000Y-77294126D01*
X35125000Y-77705874D01*
X35282569Y-78086280D01*
X35573720Y-78377431D01*
X35935853Y-78527431D01*
X40615001Y-83206580D01*
X40615000Y-88660132D01*
X40492191Y-88742191D01*
X40351843Y-88952235D01*
X40302560Y-89200000D01*
X40302560Y-90622560D01*
X40157440Y-90622560D01*
X40157440Y-89475000D01*
X40087223Y-89121997D01*
X39887264Y-88822736D01*
X39588003Y-88622777D01*
X39235000Y-88552560D01*
X38685000Y-88552560D01*
X38331997Y-88622777D01*
X38032736Y-88822736D01*
X37832777Y-89121997D01*
X37762560Y-89475000D01*
X37762560Y-90725000D01*
X37832777Y-91078003D01*
X38032736Y-91377264D01*
X38331997Y-91577223D01*
X38685000Y-91647440D01*
X39032560Y-91647440D01*
X39032560Y-92005106D01*
X39017663Y-92080000D01*
X39032560Y-92154894D01*
X39032560Y-92795000D01*
X39035000Y-92807269D01*
X39035001Y-93431992D01*
X38885000Y-93794126D01*
X38885000Y-94205874D01*
X39035000Y-94568007D01*
X39035001Y-98826269D01*
X38852233Y-98901974D01*
X38321974Y-99432233D01*
X38035000Y-100125050D01*
X38035000Y-100874950D01*
X38321974Y-101567767D01*
X38852233Y-102098026D01*
X39545050Y-102385000D01*
X40294950Y-102385000D01*
X40987767Y-102098026D01*
X41518026Y-101567767D01*
X41805000Y-100874950D01*
X41805000Y-100125050D01*
X41518026Y-99432233D01*
X40987767Y-98901974D01*
X40805000Y-98826269D01*
X40805000Y-95705050D01*
X45115000Y-95705050D01*
X45115000Y-96454950D01*
X45401974Y-97147767D01*
X45932233Y-97678026D01*
X46625050Y-97965000D01*
X47374950Y-97965000D01*
X48067767Y-97678026D01*
X48598026Y-97147767D01*
X48885000Y-96454950D01*
X48885000Y-95705050D01*
X48598026Y-95012233D01*
X48067767Y-94481974D01*
X47374950Y-94195000D01*
X46625050Y-94195000D01*
X45932233Y-94481974D01*
X45401974Y-95012233D01*
X45115000Y-95705050D01*
X40805000Y-95705050D01*
X40805000Y-94568007D01*
X40955000Y-94205874D01*
X40955000Y-93794126D01*
X40886315Y-93628306D01*
X41157264Y-93447264D01*
X41357223Y-93148003D01*
X41427440Y-92795000D01*
X41427440Y-91694670D01*
X43925000Y-91694670D01*
X43925000Y-92305330D01*
X44158690Y-92869507D01*
X44590493Y-93301310D01*
X45154670Y-93535000D01*
X45765330Y-93535000D01*
X46329507Y-93301310D01*
X46498725Y-93132092D01*
X46501843Y-93147765D01*
X46642191Y-93357809D01*
X46852235Y-93498157D01*
X47100000Y-93547440D01*
X48900000Y-93547440D01*
X49147765Y-93498157D01*
X49357809Y-93357809D01*
X49498157Y-93147765D01*
X49547440Y-92900000D01*
X49547440Y-91100000D01*
X49498157Y-90852235D01*
X49357809Y-90642191D01*
X49147765Y-90501843D01*
X48900000Y-90452560D01*
X47100000Y-90452560D01*
X46852235Y-90501843D01*
X46642191Y-90642191D01*
X46501843Y-90852235D01*
X46498725Y-90867908D01*
X46329507Y-90698690D01*
X45765330Y-90465000D01*
X45154670Y-90465000D01*
X44590493Y-90698690D01*
X44158690Y-91130493D01*
X43925000Y-91694670D01*
X41427440Y-91694670D01*
X41427440Y-91647440D01*
X42050000Y-91647440D01*
X42297765Y-91598157D01*
X42507809Y-91457809D01*
X42648157Y-91247765D01*
X42697440Y-91000000D01*
X42697440Y-89200000D01*
X42648157Y-88952235D01*
X42507809Y-88742191D01*
X42385000Y-88660132D01*
X42385000Y-86474778D01*
X43365000Y-86474778D01*
X43365000Y-87125222D01*
X43613914Y-87726153D01*
X44073847Y-88186086D01*
X44674778Y-88435000D01*
X45325222Y-88435000D01*
X45926153Y-88186086D01*
X46386086Y-87726153D01*
X46635000Y-87125222D01*
X46635000Y-86474778D01*
X46386086Y-85873847D01*
X45926153Y-85413914D01*
X45325222Y-85165000D01*
X44674778Y-85165000D01*
X44073847Y-85413914D01*
X43613914Y-85873847D01*
X43365000Y-86474778D01*
X42385000Y-86474778D01*
X42385000Y-82927159D01*
X42402337Y-82839999D01*
X42385000Y-82752839D01*
X42385000Y-82752835D01*
X42333652Y-82494690D01*
X42138049Y-82201951D01*
X42064156Y-82152577D01*
X37187431Y-77275853D01*
X37037431Y-76913720D01*
X36746280Y-76622569D01*
X36365874Y-76465000D01*
X35954126Y-76465000D01*
X35573720Y-76622569D01*
X35282569Y-76913720D01*
X35125000Y-77294126D01*
X21620665Y-77294126D01*
X21753864Y-77254005D01*
X21946965Y-76716777D01*
X21919778Y-76146546D01*
X21862285Y-76007745D01*
X22671861Y-76007745D01*
X22745995Y-76253864D01*
X23283223Y-76446965D01*
X23853454Y-76419778D01*
X24254005Y-76253864D01*
X24328139Y-76007745D01*
X23500000Y-75179605D01*
X22671861Y-76007745D01*
X21862285Y-76007745D01*
X21753864Y-75745995D01*
X21507745Y-75671861D01*
X20679605Y-76500000D01*
X20320395Y-76500000D01*
X19492255Y-75671861D01*
X19246136Y-75745995D01*
X19053035Y-76283223D01*
X15710000Y-76283223D01*
X15710000Y-75492255D01*
X19671861Y-75492255D01*
X20500000Y-76320395D01*
X21328139Y-75492255D01*
X21254005Y-75246136D01*
X20716777Y-75053035D01*
X20146546Y-75080222D01*
X19745995Y-75246136D01*
X19671861Y-75492255D01*
X15710000Y-75492255D01*
X15710000Y-74783223D01*
X22053035Y-74783223D01*
X22080222Y-75353454D01*
X22246136Y-75754005D01*
X22492255Y-75828139D01*
X23320395Y-75000000D01*
X23679605Y-75000000D01*
X24507745Y-75828139D01*
X24753864Y-75754005D01*
X24946965Y-75216777D01*
X24919778Y-74646546D01*
X24753864Y-74245995D01*
X24507745Y-74171861D01*
X23679605Y-75000000D01*
X23320395Y-75000000D01*
X22492255Y-74171861D01*
X22246136Y-74245995D01*
X22053035Y-74783223D01*
X15710000Y-74783223D01*
X15710000Y-72785750D01*
X15965000Y-72785750D01*
X15965000Y-73526310D01*
X16061673Y-73759699D01*
X16240302Y-73938327D01*
X16473691Y-74035000D01*
X17214250Y-74035000D01*
X17373000Y-73876250D01*
X17373000Y-72627000D01*
X16123750Y-72627000D01*
X15965000Y-72785750D01*
X15710000Y-72785750D01*
X15710000Y-71473690D01*
X15965000Y-71473690D01*
X15965000Y-72214250D01*
X16123750Y-72373000D01*
X17373000Y-72373000D01*
X17373000Y-71123750D01*
X17627000Y-71123750D01*
X17627000Y-72373000D01*
X17647000Y-72373000D01*
X17647000Y-72627000D01*
X17627000Y-72627000D01*
X17627000Y-73876250D01*
X17785750Y-74035000D01*
X18526309Y-74035000D01*
X18759698Y-73938327D01*
X18938327Y-73759699D01*
X18994139Y-73624956D01*
X19170493Y-73801310D01*
X19734670Y-74035000D01*
X20345330Y-74035000D01*
X20448525Y-73992255D01*
X22671861Y-73992255D01*
X23500000Y-74820395D01*
X24328139Y-73992255D01*
X24254005Y-73746136D01*
X23716777Y-73553035D01*
X23146546Y-73580222D01*
X22745995Y-73746136D01*
X22671861Y-73992255D01*
X20448525Y-73992255D01*
X20909507Y-73801310D01*
X21341310Y-73369507D01*
X21575000Y-72805330D01*
X21575000Y-72194670D01*
X21341310Y-71630493D01*
X20909507Y-71198690D01*
X20345330Y-70965000D01*
X19734670Y-70965000D01*
X19170493Y-71198690D01*
X18994139Y-71375044D01*
X18938327Y-71240301D01*
X18759698Y-71061673D01*
X18526309Y-70965000D01*
X17785750Y-70965000D01*
X17627000Y-71123750D01*
X17373000Y-71123750D01*
X17214250Y-70965000D01*
X16473691Y-70965000D01*
X16240302Y-71061673D01*
X16061673Y-71240301D01*
X15965000Y-71473690D01*
X15710000Y-71473690D01*
X15710000Y-68285750D01*
X15965000Y-68285750D01*
X15965000Y-69026310D01*
X16061673Y-69259699D01*
X16240302Y-69438327D01*
X16473691Y-69535000D01*
X17214250Y-69535000D01*
X17373000Y-69376250D01*
X17373000Y-68127000D01*
X16123750Y-68127000D01*
X15965000Y-68285750D01*
X15710000Y-68285750D01*
X15710000Y-66973690D01*
X15965000Y-66973690D01*
X15965000Y-67714250D01*
X16123750Y-67873000D01*
X17373000Y-67873000D01*
X17373000Y-66623750D01*
X17627000Y-66623750D01*
X17627000Y-67873000D01*
X17647000Y-67873000D01*
X17647000Y-68127000D01*
X17627000Y-68127000D01*
X17627000Y-69376250D01*
X17785750Y-69535000D01*
X18526309Y-69535000D01*
X18759698Y-69438327D01*
X18938327Y-69259699D01*
X18994139Y-69124956D01*
X19170493Y-69301310D01*
X19734670Y-69535000D01*
X20345330Y-69535000D01*
X20909507Y-69301310D01*
X21341310Y-68869507D01*
X21575000Y-68305330D01*
X21575000Y-67694670D01*
X21341310Y-67130493D01*
X20909507Y-66698690D01*
X20345330Y-66465000D01*
X19734670Y-66465000D01*
X19170493Y-66698690D01*
X18994139Y-66875044D01*
X18938327Y-66740301D01*
X18759698Y-66561673D01*
X18526309Y-66465000D01*
X17785750Y-66465000D01*
X17627000Y-66623750D01*
X17373000Y-66623750D01*
X17214250Y-66465000D01*
X16473691Y-66465000D01*
X16240302Y-66561673D01*
X16061673Y-66740301D01*
X15965000Y-66973690D01*
X15710000Y-66973690D01*
X15710000Y-56500000D01*
X19852560Y-56500000D01*
X19852560Y-58500000D01*
X19901843Y-58747765D01*
X20042191Y-58957809D01*
X20217671Y-59075062D01*
X20080613Y-59125736D01*
X19854092Y-59735461D01*
X19878144Y-60385460D01*
X20080613Y-60874264D01*
X20347468Y-60972927D01*
X21320395Y-60000000D01*
X21306253Y-59985858D01*
X21485858Y-59806253D01*
X21500000Y-59820395D01*
X21514143Y-59806253D01*
X21693748Y-59985858D01*
X21679605Y-60000000D01*
X22652532Y-60972927D01*
X22919387Y-60874264D01*
X23115001Y-60347732D01*
X23115001Y-62126494D01*
X22886086Y-61573847D01*
X22470725Y-61158486D01*
X22472927Y-61152532D01*
X21500000Y-60179605D01*
X20527073Y-61152532D01*
X20529275Y-61158486D01*
X20113914Y-61573847D01*
X19865000Y-62174778D01*
X19865000Y-62825222D01*
X20113914Y-63426153D01*
X20573847Y-63886086D01*
X21174778Y-64135000D01*
X21825222Y-64135000D01*
X22426153Y-63886086D01*
X22886086Y-63426153D01*
X23115001Y-62873506D01*
X23115001Y-71931991D01*
X22965000Y-72294126D01*
X22965000Y-72705874D01*
X23122569Y-73086280D01*
X23413720Y-73377431D01*
X23794126Y-73535000D01*
X24205874Y-73535000D01*
X24586280Y-73377431D01*
X24877431Y-73086280D01*
X25035000Y-72705874D01*
X25035000Y-72294126D01*
X24885000Y-71931993D01*
X24885000Y-68984999D01*
X25255874Y-68984999D01*
X25636280Y-68827430D01*
X25927431Y-68536279D01*
X26085000Y-68155873D01*
X26085000Y-67744125D01*
X25935000Y-67381992D01*
X25935000Y-65155431D01*
X26765000Y-65155431D01*
X26765000Y-66044569D01*
X27105259Y-66866026D01*
X27733974Y-67494741D01*
X28555431Y-67835000D01*
X29444569Y-67835000D01*
X30266026Y-67494741D01*
X30894741Y-66866026D01*
X31235000Y-66044569D01*
X31235000Y-65155431D01*
X30894741Y-64333974D01*
X30266026Y-63705259D01*
X29444569Y-63365000D01*
X28555431Y-63365000D01*
X27733974Y-63705259D01*
X27105259Y-64333974D01*
X26765000Y-65155431D01*
X25935000Y-65155431D01*
X25935000Y-53955431D01*
X26765000Y-53955431D01*
X26765000Y-54844569D01*
X27105259Y-55666026D01*
X27733974Y-56294741D01*
X28555431Y-56635000D01*
X29444569Y-56635000D01*
X30266026Y-56294741D01*
X30680001Y-55880766D01*
X30680001Y-61512272D01*
X30413720Y-61622569D01*
X30122569Y-61913720D01*
X29965000Y-62294126D01*
X29965000Y-62705874D01*
X30122569Y-63086280D01*
X30413720Y-63377431D01*
X30794126Y-63535000D01*
X31205874Y-63535000D01*
X31586280Y-63377431D01*
X31877431Y-63086280D01*
X32027431Y-62724148D01*
X32129155Y-62622423D01*
X32203049Y-62573049D01*
X32275246Y-62465000D01*
X32398652Y-62280310D01*
X32408784Y-62229371D01*
X32450000Y-62022165D01*
X32450000Y-62022161D01*
X32467337Y-61935000D01*
X32450000Y-61847839D01*
X32450000Y-44399016D01*
X35780590Y-44399016D01*
X35836271Y-44629611D01*
X36319078Y-44797622D01*
X36829428Y-44768083D01*
X37163729Y-44629611D01*
X37219410Y-44399016D01*
X36500000Y-43679605D01*
X35780590Y-44399016D01*
X32450000Y-44399016D01*
X32450000Y-43319078D01*
X35202378Y-43319078D01*
X35231917Y-43829428D01*
X35370389Y-44163729D01*
X35600984Y-44219410D01*
X36320395Y-43500000D01*
X36679605Y-43500000D01*
X37399016Y-44219410D01*
X37629611Y-44163729D01*
X37797622Y-43680922D01*
X37768083Y-43170572D01*
X37629611Y-42836271D01*
X37399016Y-42780590D01*
X36679605Y-43500000D01*
X36320395Y-43500000D01*
X35600984Y-42780590D01*
X35370389Y-42836271D01*
X35202378Y-43319078D01*
X32450000Y-43319078D01*
X32450000Y-42568007D01*
X32600000Y-42205874D01*
X32600000Y-41794126D01*
X32442431Y-41413720D01*
X32151280Y-41122569D01*
X31770874Y-40965000D01*
X31359126Y-40965000D01*
X30978720Y-41122569D01*
X30687569Y-41413720D01*
X30530000Y-41794126D01*
X30530000Y-42205874D01*
X30680000Y-42568007D01*
X30680001Y-52919234D01*
X30266026Y-52505259D01*
X29444569Y-52165000D01*
X28555431Y-52165000D01*
X27733974Y-52505259D01*
X27105259Y-53133974D01*
X26765000Y-53955431D01*
X25935000Y-53955431D01*
X25935000Y-45637161D01*
X25952337Y-45550000D01*
X25937375Y-45474778D01*
X27365000Y-45474778D01*
X27365000Y-46125222D01*
X27613914Y-46726153D01*
X28073847Y-47186086D01*
X28674778Y-47435000D01*
X29325222Y-47435000D01*
X29926153Y-47186086D01*
X30386086Y-46726153D01*
X30635000Y-46125222D01*
X30635000Y-45474778D01*
X30386086Y-44873847D01*
X29926153Y-44413914D01*
X29325222Y-44165000D01*
X28674778Y-44165000D01*
X28073847Y-44413914D01*
X27613914Y-44873847D01*
X27365000Y-45474778D01*
X25937375Y-45474778D01*
X25935000Y-45462839D01*
X25935000Y-38244398D01*
X35215000Y-38244398D01*
X35215000Y-38755602D01*
X35410629Y-39227894D01*
X35772106Y-39589371D01*
X36159900Y-39750000D01*
X35772106Y-39910629D01*
X35410629Y-40272106D01*
X35215000Y-40744398D01*
X35215000Y-41255602D01*
X35410629Y-41727894D01*
X35772106Y-42089371D01*
X36143408Y-42243169D01*
X35836271Y-42370389D01*
X35780590Y-42600984D01*
X36500000Y-43320395D01*
X37219410Y-42600984D01*
X37163729Y-42370389D01*
X36829906Y-42254223D01*
X37227894Y-42089371D01*
X37589371Y-41727894D01*
X37785000Y-41255602D01*
X37785000Y-40744398D01*
X37589371Y-40272106D01*
X37227894Y-39910629D01*
X36840100Y-39750000D01*
X37227894Y-39589371D01*
X37589371Y-39227894D01*
X37785000Y-38755602D01*
X37785000Y-38244398D01*
X37589371Y-37772106D01*
X37227894Y-37410629D01*
X36755602Y-37215000D01*
X36244398Y-37215000D01*
X35772106Y-37410629D01*
X35410629Y-37772106D01*
X35215000Y-38244398D01*
X25935000Y-38244398D01*
X25935000Y-36137161D01*
X25952337Y-36050000D01*
X25935000Y-35962839D01*
X25935000Y-35962835D01*
X25917485Y-35874778D01*
X27365000Y-35874778D01*
X27365000Y-36525222D01*
X27613914Y-37126153D01*
X28073847Y-37586086D01*
X28674778Y-37835000D01*
X29325222Y-37835000D01*
X29926153Y-37586086D01*
X30386086Y-37126153D01*
X30635000Y-36525222D01*
X30635000Y-35874778D01*
X30386086Y-35273847D01*
X29926153Y-34813914D01*
X29325222Y-34565000D01*
X28674778Y-34565000D01*
X28073847Y-34813914D01*
X27613914Y-35273847D01*
X27365000Y-35874778D01*
X25917485Y-35874778D01*
X25883652Y-35704690D01*
X25805124Y-35587165D01*
X25737424Y-35485845D01*
X25737423Y-35485844D01*
X25688049Y-35411951D01*
X25614156Y-35362577D01*
X23935000Y-33683422D01*
X23935000Y-33500000D01*
X31196887Y-33500000D01*
X31308260Y-34059909D01*
X31625423Y-34534577D01*
X32100091Y-34851740D01*
X32518667Y-34935000D01*
X32801333Y-34935000D01*
X33219909Y-34851740D01*
X33694577Y-34534577D01*
X34011740Y-34059909D01*
X34123113Y-33500000D01*
X34011740Y-32940091D01*
X33694577Y-32465423D01*
X33219909Y-32148260D01*
X32801333Y-32065000D01*
X32518667Y-32065000D01*
X32100091Y-32148260D01*
X31625423Y-32465423D01*
X31308260Y-32940091D01*
X31196887Y-33500000D01*
X23935000Y-33500000D01*
X23935000Y-33214561D01*
X23716534Y-32687138D01*
X23312862Y-32283466D01*
X22785439Y-32065000D01*
X22214561Y-32065000D01*
X21687138Y-32283466D01*
X21283466Y-32687138D01*
X21065000Y-33214561D01*
X21065000Y-33785439D01*
X21283466Y-34312862D01*
X21687138Y-34716534D01*
X22214561Y-34935000D01*
X22683422Y-34935000D01*
X24165001Y-36416580D01*
X24165000Y-43965000D01*
X23794126Y-43965000D01*
X23413720Y-44122569D01*
X23122569Y-44413720D01*
X22965000Y-44794126D01*
X22965000Y-45205874D01*
X23115000Y-45568007D01*
X23115000Y-56336913D01*
X23098157Y-56252235D01*
X22957809Y-56042191D01*
X22747765Y-55901843D01*
X22500000Y-55852560D01*
X20500000Y-55852560D01*
X20252235Y-55901843D01*
X20042191Y-56042191D01*
X19901843Y-56252235D01*
X19852560Y-56500000D01*
X15710000Y-56500000D01*
X15710000Y-49285750D01*
X15965000Y-49285750D01*
X15965000Y-50026310D01*
X16061673Y-50259699D01*
X16240302Y-50438327D01*
X16473691Y-50535000D01*
X17214250Y-50535000D01*
X17373000Y-50376250D01*
X17373000Y-49127000D01*
X16123750Y-49127000D01*
X15965000Y-49285750D01*
X15710000Y-49285750D01*
X15710000Y-47973690D01*
X15965000Y-47973690D01*
X15965000Y-48714250D01*
X16123750Y-48873000D01*
X17373000Y-48873000D01*
X17373000Y-47623750D01*
X17214250Y-47465000D01*
X16473691Y-47465000D01*
X16240302Y-47561673D01*
X16061673Y-47740301D01*
X15965000Y-47973690D01*
X15710000Y-47973690D01*
X15710000Y-43714561D01*
X16565000Y-43714561D01*
X16565000Y-44285439D01*
X16783466Y-44812862D01*
X17187138Y-45216534D01*
X17714561Y-45435000D01*
X18183422Y-45435000D01*
X19155000Y-46406579D01*
X19155001Y-47714182D01*
X18994139Y-47875044D01*
X18938327Y-47740301D01*
X18759698Y-47561673D01*
X18526309Y-47465000D01*
X17785750Y-47465000D01*
X17627000Y-47623750D01*
X17627000Y-48873000D01*
X17647000Y-48873000D01*
X17647000Y-49127000D01*
X17627000Y-49127000D01*
X17627000Y-50376250D01*
X17785750Y-50535000D01*
X18526309Y-50535000D01*
X18759698Y-50438327D01*
X18938327Y-50259699D01*
X18994139Y-50124956D01*
X19170493Y-50301310D01*
X19734670Y-50535000D01*
X20345330Y-50535000D01*
X20909507Y-50301310D01*
X21341310Y-49869507D01*
X21575000Y-49305330D01*
X21575000Y-48694670D01*
X21341310Y-48130493D01*
X20925000Y-47714183D01*
X20925000Y-46127161D01*
X20942337Y-46040000D01*
X20925000Y-45952839D01*
X20925000Y-45952835D01*
X20873652Y-45694690D01*
X20808820Y-45597662D01*
X20727424Y-45475845D01*
X20727423Y-45475844D01*
X20678049Y-45401951D01*
X20604156Y-45352577D01*
X19435000Y-44183422D01*
X19435000Y-43714561D01*
X19216534Y-43187138D01*
X18812862Y-42783466D01*
X18285439Y-42565000D01*
X17714561Y-42565000D01*
X17187138Y-42783466D01*
X16783466Y-43187138D01*
X16565000Y-43714561D01*
X15710000Y-43714561D01*
X15710000Y-33840000D01*
X16536887Y-33840000D01*
X16648260Y-34399909D01*
X16965423Y-34874577D01*
X17440091Y-35191740D01*
X17858667Y-35275000D01*
X18141333Y-35275000D01*
X18559909Y-35191740D01*
X19034577Y-34874577D01*
X19351740Y-34399909D01*
X19463113Y-33840000D01*
X19351740Y-33280091D01*
X19034577Y-32805423D01*
X18559909Y-32488260D01*
X18141333Y-32405000D01*
X17858667Y-32405000D01*
X17440091Y-32488260D01*
X16965423Y-32805423D01*
X16648260Y-33280091D01*
X16536887Y-33840000D01*
X15710000Y-33840000D01*
X15710000Y-30285750D01*
X15965000Y-30285750D01*
X15965000Y-31026310D01*
X16061673Y-31259699D01*
X16240302Y-31438327D01*
X16473691Y-31535000D01*
X17214250Y-31535000D01*
X17373000Y-31376250D01*
X17373000Y-30127000D01*
X16123750Y-30127000D01*
X15965000Y-30285750D01*
X15710000Y-30285750D01*
X15710000Y-28973690D01*
X15965000Y-28973690D01*
X15965000Y-29714250D01*
X16123750Y-29873000D01*
X17373000Y-29873000D01*
X17373000Y-28623750D01*
X17627000Y-28623750D01*
X17627000Y-29873000D01*
X17647000Y-29873000D01*
X17647000Y-30127000D01*
X17627000Y-30127000D01*
X17627000Y-31376250D01*
X17785750Y-31535000D01*
X18526309Y-31535000D01*
X18759698Y-31438327D01*
X18938327Y-31259699D01*
X18994139Y-31124956D01*
X19170493Y-31301310D01*
X19734670Y-31535000D01*
X20345330Y-31535000D01*
X20909507Y-31301310D01*
X21325817Y-30885000D01*
X21355604Y-30885000D01*
X21687138Y-31216534D01*
X22214561Y-31435000D01*
X22785439Y-31435000D01*
X23312862Y-31216534D01*
X23716534Y-30812862D01*
X23935000Y-30285439D01*
X23935000Y-29714561D01*
X23716534Y-29187138D01*
X23312862Y-28783466D01*
X22785439Y-28565000D01*
X22214561Y-28565000D01*
X21687138Y-28783466D01*
X21355604Y-29115000D01*
X21325817Y-29115000D01*
X20909507Y-28698690D01*
X20345330Y-28465000D01*
X19734670Y-28465000D01*
X19170493Y-28698690D01*
X18994139Y-28875044D01*
X18938327Y-28740301D01*
X18759698Y-28561673D01*
X18526309Y-28465000D01*
X17785750Y-28465000D01*
X17627000Y-28623750D01*
X17373000Y-28623750D01*
X17214250Y-28465000D01*
X16473691Y-28465000D01*
X16240302Y-28561673D01*
X16061673Y-28740301D01*
X15965000Y-28973690D01*
X15710000Y-28973690D01*
X15710000Y-26474778D01*
X27365000Y-26474778D01*
X27365000Y-27125222D01*
X27613914Y-27726153D01*
X28073847Y-28186086D01*
X28674778Y-28435000D01*
X29325222Y-28435000D01*
X29926153Y-28186086D01*
X30386086Y-27726153D01*
X30635000Y-27125222D01*
X30635000Y-26474778D01*
X30386086Y-25873847D01*
X29926153Y-25413914D01*
X29325222Y-25165000D01*
X28674778Y-25165000D01*
X28073847Y-25413914D01*
X27613914Y-25873847D01*
X27365000Y-26474778D01*
X15710000Y-26474778D01*
X15710000Y-15710000D01*
X28324717Y-15710000D01*
X28073847Y-15813914D01*
X28073847Y-15813914D01*
G37*
X28073847Y-15813914D02*
X27613914Y-16273847D01*
X27365000Y-16874778D01*
X27365000Y-17525222D01*
X27613914Y-18126153D01*
X28073847Y-18586086D01*
X28674778Y-18835000D01*
X29325222Y-18835000D01*
X29926153Y-18586086D01*
X30386086Y-18126153D01*
X30635000Y-17525222D01*
X30635000Y-16874778D01*
X30386086Y-16273847D01*
X29926153Y-15813914D01*
X29675283Y-15710000D01*
X35180291Y-15710000D01*
X35051843Y-15902235D01*
X35009522Y-16115000D01*
X33087161Y-16115000D01*
X33000000Y-16097663D01*
X32912839Y-16115000D01*
X32912835Y-16115000D01*
X32654690Y-16166348D01*
X32361951Y-16361951D01*
X32312575Y-16435847D01*
X32095847Y-16652575D01*
X32021951Y-16701951D01*
X31826348Y-16994691D01*
X31775000Y-17252836D01*
X31775000Y-17252839D01*
X31757663Y-17340000D01*
X31775000Y-17427161D01*
X31775001Y-28865478D01*
X31625423Y-28965423D01*
X31308260Y-29440091D01*
X31196887Y-30000000D01*
X31308260Y-30559909D01*
X31625423Y-31034577D01*
X32100091Y-31351740D01*
X32518667Y-31435000D01*
X32801333Y-31435000D01*
X33219909Y-31351740D01*
X33694577Y-31034577D01*
X34011740Y-30559909D01*
X34123113Y-30000000D01*
X34011740Y-29440091D01*
X33694577Y-28965423D01*
X33545000Y-28865479D01*
X33545000Y-25399016D01*
X35780590Y-25399016D01*
X35836271Y-25629611D01*
X36319078Y-25797622D01*
X36829428Y-25768083D01*
X37163729Y-25629611D01*
X37219410Y-25399016D01*
X36500000Y-24679605D01*
X35780590Y-25399016D01*
X33545000Y-25399016D01*
X33545000Y-24319078D01*
X35202378Y-24319078D01*
X35231917Y-24829428D01*
X35370389Y-25163729D01*
X35600984Y-25219410D01*
X36320395Y-24500000D01*
X36679605Y-24500000D01*
X37399016Y-25219410D01*
X37629611Y-25163729D01*
X37797622Y-24680922D01*
X37768083Y-24170572D01*
X37629611Y-23836271D01*
X37399016Y-23780590D01*
X36679605Y-24500000D01*
X36320395Y-24500000D01*
X35600984Y-23780590D01*
X35370389Y-23836271D01*
X35202378Y-24319078D01*
X33545000Y-24319078D01*
X33545000Y-17885000D01*
X35009522Y-17885000D01*
X35051843Y-18097765D01*
X35192191Y-18307809D01*
X35402235Y-18448157D01*
X35650000Y-18497440D01*
X35685295Y-18497440D01*
X35410629Y-18772106D01*
X35215000Y-19244398D01*
X35215000Y-19755602D01*
X35410629Y-20227894D01*
X35772106Y-20589371D01*
X36159900Y-20750000D01*
X35772106Y-20910629D01*
X35410629Y-21272106D01*
X35215000Y-21744398D01*
X35215000Y-22255602D01*
X35410629Y-22727894D01*
X35772106Y-23089371D01*
X36143408Y-23243169D01*
X35836271Y-23370389D01*
X35780590Y-23600984D01*
X36500000Y-24320395D01*
X37219410Y-23600984D01*
X37163729Y-23370389D01*
X36829906Y-23254223D01*
X37227894Y-23089371D01*
X37589371Y-22727894D01*
X37785000Y-22255602D01*
X37785000Y-21744398D01*
X37589371Y-21272106D01*
X37227894Y-20910629D01*
X36840100Y-20750000D01*
X37227894Y-20589371D01*
X37589371Y-20227894D01*
X37785000Y-19755602D01*
X37785000Y-19244398D01*
X37589371Y-18772106D01*
X37314705Y-18497440D01*
X37350000Y-18497440D01*
X37597765Y-18448157D01*
X37807809Y-18307809D01*
X37948157Y-18097765D01*
X37957184Y-18052381D01*
X37969375Y-18070625D01*
X38155000Y-18194656D01*
X38155001Y-30881288D01*
X38122569Y-30913720D01*
X37965000Y-31294126D01*
X37965000Y-31705874D01*
X38122569Y-32086280D01*
X38286289Y-32250000D01*
X38122569Y-32413720D01*
X37965000Y-32794126D01*
X37965000Y-33205874D01*
X38115000Y-33568007D01*
X38115001Y-40431991D01*
X37965000Y-40794126D01*
X37965000Y-41205874D01*
X38122569Y-41586280D01*
X38413720Y-41877431D01*
X38794126Y-42035000D01*
X39125131Y-42035000D01*
X38913720Y-42122569D01*
X38622569Y-42413720D01*
X38465000Y-42794126D01*
X38465000Y-43205874D01*
X38615001Y-43568008D01*
X38615001Y-43633421D01*
X36775853Y-45472569D01*
X36413720Y-45622569D01*
X36122569Y-45913720D01*
X35965000Y-46294126D01*
X35965000Y-46465000D01*
X35794126Y-46465000D01*
X35535000Y-46572333D01*
X35535000Y-46294126D01*
X35377431Y-45913720D01*
X35086280Y-45622569D01*
X34705874Y-45465000D01*
X34294126Y-45465000D01*
X33913720Y-45622569D01*
X33622569Y-45913720D01*
X33465000Y-46294126D01*
X33465000Y-46705874D01*
X33615000Y-47068007D01*
X33615001Y-54931991D01*
X33465000Y-55294126D01*
X33465000Y-55705874D01*
X33622569Y-56086280D01*
X33913720Y-56377431D01*
X34294126Y-56535000D01*
X34652761Y-56535000D01*
X34613914Y-56573847D01*
X34365000Y-57174778D01*
X34365000Y-57825222D01*
X34613914Y-58426153D01*
X35073847Y-58886086D01*
X35674778Y-59135000D01*
X36325222Y-59135000D01*
X36926153Y-58886086D01*
X37386086Y-58426153D01*
X37408450Y-58372161D01*
X37413720Y-58377431D01*
X37615001Y-58460804D01*
X37615000Y-62126494D01*
X37386086Y-61573847D01*
X36926153Y-61113914D01*
X36325222Y-60865000D01*
X35674778Y-60865000D01*
X35073847Y-61113914D01*
X34613914Y-61573847D01*
X34365000Y-62174778D01*
X34365000Y-62825222D01*
X34613914Y-63426153D01*
X34730000Y-63542239D01*
X34730001Y-73874920D01*
X34708002Y-73985515D01*
X34694577Y-73965423D01*
X34219909Y-73648260D01*
X33801333Y-73565000D01*
X33518667Y-73565000D01*
X33100091Y-73648260D01*
X32625423Y-73965423D01*
X32308260Y-74440091D01*
X32196887Y-75000000D01*
X32308260Y-75559909D01*
X32625423Y-76034577D01*
X33100091Y-76351740D01*
X33518667Y-76435000D01*
X33801333Y-76435000D01*
X34219909Y-76351740D01*
X34694577Y-76034577D01*
X35011740Y-75559909D01*
X35123113Y-75000000D01*
X35109692Y-74932529D01*
X35190419Y-74986469D01*
X40513531Y-80309582D01*
X40584382Y-80415618D01*
X40690418Y-80486469D01*
X40690419Y-80486470D01*
X40952084Y-80661309D01*
X41004471Y-80696313D01*
X41374920Y-80770000D01*
X41374924Y-80770000D01*
X41500000Y-80794879D01*
X41625076Y-80770000D01*
X47266289Y-80770000D01*
X47122569Y-80913720D01*
X46965000Y-81294126D01*
X46965000Y-81705874D01*
X47115001Y-82068009D01*
X47115000Y-83572839D01*
X47097663Y-83660000D01*
X47115000Y-83747161D01*
X47115000Y-83747164D01*
X47166348Y-84005309D01*
X47361951Y-84298049D01*
X47435847Y-84347425D01*
X51435845Y-88347424D01*
X51435848Y-88347426D01*
X52427471Y-89339050D01*
X52351843Y-89452235D01*
X52302560Y-89700000D01*
X52302560Y-91122560D01*
X52157440Y-91122560D01*
X52157440Y-89975000D01*
X52087223Y-89621997D01*
X51887264Y-89322736D01*
X51588003Y-89122777D01*
X51235000Y-89052560D01*
X50685000Y-89052560D01*
X50331997Y-89122777D01*
X50032736Y-89322736D01*
X49832777Y-89621997D01*
X49762560Y-89975000D01*
X49762560Y-91225000D01*
X49832777Y-91578003D01*
X50032736Y-91877264D01*
X50331997Y-92077223D01*
X50685000Y-92147440D01*
X51032560Y-92147440D01*
X51032560Y-93295000D01*
X51102777Y-93648003D01*
X51302736Y-93947264D01*
X51601997Y-94147223D01*
X51955000Y-94217440D01*
X52505000Y-94217440D01*
X52858003Y-94147223D01*
X53157264Y-93947264D01*
X53357223Y-93648003D01*
X53427440Y-93295000D01*
X53427440Y-92147440D01*
X54050000Y-92147440D01*
X54297765Y-92098157D01*
X54505405Y-91959415D01*
X54409837Y-111837625D01*
X53804194Y-111605612D01*
X53054565Y-111625750D01*
X52455533Y-111873877D01*
X52326285Y-112166680D01*
X53480000Y-113320395D01*
X53494143Y-113306253D01*
X53673748Y-113485858D01*
X53659605Y-113500000D01*
X53673748Y-113514143D01*
X53494143Y-113693748D01*
X53480000Y-113679605D01*
X52326285Y-114833320D01*
X52455533Y-115126123D01*
X53155806Y-115394388D01*
X53905435Y-115374250D01*
X54393806Y-115171960D01*
X54374008Y-119290000D01*
X36679944Y-119290000D01*
X36885000Y-118794950D01*
X36885000Y-118045050D01*
X36598026Y-117352233D01*
X36067767Y-116821974D01*
X35374950Y-116535000D01*
X34625050Y-116535000D01*
X33932233Y-116821974D01*
X33401974Y-117352233D01*
X33115000Y-118045050D01*
X33115000Y-118794950D01*
X33320056Y-119290000D01*
X15710000Y-119290000D01*
X15710000Y-115208282D01*
X16195806Y-115394388D01*
X16945435Y-115374250D01*
X17544467Y-115126123D01*
X17673715Y-114833320D01*
X18466285Y-114833320D01*
X18595533Y-115126123D01*
X19295806Y-115394388D01*
X20045435Y-115374250D01*
X20644467Y-115126123D01*
X20773715Y-114833320D01*
X19620000Y-113679605D01*
X18466285Y-114833320D01*
X17673715Y-114833320D01*
X16520000Y-113679605D01*
X16505858Y-113693748D01*
X16326253Y-113514143D01*
X16340395Y-113500000D01*
X16699605Y-113500000D01*
X17853320Y-114653715D01*
X18070000Y-114558069D01*
X18286680Y-114653715D01*
X19440395Y-113500000D01*
X19799605Y-113500000D01*
X20953320Y-114653715D01*
X21246123Y-114524467D01*
X21514388Y-113824194D01*
X21494250Y-113074565D01*
X21246123Y-112475533D01*
X20953320Y-112346285D01*
X19799605Y-113500000D01*
X19440395Y-113500000D01*
X18286680Y-112346285D01*
X18070000Y-112441931D01*
X17853320Y-112346285D01*
X16699605Y-113500000D01*
X16340395Y-113500000D01*
X16326253Y-113485858D01*
X16505858Y-113306253D01*
X16520000Y-113320395D01*
X17673715Y-112166680D01*
X17544467Y-111873877D01*
X16844194Y-111605612D01*
X16094565Y-111625750D01*
X15710000Y-111785042D01*
X15710000Y-109542608D01*
X15728355Y-109586924D01*
X16118642Y-110015183D01*
X16643108Y-110261486D01*
X16873000Y-110140819D01*
X16873000Y-108947000D01*
X17127000Y-108947000D01*
X17127000Y-110140819D01*
X17356892Y-110261486D01*
X17881358Y-110015183D01*
X18271645Y-109586924D01*
X18441476Y-109176890D01*
X18320155Y-108947000D01*
X17127000Y-108947000D01*
X16873000Y-108947000D01*
X16853000Y-108947000D01*
X16853000Y-108693000D01*
X16873000Y-108693000D01*
X16873000Y-108673000D01*
X17127000Y-108673000D01*
X17127000Y-108693000D01*
X18320155Y-108693000D01*
X18441476Y-108463110D01*
X18271645Y-108053076D01*
X17881358Y-107624817D01*
X17751522Y-107563843D01*
X18070625Y-107350625D01*
X18398839Y-106859418D01*
X18514092Y-106280000D01*
X18398839Y-105700582D01*
X18070625Y-105209375D01*
X17772239Y-105010000D01*
X18070625Y-104810625D01*
X18194656Y-104625000D01*
X18373422Y-104625000D01*
X19115000Y-105366579D01*
X19115001Y-110912831D01*
X19097662Y-111000000D01*
X19166348Y-111345310D01*
X19350926Y-111621550D01*
X19194565Y-111625750D01*
X18595533Y-111873877D01*
X18466285Y-112166680D01*
X19620000Y-113320395D01*
X20773715Y-112166680D01*
X20649377Y-111885000D01*
X25053422Y-111885000D01*
X26110705Y-112942283D01*
X26035000Y-113125050D01*
X26035000Y-113874950D01*
X26321974Y-114567767D01*
X26852233Y-115098026D01*
X27545050Y-115385000D01*
X28294950Y-115385000D01*
X28987767Y-115098026D01*
X29518026Y-114567767D01*
X29805000Y-113874950D01*
X29805000Y-113125050D01*
X29518026Y-112432233D01*
X28987767Y-111901974D01*
X28294950Y-111615000D01*
X27545050Y-111615000D01*
X27362283Y-111690705D01*
X26656568Y-110984990D01*
X28733412Y-110984990D01*
X31812577Y-114064156D01*
X31861951Y-114138049D01*
X31935844Y-114187423D01*
X31935845Y-114187424D01*
X32046880Y-114261615D01*
X32154690Y-114333652D01*
X32412835Y-114385000D01*
X32412839Y-114385000D01*
X32499999Y-114402337D01*
X32587159Y-114385000D01*
X40406269Y-114385000D01*
X40481974Y-114567767D01*
X41012233Y-115098026D01*
X41705050Y-115385000D01*
X42454950Y-115385000D01*
X43147767Y-115098026D01*
X43412473Y-114833320D01*
X49226285Y-114833320D01*
X49355533Y-115126123D01*
X50055806Y-115394388D01*
X50805435Y-115374250D01*
X51404467Y-115126123D01*
X51533715Y-114833320D01*
X50380000Y-113679605D01*
X49226285Y-114833320D01*
X43412473Y-114833320D01*
X43678026Y-114567767D01*
X43965000Y-113874950D01*
X43965000Y-113175806D01*
X48485612Y-113175806D01*
X48505750Y-113925435D01*
X48753877Y-114524467D01*
X49046680Y-114653715D01*
X50200395Y-113500000D01*
X50559605Y-113500000D01*
X51713320Y-114653715D01*
X51930000Y-114558069D01*
X52146680Y-114653715D01*
X53300395Y-113500000D01*
X52146680Y-112346285D01*
X51930000Y-112441931D01*
X51713320Y-112346285D01*
X50559605Y-113500000D01*
X50200395Y-113500000D01*
X49046680Y-112346285D01*
X48753877Y-112475533D01*
X48485612Y-113175806D01*
X43965000Y-113175806D01*
X43965000Y-113125050D01*
X43678026Y-112432233D01*
X43412473Y-112166680D01*
X49226285Y-112166680D01*
X50380000Y-113320395D01*
X51533715Y-112166680D01*
X51404467Y-111873877D01*
X50704194Y-111605612D01*
X49954565Y-111625750D01*
X49355533Y-111873877D01*
X49226285Y-112166680D01*
X43412473Y-112166680D01*
X43147767Y-111901974D01*
X42454950Y-111615000D01*
X41705050Y-111615000D01*
X41012233Y-111901974D01*
X40481974Y-112432233D01*
X40406269Y-112615000D01*
X32866579Y-112615000D01*
X31704899Y-111453320D01*
X33846285Y-111453320D01*
X33975533Y-111746123D01*
X34675806Y-112014388D01*
X35425435Y-111994250D01*
X36024467Y-111746123D01*
X36153715Y-111453320D01*
X35000000Y-110299605D01*
X33846285Y-111453320D01*
X31704899Y-111453320D01*
X30047385Y-109795806D01*
X33105612Y-109795806D01*
X33125750Y-110545435D01*
X33373877Y-111144467D01*
X33666680Y-111273715D01*
X34820395Y-110120000D01*
X35179605Y-110120000D01*
X36333320Y-111273715D01*
X36626123Y-111144467D01*
X36894388Y-110444194D01*
X36874250Y-109694565D01*
X36626123Y-109095533D01*
X36333320Y-108966285D01*
X35179605Y-110120000D01*
X34820395Y-110120000D01*
X33666680Y-108966285D01*
X33373877Y-109095533D01*
X33105612Y-109795806D01*
X30047385Y-109795806D01*
X29787415Y-109535837D01*
X29738039Y-109461941D01*
X29445300Y-109266338D01*
X29187155Y-109214990D01*
X29187151Y-109214990D01*
X29099990Y-109197653D01*
X29012829Y-109214990D01*
X22966569Y-109214990D01*
X22595018Y-108843439D01*
X22675806Y-108874388D01*
X23425435Y-108854250D01*
X24024467Y-108606123D01*
X24136058Y-108353320D01*
X33846285Y-108353320D01*
X33941931Y-108570000D01*
X33846285Y-108786680D01*
X35000000Y-109940395D01*
X36127075Y-108813320D01*
X45846285Y-108813320D01*
X45975533Y-109106123D01*
X46675806Y-109374388D01*
X47425435Y-109354250D01*
X48024467Y-109106123D01*
X48153715Y-108813320D01*
X47000000Y-107659605D01*
X45846285Y-108813320D01*
X36127075Y-108813320D01*
X36153715Y-108786680D01*
X36058069Y-108570000D01*
X36153715Y-108353320D01*
X35000000Y-107199605D01*
X33846285Y-108353320D01*
X24136058Y-108353320D01*
X24153715Y-108313320D01*
X23000000Y-107159605D01*
X22985858Y-107173748D01*
X22806253Y-106994143D01*
X22820395Y-106980000D01*
X23179605Y-106980000D01*
X24333320Y-108133715D01*
X24626123Y-108004467D01*
X24894388Y-107304194D01*
X24878045Y-106695806D01*
X33105612Y-106695806D01*
X33125750Y-107445435D01*
X33373877Y-108044467D01*
X33666680Y-108173715D01*
X34820395Y-107020000D01*
X35179605Y-107020000D01*
X36333320Y-108173715D01*
X36626123Y-108044467D01*
X36894388Y-107344194D01*
X36889328Y-107155806D01*
X45105612Y-107155806D01*
X45125750Y-107905435D01*
X45373877Y-108504467D01*
X45666680Y-108633715D01*
X46820395Y-107480000D01*
X47179605Y-107480000D01*
X48333320Y-108633715D01*
X48626123Y-108504467D01*
X48894388Y-107804194D01*
X48874250Y-107054565D01*
X48626123Y-106455533D01*
X48333320Y-106326285D01*
X47179605Y-107480000D01*
X46820395Y-107480000D01*
X45666680Y-106326285D01*
X45373877Y-106455533D01*
X45105612Y-107155806D01*
X36889328Y-107155806D01*
X36874250Y-106594565D01*
X36626123Y-105995533D01*
X36333320Y-105866285D01*
X35179605Y-107020000D01*
X34820395Y-107020000D01*
X33666680Y-105866285D01*
X33373877Y-105995533D01*
X33105612Y-106695806D01*
X24878045Y-106695806D01*
X24874250Y-106554565D01*
X24626123Y-105955533D01*
X24333320Y-105826285D01*
X23179605Y-106980000D01*
X22820395Y-106980000D01*
X22806253Y-106965858D01*
X22985858Y-106786253D01*
X23000000Y-106800395D01*
X24113715Y-105686680D01*
X33846285Y-105686680D01*
X35000000Y-106840395D01*
X36153715Y-105686680D01*
X36024467Y-105393877D01*
X35324194Y-105125612D01*
X34574565Y-105145750D01*
X33975533Y-105393877D01*
X33846285Y-105686680D01*
X24113715Y-105686680D01*
X24153715Y-105646680D01*
X24075746Y-105470047D01*
X24598026Y-104947767D01*
X24885000Y-104254950D01*
X24885000Y-104005050D01*
X45115000Y-104005050D01*
X45115000Y-104754950D01*
X45401974Y-105447767D01*
X45924254Y-105970047D01*
X45846285Y-106146680D01*
X47000000Y-107300395D01*
X48153715Y-106146680D01*
X48075746Y-105970047D01*
X48598026Y-105447767D01*
X48885000Y-104754950D01*
X48885000Y-104005050D01*
X48598026Y-103312233D01*
X48067767Y-102781974D01*
X47374950Y-102495000D01*
X46625050Y-102495000D01*
X45932233Y-102781974D01*
X45401974Y-103312233D01*
X45115000Y-104005050D01*
X24885000Y-104005050D01*
X24885000Y-103505050D01*
X24598026Y-102812233D01*
X24067767Y-102281974D01*
X23374950Y-101995000D01*
X22625050Y-101995000D01*
X21932233Y-102281974D01*
X21401974Y-102812233D01*
X21156482Y-103404903D01*
X19584899Y-101833320D01*
X27366285Y-101833320D01*
X27495533Y-102126123D01*
X28195806Y-102394388D01*
X28945435Y-102374250D01*
X29544467Y-102126123D01*
X29673715Y-101833320D01*
X28520000Y-100679605D01*
X27366285Y-101833320D01*
X19584899Y-101833320D01*
X19237424Y-101485846D01*
X19188048Y-101411950D01*
X18895309Y-101216347D01*
X18637164Y-101164999D01*
X18637160Y-101164999D01*
X18549999Y-101147662D01*
X18505444Y-101156524D01*
X18398839Y-100620582D01*
X18101650Y-100175806D01*
X26625612Y-100175806D01*
X26645750Y-100925435D01*
X26893877Y-101524467D01*
X27186680Y-101653715D01*
X28340395Y-100500000D01*
X28699605Y-100500000D01*
X29853320Y-101653715D01*
X30029953Y-101575746D01*
X30552233Y-102098026D01*
X31245050Y-102385000D01*
X31994950Y-102385000D01*
X32687767Y-102098026D01*
X33218026Y-101567767D01*
X33505000Y-100874950D01*
X33505000Y-100125050D01*
X33218026Y-99432233D01*
X32687767Y-98901974D01*
X31994950Y-98615000D01*
X31245050Y-98615000D01*
X30552233Y-98901974D01*
X30029953Y-99424254D01*
X29853320Y-99346285D01*
X28699605Y-100500000D01*
X28340395Y-100500000D01*
X27186680Y-99346285D01*
X26893877Y-99475533D01*
X26625612Y-100175806D01*
X18101650Y-100175806D01*
X18070625Y-100129375D01*
X17772239Y-99930000D01*
X18070625Y-99730625D01*
X18398839Y-99239418D01*
X18413307Y-99166680D01*
X27366285Y-99166680D01*
X28520000Y-100320395D01*
X29673715Y-99166680D01*
X29544467Y-98873877D01*
X28844194Y-98605612D01*
X28094565Y-98625750D01*
X27495533Y-98873877D01*
X27366285Y-99166680D01*
X18413307Y-99166680D01*
X18514092Y-98660000D01*
X18398839Y-98080582D01*
X18070625Y-97589375D01*
X17772239Y-97390000D01*
X18070625Y-97190625D01*
X18398839Y-96699418D01*
X18514092Y-96120000D01*
X18398839Y-95540582D01*
X18174644Y-95205050D01*
X21115000Y-95205050D01*
X21115000Y-95954950D01*
X21401974Y-96647767D01*
X21932233Y-97178026D01*
X22625050Y-97465000D01*
X23374950Y-97465000D01*
X24067767Y-97178026D01*
X24598026Y-96647767D01*
X24885000Y-95954950D01*
X24885000Y-95205050D01*
X24598026Y-94512233D01*
X24067767Y-93981974D01*
X23374950Y-93695000D01*
X22625050Y-93695000D01*
X21932233Y-93981974D01*
X21401974Y-94512233D01*
X21115000Y-95205050D01*
X18174644Y-95205050D01*
X18070625Y-95049375D01*
X17772239Y-94850000D01*
X18070625Y-94650625D01*
X18398839Y-94159418D01*
X18514092Y-93580000D01*
X18398839Y-93000582D01*
X18070625Y-92509375D01*
X17772239Y-92310000D01*
X18070625Y-92110625D01*
X18398839Y-91619418D01*
X18514092Y-91040000D01*
X18398839Y-90460582D01*
X18070625Y-89969375D01*
X18048967Y-89954904D01*
X18209698Y-89888327D01*
X18388327Y-89709699D01*
X18485000Y-89476310D01*
X18485000Y-88785750D01*
X18326250Y-88627000D01*
X17127000Y-88627000D01*
X17127000Y-88647000D01*
X16873000Y-88647000D01*
X16873000Y-88627000D01*
X16853000Y-88627000D01*
X16853000Y-88373000D01*
X16873000Y-88373000D01*
X16873000Y-87173750D01*
X17127000Y-87173750D01*
X17127000Y-88373000D01*
X18326250Y-88373000D01*
X18485000Y-88214250D01*
X18485000Y-87523690D01*
X18388327Y-87290301D01*
X18209698Y-87111673D01*
X17976309Y-87015000D01*
X17285750Y-87015000D01*
X17127000Y-87173750D01*
X16873000Y-87173750D01*
X16714250Y-87015000D01*
X16023691Y-87015000D01*
X15790302Y-87111673D01*
X15710000Y-87191975D01*
X15710000Y-86660000D01*
X19036887Y-86660000D01*
X19148260Y-87219909D01*
X19465423Y-87694577D01*
X19940091Y-88011740D01*
X20358667Y-88095000D01*
X20588356Y-88095000D01*
X20544383Y-88124382D01*
X20473532Y-88230418D01*
X20473530Y-88230420D01*
X20263688Y-88544471D01*
X20165121Y-89040000D01*
X20190001Y-89165080D01*
X20190000Y-91099183D01*
X20158690Y-91130493D01*
X19925000Y-91694670D01*
X19925000Y-92305330D01*
X20158690Y-92869507D01*
X20590493Y-93301310D01*
X21154670Y-93535000D01*
X21765330Y-93535000D01*
X22329507Y-93301310D01*
X22498725Y-93132092D01*
X22501843Y-93147765D01*
X22642191Y-93357809D01*
X22852235Y-93498157D01*
X23100000Y-93547440D01*
X24900000Y-93547440D01*
X25147765Y-93498157D01*
X25357809Y-93357809D01*
X25498157Y-93147765D01*
X25547440Y-92900000D01*
X25547440Y-91100000D01*
X25498157Y-90852235D01*
X25357809Y-90642191D01*
X25147765Y-90501843D01*
X24900000Y-90452560D01*
X23100000Y-90452560D01*
X22852235Y-90501843D01*
X22730000Y-90583518D01*
X22730000Y-89975000D01*
X25762560Y-89975000D01*
X25762560Y-91225000D01*
X25832777Y-91578003D01*
X26032736Y-91877264D01*
X26331997Y-92077223D01*
X26685000Y-92147440D01*
X27032560Y-92147440D01*
X27032560Y-93295000D01*
X27102777Y-93648003D01*
X27302736Y-93947264D01*
X27345001Y-93975504D01*
X27345001Y-94691288D01*
X27122569Y-94913720D01*
X26965000Y-95294126D01*
X26965000Y-95705874D01*
X27122569Y-96086280D01*
X27413720Y-96377431D01*
X27794126Y-96535000D01*
X28205874Y-96535000D01*
X28586280Y-96377431D01*
X28877431Y-96086280D01*
X29035000Y-95705874D01*
X29035000Y-95658191D01*
X29063652Y-95615310D01*
X29115000Y-95357165D01*
X29115000Y-95357160D01*
X29132337Y-95270001D01*
X29115000Y-95182841D01*
X29115000Y-93975504D01*
X29157264Y-93947264D01*
X29357223Y-93648003D01*
X29427440Y-93295000D01*
X29427440Y-92147440D01*
X30050000Y-92147440D01*
X30297765Y-92098157D01*
X30507809Y-91957809D01*
X30648157Y-91747765D01*
X30658718Y-91694670D01*
X31925000Y-91694670D01*
X31925000Y-92305330D01*
X32158690Y-92869507D01*
X32590493Y-93301310D01*
X33154670Y-93535000D01*
X33765330Y-93535000D01*
X34329507Y-93301310D01*
X34498725Y-93132092D01*
X34501843Y-93147765D01*
X34642191Y-93357809D01*
X34852235Y-93498157D01*
X35100000Y-93547440D01*
X36900000Y-93547440D01*
X37147765Y-93498157D01*
X37357809Y-93357809D01*
X37498157Y-93147765D01*
X37547440Y-92900000D01*
X37547440Y-91100000D01*
X37498157Y-90852235D01*
X37357809Y-90642191D01*
X37147765Y-90501843D01*
X36900000Y-90452560D01*
X35100000Y-90452560D01*
X34852235Y-90501843D01*
X34730000Y-90583518D01*
X34730000Y-89041161D01*
X34794879Y-88714990D01*
X34696313Y-88219461D01*
X34415618Y-87799372D01*
X33995529Y-87518677D01*
X33500000Y-87420111D01*
X33004472Y-87518677D01*
X32690420Y-87728520D01*
X32650419Y-87768521D01*
X32544383Y-87839372D01*
X32473532Y-87945408D01*
X32473530Y-87945410D01*
X32263688Y-88259461D01*
X32165121Y-88754990D01*
X32190001Y-88880070D01*
X32190000Y-90874920D01*
X32190000Y-91099183D01*
X32158690Y-91130493D01*
X31925000Y-91694670D01*
X30658718Y-91694670D01*
X30697440Y-91500000D01*
X30697440Y-89700000D01*
X30648157Y-89452235D01*
X30507809Y-89242191D01*
X30385000Y-89160132D01*
X30385000Y-88067151D01*
X30402337Y-87979990D01*
X30385000Y-87892829D01*
X30385000Y-87892825D01*
X30333652Y-87634680D01*
X30138049Y-87341941D01*
X30064153Y-87292565D01*
X30027431Y-87255843D01*
X29877431Y-86893710D01*
X29586280Y-86602559D01*
X29205874Y-86444990D01*
X28794126Y-86444990D01*
X28413720Y-86602559D01*
X28122569Y-86893710D01*
X27965000Y-87274116D01*
X27965000Y-87685864D01*
X28122569Y-88066270D01*
X28413720Y-88357421D01*
X28615001Y-88440794D01*
X28615001Y-89160132D01*
X28492191Y-89242191D01*
X28351843Y-89452235D01*
X28302560Y-89700000D01*
X28302560Y-91122560D01*
X28157440Y-91122560D01*
X28157440Y-89975000D01*
X28087223Y-89621997D01*
X27887264Y-89322736D01*
X27588003Y-89122777D01*
X27235000Y-89052560D01*
X26685000Y-89052560D01*
X26331997Y-89122777D01*
X26032736Y-89322736D01*
X25832777Y-89621997D01*
X25762560Y-89975000D01*
X22730000Y-89975000D01*
X22730000Y-89326171D01*
X22794879Y-89000000D01*
X22696313Y-88504471D01*
X22415618Y-88084382D01*
X21995529Y-87803687D01*
X21514485Y-87708002D01*
X21534577Y-87694577D01*
X21851740Y-87219909D01*
X21963113Y-86660000D01*
X21851740Y-86100091D01*
X21534577Y-85625423D01*
X21059909Y-85308260D01*
X20641333Y-85225000D01*
X20358667Y-85225000D01*
X19940091Y-85308260D01*
X19465423Y-85625423D01*
X19148260Y-86100091D01*
X19036887Y-86660000D01*
X15710000Y-86660000D01*
X15710000Y-82127000D01*
X25365000Y-82127000D01*
X25365000Y-82627000D01*
X25557088Y-83338691D01*
X26006906Y-83922699D01*
X26645974Y-84290114D01*
X26830355Y-84337695D01*
X27123000Y-84221572D01*
X27123000Y-82127000D01*
X25365000Y-82127000D01*
X15710000Y-82127000D01*
X15710000Y-81373000D01*
X25365000Y-81373000D01*
X25365000Y-81873000D01*
X27123000Y-81873000D01*
X27123000Y-79778428D01*
X27377000Y-79778428D01*
X27377000Y-81873000D01*
X27397000Y-81873000D01*
X27397000Y-82127000D01*
X27377000Y-82127000D01*
X27377000Y-84221572D01*
X27669645Y-84337695D01*
X27854026Y-84290114D01*
X28493094Y-83922699D01*
X28942912Y-83338691D01*
X28972840Y-83227805D01*
X28974369Y-83235490D01*
X29390992Y-83859009D01*
X30014511Y-84275631D01*
X30750000Y-84421929D01*
X31485490Y-84275631D01*
X32109009Y-83859009D01*
X32525631Y-83235490D01*
X32635000Y-82685655D01*
X32635000Y-81314345D01*
X32525631Y-80764510D01*
X32109009Y-80140991D01*
X31485489Y-79724369D01*
X30750000Y-79578071D01*
X30014510Y-79724369D01*
X29390991Y-80140991D01*
X28974369Y-80764511D01*
X28972841Y-80772195D01*
X28942912Y-80661309D01*
X28493094Y-80077301D01*
X27854026Y-79709886D01*
X27669645Y-79662305D01*
X27377000Y-79778428D01*
X27123000Y-79778428D01*
X26830355Y-79662305D01*
X26645974Y-79709886D01*
X26006906Y-80077301D01*
X25557088Y-80661309D01*
X25365000Y-81373000D01*
X15710000Y-81373000D01*
X15710000Y-77507745D01*
X19671861Y-77507745D01*
X19745995Y-77753864D01*
X20283223Y-77946965D01*
X20853454Y-77919778D01*
X21254005Y-77753864D01*
X21328139Y-77507745D01*
X20500000Y-76679605D01*
X19671861Y-77507745D01*
X15710000Y-77507745D01*
X15710000Y-76283223D01*
X19053035Y-76283223D01*
X19080222Y-76853454D01*
X19246136Y-77254005D01*
X19492255Y-77328139D01*
X20320395Y-76500000D01*
X20679605Y-76500000D01*
X21507745Y-77328139D01*
X21620665Y-77294126D01*
X35125000Y-77294126D01*
X35125000Y-77705874D01*
X35282569Y-78086280D01*
X35573720Y-78377431D01*
X35935853Y-78527431D01*
X40615001Y-83206580D01*
X40615000Y-88660132D01*
X40492191Y-88742191D01*
X40351843Y-88952235D01*
X40302560Y-89200000D01*
X40302560Y-90622560D01*
X40157440Y-90622560D01*
X40157440Y-89475000D01*
X40087223Y-89121997D01*
X39887264Y-88822736D01*
X39588003Y-88622777D01*
X39235000Y-88552560D01*
X38685000Y-88552560D01*
X38331997Y-88622777D01*
X38032736Y-88822736D01*
X37832777Y-89121997D01*
X37762560Y-89475000D01*
X37762560Y-90725000D01*
X37832777Y-91078003D01*
X38032736Y-91377264D01*
X38331997Y-91577223D01*
X38685000Y-91647440D01*
X39032560Y-91647440D01*
X39032560Y-92005106D01*
X39017663Y-92080000D01*
X39032560Y-92154894D01*
X39032560Y-92795000D01*
X39035000Y-92807269D01*
X39035001Y-93431992D01*
X38885000Y-93794126D01*
X38885000Y-94205874D01*
X39035000Y-94568007D01*
X39035001Y-98826269D01*
X38852233Y-98901974D01*
X38321974Y-99432233D01*
X38035000Y-100125050D01*
X38035000Y-100874950D01*
X38321974Y-101567767D01*
X38852233Y-102098026D01*
X39545050Y-102385000D01*
X40294950Y-102385000D01*
X40987767Y-102098026D01*
X41518026Y-101567767D01*
X41805000Y-100874950D01*
X41805000Y-100125050D01*
X41518026Y-99432233D01*
X40987767Y-98901974D01*
X40805000Y-98826269D01*
X40805000Y-95705050D01*
X45115000Y-95705050D01*
X45115000Y-96454950D01*
X45401974Y-97147767D01*
X45932233Y-97678026D01*
X46625050Y-97965000D01*
X47374950Y-97965000D01*
X48067767Y-97678026D01*
X48598026Y-97147767D01*
X48885000Y-96454950D01*
X48885000Y-95705050D01*
X48598026Y-95012233D01*
X48067767Y-94481974D01*
X47374950Y-94195000D01*
X46625050Y-94195000D01*
X45932233Y-94481974D01*
X45401974Y-95012233D01*
X45115000Y-95705050D01*
X40805000Y-95705050D01*
X40805000Y-94568007D01*
X40955000Y-94205874D01*
X40955000Y-93794126D01*
X40886315Y-93628306D01*
X41157264Y-93447264D01*
X41357223Y-93148003D01*
X41427440Y-92795000D01*
X41427440Y-91694670D01*
X43925000Y-91694670D01*
X43925000Y-92305330D01*
X44158690Y-92869507D01*
X44590493Y-93301310D01*
X45154670Y-93535000D01*
X45765330Y-93535000D01*
X46329507Y-93301310D01*
X46498725Y-93132092D01*
X46501843Y-93147765D01*
X46642191Y-93357809D01*
X46852235Y-93498157D01*
X47100000Y-93547440D01*
X48900000Y-93547440D01*
X49147765Y-93498157D01*
X49357809Y-93357809D01*
X49498157Y-93147765D01*
X49547440Y-92900000D01*
X49547440Y-91100000D01*
X49498157Y-90852235D01*
X49357809Y-90642191D01*
X49147765Y-90501843D01*
X48900000Y-90452560D01*
X47100000Y-90452560D01*
X46852235Y-90501843D01*
X46642191Y-90642191D01*
X46501843Y-90852235D01*
X46498725Y-90867908D01*
X46329507Y-90698690D01*
X45765330Y-90465000D01*
X45154670Y-90465000D01*
X44590493Y-90698690D01*
X44158690Y-91130493D01*
X43925000Y-91694670D01*
X41427440Y-91694670D01*
X41427440Y-91647440D01*
X42050000Y-91647440D01*
X42297765Y-91598157D01*
X42507809Y-91457809D01*
X42648157Y-91247765D01*
X42697440Y-91000000D01*
X42697440Y-89200000D01*
X42648157Y-88952235D01*
X42507809Y-88742191D01*
X42385000Y-88660132D01*
X42385000Y-86474778D01*
X43365000Y-86474778D01*
X43365000Y-87125222D01*
X43613914Y-87726153D01*
X44073847Y-88186086D01*
X44674778Y-88435000D01*
X45325222Y-88435000D01*
X45926153Y-88186086D01*
X46386086Y-87726153D01*
X46635000Y-87125222D01*
X46635000Y-86474778D01*
X46386086Y-85873847D01*
X45926153Y-85413914D01*
X45325222Y-85165000D01*
X44674778Y-85165000D01*
X44073847Y-85413914D01*
X43613914Y-85873847D01*
X43365000Y-86474778D01*
X42385000Y-86474778D01*
X42385000Y-82927159D01*
X42402337Y-82839999D01*
X42385000Y-82752839D01*
X42385000Y-82752835D01*
X42333652Y-82494690D01*
X42138049Y-82201951D01*
X42064156Y-82152577D01*
X37187431Y-77275853D01*
X37037431Y-76913720D01*
X36746280Y-76622569D01*
X36365874Y-76465000D01*
X35954126Y-76465000D01*
X35573720Y-76622569D01*
X35282569Y-76913720D01*
X35125000Y-77294126D01*
X21620665Y-77294126D01*
X21753864Y-77254005D01*
X21946965Y-76716777D01*
X21919778Y-76146546D01*
X21862285Y-76007745D01*
X22671861Y-76007745D01*
X22745995Y-76253864D01*
X23283223Y-76446965D01*
X23853454Y-76419778D01*
X24254005Y-76253864D01*
X24328139Y-76007745D01*
X23500000Y-75179605D01*
X22671861Y-76007745D01*
X21862285Y-76007745D01*
X21753864Y-75745995D01*
X21507745Y-75671861D01*
X20679605Y-76500000D01*
X20320395Y-76500000D01*
X19492255Y-75671861D01*
X19246136Y-75745995D01*
X19053035Y-76283223D01*
X15710000Y-76283223D01*
X15710000Y-75492255D01*
X19671861Y-75492255D01*
X20500000Y-76320395D01*
X21328139Y-75492255D01*
X21254005Y-75246136D01*
X20716777Y-75053035D01*
X20146546Y-75080222D01*
X19745995Y-75246136D01*
X19671861Y-75492255D01*
X15710000Y-75492255D01*
X15710000Y-74783223D01*
X22053035Y-74783223D01*
X22080222Y-75353454D01*
X22246136Y-75754005D01*
X22492255Y-75828139D01*
X23320395Y-75000000D01*
X23679605Y-75000000D01*
X24507745Y-75828139D01*
X24753864Y-75754005D01*
X24946965Y-75216777D01*
X24919778Y-74646546D01*
X24753864Y-74245995D01*
X24507745Y-74171861D01*
X23679605Y-75000000D01*
X23320395Y-75000000D01*
X22492255Y-74171861D01*
X22246136Y-74245995D01*
X22053035Y-74783223D01*
X15710000Y-74783223D01*
X15710000Y-72785750D01*
X15965000Y-72785750D01*
X15965000Y-73526310D01*
X16061673Y-73759699D01*
X16240302Y-73938327D01*
X16473691Y-74035000D01*
X17214250Y-74035000D01*
X17373000Y-73876250D01*
X17373000Y-72627000D01*
X16123750Y-72627000D01*
X15965000Y-72785750D01*
X15710000Y-72785750D01*
X15710000Y-71473690D01*
X15965000Y-71473690D01*
X15965000Y-72214250D01*
X16123750Y-72373000D01*
X17373000Y-72373000D01*
X17373000Y-71123750D01*
X17627000Y-71123750D01*
X17627000Y-72373000D01*
X17647000Y-72373000D01*
X17647000Y-72627000D01*
X17627000Y-72627000D01*
X17627000Y-73876250D01*
X17785750Y-74035000D01*
X18526309Y-74035000D01*
X18759698Y-73938327D01*
X18938327Y-73759699D01*
X18994139Y-73624956D01*
X19170493Y-73801310D01*
X19734670Y-74035000D01*
X20345330Y-74035000D01*
X20448525Y-73992255D01*
X22671861Y-73992255D01*
X23500000Y-74820395D01*
X24328139Y-73992255D01*
X24254005Y-73746136D01*
X23716777Y-73553035D01*
X23146546Y-73580222D01*
X22745995Y-73746136D01*
X22671861Y-73992255D01*
X20448525Y-73992255D01*
X20909507Y-73801310D01*
X21341310Y-73369507D01*
X21575000Y-72805330D01*
X21575000Y-72194670D01*
X21341310Y-71630493D01*
X20909507Y-71198690D01*
X20345330Y-70965000D01*
X19734670Y-70965000D01*
X19170493Y-71198690D01*
X18994139Y-71375044D01*
X18938327Y-71240301D01*
X18759698Y-71061673D01*
X18526309Y-70965000D01*
X17785750Y-70965000D01*
X17627000Y-71123750D01*
X17373000Y-71123750D01*
X17214250Y-70965000D01*
X16473691Y-70965000D01*
X16240302Y-71061673D01*
X16061673Y-71240301D01*
X15965000Y-71473690D01*
X15710000Y-71473690D01*
X15710000Y-68285750D01*
X15965000Y-68285750D01*
X15965000Y-69026310D01*
X16061673Y-69259699D01*
X16240302Y-69438327D01*
X16473691Y-69535000D01*
X17214250Y-69535000D01*
X17373000Y-69376250D01*
X17373000Y-68127000D01*
X16123750Y-68127000D01*
X15965000Y-68285750D01*
X15710000Y-68285750D01*
X15710000Y-66973690D01*
X15965000Y-66973690D01*
X15965000Y-67714250D01*
X16123750Y-67873000D01*
X17373000Y-67873000D01*
X17373000Y-66623750D01*
X17627000Y-66623750D01*
X17627000Y-67873000D01*
X17647000Y-67873000D01*
X17647000Y-68127000D01*
X17627000Y-68127000D01*
X17627000Y-69376250D01*
X17785750Y-69535000D01*
X18526309Y-69535000D01*
X18759698Y-69438327D01*
X18938327Y-69259699D01*
X18994139Y-69124956D01*
X19170493Y-69301310D01*
X19734670Y-69535000D01*
X20345330Y-69535000D01*
X20909507Y-69301310D01*
X21341310Y-68869507D01*
X21575000Y-68305330D01*
X21575000Y-67694670D01*
X21341310Y-67130493D01*
X20909507Y-66698690D01*
X20345330Y-66465000D01*
X19734670Y-66465000D01*
X19170493Y-66698690D01*
X18994139Y-66875044D01*
X18938327Y-66740301D01*
X18759698Y-66561673D01*
X18526309Y-66465000D01*
X17785750Y-66465000D01*
X17627000Y-66623750D01*
X17373000Y-66623750D01*
X17214250Y-66465000D01*
X16473691Y-66465000D01*
X16240302Y-66561673D01*
X16061673Y-66740301D01*
X15965000Y-66973690D01*
X15710000Y-66973690D01*
X15710000Y-56500000D01*
X19852560Y-56500000D01*
X19852560Y-58500000D01*
X19901843Y-58747765D01*
X20042191Y-58957809D01*
X20217671Y-59075062D01*
X20080613Y-59125736D01*
X19854092Y-59735461D01*
X19878144Y-60385460D01*
X20080613Y-60874264D01*
X20347468Y-60972927D01*
X21320395Y-60000000D01*
X21306253Y-59985858D01*
X21485858Y-59806253D01*
X21500000Y-59820395D01*
X21514143Y-59806253D01*
X21693748Y-59985858D01*
X21679605Y-60000000D01*
X22652532Y-60972927D01*
X22919387Y-60874264D01*
X23115001Y-60347732D01*
X23115001Y-62126494D01*
X22886086Y-61573847D01*
X22470725Y-61158486D01*
X22472927Y-61152532D01*
X21500000Y-60179605D01*
X20527073Y-61152532D01*
X20529275Y-61158486D01*
X20113914Y-61573847D01*
X19865000Y-62174778D01*
X19865000Y-62825222D01*
X20113914Y-63426153D01*
X20573847Y-63886086D01*
X21174778Y-64135000D01*
X21825222Y-64135000D01*
X22426153Y-63886086D01*
X22886086Y-63426153D01*
X23115001Y-62873506D01*
X23115001Y-71931991D01*
X22965000Y-72294126D01*
X22965000Y-72705874D01*
X23122569Y-73086280D01*
X23413720Y-73377431D01*
X23794126Y-73535000D01*
X24205874Y-73535000D01*
X24586280Y-73377431D01*
X24877431Y-73086280D01*
X25035000Y-72705874D01*
X25035000Y-72294126D01*
X24885000Y-71931993D01*
X24885000Y-68984999D01*
X25255874Y-68984999D01*
X25636280Y-68827430D01*
X25927431Y-68536279D01*
X26085000Y-68155873D01*
X26085000Y-67744125D01*
X25935000Y-67381992D01*
X25935000Y-65155431D01*
X26765000Y-65155431D01*
X26765000Y-66044569D01*
X27105259Y-66866026D01*
X27733974Y-67494741D01*
X28555431Y-67835000D01*
X29444569Y-67835000D01*
X30266026Y-67494741D01*
X30894741Y-66866026D01*
X31235000Y-66044569D01*
X31235000Y-65155431D01*
X30894741Y-64333974D01*
X30266026Y-63705259D01*
X29444569Y-63365000D01*
X28555431Y-63365000D01*
X27733974Y-63705259D01*
X27105259Y-64333974D01*
X26765000Y-65155431D01*
X25935000Y-65155431D01*
X25935000Y-53955431D01*
X26765000Y-53955431D01*
X26765000Y-54844569D01*
X27105259Y-55666026D01*
X27733974Y-56294741D01*
X28555431Y-56635000D01*
X29444569Y-56635000D01*
X30266026Y-56294741D01*
X30680001Y-55880766D01*
X30680001Y-61512272D01*
X30413720Y-61622569D01*
X30122569Y-61913720D01*
X29965000Y-62294126D01*
X29965000Y-62705874D01*
X30122569Y-63086280D01*
X30413720Y-63377431D01*
X30794126Y-63535000D01*
X31205874Y-63535000D01*
X31586280Y-63377431D01*
X31877431Y-63086280D01*
X32027431Y-62724148D01*
X32129155Y-62622423D01*
X32203049Y-62573049D01*
X32275246Y-62465000D01*
X32398652Y-62280310D01*
X32408784Y-62229371D01*
X32450000Y-62022165D01*
X32450000Y-62022161D01*
X32467337Y-61935000D01*
X32450000Y-61847839D01*
X32450000Y-44399016D01*
X35780590Y-44399016D01*
X35836271Y-44629611D01*
X36319078Y-44797622D01*
X36829428Y-44768083D01*
X37163729Y-44629611D01*
X37219410Y-44399016D01*
X36500000Y-43679605D01*
X35780590Y-44399016D01*
X32450000Y-44399016D01*
X32450000Y-43319078D01*
X35202378Y-43319078D01*
X35231917Y-43829428D01*
X35370389Y-44163729D01*
X35600984Y-44219410D01*
X36320395Y-43500000D01*
X36679605Y-43500000D01*
X37399016Y-44219410D01*
X37629611Y-44163729D01*
X37797622Y-43680922D01*
X37768083Y-43170572D01*
X37629611Y-42836271D01*
X37399016Y-42780590D01*
X36679605Y-43500000D01*
X36320395Y-43500000D01*
X35600984Y-42780590D01*
X35370389Y-42836271D01*
X35202378Y-43319078D01*
X32450000Y-43319078D01*
X32450000Y-42568007D01*
X32600000Y-42205874D01*
X32600000Y-41794126D01*
X32442431Y-41413720D01*
X32151280Y-41122569D01*
X31770874Y-40965000D01*
X31359126Y-40965000D01*
X30978720Y-41122569D01*
X30687569Y-41413720D01*
X30530000Y-41794126D01*
X30530000Y-42205874D01*
X30680000Y-42568007D01*
X30680001Y-52919234D01*
X30266026Y-52505259D01*
X29444569Y-52165000D01*
X28555431Y-52165000D01*
X27733974Y-52505259D01*
X27105259Y-53133974D01*
X26765000Y-53955431D01*
X25935000Y-53955431D01*
X25935000Y-45637161D01*
X25952337Y-45550000D01*
X25937375Y-45474778D01*
X27365000Y-45474778D01*
X27365000Y-46125222D01*
X27613914Y-46726153D01*
X28073847Y-47186086D01*
X28674778Y-47435000D01*
X29325222Y-47435000D01*
X29926153Y-47186086D01*
X30386086Y-46726153D01*
X30635000Y-46125222D01*
X30635000Y-45474778D01*
X30386086Y-44873847D01*
X29926153Y-44413914D01*
X29325222Y-44165000D01*
X28674778Y-44165000D01*
X28073847Y-44413914D01*
X27613914Y-44873847D01*
X27365000Y-45474778D01*
X25937375Y-45474778D01*
X25935000Y-45462839D01*
X25935000Y-38244398D01*
X35215000Y-38244398D01*
X35215000Y-38755602D01*
X35410629Y-39227894D01*
X35772106Y-39589371D01*
X36159900Y-39750000D01*
X35772106Y-39910629D01*
X35410629Y-40272106D01*
X35215000Y-40744398D01*
X35215000Y-41255602D01*
X35410629Y-41727894D01*
X35772106Y-42089371D01*
X36143408Y-42243169D01*
X35836271Y-42370389D01*
X35780590Y-42600984D01*
X36500000Y-43320395D01*
X37219410Y-42600984D01*
X37163729Y-42370389D01*
X36829906Y-42254223D01*
X37227894Y-42089371D01*
X37589371Y-41727894D01*
X37785000Y-41255602D01*
X37785000Y-40744398D01*
X37589371Y-40272106D01*
X37227894Y-39910629D01*
X36840100Y-39750000D01*
X37227894Y-39589371D01*
X37589371Y-39227894D01*
X37785000Y-38755602D01*
X37785000Y-38244398D01*
X37589371Y-37772106D01*
X37227894Y-37410629D01*
X36755602Y-37215000D01*
X36244398Y-37215000D01*
X35772106Y-37410629D01*
X35410629Y-37772106D01*
X35215000Y-38244398D01*
X25935000Y-38244398D01*
X25935000Y-36137161D01*
X25952337Y-36050000D01*
X25935000Y-35962839D01*
X25935000Y-35962835D01*
X25917485Y-35874778D01*
X27365000Y-35874778D01*
X27365000Y-36525222D01*
X27613914Y-37126153D01*
X28073847Y-37586086D01*
X28674778Y-37835000D01*
X29325222Y-37835000D01*
X29926153Y-37586086D01*
X30386086Y-37126153D01*
X30635000Y-36525222D01*
X30635000Y-35874778D01*
X30386086Y-35273847D01*
X29926153Y-34813914D01*
X29325222Y-34565000D01*
X28674778Y-34565000D01*
X28073847Y-34813914D01*
X27613914Y-35273847D01*
X27365000Y-35874778D01*
X25917485Y-35874778D01*
X25883652Y-35704690D01*
X25805124Y-35587165D01*
X25737424Y-35485845D01*
X25737423Y-35485844D01*
X25688049Y-35411951D01*
X25614156Y-35362577D01*
X23935000Y-33683422D01*
X23935000Y-33500000D01*
X31196887Y-33500000D01*
X31308260Y-34059909D01*
X31625423Y-34534577D01*
X32100091Y-34851740D01*
X32518667Y-34935000D01*
X32801333Y-34935000D01*
X33219909Y-34851740D01*
X33694577Y-34534577D01*
X34011740Y-34059909D01*
X34123113Y-33500000D01*
X34011740Y-32940091D01*
X33694577Y-32465423D01*
X33219909Y-32148260D01*
X32801333Y-32065000D01*
X32518667Y-32065000D01*
X32100091Y-32148260D01*
X31625423Y-32465423D01*
X31308260Y-32940091D01*
X31196887Y-33500000D01*
X23935000Y-33500000D01*
X23935000Y-33214561D01*
X23716534Y-32687138D01*
X23312862Y-32283466D01*
X22785439Y-32065000D01*
X22214561Y-32065000D01*
X21687138Y-32283466D01*
X21283466Y-32687138D01*
X21065000Y-33214561D01*
X21065000Y-33785439D01*
X21283466Y-34312862D01*
X21687138Y-34716534D01*
X22214561Y-34935000D01*
X22683422Y-34935000D01*
X24165001Y-36416580D01*
X24165000Y-43965000D01*
X23794126Y-43965000D01*
X23413720Y-44122569D01*
X23122569Y-44413720D01*
X22965000Y-44794126D01*
X22965000Y-45205874D01*
X23115000Y-45568007D01*
X23115000Y-56336913D01*
X23098157Y-56252235D01*
X22957809Y-56042191D01*
X22747765Y-55901843D01*
X22500000Y-55852560D01*
X20500000Y-55852560D01*
X20252235Y-55901843D01*
X20042191Y-56042191D01*
X19901843Y-56252235D01*
X19852560Y-56500000D01*
X15710000Y-56500000D01*
X15710000Y-49285750D01*
X15965000Y-49285750D01*
X15965000Y-50026310D01*
X16061673Y-50259699D01*
X16240302Y-50438327D01*
X16473691Y-50535000D01*
X17214250Y-50535000D01*
X17373000Y-50376250D01*
X17373000Y-49127000D01*
X16123750Y-49127000D01*
X15965000Y-49285750D01*
X15710000Y-49285750D01*
X15710000Y-47973690D01*
X15965000Y-47973690D01*
X15965000Y-48714250D01*
X16123750Y-48873000D01*
X17373000Y-48873000D01*
X17373000Y-47623750D01*
X17214250Y-47465000D01*
X16473691Y-47465000D01*
X16240302Y-47561673D01*
X16061673Y-47740301D01*
X15965000Y-47973690D01*
X15710000Y-47973690D01*
X15710000Y-43714561D01*
X16565000Y-43714561D01*
X16565000Y-44285439D01*
X16783466Y-44812862D01*
X17187138Y-45216534D01*
X17714561Y-45435000D01*
X18183422Y-45435000D01*
X19155000Y-46406579D01*
X19155001Y-47714182D01*
X18994139Y-47875044D01*
X18938327Y-47740301D01*
X18759698Y-47561673D01*
X18526309Y-47465000D01*
X17785750Y-47465000D01*
X17627000Y-47623750D01*
X17627000Y-48873000D01*
X17647000Y-48873000D01*
X17647000Y-49127000D01*
X17627000Y-49127000D01*
X17627000Y-50376250D01*
X17785750Y-50535000D01*
X18526309Y-50535000D01*
X18759698Y-50438327D01*
X18938327Y-50259699D01*
X18994139Y-50124956D01*
X19170493Y-50301310D01*
X19734670Y-50535000D01*
X20345330Y-50535000D01*
X20909507Y-50301310D01*
X21341310Y-49869507D01*
X21575000Y-49305330D01*
X21575000Y-48694670D01*
X21341310Y-48130493D01*
X20925000Y-47714183D01*
X20925000Y-46127161D01*
X20942337Y-46040000D01*
X20925000Y-45952839D01*
X20925000Y-45952835D01*
X20873652Y-45694690D01*
X20808820Y-45597662D01*
X20727424Y-45475845D01*
X20727423Y-45475844D01*
X20678049Y-45401951D01*
X20604156Y-45352577D01*
X19435000Y-44183422D01*
X19435000Y-43714561D01*
X19216534Y-43187138D01*
X18812862Y-42783466D01*
X18285439Y-42565000D01*
X17714561Y-42565000D01*
X17187138Y-42783466D01*
X16783466Y-43187138D01*
X16565000Y-43714561D01*
X15710000Y-43714561D01*
X15710000Y-33840000D01*
X16536887Y-33840000D01*
X16648260Y-34399909D01*
X16965423Y-34874577D01*
X17440091Y-35191740D01*
X17858667Y-35275000D01*
X18141333Y-35275000D01*
X18559909Y-35191740D01*
X19034577Y-34874577D01*
X19351740Y-34399909D01*
X19463113Y-33840000D01*
X19351740Y-33280091D01*
X19034577Y-32805423D01*
X18559909Y-32488260D01*
X18141333Y-32405000D01*
X17858667Y-32405000D01*
X17440091Y-32488260D01*
X16965423Y-32805423D01*
X16648260Y-33280091D01*
X16536887Y-33840000D01*
X15710000Y-33840000D01*
X15710000Y-30285750D01*
X15965000Y-30285750D01*
X15965000Y-31026310D01*
X16061673Y-31259699D01*
X16240302Y-31438327D01*
X16473691Y-31535000D01*
X17214250Y-31535000D01*
X17373000Y-31376250D01*
X17373000Y-30127000D01*
X16123750Y-30127000D01*
X15965000Y-30285750D01*
X15710000Y-30285750D01*
X15710000Y-28973690D01*
X15965000Y-28973690D01*
X15965000Y-29714250D01*
X16123750Y-29873000D01*
X17373000Y-29873000D01*
X17373000Y-28623750D01*
X17627000Y-28623750D01*
X17627000Y-29873000D01*
X17647000Y-29873000D01*
X17647000Y-30127000D01*
X17627000Y-30127000D01*
X17627000Y-31376250D01*
X17785750Y-31535000D01*
X18526309Y-31535000D01*
X18759698Y-31438327D01*
X18938327Y-31259699D01*
X18994139Y-31124956D01*
X19170493Y-31301310D01*
X19734670Y-31535000D01*
X20345330Y-31535000D01*
X20909507Y-31301310D01*
X21325817Y-30885000D01*
X21355604Y-30885000D01*
X21687138Y-31216534D01*
X22214561Y-31435000D01*
X22785439Y-31435000D01*
X23312862Y-31216534D01*
X23716534Y-30812862D01*
X23935000Y-30285439D01*
X23935000Y-29714561D01*
X23716534Y-29187138D01*
X23312862Y-28783466D01*
X22785439Y-28565000D01*
X22214561Y-28565000D01*
X21687138Y-28783466D01*
X21355604Y-29115000D01*
X21325817Y-29115000D01*
X20909507Y-28698690D01*
X20345330Y-28465000D01*
X19734670Y-28465000D01*
X19170493Y-28698690D01*
X18994139Y-28875044D01*
X18938327Y-28740301D01*
X18759698Y-28561673D01*
X18526309Y-28465000D01*
X17785750Y-28465000D01*
X17627000Y-28623750D01*
X17373000Y-28623750D01*
X17214250Y-28465000D01*
X16473691Y-28465000D01*
X16240302Y-28561673D01*
X16061673Y-28740301D01*
X15965000Y-28973690D01*
X15710000Y-28973690D01*
X15710000Y-26474778D01*
X27365000Y-26474778D01*
X27365000Y-27125222D01*
X27613914Y-27726153D01*
X28073847Y-28186086D01*
X28674778Y-28435000D01*
X29325222Y-28435000D01*
X29926153Y-28186086D01*
X30386086Y-27726153D01*
X30635000Y-27125222D01*
X30635000Y-26474778D01*
X30386086Y-25873847D01*
X29926153Y-25413914D01*
X29325222Y-25165000D01*
X28674778Y-25165000D01*
X28073847Y-25413914D01*
X27613914Y-25873847D01*
X27365000Y-26474778D01*
X15710000Y-26474778D01*
X15710000Y-15710000D01*
X28324717Y-15710000D01*
X28073847Y-15813914D01*
G36*
X51772106Y-80910629D02*
X51410629Y-81272106D01*
X51215000Y-81744398D01*
X51215000Y-82255602D01*
X51410629Y-82727894D01*
X51772106Y-83089371D01*
X52143408Y-83243169D01*
X51836271Y-83370389D01*
X51780590Y-83600984D01*
X52500000Y-84320395D01*
X53219410Y-83600984D01*
X53163729Y-83370389D01*
X52829906Y-83254223D01*
X53227894Y-83089371D01*
X53589371Y-82727894D01*
X53640572Y-82604283D01*
X53913720Y-82877431D01*
X54294126Y-83035000D01*
X54540001Y-83035000D01*
X54540001Y-84763405D01*
X54518392Y-89258030D01*
X54507809Y-89242191D01*
X54297765Y-89101843D01*
X54225000Y-89087369D01*
X54225000Y-89087159D01*
X54242337Y-88999999D01*
X54225000Y-88912839D01*
X54225000Y-88912835D01*
X54173652Y-88654690D01*
X53978049Y-88361951D01*
X53904156Y-88312577D01*
X52687426Y-87095848D01*
X52687424Y-87095845D01*
X50990595Y-85399016D01*
X51780590Y-85399016D01*
X51836271Y-85629611D01*
X52319078Y-85797622D01*
X52829428Y-85768083D01*
X53163729Y-85629611D01*
X53219410Y-85399016D01*
X52500000Y-84679605D01*
X51780590Y-85399016D01*
X50990595Y-85399016D01*
X49910657Y-84319078D01*
X51202378Y-84319078D01*
X51231917Y-84829428D01*
X51370389Y-85163729D01*
X51600984Y-85219410D01*
X52320395Y-84500000D01*
X52679605Y-84500000D01*
X53399016Y-85219410D01*
X53629611Y-85163729D01*
X53797622Y-84680922D01*
X53768083Y-84170572D01*
X53629611Y-83836271D01*
X53399016Y-83780590D01*
X52679605Y-84500000D01*
X52320395Y-84500000D01*
X51600984Y-83780590D01*
X51370389Y-83836271D01*
X51202378Y-84319078D01*
X49910657Y-84319078D01*
X48885000Y-83293422D01*
X48885000Y-82068007D01*
X49035000Y-81705874D01*
X49035000Y-81294126D01*
X48877431Y-80913720D01*
X48733711Y-80770000D01*
X52111616Y-80770000D01*
X51772106Y-80910629D01*
X51772106Y-80910629D01*
G37*
X51772106Y-80910629D02*
X51410629Y-81272106D01*
X51215000Y-81744398D01*
X51215000Y-82255602D01*
X51410629Y-82727894D01*
X51772106Y-83089371D01*
X52143408Y-83243169D01*
X51836271Y-83370389D01*
X51780590Y-83600984D01*
X52500000Y-84320395D01*
X53219410Y-83600984D01*
X53163729Y-83370389D01*
X52829906Y-83254223D01*
X53227894Y-83089371D01*
X53589371Y-82727894D01*
X53640572Y-82604283D01*
X53913720Y-82877431D01*
X54294126Y-83035000D01*
X54540001Y-83035000D01*
X54540001Y-84763405D01*
X54518392Y-89258030D01*
X54507809Y-89242191D01*
X54297765Y-89101843D01*
X54225000Y-89087369D01*
X54225000Y-89087159D01*
X54242337Y-88999999D01*
X54225000Y-88912839D01*
X54225000Y-88912835D01*
X54173652Y-88654690D01*
X53978049Y-88361951D01*
X53904156Y-88312577D01*
X52687426Y-87095848D01*
X52687424Y-87095845D01*
X50990595Y-85399016D01*
X51780590Y-85399016D01*
X51836271Y-85629611D01*
X52319078Y-85797622D01*
X52829428Y-85768083D01*
X53163729Y-85629611D01*
X53219410Y-85399016D01*
X52500000Y-84679605D01*
X51780590Y-85399016D01*
X50990595Y-85399016D01*
X49910657Y-84319078D01*
X51202378Y-84319078D01*
X51231917Y-84829428D01*
X51370389Y-85163729D01*
X51600984Y-85219410D01*
X52320395Y-84500000D01*
X52679605Y-84500000D01*
X53399016Y-85219410D01*
X53629611Y-85163729D01*
X53797622Y-84680922D01*
X53768083Y-84170572D01*
X53629611Y-83836271D01*
X53399016Y-83780590D01*
X52679605Y-84500000D01*
X52320395Y-84500000D01*
X51600984Y-83780590D01*
X51370389Y-83836271D01*
X51202378Y-84319078D01*
X49910657Y-84319078D01*
X48885000Y-83293422D01*
X48885000Y-82068007D01*
X49035000Y-81705874D01*
X49035000Y-81294126D01*
X48877431Y-80913720D01*
X48733711Y-80770000D01*
X52111616Y-80770000D01*
X51772106Y-80910629D01*
G36*
X45589375Y-18070625D02*
X45775000Y-18194656D01*
X45775000Y-19072839D01*
X45757663Y-19160000D01*
X45775000Y-19247161D01*
X45775000Y-19247164D01*
X45826348Y-19505309D01*
X46021951Y-19798049D01*
X46095847Y-19847425D01*
X48615001Y-22366580D01*
X48615000Y-68912839D01*
X48597663Y-69000000D01*
X48615000Y-69087161D01*
X48615000Y-69087164D01*
X48666348Y-69345309D01*
X48861951Y-69638049D01*
X48935847Y-69687425D01*
X49275000Y-70026579D01*
X49275001Y-71865478D01*
X49125423Y-71965423D01*
X48808260Y-72440091D01*
X48696887Y-73000000D01*
X48808260Y-73559909D01*
X49125423Y-74034577D01*
X49600091Y-74351740D01*
X50018667Y-74435000D01*
X50301333Y-74435000D01*
X50719909Y-74351740D01*
X51194577Y-74034577D01*
X51511740Y-73559909D01*
X51623113Y-73000000D01*
X51511740Y-72440091D01*
X51194577Y-71965423D01*
X51045000Y-71865479D01*
X51045000Y-69783223D01*
X51553035Y-69783223D01*
X51580222Y-70353454D01*
X51746136Y-70754005D01*
X51992255Y-70828139D01*
X52820395Y-70000000D01*
X51992255Y-69171861D01*
X51746136Y-69245995D01*
X51553035Y-69783223D01*
X51045000Y-69783223D01*
X51045000Y-69747161D01*
X51062337Y-69660000D01*
X51045000Y-69572839D01*
X51045000Y-69572835D01*
X50993652Y-69314690D01*
X50894533Y-69166348D01*
X50847424Y-69095845D01*
X50847423Y-69095844D01*
X50798049Y-69021951D01*
X50724156Y-68972577D01*
X50385000Y-68633422D01*
X50385000Y-67848711D01*
X50413720Y-67877431D01*
X50794126Y-68035000D01*
X51205874Y-68035000D01*
X51586280Y-67877431D01*
X51877431Y-67586280D01*
X52035000Y-67205874D01*
X52035000Y-66794126D01*
X51885000Y-66431993D01*
X51885000Y-64690315D01*
X52310959Y-64891914D01*
X52533000Y-64770629D01*
X52533000Y-63627000D01*
X52513000Y-63627000D01*
X52513000Y-63373000D01*
X52533000Y-63373000D01*
X52533000Y-62229371D01*
X52310959Y-62108086D01*
X51885000Y-62309685D01*
X51885000Y-60880272D01*
X52143108Y-61001486D01*
X52373000Y-60880819D01*
X52373000Y-59687000D01*
X52353000Y-59687000D01*
X52353000Y-59433000D01*
X52373000Y-59433000D01*
X52373000Y-59413000D01*
X52627000Y-59413000D01*
X52627000Y-59433000D01*
X52647000Y-59433000D01*
X52647000Y-59687000D01*
X52627000Y-59687000D01*
X52627000Y-60880819D01*
X52856892Y-61001486D01*
X53381358Y-60755183D01*
X53490000Y-60635970D01*
X53490000Y-62335716D01*
X53009041Y-62108086D01*
X52787000Y-62229371D01*
X52787000Y-63373000D01*
X52807000Y-63373000D01*
X52807000Y-63627000D01*
X52787000Y-63627000D01*
X52787000Y-64770629D01*
X53009041Y-64891914D01*
X53490000Y-64664284D01*
X53490000Y-68651242D01*
X53216777Y-68553035D01*
X52646546Y-68580222D01*
X52245995Y-68746136D01*
X52171861Y-68992255D01*
X53000000Y-69820395D01*
X53014142Y-69806252D01*
X53193748Y-69985858D01*
X53179605Y-70000000D01*
X53193748Y-70014143D01*
X53014142Y-70193748D01*
X53000000Y-70179605D01*
X52171861Y-71007745D01*
X52245995Y-71253864D01*
X52783223Y-71446965D01*
X53353454Y-71419778D01*
X53490000Y-71363219D01*
X53490000Y-77912839D01*
X53472663Y-78000000D01*
X53490000Y-78087161D01*
X53490000Y-78087164D01*
X53541348Y-78345309D01*
X53615001Y-78455538D01*
X53615001Y-78833982D01*
X53589371Y-78772106D01*
X53443751Y-78626486D01*
X53415618Y-78584382D01*
X53373514Y-78556249D01*
X53227894Y-78410629D01*
X53037635Y-78331822D01*
X52995529Y-78303687D01*
X52945860Y-78293807D01*
X52755602Y-78215000D01*
X52244398Y-78215000D01*
X52208185Y-78230000D01*
X46282239Y-78230000D01*
X46386086Y-78126153D01*
X46635000Y-77525222D01*
X46635000Y-76874778D01*
X46386086Y-76273847D01*
X45926153Y-75813914D01*
X45325222Y-75565000D01*
X44674778Y-75565000D01*
X44073847Y-75813914D01*
X43613914Y-76273847D01*
X43365000Y-76874778D01*
X43365000Y-77525222D01*
X43613914Y-78126153D01*
X43717761Y-78230000D01*
X42026051Y-78230000D01*
X37270000Y-73473950D01*
X37270000Y-72025007D01*
X37294126Y-72035000D01*
X37705874Y-72035000D01*
X38068007Y-71885000D01*
X39085604Y-71885000D01*
X38783466Y-72187138D01*
X38565000Y-72714561D01*
X38565000Y-73285439D01*
X38783466Y-73812862D01*
X39187138Y-74216534D01*
X39714561Y-74435000D01*
X40285439Y-74435000D01*
X40812862Y-74216534D01*
X41216534Y-73812862D01*
X41435000Y-73285439D01*
X41435000Y-72714561D01*
X41216534Y-72187138D01*
X40812862Y-71783466D01*
X40285439Y-71565000D01*
X40186859Y-71565000D01*
X40187425Y-71564153D01*
X41439052Y-70312526D01*
X41488260Y-70559909D01*
X41805423Y-71034577D01*
X42280091Y-71351740D01*
X42698667Y-71435000D01*
X42981333Y-71435000D01*
X43242767Y-71382997D01*
X43252835Y-71385000D01*
X43252839Y-71385000D01*
X43340000Y-71402337D01*
X43427161Y-71385000D01*
X46931993Y-71385000D01*
X47294126Y-71535000D01*
X47705874Y-71535000D01*
X48086280Y-71377431D01*
X48377431Y-71086280D01*
X48535000Y-70705874D01*
X48535000Y-70294126D01*
X48377431Y-69913720D01*
X48086280Y-69622569D01*
X47705874Y-69465000D01*
X47294126Y-69465000D01*
X46931993Y-69615000D01*
X44226532Y-69615000D01*
X44191740Y-69440091D01*
X43874577Y-68965423D01*
X43399909Y-68648260D01*
X43329463Y-68634248D01*
X43377431Y-68586280D01*
X43535000Y-68205874D01*
X43535000Y-67794126D01*
X43377431Y-67413720D01*
X43086280Y-67122569D01*
X42705874Y-66965000D01*
X42294126Y-66965000D01*
X41913720Y-67122569D01*
X41622569Y-67413720D01*
X41472569Y-67775852D01*
X39133422Y-70115000D01*
X39095817Y-70115000D01*
X39301310Y-69909507D01*
X39535000Y-69345330D01*
X39535000Y-68734670D01*
X39301310Y-68170493D01*
X39124956Y-67994139D01*
X39259699Y-67938327D01*
X39438327Y-67759698D01*
X39535000Y-67526309D01*
X39535000Y-66785750D01*
X39376250Y-66627000D01*
X38127000Y-66627000D01*
X38127000Y-66647000D01*
X37873000Y-66647000D01*
X37873000Y-66627000D01*
X37853000Y-66627000D01*
X37853000Y-66373000D01*
X37873000Y-66373000D01*
X37873000Y-65123750D01*
X38127000Y-65123750D01*
X38127000Y-66373000D01*
X39376250Y-66373000D01*
X39535000Y-66214250D01*
X39535000Y-65473691D01*
X39438327Y-65240302D01*
X39259699Y-65061673D01*
X39026310Y-64965000D01*
X38285750Y-64965000D01*
X38127000Y-65123750D01*
X37873000Y-65123750D01*
X37714250Y-64965000D01*
X37270000Y-64965000D01*
X37270000Y-63542239D01*
X37386086Y-63426153D01*
X37615000Y-62873506D01*
X37615000Y-62931993D01*
X37465000Y-63294126D01*
X37465000Y-63705874D01*
X37622569Y-64086280D01*
X37913720Y-64377431D01*
X38294126Y-64535000D01*
X38705874Y-64535000D01*
X39086280Y-64377431D01*
X39377431Y-64086280D01*
X39535000Y-63705874D01*
X39535000Y-63294126D01*
X39502044Y-63214561D01*
X41065000Y-63214561D01*
X41065000Y-63785439D01*
X41283466Y-64312862D01*
X41687138Y-64716534D01*
X42214561Y-64935000D01*
X42785439Y-64935000D01*
X43312862Y-64716534D01*
X43716534Y-64312862D01*
X43935000Y-63785439D01*
X43935000Y-63214561D01*
X43716534Y-62687138D01*
X43312862Y-62283466D01*
X42785439Y-62065000D01*
X42214561Y-62065000D01*
X41687138Y-62283466D01*
X41283466Y-62687138D01*
X41065000Y-63214561D01*
X39502044Y-63214561D01*
X39385000Y-62931993D01*
X39385000Y-58087161D01*
X39402337Y-58000000D01*
X39385000Y-57912839D01*
X39385000Y-57912835D01*
X39333652Y-57654690D01*
X39138049Y-57361951D01*
X39064153Y-57312575D01*
X39027431Y-57275853D01*
X38877431Y-56913720D01*
X38586280Y-56622569D01*
X38205874Y-56465000D01*
X37794126Y-56465000D01*
X37413720Y-56622569D01*
X37408450Y-56627839D01*
X37386086Y-56573847D01*
X36926153Y-56113914D01*
X36885000Y-56096868D01*
X36885000Y-48068007D01*
X37035000Y-47705874D01*
X37035000Y-47535000D01*
X37205874Y-47535000D01*
X37586280Y-47377431D01*
X37877431Y-47086280D01*
X38027431Y-46724147D01*
X39730001Y-45021578D01*
X39730000Y-57625079D01*
X39803687Y-57995528D01*
X40084382Y-58415618D01*
X40504471Y-58696313D01*
X41000000Y-58794880D01*
X41495528Y-58696313D01*
X41915618Y-58415618D01*
X42196313Y-57995529D01*
X42270000Y-57625080D01*
X42270000Y-56489346D01*
X42790620Y-57009966D01*
X43575322Y-57335000D01*
X44424678Y-57335000D01*
X45209380Y-57009966D01*
X45809966Y-56409380D01*
X46135000Y-55624678D01*
X46135000Y-54775322D01*
X45809966Y-53990620D01*
X45209380Y-53390034D01*
X44424678Y-53065000D01*
X43575322Y-53065000D01*
X42790620Y-53390034D01*
X42270000Y-53910654D01*
X42270000Y-52013970D01*
X42665635Y-52013970D01*
X42825418Y-52332739D01*
X43616187Y-52642723D01*
X44465387Y-52626497D01*
X45174582Y-52332739D01*
X45334365Y-52013970D01*
X44000000Y-50679605D01*
X42665635Y-52013970D01*
X42270000Y-52013970D01*
X42270000Y-51726080D01*
X42486030Y-51834365D01*
X43820395Y-50500000D01*
X44179605Y-50500000D01*
X45513970Y-51834365D01*
X45832739Y-51674582D01*
X46142723Y-50883813D01*
X46126497Y-50034613D01*
X45832739Y-49325418D01*
X45513970Y-49165635D01*
X44179605Y-50500000D01*
X43820395Y-50500000D01*
X42486030Y-49165635D01*
X42270000Y-49273920D01*
X42270000Y-48986030D01*
X42665635Y-48986030D01*
X44000000Y-50320395D01*
X45334365Y-48986030D01*
X45174582Y-48667261D01*
X44383813Y-48357277D01*
X43534613Y-48373503D01*
X42825418Y-48667261D01*
X42665635Y-48986030D01*
X42270000Y-48986030D01*
X42270000Y-47089346D01*
X42790620Y-47609966D01*
X43575322Y-47935000D01*
X44424678Y-47935000D01*
X45209380Y-47609966D01*
X45809966Y-47009380D01*
X45879002Y-46842713D01*
X45913720Y-46877431D01*
X46275852Y-47027431D01*
X46615000Y-47366579D01*
X46615001Y-55821287D01*
X46522568Y-55913720D01*
X46364999Y-56294126D01*
X46364999Y-56705874D01*
X46522568Y-57086280D01*
X46813719Y-57377431D01*
X47194125Y-57535000D01*
X47605873Y-57535000D01*
X47986279Y-57377431D01*
X48277430Y-57086280D01*
X48434999Y-56705874D01*
X48434999Y-56294126D01*
X48385000Y-56173417D01*
X48385000Y-47087161D01*
X48402337Y-47000000D01*
X48385000Y-46912839D01*
X48385000Y-46912835D01*
X48333652Y-46654690D01*
X48287942Y-46586280D01*
X48187424Y-46435845D01*
X48187423Y-46435844D01*
X48138049Y-46361951D01*
X48064156Y-46312577D01*
X47625837Y-45874259D01*
X47697319Y-45844650D01*
X47988470Y-45553499D01*
X48146039Y-45173093D01*
X48146039Y-44761345D01*
X47988470Y-44380939D01*
X47697319Y-44089788D01*
X47335187Y-43939788D01*
X44885000Y-41489602D01*
X44885000Y-38144329D01*
X45209380Y-38009966D01*
X45730001Y-37489345D01*
X45730001Y-39625080D01*
X45803688Y-39995529D01*
X46084383Y-40415618D01*
X46504472Y-40696313D01*
X47000000Y-40794880D01*
X47495529Y-40696313D01*
X47915618Y-40415618D01*
X48196313Y-39995529D01*
X48270000Y-39625080D01*
X48270000Y-23625076D01*
X48294879Y-23500000D01*
X48270000Y-23374924D01*
X48270000Y-23374920D01*
X48196313Y-23004471D01*
X47915618Y-22584382D01*
X47809579Y-22513529D01*
X47309580Y-22013530D01*
X46995529Y-21803688D01*
X46500000Y-21705121D01*
X46004471Y-21803688D01*
X45584382Y-22084382D01*
X45303688Y-22504471D01*
X45205121Y-23000000D01*
X45303688Y-23495529D01*
X45513530Y-23809580D01*
X45730001Y-24026051D01*
X45730001Y-25510655D01*
X45209380Y-24990034D01*
X44424678Y-24665000D01*
X43575322Y-24665000D01*
X42790620Y-24990034D01*
X42385000Y-25395654D01*
X42385000Y-21935000D01*
X42785439Y-21935000D01*
X43312862Y-21716534D01*
X43716534Y-21312862D01*
X43857852Y-20971691D01*
X43914126Y-20995000D01*
X44325874Y-20995000D01*
X44706280Y-20837431D01*
X44997431Y-20546280D01*
X45155000Y-20165874D01*
X45155000Y-19754126D01*
X45005000Y-19391993D01*
X45005000Y-18194656D01*
X45190625Y-18070625D01*
X45390000Y-17772239D01*
X45589375Y-18070625D01*
X45589375Y-18070625D01*
G37*
X45589375Y-18070625D02*
X45775000Y-18194656D01*
X45775000Y-19072839D01*
X45757663Y-19160000D01*
X45775000Y-19247161D01*
X45775000Y-19247164D01*
X45826348Y-19505309D01*
X46021951Y-19798049D01*
X46095847Y-19847425D01*
X48615001Y-22366580D01*
X48615000Y-68912839D01*
X48597663Y-69000000D01*
X48615000Y-69087161D01*
X48615000Y-69087164D01*
X48666348Y-69345309D01*
X48861951Y-69638049D01*
X48935847Y-69687425D01*
X49275000Y-70026579D01*
X49275001Y-71865478D01*
X49125423Y-71965423D01*
X48808260Y-72440091D01*
X48696887Y-73000000D01*
X48808260Y-73559909D01*
X49125423Y-74034577D01*
X49600091Y-74351740D01*
X50018667Y-74435000D01*
X50301333Y-74435000D01*
X50719909Y-74351740D01*
X51194577Y-74034577D01*
X51511740Y-73559909D01*
X51623113Y-73000000D01*
X51511740Y-72440091D01*
X51194577Y-71965423D01*
X51045000Y-71865479D01*
X51045000Y-69783223D01*
X51553035Y-69783223D01*
X51580222Y-70353454D01*
X51746136Y-70754005D01*
X51992255Y-70828139D01*
X52820395Y-70000000D01*
X51992255Y-69171861D01*
X51746136Y-69245995D01*
X51553035Y-69783223D01*
X51045000Y-69783223D01*
X51045000Y-69747161D01*
X51062337Y-69660000D01*
X51045000Y-69572839D01*
X51045000Y-69572835D01*
X50993652Y-69314690D01*
X50894533Y-69166348D01*
X50847424Y-69095845D01*
X50847423Y-69095844D01*
X50798049Y-69021951D01*
X50724156Y-68972577D01*
X50385000Y-68633422D01*
X50385000Y-67848711D01*
X50413720Y-67877431D01*
X50794126Y-68035000D01*
X51205874Y-68035000D01*
X51586280Y-67877431D01*
X51877431Y-67586280D01*
X52035000Y-67205874D01*
X52035000Y-66794126D01*
X51885000Y-66431993D01*
X51885000Y-64690315D01*
X52310959Y-64891914D01*
X52533000Y-64770629D01*
X52533000Y-63627000D01*
X52513000Y-63627000D01*
X52513000Y-63373000D01*
X52533000Y-63373000D01*
X52533000Y-62229371D01*
X52310959Y-62108086D01*
X51885000Y-62309685D01*
X51885000Y-60880272D01*
X52143108Y-61001486D01*
X52373000Y-60880819D01*
X52373000Y-59687000D01*
X52353000Y-59687000D01*
X52353000Y-59433000D01*
X52373000Y-59433000D01*
X52373000Y-59413000D01*
X52627000Y-59413000D01*
X52627000Y-59433000D01*
X52647000Y-59433000D01*
X52647000Y-59687000D01*
X52627000Y-59687000D01*
X52627000Y-60880819D01*
X52856892Y-61001486D01*
X53381358Y-60755183D01*
X53490000Y-60635970D01*
X53490000Y-62335716D01*
X53009041Y-62108086D01*
X52787000Y-62229371D01*
X52787000Y-63373000D01*
X52807000Y-63373000D01*
X52807000Y-63627000D01*
X52787000Y-63627000D01*
X52787000Y-64770629D01*
X53009041Y-64891914D01*
X53490000Y-64664284D01*
X53490000Y-68651242D01*
X53216777Y-68553035D01*
X52646546Y-68580222D01*
X52245995Y-68746136D01*
X52171861Y-68992255D01*
X53000000Y-69820395D01*
X53014142Y-69806252D01*
X53193748Y-69985858D01*
X53179605Y-70000000D01*
X53193748Y-70014143D01*
X53014142Y-70193748D01*
X53000000Y-70179605D01*
X52171861Y-71007745D01*
X52245995Y-71253864D01*
X52783223Y-71446965D01*
X53353454Y-71419778D01*
X53490000Y-71363219D01*
X53490000Y-77912839D01*
X53472663Y-78000000D01*
X53490000Y-78087161D01*
X53490000Y-78087164D01*
X53541348Y-78345309D01*
X53615001Y-78455538D01*
X53615001Y-78833982D01*
X53589371Y-78772106D01*
X53443751Y-78626486D01*
X53415618Y-78584382D01*
X53373514Y-78556249D01*
X53227894Y-78410629D01*
X53037635Y-78331822D01*
X52995529Y-78303687D01*
X52945860Y-78293807D01*
X52755602Y-78215000D01*
X52244398Y-78215000D01*
X52208185Y-78230000D01*
X46282239Y-78230000D01*
X46386086Y-78126153D01*
X46635000Y-77525222D01*
X46635000Y-76874778D01*
X46386086Y-76273847D01*
X45926153Y-75813914D01*
X45325222Y-75565000D01*
X44674778Y-75565000D01*
X44073847Y-75813914D01*
X43613914Y-76273847D01*
X43365000Y-76874778D01*
X43365000Y-77525222D01*
X43613914Y-78126153D01*
X43717761Y-78230000D01*
X42026051Y-78230000D01*
X37270000Y-73473950D01*
X37270000Y-72025007D01*
X37294126Y-72035000D01*
X37705874Y-72035000D01*
X38068007Y-71885000D01*
X39085604Y-71885000D01*
X38783466Y-72187138D01*
X38565000Y-72714561D01*
X38565000Y-73285439D01*
X38783466Y-73812862D01*
X39187138Y-74216534D01*
X39714561Y-74435000D01*
X40285439Y-74435000D01*
X40812862Y-74216534D01*
X41216534Y-73812862D01*
X41435000Y-73285439D01*
X41435000Y-72714561D01*
X41216534Y-72187138D01*
X40812862Y-71783466D01*
X40285439Y-71565000D01*
X40186859Y-71565000D01*
X40187425Y-71564153D01*
X41439052Y-70312526D01*
X41488260Y-70559909D01*
X41805423Y-71034577D01*
X42280091Y-71351740D01*
X42698667Y-71435000D01*
X42981333Y-71435000D01*
X43242767Y-71382997D01*
X43252835Y-71385000D01*
X43252839Y-71385000D01*
X43340000Y-71402337D01*
X43427161Y-71385000D01*
X46931993Y-71385000D01*
X47294126Y-71535000D01*
X47705874Y-71535000D01*
X48086280Y-71377431D01*
X48377431Y-71086280D01*
X48535000Y-70705874D01*
X48535000Y-70294126D01*
X48377431Y-69913720D01*
X48086280Y-69622569D01*
X47705874Y-69465000D01*
X47294126Y-69465000D01*
X46931993Y-69615000D01*
X44226532Y-69615000D01*
X44191740Y-69440091D01*
X43874577Y-68965423D01*
X43399909Y-68648260D01*
X43329463Y-68634248D01*
X43377431Y-68586280D01*
X43535000Y-68205874D01*
X43535000Y-67794126D01*
X43377431Y-67413720D01*
X43086280Y-67122569D01*
X42705874Y-66965000D01*
X42294126Y-66965000D01*
X41913720Y-67122569D01*
X41622569Y-67413720D01*
X41472569Y-67775852D01*
X39133422Y-70115000D01*
X39095817Y-70115000D01*
X39301310Y-69909507D01*
X39535000Y-69345330D01*
X39535000Y-68734670D01*
X39301310Y-68170493D01*
X39124956Y-67994139D01*
X39259699Y-67938327D01*
X39438327Y-67759698D01*
X39535000Y-67526309D01*
X39535000Y-66785750D01*
X39376250Y-66627000D01*
X38127000Y-66627000D01*
X38127000Y-66647000D01*
X37873000Y-66647000D01*
X37873000Y-66627000D01*
X37853000Y-66627000D01*
X37853000Y-66373000D01*
X37873000Y-66373000D01*
X37873000Y-65123750D01*
X38127000Y-65123750D01*
X38127000Y-66373000D01*
X39376250Y-66373000D01*
X39535000Y-66214250D01*
X39535000Y-65473691D01*
X39438327Y-65240302D01*
X39259699Y-65061673D01*
X39026310Y-64965000D01*
X38285750Y-64965000D01*
X38127000Y-65123750D01*
X37873000Y-65123750D01*
X37714250Y-64965000D01*
X37270000Y-64965000D01*
X37270000Y-63542239D01*
X37386086Y-63426153D01*
X37615000Y-62873506D01*
X37615000Y-62931993D01*
X37465000Y-63294126D01*
X37465000Y-63705874D01*
X37622569Y-64086280D01*
X37913720Y-64377431D01*
X38294126Y-64535000D01*
X38705874Y-64535000D01*
X39086280Y-64377431D01*
X39377431Y-64086280D01*
X39535000Y-63705874D01*
X39535000Y-63294126D01*
X39502044Y-63214561D01*
X41065000Y-63214561D01*
X41065000Y-63785439D01*
X41283466Y-64312862D01*
X41687138Y-64716534D01*
X42214561Y-64935000D01*
X42785439Y-64935000D01*
X43312862Y-64716534D01*
X43716534Y-64312862D01*
X43935000Y-63785439D01*
X43935000Y-63214561D01*
X43716534Y-62687138D01*
X43312862Y-62283466D01*
X42785439Y-62065000D01*
X42214561Y-62065000D01*
X41687138Y-62283466D01*
X41283466Y-62687138D01*
X41065000Y-63214561D01*
X39502044Y-63214561D01*
X39385000Y-62931993D01*
X39385000Y-58087161D01*
X39402337Y-58000000D01*
X39385000Y-57912839D01*
X39385000Y-57912835D01*
X39333652Y-57654690D01*
X39138049Y-57361951D01*
X39064153Y-57312575D01*
X39027431Y-57275853D01*
X38877431Y-56913720D01*
X38586280Y-56622569D01*
X38205874Y-56465000D01*
X37794126Y-56465000D01*
X37413720Y-56622569D01*
X37408450Y-56627839D01*
X37386086Y-56573847D01*
X36926153Y-56113914D01*
X36885000Y-56096868D01*
X36885000Y-48068007D01*
X37035000Y-47705874D01*
X37035000Y-47535000D01*
X37205874Y-47535000D01*
X37586280Y-47377431D01*
X37877431Y-47086280D01*
X38027431Y-46724147D01*
X39730001Y-45021578D01*
X39730000Y-57625079D01*
X39803687Y-57995528D01*
X40084382Y-58415618D01*
X40504471Y-58696313D01*
X41000000Y-58794880D01*
X41495528Y-58696313D01*
X41915618Y-58415618D01*
X42196313Y-57995529D01*
X42270000Y-57625080D01*
X42270000Y-56489346D01*
X42790620Y-57009966D01*
X43575322Y-57335000D01*
X44424678Y-57335000D01*
X45209380Y-57009966D01*
X45809966Y-56409380D01*
X46135000Y-55624678D01*
X46135000Y-54775322D01*
X45809966Y-53990620D01*
X45209380Y-53390034D01*
X44424678Y-53065000D01*
X43575322Y-53065000D01*
X42790620Y-53390034D01*
X42270000Y-53910654D01*
X42270000Y-52013970D01*
X42665635Y-52013970D01*
X42825418Y-52332739D01*
X43616187Y-52642723D01*
X44465387Y-52626497D01*
X45174582Y-52332739D01*
X45334365Y-52013970D01*
X44000000Y-50679605D01*
X42665635Y-52013970D01*
X42270000Y-52013970D01*
X42270000Y-51726080D01*
X42486030Y-51834365D01*
X43820395Y-50500000D01*
X44179605Y-50500000D01*
X45513970Y-51834365D01*
X45832739Y-51674582D01*
X46142723Y-50883813D01*
X46126497Y-50034613D01*
X45832739Y-49325418D01*
X45513970Y-49165635D01*
X44179605Y-50500000D01*
X43820395Y-50500000D01*
X42486030Y-49165635D01*
X42270000Y-49273920D01*
X42270000Y-48986030D01*
X42665635Y-48986030D01*
X44000000Y-50320395D01*
X45334365Y-48986030D01*
X45174582Y-48667261D01*
X44383813Y-48357277D01*
X43534613Y-48373503D01*
X42825418Y-48667261D01*
X42665635Y-48986030D01*
X42270000Y-48986030D01*
X42270000Y-47089346D01*
X42790620Y-47609966D01*
X43575322Y-47935000D01*
X44424678Y-47935000D01*
X45209380Y-47609966D01*
X45809966Y-47009380D01*
X45879002Y-46842713D01*
X45913720Y-46877431D01*
X46275852Y-47027431D01*
X46615000Y-47366579D01*
X46615001Y-55821287D01*
X46522568Y-55913720D01*
X46364999Y-56294126D01*
X46364999Y-56705874D01*
X46522568Y-57086280D01*
X46813719Y-57377431D01*
X47194125Y-57535000D01*
X47605873Y-57535000D01*
X47986279Y-57377431D01*
X48277430Y-57086280D01*
X48434999Y-56705874D01*
X48434999Y-56294126D01*
X48385000Y-56173417D01*
X48385000Y-47087161D01*
X48402337Y-47000000D01*
X48385000Y-46912839D01*
X48385000Y-46912835D01*
X48333652Y-46654690D01*
X48287942Y-46586280D01*
X48187424Y-46435845D01*
X48187423Y-46435844D01*
X48138049Y-46361951D01*
X48064156Y-46312577D01*
X47625837Y-45874259D01*
X47697319Y-45844650D01*
X47988470Y-45553499D01*
X48146039Y-45173093D01*
X48146039Y-44761345D01*
X47988470Y-44380939D01*
X47697319Y-44089788D01*
X47335187Y-43939788D01*
X44885000Y-41489602D01*
X44885000Y-38144329D01*
X45209380Y-38009966D01*
X45730001Y-37489345D01*
X45730001Y-39625080D01*
X45803688Y-39995529D01*
X46084383Y-40415618D01*
X46504472Y-40696313D01*
X47000000Y-40794880D01*
X47495529Y-40696313D01*
X47915618Y-40415618D01*
X48196313Y-39995529D01*
X48270000Y-39625080D01*
X48270000Y-23625076D01*
X48294879Y-23500000D01*
X48270000Y-23374924D01*
X48270000Y-23374920D01*
X48196313Y-23004471D01*
X47915618Y-22584382D01*
X47809579Y-22513529D01*
X47309580Y-22013530D01*
X46995529Y-21803688D01*
X46500000Y-21705121D01*
X46004471Y-21803688D01*
X45584382Y-22084382D01*
X45303688Y-22504471D01*
X45205121Y-23000000D01*
X45303688Y-23495529D01*
X45513530Y-23809580D01*
X45730001Y-24026051D01*
X45730001Y-25510655D01*
X45209380Y-24990034D01*
X44424678Y-24665000D01*
X43575322Y-24665000D01*
X42790620Y-24990034D01*
X42385000Y-25395654D01*
X42385000Y-21935000D01*
X42785439Y-21935000D01*
X43312862Y-21716534D01*
X43716534Y-21312862D01*
X43857852Y-20971691D01*
X43914126Y-20995000D01*
X44325874Y-20995000D01*
X44706280Y-20837431D01*
X44997431Y-20546280D01*
X45155000Y-20165874D01*
X45155000Y-19754126D01*
X45005000Y-19391993D01*
X45005000Y-18194656D01*
X45190625Y-18070625D01*
X45390000Y-17772239D01*
X45589375Y-18070625D01*
G36*
X54540000Y-37488421D02*
X53970538Y-36918960D01*
X54014092Y-36700000D01*
X53898839Y-36120582D01*
X53570625Y-35629375D01*
X53272239Y-35430000D01*
X53570625Y-35230625D01*
X53898839Y-34739418D01*
X54014092Y-34160000D01*
X53898839Y-33580582D01*
X53570625Y-33089375D01*
X53272239Y-32890000D01*
X53570625Y-32690625D01*
X53898839Y-32199418D01*
X54014092Y-31620000D01*
X53898839Y-31040582D01*
X53570625Y-30549375D01*
X53272239Y-30350000D01*
X53570625Y-30150625D01*
X53898839Y-29659418D01*
X54014092Y-29080000D01*
X53898839Y-28500582D01*
X53570625Y-28009375D01*
X53251522Y-27796157D01*
X53381358Y-27735183D01*
X53771645Y-27306924D01*
X53941476Y-26896890D01*
X53820155Y-26667000D01*
X52627000Y-26667000D01*
X52627000Y-26687000D01*
X52373000Y-26687000D01*
X52373000Y-26667000D01*
X52353000Y-26667000D01*
X52353000Y-26413000D01*
X52373000Y-26413000D01*
X52373000Y-24127000D01*
X52627000Y-24127000D01*
X52627000Y-26413000D01*
X53820155Y-26413000D01*
X53941476Y-26183110D01*
X53771645Y-25773076D01*
X53500122Y-25475136D01*
X53709698Y-25388327D01*
X53888327Y-25209699D01*
X53985000Y-24976310D01*
X53985000Y-24285750D01*
X53826250Y-24127000D01*
X52627000Y-24127000D01*
X52373000Y-24127000D01*
X51173750Y-24127000D01*
X51015000Y-24285750D01*
X51015000Y-24976310D01*
X51111673Y-25209699D01*
X51290302Y-25388327D01*
X51499878Y-25475136D01*
X51228355Y-25773076D01*
X51091314Y-26103943D01*
X50755874Y-25965000D01*
X50385000Y-25965000D01*
X50385000Y-23023690D01*
X51015000Y-23023690D01*
X51015000Y-23714250D01*
X51173750Y-23873000D01*
X52373000Y-23873000D01*
X52373000Y-22673750D01*
X52627000Y-22673750D01*
X52627000Y-23873000D01*
X53826250Y-23873000D01*
X53985000Y-23714250D01*
X53985000Y-23023690D01*
X53888327Y-22790301D01*
X53709698Y-22611673D01*
X53476309Y-22515000D01*
X52785750Y-22515000D01*
X52627000Y-22673750D01*
X52373000Y-22673750D01*
X52214250Y-22515000D01*
X51523691Y-22515000D01*
X51290302Y-22611673D01*
X51111673Y-22790301D01*
X51015000Y-23023690D01*
X50385000Y-23023690D01*
X50385000Y-22087161D01*
X50402337Y-22000000D01*
X50385000Y-21912839D01*
X50385000Y-21912835D01*
X50333652Y-21654690D01*
X50138049Y-21361951D01*
X50064156Y-21312577D01*
X49251579Y-20500000D01*
X51196887Y-20500000D01*
X51308260Y-21059909D01*
X51625423Y-21534577D01*
X52100091Y-21851740D01*
X52518667Y-21935000D01*
X52801333Y-21935000D01*
X53219909Y-21851740D01*
X53694577Y-21534577D01*
X54011740Y-21059909D01*
X54123113Y-20500000D01*
X54011740Y-19940091D01*
X53694577Y-19465423D01*
X53219909Y-19148260D01*
X52801333Y-19065000D01*
X52518667Y-19065000D01*
X52100091Y-19148260D01*
X51625423Y-19465423D01*
X51308260Y-19940091D01*
X51196887Y-20500000D01*
X49251579Y-20500000D01*
X47545000Y-18793422D01*
X47545000Y-18194656D01*
X47730625Y-18070625D01*
X47943843Y-17751522D01*
X48004817Y-17881358D01*
X48433076Y-18271645D01*
X48843110Y-18441476D01*
X49073000Y-18320155D01*
X49073000Y-17127000D01*
X49327000Y-17127000D01*
X49327000Y-18320155D01*
X49556890Y-18441476D01*
X49966924Y-18271645D01*
X50395183Y-17881358D01*
X50641486Y-17356892D01*
X50520819Y-17127000D01*
X49327000Y-17127000D01*
X49073000Y-17127000D01*
X49053000Y-17127000D01*
X49053000Y-16873000D01*
X49073000Y-16873000D01*
X49073000Y-16853000D01*
X49327000Y-16853000D01*
X49327000Y-16873000D01*
X50520819Y-16873000D01*
X50641486Y-16643108D01*
X50395183Y-16118642D01*
X49966924Y-15728355D01*
X49922608Y-15710000D01*
X54540000Y-15710000D01*
X54540000Y-37488421D01*
X54540000Y-37488421D01*
G37*
X54540000Y-37488421D02*
X53970538Y-36918960D01*
X54014092Y-36700000D01*
X53898839Y-36120582D01*
X53570625Y-35629375D01*
X53272239Y-35430000D01*
X53570625Y-35230625D01*
X53898839Y-34739418D01*
X54014092Y-34160000D01*
X53898839Y-33580582D01*
X53570625Y-33089375D01*
X53272239Y-32890000D01*
X53570625Y-32690625D01*
X53898839Y-32199418D01*
X54014092Y-31620000D01*
X53898839Y-31040582D01*
X53570625Y-30549375D01*
X53272239Y-30350000D01*
X53570625Y-30150625D01*
X53898839Y-29659418D01*
X54014092Y-29080000D01*
X53898839Y-28500582D01*
X53570625Y-28009375D01*
X53251522Y-27796157D01*
X53381358Y-27735183D01*
X53771645Y-27306924D01*
X53941476Y-26896890D01*
X53820155Y-26667000D01*
X52627000Y-26667000D01*
X52627000Y-26687000D01*
X52373000Y-26687000D01*
X52373000Y-26667000D01*
X52353000Y-26667000D01*
X52353000Y-26413000D01*
X52373000Y-26413000D01*
X52373000Y-24127000D01*
X52627000Y-24127000D01*
X52627000Y-26413000D01*
X53820155Y-26413000D01*
X53941476Y-26183110D01*
X53771645Y-25773076D01*
X53500122Y-25475136D01*
X53709698Y-25388327D01*
X53888327Y-25209699D01*
X53985000Y-24976310D01*
X53985000Y-24285750D01*
X53826250Y-24127000D01*
X52627000Y-24127000D01*
X52373000Y-24127000D01*
X51173750Y-24127000D01*
X51015000Y-24285750D01*
X51015000Y-24976310D01*
X51111673Y-25209699D01*
X51290302Y-25388327D01*
X51499878Y-25475136D01*
X51228355Y-25773076D01*
X51091314Y-26103943D01*
X50755874Y-25965000D01*
X50385000Y-25965000D01*
X50385000Y-23023690D01*
X51015000Y-23023690D01*
X51015000Y-23714250D01*
X51173750Y-23873000D01*
X52373000Y-23873000D01*
X52373000Y-22673750D01*
X52627000Y-22673750D01*
X52627000Y-23873000D01*
X53826250Y-23873000D01*
X53985000Y-23714250D01*
X53985000Y-23023690D01*
X53888327Y-22790301D01*
X53709698Y-22611673D01*
X53476309Y-22515000D01*
X52785750Y-22515000D01*
X52627000Y-22673750D01*
X52373000Y-22673750D01*
X52214250Y-22515000D01*
X51523691Y-22515000D01*
X51290302Y-22611673D01*
X51111673Y-22790301D01*
X51015000Y-23023690D01*
X50385000Y-23023690D01*
X50385000Y-22087161D01*
X50402337Y-22000000D01*
X50385000Y-21912839D01*
X50385000Y-21912835D01*
X50333652Y-21654690D01*
X50138049Y-21361951D01*
X50064156Y-21312577D01*
X49251579Y-20500000D01*
X51196887Y-20500000D01*
X51308260Y-21059909D01*
X51625423Y-21534577D01*
X52100091Y-21851740D01*
X52518667Y-21935000D01*
X52801333Y-21935000D01*
X53219909Y-21851740D01*
X53694577Y-21534577D01*
X54011740Y-21059909D01*
X54123113Y-20500000D01*
X54011740Y-19940091D01*
X53694577Y-19465423D01*
X53219909Y-19148260D01*
X52801333Y-19065000D01*
X52518667Y-19065000D01*
X52100091Y-19148260D01*
X51625423Y-19465423D01*
X51308260Y-19940091D01*
X51196887Y-20500000D01*
X49251579Y-20500000D01*
X47545000Y-18793422D01*
X47545000Y-18194656D01*
X47730625Y-18070625D01*
X47943843Y-17751522D01*
X48004817Y-17881358D01*
X48433076Y-18271645D01*
X48843110Y-18441476D01*
X49073000Y-18320155D01*
X49073000Y-17127000D01*
X49327000Y-17127000D01*
X49327000Y-18320155D01*
X49556890Y-18441476D01*
X49966924Y-18271645D01*
X50395183Y-17881358D01*
X50641486Y-17356892D01*
X50520819Y-17127000D01*
X49327000Y-17127000D01*
X49073000Y-17127000D01*
X49053000Y-17127000D01*
X49053000Y-16873000D01*
X49073000Y-16873000D01*
X49073000Y-16853000D01*
X49327000Y-16853000D01*
X49327000Y-16873000D01*
X50520819Y-16873000D01*
X50641486Y-16643108D01*
X50395183Y-16118642D01*
X49966924Y-15728355D01*
X49922608Y-15710000D01*
X54540000Y-15710000D01*
X54540000Y-37488421D01*
G36*
X45730000Y-30273920D02*
X45513970Y-30165635D01*
X44179605Y-31500000D01*
X45513970Y-32834365D01*
X45730001Y-32726080D01*
X45730001Y-33374917D01*
X45730000Y-33374921D01*
X45730000Y-34910654D01*
X45209380Y-34390034D01*
X44424678Y-34065000D01*
X43575322Y-34065000D01*
X42790620Y-34390034D01*
X42385000Y-34795654D01*
X42385000Y-33013970D01*
X42665635Y-33013970D01*
X42825418Y-33332739D01*
X43616187Y-33642723D01*
X44465387Y-33626497D01*
X45174582Y-33332739D01*
X45334365Y-33013970D01*
X44000000Y-31679605D01*
X42665635Y-33013970D01*
X42385000Y-33013970D01*
X42385000Y-32783724D01*
X42486030Y-32834365D01*
X43820395Y-31500000D01*
X42486030Y-30165635D01*
X42385000Y-30216276D01*
X42385000Y-29986030D01*
X42665635Y-29986030D01*
X44000000Y-31320395D01*
X45334365Y-29986030D01*
X45174582Y-29667261D01*
X44383813Y-29357277D01*
X43534613Y-29373503D01*
X42825418Y-29667261D01*
X42665635Y-29986030D01*
X42385000Y-29986030D01*
X42385000Y-28204346D01*
X42790620Y-28609966D01*
X43575322Y-28935000D01*
X44424678Y-28935000D01*
X45209380Y-28609966D01*
X45730000Y-28089346D01*
X45730000Y-30273920D01*
X45730000Y-30273920D01*
G37*
X45730000Y-30273920D02*
X45513970Y-30165635D01*
X44179605Y-31500000D01*
X45513970Y-32834365D01*
X45730001Y-32726080D01*
X45730001Y-33374917D01*
X45730000Y-33374921D01*
X45730000Y-34910654D01*
X45209380Y-34390034D01*
X44424678Y-34065000D01*
X43575322Y-34065000D01*
X42790620Y-34390034D01*
X42385000Y-34795654D01*
X42385000Y-33013970D01*
X42665635Y-33013970D01*
X42825418Y-33332739D01*
X43616187Y-33642723D01*
X44465387Y-33626497D01*
X45174582Y-33332739D01*
X45334365Y-33013970D01*
X44000000Y-31679605D01*
X42665635Y-33013970D01*
X42385000Y-33013970D01*
X42385000Y-32783724D01*
X42486030Y-32834365D01*
X43820395Y-31500000D01*
X42486030Y-30165635D01*
X42385000Y-30216276D01*
X42385000Y-29986030D01*
X42665635Y-29986030D01*
X44000000Y-31320395D01*
X45334365Y-29986030D01*
X45174582Y-29667261D01*
X44383813Y-29357277D01*
X43534613Y-29373503D01*
X42825418Y-29667261D01*
X42665635Y-29986030D01*
X42385000Y-29986030D01*
X42385000Y-28204346D01*
X42790620Y-28609966D01*
X43575322Y-28935000D01*
X44424678Y-28935000D01*
X45209380Y-28609966D01*
X45730000Y-28089346D01*
X45730000Y-30273920D01*
M02*
