M48
;DRILL file {KiCad (5.0.1)-3} date 27/04/2019 14:05:47
;FORMAT={-:-/ absolute / inch / decimal}
FMAT,2
INCH,TZ
T1C0.0157
T2C0.0295
T3C0.0315
T4C0.0354
T5C0.0394
T6C0.0591
T7C0.0630
T8C0.0709
T9C0.0787
T10C0.1024
%
G90
G05
M72
T1
X0.8465Y-3.5039
X0.9449Y-1.7717
X0.9449Y-2.8543
X0.9862Y-2.6752
X1.1024Y-3.7598
X1.1417Y-3.4441
X1.2205Y-2.4606
X1.2427Y-1.6535
X1.3189Y-3.4927
X1.3583Y-1.8307
X1.3583Y-2.185
X1.4173Y-1.8701
X1.4236Y-3.0512
X1.4567Y-1.8307
X1.4764Y-2.7953
X1.4961Y-2.2638
X1.5157Y-2.5
X1.5354Y-1.2402
X1.5354Y-1.2992
X1.5354Y-1.6142
X1.5551Y-1.6929
X1.5717Y-3.7008
X1.5945Y-1.3386
X1.6142Y-1.5551
X1.6142Y-2.2638
X1.6339Y-1.3976
X1.6732Y-1.6142
X1.6732Y-1.689
X1.6732Y-2.6772
X1.737Y-0.7858
X1.8307Y-0.9055
X1.8307Y-1.811
X1.8504Y-1.1614
X1.8504Y-1.5551
X1.8548Y-1.7704
X1.8661Y-2.2244
X1.8701Y-2.7756
X1.8898Y-3.2087
X1.9902Y-1.063
X1.9902Y-1.9291
X1.9902Y-2.0472
X2.0079Y-2.6378
X2.1457Y-3.2283
T2
X1.0614Y-3.5827
X1.1114Y-3.6327
X1.1614Y-3.5827
X1.5339Y-3.563
X1.5839Y-3.613
X1.6339Y-3.563
X2.0063Y-3.5827
X2.0563Y-3.6327
X2.1063Y-3.5827
T3
X1.6866Y-2.7559
X2.0866Y-2.7559
X0.8071Y-3.0118
X0.8071Y-3.4118
X1.6732Y-0.8071
X2.0732Y-0.8071
X0.8858Y-1.1811
X1.2858Y-1.1811
X0.7087Y-1.3323
X0.7087Y-1.7323
X1.5748Y-2.874
X1.9748Y-2.874
X1.6732Y-2.5
X2.0732Y-2.5
X0.9252Y-2.9528
X1.3252Y-2.9528
X0.8858Y-1.3189
X1.2858Y-1.3189
T4
X0.689Y-2.6772
X0.789Y-2.6772
X1.4961Y-2.6181
X1.4961Y-2.7181
X1.7898Y-3.622
X1.8898Y-3.622
X0.689Y-1.9291
X0.789Y-1.9291
X1.3173Y-3.622
X1.4173Y-3.622
X0.689Y-1.1811
X0.789Y-1.1811
X0.8449Y-3.622
X0.9449Y-3.622
X0.689Y-2.8543
X0.789Y-2.8543
T5
X0.8465Y-2.2638
X0.8465Y-2.3622
X0.8465Y-2.4606
X1.4173Y-2.2638
X1.4173Y-2.4606
X0.6693Y-3.4843
X0.6693Y-3.5843
X0.6693Y-3.6843
X0.6693Y-3.7843
X0.6693Y-3.8843
X0.6693Y-3.9843
X0.6693Y-4.0843
X0.6693Y-4.1843
X0.6693Y-4.2843
X1.437Y-0.6693
X1.537Y-0.6693
X1.637Y-0.6693
X1.737Y-0.6693
X1.837Y-0.6693
X1.937Y-0.6693
X2.0669Y-3.1299
X2.0669Y-3.2283
X2.0669Y-3.3268
X1.437Y-1.5157
X1.437Y-1.6142
X1.437Y-1.7126
X1.437Y-0.7677
X1.437Y-0.8661
X1.437Y-0.9646
X2.0669Y-0.9449
X2.0669Y-1.0449
X2.0669Y-1.1449
X2.0669Y-1.2449
X2.0669Y-1.3449
X2.0669Y-1.4449
X2.0669Y-1.5449
X2.0669Y-1.6449
X2.0669Y-1.7449
X2.0669Y-1.8449
X2.0669Y-1.9449
X2.0669Y-2.0449
X2.0669Y-2.1449
X2.0669Y-2.2449
X2.0669Y-2.3449
T7
X1.6567Y-4.4685
X1.9835Y-4.4685
X2.1055Y-4.4685
X0.6504Y-4.4685
X0.7724Y-4.4685
X1.0992Y-4.4685
X0.9055Y-3.763
X0.9055Y-4.0898
X0.9055Y-4.2118
X1.1228Y-3.9567
X1.2449Y-3.9567
X1.5717Y-3.9567
X1.378Y-4.2134
X1.378Y-4.3354
X1.378Y-4.6622
X1.8504Y-3.7827
X1.8504Y-4.1094
X1.8504Y-4.2315
T8
X1.7717Y-3.0394
X1.7717Y-3.4173
X1.1417Y-1.4252
X1.1417Y-1.8031
X1.1417Y-0.6772
X1.1417Y-1.0551
T9
X1.7323Y-1.0551
X1.7323Y-1.2402
X1.7323Y-1.4252
X1.7323Y-1.8031
X1.7323Y-1.9882
X1.7323Y-2.1732
T10
X1.1417Y-2.1417
X1.1417Y-2.5827
T6
X1.0728Y-3.2087G85X1.0728Y-3.248
G05
X1.2106Y-3.2087G85X1.2106Y-3.248
G05
T0
M30
