%TF.GenerationSoftware,KiCad,Pcbnew,(5.0.1)-3*%
%TF.CreationDate,2019-04-27T14:05:43+01:00*%
%TF.ProjectId,Fractional clock divider top board,4672616374696F6E616C20636C6F636B,rev?*%
%TF.SameCoordinates,Original*%
%TF.FileFunction,Soldermask,Top*%
%TF.FilePolarity,Negative*%
%FSLAX46Y46*%
G04 Gerber Fmt 4.6, Leading zero omitted, Abs format (unit mm)*
G04 Created by KiCad (PCBNEW (5.0.1)-3) date 27/04/2019 14:05:43*
%MOMM*%
%LPD*%
G01*
G04 APERTURE LIST*
%ADD10C,0.150000*%
%ADD11C,0.100000*%
G04 APERTURE END LIST*
D10*
X55250000Y-15000000D02*
X55250000Y-120000000D01*
X15000000Y-15000000D02*
X55250000Y-15000000D01*
X15000000Y-120000000D02*
X55250000Y-120000000D01*
X15000000Y-15000000D02*
X15000000Y-120000000D01*
D11*
G36*
X35379485Y-117168996D02*
X35379487Y-117168997D01*
X35379488Y-117168997D01*
X35616255Y-117267069D01*
X35829342Y-117409449D01*
X36010551Y-117590658D01*
X36152931Y-117803745D01*
X36251004Y-118040515D01*
X36301000Y-118291861D01*
X36301000Y-118548139D01*
X36251004Y-118799485D01*
X36152931Y-119036255D01*
X36010551Y-119249342D01*
X35829342Y-119430551D01*
X35829339Y-119430553D01*
X35616255Y-119572931D01*
X35379488Y-119671003D01*
X35379487Y-119671003D01*
X35379485Y-119671004D01*
X35128139Y-119721000D01*
X34871861Y-119721000D01*
X34620515Y-119671004D01*
X34620513Y-119671003D01*
X34620512Y-119671003D01*
X34383745Y-119572931D01*
X34170661Y-119430553D01*
X34170658Y-119430551D01*
X33989449Y-119249342D01*
X33847069Y-119036255D01*
X33748996Y-118799485D01*
X33699000Y-118548139D01*
X33699000Y-118291861D01*
X33748996Y-118040515D01*
X33847069Y-117803745D01*
X33989449Y-117590658D01*
X34170658Y-117409449D01*
X34383745Y-117267069D01*
X34620512Y-117168997D01*
X34620513Y-117168997D01*
X34620515Y-117168996D01*
X34871861Y-117119000D01*
X35128139Y-117119000D01*
X35379485Y-117168996D01*
X35379485Y-117168996D01*
G37*
G36*
X53859485Y-112248996D02*
X53859487Y-112248997D01*
X53859488Y-112248997D01*
X54096255Y-112347069D01*
X54309342Y-112489449D01*
X54490551Y-112670658D01*
X54632931Y-112883745D01*
X54731004Y-113120515D01*
X54781000Y-113371861D01*
X54781000Y-113628139D01*
X54731004Y-113879485D01*
X54632931Y-114116255D01*
X54490551Y-114329342D01*
X54309342Y-114510551D01*
X54309339Y-114510553D01*
X54096255Y-114652931D01*
X53859488Y-114751003D01*
X53859487Y-114751003D01*
X53859485Y-114751004D01*
X53608139Y-114801000D01*
X53351861Y-114801000D01*
X53100515Y-114751004D01*
X53100513Y-114751003D01*
X53100512Y-114751003D01*
X52863745Y-114652931D01*
X52650661Y-114510553D01*
X52650658Y-114510551D01*
X52469449Y-114329342D01*
X52327069Y-114116255D01*
X52228996Y-113879485D01*
X52179000Y-113628139D01*
X52179000Y-113371861D01*
X52228996Y-113120515D01*
X52327069Y-112883745D01*
X52469449Y-112670658D01*
X52650658Y-112489449D01*
X52863745Y-112347069D01*
X53100512Y-112248997D01*
X53100513Y-112248997D01*
X53100515Y-112248996D01*
X53351861Y-112199000D01*
X53608139Y-112199000D01*
X53859485Y-112248996D01*
X53859485Y-112248996D01*
G37*
G36*
X50759485Y-112248996D02*
X50759487Y-112248997D01*
X50759488Y-112248997D01*
X50996255Y-112347069D01*
X51209342Y-112489449D01*
X51390551Y-112670658D01*
X51532931Y-112883745D01*
X51631004Y-113120515D01*
X51681000Y-113371861D01*
X51681000Y-113628139D01*
X51631004Y-113879485D01*
X51532931Y-114116255D01*
X51390551Y-114329342D01*
X51209342Y-114510551D01*
X51209339Y-114510553D01*
X50996255Y-114652931D01*
X50759488Y-114751003D01*
X50759487Y-114751003D01*
X50759485Y-114751004D01*
X50508139Y-114801000D01*
X50251861Y-114801000D01*
X50000515Y-114751004D01*
X50000513Y-114751003D01*
X50000512Y-114751003D01*
X49763745Y-114652931D01*
X49550661Y-114510553D01*
X49550658Y-114510551D01*
X49369449Y-114329342D01*
X49227069Y-114116255D01*
X49128996Y-113879485D01*
X49079000Y-113628139D01*
X49079000Y-113371861D01*
X49128996Y-113120515D01*
X49227069Y-112883745D01*
X49369449Y-112670658D01*
X49550658Y-112489449D01*
X49763745Y-112347069D01*
X50000512Y-112248997D01*
X50000513Y-112248997D01*
X50000515Y-112248996D01*
X50251861Y-112199000D01*
X50508139Y-112199000D01*
X50759485Y-112248996D01*
X50759485Y-112248996D01*
G37*
G36*
X42459485Y-112248996D02*
X42459487Y-112248997D01*
X42459488Y-112248997D01*
X42696255Y-112347069D01*
X42909342Y-112489449D01*
X43090551Y-112670658D01*
X43232931Y-112883745D01*
X43331004Y-113120515D01*
X43381000Y-113371861D01*
X43381000Y-113628139D01*
X43331004Y-113879485D01*
X43232931Y-114116255D01*
X43090551Y-114329342D01*
X42909342Y-114510551D01*
X42909339Y-114510553D01*
X42696255Y-114652931D01*
X42459488Y-114751003D01*
X42459487Y-114751003D01*
X42459485Y-114751004D01*
X42208139Y-114801000D01*
X41951861Y-114801000D01*
X41700515Y-114751004D01*
X41700513Y-114751003D01*
X41700512Y-114751003D01*
X41463745Y-114652931D01*
X41250661Y-114510553D01*
X41250658Y-114510551D01*
X41069449Y-114329342D01*
X40927069Y-114116255D01*
X40828996Y-113879485D01*
X40779000Y-113628139D01*
X40779000Y-113371861D01*
X40828996Y-113120515D01*
X40927069Y-112883745D01*
X41069449Y-112670658D01*
X41250658Y-112489449D01*
X41463745Y-112347069D01*
X41700512Y-112248997D01*
X41700513Y-112248997D01*
X41700515Y-112248996D01*
X41951861Y-112199000D01*
X42208139Y-112199000D01*
X42459485Y-112248996D01*
X42459485Y-112248996D01*
G37*
G36*
X16899485Y-112248996D02*
X16899487Y-112248997D01*
X16899488Y-112248997D01*
X17136255Y-112347069D01*
X17349342Y-112489449D01*
X17530551Y-112670658D01*
X17672931Y-112883745D01*
X17771004Y-113120515D01*
X17821000Y-113371861D01*
X17821000Y-113628139D01*
X17771004Y-113879485D01*
X17672931Y-114116255D01*
X17530551Y-114329342D01*
X17349342Y-114510551D01*
X17349339Y-114510553D01*
X17136255Y-114652931D01*
X16899488Y-114751003D01*
X16899487Y-114751003D01*
X16899485Y-114751004D01*
X16648139Y-114801000D01*
X16391861Y-114801000D01*
X16140515Y-114751004D01*
X16140513Y-114751003D01*
X16140512Y-114751003D01*
X15903745Y-114652931D01*
X15690661Y-114510553D01*
X15690658Y-114510551D01*
X15509449Y-114329342D01*
X15367069Y-114116255D01*
X15268996Y-113879485D01*
X15219000Y-113628139D01*
X15219000Y-113371861D01*
X15268996Y-113120515D01*
X15367069Y-112883745D01*
X15509449Y-112670658D01*
X15690658Y-112489449D01*
X15903745Y-112347069D01*
X16140512Y-112248997D01*
X16140513Y-112248997D01*
X16140515Y-112248996D01*
X16391861Y-112199000D01*
X16648139Y-112199000D01*
X16899485Y-112248996D01*
X16899485Y-112248996D01*
G37*
G36*
X28299485Y-112248996D02*
X28299487Y-112248997D01*
X28299488Y-112248997D01*
X28536255Y-112347069D01*
X28749342Y-112489449D01*
X28930551Y-112670658D01*
X29072931Y-112883745D01*
X29171004Y-113120515D01*
X29221000Y-113371861D01*
X29221000Y-113628139D01*
X29171004Y-113879485D01*
X29072931Y-114116255D01*
X28930551Y-114329342D01*
X28749342Y-114510551D01*
X28749339Y-114510553D01*
X28536255Y-114652931D01*
X28299488Y-114751003D01*
X28299487Y-114751003D01*
X28299485Y-114751004D01*
X28048139Y-114801000D01*
X27791861Y-114801000D01*
X27540515Y-114751004D01*
X27540513Y-114751003D01*
X27540512Y-114751003D01*
X27303745Y-114652931D01*
X27090661Y-114510553D01*
X27090658Y-114510551D01*
X26909449Y-114329342D01*
X26767069Y-114116255D01*
X26668996Y-113879485D01*
X26619000Y-113628139D01*
X26619000Y-113371861D01*
X26668996Y-113120515D01*
X26767069Y-112883745D01*
X26909449Y-112670658D01*
X27090658Y-112489449D01*
X27303745Y-112347069D01*
X27540512Y-112248997D01*
X27540513Y-112248997D01*
X27540515Y-112248996D01*
X27791861Y-112199000D01*
X28048139Y-112199000D01*
X28299485Y-112248996D01*
X28299485Y-112248996D01*
G37*
G36*
X19999485Y-112248996D02*
X19999487Y-112248997D01*
X19999488Y-112248997D01*
X20236255Y-112347069D01*
X20449342Y-112489449D01*
X20630551Y-112670658D01*
X20772931Y-112883745D01*
X20871004Y-113120515D01*
X20921000Y-113371861D01*
X20921000Y-113628139D01*
X20871004Y-113879485D01*
X20772931Y-114116255D01*
X20630551Y-114329342D01*
X20449342Y-114510551D01*
X20449339Y-114510553D01*
X20236255Y-114652931D01*
X19999488Y-114751003D01*
X19999487Y-114751003D01*
X19999485Y-114751004D01*
X19748139Y-114801000D01*
X19491861Y-114801000D01*
X19240515Y-114751004D01*
X19240513Y-114751003D01*
X19240512Y-114751003D01*
X19003745Y-114652931D01*
X18790661Y-114510553D01*
X18790658Y-114510551D01*
X18609449Y-114329342D01*
X18467069Y-114116255D01*
X18368996Y-113879485D01*
X18319000Y-113628139D01*
X18319000Y-113371861D01*
X18368996Y-113120515D01*
X18467069Y-112883745D01*
X18609449Y-112670658D01*
X18790658Y-112489449D01*
X19003745Y-112347069D01*
X19240512Y-112248997D01*
X19240513Y-112248997D01*
X19240515Y-112248996D01*
X19491861Y-112199000D01*
X19748139Y-112199000D01*
X19999485Y-112248996D01*
X19999485Y-112248996D01*
G37*
G36*
X35379485Y-108868996D02*
X35379487Y-108868997D01*
X35379488Y-108868997D01*
X35616255Y-108967069D01*
X35829342Y-109109449D01*
X36010551Y-109290658D01*
X36010553Y-109290661D01*
X36152931Y-109503745D01*
X36216181Y-109656443D01*
X36251004Y-109740515D01*
X36301000Y-109991861D01*
X36301000Y-110248139D01*
X36251004Y-110499485D01*
X36152931Y-110736255D01*
X36010551Y-110949342D01*
X35829342Y-111130551D01*
X35829339Y-111130553D01*
X35616255Y-111272931D01*
X35379488Y-111371003D01*
X35379487Y-111371003D01*
X35379485Y-111371004D01*
X35128139Y-111421000D01*
X34871861Y-111421000D01*
X34620515Y-111371004D01*
X34620513Y-111371003D01*
X34620512Y-111371003D01*
X34383745Y-111272931D01*
X34170661Y-111130553D01*
X34170658Y-111130551D01*
X33989449Y-110949342D01*
X33847069Y-110736255D01*
X33748996Y-110499485D01*
X33699000Y-110248139D01*
X33699000Y-109991861D01*
X33748996Y-109740515D01*
X33783820Y-109656443D01*
X33847069Y-109503745D01*
X33989447Y-109290661D01*
X33989449Y-109290658D01*
X34170658Y-109109449D01*
X34383745Y-108967069D01*
X34620512Y-108868997D01*
X34620513Y-108868997D01*
X34620515Y-108868996D01*
X34871861Y-108819000D01*
X35128139Y-108819000D01*
X35379485Y-108868996D01*
X35379485Y-108868996D01*
G37*
G36*
X17110443Y-107925519D02*
X17176627Y-107932037D01*
X17289853Y-107966384D01*
X17346467Y-107983557D01*
X17434385Y-108030551D01*
X17502991Y-108067222D01*
X17538368Y-108096255D01*
X17640186Y-108179814D01*
X17723226Y-108281000D01*
X17752778Y-108317009D01*
X17752779Y-108317011D01*
X17836443Y-108473533D01*
X17836443Y-108473534D01*
X17887963Y-108643373D01*
X17905359Y-108820000D01*
X17887963Y-108996627D01*
X17853739Y-109109447D01*
X17836443Y-109166467D01*
X17770059Y-109290661D01*
X17752778Y-109322991D01*
X17723448Y-109358729D01*
X17640186Y-109460186D01*
X17538729Y-109543448D01*
X17502991Y-109572778D01*
X17502989Y-109572779D01*
X17346467Y-109656443D01*
X17289853Y-109673616D01*
X17176627Y-109707963D01*
X17110443Y-109714481D01*
X17044260Y-109721000D01*
X16955740Y-109721000D01*
X16889557Y-109714481D01*
X16823373Y-109707963D01*
X16710147Y-109673616D01*
X16653533Y-109656443D01*
X16497011Y-109572779D01*
X16497009Y-109572778D01*
X16461271Y-109543448D01*
X16359814Y-109460186D01*
X16276552Y-109358729D01*
X16247222Y-109322991D01*
X16229941Y-109290661D01*
X16163557Y-109166467D01*
X16146261Y-109109447D01*
X16112037Y-108996627D01*
X16094641Y-108820000D01*
X16112037Y-108643373D01*
X16163557Y-108473534D01*
X16163557Y-108473533D01*
X16247221Y-108317011D01*
X16247222Y-108317009D01*
X16276774Y-108281000D01*
X16359814Y-108179814D01*
X16461632Y-108096255D01*
X16497009Y-108067222D01*
X16565615Y-108030551D01*
X16653533Y-107983557D01*
X16710147Y-107966384D01*
X16823373Y-107932037D01*
X16889557Y-107925519D01*
X16955740Y-107919000D01*
X17044260Y-107919000D01*
X17110443Y-107925519D01*
X17110443Y-107925519D01*
G37*
G36*
X47379485Y-106228996D02*
X47379487Y-106228997D01*
X47379488Y-106228997D01*
X47502620Y-106280000D01*
X47616255Y-106327069D01*
X47829342Y-106469449D01*
X48010551Y-106650658D01*
X48152931Y-106863745D01*
X48251004Y-107100515D01*
X48301000Y-107351861D01*
X48301000Y-107608139D01*
X48251004Y-107859485D01*
X48152931Y-108096255D01*
X48010551Y-108309342D01*
X47829342Y-108490551D01*
X47829339Y-108490553D01*
X47616255Y-108632931D01*
X47379488Y-108731003D01*
X47379487Y-108731003D01*
X47379485Y-108731004D01*
X47128139Y-108781000D01*
X46871861Y-108781000D01*
X46620515Y-108731004D01*
X46620513Y-108731003D01*
X46620512Y-108731003D01*
X46383745Y-108632931D01*
X46170661Y-108490553D01*
X46170658Y-108490551D01*
X45989449Y-108309342D01*
X45847069Y-108096255D01*
X45748996Y-107859485D01*
X45699000Y-107608139D01*
X45699000Y-107351861D01*
X45748996Y-107100515D01*
X45847069Y-106863745D01*
X45989449Y-106650658D01*
X46170658Y-106469449D01*
X46383745Y-106327069D01*
X46497380Y-106280000D01*
X46620512Y-106228997D01*
X46620513Y-106228997D01*
X46620515Y-106228996D01*
X46871861Y-106179000D01*
X47128139Y-106179000D01*
X47379485Y-106228996D01*
X47379485Y-106228996D01*
G37*
G36*
X35379485Y-105768996D02*
X35379487Y-105768997D01*
X35379488Y-105768997D01*
X35519686Y-105827069D01*
X35616255Y-105867069D01*
X35829342Y-106009449D01*
X36010551Y-106190658D01*
X36152931Y-106403745D01*
X36251004Y-106640515D01*
X36301000Y-106891861D01*
X36301000Y-107148139D01*
X36258961Y-107359485D01*
X36251003Y-107399488D01*
X36164578Y-107608137D01*
X36152931Y-107636255D01*
X36010551Y-107849342D01*
X35829342Y-108030551D01*
X35829339Y-108030553D01*
X35616255Y-108172931D01*
X35379488Y-108271003D01*
X35379487Y-108271003D01*
X35379485Y-108271004D01*
X35128139Y-108321000D01*
X34871861Y-108321000D01*
X34620515Y-108271004D01*
X34620513Y-108271003D01*
X34620512Y-108271003D01*
X34383745Y-108172931D01*
X34170661Y-108030553D01*
X34170658Y-108030551D01*
X33989449Y-107849342D01*
X33847069Y-107636255D01*
X33835422Y-107608137D01*
X33748997Y-107399488D01*
X33741040Y-107359485D01*
X33699000Y-107148139D01*
X33699000Y-106891861D01*
X33748996Y-106640515D01*
X33847069Y-106403745D01*
X33989449Y-106190658D01*
X34170658Y-106009449D01*
X34383745Y-105867069D01*
X34480314Y-105827069D01*
X34620512Y-105768997D01*
X34620513Y-105768997D01*
X34620515Y-105768996D01*
X34871861Y-105719000D01*
X35128139Y-105719000D01*
X35379485Y-105768996D01*
X35379485Y-105768996D01*
G37*
G36*
X23379485Y-105728996D02*
X23379487Y-105728997D01*
X23379488Y-105728997D01*
X23495399Y-105777009D01*
X23616255Y-105827069D01*
X23829342Y-105969449D01*
X24010551Y-106150658D01*
X24010553Y-106150661D01*
X24152931Y-106363745D01*
X24169500Y-106403745D01*
X24251004Y-106600515D01*
X24301000Y-106851861D01*
X24301000Y-107108139D01*
X24251004Y-107359485D01*
X24152931Y-107596255D01*
X24010551Y-107809342D01*
X23829342Y-107990551D01*
X23829339Y-107990553D01*
X23616255Y-108132931D01*
X23379488Y-108231003D01*
X23379487Y-108231003D01*
X23379485Y-108231004D01*
X23128139Y-108281000D01*
X22871861Y-108281000D01*
X22620515Y-108231004D01*
X22620513Y-108231003D01*
X22620512Y-108231003D01*
X22383745Y-108132931D01*
X22170661Y-107990553D01*
X22170658Y-107990551D01*
X21989449Y-107809342D01*
X21847069Y-107596255D01*
X21748996Y-107359485D01*
X21699000Y-107108139D01*
X21699000Y-106851861D01*
X21748996Y-106600515D01*
X21830501Y-106403745D01*
X21847069Y-106363745D01*
X21989447Y-106150661D01*
X21989449Y-106150658D01*
X22170658Y-105969449D01*
X22383745Y-105827069D01*
X22504601Y-105777009D01*
X22620512Y-105728997D01*
X22620513Y-105728997D01*
X22620515Y-105728996D01*
X22871861Y-105679000D01*
X23128139Y-105679000D01*
X23379485Y-105728996D01*
X23379485Y-105728996D01*
G37*
G36*
X17110443Y-105385519D02*
X17176627Y-105392037D01*
X17289853Y-105426384D01*
X17346467Y-105443557D01*
X17485087Y-105517652D01*
X17502991Y-105527222D01*
X17509947Y-105532931D01*
X17640186Y-105639814D01*
X17723448Y-105741271D01*
X17752778Y-105777009D01*
X17752779Y-105777011D01*
X17836443Y-105933533D01*
X17836443Y-105933534D01*
X17887963Y-106103373D01*
X17905359Y-106280000D01*
X17887963Y-106456627D01*
X17884074Y-106469447D01*
X17836443Y-106626467D01*
X17762348Y-106765087D01*
X17752778Y-106782991D01*
X17723448Y-106818729D01*
X17640186Y-106920186D01*
X17538729Y-107003448D01*
X17502991Y-107032778D01*
X17502989Y-107032779D01*
X17346467Y-107116443D01*
X17289853Y-107133616D01*
X17176627Y-107167963D01*
X17110442Y-107174482D01*
X17044260Y-107181000D01*
X16955740Y-107181000D01*
X16889558Y-107174482D01*
X16823373Y-107167963D01*
X16710147Y-107133616D01*
X16653533Y-107116443D01*
X16497011Y-107032779D01*
X16497009Y-107032778D01*
X16461271Y-107003448D01*
X16359814Y-106920186D01*
X16276552Y-106818729D01*
X16247222Y-106782991D01*
X16237652Y-106765087D01*
X16163557Y-106626467D01*
X16115926Y-106469447D01*
X16112037Y-106456627D01*
X16094641Y-106280000D01*
X16112037Y-106103373D01*
X16163557Y-105933534D01*
X16163557Y-105933533D01*
X16247221Y-105777011D01*
X16247222Y-105777009D01*
X16276552Y-105741271D01*
X16359814Y-105639814D01*
X16490053Y-105532931D01*
X16497009Y-105527222D01*
X16514913Y-105517652D01*
X16653533Y-105443557D01*
X16710147Y-105426384D01*
X16823373Y-105392037D01*
X16889557Y-105385519D01*
X16955740Y-105379000D01*
X17044260Y-105379000D01*
X17110443Y-105385519D01*
X17110443Y-105385519D01*
G37*
G36*
X47379485Y-103128996D02*
X47379487Y-103128997D01*
X47379488Y-103128997D01*
X47616255Y-103227069D01*
X47829342Y-103369449D01*
X48010551Y-103550658D01*
X48152931Y-103763745D01*
X48251004Y-104000515D01*
X48301000Y-104251861D01*
X48301000Y-104508139D01*
X48251004Y-104759485D01*
X48152931Y-104996255D01*
X48010551Y-105209342D01*
X47829342Y-105390551D01*
X47829339Y-105390553D01*
X47616255Y-105532931D01*
X47379488Y-105631003D01*
X47379487Y-105631003D01*
X47379485Y-105631004D01*
X47128139Y-105681000D01*
X46871861Y-105681000D01*
X46620515Y-105631004D01*
X46620513Y-105631003D01*
X46620512Y-105631003D01*
X46383745Y-105532931D01*
X46170661Y-105390553D01*
X46170658Y-105390551D01*
X45989449Y-105209342D01*
X45847069Y-104996255D01*
X45748996Y-104759485D01*
X45699000Y-104508139D01*
X45699000Y-104251861D01*
X45748996Y-104000515D01*
X45847069Y-103763745D01*
X45989449Y-103550658D01*
X46170658Y-103369449D01*
X46383745Y-103227069D01*
X46620512Y-103128997D01*
X46620513Y-103128997D01*
X46620515Y-103128996D01*
X46871861Y-103079000D01*
X47128139Y-103079000D01*
X47379485Y-103128996D01*
X47379485Y-103128996D01*
G37*
G36*
X23379485Y-102628996D02*
X23379487Y-102628997D01*
X23379488Y-102628997D01*
X23616255Y-102727069D01*
X23829342Y-102869449D01*
X24010551Y-103050658D01*
X24152931Y-103263745D01*
X24251004Y-103500515D01*
X24301000Y-103751861D01*
X24301000Y-104008139D01*
X24251004Y-104259485D01*
X24152931Y-104496255D01*
X24010551Y-104709342D01*
X23829342Y-104890551D01*
X23829339Y-104890553D01*
X23616255Y-105032931D01*
X23379488Y-105131003D01*
X23379487Y-105131003D01*
X23379485Y-105131004D01*
X23128139Y-105181000D01*
X22871861Y-105181000D01*
X22620515Y-105131004D01*
X22620513Y-105131003D01*
X22620512Y-105131003D01*
X22383745Y-105032931D01*
X22170661Y-104890553D01*
X22170658Y-104890551D01*
X21989449Y-104709342D01*
X21847069Y-104496255D01*
X21748996Y-104259485D01*
X21699000Y-104008139D01*
X21699000Y-103751861D01*
X21748996Y-103500515D01*
X21847069Y-103263745D01*
X21989449Y-103050658D01*
X22170658Y-102869449D01*
X22383745Y-102727069D01*
X22620512Y-102628997D01*
X22620513Y-102628997D01*
X22620515Y-102628996D01*
X22871861Y-102579000D01*
X23128139Y-102579000D01*
X23379485Y-102628996D01*
X23379485Y-102628996D01*
G37*
G36*
X17110443Y-102845519D02*
X17176627Y-102852037D01*
X17289853Y-102886384D01*
X17346467Y-102903557D01*
X17485087Y-102977652D01*
X17502991Y-102987222D01*
X17538729Y-103016552D01*
X17640186Y-103099814D01*
X17723448Y-103201271D01*
X17752778Y-103237009D01*
X17752779Y-103237011D01*
X17836443Y-103393533D01*
X17836443Y-103393534D01*
X17887963Y-103563373D01*
X17905359Y-103740000D01*
X17887963Y-103916627D01*
X17862517Y-104000512D01*
X17836443Y-104086467D01*
X17762348Y-104225087D01*
X17752778Y-104242991D01*
X17739239Y-104259488D01*
X17640186Y-104380186D01*
X17538729Y-104463448D01*
X17502991Y-104492778D01*
X17502989Y-104492779D01*
X17346467Y-104576443D01*
X17289853Y-104593616D01*
X17176627Y-104627963D01*
X17110443Y-104634481D01*
X17044260Y-104641000D01*
X16955740Y-104641000D01*
X16889557Y-104634481D01*
X16823373Y-104627963D01*
X16710147Y-104593616D01*
X16653533Y-104576443D01*
X16497011Y-104492779D01*
X16497009Y-104492778D01*
X16461271Y-104463448D01*
X16359814Y-104380186D01*
X16260761Y-104259488D01*
X16247222Y-104242991D01*
X16237652Y-104225087D01*
X16163557Y-104086467D01*
X16137483Y-104000512D01*
X16112037Y-103916627D01*
X16094641Y-103740000D01*
X16112037Y-103563373D01*
X16163557Y-103393534D01*
X16163557Y-103393533D01*
X16247221Y-103237011D01*
X16247222Y-103237009D01*
X16276552Y-103201271D01*
X16359814Y-103099814D01*
X16461271Y-103016552D01*
X16497009Y-102987222D01*
X16514913Y-102977652D01*
X16653533Y-102903557D01*
X16710147Y-102886384D01*
X16823373Y-102852037D01*
X16889557Y-102845519D01*
X16955740Y-102839000D01*
X17044260Y-102839000D01*
X17110443Y-102845519D01*
X17110443Y-102845519D01*
G37*
G36*
X17110442Y-100305518D02*
X17176627Y-100312037D01*
X17289853Y-100346384D01*
X17346467Y-100363557D01*
X17485087Y-100437652D01*
X17502991Y-100447222D01*
X17538729Y-100476552D01*
X17640186Y-100559814D01*
X17723448Y-100661271D01*
X17752778Y-100697009D01*
X17752779Y-100697011D01*
X17836443Y-100853533D01*
X17836443Y-100853534D01*
X17887963Y-101023373D01*
X17905359Y-101200000D01*
X17887963Y-101376627D01*
X17853616Y-101489853D01*
X17836443Y-101546467D01*
X17779536Y-101652931D01*
X17752778Y-101702991D01*
X17723448Y-101738729D01*
X17640186Y-101840186D01*
X17538729Y-101923448D01*
X17502991Y-101952778D01*
X17502989Y-101952779D01*
X17346467Y-102036443D01*
X17289853Y-102053616D01*
X17176627Y-102087963D01*
X17110442Y-102094482D01*
X17044260Y-102101000D01*
X16955740Y-102101000D01*
X16889558Y-102094482D01*
X16823373Y-102087963D01*
X16710147Y-102053616D01*
X16653533Y-102036443D01*
X16497011Y-101952779D01*
X16497009Y-101952778D01*
X16461271Y-101923448D01*
X16359814Y-101840186D01*
X16276552Y-101738729D01*
X16247222Y-101702991D01*
X16220464Y-101652931D01*
X16163557Y-101546467D01*
X16146384Y-101489853D01*
X16112037Y-101376627D01*
X16094641Y-101200000D01*
X16112037Y-101023373D01*
X16163557Y-100853534D01*
X16163557Y-100853533D01*
X16247221Y-100697011D01*
X16247222Y-100697009D01*
X16276552Y-100661271D01*
X16359814Y-100559814D01*
X16461271Y-100476552D01*
X16497009Y-100447222D01*
X16514913Y-100437652D01*
X16653533Y-100363557D01*
X16710147Y-100346384D01*
X16823373Y-100312037D01*
X16889558Y-100305518D01*
X16955740Y-100299000D01*
X17044260Y-100299000D01*
X17110442Y-100305518D01*
X17110442Y-100305518D01*
G37*
G36*
X40299485Y-99248996D02*
X40299487Y-99248997D01*
X40299488Y-99248997D01*
X40423067Y-99300185D01*
X40536255Y-99347069D01*
X40749342Y-99489449D01*
X40930551Y-99670658D01*
X41072931Y-99883745D01*
X41171004Y-100120515D01*
X41221000Y-100371861D01*
X41221000Y-100628139D01*
X41171004Y-100879485D01*
X41072931Y-101116255D01*
X40930551Y-101329342D01*
X40749342Y-101510551D01*
X40749339Y-101510553D01*
X40536255Y-101652931D01*
X40299488Y-101751003D01*
X40299487Y-101751003D01*
X40299485Y-101751004D01*
X40048139Y-101801000D01*
X39791861Y-101801000D01*
X39540515Y-101751004D01*
X39540513Y-101751003D01*
X39540512Y-101751003D01*
X39303745Y-101652931D01*
X39090661Y-101510553D01*
X39090658Y-101510551D01*
X38909449Y-101329342D01*
X38767069Y-101116255D01*
X38668996Y-100879485D01*
X38619000Y-100628139D01*
X38619000Y-100371861D01*
X38668996Y-100120515D01*
X38767069Y-99883745D01*
X38909449Y-99670658D01*
X39090658Y-99489449D01*
X39303745Y-99347069D01*
X39416933Y-99300185D01*
X39540512Y-99248997D01*
X39540513Y-99248997D01*
X39540515Y-99248996D01*
X39791861Y-99199000D01*
X40048139Y-99199000D01*
X40299485Y-99248996D01*
X40299485Y-99248996D01*
G37*
G36*
X31999485Y-99248996D02*
X31999487Y-99248997D01*
X31999488Y-99248997D01*
X32123067Y-99300185D01*
X32236255Y-99347069D01*
X32449342Y-99489449D01*
X32630551Y-99670658D01*
X32772931Y-99883745D01*
X32871004Y-100120515D01*
X32921000Y-100371861D01*
X32921000Y-100628139D01*
X32871004Y-100879485D01*
X32772931Y-101116255D01*
X32630551Y-101329342D01*
X32449342Y-101510551D01*
X32449339Y-101510553D01*
X32236255Y-101652931D01*
X31999488Y-101751003D01*
X31999487Y-101751003D01*
X31999485Y-101751004D01*
X31748139Y-101801000D01*
X31491861Y-101801000D01*
X31240515Y-101751004D01*
X31240513Y-101751003D01*
X31240512Y-101751003D01*
X31003745Y-101652931D01*
X30790661Y-101510553D01*
X30790658Y-101510551D01*
X30609449Y-101329342D01*
X30467069Y-101116255D01*
X30368996Y-100879485D01*
X30319000Y-100628139D01*
X30319000Y-100371861D01*
X30368996Y-100120515D01*
X30467069Y-99883745D01*
X30609449Y-99670658D01*
X30790658Y-99489449D01*
X31003745Y-99347069D01*
X31116933Y-99300185D01*
X31240512Y-99248997D01*
X31240513Y-99248997D01*
X31240515Y-99248996D01*
X31491861Y-99199000D01*
X31748139Y-99199000D01*
X31999485Y-99248996D01*
X31999485Y-99248996D01*
G37*
G36*
X28899485Y-99248996D02*
X28899487Y-99248997D01*
X28899488Y-99248997D01*
X29023067Y-99300185D01*
X29136255Y-99347069D01*
X29349342Y-99489449D01*
X29530551Y-99670658D01*
X29672931Y-99883745D01*
X29771004Y-100120515D01*
X29821000Y-100371861D01*
X29821000Y-100628139D01*
X29771004Y-100879485D01*
X29672931Y-101116255D01*
X29530551Y-101329342D01*
X29349342Y-101510551D01*
X29349339Y-101510553D01*
X29136255Y-101652931D01*
X28899488Y-101751003D01*
X28899487Y-101751003D01*
X28899485Y-101751004D01*
X28648139Y-101801000D01*
X28391861Y-101801000D01*
X28140515Y-101751004D01*
X28140513Y-101751003D01*
X28140512Y-101751003D01*
X27903745Y-101652931D01*
X27690661Y-101510553D01*
X27690658Y-101510551D01*
X27509449Y-101329342D01*
X27367069Y-101116255D01*
X27268996Y-100879485D01*
X27219000Y-100628139D01*
X27219000Y-100371861D01*
X27268996Y-100120515D01*
X27367069Y-99883745D01*
X27509449Y-99670658D01*
X27690658Y-99489449D01*
X27903745Y-99347069D01*
X28016933Y-99300185D01*
X28140512Y-99248997D01*
X28140513Y-99248997D01*
X28140515Y-99248996D01*
X28391861Y-99199000D01*
X28648139Y-99199000D01*
X28899485Y-99248996D01*
X28899485Y-99248996D01*
G37*
G36*
X17110442Y-97765518D02*
X17176627Y-97772037D01*
X17289853Y-97806384D01*
X17346467Y-97823557D01*
X17485087Y-97897652D01*
X17502991Y-97907222D01*
X17538729Y-97936552D01*
X17640186Y-98019814D01*
X17723448Y-98121271D01*
X17752778Y-98157009D01*
X17752779Y-98157011D01*
X17836443Y-98313533D01*
X17836443Y-98313534D01*
X17887963Y-98483373D01*
X17905359Y-98660000D01*
X17887963Y-98836627D01*
X17853616Y-98949853D01*
X17836443Y-99006467D01*
X17762348Y-99145087D01*
X17752778Y-99162991D01*
X17723448Y-99198729D01*
X17640186Y-99300186D01*
X17538729Y-99383448D01*
X17502991Y-99412778D01*
X17502989Y-99412779D01*
X17346467Y-99496443D01*
X17289853Y-99513616D01*
X17176627Y-99547963D01*
X17110443Y-99554481D01*
X17044260Y-99561000D01*
X16955740Y-99561000D01*
X16889557Y-99554481D01*
X16823373Y-99547963D01*
X16710147Y-99513616D01*
X16653533Y-99496443D01*
X16497011Y-99412779D01*
X16497009Y-99412778D01*
X16461271Y-99383448D01*
X16359814Y-99300186D01*
X16276552Y-99198729D01*
X16247222Y-99162991D01*
X16237652Y-99145087D01*
X16163557Y-99006467D01*
X16146384Y-98949853D01*
X16112037Y-98836627D01*
X16094641Y-98660000D01*
X16112037Y-98483373D01*
X16163557Y-98313534D01*
X16163557Y-98313533D01*
X16247221Y-98157011D01*
X16247222Y-98157009D01*
X16276552Y-98121271D01*
X16359814Y-98019814D01*
X16461271Y-97936552D01*
X16497009Y-97907222D01*
X16514913Y-97897652D01*
X16653533Y-97823557D01*
X16710147Y-97806384D01*
X16823373Y-97772037D01*
X16889558Y-97765518D01*
X16955740Y-97759000D01*
X17044260Y-97759000D01*
X17110442Y-97765518D01*
X17110442Y-97765518D01*
G37*
G36*
X47379485Y-94828996D02*
X47379487Y-94828997D01*
X47379488Y-94828997D01*
X47616255Y-94927069D01*
X47829342Y-95069449D01*
X48010551Y-95250658D01*
X48152931Y-95463745D01*
X48251004Y-95700515D01*
X48301000Y-95951861D01*
X48301000Y-96208139D01*
X48260979Y-96409339D01*
X48251003Y-96459488D01*
X48248112Y-96466467D01*
X48152931Y-96696255D01*
X48010551Y-96909342D01*
X47829342Y-97090551D01*
X47829339Y-97090553D01*
X47616255Y-97232931D01*
X47379488Y-97331003D01*
X47379487Y-97331003D01*
X47379485Y-97331004D01*
X47128139Y-97381000D01*
X46871861Y-97381000D01*
X46620515Y-97331004D01*
X46620513Y-97331003D01*
X46620512Y-97331003D01*
X46383745Y-97232931D01*
X46170661Y-97090553D01*
X46170658Y-97090551D01*
X45989449Y-96909342D01*
X45847069Y-96696255D01*
X45751888Y-96466467D01*
X45748997Y-96459488D01*
X45739022Y-96409339D01*
X45699000Y-96208139D01*
X45699000Y-95951861D01*
X45748996Y-95700515D01*
X45847069Y-95463745D01*
X45989449Y-95250658D01*
X46170658Y-95069449D01*
X46383745Y-94927069D01*
X46620512Y-94828997D01*
X46620513Y-94828997D01*
X46620515Y-94828996D01*
X46871861Y-94779000D01*
X47128139Y-94779000D01*
X47379485Y-94828996D01*
X47379485Y-94828996D01*
G37*
G36*
X17110443Y-95225519D02*
X17176627Y-95232037D01*
X17289853Y-95266384D01*
X17346467Y-95283557D01*
X17485087Y-95357652D01*
X17502991Y-95367222D01*
X17538729Y-95396552D01*
X17640186Y-95479814D01*
X17723448Y-95581271D01*
X17752778Y-95617009D01*
X17752779Y-95617011D01*
X17836443Y-95773533D01*
X17836443Y-95773534D01*
X17887963Y-95943373D01*
X17905359Y-96120000D01*
X17887963Y-96296627D01*
X17853772Y-96409339D01*
X17836443Y-96466467D01*
X17770118Y-96590551D01*
X17752778Y-96622991D01*
X17723448Y-96658729D01*
X17640186Y-96760186D01*
X17538729Y-96843448D01*
X17502991Y-96872778D01*
X17502989Y-96872779D01*
X17346467Y-96956443D01*
X17289853Y-96973616D01*
X17176627Y-97007963D01*
X17110442Y-97014482D01*
X17044260Y-97021000D01*
X16955740Y-97021000D01*
X16889558Y-97014482D01*
X16823373Y-97007963D01*
X16710147Y-96973616D01*
X16653533Y-96956443D01*
X16497011Y-96872779D01*
X16497009Y-96872778D01*
X16461271Y-96843448D01*
X16359814Y-96760186D01*
X16276552Y-96658729D01*
X16247222Y-96622991D01*
X16229882Y-96590551D01*
X16163557Y-96466467D01*
X16146228Y-96409339D01*
X16112037Y-96296627D01*
X16094641Y-96120000D01*
X16112037Y-95943373D01*
X16163557Y-95773534D01*
X16163557Y-95773533D01*
X16247221Y-95617011D01*
X16247222Y-95617009D01*
X16276552Y-95581271D01*
X16359814Y-95479814D01*
X16461271Y-95396552D01*
X16497009Y-95367222D01*
X16514913Y-95357652D01*
X16653533Y-95283557D01*
X16710147Y-95266384D01*
X16823373Y-95232037D01*
X16889557Y-95225519D01*
X16955740Y-95219000D01*
X17044260Y-95219000D01*
X17110443Y-95225519D01*
X17110443Y-95225519D01*
G37*
G36*
X23379485Y-94328996D02*
X23379487Y-94328997D01*
X23379488Y-94328997D01*
X23616255Y-94427069D01*
X23829342Y-94569449D01*
X24010551Y-94750658D01*
X24152931Y-94963745D01*
X24251004Y-95200515D01*
X24301000Y-95451861D01*
X24301000Y-95708139D01*
X24251004Y-95959485D01*
X24152931Y-96196255D01*
X24010551Y-96409342D01*
X23829342Y-96590551D01*
X23829339Y-96590553D01*
X23616255Y-96732931D01*
X23379488Y-96831003D01*
X23379487Y-96831003D01*
X23379485Y-96831004D01*
X23128139Y-96881000D01*
X22871861Y-96881000D01*
X22620515Y-96831004D01*
X22620513Y-96831003D01*
X22620512Y-96831003D01*
X22383745Y-96732931D01*
X22170661Y-96590553D01*
X22170658Y-96590551D01*
X21989449Y-96409342D01*
X21847069Y-96196255D01*
X21748996Y-95959485D01*
X21699000Y-95708139D01*
X21699000Y-95451861D01*
X21748996Y-95200515D01*
X21847069Y-94963745D01*
X21989449Y-94750658D01*
X22170658Y-94569449D01*
X22383745Y-94427069D01*
X22620512Y-94328997D01*
X22620513Y-94328997D01*
X22620515Y-94328996D01*
X22871861Y-94279000D01*
X23128139Y-94279000D01*
X23379485Y-94328996D01*
X23379485Y-94328996D01*
G37*
G36*
X17110442Y-92685518D02*
X17176627Y-92692037D01*
X17289853Y-92726384D01*
X17346467Y-92743557D01*
X17485087Y-92817652D01*
X17502991Y-92827222D01*
X17521930Y-92842765D01*
X17640186Y-92939814D01*
X17701799Y-93014891D01*
X17752778Y-93077009D01*
X17752779Y-93077011D01*
X17836443Y-93233533D01*
X17836443Y-93233534D01*
X17887963Y-93403373D01*
X17905359Y-93580000D01*
X17887963Y-93756627D01*
X17853616Y-93869853D01*
X17836443Y-93926467D01*
X17762348Y-94065087D01*
X17752778Y-94082991D01*
X17723448Y-94118729D01*
X17640186Y-94220186D01*
X17538729Y-94303448D01*
X17502991Y-94332778D01*
X17502989Y-94332779D01*
X17346467Y-94416443D01*
X17311437Y-94427069D01*
X17176627Y-94467963D01*
X17110443Y-94474481D01*
X17044260Y-94481000D01*
X16955740Y-94481000D01*
X16889557Y-94474481D01*
X16823373Y-94467963D01*
X16688563Y-94427069D01*
X16653533Y-94416443D01*
X16497011Y-94332779D01*
X16497009Y-94332778D01*
X16461271Y-94303448D01*
X16359814Y-94220186D01*
X16276552Y-94118729D01*
X16247222Y-94082991D01*
X16237652Y-94065087D01*
X16163557Y-93926467D01*
X16146384Y-93869853D01*
X16112037Y-93756627D01*
X16094641Y-93580000D01*
X16112037Y-93403373D01*
X16163557Y-93233534D01*
X16163557Y-93233533D01*
X16247221Y-93077011D01*
X16247222Y-93077009D01*
X16298201Y-93014891D01*
X16359814Y-92939814D01*
X16478070Y-92842765D01*
X16497009Y-92827222D01*
X16514913Y-92817652D01*
X16653533Y-92743557D01*
X16710147Y-92726384D01*
X16823373Y-92692037D01*
X16889558Y-92685518D01*
X16955740Y-92679000D01*
X17044260Y-92679000D01*
X17110442Y-92685518D01*
X17110442Y-92685518D01*
G37*
G36*
X52639315Y-91724166D02*
X52683842Y-91737674D01*
X52715074Y-91754368D01*
X52727739Y-91759614D01*
X52731657Y-91764388D01*
X52740747Y-91772628D01*
X52760867Y-91789139D01*
X52790386Y-91825109D01*
X52812325Y-91866155D01*
X52825834Y-91910685D01*
X52831000Y-91963140D01*
X52831000Y-93376860D01*
X52825834Y-93429315D01*
X52812325Y-93473845D01*
X52790386Y-93514891D01*
X52760864Y-93550864D01*
X52724891Y-93580386D01*
X52683845Y-93602325D01*
X52639315Y-93615834D01*
X52586860Y-93621000D01*
X51873140Y-93621000D01*
X51820685Y-93615834D01*
X51776155Y-93602325D01*
X51735109Y-93580386D01*
X51699136Y-93550864D01*
X51669614Y-93514891D01*
X51647675Y-93473845D01*
X51634166Y-93429315D01*
X51629000Y-93376860D01*
X51629000Y-91963140D01*
X51634166Y-91910685D01*
X51647675Y-91866155D01*
X51669614Y-91825109D01*
X51699136Y-91789136D01*
X51735109Y-91759614D01*
X51776155Y-91737675D01*
X51820685Y-91724166D01*
X51873140Y-91719000D01*
X52586860Y-91719000D01*
X52639315Y-91724166D01*
X52639315Y-91724166D01*
G37*
G36*
X28639315Y-91724166D02*
X28683842Y-91737674D01*
X28715074Y-91754368D01*
X28727739Y-91759614D01*
X28731657Y-91764388D01*
X28740747Y-91772628D01*
X28760867Y-91789139D01*
X28790386Y-91825109D01*
X28812325Y-91866155D01*
X28825834Y-91910685D01*
X28831000Y-91963140D01*
X28831000Y-93376860D01*
X28825834Y-93429315D01*
X28812325Y-93473845D01*
X28790386Y-93514891D01*
X28760864Y-93550864D01*
X28724891Y-93580386D01*
X28683845Y-93602325D01*
X28639315Y-93615834D01*
X28586860Y-93621000D01*
X27873140Y-93621000D01*
X27820685Y-93615834D01*
X27776155Y-93602325D01*
X27735109Y-93580386D01*
X27699136Y-93550864D01*
X27669614Y-93514891D01*
X27647675Y-93473845D01*
X27634166Y-93429315D01*
X27629000Y-93376860D01*
X27629000Y-91963140D01*
X27634166Y-91910685D01*
X27647675Y-91866155D01*
X27669614Y-91825109D01*
X27699136Y-91789136D01*
X27735109Y-91759614D01*
X27776155Y-91737675D01*
X27820685Y-91724166D01*
X27873140Y-91719000D01*
X28586860Y-91719000D01*
X28639315Y-91724166D01*
X28639315Y-91724166D01*
G37*
G36*
X40639315Y-91224166D02*
X40683842Y-91237674D01*
X40715074Y-91254368D01*
X40727739Y-91259614D01*
X40731657Y-91264388D01*
X40740747Y-91272628D01*
X40760867Y-91289139D01*
X40790386Y-91325109D01*
X40812325Y-91366155D01*
X40825834Y-91410685D01*
X40831000Y-91463140D01*
X40831000Y-92876860D01*
X40825834Y-92929315D01*
X40812325Y-92973845D01*
X40790386Y-93014891D01*
X40760864Y-93050864D01*
X40724891Y-93080386D01*
X40683845Y-93102325D01*
X40639315Y-93115834D01*
X40586860Y-93121000D01*
X39873140Y-93121000D01*
X39820685Y-93115834D01*
X39776155Y-93102325D01*
X39735109Y-93080386D01*
X39699136Y-93050864D01*
X39669614Y-93014891D01*
X39647675Y-92973845D01*
X39634166Y-92929315D01*
X39629000Y-92876860D01*
X39629000Y-91463140D01*
X39634166Y-91410685D01*
X39647675Y-91366155D01*
X39669614Y-91325109D01*
X39699136Y-91289136D01*
X39735109Y-91259614D01*
X39776155Y-91237675D01*
X39820685Y-91224166D01*
X39873140Y-91219000D01*
X40586860Y-91219000D01*
X40639315Y-91224166D01*
X40639315Y-91224166D01*
G37*
G36*
X45737396Y-91085546D02*
X45910466Y-91157234D01*
X46066230Y-91261312D01*
X46198688Y-91393770D01*
X46302766Y-91549534D01*
X46374454Y-91722604D01*
X46411000Y-91906333D01*
X46411000Y-92093667D01*
X46374454Y-92277396D01*
X46302766Y-92450466D01*
X46198688Y-92606230D01*
X46066230Y-92738688D01*
X45910466Y-92842766D01*
X45737396Y-92914454D01*
X45553667Y-92951000D01*
X45366333Y-92951000D01*
X45182604Y-92914454D01*
X45009534Y-92842766D01*
X44853770Y-92738688D01*
X44721312Y-92606230D01*
X44617234Y-92450466D01*
X44545546Y-92277396D01*
X44509000Y-92093667D01*
X44509000Y-91906333D01*
X44545546Y-91722604D01*
X44617234Y-91549534D01*
X44721312Y-91393770D01*
X44853770Y-91261312D01*
X45009534Y-91157234D01*
X45182604Y-91085546D01*
X45366333Y-91049000D01*
X45553667Y-91049000D01*
X45737396Y-91085546D01*
X45737396Y-91085546D01*
G37*
G36*
X48951000Y-92951000D02*
X47049000Y-92951000D01*
X47049000Y-91049000D01*
X48951000Y-91049000D01*
X48951000Y-92951000D01*
X48951000Y-92951000D01*
G37*
G36*
X36951000Y-92951000D02*
X35049000Y-92951000D01*
X35049000Y-91049000D01*
X36951000Y-91049000D01*
X36951000Y-92951000D01*
X36951000Y-92951000D01*
G37*
G36*
X21737396Y-91085546D02*
X21910466Y-91157234D01*
X22066230Y-91261312D01*
X22198688Y-91393770D01*
X22302766Y-91549534D01*
X22374454Y-91722604D01*
X22411000Y-91906333D01*
X22411000Y-92093667D01*
X22374454Y-92277396D01*
X22302766Y-92450466D01*
X22198688Y-92606230D01*
X22066230Y-92738688D01*
X21910466Y-92842766D01*
X21737396Y-92914454D01*
X21553667Y-92951000D01*
X21366333Y-92951000D01*
X21182604Y-92914454D01*
X21009534Y-92842766D01*
X20853770Y-92738688D01*
X20721312Y-92606230D01*
X20617234Y-92450466D01*
X20545546Y-92277396D01*
X20509000Y-92093667D01*
X20509000Y-91906333D01*
X20545546Y-91722604D01*
X20617234Y-91549534D01*
X20721312Y-91393770D01*
X20853770Y-91261312D01*
X21009534Y-91157234D01*
X21182604Y-91085546D01*
X21366333Y-91049000D01*
X21553667Y-91049000D01*
X21737396Y-91085546D01*
X21737396Y-91085546D01*
G37*
G36*
X33737396Y-91085546D02*
X33910466Y-91157234D01*
X34066230Y-91261312D01*
X34198688Y-91393770D01*
X34302766Y-91549534D01*
X34374454Y-91722604D01*
X34411000Y-91906333D01*
X34411000Y-92093667D01*
X34374454Y-92277396D01*
X34302766Y-92450466D01*
X34198688Y-92606230D01*
X34066230Y-92738688D01*
X33910466Y-92842766D01*
X33737396Y-92914454D01*
X33553667Y-92951000D01*
X33366333Y-92951000D01*
X33182604Y-92914454D01*
X33009534Y-92842766D01*
X32853770Y-92738688D01*
X32721312Y-92606230D01*
X32617234Y-92450466D01*
X32545546Y-92277396D01*
X32509000Y-92093667D01*
X32509000Y-91906333D01*
X32545546Y-91722604D01*
X32617234Y-91549534D01*
X32721312Y-91393770D01*
X32853770Y-91261312D01*
X33009534Y-91157234D01*
X33182604Y-91085546D01*
X33366333Y-91049000D01*
X33553667Y-91049000D01*
X33737396Y-91085546D01*
X33737396Y-91085546D01*
G37*
G36*
X24951000Y-92951000D02*
X23049000Y-92951000D01*
X23049000Y-91049000D01*
X24951000Y-91049000D01*
X24951000Y-92951000D01*
X24951000Y-92951000D01*
G37*
G36*
X17110442Y-90145518D02*
X17176627Y-90152037D01*
X17289853Y-90186384D01*
X17346467Y-90203557D01*
X17485087Y-90277652D01*
X17502991Y-90287222D01*
X17538729Y-90316552D01*
X17640186Y-90399814D01*
X17723448Y-90501271D01*
X17752778Y-90537009D01*
X17752779Y-90537011D01*
X17836443Y-90693533D01*
X17836443Y-90693534D01*
X17887963Y-90863373D01*
X17905359Y-91040000D01*
X17887963Y-91216627D01*
X17865967Y-91289139D01*
X17836443Y-91386467D01*
X17795542Y-91462986D01*
X17752778Y-91542991D01*
X17747409Y-91549533D01*
X17640186Y-91680186D01*
X17543401Y-91759614D01*
X17502991Y-91792778D01*
X17502989Y-91792779D01*
X17346467Y-91876443D01*
X17289853Y-91893616D01*
X17176627Y-91927963D01*
X17110442Y-91934482D01*
X17044260Y-91941000D01*
X16955740Y-91941000D01*
X16889558Y-91934482D01*
X16823373Y-91927963D01*
X16710147Y-91893616D01*
X16653533Y-91876443D01*
X16497011Y-91792779D01*
X16497009Y-91792778D01*
X16456599Y-91759614D01*
X16359814Y-91680186D01*
X16252591Y-91549533D01*
X16247222Y-91542991D01*
X16204458Y-91462986D01*
X16163557Y-91386467D01*
X16134033Y-91289139D01*
X16112037Y-91216627D01*
X16094641Y-91040000D01*
X16112037Y-90863373D01*
X16163557Y-90693534D01*
X16163557Y-90693533D01*
X16247221Y-90537011D01*
X16247222Y-90537009D01*
X16276552Y-90501271D01*
X16359814Y-90399814D01*
X16461271Y-90316552D01*
X16497009Y-90287222D01*
X16514913Y-90277652D01*
X16653533Y-90203557D01*
X16710147Y-90186384D01*
X16823373Y-90152037D01*
X16889558Y-90145518D01*
X16955740Y-90139000D01*
X17044260Y-90139000D01*
X17110442Y-90145518D01*
X17110442Y-90145518D01*
G37*
G36*
X30101000Y-91551000D02*
X28899000Y-91551000D01*
X28899000Y-89649000D01*
X30101000Y-89649000D01*
X30101000Y-91551000D01*
X30101000Y-91551000D01*
G37*
G36*
X54101000Y-91551000D02*
X52899000Y-91551000D01*
X52899000Y-89649000D01*
X54101000Y-89649000D01*
X54101000Y-91551000D01*
X54101000Y-91551000D01*
G37*
G36*
X51369315Y-89654166D02*
X51413845Y-89667675D01*
X51454891Y-89689614D01*
X51490864Y-89719136D01*
X51520386Y-89755109D01*
X51542325Y-89796155D01*
X51555834Y-89840685D01*
X51561000Y-89893140D01*
X51561000Y-91306860D01*
X51555834Y-91359315D01*
X51542325Y-91403845D01*
X51520386Y-91444891D01*
X51490864Y-91480864D01*
X51454891Y-91510386D01*
X51413845Y-91532325D01*
X51369315Y-91545834D01*
X51316860Y-91551000D01*
X50603140Y-91551000D01*
X50550685Y-91545834D01*
X50506155Y-91532325D01*
X50465109Y-91510386D01*
X50429136Y-91480864D01*
X50399614Y-91444891D01*
X50377675Y-91403845D01*
X50364166Y-91359315D01*
X50359000Y-91306860D01*
X50359000Y-89893140D01*
X50364166Y-89840685D01*
X50377675Y-89796155D01*
X50399614Y-89755109D01*
X50429136Y-89719136D01*
X50465109Y-89689614D01*
X50506155Y-89667675D01*
X50550685Y-89654166D01*
X50603140Y-89649000D01*
X51316860Y-89649000D01*
X51369315Y-89654166D01*
X51369315Y-89654166D01*
G37*
G36*
X27369315Y-89654166D02*
X27413845Y-89667675D01*
X27454891Y-89689614D01*
X27490864Y-89719136D01*
X27520386Y-89755109D01*
X27542325Y-89796155D01*
X27555834Y-89840685D01*
X27561000Y-89893140D01*
X27561000Y-91306860D01*
X27555834Y-91359315D01*
X27542325Y-91403845D01*
X27520386Y-91444891D01*
X27490864Y-91480864D01*
X27454891Y-91510386D01*
X27413845Y-91532325D01*
X27369315Y-91545834D01*
X27316860Y-91551000D01*
X26603140Y-91551000D01*
X26550685Y-91545834D01*
X26506155Y-91532325D01*
X26465109Y-91510386D01*
X26429136Y-91480864D01*
X26399614Y-91444891D01*
X26377675Y-91403845D01*
X26364166Y-91359315D01*
X26359000Y-91306860D01*
X26359000Y-89893140D01*
X26364166Y-89840685D01*
X26377675Y-89796155D01*
X26399614Y-89755109D01*
X26429136Y-89719136D01*
X26465109Y-89689614D01*
X26506155Y-89667675D01*
X26550685Y-89654166D01*
X26603140Y-89649000D01*
X27316860Y-89649000D01*
X27369315Y-89654166D01*
X27369315Y-89654166D01*
G37*
G36*
X39369315Y-89154166D02*
X39413845Y-89167675D01*
X39454891Y-89189614D01*
X39490864Y-89219136D01*
X39520386Y-89255109D01*
X39542325Y-89296155D01*
X39555834Y-89340685D01*
X39561000Y-89393140D01*
X39561000Y-90806860D01*
X39555834Y-90859315D01*
X39542325Y-90903845D01*
X39520386Y-90944891D01*
X39490864Y-90980864D01*
X39454891Y-91010386D01*
X39413845Y-91032325D01*
X39369315Y-91045834D01*
X39316860Y-91051000D01*
X38603140Y-91051000D01*
X38550685Y-91045834D01*
X38506155Y-91032325D01*
X38465109Y-91010386D01*
X38429136Y-90980864D01*
X38399614Y-90944891D01*
X38377675Y-90903845D01*
X38364166Y-90859315D01*
X38359000Y-90806860D01*
X38359000Y-89393140D01*
X38364166Y-89340685D01*
X38377675Y-89296155D01*
X38399614Y-89255109D01*
X38429136Y-89219136D01*
X38465109Y-89189614D01*
X38506155Y-89167675D01*
X38550685Y-89154166D01*
X38603140Y-89149000D01*
X39316860Y-89149000D01*
X39369315Y-89154166D01*
X39369315Y-89154166D01*
G37*
G36*
X42101000Y-91051000D02*
X40899000Y-91051000D01*
X40899000Y-89149000D01*
X42101000Y-89149000D01*
X42101000Y-91051000D01*
X42101000Y-91051000D01*
G37*
G36*
X17901000Y-89401000D02*
X16099000Y-89401000D01*
X16099000Y-87599000D01*
X17901000Y-87599000D01*
X17901000Y-89401000D01*
X17901000Y-89401000D01*
G37*
G36*
X45306565Y-85789389D02*
X45497834Y-85868615D01*
X45669976Y-85983637D01*
X45816363Y-86130024D01*
X45931385Y-86302166D01*
X46010611Y-86493435D01*
X46051000Y-86696484D01*
X46051000Y-86903516D01*
X46010611Y-87106565D01*
X45931385Y-87297834D01*
X45816363Y-87469976D01*
X45669976Y-87616363D01*
X45497834Y-87731385D01*
X45306565Y-87810611D01*
X45103516Y-87851000D01*
X44896484Y-87851000D01*
X44693435Y-87810611D01*
X44502166Y-87731385D01*
X44330024Y-87616363D01*
X44183637Y-87469976D01*
X44068615Y-87297834D01*
X43989389Y-87106565D01*
X43949000Y-86903516D01*
X43949000Y-86696484D01*
X43989389Y-86493435D01*
X44068615Y-86302166D01*
X44183637Y-86130024D01*
X44330024Y-85983637D01*
X44502166Y-85868615D01*
X44693435Y-85789389D01*
X44896484Y-85749000D01*
X45103516Y-85749000D01*
X45306565Y-85789389D01*
X45306565Y-85789389D01*
G37*
G36*
X20666821Y-85821313D02*
X20666824Y-85821314D01*
X20666825Y-85821314D01*
X20827239Y-85869975D01*
X20827241Y-85869976D01*
X20827244Y-85869977D01*
X20975078Y-85948995D01*
X21104659Y-86055341D01*
X21211005Y-86184922D01*
X21290023Y-86332756D01*
X21338687Y-86493179D01*
X21355117Y-86660000D01*
X21338687Y-86826821D01*
X21338686Y-86826824D01*
X21338686Y-86826825D01*
X21315423Y-86903514D01*
X21290023Y-86987244D01*
X21211005Y-87135078D01*
X21104659Y-87264659D01*
X20975078Y-87371005D01*
X20827244Y-87450023D01*
X20827241Y-87450024D01*
X20827239Y-87450025D01*
X20666825Y-87498686D01*
X20666824Y-87498686D01*
X20666821Y-87498687D01*
X20541804Y-87511000D01*
X20458196Y-87511000D01*
X20333179Y-87498687D01*
X20333176Y-87498686D01*
X20333175Y-87498686D01*
X20172761Y-87450025D01*
X20172759Y-87450024D01*
X20172756Y-87450023D01*
X20024922Y-87371005D01*
X19895341Y-87264659D01*
X19788995Y-87135078D01*
X19709977Y-86987244D01*
X19684578Y-86903514D01*
X19661314Y-86826825D01*
X19661314Y-86826824D01*
X19661313Y-86826821D01*
X19644883Y-86660000D01*
X19661313Y-86493179D01*
X19709977Y-86332756D01*
X19788995Y-86184922D01*
X19895341Y-86055341D01*
X20024922Y-85948995D01*
X20172756Y-85869977D01*
X20172759Y-85869976D01*
X20172761Y-85869975D01*
X20333175Y-85821314D01*
X20333176Y-85821314D01*
X20333179Y-85821313D01*
X20458196Y-85809000D01*
X20541804Y-85809000D01*
X20666821Y-85821313D01*
X20666821Y-85821313D01*
G37*
G36*
X52704472Y-83825938D02*
X52832049Y-83878782D01*
X52946865Y-83955500D01*
X53044500Y-84053135D01*
X53121218Y-84167951D01*
X53174062Y-84295528D01*
X53201000Y-84430956D01*
X53201000Y-84569044D01*
X53174062Y-84704472D01*
X53121218Y-84832049D01*
X53044500Y-84946865D01*
X52946865Y-85044500D01*
X52832049Y-85121218D01*
X52704472Y-85174062D01*
X52569044Y-85201000D01*
X52430956Y-85201000D01*
X52295528Y-85174062D01*
X52167951Y-85121218D01*
X52053135Y-85044500D01*
X51955500Y-84946865D01*
X51878782Y-84832049D01*
X51825938Y-84704472D01*
X51799000Y-84569044D01*
X51799000Y-84430956D01*
X51825938Y-84295528D01*
X51878782Y-84167951D01*
X51955500Y-84053135D01*
X52053135Y-83955500D01*
X52167951Y-83878782D01*
X52295528Y-83825938D01*
X52430956Y-83799000D01*
X52569044Y-83799000D01*
X52704472Y-83825938D01*
X52704472Y-83825938D01*
G37*
G36*
X31005039Y-80217825D02*
X31250279Y-80292218D01*
X31250281Y-80292219D01*
X31476295Y-80413026D01*
X31674396Y-80575603D01*
X31807821Y-80738182D01*
X31836975Y-80773706D01*
X31957782Y-80999720D01*
X32032175Y-81244960D01*
X32051000Y-81436095D01*
X32051000Y-82563905D01*
X32032175Y-82755040D01*
X31957782Y-83000280D01*
X31957781Y-83000282D01*
X31836974Y-83226296D01*
X31674397Y-83424397D01*
X31476296Y-83586974D01*
X31476294Y-83586975D01*
X31250280Y-83707782D01*
X31005040Y-83782175D01*
X30750000Y-83807294D01*
X30494961Y-83782175D01*
X30249721Y-83707782D01*
X30023707Y-83586975D01*
X30023705Y-83586974D01*
X29825604Y-83424397D01*
X29663026Y-83226295D01*
X29542219Y-83000282D01*
X29542218Y-83000280D01*
X29467825Y-82755040D01*
X29449000Y-82563905D01*
X29449000Y-81436096D01*
X29467825Y-81244961D01*
X29542218Y-80999721D01*
X29663025Y-80773707D01*
X29663026Y-80773705D01*
X29825603Y-80575604D01*
X30023705Y-80413026D01*
X30023704Y-80413026D01*
X30023706Y-80413025D01*
X30249720Y-80292218D01*
X30494960Y-80217825D01*
X30750000Y-80192706D01*
X31005039Y-80217825D01*
X31005039Y-80217825D01*
G37*
G36*
X27505039Y-80217825D02*
X27750279Y-80292218D01*
X27750281Y-80292219D01*
X27976295Y-80413026D01*
X28174396Y-80575603D01*
X28307821Y-80738182D01*
X28336975Y-80773706D01*
X28457782Y-80999720D01*
X28532175Y-81244960D01*
X28551000Y-81436095D01*
X28551000Y-82563905D01*
X28532175Y-82755040D01*
X28457782Y-83000280D01*
X28457781Y-83000282D01*
X28336974Y-83226296D01*
X28174397Y-83424397D01*
X27976296Y-83586974D01*
X27976294Y-83586975D01*
X27750280Y-83707782D01*
X27505040Y-83782175D01*
X27250000Y-83807294D01*
X26994961Y-83782175D01*
X26749721Y-83707782D01*
X26523707Y-83586975D01*
X26523705Y-83586974D01*
X26325604Y-83424397D01*
X26163026Y-83226295D01*
X26042219Y-83000282D01*
X26042218Y-83000280D01*
X25967825Y-82755040D01*
X25949000Y-82563905D01*
X25949000Y-81436096D01*
X25967825Y-81244961D01*
X26042218Y-80999721D01*
X26163025Y-80773707D01*
X26163026Y-80773705D01*
X26325603Y-80575604D01*
X26523705Y-80413026D01*
X26523704Y-80413026D01*
X26523706Y-80413025D01*
X26749720Y-80292218D01*
X26994960Y-80217825D01*
X27250000Y-80192706D01*
X27505039Y-80217825D01*
X27505039Y-80217825D01*
G37*
G36*
X52704472Y-81325938D02*
X52832049Y-81378782D01*
X52946865Y-81455500D01*
X53044500Y-81553135D01*
X53121218Y-81667951D01*
X53174062Y-81795528D01*
X53201000Y-81930956D01*
X53201000Y-82069044D01*
X53174062Y-82204472D01*
X53121218Y-82332049D01*
X53044500Y-82446865D01*
X52946865Y-82544500D01*
X52832049Y-82621218D01*
X52704472Y-82674062D01*
X52569044Y-82701000D01*
X52430956Y-82701000D01*
X52295528Y-82674062D01*
X52167951Y-82621218D01*
X52053135Y-82544500D01*
X51955500Y-82446865D01*
X51878782Y-82332049D01*
X51825938Y-82204472D01*
X51799000Y-82069044D01*
X51799000Y-81930956D01*
X51825938Y-81795528D01*
X51878782Y-81667951D01*
X51955500Y-81553135D01*
X52053135Y-81455500D01*
X52167951Y-81378782D01*
X52295528Y-81325938D01*
X52430956Y-81299000D01*
X52569044Y-81299000D01*
X52704472Y-81325938D01*
X52704472Y-81325938D01*
G37*
G36*
X52704472Y-78825938D02*
X52832049Y-78878782D01*
X52946865Y-78955500D01*
X53044500Y-79053135D01*
X53121218Y-79167951D01*
X53174062Y-79295528D01*
X53201000Y-79430956D01*
X53201000Y-79569044D01*
X53174062Y-79704472D01*
X53121218Y-79832049D01*
X53044500Y-79946865D01*
X52946865Y-80044500D01*
X52832049Y-80121218D01*
X52704472Y-80174062D01*
X52569044Y-80201000D01*
X52430956Y-80201000D01*
X52295528Y-80174062D01*
X52167951Y-80121218D01*
X52053135Y-80044500D01*
X51955500Y-79946865D01*
X51878782Y-79832049D01*
X51825938Y-79704472D01*
X51799000Y-79569044D01*
X51799000Y-79430956D01*
X51825938Y-79295528D01*
X51878782Y-79167951D01*
X51955500Y-79053135D01*
X52053135Y-78955500D01*
X52167951Y-78878782D01*
X52295528Y-78825938D01*
X52430956Y-78799000D01*
X52569044Y-78799000D01*
X52704472Y-78825938D01*
X52704472Y-78825938D01*
G37*
G36*
X45306565Y-76189389D02*
X45497834Y-76268615D01*
X45669976Y-76383637D01*
X45816363Y-76530024D01*
X45931385Y-76702166D01*
X46010611Y-76893435D01*
X46051000Y-77096484D01*
X46051000Y-77303516D01*
X46010611Y-77506565D01*
X45931385Y-77697834D01*
X45816363Y-77869976D01*
X45669976Y-78016363D01*
X45497834Y-78131385D01*
X45306565Y-78210611D01*
X45103516Y-78251000D01*
X44896484Y-78251000D01*
X44693435Y-78210611D01*
X44502166Y-78131385D01*
X44330024Y-78016363D01*
X44183637Y-77869976D01*
X44068615Y-77697834D01*
X43989389Y-77506565D01*
X43949000Y-77303516D01*
X43949000Y-77096484D01*
X43989389Y-76893435D01*
X44068615Y-76702166D01*
X44183637Y-76530024D01*
X44330024Y-76383637D01*
X44502166Y-76268615D01*
X44693435Y-76189389D01*
X44896484Y-76149000D01*
X45103516Y-76149000D01*
X45306565Y-76189389D01*
X45306565Y-76189389D01*
G37*
G36*
X20748228Y-75681703D02*
X20903100Y-75745853D01*
X21042481Y-75838985D01*
X21161015Y-75957519D01*
X21254147Y-76096900D01*
X21318297Y-76251772D01*
X21351000Y-76416184D01*
X21351000Y-76583816D01*
X21318297Y-76748228D01*
X21254147Y-76903100D01*
X21161015Y-77042481D01*
X21042481Y-77161015D01*
X20903100Y-77254147D01*
X20748228Y-77318297D01*
X20583816Y-77351000D01*
X20416184Y-77351000D01*
X20251772Y-77318297D01*
X20096900Y-77254147D01*
X19957519Y-77161015D01*
X19838985Y-77042481D01*
X19745853Y-76903100D01*
X19681703Y-76748228D01*
X19649000Y-76583816D01*
X19649000Y-76416184D01*
X19681703Y-76251772D01*
X19745853Y-76096900D01*
X19838985Y-75957519D01*
X19957519Y-75838985D01*
X20096900Y-75745853D01*
X20251772Y-75681703D01*
X20416184Y-75649000D01*
X20583816Y-75649000D01*
X20748228Y-75681703D01*
X20748228Y-75681703D01*
G37*
G36*
X23748228Y-74181703D02*
X23903100Y-74245853D01*
X24042481Y-74338985D01*
X24161015Y-74457519D01*
X24254147Y-74596900D01*
X24318297Y-74751772D01*
X24351000Y-74916184D01*
X24351000Y-75083816D01*
X24318297Y-75248228D01*
X24254147Y-75403100D01*
X24161015Y-75542481D01*
X24042481Y-75661015D01*
X23903100Y-75754147D01*
X23748228Y-75818297D01*
X23583816Y-75851000D01*
X23416184Y-75851000D01*
X23251772Y-75818297D01*
X23096900Y-75754147D01*
X22957519Y-75661015D01*
X22838985Y-75542481D01*
X22745853Y-75403100D01*
X22681703Y-75248228D01*
X22649000Y-75083816D01*
X22649000Y-74916184D01*
X22681703Y-74751772D01*
X22745853Y-74596900D01*
X22838985Y-74457519D01*
X22957519Y-74338985D01*
X23096900Y-74245853D01*
X23251772Y-74181703D01*
X23416184Y-74149000D01*
X23583816Y-74149000D01*
X23748228Y-74181703D01*
X23748228Y-74181703D01*
G37*
G36*
X33826821Y-74161313D02*
X33826824Y-74161314D01*
X33826825Y-74161314D01*
X33987239Y-74209975D01*
X33987241Y-74209976D01*
X33987244Y-74209977D01*
X34135078Y-74288995D01*
X34264659Y-74395341D01*
X34371005Y-74524922D01*
X34450023Y-74672756D01*
X34450024Y-74672759D01*
X34450025Y-74672761D01*
X34498686Y-74833175D01*
X34498687Y-74833179D01*
X34515117Y-75000000D01*
X34498687Y-75166821D01*
X34498686Y-75166824D01*
X34498686Y-75166825D01*
X34473993Y-75248228D01*
X34450023Y-75327244D01*
X34371005Y-75475078D01*
X34264659Y-75604659D01*
X34135078Y-75711005D01*
X33987244Y-75790023D01*
X33987241Y-75790024D01*
X33987239Y-75790025D01*
X33826825Y-75838686D01*
X33826824Y-75838686D01*
X33826821Y-75838687D01*
X33701804Y-75851000D01*
X33618196Y-75851000D01*
X33493179Y-75838687D01*
X33493176Y-75838686D01*
X33493175Y-75838686D01*
X33332761Y-75790025D01*
X33332759Y-75790024D01*
X33332756Y-75790023D01*
X33184922Y-75711005D01*
X33055341Y-75604659D01*
X32948995Y-75475078D01*
X32869977Y-75327244D01*
X32846008Y-75248228D01*
X32821314Y-75166825D01*
X32821314Y-75166824D01*
X32821313Y-75166821D01*
X32804883Y-75000000D01*
X32821313Y-74833179D01*
X32821314Y-74833175D01*
X32869975Y-74672761D01*
X32869976Y-74672759D01*
X32869977Y-74672756D01*
X32948995Y-74524922D01*
X33055341Y-74395341D01*
X33184922Y-74288995D01*
X33332756Y-74209977D01*
X33332759Y-74209976D01*
X33332761Y-74209975D01*
X33493175Y-74161314D01*
X33493176Y-74161314D01*
X33493179Y-74161313D01*
X33618196Y-74149000D01*
X33701804Y-74149000D01*
X33826821Y-74161313D01*
X33826821Y-74161313D01*
G37*
G36*
X40248228Y-72181703D02*
X40403100Y-72245853D01*
X40542481Y-72338985D01*
X40661015Y-72457519D01*
X40754147Y-72596900D01*
X40818297Y-72751772D01*
X40851000Y-72916184D01*
X40851000Y-73083816D01*
X40818297Y-73248228D01*
X40754147Y-73403100D01*
X40661015Y-73542481D01*
X40542481Y-73661015D01*
X40403100Y-73754147D01*
X40248228Y-73818297D01*
X40083816Y-73851000D01*
X39916184Y-73851000D01*
X39751772Y-73818297D01*
X39596900Y-73754147D01*
X39457519Y-73661015D01*
X39338985Y-73542481D01*
X39245853Y-73403100D01*
X39181703Y-73248228D01*
X39149000Y-73083816D01*
X39149000Y-72916184D01*
X39181703Y-72751772D01*
X39245853Y-72596900D01*
X39338985Y-72457519D01*
X39457519Y-72338985D01*
X39596900Y-72245853D01*
X39751772Y-72181703D01*
X39916184Y-72149000D01*
X40083816Y-72149000D01*
X40248228Y-72181703D01*
X40248228Y-72181703D01*
G37*
G36*
X50326821Y-72161313D02*
X50326824Y-72161314D01*
X50326825Y-72161314D01*
X50487239Y-72209975D01*
X50487241Y-72209976D01*
X50487244Y-72209977D01*
X50635078Y-72288995D01*
X50764659Y-72395341D01*
X50871005Y-72524922D01*
X50950023Y-72672756D01*
X50950024Y-72672759D01*
X50950025Y-72672761D01*
X50998686Y-72833175D01*
X50998687Y-72833179D01*
X51015117Y-73000000D01*
X50998687Y-73166821D01*
X50998686Y-73166824D01*
X50998686Y-73166825D01*
X50973993Y-73248228D01*
X50950023Y-73327244D01*
X50871005Y-73475078D01*
X50764659Y-73604659D01*
X50635078Y-73711005D01*
X50487244Y-73790023D01*
X50487241Y-73790024D01*
X50487239Y-73790025D01*
X50326825Y-73838686D01*
X50326824Y-73838686D01*
X50326821Y-73838687D01*
X50201804Y-73851000D01*
X50118196Y-73851000D01*
X49993179Y-73838687D01*
X49993176Y-73838686D01*
X49993175Y-73838686D01*
X49832761Y-73790025D01*
X49832759Y-73790024D01*
X49832756Y-73790023D01*
X49684922Y-73711005D01*
X49555341Y-73604659D01*
X49448995Y-73475078D01*
X49369977Y-73327244D01*
X49346008Y-73248228D01*
X49321314Y-73166825D01*
X49321314Y-73166824D01*
X49321313Y-73166821D01*
X49304883Y-73000000D01*
X49321313Y-72833179D01*
X49321314Y-72833175D01*
X49369975Y-72672761D01*
X49369976Y-72672759D01*
X49369977Y-72672756D01*
X49448995Y-72524922D01*
X49555341Y-72395341D01*
X49684922Y-72288995D01*
X49832756Y-72209977D01*
X49832759Y-72209976D01*
X49832761Y-72209975D01*
X49993175Y-72161314D01*
X49993176Y-72161314D01*
X49993179Y-72161313D01*
X50118196Y-72149000D01*
X50201804Y-72149000D01*
X50326821Y-72161313D01*
X50326821Y-72161313D01*
G37*
G36*
X18451000Y-73451000D02*
X16549000Y-73451000D01*
X16549000Y-71549000D01*
X18451000Y-71549000D01*
X18451000Y-73451000D01*
X18451000Y-73451000D01*
G37*
G36*
X20317396Y-71585546D02*
X20490466Y-71657234D01*
X20646230Y-71761312D01*
X20778688Y-71893770D01*
X20882766Y-72049534D01*
X20954454Y-72222604D01*
X20991000Y-72406333D01*
X20991000Y-72593667D01*
X20954454Y-72777396D01*
X20882766Y-72950466D01*
X20778688Y-73106230D01*
X20646230Y-73238688D01*
X20490466Y-73342766D01*
X20317396Y-73414454D01*
X20133667Y-73451000D01*
X19946333Y-73451000D01*
X19762604Y-73414454D01*
X19589534Y-73342766D01*
X19433770Y-73238688D01*
X19301312Y-73106230D01*
X19197234Y-72950466D01*
X19125546Y-72777396D01*
X19089000Y-72593667D01*
X19089000Y-72406333D01*
X19125546Y-72222604D01*
X19197234Y-72049534D01*
X19301312Y-71893770D01*
X19433770Y-71761312D01*
X19589534Y-71657234D01*
X19762604Y-71585546D01*
X19946333Y-71549000D01*
X20133667Y-71549000D01*
X20317396Y-71585546D01*
X20317396Y-71585546D01*
G37*
G36*
X53248228Y-69181703D02*
X53403100Y-69245853D01*
X53542481Y-69338985D01*
X53661015Y-69457519D01*
X53754147Y-69596900D01*
X53818297Y-69751772D01*
X53851000Y-69916184D01*
X53851000Y-70083816D01*
X53818297Y-70248228D01*
X53754147Y-70403100D01*
X53661015Y-70542481D01*
X53542481Y-70661015D01*
X53403100Y-70754147D01*
X53248228Y-70818297D01*
X53083816Y-70851000D01*
X52916184Y-70851000D01*
X52751772Y-70818297D01*
X52596900Y-70754147D01*
X52457519Y-70661015D01*
X52338985Y-70542481D01*
X52245853Y-70403100D01*
X52181703Y-70248228D01*
X52149000Y-70083816D01*
X52149000Y-69916184D01*
X52181703Y-69751772D01*
X52245853Y-69596900D01*
X52338985Y-69457519D01*
X52457519Y-69338985D01*
X52596900Y-69245853D01*
X52751772Y-69181703D01*
X52916184Y-69149000D01*
X53083816Y-69149000D01*
X53248228Y-69181703D01*
X53248228Y-69181703D01*
G37*
G36*
X43006821Y-69161313D02*
X43006824Y-69161314D01*
X43006825Y-69161314D01*
X43167239Y-69209975D01*
X43167241Y-69209976D01*
X43167244Y-69209977D01*
X43315078Y-69288995D01*
X43444659Y-69395341D01*
X43551005Y-69524922D01*
X43630023Y-69672756D01*
X43630024Y-69672759D01*
X43630025Y-69672761D01*
X43662158Y-69778690D01*
X43678687Y-69833179D01*
X43695117Y-70000000D01*
X43678687Y-70166821D01*
X43678686Y-70166824D01*
X43678686Y-70166825D01*
X43653993Y-70248228D01*
X43630023Y-70327244D01*
X43551005Y-70475078D01*
X43444659Y-70604659D01*
X43315078Y-70711005D01*
X43167244Y-70790023D01*
X43167241Y-70790024D01*
X43167239Y-70790025D01*
X43006825Y-70838686D01*
X43006824Y-70838686D01*
X43006821Y-70838687D01*
X42881804Y-70851000D01*
X42798196Y-70851000D01*
X42673179Y-70838687D01*
X42673176Y-70838686D01*
X42673175Y-70838686D01*
X42512761Y-70790025D01*
X42512759Y-70790024D01*
X42512756Y-70790023D01*
X42364922Y-70711005D01*
X42235341Y-70604659D01*
X42128995Y-70475078D01*
X42049977Y-70327244D01*
X42026008Y-70248228D01*
X42001314Y-70166825D01*
X42001314Y-70166824D01*
X42001313Y-70166821D01*
X41984883Y-70000000D01*
X42001313Y-69833179D01*
X42017842Y-69778690D01*
X42049975Y-69672761D01*
X42049976Y-69672759D01*
X42049977Y-69672756D01*
X42128995Y-69524922D01*
X42235341Y-69395341D01*
X42364922Y-69288995D01*
X42512756Y-69209977D01*
X42512759Y-69209976D01*
X42512761Y-69209975D01*
X42673175Y-69161314D01*
X42673176Y-69161314D01*
X42673179Y-69161313D01*
X42798196Y-69149000D01*
X42881804Y-69149000D01*
X43006821Y-69161313D01*
X43006821Y-69161313D01*
G37*
G36*
X38277396Y-68125546D02*
X38450466Y-68197234D01*
X38606230Y-68301312D01*
X38738688Y-68433770D01*
X38842766Y-68589534D01*
X38914454Y-68762604D01*
X38951000Y-68946333D01*
X38951000Y-69133667D01*
X38914454Y-69317396D01*
X38842766Y-69490466D01*
X38738688Y-69646230D01*
X38606230Y-69778688D01*
X38450466Y-69882766D01*
X38277396Y-69954454D01*
X38093667Y-69991000D01*
X37906333Y-69991000D01*
X37722604Y-69954454D01*
X37549534Y-69882766D01*
X37393770Y-69778688D01*
X37261312Y-69646230D01*
X37157234Y-69490466D01*
X37085546Y-69317396D01*
X37049000Y-69133667D01*
X37049000Y-68946333D01*
X37085546Y-68762604D01*
X37157234Y-68589534D01*
X37261312Y-68433770D01*
X37393770Y-68301312D01*
X37549534Y-68197234D01*
X37722604Y-68125546D01*
X37906333Y-68089000D01*
X38093667Y-68089000D01*
X38277396Y-68125546D01*
X38277396Y-68125546D01*
G37*
G36*
X18451000Y-68951000D02*
X16549000Y-68951000D01*
X16549000Y-67049000D01*
X18451000Y-67049000D01*
X18451000Y-68951000D01*
X18451000Y-68951000D01*
G37*
G36*
X20317396Y-67085546D02*
X20490466Y-67157234D01*
X20646230Y-67261312D01*
X20778688Y-67393770D01*
X20882766Y-67549534D01*
X20954454Y-67722604D01*
X20991000Y-67906333D01*
X20991000Y-68093667D01*
X20954454Y-68277396D01*
X20882766Y-68450466D01*
X20778688Y-68606230D01*
X20646230Y-68738688D01*
X20490466Y-68842766D01*
X20317396Y-68914454D01*
X20133667Y-68951000D01*
X19946333Y-68951000D01*
X19762604Y-68914454D01*
X19589534Y-68842766D01*
X19433770Y-68738688D01*
X19301312Y-68606230D01*
X19197234Y-68450466D01*
X19125546Y-68277396D01*
X19089000Y-68093667D01*
X19089000Y-67906333D01*
X19125546Y-67722604D01*
X19197234Y-67549534D01*
X19301312Y-67393770D01*
X19433770Y-67261312D01*
X19589534Y-67157234D01*
X19762604Y-67085546D01*
X19946333Y-67049000D01*
X20133667Y-67049000D01*
X20317396Y-67085546D01*
X20317396Y-67085546D01*
G37*
G36*
X38951000Y-67451000D02*
X37049000Y-67451000D01*
X37049000Y-65549000D01*
X38951000Y-65549000D01*
X38951000Y-67451000D01*
X38951000Y-67451000D01*
G37*
G36*
X29375256Y-63991298D02*
X29481579Y-64012447D01*
X29782042Y-64136903D01*
X30011202Y-64290023D01*
X30052454Y-64317587D01*
X30282413Y-64547546D01*
X30463098Y-64817960D01*
X30587553Y-65118422D01*
X30651000Y-65437389D01*
X30651000Y-65762611D01*
X30587553Y-66081578D01*
X30463098Y-66382040D01*
X30282413Y-66652454D01*
X30052454Y-66882413D01*
X30052451Y-66882415D01*
X29782042Y-67063097D01*
X29782041Y-67063098D01*
X29782040Y-67063098D01*
X29727843Y-67085547D01*
X29481579Y-67187553D01*
X29375256Y-67208702D01*
X29162611Y-67251000D01*
X28837389Y-67251000D01*
X28624744Y-67208702D01*
X28518421Y-67187553D01*
X28272157Y-67085547D01*
X28217960Y-67063098D01*
X28217959Y-67063098D01*
X28217958Y-67063097D01*
X27947549Y-66882415D01*
X27947546Y-66882413D01*
X27717587Y-66652454D01*
X27536902Y-66382040D01*
X27412447Y-66081578D01*
X27349000Y-65762611D01*
X27349000Y-65437389D01*
X27412447Y-65118422D01*
X27536902Y-64817960D01*
X27717587Y-64547546D01*
X27947546Y-64317587D01*
X27988798Y-64290023D01*
X28217958Y-64136903D01*
X28518421Y-64012447D01*
X28624744Y-63991298D01*
X28837389Y-63949000D01*
X29162611Y-63949000D01*
X29375256Y-63991298D01*
X29375256Y-63991298D01*
G37*
G36*
X42748228Y-62681703D02*
X42903100Y-62745853D01*
X43042481Y-62838985D01*
X43161015Y-62957519D01*
X43254147Y-63096900D01*
X43318297Y-63251772D01*
X43351000Y-63416184D01*
X43351000Y-63583816D01*
X43318297Y-63748228D01*
X43254147Y-63903100D01*
X43161015Y-64042481D01*
X43042481Y-64161015D01*
X42903100Y-64254147D01*
X42748228Y-64318297D01*
X42583816Y-64351000D01*
X42416184Y-64351000D01*
X42251772Y-64318297D01*
X42096900Y-64254147D01*
X41957519Y-64161015D01*
X41838985Y-64042481D01*
X41745853Y-63903100D01*
X41681703Y-63748228D01*
X41649000Y-63583816D01*
X41649000Y-63416184D01*
X41681703Y-63251772D01*
X41745853Y-63096900D01*
X41838985Y-62957519D01*
X41957519Y-62838985D01*
X42096900Y-62745853D01*
X42251772Y-62681703D01*
X42416184Y-62649000D01*
X42583816Y-62649000D01*
X42748228Y-62681703D01*
X42748228Y-62681703D01*
G37*
G36*
X52826821Y-62661313D02*
X52826824Y-62661314D01*
X52826825Y-62661314D01*
X52987239Y-62709975D01*
X52987241Y-62709976D01*
X52987244Y-62709977D01*
X53135078Y-62788995D01*
X53264659Y-62895341D01*
X53371005Y-63024922D01*
X53450023Y-63172756D01*
X53450024Y-63172759D01*
X53450025Y-63172761D01*
X53493586Y-63316363D01*
X53498687Y-63333179D01*
X53515117Y-63500000D01*
X53498687Y-63666821D01*
X53498686Y-63666824D01*
X53498686Y-63666825D01*
X53473993Y-63748228D01*
X53450023Y-63827244D01*
X53371005Y-63975078D01*
X53264659Y-64104659D01*
X53135078Y-64211005D01*
X52987244Y-64290023D01*
X52987241Y-64290024D01*
X52987239Y-64290025D01*
X52826825Y-64338686D01*
X52826824Y-64338686D01*
X52826821Y-64338687D01*
X52701804Y-64351000D01*
X52618196Y-64351000D01*
X52493179Y-64338687D01*
X52493176Y-64338686D01*
X52493175Y-64338686D01*
X52332761Y-64290025D01*
X52332759Y-64290024D01*
X52332756Y-64290023D01*
X52184922Y-64211005D01*
X52055341Y-64104659D01*
X51948995Y-63975078D01*
X51869977Y-63827244D01*
X51846008Y-63748228D01*
X51821314Y-63666825D01*
X51821314Y-63666824D01*
X51821313Y-63666821D01*
X51804883Y-63500000D01*
X51821313Y-63333179D01*
X51826414Y-63316363D01*
X51869975Y-63172761D01*
X51869976Y-63172759D01*
X51869977Y-63172756D01*
X51948995Y-63024922D01*
X52055341Y-62895341D01*
X52184922Y-62788995D01*
X52332756Y-62709977D01*
X52332759Y-62709976D01*
X52332761Y-62709975D01*
X52493175Y-62661314D01*
X52493176Y-62661314D01*
X52493179Y-62661313D01*
X52618196Y-62649000D01*
X52701804Y-62649000D01*
X52826821Y-62661313D01*
X52826821Y-62661313D01*
G37*
G36*
X21806565Y-61489389D02*
X21997834Y-61568615D01*
X22169976Y-61683637D01*
X22316363Y-61830024D01*
X22431385Y-62002166D01*
X22510611Y-62193435D01*
X22551000Y-62396484D01*
X22551000Y-62603516D01*
X22510611Y-62806565D01*
X22431385Y-62997834D01*
X22316363Y-63169976D01*
X22169976Y-63316363D01*
X21997834Y-63431385D01*
X21806565Y-63510611D01*
X21603516Y-63551000D01*
X21396484Y-63551000D01*
X21193435Y-63510611D01*
X21002166Y-63431385D01*
X20830024Y-63316363D01*
X20683637Y-63169976D01*
X20568615Y-62997834D01*
X20489389Y-62806565D01*
X20449000Y-62603516D01*
X20449000Y-62396484D01*
X20489389Y-62193435D01*
X20568615Y-62002166D01*
X20683637Y-61830024D01*
X20830024Y-61683637D01*
X21002166Y-61568615D01*
X21193435Y-61489389D01*
X21396484Y-61449000D01*
X21603516Y-61449000D01*
X21806565Y-61489389D01*
X21806565Y-61489389D01*
G37*
G36*
X36306565Y-61489389D02*
X36497834Y-61568615D01*
X36669976Y-61683637D01*
X36816363Y-61830024D01*
X36931385Y-62002166D01*
X37010611Y-62193435D01*
X37051000Y-62396484D01*
X37051000Y-62603516D01*
X37010611Y-62806565D01*
X36931385Y-62997834D01*
X36816363Y-63169976D01*
X36669976Y-63316363D01*
X36497834Y-63431385D01*
X36306565Y-63510611D01*
X36103516Y-63551000D01*
X35896484Y-63551000D01*
X35693435Y-63510611D01*
X35502166Y-63431385D01*
X35330024Y-63316363D01*
X35183637Y-63169976D01*
X35068615Y-62997834D01*
X34989389Y-62806565D01*
X34949000Y-62603516D01*
X34949000Y-62396484D01*
X34989389Y-62193435D01*
X35068615Y-62002166D01*
X35183637Y-61830024D01*
X35330024Y-61683637D01*
X35502166Y-61568615D01*
X35693435Y-61489389D01*
X35896484Y-61449000D01*
X36103516Y-61449000D01*
X36306565Y-61489389D01*
X36306565Y-61489389D01*
G37*
G36*
X21806565Y-58989389D02*
X21997834Y-59068615D01*
X22169976Y-59183637D01*
X22316363Y-59330024D01*
X22431385Y-59502166D01*
X22510611Y-59693435D01*
X22551000Y-59896484D01*
X22551000Y-60103516D01*
X22510611Y-60306565D01*
X22431385Y-60497834D01*
X22316363Y-60669976D01*
X22169976Y-60816363D01*
X21997834Y-60931385D01*
X21806565Y-61010611D01*
X21603516Y-61051000D01*
X21396484Y-61051000D01*
X21193435Y-61010611D01*
X21002166Y-60931385D01*
X20830024Y-60816363D01*
X20683637Y-60669976D01*
X20568615Y-60497834D01*
X20489389Y-60306565D01*
X20449000Y-60103516D01*
X20449000Y-59896484D01*
X20489389Y-59693435D01*
X20568615Y-59502166D01*
X20683637Y-59330024D01*
X20830024Y-59183637D01*
X21002166Y-59068615D01*
X21193435Y-58989389D01*
X21396484Y-58949000D01*
X21603516Y-58949000D01*
X21806565Y-58989389D01*
X21806565Y-58989389D01*
G37*
G36*
X52610443Y-58665519D02*
X52676627Y-58672037D01*
X52789853Y-58706384D01*
X52846467Y-58723557D01*
X52985087Y-58797652D01*
X53002991Y-58807222D01*
X53038729Y-58836552D01*
X53140186Y-58919814D01*
X53223448Y-59021271D01*
X53252778Y-59057009D01*
X53252779Y-59057011D01*
X53336443Y-59213533D01*
X53336443Y-59213534D01*
X53387963Y-59383373D01*
X53405359Y-59560000D01*
X53387963Y-59736627D01*
X53353616Y-59849853D01*
X53336443Y-59906467D01*
X53262348Y-60045087D01*
X53252778Y-60062991D01*
X53223448Y-60098729D01*
X53140186Y-60200186D01*
X53038729Y-60283448D01*
X53002991Y-60312778D01*
X53002989Y-60312779D01*
X52846467Y-60396443D01*
X52789853Y-60413616D01*
X52676627Y-60447963D01*
X52610442Y-60454482D01*
X52544260Y-60461000D01*
X52455740Y-60461000D01*
X52389558Y-60454482D01*
X52323373Y-60447963D01*
X52210147Y-60413616D01*
X52153533Y-60396443D01*
X51997011Y-60312779D01*
X51997009Y-60312778D01*
X51961271Y-60283448D01*
X51859814Y-60200186D01*
X51776552Y-60098729D01*
X51747222Y-60062991D01*
X51737652Y-60045087D01*
X51663557Y-59906467D01*
X51646384Y-59849853D01*
X51612037Y-59736627D01*
X51594641Y-59560000D01*
X51612037Y-59383373D01*
X51663557Y-59213534D01*
X51663557Y-59213533D01*
X51747221Y-59057011D01*
X51747222Y-59057009D01*
X51776552Y-59021271D01*
X51859814Y-58919814D01*
X51961271Y-58836552D01*
X51997009Y-58807222D01*
X52014913Y-58797652D01*
X52153533Y-58723557D01*
X52210147Y-58706384D01*
X52323373Y-58672037D01*
X52389557Y-58665519D01*
X52455740Y-58659000D01*
X52544260Y-58659000D01*
X52610443Y-58665519D01*
X52610443Y-58665519D01*
G37*
G36*
X36306565Y-56489389D02*
X36497834Y-56568615D01*
X36669976Y-56683637D01*
X36816363Y-56830024D01*
X36931385Y-57002166D01*
X37010611Y-57193435D01*
X37051000Y-57396484D01*
X37051000Y-57603516D01*
X37010611Y-57806565D01*
X36931385Y-57997834D01*
X36816363Y-58169976D01*
X36669976Y-58316363D01*
X36497834Y-58431385D01*
X36306565Y-58510611D01*
X36103516Y-58551000D01*
X35896484Y-58551000D01*
X35693435Y-58510611D01*
X35502166Y-58431385D01*
X35330024Y-58316363D01*
X35183637Y-58169976D01*
X35068615Y-57997834D01*
X34989389Y-57806565D01*
X34949000Y-57603516D01*
X34949000Y-57396484D01*
X34989389Y-57193435D01*
X35068615Y-57002166D01*
X35183637Y-56830024D01*
X35330024Y-56683637D01*
X35502166Y-56568615D01*
X35693435Y-56489389D01*
X35896484Y-56449000D01*
X36103516Y-56449000D01*
X36306565Y-56489389D01*
X36306565Y-56489389D01*
G37*
G36*
X22551000Y-58551000D02*
X20449000Y-58551000D01*
X20449000Y-56449000D01*
X22551000Y-56449000D01*
X22551000Y-58551000D01*
X22551000Y-58551000D01*
G37*
G36*
X52610442Y-56125518D02*
X52676627Y-56132037D01*
X52789853Y-56166384D01*
X52846467Y-56183557D01*
X52985087Y-56257652D01*
X53002991Y-56267222D01*
X53038729Y-56296552D01*
X53140186Y-56379814D01*
X53223448Y-56481271D01*
X53252778Y-56517009D01*
X53252779Y-56517011D01*
X53336443Y-56673533D01*
X53353616Y-56730147D01*
X53387963Y-56843373D01*
X53405359Y-57020000D01*
X53387963Y-57196627D01*
X53353616Y-57309853D01*
X53336443Y-57366467D01*
X53320398Y-57396484D01*
X53252778Y-57522991D01*
X53223448Y-57558729D01*
X53140186Y-57660186D01*
X53038729Y-57743448D01*
X53002991Y-57772778D01*
X53002989Y-57772779D01*
X52846467Y-57856443D01*
X52789853Y-57873616D01*
X52676627Y-57907963D01*
X52610442Y-57914482D01*
X52544260Y-57921000D01*
X52455740Y-57921000D01*
X52389558Y-57914482D01*
X52323373Y-57907963D01*
X52210147Y-57873616D01*
X52153533Y-57856443D01*
X51997011Y-57772779D01*
X51997009Y-57772778D01*
X51961271Y-57743448D01*
X51859814Y-57660186D01*
X51776552Y-57558729D01*
X51747222Y-57522991D01*
X51679602Y-57396484D01*
X51663557Y-57366467D01*
X51646384Y-57309853D01*
X51612037Y-57196627D01*
X51594641Y-57020000D01*
X51612037Y-56843373D01*
X51646384Y-56730147D01*
X51663557Y-56673533D01*
X51747221Y-56517011D01*
X51747222Y-56517009D01*
X51776552Y-56481271D01*
X51859814Y-56379814D01*
X51961271Y-56296552D01*
X51997009Y-56267222D01*
X52014913Y-56257652D01*
X52153533Y-56183557D01*
X52210147Y-56166384D01*
X52323373Y-56132037D01*
X52389558Y-56125518D01*
X52455740Y-56119000D01*
X52544260Y-56119000D01*
X52610442Y-56125518D01*
X52610442Y-56125518D01*
G37*
G36*
X44352527Y-53688736D02*
X44452410Y-53708604D01*
X44734674Y-53825521D01*
X44988705Y-53995259D01*
X45204741Y-54211295D01*
X45374479Y-54465326D01*
X45491396Y-54747590D01*
X45551000Y-55047240D01*
X45551000Y-55352760D01*
X45491396Y-55652410D01*
X45374479Y-55934674D01*
X45204741Y-56188705D01*
X44988705Y-56404741D01*
X44734674Y-56574479D01*
X44452410Y-56691396D01*
X44352527Y-56711264D01*
X44152762Y-56751000D01*
X43847238Y-56751000D01*
X43647473Y-56711264D01*
X43547590Y-56691396D01*
X43265326Y-56574479D01*
X43011295Y-56404741D01*
X42795259Y-56188705D01*
X42625521Y-55934674D01*
X42508604Y-55652410D01*
X42449000Y-55352760D01*
X42449000Y-55047240D01*
X42508604Y-54747590D01*
X42625521Y-54465326D01*
X42795259Y-54211295D01*
X43011295Y-53995259D01*
X43265326Y-53825521D01*
X43547590Y-53708604D01*
X43647473Y-53688736D01*
X43847238Y-53649000D01*
X44152762Y-53649000D01*
X44352527Y-53688736D01*
X44352527Y-53688736D01*
G37*
G36*
X29375256Y-52791298D02*
X29481579Y-52812447D01*
X29782042Y-52936903D01*
X30048852Y-53115180D01*
X30052454Y-53117587D01*
X30282413Y-53347546D01*
X30463098Y-53617960D01*
X30475955Y-53649000D01*
X30549073Y-53825521D01*
X30587553Y-53918422D01*
X30645810Y-54211295D01*
X30651000Y-54237391D01*
X30651000Y-54562609D01*
X30587553Y-54881579D01*
X30463097Y-55182042D01*
X30349025Y-55352762D01*
X30282413Y-55452454D01*
X30052454Y-55682413D01*
X30052451Y-55682415D01*
X29782042Y-55863097D01*
X29481579Y-55987553D01*
X29375256Y-56008702D01*
X29162611Y-56051000D01*
X28837389Y-56051000D01*
X28624744Y-56008702D01*
X28518421Y-55987553D01*
X28217958Y-55863097D01*
X27947549Y-55682415D01*
X27947546Y-55682413D01*
X27717587Y-55452454D01*
X27650975Y-55352762D01*
X27536903Y-55182042D01*
X27412447Y-54881579D01*
X27349000Y-54562609D01*
X27349000Y-54237391D01*
X27354191Y-54211295D01*
X27412447Y-53918422D01*
X27450928Y-53825521D01*
X27524045Y-53649000D01*
X27536902Y-53617960D01*
X27717587Y-53347546D01*
X27947546Y-53117587D01*
X27951148Y-53115180D01*
X28217958Y-52936903D01*
X28518421Y-52812447D01*
X28624744Y-52791298D01*
X28837389Y-52749000D01*
X29162611Y-52749000D01*
X29375256Y-52791298D01*
X29375256Y-52791298D01*
G37*
G36*
X52610442Y-53585518D02*
X52676627Y-53592037D01*
X52789853Y-53626384D01*
X52846467Y-53643557D01*
X52985087Y-53717652D01*
X53002991Y-53727222D01*
X53038729Y-53756552D01*
X53140186Y-53839814D01*
X53204696Y-53918421D01*
X53252778Y-53977009D01*
X53252779Y-53977011D01*
X53336443Y-54133533D01*
X53336443Y-54133534D01*
X53387963Y-54303373D01*
X53405359Y-54480000D01*
X53387963Y-54656627D01*
X53360370Y-54747590D01*
X53336443Y-54826467D01*
X53262348Y-54965087D01*
X53252778Y-54982991D01*
X53223448Y-55018729D01*
X53140186Y-55120186D01*
X53064813Y-55182042D01*
X53002991Y-55232778D01*
X53002989Y-55232779D01*
X52846467Y-55316443D01*
X52789853Y-55333616D01*
X52676627Y-55367963D01*
X52610443Y-55374481D01*
X52544260Y-55381000D01*
X52455740Y-55381000D01*
X52389557Y-55374481D01*
X52323373Y-55367963D01*
X52210147Y-55333616D01*
X52153533Y-55316443D01*
X51997011Y-55232779D01*
X51997009Y-55232778D01*
X51935187Y-55182042D01*
X51859814Y-55120186D01*
X51776552Y-55018729D01*
X51747222Y-54982991D01*
X51737652Y-54965087D01*
X51663557Y-54826467D01*
X51639630Y-54747590D01*
X51612037Y-54656627D01*
X51594641Y-54480000D01*
X51612037Y-54303373D01*
X51663557Y-54133534D01*
X51663557Y-54133533D01*
X51747221Y-53977011D01*
X51747222Y-53977009D01*
X51795304Y-53918421D01*
X51859814Y-53839814D01*
X51961271Y-53756552D01*
X51997009Y-53727222D01*
X52014913Y-53717652D01*
X52153533Y-53643557D01*
X52210147Y-53626384D01*
X52323373Y-53592037D01*
X52389558Y-53585518D01*
X52455740Y-53579000D01*
X52544260Y-53579000D01*
X52610442Y-53585518D01*
X52610442Y-53585518D01*
G37*
G36*
X52610443Y-51045519D02*
X52676627Y-51052037D01*
X52789853Y-51086384D01*
X52846467Y-51103557D01*
X52985087Y-51177652D01*
X53002991Y-51187222D01*
X53038729Y-51216552D01*
X53140186Y-51299814D01*
X53223448Y-51401271D01*
X53252778Y-51437009D01*
X53252779Y-51437011D01*
X53336443Y-51593533D01*
X53336443Y-51593534D01*
X53387963Y-51763373D01*
X53405359Y-51940000D01*
X53387963Y-52116627D01*
X53353616Y-52229853D01*
X53336443Y-52286467D01*
X53262348Y-52425087D01*
X53252778Y-52442991D01*
X53223448Y-52478729D01*
X53140186Y-52580186D01*
X53038729Y-52663448D01*
X53002991Y-52692778D01*
X53002989Y-52692779D01*
X52846467Y-52776443D01*
X52789853Y-52793616D01*
X52676627Y-52827963D01*
X52610443Y-52834481D01*
X52544260Y-52841000D01*
X52455740Y-52841000D01*
X52389558Y-52834482D01*
X52323373Y-52827963D01*
X52210147Y-52793616D01*
X52153533Y-52776443D01*
X51997011Y-52692779D01*
X51997009Y-52692778D01*
X51961271Y-52663448D01*
X51859814Y-52580186D01*
X51776552Y-52478729D01*
X51747222Y-52442991D01*
X51737652Y-52425087D01*
X51663557Y-52286467D01*
X51646384Y-52229853D01*
X51612037Y-52116627D01*
X51594641Y-51940000D01*
X51612037Y-51763373D01*
X51663557Y-51593534D01*
X51663557Y-51593533D01*
X51747221Y-51437011D01*
X51747222Y-51437009D01*
X51776552Y-51401271D01*
X51859814Y-51299814D01*
X51961271Y-51216552D01*
X51997009Y-51187222D01*
X52014913Y-51177652D01*
X52153533Y-51103557D01*
X52210147Y-51086384D01*
X52323373Y-51052037D01*
X52389558Y-51045518D01*
X52455740Y-51039000D01*
X52544260Y-51039000D01*
X52610443Y-51045519D01*
X52610443Y-51045519D01*
G37*
G36*
X44352527Y-48988736D02*
X44452410Y-49008604D01*
X44734674Y-49125521D01*
X44988705Y-49295259D01*
X45204741Y-49511295D01*
X45374479Y-49765326D01*
X45488329Y-50040186D01*
X45491396Y-50047591D01*
X45541803Y-50301000D01*
X45551000Y-50347240D01*
X45551000Y-50652760D01*
X45491396Y-50952410D01*
X45374479Y-51234674D01*
X45204741Y-51488705D01*
X44988705Y-51704741D01*
X44734674Y-51874479D01*
X44452410Y-51991396D01*
X44352527Y-52011264D01*
X44152762Y-52051000D01*
X43847238Y-52051000D01*
X43647473Y-52011264D01*
X43547590Y-51991396D01*
X43265326Y-51874479D01*
X43011295Y-51704741D01*
X42795259Y-51488705D01*
X42625521Y-51234674D01*
X42508604Y-50952410D01*
X42449000Y-50652760D01*
X42449000Y-50347240D01*
X42458198Y-50301000D01*
X42508604Y-50047591D01*
X42511671Y-50040186D01*
X42625521Y-49765326D01*
X42795259Y-49511295D01*
X43011295Y-49295259D01*
X43265326Y-49125521D01*
X43547590Y-49008604D01*
X43647473Y-48988736D01*
X43847238Y-48949000D01*
X44152762Y-48949000D01*
X44352527Y-48988736D01*
X44352527Y-48988736D01*
G37*
G36*
X52610442Y-48505518D02*
X52676627Y-48512037D01*
X52789853Y-48546384D01*
X52846467Y-48563557D01*
X52985087Y-48637652D01*
X53002991Y-48647222D01*
X53038729Y-48676552D01*
X53140186Y-48759814D01*
X53223448Y-48861271D01*
X53252778Y-48897009D01*
X53252779Y-48897011D01*
X53336443Y-49053533D01*
X53336443Y-49053534D01*
X53387963Y-49223373D01*
X53405359Y-49400000D01*
X53387963Y-49576627D01*
X53378984Y-49606227D01*
X53336443Y-49746467D01*
X53326361Y-49765328D01*
X53252778Y-49902991D01*
X53243371Y-49914453D01*
X53140186Y-50040186D01*
X53038729Y-50123448D01*
X53002991Y-50152778D01*
X53002989Y-50152779D01*
X52846467Y-50236443D01*
X52789853Y-50253616D01*
X52676627Y-50287963D01*
X52610442Y-50294482D01*
X52544260Y-50301000D01*
X52455740Y-50301000D01*
X52389558Y-50294482D01*
X52323373Y-50287963D01*
X52210147Y-50253616D01*
X52153533Y-50236443D01*
X51997011Y-50152779D01*
X51997009Y-50152778D01*
X51961271Y-50123448D01*
X51859814Y-50040186D01*
X51756629Y-49914453D01*
X51747222Y-49902991D01*
X51673639Y-49765328D01*
X51663557Y-49746467D01*
X51621016Y-49606227D01*
X51612037Y-49576627D01*
X51594641Y-49400000D01*
X51612037Y-49223373D01*
X51663557Y-49053534D01*
X51663557Y-49053533D01*
X51747221Y-48897011D01*
X51747222Y-48897009D01*
X51776552Y-48861271D01*
X51859814Y-48759814D01*
X51961271Y-48676552D01*
X51997009Y-48647222D01*
X52014913Y-48637652D01*
X52153533Y-48563557D01*
X52210147Y-48546384D01*
X52323373Y-48512037D01*
X52389558Y-48505518D01*
X52455740Y-48499000D01*
X52544260Y-48499000D01*
X52610442Y-48505518D01*
X52610442Y-48505518D01*
G37*
G36*
X18451000Y-49951000D02*
X16549000Y-49951000D01*
X16549000Y-48049000D01*
X18451000Y-48049000D01*
X18451000Y-49951000D01*
X18451000Y-49951000D01*
G37*
G36*
X20317396Y-48085546D02*
X20490466Y-48157234D01*
X20646230Y-48261312D01*
X20778688Y-48393770D01*
X20882766Y-48549534D01*
X20954454Y-48722604D01*
X20991000Y-48906333D01*
X20991000Y-49093667D01*
X20954454Y-49277396D01*
X20882766Y-49450466D01*
X20778688Y-49606230D01*
X20646230Y-49738688D01*
X20490466Y-49842766D01*
X20317396Y-49914454D01*
X20133667Y-49951000D01*
X19946333Y-49951000D01*
X19762604Y-49914454D01*
X19589534Y-49842766D01*
X19433770Y-49738688D01*
X19301312Y-49606230D01*
X19197234Y-49450466D01*
X19125546Y-49277396D01*
X19089000Y-49093667D01*
X19089000Y-48906333D01*
X19125546Y-48722604D01*
X19197234Y-48549534D01*
X19301312Y-48393770D01*
X19433770Y-48261312D01*
X19589534Y-48157234D01*
X19762604Y-48085546D01*
X19946333Y-48049000D01*
X20133667Y-48049000D01*
X20317396Y-48085546D01*
X20317396Y-48085546D01*
G37*
G36*
X52610443Y-45965519D02*
X52676627Y-45972037D01*
X52789853Y-46006384D01*
X52846467Y-46023557D01*
X52985087Y-46097652D01*
X53002991Y-46107222D01*
X53038729Y-46136552D01*
X53140186Y-46219814D01*
X53204214Y-46297834D01*
X53252778Y-46357009D01*
X53252779Y-46357011D01*
X53336443Y-46513533D01*
X53336443Y-46513534D01*
X53387963Y-46683373D01*
X53405359Y-46860000D01*
X53387963Y-47036627D01*
X53353616Y-47149853D01*
X53336443Y-47206467D01*
X53291047Y-47291396D01*
X53252778Y-47362991D01*
X53223448Y-47398729D01*
X53140186Y-47500186D01*
X53038729Y-47583448D01*
X53002991Y-47612778D01*
X53002989Y-47612779D01*
X52846467Y-47696443D01*
X52789853Y-47713616D01*
X52676627Y-47747963D01*
X52610442Y-47754482D01*
X52544260Y-47761000D01*
X52455740Y-47761000D01*
X52389557Y-47754481D01*
X52323373Y-47747963D01*
X52210147Y-47713616D01*
X52153533Y-47696443D01*
X51997011Y-47612779D01*
X51997009Y-47612778D01*
X51961271Y-47583448D01*
X51859814Y-47500186D01*
X51776552Y-47398729D01*
X51747222Y-47362991D01*
X51708953Y-47291396D01*
X51663557Y-47206467D01*
X51646384Y-47149853D01*
X51612037Y-47036627D01*
X51594641Y-46860000D01*
X51612037Y-46683373D01*
X51663557Y-46513534D01*
X51663557Y-46513533D01*
X51747221Y-46357011D01*
X51747222Y-46357009D01*
X51795786Y-46297834D01*
X51859814Y-46219814D01*
X51961271Y-46136552D01*
X51997009Y-46107222D01*
X52014913Y-46097652D01*
X52153533Y-46023557D01*
X52210147Y-46006384D01*
X52323373Y-45972037D01*
X52389557Y-45965519D01*
X52455740Y-45959000D01*
X52544260Y-45959000D01*
X52610443Y-45965519D01*
X52610443Y-45965519D01*
G37*
G36*
X44352527Y-44288736D02*
X44452410Y-44308604D01*
X44734674Y-44425521D01*
X44988705Y-44595259D01*
X45204741Y-44811295D01*
X45374479Y-45065326D01*
X45491396Y-45347590D01*
X45551000Y-45647240D01*
X45551000Y-45952760D01*
X45491396Y-46252410D01*
X45374479Y-46534674D01*
X45204741Y-46788705D01*
X44988705Y-47004741D01*
X44734674Y-47174479D01*
X44452410Y-47291396D01*
X44352527Y-47311264D01*
X44152762Y-47351000D01*
X43847238Y-47351000D01*
X43647473Y-47311264D01*
X43547590Y-47291396D01*
X43265326Y-47174479D01*
X43011295Y-47004741D01*
X42795259Y-46788705D01*
X42625521Y-46534674D01*
X42508604Y-46252410D01*
X42449000Y-45952760D01*
X42449000Y-45647240D01*
X42508604Y-45347590D01*
X42625521Y-45065326D01*
X42795259Y-44811295D01*
X43011295Y-44595259D01*
X43265326Y-44425521D01*
X43547590Y-44308604D01*
X43647473Y-44288736D01*
X43847238Y-44249000D01*
X44152762Y-44249000D01*
X44352527Y-44288736D01*
X44352527Y-44288736D01*
G37*
G36*
X29306565Y-44789389D02*
X29497834Y-44868615D01*
X29669976Y-44983637D01*
X29816363Y-45130024D01*
X29931385Y-45302166D01*
X30010611Y-45493435D01*
X30051000Y-45696484D01*
X30051000Y-45903516D01*
X30010611Y-46106565D01*
X29931385Y-46297834D01*
X29816363Y-46469976D01*
X29669976Y-46616363D01*
X29497834Y-46731385D01*
X29306565Y-46810611D01*
X29103516Y-46851000D01*
X28896484Y-46851000D01*
X28693435Y-46810611D01*
X28502166Y-46731385D01*
X28330024Y-46616363D01*
X28183637Y-46469976D01*
X28068615Y-46297834D01*
X27989389Y-46106565D01*
X27949000Y-45903516D01*
X27949000Y-45696484D01*
X27989389Y-45493435D01*
X28068615Y-45302166D01*
X28183637Y-45130024D01*
X28330024Y-44983637D01*
X28502166Y-44868615D01*
X28693435Y-44789389D01*
X28896484Y-44749000D01*
X29103516Y-44749000D01*
X29306565Y-44789389D01*
X29306565Y-44789389D01*
G37*
G36*
X52610442Y-43425518D02*
X52676627Y-43432037D01*
X52760630Y-43457519D01*
X52846467Y-43483557D01*
X52985087Y-43557652D01*
X53002991Y-43567222D01*
X53038729Y-43596552D01*
X53140186Y-43679814D01*
X53223448Y-43781271D01*
X53252778Y-43817009D01*
X53252779Y-43817011D01*
X53336443Y-43973533D01*
X53336443Y-43973534D01*
X53387963Y-44143373D01*
X53405359Y-44320000D01*
X53387963Y-44496627D01*
X53374053Y-44542481D01*
X53336443Y-44666467D01*
X53289577Y-44754146D01*
X53252778Y-44822991D01*
X53229791Y-44851000D01*
X53140186Y-44960186D01*
X53038729Y-45043448D01*
X53002991Y-45072778D01*
X53002989Y-45072779D01*
X52846467Y-45156443D01*
X52789853Y-45173616D01*
X52676627Y-45207963D01*
X52610442Y-45214482D01*
X52544260Y-45221000D01*
X52455740Y-45221000D01*
X52389558Y-45214482D01*
X52323373Y-45207963D01*
X52210147Y-45173616D01*
X52153533Y-45156443D01*
X51997011Y-45072779D01*
X51997009Y-45072778D01*
X51961271Y-45043448D01*
X51859814Y-44960186D01*
X51770209Y-44851000D01*
X51747222Y-44822991D01*
X51710423Y-44754146D01*
X51663557Y-44666467D01*
X51625947Y-44542481D01*
X51612037Y-44496627D01*
X51594641Y-44320000D01*
X51612037Y-44143373D01*
X51663557Y-43973534D01*
X51663557Y-43973533D01*
X51747221Y-43817011D01*
X51747222Y-43817009D01*
X51776552Y-43781271D01*
X51859814Y-43679814D01*
X51961271Y-43596552D01*
X51997009Y-43567222D01*
X52014913Y-43557652D01*
X52153533Y-43483557D01*
X52239370Y-43457519D01*
X52323373Y-43432037D01*
X52389558Y-43425518D01*
X52455740Y-43419000D01*
X52544260Y-43419000D01*
X52610442Y-43425518D01*
X52610442Y-43425518D01*
G37*
G36*
X18248228Y-43181703D02*
X18403100Y-43245853D01*
X18542481Y-43338985D01*
X18661015Y-43457519D01*
X18754147Y-43596900D01*
X18818297Y-43751772D01*
X18851000Y-43916184D01*
X18851000Y-44083816D01*
X18818297Y-44248228D01*
X18754147Y-44403100D01*
X18661015Y-44542481D01*
X18542481Y-44661015D01*
X18403100Y-44754147D01*
X18248228Y-44818297D01*
X18083816Y-44851000D01*
X17916184Y-44851000D01*
X17751772Y-44818297D01*
X17596900Y-44754147D01*
X17457519Y-44661015D01*
X17338985Y-44542481D01*
X17245853Y-44403100D01*
X17181703Y-44248228D01*
X17149000Y-44083816D01*
X17149000Y-43916184D01*
X17181703Y-43751772D01*
X17245853Y-43596900D01*
X17338985Y-43457519D01*
X17457519Y-43338985D01*
X17596900Y-43245853D01*
X17751772Y-43181703D01*
X17916184Y-43149000D01*
X18083816Y-43149000D01*
X18248228Y-43181703D01*
X18248228Y-43181703D01*
G37*
G36*
X36704472Y-42825938D02*
X36832049Y-42878782D01*
X36946865Y-42955500D01*
X37044500Y-43053135D01*
X37121218Y-43167951D01*
X37174062Y-43295528D01*
X37201000Y-43430956D01*
X37201000Y-43569044D01*
X37174062Y-43704472D01*
X37121218Y-43832049D01*
X37044500Y-43946865D01*
X36946865Y-44044500D01*
X36832049Y-44121218D01*
X36704472Y-44174062D01*
X36569044Y-44201000D01*
X36430956Y-44201000D01*
X36295528Y-44174062D01*
X36167951Y-44121218D01*
X36053135Y-44044500D01*
X35955500Y-43946865D01*
X35878782Y-43832049D01*
X35825938Y-43704472D01*
X35799000Y-43569044D01*
X35799000Y-43430956D01*
X35825938Y-43295528D01*
X35878782Y-43167951D01*
X35955500Y-43053135D01*
X36053135Y-42955500D01*
X36167951Y-42878782D01*
X36295528Y-42825938D01*
X36430956Y-42799000D01*
X36569044Y-42799000D01*
X36704472Y-42825938D01*
X36704472Y-42825938D01*
G37*
G36*
X52610442Y-40885518D02*
X52676627Y-40892037D01*
X52789853Y-40926384D01*
X52846467Y-40943557D01*
X52985087Y-41017652D01*
X53002991Y-41027222D01*
X53038729Y-41056552D01*
X53140186Y-41139814D01*
X53193250Y-41204474D01*
X53252778Y-41277009D01*
X53252779Y-41277011D01*
X53336443Y-41433533D01*
X53336443Y-41433534D01*
X53387963Y-41603373D01*
X53405359Y-41780000D01*
X53387963Y-41956627D01*
X53353616Y-42069853D01*
X53336443Y-42126467D01*
X53262348Y-42265087D01*
X53252778Y-42282991D01*
X53223448Y-42318729D01*
X53140186Y-42420186D01*
X53038729Y-42503448D01*
X53002991Y-42532778D01*
X53002989Y-42532779D01*
X52846467Y-42616443D01*
X52789853Y-42633616D01*
X52676627Y-42667963D01*
X52610443Y-42674481D01*
X52544260Y-42681000D01*
X52455740Y-42681000D01*
X52389557Y-42674481D01*
X52323373Y-42667963D01*
X52210147Y-42633616D01*
X52153533Y-42616443D01*
X51997011Y-42532779D01*
X51997009Y-42532778D01*
X51961271Y-42503448D01*
X51859814Y-42420186D01*
X51776552Y-42318729D01*
X51747222Y-42282991D01*
X51737652Y-42265087D01*
X51663557Y-42126467D01*
X51646384Y-42069853D01*
X51612037Y-41956627D01*
X51594641Y-41780000D01*
X51612037Y-41603373D01*
X51663557Y-41433534D01*
X51663557Y-41433533D01*
X51747221Y-41277011D01*
X51747222Y-41277009D01*
X51806750Y-41204474D01*
X51859814Y-41139814D01*
X51961271Y-41056552D01*
X51997009Y-41027222D01*
X52014913Y-41017652D01*
X52153533Y-40943557D01*
X52210147Y-40926384D01*
X52323373Y-40892037D01*
X52389558Y-40885518D01*
X52455740Y-40879000D01*
X52544260Y-40879000D01*
X52610442Y-40885518D01*
X52610442Y-40885518D01*
G37*
G36*
X36704472Y-40325938D02*
X36832049Y-40378782D01*
X36946865Y-40455500D01*
X37044500Y-40553135D01*
X37121218Y-40667951D01*
X37174062Y-40795528D01*
X37201000Y-40930956D01*
X37201000Y-41069044D01*
X37174062Y-41204472D01*
X37121218Y-41332049D01*
X37044500Y-41446865D01*
X36946865Y-41544500D01*
X36832049Y-41621218D01*
X36704472Y-41674062D01*
X36569044Y-41701000D01*
X36430956Y-41701000D01*
X36295528Y-41674062D01*
X36167951Y-41621218D01*
X36053135Y-41544500D01*
X35955500Y-41446865D01*
X35878782Y-41332049D01*
X35825938Y-41204472D01*
X35799000Y-41069044D01*
X35799000Y-40930956D01*
X35825938Y-40795528D01*
X35878782Y-40667951D01*
X35955500Y-40553135D01*
X36053135Y-40455500D01*
X36167951Y-40378782D01*
X36295528Y-40325938D01*
X36430956Y-40299000D01*
X36569044Y-40299000D01*
X36704472Y-40325938D01*
X36704472Y-40325938D01*
G37*
G36*
X52610442Y-38345518D02*
X52676627Y-38352037D01*
X52789853Y-38386384D01*
X52846467Y-38403557D01*
X52985087Y-38477652D01*
X53002991Y-38487222D01*
X53038729Y-38516552D01*
X53140186Y-38599814D01*
X53223448Y-38701271D01*
X53252778Y-38737009D01*
X53252779Y-38737011D01*
X53336443Y-38893533D01*
X53336443Y-38893534D01*
X53387963Y-39063373D01*
X53405359Y-39240000D01*
X53387963Y-39416627D01*
X53353616Y-39529853D01*
X53336443Y-39586467D01*
X53262348Y-39725087D01*
X53252778Y-39742991D01*
X53223448Y-39778729D01*
X53140186Y-39880186D01*
X53038729Y-39963448D01*
X53002991Y-39992778D01*
X53002989Y-39992779D01*
X52846467Y-40076443D01*
X52789853Y-40093616D01*
X52676627Y-40127963D01*
X52610442Y-40134482D01*
X52544260Y-40141000D01*
X52455740Y-40141000D01*
X52389558Y-40134482D01*
X52323373Y-40127963D01*
X52210147Y-40093616D01*
X52153533Y-40076443D01*
X51997011Y-39992779D01*
X51997009Y-39992778D01*
X51961271Y-39963448D01*
X51859814Y-39880186D01*
X51776552Y-39778729D01*
X51747222Y-39742991D01*
X51737652Y-39725087D01*
X51663557Y-39586467D01*
X51646384Y-39529853D01*
X51612037Y-39416627D01*
X51594641Y-39240000D01*
X51612037Y-39063373D01*
X51663557Y-38893534D01*
X51663557Y-38893533D01*
X51747221Y-38737011D01*
X51747222Y-38737009D01*
X51776552Y-38701271D01*
X51859814Y-38599814D01*
X51961271Y-38516552D01*
X51997009Y-38487222D01*
X52014913Y-38477652D01*
X52153533Y-38403557D01*
X52210147Y-38386384D01*
X52323373Y-38352037D01*
X52389558Y-38345518D01*
X52455740Y-38339000D01*
X52544260Y-38339000D01*
X52610442Y-38345518D01*
X52610442Y-38345518D01*
G37*
G36*
X36704472Y-37825938D02*
X36832049Y-37878782D01*
X36946865Y-37955500D01*
X37044500Y-38053135D01*
X37121218Y-38167951D01*
X37174062Y-38295528D01*
X37201000Y-38430956D01*
X37201000Y-38569044D01*
X37174062Y-38704472D01*
X37121218Y-38832049D01*
X37044500Y-38946865D01*
X36946865Y-39044500D01*
X36832049Y-39121218D01*
X36704472Y-39174062D01*
X36569044Y-39201000D01*
X36430956Y-39201000D01*
X36295528Y-39174062D01*
X36167951Y-39121218D01*
X36053135Y-39044500D01*
X35955500Y-38946865D01*
X35878782Y-38832049D01*
X35825938Y-38704472D01*
X35799000Y-38569044D01*
X35799000Y-38430956D01*
X35825938Y-38295528D01*
X35878782Y-38167951D01*
X35955500Y-38053135D01*
X36053135Y-37955500D01*
X36167951Y-37878782D01*
X36295528Y-37825938D01*
X36430956Y-37799000D01*
X36569044Y-37799000D01*
X36704472Y-37825938D01*
X36704472Y-37825938D01*
G37*
G36*
X44302002Y-34678686D02*
X44452410Y-34708604D01*
X44734674Y-34825521D01*
X44988705Y-34995259D01*
X45204741Y-35211295D01*
X45374479Y-35465326D01*
X45491396Y-35747590D01*
X45491396Y-35747591D01*
X45551000Y-36047238D01*
X45551000Y-36352762D01*
X45550846Y-36353534D01*
X45491396Y-36652410D01*
X45374479Y-36934674D01*
X45204741Y-37188705D01*
X44988705Y-37404741D01*
X44734674Y-37574479D01*
X44452410Y-37691396D01*
X44352527Y-37711264D01*
X44152762Y-37751000D01*
X43847238Y-37751000D01*
X43647473Y-37711264D01*
X43547590Y-37691396D01*
X43265326Y-37574479D01*
X43011295Y-37404741D01*
X42795259Y-37188705D01*
X42625521Y-36934674D01*
X42508604Y-36652410D01*
X42449154Y-36353534D01*
X42449000Y-36352762D01*
X42449000Y-36047238D01*
X42508604Y-35747591D01*
X42508604Y-35747590D01*
X42625521Y-35465326D01*
X42795259Y-35211295D01*
X43011295Y-34995259D01*
X43265326Y-34825521D01*
X43547590Y-34708604D01*
X43697998Y-34678686D01*
X43847238Y-34649000D01*
X44152762Y-34649000D01*
X44302002Y-34678686D01*
X44302002Y-34678686D01*
G37*
G36*
X52610442Y-35805518D02*
X52676627Y-35812037D01*
X52789853Y-35846384D01*
X52846467Y-35863557D01*
X52985087Y-35937652D01*
X53002991Y-35947222D01*
X53038729Y-35976552D01*
X53140186Y-36059814D01*
X53223448Y-36161271D01*
X53252778Y-36197009D01*
X53252779Y-36197011D01*
X53336443Y-36353533D01*
X53336443Y-36353534D01*
X53387963Y-36523373D01*
X53405359Y-36700000D01*
X53387963Y-36876627D01*
X53353616Y-36989853D01*
X53336443Y-37046467D01*
X53262348Y-37185087D01*
X53252778Y-37202991D01*
X53246525Y-37210610D01*
X53140186Y-37340186D01*
X53061524Y-37404741D01*
X53002991Y-37452778D01*
X53002989Y-37452779D01*
X52846467Y-37536443D01*
X52789853Y-37553616D01*
X52676627Y-37587963D01*
X52610442Y-37594482D01*
X52544260Y-37601000D01*
X52455740Y-37601000D01*
X52389558Y-37594482D01*
X52323373Y-37587963D01*
X52210147Y-37553616D01*
X52153533Y-37536443D01*
X51997011Y-37452779D01*
X51997009Y-37452778D01*
X51938476Y-37404741D01*
X51859814Y-37340186D01*
X51753475Y-37210610D01*
X51747222Y-37202991D01*
X51737652Y-37185087D01*
X51663557Y-37046467D01*
X51646384Y-36989853D01*
X51612037Y-36876627D01*
X51594641Y-36700000D01*
X51612037Y-36523373D01*
X51663557Y-36353534D01*
X51663557Y-36353533D01*
X51747221Y-36197011D01*
X51747222Y-36197009D01*
X51776552Y-36161271D01*
X51859814Y-36059814D01*
X51961271Y-35976552D01*
X51997009Y-35947222D01*
X52014913Y-35937652D01*
X52153533Y-35863557D01*
X52210147Y-35846384D01*
X52323373Y-35812037D01*
X52389558Y-35805518D01*
X52455740Y-35799000D01*
X52544260Y-35799000D01*
X52610442Y-35805518D01*
X52610442Y-35805518D01*
G37*
G36*
X29306565Y-35189389D02*
X29497834Y-35268615D01*
X29669976Y-35383637D01*
X29816363Y-35530024D01*
X29931385Y-35702166D01*
X30010611Y-35893435D01*
X30051000Y-36096484D01*
X30051000Y-36303516D01*
X30010611Y-36506565D01*
X29931385Y-36697834D01*
X29816363Y-36869976D01*
X29669976Y-37016363D01*
X29497834Y-37131385D01*
X29306565Y-37210611D01*
X29103516Y-37251000D01*
X28896484Y-37251000D01*
X28693435Y-37210611D01*
X28502166Y-37131385D01*
X28330024Y-37016363D01*
X28183637Y-36869976D01*
X28068615Y-36697834D01*
X27989389Y-36506565D01*
X27949000Y-36303516D01*
X27949000Y-36096484D01*
X27989389Y-35893435D01*
X28068615Y-35702166D01*
X28183637Y-35530024D01*
X28330024Y-35383637D01*
X28502166Y-35268615D01*
X28693435Y-35189389D01*
X28896484Y-35149000D01*
X29103516Y-35149000D01*
X29306565Y-35189389D01*
X29306565Y-35189389D01*
G37*
G36*
X52610442Y-33265518D02*
X52676627Y-33272037D01*
X52789853Y-33306384D01*
X52846467Y-33323557D01*
X52923854Y-33364922D01*
X53002991Y-33407222D01*
X53013911Y-33416184D01*
X53140186Y-33519814D01*
X53192710Y-33583816D01*
X53252778Y-33657009D01*
X53252779Y-33657011D01*
X53336443Y-33813533D01*
X53353616Y-33870147D01*
X53387963Y-33983373D01*
X53405359Y-34160000D01*
X53387963Y-34336627D01*
X53355192Y-34444659D01*
X53336443Y-34506467D01*
X53270400Y-34630023D01*
X53252778Y-34662991D01*
X53229791Y-34691000D01*
X53140186Y-34800186D01*
X53038729Y-34883448D01*
X53002991Y-34912778D01*
X53002989Y-34912779D01*
X52846467Y-34996443D01*
X52789853Y-35013616D01*
X52676627Y-35047963D01*
X52610442Y-35054482D01*
X52544260Y-35061000D01*
X52455740Y-35061000D01*
X52389558Y-35054482D01*
X52323373Y-35047963D01*
X52210147Y-35013616D01*
X52153533Y-34996443D01*
X51997011Y-34912779D01*
X51997009Y-34912778D01*
X51961271Y-34883448D01*
X51859814Y-34800186D01*
X51770209Y-34691000D01*
X51747222Y-34662991D01*
X51729600Y-34630023D01*
X51663557Y-34506467D01*
X51644808Y-34444659D01*
X51612037Y-34336627D01*
X51594641Y-34160000D01*
X51612037Y-33983373D01*
X51646384Y-33870147D01*
X51663557Y-33813533D01*
X51747221Y-33657011D01*
X51747222Y-33657009D01*
X51807290Y-33583816D01*
X51859814Y-33519814D01*
X51986089Y-33416184D01*
X51997009Y-33407222D01*
X52076146Y-33364922D01*
X52153533Y-33323557D01*
X52210147Y-33306384D01*
X52323373Y-33272037D01*
X52389558Y-33265518D01*
X52455740Y-33259000D01*
X52544260Y-33259000D01*
X52610442Y-33265518D01*
X52610442Y-33265518D01*
G37*
G36*
X18166821Y-33001313D02*
X18166824Y-33001314D01*
X18166825Y-33001314D01*
X18327239Y-33049975D01*
X18327241Y-33049976D01*
X18327244Y-33049977D01*
X18475078Y-33128995D01*
X18604659Y-33235341D01*
X18711005Y-33364922D01*
X18790023Y-33512756D01*
X18790024Y-33512759D01*
X18790025Y-33512761D01*
X18836760Y-33666825D01*
X18838687Y-33673179D01*
X18855117Y-33840000D01*
X18838687Y-34006821D01*
X18838686Y-34006824D01*
X18838686Y-34006825D01*
X18792221Y-34160000D01*
X18790023Y-34167244D01*
X18711005Y-34315078D01*
X18604659Y-34444659D01*
X18475078Y-34551005D01*
X18327244Y-34630023D01*
X18327241Y-34630024D01*
X18327239Y-34630025D01*
X18166825Y-34678686D01*
X18166824Y-34678686D01*
X18166821Y-34678687D01*
X18041804Y-34691000D01*
X17958196Y-34691000D01*
X17833179Y-34678687D01*
X17833176Y-34678686D01*
X17833175Y-34678686D01*
X17672761Y-34630025D01*
X17672759Y-34630024D01*
X17672756Y-34630023D01*
X17524922Y-34551005D01*
X17395341Y-34444659D01*
X17288995Y-34315078D01*
X17209977Y-34167244D01*
X17207780Y-34160000D01*
X17161314Y-34006825D01*
X17161314Y-34006824D01*
X17161313Y-34006821D01*
X17144883Y-33840000D01*
X17161313Y-33673179D01*
X17163240Y-33666825D01*
X17209975Y-33512761D01*
X17209976Y-33512759D01*
X17209977Y-33512756D01*
X17288995Y-33364922D01*
X17395341Y-33235341D01*
X17524922Y-33128995D01*
X17672756Y-33049977D01*
X17672759Y-33049976D01*
X17672761Y-33049975D01*
X17833175Y-33001314D01*
X17833176Y-33001314D01*
X17833179Y-33001313D01*
X17958196Y-32989000D01*
X18041804Y-32989000D01*
X18166821Y-33001313D01*
X18166821Y-33001313D01*
G37*
G36*
X22748228Y-32681703D02*
X22903100Y-32745853D01*
X23042481Y-32838985D01*
X23161015Y-32957519D01*
X23254147Y-33096900D01*
X23318297Y-33251772D01*
X23351000Y-33416184D01*
X23351000Y-33583816D01*
X23318297Y-33748228D01*
X23254147Y-33903100D01*
X23161015Y-34042481D01*
X23042481Y-34161015D01*
X22903100Y-34254147D01*
X22748228Y-34318297D01*
X22583816Y-34351000D01*
X22416184Y-34351000D01*
X22251772Y-34318297D01*
X22096900Y-34254147D01*
X21957519Y-34161015D01*
X21838985Y-34042481D01*
X21745853Y-33903100D01*
X21681703Y-33748228D01*
X21649000Y-33583816D01*
X21649000Y-33416184D01*
X21681703Y-33251772D01*
X21745853Y-33096900D01*
X21838985Y-32957519D01*
X21957519Y-32838985D01*
X22096900Y-32745853D01*
X22251772Y-32681703D01*
X22416184Y-32649000D01*
X22583816Y-32649000D01*
X22748228Y-32681703D01*
X22748228Y-32681703D01*
G37*
G36*
X32826821Y-32661313D02*
X32826824Y-32661314D01*
X32826825Y-32661314D01*
X32987239Y-32709975D01*
X32987241Y-32709976D01*
X32987244Y-32709977D01*
X33135078Y-32788995D01*
X33264659Y-32895341D01*
X33371005Y-33024922D01*
X33450023Y-33172756D01*
X33450024Y-33172759D01*
X33450025Y-33172761D01*
X33476185Y-33259000D01*
X33498687Y-33333179D01*
X33515117Y-33500000D01*
X33498687Y-33666821D01*
X33498686Y-33666824D01*
X33498686Y-33666825D01*
X33454183Y-33813533D01*
X33450023Y-33827244D01*
X33371005Y-33975078D01*
X33264659Y-34104659D01*
X33135078Y-34211005D01*
X32987244Y-34290023D01*
X32987241Y-34290024D01*
X32987239Y-34290025D01*
X32826825Y-34338686D01*
X32826824Y-34338686D01*
X32826821Y-34338687D01*
X32701804Y-34351000D01*
X32618196Y-34351000D01*
X32493179Y-34338687D01*
X32493176Y-34338686D01*
X32493175Y-34338686D01*
X32332761Y-34290025D01*
X32332759Y-34290024D01*
X32332756Y-34290023D01*
X32184922Y-34211005D01*
X32055341Y-34104659D01*
X31948995Y-33975078D01*
X31869977Y-33827244D01*
X31865818Y-33813533D01*
X31821314Y-33666825D01*
X31821314Y-33666824D01*
X31821313Y-33666821D01*
X31804883Y-33500000D01*
X31821313Y-33333179D01*
X31843815Y-33259000D01*
X31869975Y-33172761D01*
X31869976Y-33172759D01*
X31869977Y-33172756D01*
X31948995Y-33024922D01*
X32055341Y-32895341D01*
X32184922Y-32788995D01*
X32332756Y-32709977D01*
X32332759Y-32709976D01*
X32332761Y-32709975D01*
X32493175Y-32661314D01*
X32493176Y-32661314D01*
X32493179Y-32661313D01*
X32618196Y-32649000D01*
X32701804Y-32649000D01*
X32826821Y-32661313D01*
X32826821Y-32661313D01*
G37*
G36*
X44313635Y-29981000D02*
X44452410Y-30008604D01*
X44734674Y-30125521D01*
X44988705Y-30295259D01*
X45204741Y-30511295D01*
X45374479Y-30765326D01*
X45491396Y-31047590D01*
X45551000Y-31347240D01*
X45551000Y-31652760D01*
X45491396Y-31952410D01*
X45374479Y-32234674D01*
X45204741Y-32488705D01*
X44988705Y-32704741D01*
X44734674Y-32874479D01*
X44452410Y-32991396D01*
X44352527Y-33011264D01*
X44152762Y-33051000D01*
X43847238Y-33051000D01*
X43647473Y-33011264D01*
X43547590Y-32991396D01*
X43265326Y-32874479D01*
X43011295Y-32704741D01*
X42795259Y-32488705D01*
X42625521Y-32234674D01*
X42508604Y-31952410D01*
X42449000Y-31652760D01*
X42449000Y-31347240D01*
X42508604Y-31047590D01*
X42625521Y-30765326D01*
X42795259Y-30511295D01*
X43011295Y-30295259D01*
X43265326Y-30125521D01*
X43547590Y-30008604D01*
X43686365Y-29981000D01*
X43847238Y-29949000D01*
X44152762Y-29949000D01*
X44313635Y-29981000D01*
X44313635Y-29981000D01*
G37*
G36*
X52610442Y-30725518D02*
X52676627Y-30732037D01*
X52786366Y-30765326D01*
X52846467Y-30783557D01*
X52972642Y-30851000D01*
X53002991Y-30867222D01*
X53038729Y-30896552D01*
X53140186Y-30979814D01*
X53195808Y-31047591D01*
X53252778Y-31117009D01*
X53252779Y-31117011D01*
X53336443Y-31273533D01*
X53336443Y-31273534D01*
X53387963Y-31443373D01*
X53405359Y-31620000D01*
X53387963Y-31796627D01*
X53353616Y-31909853D01*
X53336443Y-31966467D01*
X53262348Y-32105087D01*
X53252778Y-32122991D01*
X53223448Y-32158729D01*
X53140186Y-32260186D01*
X53038729Y-32343448D01*
X53002991Y-32372778D01*
X53002989Y-32372779D01*
X52846467Y-32456443D01*
X52789853Y-32473616D01*
X52676627Y-32507963D01*
X52610442Y-32514482D01*
X52544260Y-32521000D01*
X52455740Y-32521000D01*
X52389558Y-32514482D01*
X52323373Y-32507963D01*
X52210147Y-32473616D01*
X52153533Y-32456443D01*
X51997011Y-32372779D01*
X51997009Y-32372778D01*
X51961271Y-32343448D01*
X51859814Y-32260186D01*
X51776552Y-32158729D01*
X51747222Y-32122991D01*
X51737652Y-32105087D01*
X51663557Y-31966467D01*
X51646384Y-31909853D01*
X51612037Y-31796627D01*
X51594641Y-31620000D01*
X51612037Y-31443373D01*
X51663557Y-31273534D01*
X51663557Y-31273533D01*
X51747221Y-31117011D01*
X51747222Y-31117009D01*
X51804192Y-31047591D01*
X51859814Y-30979814D01*
X51961271Y-30896552D01*
X51997009Y-30867222D01*
X52027358Y-30851000D01*
X52153533Y-30783557D01*
X52213634Y-30765326D01*
X52323373Y-30732037D01*
X52389558Y-30725518D01*
X52455740Y-30719000D01*
X52544260Y-30719000D01*
X52610442Y-30725518D01*
X52610442Y-30725518D01*
G37*
G36*
X18451000Y-30951000D02*
X16549000Y-30951000D01*
X16549000Y-29049000D01*
X18451000Y-29049000D01*
X18451000Y-30951000D01*
X18451000Y-30951000D01*
G37*
G36*
X20317396Y-29085546D02*
X20490466Y-29157234D01*
X20646230Y-29261312D01*
X20778688Y-29393770D01*
X20882766Y-29549534D01*
X20954454Y-29722604D01*
X20991000Y-29906333D01*
X20991000Y-30093667D01*
X20954454Y-30277396D01*
X20882766Y-30450466D01*
X20778688Y-30606230D01*
X20646230Y-30738688D01*
X20490466Y-30842766D01*
X20317396Y-30914454D01*
X20133667Y-30951000D01*
X19946333Y-30951000D01*
X19762604Y-30914454D01*
X19589534Y-30842766D01*
X19433770Y-30738688D01*
X19301312Y-30606230D01*
X19197234Y-30450466D01*
X19125546Y-30277396D01*
X19089000Y-30093667D01*
X19089000Y-29906333D01*
X19125546Y-29722604D01*
X19197234Y-29549534D01*
X19301312Y-29393770D01*
X19433770Y-29261312D01*
X19589534Y-29157234D01*
X19762604Y-29085546D01*
X19946333Y-29049000D01*
X20133667Y-29049000D01*
X20317396Y-29085546D01*
X20317396Y-29085546D01*
G37*
G36*
X32826821Y-29161313D02*
X32826824Y-29161314D01*
X32826825Y-29161314D01*
X32987239Y-29209975D01*
X32987241Y-29209976D01*
X32987244Y-29209977D01*
X33135078Y-29288995D01*
X33264659Y-29395341D01*
X33371005Y-29524922D01*
X33450023Y-29672756D01*
X33450024Y-29672759D01*
X33450025Y-29672761D01*
X33498566Y-29832779D01*
X33498687Y-29833179D01*
X33515117Y-30000000D01*
X33498687Y-30166821D01*
X33498686Y-30166824D01*
X33498686Y-30166825D01*
X33465145Y-30277396D01*
X33450023Y-30327244D01*
X33371005Y-30475078D01*
X33264659Y-30604659D01*
X33135078Y-30711005D01*
X32987244Y-30790023D01*
X32987241Y-30790024D01*
X32987239Y-30790025D01*
X32826825Y-30838686D01*
X32826824Y-30838686D01*
X32826821Y-30838687D01*
X32701804Y-30851000D01*
X32618196Y-30851000D01*
X32493179Y-30838687D01*
X32493176Y-30838686D01*
X32493175Y-30838686D01*
X32332761Y-30790025D01*
X32332759Y-30790024D01*
X32332756Y-30790023D01*
X32184922Y-30711005D01*
X32055341Y-30604659D01*
X31948995Y-30475078D01*
X31869977Y-30327244D01*
X31854856Y-30277396D01*
X31821314Y-30166825D01*
X31821314Y-30166824D01*
X31821313Y-30166821D01*
X31804883Y-30000000D01*
X31821313Y-29833179D01*
X31821434Y-29832779D01*
X31869975Y-29672761D01*
X31869976Y-29672759D01*
X31869977Y-29672756D01*
X31948995Y-29524922D01*
X32055341Y-29395341D01*
X32184922Y-29288995D01*
X32332756Y-29209977D01*
X32332759Y-29209976D01*
X32332761Y-29209975D01*
X32493175Y-29161314D01*
X32493176Y-29161314D01*
X32493179Y-29161313D01*
X32618196Y-29149000D01*
X32701804Y-29149000D01*
X32826821Y-29161313D01*
X32826821Y-29161313D01*
G37*
G36*
X22748228Y-29181703D02*
X22903100Y-29245853D01*
X23042481Y-29338985D01*
X23161015Y-29457519D01*
X23254147Y-29596900D01*
X23318297Y-29751772D01*
X23351000Y-29916184D01*
X23351000Y-30083816D01*
X23318297Y-30248228D01*
X23254147Y-30403100D01*
X23161015Y-30542481D01*
X23042481Y-30661015D01*
X22903100Y-30754147D01*
X22748228Y-30818297D01*
X22583816Y-30851000D01*
X22416184Y-30851000D01*
X22251772Y-30818297D01*
X22096900Y-30754147D01*
X21957519Y-30661015D01*
X21838985Y-30542481D01*
X21745853Y-30403100D01*
X21681703Y-30248228D01*
X21649000Y-30083816D01*
X21649000Y-29916184D01*
X21681703Y-29751772D01*
X21745853Y-29596900D01*
X21838985Y-29457519D01*
X21957519Y-29338985D01*
X22096900Y-29245853D01*
X22251772Y-29181703D01*
X22416184Y-29149000D01*
X22583816Y-29149000D01*
X22748228Y-29181703D01*
X22748228Y-29181703D01*
G37*
G36*
X52610443Y-28185519D02*
X52676627Y-28192037D01*
X52789853Y-28226384D01*
X52846467Y-28243557D01*
X52935966Y-28291396D01*
X53002991Y-28327222D01*
X53031964Y-28351000D01*
X53140186Y-28439814D01*
X53223448Y-28541271D01*
X53252778Y-28577009D01*
X53252779Y-28577011D01*
X53336443Y-28733533D01*
X53336443Y-28733534D01*
X53387963Y-28903373D01*
X53405359Y-29080000D01*
X53387963Y-29256627D01*
X53378144Y-29288995D01*
X53336443Y-29426467D01*
X53319845Y-29457519D01*
X53252778Y-29582991D01*
X53241363Y-29596900D01*
X53140186Y-29720186D01*
X53038729Y-29803448D01*
X53002991Y-29832778D01*
X53002989Y-29832779D01*
X52846467Y-29916443D01*
X52789853Y-29933616D01*
X52676627Y-29967963D01*
X52610443Y-29974481D01*
X52544260Y-29981000D01*
X52455740Y-29981000D01*
X52389557Y-29974481D01*
X52323373Y-29967963D01*
X52210147Y-29933616D01*
X52153533Y-29916443D01*
X51997011Y-29832779D01*
X51997009Y-29832778D01*
X51961271Y-29803448D01*
X51859814Y-29720186D01*
X51758637Y-29596900D01*
X51747222Y-29582991D01*
X51680155Y-29457519D01*
X51663557Y-29426467D01*
X51621856Y-29288995D01*
X51612037Y-29256627D01*
X51594641Y-29080000D01*
X51612037Y-28903373D01*
X51663557Y-28733534D01*
X51663557Y-28733533D01*
X51747221Y-28577011D01*
X51747222Y-28577009D01*
X51776552Y-28541271D01*
X51859814Y-28439814D01*
X51968036Y-28351000D01*
X51997009Y-28327222D01*
X52064034Y-28291396D01*
X52153533Y-28243557D01*
X52210147Y-28226384D01*
X52323373Y-28192037D01*
X52389557Y-28185519D01*
X52455740Y-28179000D01*
X52544260Y-28179000D01*
X52610443Y-28185519D01*
X52610443Y-28185519D01*
G37*
G36*
X44352527Y-25288736D02*
X44452410Y-25308604D01*
X44734674Y-25425521D01*
X44988705Y-25595259D01*
X45204741Y-25811295D01*
X45374479Y-26065326D01*
X45491396Y-26347590D01*
X45491396Y-26347591D01*
X45551000Y-26647238D01*
X45551000Y-26952762D01*
X45533052Y-27042991D01*
X45491396Y-27252410D01*
X45374479Y-27534674D01*
X45204741Y-27788705D01*
X44988705Y-28004741D01*
X44734674Y-28174479D01*
X44452410Y-28291396D01*
X44352527Y-28311264D01*
X44152762Y-28351000D01*
X43847238Y-28351000D01*
X43647473Y-28311264D01*
X43547590Y-28291396D01*
X43265326Y-28174479D01*
X43011295Y-28004741D01*
X42795259Y-27788705D01*
X42625521Y-27534674D01*
X42508604Y-27252410D01*
X42466948Y-27042991D01*
X42449000Y-26952762D01*
X42449000Y-26647238D01*
X42508604Y-26347591D01*
X42508604Y-26347590D01*
X42625521Y-26065326D01*
X42795259Y-25811295D01*
X43011295Y-25595259D01*
X43265326Y-25425521D01*
X43547590Y-25308604D01*
X43647473Y-25288736D01*
X43847238Y-25249000D01*
X44152762Y-25249000D01*
X44352527Y-25288736D01*
X44352527Y-25288736D01*
G37*
G36*
X29306565Y-25789389D02*
X29497834Y-25868615D01*
X29669976Y-25983637D01*
X29816363Y-26130024D01*
X29931385Y-26302166D01*
X30010611Y-26493435D01*
X30051000Y-26696484D01*
X30051000Y-26903516D01*
X30010611Y-27106565D01*
X29931385Y-27297834D01*
X29816363Y-27469976D01*
X29669976Y-27616363D01*
X29497834Y-27731385D01*
X29306565Y-27810611D01*
X29103516Y-27851000D01*
X28896484Y-27851000D01*
X28693435Y-27810611D01*
X28502166Y-27731385D01*
X28330024Y-27616363D01*
X28183637Y-27469976D01*
X28068615Y-27297834D01*
X27989389Y-27106565D01*
X27949000Y-26903516D01*
X27949000Y-26696484D01*
X27989389Y-26493435D01*
X28068615Y-26302166D01*
X28183637Y-26130024D01*
X28330024Y-25983637D01*
X28502166Y-25868615D01*
X28693435Y-25789389D01*
X28896484Y-25749000D01*
X29103516Y-25749000D01*
X29306565Y-25789389D01*
X29306565Y-25789389D01*
G37*
G36*
X52610442Y-25645518D02*
X52676627Y-25652037D01*
X52789853Y-25686384D01*
X52846467Y-25703557D01*
X52985087Y-25777652D01*
X53002991Y-25787222D01*
X53032321Y-25811293D01*
X53140186Y-25899814D01*
X53223448Y-26001271D01*
X53252778Y-26037009D01*
X53252779Y-26037011D01*
X53336443Y-26193533D01*
X53336443Y-26193534D01*
X53387963Y-26363373D01*
X53405359Y-26540000D01*
X53387963Y-26716627D01*
X53353616Y-26829853D01*
X53336443Y-26886467D01*
X53327331Y-26903514D01*
X53252778Y-27042991D01*
X53223448Y-27078729D01*
X53140186Y-27180186D01*
X53052179Y-27252410D01*
X53002991Y-27292778D01*
X53002989Y-27292779D01*
X52846467Y-27376443D01*
X52789853Y-27393616D01*
X52676627Y-27427963D01*
X52610442Y-27434482D01*
X52544260Y-27441000D01*
X52455740Y-27441000D01*
X52389558Y-27434482D01*
X52323373Y-27427963D01*
X52210147Y-27393616D01*
X52153533Y-27376443D01*
X51997011Y-27292779D01*
X51997009Y-27292778D01*
X51947821Y-27252410D01*
X51859814Y-27180186D01*
X51776552Y-27078729D01*
X51747222Y-27042991D01*
X51672669Y-26903514D01*
X51663557Y-26886467D01*
X51646384Y-26829853D01*
X51612037Y-26716627D01*
X51594641Y-26540000D01*
X51612037Y-26363373D01*
X51663557Y-26193534D01*
X51663557Y-26193533D01*
X51747221Y-26037011D01*
X51747222Y-26037009D01*
X51776552Y-26001271D01*
X51859814Y-25899814D01*
X51967679Y-25811293D01*
X51997009Y-25787222D01*
X52014913Y-25777652D01*
X52153533Y-25703557D01*
X52210147Y-25686384D01*
X52323373Y-25652037D01*
X52389557Y-25645519D01*
X52455740Y-25639000D01*
X52544260Y-25639000D01*
X52610442Y-25645518D01*
X52610442Y-25645518D01*
G37*
G36*
X36704472Y-23825938D02*
X36832049Y-23878782D01*
X36946865Y-23955500D01*
X37044500Y-24053135D01*
X37121218Y-24167951D01*
X37174062Y-24295528D01*
X37201000Y-24430956D01*
X37201000Y-24569044D01*
X37174062Y-24704472D01*
X37121218Y-24832049D01*
X37044500Y-24946865D01*
X36946865Y-25044500D01*
X36832049Y-25121218D01*
X36704472Y-25174062D01*
X36569044Y-25201000D01*
X36430956Y-25201000D01*
X36295528Y-25174062D01*
X36167951Y-25121218D01*
X36053135Y-25044500D01*
X35955500Y-24946865D01*
X35878782Y-24832049D01*
X35825938Y-24704472D01*
X35799000Y-24569044D01*
X35799000Y-24430956D01*
X35825938Y-24295528D01*
X35878782Y-24167951D01*
X35955500Y-24053135D01*
X36053135Y-23955500D01*
X36167951Y-23878782D01*
X36295528Y-23825938D01*
X36430956Y-23799000D01*
X36569044Y-23799000D01*
X36704472Y-23825938D01*
X36704472Y-23825938D01*
G37*
G36*
X53401000Y-24901000D02*
X51599000Y-24901000D01*
X51599000Y-23099000D01*
X53401000Y-23099000D01*
X53401000Y-24901000D01*
X53401000Y-24901000D01*
G37*
G36*
X36704472Y-21325938D02*
X36832049Y-21378782D01*
X36946865Y-21455500D01*
X37044500Y-21553135D01*
X37121218Y-21667951D01*
X37174062Y-21795528D01*
X37201000Y-21930956D01*
X37201000Y-22069044D01*
X37174062Y-22204472D01*
X37121218Y-22332049D01*
X37044500Y-22446865D01*
X36946865Y-22544500D01*
X36832049Y-22621218D01*
X36704472Y-22674062D01*
X36569044Y-22701000D01*
X36430956Y-22701000D01*
X36295528Y-22674062D01*
X36167951Y-22621218D01*
X36053135Y-22544500D01*
X35955500Y-22446865D01*
X35878782Y-22332049D01*
X35825938Y-22204472D01*
X35799000Y-22069044D01*
X35799000Y-21930956D01*
X35825938Y-21795528D01*
X35878782Y-21667951D01*
X35955500Y-21553135D01*
X36053135Y-21455500D01*
X36167951Y-21378782D01*
X36295528Y-21325938D01*
X36430956Y-21299000D01*
X36569044Y-21299000D01*
X36704472Y-21325938D01*
X36704472Y-21325938D01*
G37*
G36*
X52826821Y-19661313D02*
X52826824Y-19661314D01*
X52826825Y-19661314D01*
X52987239Y-19709975D01*
X52987241Y-19709976D01*
X52987244Y-19709977D01*
X53135078Y-19788995D01*
X53264659Y-19895341D01*
X53371005Y-20024922D01*
X53450023Y-20172756D01*
X53450024Y-20172759D01*
X53450025Y-20172761D01*
X53498686Y-20333175D01*
X53498687Y-20333179D01*
X53515117Y-20500000D01*
X53498687Y-20666821D01*
X53498686Y-20666824D01*
X53498686Y-20666825D01*
X53473993Y-20748228D01*
X53450023Y-20827244D01*
X53371005Y-20975078D01*
X53264659Y-21104659D01*
X53135078Y-21211005D01*
X52987244Y-21290023D01*
X52987241Y-21290024D01*
X52987239Y-21290025D01*
X52826825Y-21338686D01*
X52826824Y-21338686D01*
X52826821Y-21338687D01*
X52701804Y-21351000D01*
X52618196Y-21351000D01*
X52493179Y-21338687D01*
X52493176Y-21338686D01*
X52493175Y-21338686D01*
X52332761Y-21290025D01*
X52332759Y-21290024D01*
X52332756Y-21290023D01*
X52184922Y-21211005D01*
X52055341Y-21104659D01*
X51948995Y-20975078D01*
X51869977Y-20827244D01*
X51846008Y-20748228D01*
X51821314Y-20666825D01*
X51821314Y-20666824D01*
X51821313Y-20666821D01*
X51804883Y-20500000D01*
X51821313Y-20333179D01*
X51821314Y-20333175D01*
X51869975Y-20172761D01*
X51869976Y-20172759D01*
X51869977Y-20172756D01*
X51948995Y-20024922D01*
X52055341Y-19895341D01*
X52184922Y-19788995D01*
X52332756Y-19709977D01*
X52332759Y-19709976D01*
X52332761Y-19709975D01*
X52493175Y-19661314D01*
X52493176Y-19661314D01*
X52493179Y-19661313D01*
X52618196Y-19649000D01*
X52701804Y-19649000D01*
X52826821Y-19661313D01*
X52826821Y-19661313D01*
G37*
G36*
X42748228Y-19681703D02*
X42903100Y-19745853D01*
X43042481Y-19838985D01*
X43161015Y-19957519D01*
X43254147Y-20096900D01*
X43318297Y-20251772D01*
X43351000Y-20416184D01*
X43351000Y-20583816D01*
X43318297Y-20748228D01*
X43254147Y-20903100D01*
X43161015Y-21042481D01*
X43042481Y-21161015D01*
X42903100Y-21254147D01*
X42748228Y-21318297D01*
X42583816Y-21351000D01*
X42416184Y-21351000D01*
X42251772Y-21318297D01*
X42096900Y-21254147D01*
X41957519Y-21161015D01*
X41838985Y-21042481D01*
X41745853Y-20903100D01*
X41681703Y-20748228D01*
X41649000Y-20583816D01*
X41649000Y-20416184D01*
X41681703Y-20251772D01*
X41745853Y-20096900D01*
X41838985Y-19957519D01*
X41957519Y-19838985D01*
X42096900Y-19745853D01*
X42251772Y-19681703D01*
X42416184Y-19649000D01*
X42583816Y-19649000D01*
X42748228Y-19681703D01*
X42748228Y-19681703D01*
G37*
G36*
X36704472Y-18825938D02*
X36832049Y-18878782D01*
X36946865Y-18955500D01*
X37044500Y-19053135D01*
X37121218Y-19167951D01*
X37174062Y-19295528D01*
X37201000Y-19430956D01*
X37201000Y-19569044D01*
X37174062Y-19704472D01*
X37121218Y-19832049D01*
X37044500Y-19946865D01*
X36946865Y-20044500D01*
X36832049Y-20121218D01*
X36704472Y-20174062D01*
X36569044Y-20201000D01*
X36430956Y-20201000D01*
X36295528Y-20174062D01*
X36167951Y-20121218D01*
X36053135Y-20044500D01*
X35955500Y-19946865D01*
X35878782Y-19832049D01*
X35825938Y-19704472D01*
X35799000Y-19569044D01*
X35799000Y-19430956D01*
X35825938Y-19295528D01*
X35878782Y-19167951D01*
X35955500Y-19053135D01*
X36053135Y-18955500D01*
X36167951Y-18878782D01*
X36295528Y-18825938D01*
X36430956Y-18799000D01*
X36569044Y-18799000D01*
X36704472Y-18825938D01*
X36704472Y-18825938D01*
G37*
G36*
X29306565Y-16189389D02*
X29497834Y-16268615D01*
X29669976Y-16383637D01*
X29816363Y-16530024D01*
X29931385Y-16702166D01*
X30010611Y-16893435D01*
X30051000Y-17096484D01*
X30051000Y-17303516D01*
X30010611Y-17506565D01*
X29931385Y-17697834D01*
X29816363Y-17869976D01*
X29669976Y-18016363D01*
X29497834Y-18131385D01*
X29306565Y-18210611D01*
X29103516Y-18251000D01*
X28896484Y-18251000D01*
X28693435Y-18210611D01*
X28502166Y-18131385D01*
X28330024Y-18016363D01*
X28183637Y-17869976D01*
X28068615Y-17697834D01*
X27989389Y-17506565D01*
X27949000Y-17303516D01*
X27949000Y-17096484D01*
X27989389Y-16893435D01*
X28068615Y-16702166D01*
X28183637Y-16530024D01*
X28330024Y-16383637D01*
X28502166Y-16268615D01*
X28693435Y-16189389D01*
X28896484Y-16149000D01*
X29103516Y-16149000D01*
X29306565Y-16189389D01*
X29306565Y-16189389D01*
G37*
G36*
X49310443Y-16105519D02*
X49376627Y-16112037D01*
X49489853Y-16146384D01*
X49546467Y-16163557D01*
X49594796Y-16189390D01*
X49702991Y-16247222D01*
X49729058Y-16268615D01*
X49840186Y-16359814D01*
X49923448Y-16461271D01*
X49952778Y-16497009D01*
X49952779Y-16497011D01*
X50036443Y-16653533D01*
X50036443Y-16653534D01*
X50087963Y-16823373D01*
X50105359Y-17000000D01*
X50087963Y-17176627D01*
X50053616Y-17289853D01*
X50036443Y-17346467D01*
X49962348Y-17485087D01*
X49952778Y-17502991D01*
X49923448Y-17538729D01*
X49840186Y-17640186D01*
X49769939Y-17697835D01*
X49702991Y-17752778D01*
X49702989Y-17752779D01*
X49546467Y-17836443D01*
X49489853Y-17853616D01*
X49376627Y-17887963D01*
X49310442Y-17894482D01*
X49244260Y-17901000D01*
X49155740Y-17901000D01*
X49089558Y-17894482D01*
X49023373Y-17887963D01*
X48910147Y-17853616D01*
X48853533Y-17836443D01*
X48697011Y-17752779D01*
X48697009Y-17752778D01*
X48630061Y-17697835D01*
X48559814Y-17640186D01*
X48476552Y-17538729D01*
X48447222Y-17502991D01*
X48437652Y-17485087D01*
X48363557Y-17346467D01*
X48346384Y-17289853D01*
X48312037Y-17176627D01*
X48294641Y-17000000D01*
X48312037Y-16823373D01*
X48363557Y-16653534D01*
X48363557Y-16653533D01*
X48447221Y-16497011D01*
X48447222Y-16497009D01*
X48476552Y-16461271D01*
X48559814Y-16359814D01*
X48670942Y-16268615D01*
X48697009Y-16247222D01*
X48805204Y-16189390D01*
X48853533Y-16163557D01*
X48910147Y-16146384D01*
X49023373Y-16112037D01*
X49089557Y-16105519D01*
X49155740Y-16099000D01*
X49244260Y-16099000D01*
X49310443Y-16105519D01*
X49310443Y-16105519D01*
G37*
G36*
X46770443Y-16105519D02*
X46836627Y-16112037D01*
X46949853Y-16146384D01*
X47006467Y-16163557D01*
X47054796Y-16189390D01*
X47162991Y-16247222D01*
X47189058Y-16268615D01*
X47300186Y-16359814D01*
X47383448Y-16461271D01*
X47412778Y-16497009D01*
X47412779Y-16497011D01*
X47496443Y-16653533D01*
X47496443Y-16653534D01*
X47547963Y-16823373D01*
X47565359Y-17000000D01*
X47547963Y-17176627D01*
X47513616Y-17289853D01*
X47496443Y-17346467D01*
X47422348Y-17485087D01*
X47412778Y-17502991D01*
X47383448Y-17538729D01*
X47300186Y-17640186D01*
X47229939Y-17697835D01*
X47162991Y-17752778D01*
X47162989Y-17752779D01*
X47006467Y-17836443D01*
X46949853Y-17853616D01*
X46836627Y-17887963D01*
X46770442Y-17894482D01*
X46704260Y-17901000D01*
X46615740Y-17901000D01*
X46549558Y-17894482D01*
X46483373Y-17887963D01*
X46370147Y-17853616D01*
X46313533Y-17836443D01*
X46157011Y-17752779D01*
X46157009Y-17752778D01*
X46090061Y-17697835D01*
X46019814Y-17640186D01*
X45936552Y-17538729D01*
X45907222Y-17502991D01*
X45897652Y-17485087D01*
X45823557Y-17346467D01*
X45806384Y-17289853D01*
X45772037Y-17176627D01*
X45754641Y-17000000D01*
X45772037Y-16823373D01*
X45823557Y-16653534D01*
X45823557Y-16653533D01*
X45907221Y-16497011D01*
X45907222Y-16497009D01*
X45936552Y-16461271D01*
X46019814Y-16359814D01*
X46130942Y-16268615D01*
X46157009Y-16247222D01*
X46265204Y-16189390D01*
X46313533Y-16163557D01*
X46370147Y-16146384D01*
X46483373Y-16112037D01*
X46549557Y-16105519D01*
X46615740Y-16099000D01*
X46704260Y-16099000D01*
X46770443Y-16105519D01*
X46770443Y-16105519D01*
G37*
G36*
X44230443Y-16105519D02*
X44296627Y-16112037D01*
X44409853Y-16146384D01*
X44466467Y-16163557D01*
X44514796Y-16189390D01*
X44622991Y-16247222D01*
X44649058Y-16268615D01*
X44760186Y-16359814D01*
X44843448Y-16461271D01*
X44872778Y-16497009D01*
X44872779Y-16497011D01*
X44956443Y-16653533D01*
X44956443Y-16653534D01*
X45007963Y-16823373D01*
X45025359Y-17000000D01*
X45007963Y-17176627D01*
X44973616Y-17289853D01*
X44956443Y-17346467D01*
X44882348Y-17485087D01*
X44872778Y-17502991D01*
X44843448Y-17538729D01*
X44760186Y-17640186D01*
X44689939Y-17697835D01*
X44622991Y-17752778D01*
X44622989Y-17752779D01*
X44466467Y-17836443D01*
X44409853Y-17853616D01*
X44296627Y-17887963D01*
X44230442Y-17894482D01*
X44164260Y-17901000D01*
X44075740Y-17901000D01*
X44009558Y-17894482D01*
X43943373Y-17887963D01*
X43830147Y-17853616D01*
X43773533Y-17836443D01*
X43617011Y-17752779D01*
X43617009Y-17752778D01*
X43550061Y-17697835D01*
X43479814Y-17640186D01*
X43396552Y-17538729D01*
X43367222Y-17502991D01*
X43357652Y-17485087D01*
X43283557Y-17346467D01*
X43266384Y-17289853D01*
X43232037Y-17176627D01*
X43214641Y-17000000D01*
X43232037Y-16823373D01*
X43283557Y-16653534D01*
X43283557Y-16653533D01*
X43367221Y-16497011D01*
X43367222Y-16497009D01*
X43396552Y-16461271D01*
X43479814Y-16359814D01*
X43590942Y-16268615D01*
X43617009Y-16247222D01*
X43725204Y-16189390D01*
X43773533Y-16163557D01*
X43830147Y-16146384D01*
X43943373Y-16112037D01*
X44009557Y-16105519D01*
X44075740Y-16099000D01*
X44164260Y-16099000D01*
X44230443Y-16105519D01*
X44230443Y-16105519D01*
G37*
G36*
X41690443Y-16105519D02*
X41756627Y-16112037D01*
X41869853Y-16146384D01*
X41926467Y-16163557D01*
X41974796Y-16189390D01*
X42082991Y-16247222D01*
X42109058Y-16268615D01*
X42220186Y-16359814D01*
X42303448Y-16461271D01*
X42332778Y-16497009D01*
X42332779Y-16497011D01*
X42416443Y-16653533D01*
X42416443Y-16653534D01*
X42467963Y-16823373D01*
X42485359Y-17000000D01*
X42467963Y-17176627D01*
X42433616Y-17289853D01*
X42416443Y-17346467D01*
X42342348Y-17485087D01*
X42332778Y-17502991D01*
X42303448Y-17538729D01*
X42220186Y-17640186D01*
X42149939Y-17697835D01*
X42082991Y-17752778D01*
X42082989Y-17752779D01*
X41926467Y-17836443D01*
X41869853Y-17853616D01*
X41756627Y-17887963D01*
X41690442Y-17894482D01*
X41624260Y-17901000D01*
X41535740Y-17901000D01*
X41469558Y-17894482D01*
X41403373Y-17887963D01*
X41290147Y-17853616D01*
X41233533Y-17836443D01*
X41077011Y-17752779D01*
X41077009Y-17752778D01*
X41010061Y-17697835D01*
X40939814Y-17640186D01*
X40856552Y-17538729D01*
X40827222Y-17502991D01*
X40817652Y-17485087D01*
X40743557Y-17346467D01*
X40726384Y-17289853D01*
X40692037Y-17176627D01*
X40674641Y-17000000D01*
X40692037Y-16823373D01*
X40743557Y-16653534D01*
X40743557Y-16653533D01*
X40827221Y-16497011D01*
X40827222Y-16497009D01*
X40856552Y-16461271D01*
X40939814Y-16359814D01*
X41050942Y-16268615D01*
X41077009Y-16247222D01*
X41185204Y-16189390D01*
X41233533Y-16163557D01*
X41290147Y-16146384D01*
X41403373Y-16112037D01*
X41469557Y-16105519D01*
X41535740Y-16099000D01*
X41624260Y-16099000D01*
X41690443Y-16105519D01*
X41690443Y-16105519D01*
G37*
G36*
X39150443Y-16105519D02*
X39216627Y-16112037D01*
X39329853Y-16146384D01*
X39386467Y-16163557D01*
X39434796Y-16189390D01*
X39542991Y-16247222D01*
X39569058Y-16268615D01*
X39680186Y-16359814D01*
X39763448Y-16461271D01*
X39792778Y-16497009D01*
X39792779Y-16497011D01*
X39876443Y-16653533D01*
X39876443Y-16653534D01*
X39927963Y-16823373D01*
X39945359Y-17000000D01*
X39927963Y-17176627D01*
X39893616Y-17289853D01*
X39876443Y-17346467D01*
X39802348Y-17485087D01*
X39792778Y-17502991D01*
X39763448Y-17538729D01*
X39680186Y-17640186D01*
X39609939Y-17697835D01*
X39542991Y-17752778D01*
X39542989Y-17752779D01*
X39386467Y-17836443D01*
X39329853Y-17853616D01*
X39216627Y-17887963D01*
X39150442Y-17894482D01*
X39084260Y-17901000D01*
X38995740Y-17901000D01*
X38929558Y-17894482D01*
X38863373Y-17887963D01*
X38750147Y-17853616D01*
X38693533Y-17836443D01*
X38537011Y-17752779D01*
X38537009Y-17752778D01*
X38470061Y-17697835D01*
X38399814Y-17640186D01*
X38316552Y-17538729D01*
X38287222Y-17502991D01*
X38277652Y-17485087D01*
X38203557Y-17346467D01*
X38186384Y-17289853D01*
X38152037Y-17176627D01*
X38134641Y-17000000D01*
X38152037Y-16823373D01*
X38203557Y-16653534D01*
X38203557Y-16653533D01*
X38287221Y-16497011D01*
X38287222Y-16497009D01*
X38316552Y-16461271D01*
X38399814Y-16359814D01*
X38510942Y-16268615D01*
X38537009Y-16247222D01*
X38645204Y-16189390D01*
X38693533Y-16163557D01*
X38750147Y-16146384D01*
X38863373Y-16112037D01*
X38929557Y-16105519D01*
X38995740Y-16099000D01*
X39084260Y-16099000D01*
X39150443Y-16105519D01*
X39150443Y-16105519D01*
G37*
G36*
X37401000Y-17901000D02*
X35599000Y-17901000D01*
X35599000Y-16099000D01*
X37401000Y-16099000D01*
X37401000Y-17901000D01*
X37401000Y-17901000D01*
G37*
M02*
