G04 #@! TF.GenerationSoftware,KiCad,Pcbnew,(5.0.1)-3*
G04 #@! TF.CreationDate,2019-04-01T17:27:39+01:00*
G04 #@! TF.ProjectId,Fractional Clock divider PCB1 bottom board,4672616374696F6E616C20436C6F636B,rev?*
G04 #@! TF.SameCoordinates,Original*
G04 #@! TF.FileFunction,Copper,L2,Bot,Signal*
G04 #@! TF.FilePolarity,Positive*
%FSLAX46Y46*%
G04 Gerber Fmt 4.6, Leading zero omitted, Abs format (unit mm)*
G04 Created by KiCad (PCBNEW (5.0.1)-3) date 01/04/2019 17:27:39*
%MOMM*%
%LPD*%
G01*
G04 APERTURE LIST*
G04 #@! TA.AperFunction,ComponentPad*
%ADD10O,1.600000X1.600000*%
G04 #@! TD*
G04 #@! TA.AperFunction,ComponentPad*
%ADD11C,1.600000*%
G04 #@! TD*
G04 #@! TA.AperFunction,ComponentPad*
%ADD12R,1.600000X1.600000*%
G04 #@! TD*
G04 #@! TA.AperFunction,ComponentPad*
%ADD13O,2.200000X2.200000*%
G04 #@! TD*
G04 #@! TA.AperFunction,ComponentPad*
%ADD14R,2.200000X2.200000*%
G04 #@! TD*
G04 #@! TA.AperFunction,ComponentPad*
%ADD15R,1.700000X1.700000*%
G04 #@! TD*
G04 #@! TA.AperFunction,ComponentPad*
%ADD16O,1.700000X1.700000*%
G04 #@! TD*
G04 #@! TA.AperFunction,ComponentPad*
%ADD17R,1.500000X1.050000*%
G04 #@! TD*
G04 #@! TA.AperFunction,ComponentPad*
%ADD18O,1.500000X1.050000*%
G04 #@! TD*
G04 #@! TA.AperFunction,ComponentPad*
%ADD19O,1.050000X1.500000*%
G04 #@! TD*
G04 #@! TA.AperFunction,ComponentPad*
%ADD20R,1.050000X1.500000*%
G04 #@! TD*
G04 #@! TA.AperFunction,ComponentPad*
%ADD21R,1.600000X2.400000*%
G04 #@! TD*
G04 #@! TA.AperFunction,ComponentPad*
%ADD22O,1.600000X2.400000*%
G04 #@! TD*
G04 #@! TA.AperFunction,ViaPad*
%ADD23C,1.200000*%
G04 #@! TD*
G04 #@! TA.AperFunction,ViaPad*
%ADD24C,0.800000*%
G04 #@! TD*
G04 #@! TA.AperFunction,Conductor*
%ADD25C,1.270000*%
G04 #@! TD*
G04 #@! TA.AperFunction,Conductor*
%ADD26C,0.500000*%
G04 #@! TD*
G04 #@! TA.AperFunction,Conductor*
%ADD27C,0.254000*%
G04 #@! TD*
G04 APERTURE END LIST*
D10*
G04 #@! TO.P,C3,2*
G04 #@! TO.N,+12V*
X88431834Y-99106702D03*
D11*
G04 #@! TO.P,C3,1*
G04 #@! TO.N,GND*
X88431834Y-109106702D03*
G04 #@! TD*
D10*
G04 #@! TO.P,C4,2*
G04 #@! TO.N,GND*
X88431834Y-72606702D03*
D11*
G04 #@! TO.P,C4,1*
G04 #@! TO.N,-12V*
X88431834Y-82606702D03*
G04 #@! TD*
D12*
G04 #@! TO.P,C1,1*
G04 #@! TO.N,+12V*
X65500000Y-40000000D03*
D11*
G04 #@! TO.P,C1,2*
G04 #@! TO.N,GND*
X63500000Y-40000000D03*
G04 #@! TD*
G04 #@! TO.P,C2,2*
G04 #@! TO.N,-12V*
X65500000Y-46000000D03*
D12*
G04 #@! TO.P,C2,1*
G04 #@! TO.N,GND*
X63500000Y-46000000D03*
G04 #@! TD*
D13*
G04 #@! TO.P,D1,2*
G04 #@! TO.N,/+12V_in*
X74000000Y-17340000D03*
D14*
G04 #@! TO.P,D1,1*
G04 #@! TO.N,+12V*
X74000000Y-27500000D03*
G04 #@! TD*
G04 #@! TO.P,D2,1*
G04 #@! TO.N,/-12V_in*
X70500000Y-17500000D03*
D13*
G04 #@! TO.P,D2,2*
G04 #@! TO.N,-12V*
X70500000Y-27660000D03*
G04 #@! TD*
D14*
G04 #@! TO.P,D6,1*
G04 #@! TO.N,Net-(D6-Pad1)*
X92500000Y-114500000D03*
D13*
G04 #@! TO.P,D6,2*
G04 #@! TO.N,GND*
X82340000Y-114500000D03*
G04 #@! TD*
D14*
G04 #@! TO.P,D7,1*
G04 #@! TO.N,Net-(D7-Pad1)*
X63500000Y-58340000D03*
D13*
G04 #@! TO.P,D7,2*
G04 #@! TO.N,GND*
X63500000Y-68500000D03*
G04 #@! TD*
G04 #@! TO.P,D8,2*
G04 #@! TO.N,/CV_in*
X88500000Y-65160000D03*
D14*
G04 #@! TO.P,D8,1*
G04 #@! TO.N,/+3_3V*
X88500000Y-55000000D03*
G04 #@! TD*
D13*
G04 #@! TO.P,D9,2*
G04 #@! TO.N,GND*
X85500000Y-54840000D03*
D14*
G04 #@! TO.P,D9,1*
G04 #@! TO.N,/CV_in*
X85500000Y-65000000D03*
G04 #@! TD*
D15*
G04 #@! TO.P,H1,1*
G04 #@! TO.N,Net-(H1-Pad1)*
X66500000Y-35000000D03*
D16*
G04 #@! TO.P,H1,2*
G04 #@! TO.N,Net-(H1-Pad2)*
X63960000Y-35000000D03*
G04 #@! TO.P,H1,3*
G04 #@! TO.N,Net-(H1-Pad3)*
X66500000Y-32460000D03*
G04 #@! TO.P,H1,4*
G04 #@! TO.N,Net-(H1-Pad4)*
X63960000Y-32460000D03*
G04 #@! TO.P,H1,5*
G04 #@! TO.N,+5V*
X66500000Y-29920000D03*
G04 #@! TO.P,H1,6*
X63960000Y-29920000D03*
G04 #@! TO.P,H1,7*
G04 #@! TO.N,/+12V_in*
X66500000Y-27380000D03*
G04 #@! TO.P,H1,8*
X63960000Y-27380000D03*
G04 #@! TO.P,H1,9*
G04 #@! TO.N,GND*
X66500000Y-24840000D03*
G04 #@! TO.P,H1,10*
X63960000Y-24840000D03*
G04 #@! TO.P,H1,11*
X66500000Y-22300000D03*
G04 #@! TO.P,H1,12*
X63960000Y-22300000D03*
G04 #@! TO.P,H1,13*
X66500000Y-19760000D03*
G04 #@! TO.P,H1,14*
X63960000Y-19760000D03*
G04 #@! TO.P,H1,15*
G04 #@! TO.N,/-12V_in*
X66500000Y-17220000D03*
G04 #@! TO.P,H1,16*
X63960000Y-17220000D03*
G04 #@! TD*
G04 #@! TO.P,J2,6*
G04 #@! TO.N,GND*
X95700000Y-17000000D03*
G04 #@! TO.P,J2,5*
G04 #@! TO.N,/LED_Sh_B*
X93160000Y-17000000D03*
G04 #@! TO.P,J2,4*
G04 #@! TO.N,/CV_ind_LED_shuffle*
X90620000Y-17000000D03*
G04 #@! TO.P,J2,3*
G04 #@! TO.N,/CV_ind_LED_shift*
X88080000Y-17000000D03*
G04 #@! TO.P,J2,2*
G04 #@! TO.N,/CV_ind_LED_Divs*
X85540000Y-17000000D03*
D15*
G04 #@! TO.P,J2,1*
G04 #@! TO.N,/CV_ind_LED_Length*
X83000000Y-17000000D03*
G04 #@! TD*
G04 #@! TO.P,J3,1*
G04 #@! TO.N,GND*
X99000000Y-24000000D03*
D16*
G04 #@! TO.P,J3,2*
X99000000Y-26540000D03*
G04 #@! TO.P,J3,3*
G04 #@! TO.N,/+3_3V*
X99000000Y-29080000D03*
G04 #@! TO.P,J3,4*
G04 #@! TO.N,/Pot_Length*
X99000000Y-31620000D03*
G04 #@! TO.P,J3,5*
G04 #@! TO.N,/Pot_Divisions*
X99000000Y-34160000D03*
G04 #@! TO.P,J3,6*
G04 #@! TO.N,/Pot_CVamt*
X99000000Y-36700000D03*
G04 #@! TO.P,J3,7*
G04 #@! TO.N,/EncoderA*
X99000000Y-39240000D03*
G04 #@! TO.P,J3,8*
G04 #@! TO.N,/EncoderB*
X99000000Y-41780000D03*
G04 #@! TO.P,J3,9*
G04 #@! TO.N,/EncoderSw*
X99000000Y-44320000D03*
G04 #@! TO.P,J3,10*
G04 #@! TO.N,/SW_DivEuc1*
X99000000Y-46860000D03*
G04 #@! TO.P,J3,11*
G04 #@! TO.N,/SW_DivEuc2*
X99000000Y-49400000D03*
G04 #@! TO.P,J3,12*
G04 #@! TO.N,/SW_CVassgn*
X99000000Y-51940000D03*
G04 #@! TO.P,J3,13*
G04 #@! TO.N,/SW_OutMode1*
X99000000Y-54480000D03*
G04 #@! TO.P,J3,14*
G04 #@! TO.N,/SW_OutMode2*
X99000000Y-57020000D03*
G04 #@! TO.P,J3,15*
G04 #@! TO.N,GND*
X99000000Y-59560000D03*
G04 #@! TD*
G04 #@! TO.P,J6,9*
G04 #@! TO.N,GND*
X63500000Y-108820000D03*
G04 #@! TO.P,J6,8*
G04 #@! TO.N,/Rin_B*
X63500000Y-106280000D03*
G04 #@! TO.P,J6,7*
G04 #@! TO.N,/CLin_B*
X63500000Y-103740000D03*
G04 #@! TO.P,J6,6*
G04 #@! TO.N,/CVin_B*
X63500000Y-101200000D03*
G04 #@! TO.P,J6,5*
G04 #@! TO.N,/OutT_B*
X63500000Y-98660000D03*
G04 #@! TO.P,J6,4*
G04 #@! TO.N,/OutM_B*
X63500000Y-96120000D03*
G04 #@! TO.P,J6,3*
G04 #@! TO.N,/OutC_B*
X63500000Y-93580000D03*
G04 #@! TO.P,J6,2*
G04 #@! TO.N,+12V*
X63500000Y-91040000D03*
D15*
G04 #@! TO.P,J6,1*
G04 #@! TO.N,GND*
X63500000Y-88500000D03*
G04 #@! TD*
D17*
G04 #@! TO.P,Q4,1*
G04 #@! TO.N,GND*
X97000000Y-117000000D03*
D18*
G04 #@! TO.P,Q4,3*
G04 #@! TO.N,/Trigger_in*
X97000000Y-114460000D03*
G04 #@! TO.P,Q4,2*
G04 #@! TO.N,Net-(D6-Pad1)*
X97000000Y-115730000D03*
G04 #@! TD*
D19*
G04 #@! TO.P,Q5,2*
G04 #@! TO.N,Net-(D7-Pad1)*
X64270000Y-53000000D03*
G04 #@! TO.P,Q5,3*
G04 #@! TO.N,/Cycle_in*
X65540000Y-53000000D03*
D20*
G04 #@! TO.P,Q5,1*
G04 #@! TO.N,GND*
X63000000Y-53000000D03*
G04 #@! TD*
D11*
G04 #@! TO.P,R1,1*
G04 #@! TO.N,Net-(R1-Pad1)*
X97759090Y-99236542D03*
D10*
G04 #@! TO.P,R1,2*
G04 #@! TO.N,GND*
X97759090Y-109396542D03*
G04 #@! TD*
G04 #@! TO.P,R2,2*
G04 #@! TO.N,GND*
X94705873Y-72651486D03*
D11*
G04 #@! TO.P,R2,1*
G04 #@! TO.N,Net-(R2-Pad1)*
X94705873Y-82811486D03*
G04 #@! TD*
G04 #@! TO.P,R3,1*
G04 #@! TO.N,Net-(R3-Pad1)*
X85205873Y-82890678D03*
D10*
G04 #@! TO.P,R3,2*
G04 #@! TO.N,GND*
X85205873Y-72730678D03*
G04 #@! TD*
G04 #@! TO.P,R4,2*
G04 #@! TO.N,Net-(R1-Pad1)*
X91473391Y-99151486D03*
D11*
G04 #@! TO.P,R4,1*
G04 #@! TO.N,Net-(R4-Pad1)*
X91473391Y-109311486D03*
G04 #@! TD*
G04 #@! TO.P,R5,1*
G04 #@! TO.N,Net-(R5-Pad1)*
X97705873Y-82811486D03*
D10*
G04 #@! TO.P,R5,2*
G04 #@! TO.N,Net-(R2-Pad1)*
X97705873Y-72651486D03*
G04 #@! TD*
D11*
G04 #@! TO.P,R6,1*
G04 #@! TO.N,Net-(R6-Pad1)*
X82205873Y-72811486D03*
D10*
G04 #@! TO.P,R6,2*
G04 #@! TO.N,Net-(R3-Pad1)*
X82205873Y-82971486D03*
G04 #@! TD*
D11*
G04 #@! TO.P,R7,1*
G04 #@! TO.N,/OutC_B*
X94473391Y-109311486D03*
D10*
G04 #@! TO.P,R7,2*
G04 #@! TO.N,Net-(R4-Pad1)*
X94473391Y-99151486D03*
G04 #@! TD*
D11*
G04 #@! TO.P,R8,1*
G04 #@! TO.N,/OutM_B*
X91431834Y-72606702D03*
D10*
G04 #@! TO.P,R8,2*
G04 #@! TO.N,Net-(R5-Pad1)*
X91431834Y-82766702D03*
G04 #@! TD*
G04 #@! TO.P,R9,2*
G04 #@! TO.N,Net-(R6-Pad1)*
X78973391Y-82971486D03*
D11*
G04 #@! TO.P,R9,1*
G04 #@! TO.N,/OutT_B*
X78973391Y-72811486D03*
G04 #@! TD*
D10*
G04 #@! TO.P,R13,2*
G04 #@! TO.N,-12V*
X75500000Y-72840000D03*
D11*
G04 #@! TO.P,R13,1*
G04 #@! TO.N,/Vref*
X75500000Y-83000000D03*
G04 #@! TD*
D10*
G04 #@! TO.P,R14,2*
G04 #@! TO.N,/Vref*
X72000000Y-82660000D03*
D11*
G04 #@! TO.P,R14,1*
G04 #@! TO.N,GND*
X72000000Y-72500000D03*
G04 #@! TD*
G04 #@! TO.P,R15,1*
G04 #@! TO.N,Net-(D6-Pad1)*
X69394226Y-99018477D03*
D10*
G04 #@! TO.P,R15,2*
G04 #@! TO.N,/CLin_B*
X69394226Y-109178477D03*
G04 #@! TD*
G04 #@! TO.P,R16,2*
G04 #@! TO.N,/Rin_B*
X72894226Y-109178477D03*
D11*
G04 #@! TO.P,R16,1*
G04 #@! TO.N,Net-(D7-Pad1)*
X72894226Y-99018477D03*
G04 #@! TD*
G04 #@! TO.P,R17,1*
G04 #@! TO.N,Net-(R17-Pad1)*
X79205873Y-99390678D03*
D10*
G04 #@! TO.P,R17,2*
G04 #@! TO.N,/Vref*
X79205873Y-109550678D03*
G04 #@! TD*
G04 #@! TO.P,R18,2*
G04 #@! TO.N,/CVin_B*
X82205873Y-109550678D03*
D11*
G04 #@! TO.P,R18,1*
G04 #@! TO.N,Net-(R17-Pad1)*
X82205873Y-99390678D03*
G04 #@! TD*
D10*
G04 #@! TO.P,R19,2*
G04 #@! TO.N,Net-(D6-Pad1)*
X79660000Y-114500000D03*
D11*
G04 #@! TO.P,R19,1*
G04 #@! TO.N,GND*
X69500000Y-114500000D03*
G04 #@! TD*
G04 #@! TO.P,R20,1*
G04 #@! TO.N,GND*
X63500000Y-82000000D03*
D10*
G04 #@! TO.P,R20,2*
G04 #@! TO.N,Net-(D7-Pad1)*
X63500000Y-71840000D03*
G04 #@! TD*
D11*
G04 #@! TO.P,R21,1*
G04 #@! TO.N,Net-(R21-Pad1)*
X85205873Y-109390678D03*
D10*
G04 #@! TO.P,R21,2*
G04 #@! TO.N,Net-(R17-Pad1)*
X85205873Y-99230678D03*
G04 #@! TD*
G04 #@! TO.P,R22,2*
G04 #@! TO.N,Net-(R21-Pad1)*
X76000000Y-99160000D03*
D11*
G04 #@! TO.P,R22,1*
G04 #@! TO.N,/CV_in*
X76000000Y-89000000D03*
G04 #@! TD*
D21*
G04 #@! TO.P,U1,1*
G04 #@! TO.N,Net-(R21-Pad1)*
X80973391Y-94811486D03*
D22*
G04 #@! TO.P,U1,8*
G04 #@! TO.N,Net-(R5-Pad1)*
X96213391Y-87191486D03*
G04 #@! TO.P,U1,2*
G04 #@! TO.N,Net-(R17-Pad1)*
X83513391Y-94811486D03*
G04 #@! TO.P,U1,9*
G04 #@! TO.N,Net-(R2-Pad1)*
X93673391Y-87191486D03*
G04 #@! TO.P,U1,3*
G04 #@! TO.N,GND*
X86053391Y-94811486D03*
G04 #@! TO.P,U1,10*
G04 #@! TO.N,/DigiOut_out*
X91133391Y-87191486D03*
G04 #@! TO.P,U1,4*
G04 #@! TO.N,+12V*
X88593391Y-94811486D03*
G04 #@! TO.P,U1,11*
G04 #@! TO.N,-12V*
X88593391Y-87191486D03*
G04 #@! TO.P,U1,5*
G04 #@! TO.N,/DigiOut_Cycle*
X91133391Y-94811486D03*
G04 #@! TO.P,U1,12*
G04 #@! TO.N,/DigiOut_Thru*
X86053391Y-87191486D03*
G04 #@! TO.P,U1,6*
G04 #@! TO.N,Net-(R1-Pad1)*
X93673391Y-94811486D03*
G04 #@! TO.P,U1,13*
G04 #@! TO.N,Net-(R3-Pad1)*
X83513391Y-87191486D03*
G04 #@! TO.P,U1,7*
G04 #@! TO.N,Net-(R4-Pad1)*
X96213391Y-94811486D03*
G04 #@! TO.P,U1,14*
G04 #@! TO.N,Net-(R6-Pad1)*
X80973391Y-87191486D03*
G04 #@! TD*
D11*
G04 #@! TO.P,U2,17*
G04 #@! TO.N,GND*
X84000000Y-68010000D03*
G04 #@! TO.P,U2,18*
G04 #@! TO.N,Net-(U2-Pad18)*
X81460000Y-68010000D03*
G04 #@! TO.P,U2,19*
G04 #@! TO.N,Net-(U2-Pad19)*
X78920000Y-68010000D03*
G04 #@! TO.P,U2,20*
G04 #@! TO.N,Net-(U2-Pad20)*
X76380000Y-68010000D03*
G04 #@! TO.P,U2,16*
G04 #@! TO.N,Net-(U2-Pad16)*
X86540000Y-68010000D03*
G04 #@! TO.P,U2,15*
G04 #@! TO.N,Net-(U2-Pad15)*
X89080000Y-68010000D03*
G04 #@! TO.P,U2,14*
G04 #@! TO.N,Net-(U2-Pad14)*
X91620000Y-68010000D03*
G04 #@! TO.P,U2,21*
G04 #@! TO.N,/CV_in*
X76380000Y-65470000D03*
G04 #@! TO.P,U2,22*
G04 #@! TO.N,/Pot_CVamt*
X76380000Y-62930000D03*
G04 #@! TO.P,U2,23*
G04 #@! TO.N,/LED_Sh_B*
X76380000Y-60390000D03*
G04 #@! TO.P,U2,24*
G04 #@! TO.N,/CV_ind_LED_shuffle*
X76380000Y-57850000D03*
G04 #@! TO.P,U2,25*
G04 #@! TO.N,/Pot_Length*
X76380000Y-55310000D03*
G04 #@! TO.P,U2,26*
G04 #@! TO.N,/Pot_Divisions*
X76380000Y-52770000D03*
G04 #@! TO.P,U2,27*
G04 #@! TO.N,/CV_ind_LED_shift*
X76380000Y-50230000D03*
G04 #@! TO.P,U2,28*
G04 #@! TO.N,/Cycle_in*
X76380000Y-47690000D03*
G04 #@! TO.P,U2,29*
G04 #@! TO.N,/CV_ind_LED_Divs*
X76380000Y-45150000D03*
G04 #@! TO.P,U2,30*
G04 #@! TO.N,/CV_ind_LED_Length*
X76380000Y-42610000D03*
G04 #@! TO.P,U2,31*
G04 #@! TO.N,/+3_3V*
X76380000Y-40070000D03*
G04 #@! TO.P,U2,32*
G04 #@! TO.N,GND*
X76380000Y-37530000D03*
G04 #@! TO.P,U2,33*
G04 #@! TO.N,+5V*
X76380000Y-34990000D03*
G04 #@! TO.P,U2,34*
G04 #@! TO.N,Net-(U2-Pad34)*
X78920000Y-37530000D03*
G04 #@! TO.P,U2,35*
G04 #@! TO.N,Net-(U2-Pad35)*
X78920000Y-42610000D03*
G04 #@! TO.P,U2,36*
G04 #@! TO.N,Net-(U2-Pad36)*
X78920000Y-45150000D03*
G04 #@! TO.P,U2,37*
G04 #@! TO.N,Net-(U2-Pad37)*
X78920000Y-47690000D03*
G04 #@! TO.P,U2,13*
G04 #@! TO.N,/Trigger_in*
X91620000Y-65470000D03*
G04 #@! TO.P,U2,12*
G04 #@! TO.N,/DigiOut_Thru*
X91620000Y-62930000D03*
G04 #@! TO.P,U2,11*
G04 #@! TO.N,/DigiOut_out*
X91620000Y-60390000D03*
G04 #@! TO.P,U2,10*
G04 #@! TO.N,/DigiOut_Cycle*
X91620000Y-57850000D03*
G04 #@! TO.P,U2,9*
G04 #@! TO.N,/EncoderSw*
X91620000Y-55310000D03*
G04 #@! TO.P,U2,8*
G04 #@! TO.N,/EncoderB*
X91620000Y-52770000D03*
G04 #@! TO.P,U2,7*
G04 #@! TO.N,/EncoderA*
X91620000Y-50230000D03*
G04 #@! TO.P,U2,6*
G04 #@! TO.N,/SW_CVassgn*
X91620000Y-47690000D03*
G04 #@! TO.P,U2,5*
G04 #@! TO.N,/SW_OutMode2*
X91620000Y-45150000D03*
G04 #@! TO.P,U2,4*
G04 #@! TO.N,/SW_OutMode1*
X91620000Y-42610000D03*
G04 #@! TO.P,U2,3*
G04 #@! TO.N,/SW_DivEuc2*
X91620000Y-40070000D03*
G04 #@! TO.P,U2,2*
G04 #@! TO.N,/SW_DivEuc1*
X91620000Y-37530000D03*
D12*
G04 #@! TO.P,U2,1*
G04 #@! TO.N,GND*
X91620000Y-34990000D03*
G04 #@! TD*
D23*
G04 #@! TO.N,+12V*
X66500000Y-91000000D03*
X68000000Y-102500000D03*
X88500000Y-102500000D03*
X73500000Y-40000000D03*
X67329990Y-40000000D03*
G04 #@! TO.N,-12V*
X88500000Y-78000000D03*
X75500000Y-77500000D03*
X70500000Y-46000000D03*
G04 #@! TO.N,/+12V_in*
X71000000Y-23000000D03*
D24*
G04 #@! TO.N,Net-(D7-Pad1)*
X72500000Y-86050000D03*
G04 #@! TO.N,/CV_in*
X75500000Y-85000000D03*
X65900001Y-84000000D03*
X65900001Y-66000000D03*
D23*
G04 #@! TO.N,/+3_3V*
X80500000Y-39000000D03*
X91000000Y-28500000D03*
G04 #@! TO.N,+5V*
X76000000Y-29920000D03*
D24*
G04 #@! TO.N,/LED_Sh_B*
X87485301Y-29985301D03*
X83620464Y-46620464D03*
X86100001Y-40500000D03*
G04 #@! TO.N,/Pot_Length*
X87150001Y-43000000D03*
X88050011Y-34015269D03*
G04 #@! TO.N,/Pot_Divisions*
X86100001Y-46000000D03*
G04 #@! TO.N,/Pot_CVamt*
X84000000Y-51500000D03*
X86500000Y-49000000D03*
G04 #@! TO.N,/EncoderA*
X93500000Y-42570001D03*
G04 #@! TO.N,/EncoderB*
X94120929Y-43626004D03*
G04 #@! TO.N,/EncoderSw*
X95500000Y-44500000D03*
G04 #@! TO.N,/SW_CVassgn*
X95549990Y-52000000D03*
G04 #@! TO.N,/CVin_B*
X67889702Y-105854422D03*
X82000000Y-106500000D03*
G04 #@! TO.N,/OutT_B*
X79000000Y-74500000D03*
X70000000Y-75000000D03*
X70000000Y-97000000D03*
G04 #@! TO.N,/OutM_B*
X68950000Y-95950000D03*
X68950000Y-76000000D03*
X91000000Y-75500000D03*
G04 #@! TO.N,/OutC_B*
X68000000Y-104500000D03*
X95523391Y-105000000D03*
G04 #@! TO.N,Net-(R1-Pad1)*
X92450656Y-96119679D03*
X97431834Y-100606702D03*
X91931834Y-100106702D03*
G04 #@! TO.N,Net-(R2-Pad1)*
X94973391Y-81311486D03*
X97460818Y-81230362D03*
G04 #@! TO.N,Net-(R3-Pad1)*
X83431834Y-82890678D03*
G04 #@! TO.N,Net-(R4-Pad1)*
X94707656Y-96432264D03*
G04 #@! TO.N,Net-(R6-Pad1)*
X79473391Y-81311486D03*
X81973391Y-81311486D03*
X80431834Y-83106702D03*
G04 #@! TO.N,Net-(R17-Pad1)*
X83431834Y-99390678D03*
G04 #@! TO.N,Net-(R21-Pad1)*
X84973391Y-101311486D03*
X76473391Y-101311486D03*
X80431834Y-101311486D03*
G04 #@! TO.N,/CV_ind_LED_Length*
X81500000Y-40500000D03*
G04 #@! TO.N,/CV_ind_LED_Divs*
X81950000Y-32500000D03*
G04 #@! TO.N,/CV_ind_LED_shift*
X84000000Y-40500000D03*
G04 #@! TO.N,/CV_ind_LED_shuffle*
X83000000Y-57500000D03*
G04 #@! TO.N,/DigiOut_out*
X100875000Y-70500000D03*
X93500000Y-80500000D03*
G04 #@! TO.N,/DigiOut_Cycle*
X93500000Y-68000000D03*
G04 #@! TO.N,/DigiOut_Thru*
X100550000Y-84500000D03*
X86500000Y-84500000D03*
G04 #@! TD*
D25*
G04 #@! TO.N,+12V*
X88593391Y-98945145D02*
X88431834Y-99106702D01*
X88593391Y-94811486D02*
X88593391Y-98945145D01*
X65500000Y-40000000D02*
X67329990Y-40000000D01*
X66500000Y-91000000D02*
X67000000Y-91500000D01*
X67000000Y-91500000D02*
X67000000Y-101500000D01*
X67000000Y-101500000D02*
X68000000Y-102500000D01*
X88500000Y-99174868D02*
X88431834Y-99106702D01*
X88500000Y-102500000D02*
X88500000Y-99174868D01*
X67099999Y-90400001D02*
X66500000Y-91000000D01*
X67335001Y-90164999D02*
X67099999Y-90400001D01*
X67335001Y-45119199D02*
X67335001Y-90164999D01*
X67329990Y-45114188D02*
X67335001Y-45119199D01*
X67329990Y-40000000D02*
X67329990Y-45114188D01*
X74000000Y-27500000D02*
X74000000Y-39500000D01*
X74000000Y-39500000D02*
X73500000Y-40000000D01*
D26*
G04 #@! TO.N,GND*
X66500000Y-19760000D02*
X63960000Y-19760000D01*
X63960000Y-19760000D02*
X63960000Y-22300000D01*
X63960000Y-22300000D02*
X63960000Y-24840000D01*
X63960000Y-24840000D02*
X66500000Y-24840000D01*
X66500000Y-24840000D02*
X66500000Y-22300000D01*
X66500000Y-22300000D02*
X66500000Y-19760000D01*
X66500000Y-22300000D02*
X63960000Y-22300000D01*
D25*
G04 #@! TO.N,-12V*
X88431834Y-87029929D02*
X88593391Y-87191486D01*
X88431834Y-82606702D02*
X88431834Y-87029929D01*
X88500000Y-82538536D02*
X88431834Y-82606702D01*
X88500000Y-78000000D02*
X88500000Y-82538536D01*
X75500000Y-72840000D02*
X75500000Y-77500000D01*
X70500000Y-27660000D02*
X70500000Y-46000000D01*
X70500000Y-67840000D02*
X75500000Y-72840000D01*
X70500000Y-46000000D02*
X70500000Y-67840000D01*
G04 #@! TO.N,/+12V_in*
X67349999Y-26530001D02*
X66500000Y-27380000D01*
X67599801Y-26530001D02*
X67349999Y-26530001D01*
X70400001Y-23729801D02*
X67599801Y-26530001D01*
X70400001Y-23599999D02*
X70400001Y-23729801D01*
X71000000Y-23000000D02*
X70400001Y-23599999D01*
X66500000Y-27380000D02*
X63960000Y-27380000D01*
G04 #@! TO.N,/-12V_in*
X66500000Y-17220000D02*
X63960000Y-17220000D01*
D26*
G04 #@! TO.N,Net-(D6-Pad1)*
X93730000Y-115730000D02*
X92500000Y-114500000D01*
X97000000Y-115730000D02*
X93730000Y-115730000D01*
X90900000Y-114500000D02*
X92500000Y-114500000D01*
X88900000Y-116500000D02*
X90900000Y-114500000D01*
X81660000Y-116500000D02*
X88900000Y-116500000D01*
X79660000Y-114500000D02*
X81660000Y-116500000D01*
X69394226Y-100149847D02*
X69394226Y-99018477D01*
X69394226Y-103102856D02*
X69394226Y-100149847D01*
X79660000Y-113368630D02*
X69394226Y-103102856D01*
X79660000Y-114500000D02*
X79660000Y-113368630D01*
G04 #@! TO.N,Net-(D7-Pad1)*
X72500000Y-98624251D02*
X72894226Y-99018477D01*
X72500000Y-86050000D02*
X72500000Y-98624251D01*
G04 #@! TO.N,/CV_in*
X76000000Y-89000000D02*
X76000000Y-85500000D01*
X76000000Y-85500000D02*
X75500000Y-85000000D01*
X65900001Y-84000000D02*
X65900001Y-66000000D01*
D25*
G04 #@! TO.N,/+3_3V*
X80500000Y-39000000D02*
X81000000Y-38500000D01*
X81000000Y-38500000D02*
X91000000Y-28500000D01*
X88500000Y-52630000D02*
X88500000Y-55000000D01*
X89000000Y-52130000D02*
X88500000Y-52630000D01*
X89000000Y-39000000D02*
X89000000Y-52130000D01*
X80500000Y-39000000D02*
X89000000Y-39000000D01*
G04 #@! TO.N,+5V*
X76380000Y-30300000D02*
X76000000Y-29920000D01*
X76380000Y-34990000D02*
X76380000Y-30300000D01*
D26*
G04 #@! TO.N,/LED_Sh_B*
X93160000Y-17000000D02*
X93160000Y-24310602D01*
X93160000Y-24310602D02*
X87485301Y-29985301D01*
X83620464Y-46620464D02*
X86100001Y-44140927D01*
X86100001Y-44140927D02*
X86100001Y-40500000D01*
G04 #@! TO.N,/Pot_Length*
X87150001Y-46504002D02*
X87150001Y-43000000D01*
X76380000Y-55310000D02*
X78344003Y-55310000D01*
X78344003Y-55310000D02*
X87150001Y-46504002D01*
X99000000Y-31620000D02*
X90445280Y-31620000D01*
X90445280Y-31620000D02*
X88050011Y-34015269D01*
G04 #@! TO.N,/Pot_Divisions*
X76380000Y-52770000D02*
X79330001Y-52770000D01*
X79330001Y-52770000D02*
X86100001Y-46000000D01*
G04 #@! TO.N,/Pot_CVamt*
X84000000Y-51500000D02*
X86500000Y-49000000D01*
G04 #@! TO.N,/EncoderA*
X99000000Y-39240000D02*
X96830001Y-39240000D01*
X96830001Y-39240000D02*
X93500000Y-42570001D01*
G04 #@! TO.N,/EncoderB*
X99000000Y-41780000D02*
X95966933Y-41780000D01*
X95966933Y-41780000D02*
X94120929Y-43626004D01*
G04 #@! TO.N,/EncoderSw*
X98820000Y-44500000D02*
X99000000Y-44320000D01*
X95500000Y-44500000D02*
X98820000Y-44500000D01*
G04 #@! TO.N,/SW_CVassgn*
X91620000Y-48070010D02*
X91620000Y-47690000D01*
X95549990Y-52000000D02*
X91620000Y-48070010D01*
G04 #@! TO.N,/SW_OutMode1*
X92419999Y-43409999D02*
X91620000Y-42610000D01*
X97499999Y-48489999D02*
X92419999Y-43409999D01*
X97499999Y-52979999D02*
X97499999Y-48489999D01*
X99000000Y-54480000D02*
X97499999Y-52979999D01*
G04 #@! TO.N,/SW_OutMode2*
X98150001Y-56170001D02*
X99000000Y-57020000D01*
X96599990Y-54619990D02*
X98150001Y-56170001D01*
X96599990Y-50129990D02*
X96599990Y-54619990D01*
X91620000Y-45150000D02*
X96599990Y-50129990D01*
G04 #@! TO.N,/Rin_B*
X72094227Y-108378478D02*
X72894226Y-109178477D01*
X71444225Y-107728476D02*
X72094227Y-108378478D01*
X68209754Y-107728476D02*
X71444225Y-107728476D01*
X66761278Y-106280000D02*
X68209754Y-107728476D01*
X63500000Y-106280000D02*
X66761278Y-106280000D01*
G04 #@! TO.N,/CVin_B*
X67800420Y-105854422D02*
X67889702Y-105854422D01*
X64349999Y-102404001D02*
X67800420Y-105854422D01*
X63500000Y-101200000D02*
X64349999Y-102049999D01*
X64349999Y-102049999D02*
X64349999Y-102404001D01*
X82000000Y-109344805D02*
X82205873Y-109550678D01*
X82000000Y-106500000D02*
X82000000Y-109344805D01*
G04 #@! TO.N,/OutT_B*
X78973391Y-72811486D02*
X78973391Y-74473391D01*
X78973391Y-74473391D02*
X79000000Y-74500000D01*
X70000000Y-75000000D02*
X70000000Y-97000000D01*
G04 #@! TO.N,/OutM_B*
X68950000Y-95950000D02*
X68950000Y-76000000D01*
X91000000Y-73038536D02*
X91431834Y-72606702D01*
X91000000Y-75500000D02*
X91000000Y-73038536D01*
G04 #@! TO.N,/OutC_B*
X63500000Y-93580000D02*
X65080000Y-93580000D01*
X65080000Y-93580000D02*
X65500000Y-94000000D01*
X65500000Y-94000000D02*
X65500000Y-102000000D01*
X65500000Y-102000000D02*
X68000000Y-104500000D01*
X95523391Y-108261486D02*
X94473391Y-109311486D01*
X95523391Y-105000000D02*
X95523391Y-108261486D01*
G04 #@! TO.N,/Trigger_in*
X99040000Y-114460000D02*
X97000000Y-114460000D01*
X99500000Y-114000000D02*
X99040000Y-114460000D01*
X99500000Y-72299611D02*
X99500000Y-114000000D01*
X93470388Y-66269999D02*
X99500000Y-72299611D01*
X91620000Y-65470000D02*
X92419999Y-66269999D01*
X92419999Y-66269999D02*
X93470388Y-66269999D01*
G04 #@! TO.N,Net-(R1-Pad1)*
X91173391Y-98851486D02*
X91473391Y-99151486D01*
X92450656Y-98174221D02*
X91473391Y-99151486D01*
X92450656Y-96119679D02*
X92450656Y-98174221D01*
X97759090Y-99236542D02*
X97759090Y-100279446D01*
X97759090Y-100279446D02*
X97431834Y-100606702D01*
X91931834Y-99609929D02*
X91473391Y-99151486D01*
X91931834Y-100106702D02*
X91931834Y-99609929D01*
G04 #@! TO.N,Net-(R2-Pad1)*
X94673391Y-82843968D02*
X94705873Y-82811486D01*
X94705873Y-82811486D02*
X94705873Y-81579004D01*
X94705873Y-81579004D02*
X94973391Y-81311486D01*
X97460818Y-72896541D02*
X97705873Y-72651486D01*
X97460818Y-81230362D02*
X97460818Y-72896541D01*
X93673391Y-83843968D02*
X94705873Y-82811486D01*
X93673391Y-87191486D02*
X93673391Y-83843968D01*
G04 #@! TO.N,Net-(R3-Pad1)*
X82013391Y-83163968D02*
X82205873Y-82971486D01*
X83513391Y-82972235D02*
X83431834Y-82890678D01*
X83513391Y-87191486D02*
X83513391Y-82972235D01*
G04 #@! TO.N,Net-(R4-Pad1)*
X94473391Y-106311486D02*
X91473391Y-109311486D01*
X94473391Y-99151486D02*
X94473391Y-106311486D01*
X94473391Y-99151486D02*
X94473391Y-96666529D01*
X94473391Y-96666529D02*
X94707656Y-96432264D01*
G04 #@! TO.N,Net-(R5-Pad1)*
X97213391Y-83303968D02*
X97705873Y-82811486D01*
X96213391Y-84303968D02*
X97705873Y-82811486D01*
X96213391Y-87191486D02*
X96213391Y-84303968D01*
G04 #@! TO.N,Net-(R6-Pad1)*
X79473391Y-83471486D02*
X78973391Y-82971486D01*
X78973391Y-82971486D02*
X78973391Y-81811486D01*
X78973391Y-81811486D02*
X79473391Y-81311486D01*
X81973391Y-81311486D02*
X82473391Y-80811486D01*
X82473391Y-80811486D02*
X82473391Y-74311486D01*
X82205873Y-74043968D02*
X82205873Y-72811486D01*
X82473391Y-74311486D02*
X82205873Y-74043968D01*
X80973391Y-87191486D02*
X80431834Y-86649929D01*
X80431834Y-86649929D02*
X80431834Y-83106702D01*
G04 #@! TO.N,/Vref*
X78973391Y-109318196D02*
X79205873Y-109550678D01*
X72340000Y-83000000D02*
X72000000Y-82660000D01*
X75500000Y-83000000D02*
X72340000Y-83000000D01*
X78405874Y-108750679D02*
X79205873Y-109550678D01*
X77523392Y-107868197D02*
X78405874Y-108750679D01*
X77523392Y-85023392D02*
X77523392Y-107868197D01*
X75500000Y-83000000D02*
X77523392Y-85023392D01*
G04 #@! TO.N,Net-(R17-Pad1)*
X83513391Y-99309121D02*
X83431834Y-99390678D01*
X83513391Y-94811486D02*
X83513391Y-99309121D01*
G04 #@! TO.N,Net-(R21-Pad1)*
X85205873Y-109390678D02*
X85205873Y-101543968D01*
X85205873Y-101543968D02*
X84973391Y-101311486D01*
X76473391Y-101311486D02*
X75973391Y-100811486D01*
X80973391Y-94811486D02*
X80973391Y-96511486D01*
X80973391Y-96511486D02*
X80755872Y-96729005D01*
X80755872Y-96729005D02*
X80755872Y-100987448D01*
X80755872Y-100987448D02*
X80431834Y-101311486D01*
X76000000Y-100473391D02*
X75973391Y-100500000D01*
X76000000Y-99160000D02*
X76000000Y-100473391D01*
X75973391Y-100811486D02*
X75973391Y-100500000D01*
X75973391Y-100500000D02*
X75973391Y-99151486D01*
G04 #@! TO.N,/CV_ind_LED_Length*
X76380000Y-42610000D02*
X78490000Y-40500000D01*
X78490000Y-40500000D02*
X81500000Y-40500000D01*
G04 #@! TO.N,/CV_ind_LED_Divs*
X85540000Y-28910000D02*
X85540000Y-17000000D01*
X81950000Y-32500000D02*
X85540000Y-28910000D01*
G04 #@! TO.N,/CV_ind_LED_shift*
X84000000Y-44756002D02*
X84000000Y-40500000D01*
X76380000Y-50230000D02*
X78526002Y-50230000D01*
X78526002Y-50230000D02*
X84000000Y-44756002D01*
G04 #@! TO.N,/CV_ind_LED_shuffle*
X76730000Y-57500000D02*
X76380000Y-57850000D01*
X83000000Y-57500000D02*
X76730000Y-57500000D01*
G04 #@! TO.N,/DigiOut_out*
X91620000Y-60390000D02*
X100875000Y-69645000D01*
X100875000Y-69645000D02*
X100875000Y-70500000D01*
X91133391Y-85491486D02*
X91133391Y-87191486D01*
X89981833Y-84339928D02*
X91133391Y-85491486D01*
X89981833Y-82070701D02*
X89981833Y-84339928D01*
X91552534Y-80500000D02*
X89981833Y-82070701D01*
X93500000Y-80500000D02*
X91552534Y-80500000D01*
G04 #@! TO.N,/DigiOut_Cycle*
X93500000Y-68276002D02*
X93500000Y-68000000D01*
X80755872Y-74607469D02*
X80755872Y-72115485D01*
X77523390Y-83667487D02*
X77523390Y-77839951D01*
X91133391Y-94411486D02*
X85763401Y-89041496D01*
X77523390Y-77839951D02*
X80755872Y-74607469D01*
X91133391Y-94811486D02*
X91133391Y-94411486D01*
X92316001Y-69460001D02*
X93500000Y-68276002D01*
X85763401Y-89041496D02*
X80372778Y-89041496D01*
X80755872Y-72115485D02*
X83411356Y-69460001D01*
X80372778Y-89041496D02*
X79523381Y-88192099D01*
X79523381Y-88192099D02*
X79523381Y-85667478D01*
X83411356Y-69460001D02*
X92316001Y-69460001D01*
X79523381Y-85667478D02*
X77523390Y-83667487D01*
G04 #@! TO.N,/DigiOut_Thru*
X91620000Y-62930000D02*
X100550000Y-71860000D01*
X100550000Y-71860000D02*
X100550000Y-84500000D01*
X86500000Y-86744877D02*
X86053391Y-87191486D01*
X86500000Y-84500000D02*
X86500000Y-86744877D01*
G04 #@! TD*
D27*
G04 #@! TO.N,GND*
G36*
X101040001Y-119290000D02*
X62210000Y-119290000D01*
X62210000Y-115507745D01*
X68671861Y-115507745D01*
X68745995Y-115753864D01*
X69283223Y-115946965D01*
X69853454Y-115919778D01*
X70254005Y-115753864D01*
X70328139Y-115507745D01*
X69500000Y-114679605D01*
X68671861Y-115507745D01*
X62210000Y-115507745D01*
X62210000Y-114283223D01*
X68053035Y-114283223D01*
X68080222Y-114853454D01*
X68246136Y-115254005D01*
X68492255Y-115328139D01*
X69320395Y-114500000D01*
X69679605Y-114500000D01*
X70507745Y-115328139D01*
X70753864Y-115254005D01*
X70946965Y-114716777D01*
X70919778Y-114146546D01*
X70753864Y-113745995D01*
X70507745Y-113671861D01*
X69679605Y-114500000D01*
X69320395Y-114500000D01*
X68492255Y-113671861D01*
X68246136Y-113745995D01*
X68053035Y-114283223D01*
X62210000Y-114283223D01*
X62210000Y-113492255D01*
X68671861Y-113492255D01*
X69500000Y-114320395D01*
X70328139Y-113492255D01*
X70254005Y-113246136D01*
X69716777Y-113053035D01*
X69146546Y-113080222D01*
X68745995Y-113246136D01*
X68671861Y-113492255D01*
X62210000Y-113492255D01*
X62210000Y-109542608D01*
X62228355Y-109586924D01*
X62618642Y-110015183D01*
X63143108Y-110261486D01*
X63373000Y-110140819D01*
X63373000Y-108947000D01*
X63627000Y-108947000D01*
X63627000Y-110140819D01*
X63856892Y-110261486D01*
X64381358Y-110015183D01*
X64771645Y-109586924D01*
X64941476Y-109176890D01*
X64820155Y-108947000D01*
X63627000Y-108947000D01*
X63373000Y-108947000D01*
X63353000Y-108947000D01*
X63353000Y-108693000D01*
X63373000Y-108693000D01*
X63373000Y-108673000D01*
X63627000Y-108673000D01*
X63627000Y-108693000D01*
X64820155Y-108693000D01*
X64941476Y-108463110D01*
X64771645Y-108053076D01*
X64381358Y-107624817D01*
X64251522Y-107563843D01*
X64570625Y-107350625D01*
X64694656Y-107165000D01*
X66394700Y-107165000D01*
X67522331Y-108292632D01*
X67571705Y-108366525D01*
X67645598Y-108415899D01*
X67645599Y-108415900D01*
X67670220Y-108432351D01*
X67864444Y-108562128D01*
X68054887Y-108600009D01*
X68042486Y-108618568D01*
X67931113Y-109178477D01*
X68042486Y-109738386D01*
X68359649Y-110213054D01*
X68834317Y-110530217D01*
X69252893Y-110613477D01*
X69535559Y-110613477D01*
X69954135Y-110530217D01*
X70428803Y-110213054D01*
X70745966Y-109738386D01*
X70857339Y-109178477D01*
X70745966Y-108618568D01*
X70742564Y-108613476D01*
X71077647Y-108613476D01*
X71466209Y-109002039D01*
X71431113Y-109178477D01*
X71542486Y-109738386D01*
X71859649Y-110213054D01*
X72334317Y-110530217D01*
X72752893Y-110613477D01*
X73035559Y-110613477D01*
X73454135Y-110530217D01*
X73928803Y-110213054D01*
X74245966Y-109738386D01*
X74334266Y-109294474D01*
X78577274Y-113537483D01*
X78308260Y-113940091D01*
X78196887Y-114500000D01*
X78308260Y-115059909D01*
X78625423Y-115534577D01*
X79100091Y-115851740D01*
X79518667Y-115935000D01*
X79801333Y-115935000D01*
X79836439Y-115928017D01*
X80972577Y-117064156D01*
X81021951Y-117138049D01*
X81095844Y-117187423D01*
X81095845Y-117187424D01*
X81206880Y-117261615D01*
X81314690Y-117333652D01*
X81572835Y-117385000D01*
X81572839Y-117385000D01*
X81659999Y-117402337D01*
X81747159Y-117385000D01*
X88812839Y-117385000D01*
X88900000Y-117402337D01*
X88987161Y-117385000D01*
X88987165Y-117385000D01*
X89245310Y-117333652D01*
X89317000Y-117285750D01*
X95615000Y-117285750D01*
X95615000Y-117651309D01*
X95711673Y-117884698D01*
X95890301Y-118063327D01*
X96123690Y-118160000D01*
X96714250Y-118160000D01*
X96873000Y-118001250D01*
X96873000Y-117127000D01*
X97127000Y-117127000D01*
X97127000Y-118001250D01*
X97285750Y-118160000D01*
X97876310Y-118160000D01*
X98109699Y-118063327D01*
X98288327Y-117884698D01*
X98385000Y-117651309D01*
X98385000Y-117285750D01*
X98226250Y-117127000D01*
X97127000Y-117127000D01*
X96873000Y-117127000D01*
X95773750Y-117127000D01*
X95615000Y-117285750D01*
X89317000Y-117285750D01*
X89538049Y-117138049D01*
X89587425Y-117064153D01*
X90802632Y-115848946D01*
X90942191Y-116057809D01*
X91152235Y-116198157D01*
X91400000Y-116247440D01*
X92995861Y-116247440D01*
X93042577Y-116294156D01*
X93091951Y-116368049D01*
X93165844Y-116417423D01*
X93165845Y-116417424D01*
X93384690Y-116563652D01*
X93642835Y-116615000D01*
X93642839Y-116615000D01*
X93730000Y-116632337D01*
X93817161Y-116615000D01*
X95615000Y-116615000D01*
X95615000Y-116714250D01*
X95773750Y-116873000D01*
X96575290Y-116873000D01*
X96660754Y-116890000D01*
X97339246Y-116890000D01*
X97424710Y-116873000D01*
X98226250Y-116873000D01*
X98385000Y-116714250D01*
X98385000Y-116348691D01*
X98316776Y-116183984D01*
X98317695Y-116182609D01*
X98407725Y-115730000D01*
X98331143Y-115345000D01*
X98952839Y-115345000D01*
X99040000Y-115362337D01*
X99127161Y-115345000D01*
X99127165Y-115345000D01*
X99385310Y-115293652D01*
X99678049Y-115098049D01*
X99727425Y-115024153D01*
X100064153Y-114687425D01*
X100138049Y-114638049D01*
X100333652Y-114345310D01*
X100385000Y-114087165D01*
X100385000Y-114087161D01*
X100402337Y-114000001D01*
X100385000Y-113912841D01*
X100385000Y-85535000D01*
X100755874Y-85535000D01*
X101040001Y-85417311D01*
X101040001Y-119290000D01*
X101040001Y-119290000D01*
G37*
X101040001Y-119290000D02*
X62210000Y-119290000D01*
X62210000Y-115507745D01*
X68671861Y-115507745D01*
X68745995Y-115753864D01*
X69283223Y-115946965D01*
X69853454Y-115919778D01*
X70254005Y-115753864D01*
X70328139Y-115507745D01*
X69500000Y-114679605D01*
X68671861Y-115507745D01*
X62210000Y-115507745D01*
X62210000Y-114283223D01*
X68053035Y-114283223D01*
X68080222Y-114853454D01*
X68246136Y-115254005D01*
X68492255Y-115328139D01*
X69320395Y-114500000D01*
X69679605Y-114500000D01*
X70507745Y-115328139D01*
X70753864Y-115254005D01*
X70946965Y-114716777D01*
X70919778Y-114146546D01*
X70753864Y-113745995D01*
X70507745Y-113671861D01*
X69679605Y-114500000D01*
X69320395Y-114500000D01*
X68492255Y-113671861D01*
X68246136Y-113745995D01*
X68053035Y-114283223D01*
X62210000Y-114283223D01*
X62210000Y-113492255D01*
X68671861Y-113492255D01*
X69500000Y-114320395D01*
X70328139Y-113492255D01*
X70254005Y-113246136D01*
X69716777Y-113053035D01*
X69146546Y-113080222D01*
X68745995Y-113246136D01*
X68671861Y-113492255D01*
X62210000Y-113492255D01*
X62210000Y-109542608D01*
X62228355Y-109586924D01*
X62618642Y-110015183D01*
X63143108Y-110261486D01*
X63373000Y-110140819D01*
X63373000Y-108947000D01*
X63627000Y-108947000D01*
X63627000Y-110140819D01*
X63856892Y-110261486D01*
X64381358Y-110015183D01*
X64771645Y-109586924D01*
X64941476Y-109176890D01*
X64820155Y-108947000D01*
X63627000Y-108947000D01*
X63373000Y-108947000D01*
X63353000Y-108947000D01*
X63353000Y-108693000D01*
X63373000Y-108693000D01*
X63373000Y-108673000D01*
X63627000Y-108673000D01*
X63627000Y-108693000D01*
X64820155Y-108693000D01*
X64941476Y-108463110D01*
X64771645Y-108053076D01*
X64381358Y-107624817D01*
X64251522Y-107563843D01*
X64570625Y-107350625D01*
X64694656Y-107165000D01*
X66394700Y-107165000D01*
X67522331Y-108292632D01*
X67571705Y-108366525D01*
X67645598Y-108415899D01*
X67645599Y-108415900D01*
X67670220Y-108432351D01*
X67864444Y-108562128D01*
X68054887Y-108600009D01*
X68042486Y-108618568D01*
X67931113Y-109178477D01*
X68042486Y-109738386D01*
X68359649Y-110213054D01*
X68834317Y-110530217D01*
X69252893Y-110613477D01*
X69535559Y-110613477D01*
X69954135Y-110530217D01*
X70428803Y-110213054D01*
X70745966Y-109738386D01*
X70857339Y-109178477D01*
X70745966Y-108618568D01*
X70742564Y-108613476D01*
X71077647Y-108613476D01*
X71466209Y-109002039D01*
X71431113Y-109178477D01*
X71542486Y-109738386D01*
X71859649Y-110213054D01*
X72334317Y-110530217D01*
X72752893Y-110613477D01*
X73035559Y-110613477D01*
X73454135Y-110530217D01*
X73928803Y-110213054D01*
X74245966Y-109738386D01*
X74334266Y-109294474D01*
X78577274Y-113537483D01*
X78308260Y-113940091D01*
X78196887Y-114500000D01*
X78308260Y-115059909D01*
X78625423Y-115534577D01*
X79100091Y-115851740D01*
X79518667Y-115935000D01*
X79801333Y-115935000D01*
X79836439Y-115928017D01*
X80972577Y-117064156D01*
X81021951Y-117138049D01*
X81095844Y-117187423D01*
X81095845Y-117187424D01*
X81206880Y-117261615D01*
X81314690Y-117333652D01*
X81572835Y-117385000D01*
X81572839Y-117385000D01*
X81659999Y-117402337D01*
X81747159Y-117385000D01*
X88812839Y-117385000D01*
X88900000Y-117402337D01*
X88987161Y-117385000D01*
X88987165Y-117385000D01*
X89245310Y-117333652D01*
X89317000Y-117285750D01*
X95615000Y-117285750D01*
X95615000Y-117651309D01*
X95711673Y-117884698D01*
X95890301Y-118063327D01*
X96123690Y-118160000D01*
X96714250Y-118160000D01*
X96873000Y-118001250D01*
X96873000Y-117127000D01*
X97127000Y-117127000D01*
X97127000Y-118001250D01*
X97285750Y-118160000D01*
X97876310Y-118160000D01*
X98109699Y-118063327D01*
X98288327Y-117884698D01*
X98385000Y-117651309D01*
X98385000Y-117285750D01*
X98226250Y-117127000D01*
X97127000Y-117127000D01*
X96873000Y-117127000D01*
X95773750Y-117127000D01*
X95615000Y-117285750D01*
X89317000Y-117285750D01*
X89538049Y-117138049D01*
X89587425Y-117064153D01*
X90802632Y-115848946D01*
X90942191Y-116057809D01*
X91152235Y-116198157D01*
X91400000Y-116247440D01*
X92995861Y-116247440D01*
X93042577Y-116294156D01*
X93091951Y-116368049D01*
X93165844Y-116417423D01*
X93165845Y-116417424D01*
X93384690Y-116563652D01*
X93642835Y-116615000D01*
X93642839Y-116615000D01*
X93730000Y-116632337D01*
X93817161Y-116615000D01*
X95615000Y-116615000D01*
X95615000Y-116714250D01*
X95773750Y-116873000D01*
X96575290Y-116873000D01*
X96660754Y-116890000D01*
X97339246Y-116890000D01*
X97424710Y-116873000D01*
X98226250Y-116873000D01*
X98385000Y-116714250D01*
X98385000Y-116348691D01*
X98316776Y-116183984D01*
X98317695Y-116182609D01*
X98407725Y-115730000D01*
X98331143Y-115345000D01*
X98952839Y-115345000D01*
X99040000Y-115362337D01*
X99127161Y-115345000D01*
X99127165Y-115345000D01*
X99385310Y-115293652D01*
X99678049Y-115098049D01*
X99727425Y-115024153D01*
X100064153Y-114687425D01*
X100138049Y-114638049D01*
X100333652Y-114345310D01*
X100385000Y-114087165D01*
X100385000Y-114087161D01*
X100402337Y-114000001D01*
X100385000Y-113912841D01*
X100385000Y-85535000D01*
X100755874Y-85535000D01*
X101040001Y-85417311D01*
X101040001Y-119290000D01*
G36*
X70965423Y-83694577D02*
X71440091Y-84011740D01*
X71858667Y-84095000D01*
X72141333Y-84095000D01*
X72559909Y-84011740D01*
X72749589Y-83885000D01*
X74355604Y-83885000D01*
X74687138Y-84216534D01*
X74780912Y-84255377D01*
X74622569Y-84413720D01*
X74465000Y-84794126D01*
X74465000Y-85205874D01*
X74622569Y-85586280D01*
X74913720Y-85877431D01*
X75115001Y-85960804D01*
X75115000Y-87855604D01*
X74783466Y-88187138D01*
X74565000Y-88714561D01*
X74565000Y-89285439D01*
X74783466Y-89812862D01*
X75187138Y-90216534D01*
X75714561Y-90435000D01*
X76285439Y-90435000D01*
X76638392Y-90288802D01*
X76638393Y-97860701D01*
X76559909Y-97808260D01*
X76141333Y-97725000D01*
X75858667Y-97725000D01*
X75440091Y-97808260D01*
X74965423Y-98125423D01*
X74648260Y-98600091D01*
X74536887Y-99160000D01*
X74648260Y-99719909D01*
X74965423Y-100194577D01*
X75088391Y-100276742D01*
X75088391Y-100412839D01*
X75071054Y-100500000D01*
X75088391Y-100587161D01*
X75088391Y-100724325D01*
X75071054Y-100811486D01*
X75088391Y-100898647D01*
X75088391Y-100898650D01*
X75139739Y-101156795D01*
X75335342Y-101449535D01*
X75409238Y-101498911D01*
X75445960Y-101535633D01*
X75595960Y-101897766D01*
X75887111Y-102188917D01*
X76267517Y-102346486D01*
X76638393Y-102346486D01*
X76638393Y-107781031D01*
X76621055Y-107868197D01*
X76689740Y-108213506D01*
X76835968Y-108432351D01*
X76835970Y-108432353D01*
X76885344Y-108506246D01*
X76959237Y-108555620D01*
X77777856Y-109374240D01*
X77742760Y-109550678D01*
X77854133Y-110110587D01*
X78171296Y-110585255D01*
X78645964Y-110902418D01*
X79064540Y-110985678D01*
X79347206Y-110985678D01*
X79765782Y-110902418D01*
X80240450Y-110585255D01*
X80557613Y-110110587D01*
X80668986Y-109550678D01*
X80742760Y-109550678D01*
X80854133Y-110110587D01*
X81171296Y-110585255D01*
X81645964Y-110902418D01*
X82064540Y-110985678D01*
X82347206Y-110985678D01*
X82765782Y-110902418D01*
X83240450Y-110585255D01*
X83557613Y-110110587D01*
X83668986Y-109550678D01*
X83557613Y-108990769D01*
X83240450Y-108516101D01*
X82885000Y-108278597D01*
X82885000Y-107068007D01*
X83035000Y-106705874D01*
X83035000Y-106294126D01*
X82877431Y-105913720D01*
X82586280Y-105622569D01*
X82205874Y-105465000D01*
X81794126Y-105465000D01*
X81413720Y-105622569D01*
X81122569Y-105913720D01*
X80965000Y-106294126D01*
X80965000Y-106705874D01*
X81115000Y-107068007D01*
X81115001Y-108600353D01*
X80854133Y-108990769D01*
X80742760Y-109550678D01*
X80668986Y-109550678D01*
X80557613Y-108990769D01*
X80240450Y-108516101D01*
X79765782Y-108198938D01*
X79347206Y-108115678D01*
X79064540Y-108115678D01*
X79029435Y-108122661D01*
X78408392Y-107501619D01*
X78408392Y-100613583D01*
X78920434Y-100825678D01*
X79491312Y-100825678D01*
X79517234Y-100814941D01*
X79396834Y-101105612D01*
X79396834Y-101517360D01*
X79554403Y-101897766D01*
X79845554Y-102188917D01*
X80225960Y-102346486D01*
X80637708Y-102346486D01*
X81018114Y-102188917D01*
X81309265Y-101897766D01*
X81466834Y-101517360D01*
X81466834Y-101516376D01*
X81589524Y-101332758D01*
X81640872Y-101074613D01*
X81640872Y-101074609D01*
X81658209Y-100987448D01*
X81640872Y-100900287D01*
X81640872Y-100709880D01*
X81920434Y-100825678D01*
X82491312Y-100825678D01*
X83018735Y-100607212D01*
X83207794Y-100418153D01*
X83225960Y-100425678D01*
X83637708Y-100425678D01*
X84018114Y-100268109D01*
X84111083Y-100175140D01*
X84171296Y-100265255D01*
X84409836Y-100424642D01*
X84387111Y-100434055D01*
X84095960Y-100725206D01*
X83938391Y-101105612D01*
X83938391Y-101517360D01*
X84095960Y-101897766D01*
X84320874Y-102122680D01*
X84320873Y-108246282D01*
X83989339Y-108577816D01*
X83770873Y-109105239D01*
X83770873Y-109676117D01*
X83989339Y-110203540D01*
X84393011Y-110607212D01*
X84920434Y-110825678D01*
X85491312Y-110825678D01*
X86018735Y-110607212D01*
X86422407Y-110203540D01*
X86459310Y-110114447D01*
X87603695Y-110114447D01*
X87677829Y-110360566D01*
X88215057Y-110553667D01*
X88785288Y-110526480D01*
X89185839Y-110360566D01*
X89259973Y-110114447D01*
X88431834Y-109286307D01*
X87603695Y-110114447D01*
X86459310Y-110114447D01*
X86640873Y-109676117D01*
X86640873Y-109105239D01*
X86551687Y-108889925D01*
X86984869Y-108889925D01*
X87012056Y-109460156D01*
X87177970Y-109860707D01*
X87424089Y-109934841D01*
X88252229Y-109106702D01*
X88611439Y-109106702D01*
X89439579Y-109934841D01*
X89685698Y-109860707D01*
X89878799Y-109323479D01*
X89851612Y-108753248D01*
X89685698Y-108352697D01*
X89439579Y-108278563D01*
X88611439Y-109106702D01*
X88252229Y-109106702D01*
X87424089Y-108278563D01*
X87177970Y-108352697D01*
X86984869Y-108889925D01*
X86551687Y-108889925D01*
X86422407Y-108577816D01*
X86090873Y-108246282D01*
X86090873Y-108098957D01*
X87603695Y-108098957D01*
X88431834Y-108927097D01*
X89259973Y-108098957D01*
X89185839Y-107852838D01*
X88648611Y-107659737D01*
X88078380Y-107686924D01*
X87677829Y-107852838D01*
X87603695Y-108098957D01*
X86090873Y-108098957D01*
X86090873Y-101631127D01*
X86108210Y-101543967D01*
X86090873Y-101456808D01*
X86090873Y-101456803D01*
X86039525Y-101198658D01*
X86008391Y-101152063D01*
X86008391Y-101105612D01*
X85850822Y-100725206D01*
X85717615Y-100591999D01*
X85765782Y-100582418D01*
X86240450Y-100265255D01*
X86557613Y-99790587D01*
X86668986Y-99230678D01*
X86557613Y-98670769D01*
X86240450Y-98196101D01*
X85765782Y-97878938D01*
X85347206Y-97795678D01*
X85064540Y-97795678D01*
X84645964Y-97878938D01*
X84398391Y-98044361D01*
X84398391Y-96346007D01*
X84547968Y-96246063D01*
X84785890Y-95889987D01*
X85128495Y-96315986D01*
X85621572Y-96585853D01*
X85704352Y-96603390D01*
X85926391Y-96481401D01*
X85926391Y-94938486D01*
X85906391Y-94938486D01*
X85906391Y-94684486D01*
X85926391Y-94684486D01*
X85926391Y-93141571D01*
X85704352Y-93019582D01*
X85621572Y-93037119D01*
X85128495Y-93306986D01*
X84785890Y-93732985D01*
X84547967Y-93376909D01*
X84073299Y-93059746D01*
X83513391Y-92948373D01*
X82953482Y-93059746D01*
X82478814Y-93376910D01*
X82398176Y-93497593D01*
X82371548Y-93363721D01*
X82231200Y-93153677D01*
X82021156Y-93013329D01*
X81773391Y-92964046D01*
X80173391Y-92964046D01*
X79925626Y-93013329D01*
X79715582Y-93153677D01*
X79575234Y-93363721D01*
X79525951Y-93611486D01*
X79525951Y-96011486D01*
X79575234Y-96259251D01*
X79715582Y-96469295D01*
X79882949Y-96581127D01*
X79870872Y-96641841D01*
X79870872Y-96641844D01*
X79853535Y-96729005D01*
X79870872Y-96816166D01*
X79870872Y-98112897D01*
X79491312Y-97955678D01*
X78920434Y-97955678D01*
X78408392Y-98167773D01*
X78408392Y-85804068D01*
X78638382Y-86034058D01*
X78638381Y-88104938D01*
X78621044Y-88192099D01*
X78638381Y-88279260D01*
X78638381Y-88279263D01*
X78689729Y-88537408D01*
X78885332Y-88830148D01*
X78959228Y-88879524D01*
X79685355Y-89605652D01*
X79734729Y-89679545D01*
X79808622Y-89728919D01*
X79808623Y-89728920D01*
X79920521Y-89803688D01*
X80027468Y-89875148D01*
X80285613Y-89926496D01*
X80285617Y-89926496D01*
X80372778Y-89943833D01*
X80459939Y-89926496D01*
X85396823Y-89926496D01*
X88447683Y-92977356D01*
X88033482Y-93059746D01*
X87558814Y-93376910D01*
X87320892Y-93732985D01*
X86978287Y-93306986D01*
X86485210Y-93037119D01*
X86402430Y-93019582D01*
X86180391Y-93141571D01*
X86180391Y-94684486D01*
X86200391Y-94684486D01*
X86200391Y-94938486D01*
X86180391Y-94938486D01*
X86180391Y-96481401D01*
X86402430Y-96603390D01*
X86485210Y-96585853D01*
X86978287Y-96315986D01*
X87320892Y-95889987D01*
X87323391Y-95893728D01*
X87323392Y-98182672D01*
X87080094Y-98546793D01*
X86968721Y-99106702D01*
X87080094Y-99666611D01*
X87230001Y-99890962D01*
X87230000Y-102625079D01*
X87303687Y-102995528D01*
X87584382Y-103415618D01*
X88004471Y-103696313D01*
X88500000Y-103794880D01*
X88995528Y-103696313D01*
X89415618Y-103415618D01*
X89696313Y-102995529D01*
X89770000Y-102625080D01*
X89770000Y-99686926D01*
X89783574Y-99666611D01*
X89894947Y-99106702D01*
X89875541Y-99009140D01*
X89888270Y-98945146D01*
X89863391Y-98820071D01*
X89863391Y-95893727D01*
X90098815Y-96246063D01*
X90573483Y-96563226D01*
X91133391Y-96674599D01*
X91527744Y-96596157D01*
X91565656Y-96687686D01*
X91565657Y-97716486D01*
X91332058Y-97716486D01*
X90913482Y-97799746D01*
X90438814Y-98116909D01*
X90121651Y-98591577D01*
X90010278Y-99151486D01*
X90121651Y-99711395D01*
X90438814Y-100186063D01*
X90913482Y-100503226D01*
X90981400Y-100516736D01*
X91054403Y-100692982D01*
X91345554Y-100984133D01*
X91725960Y-101141702D01*
X92137708Y-101141702D01*
X92518114Y-100984133D01*
X92809265Y-100692982D01*
X92966834Y-100312576D01*
X92966834Y-99900828D01*
X92845647Y-99608256D01*
X92936504Y-99151486D01*
X92901408Y-98975048D01*
X93014812Y-98861644D01*
X93076074Y-98820710D01*
X93010278Y-99151486D01*
X93121651Y-99711395D01*
X93438814Y-100186063D01*
X93588391Y-100286007D01*
X93588392Y-105944906D01*
X91656813Y-107876486D01*
X91187952Y-107876486D01*
X90660529Y-108094952D01*
X90256857Y-108498624D01*
X90038391Y-109026047D01*
X90038391Y-109596925D01*
X90256857Y-110124348D01*
X90660529Y-110528020D01*
X91187952Y-110746486D01*
X91758830Y-110746486D01*
X92286253Y-110528020D01*
X92689925Y-110124348D01*
X92908391Y-109596925D01*
X92908391Y-109128064D01*
X93058178Y-108978278D01*
X93038391Y-109026047D01*
X93038391Y-109596925D01*
X93256857Y-110124348D01*
X93660529Y-110528020D01*
X94187952Y-110746486D01*
X94758830Y-110746486D01*
X95286253Y-110528020D01*
X95689925Y-110124348D01*
X95846814Y-109745583D01*
X96367176Y-109745583D01*
X96606701Y-110251676D01*
X97021667Y-110627583D01*
X97410051Y-110788446D01*
X97632090Y-110666457D01*
X97632090Y-109523542D01*
X96488461Y-109523542D01*
X96367176Y-109745583D01*
X95846814Y-109745583D01*
X95908391Y-109596925D01*
X95908391Y-109128065D01*
X95988955Y-109047501D01*
X96367176Y-109047501D01*
X96488461Y-109269542D01*
X97632090Y-109269542D01*
X97632090Y-108126627D01*
X97410051Y-108004638D01*
X97021667Y-108165501D01*
X96606701Y-108541408D01*
X96367176Y-109047501D01*
X95988955Y-109047501D01*
X96087547Y-108948909D01*
X96161440Y-108899535D01*
X96357043Y-108606796D01*
X96408391Y-108348651D01*
X96408391Y-108348647D01*
X96425728Y-108261487D01*
X96408391Y-108174327D01*
X96408391Y-105568007D01*
X96558391Y-105205874D01*
X96558391Y-104794126D01*
X96400822Y-104413720D01*
X96109671Y-104122569D01*
X95729265Y-103965000D01*
X95358391Y-103965000D01*
X95358391Y-100286007D01*
X95507968Y-100186063D01*
X95825131Y-99711395D01*
X95936504Y-99151486D01*
X95825131Y-98591577D01*
X95507968Y-98116909D01*
X95358391Y-98016965D01*
X95358391Y-97245240D01*
X95585087Y-97018544D01*
X95742656Y-96638138D01*
X95742656Y-96580964D01*
X96213391Y-96674599D01*
X96773300Y-96563226D01*
X97247968Y-96246063D01*
X97565131Y-95771395D01*
X97648391Y-95352818D01*
X97648391Y-94270153D01*
X97565131Y-93851577D01*
X97247967Y-93376909D01*
X96773299Y-93059746D01*
X96213391Y-92948373D01*
X95653482Y-93059746D01*
X95178814Y-93376910D01*
X94943391Y-93729245D01*
X94707967Y-93376909D01*
X94233299Y-93059746D01*
X93673391Y-92948373D01*
X93113482Y-93059746D01*
X92638814Y-93376910D01*
X92403391Y-93729245D01*
X92167967Y-93376909D01*
X91693299Y-93059746D01*
X91133391Y-92948373D01*
X90956953Y-92983469D01*
X86795180Y-88821697D01*
X87087968Y-88626063D01*
X87323391Y-88273727D01*
X87558815Y-88626063D01*
X88033483Y-88943226D01*
X88593391Y-89054599D01*
X89153300Y-88943226D01*
X89627968Y-88626063D01*
X89863391Y-88273727D01*
X90098815Y-88626063D01*
X90573483Y-88943226D01*
X91133391Y-89054599D01*
X91693300Y-88943226D01*
X92167968Y-88626063D01*
X92403391Y-88273727D01*
X92638815Y-88626063D01*
X93113483Y-88943226D01*
X93673391Y-89054599D01*
X94233300Y-88943226D01*
X94707968Y-88626063D01*
X94943391Y-88273727D01*
X95178815Y-88626063D01*
X95653483Y-88943226D01*
X96213391Y-89054599D01*
X96773300Y-88943226D01*
X97247968Y-88626063D01*
X97565131Y-88151395D01*
X97648391Y-87732818D01*
X97648391Y-86650153D01*
X97565131Y-86231577D01*
X97247967Y-85756909D01*
X97098391Y-85656966D01*
X97098391Y-84670546D01*
X97522451Y-84246486D01*
X97991312Y-84246486D01*
X98518735Y-84028020D01*
X98615000Y-83931755D01*
X98615001Y-98063057D01*
X98571952Y-98020008D01*
X98044529Y-97801542D01*
X97473651Y-97801542D01*
X96946228Y-98020008D01*
X96542556Y-98423680D01*
X96324090Y-98951103D01*
X96324090Y-99521981D01*
X96542477Y-100049214D01*
X96396834Y-100400828D01*
X96396834Y-100812576D01*
X96554403Y-101192982D01*
X96845554Y-101484133D01*
X97225960Y-101641702D01*
X97637708Y-101641702D01*
X98018114Y-101484133D01*
X98309265Y-101192982D01*
X98466165Y-100814190D01*
X98592742Y-100624756D01*
X98615001Y-100512854D01*
X98615001Y-108272836D01*
X98496513Y-108165501D01*
X98108129Y-108004638D01*
X97886090Y-108126627D01*
X97886090Y-109269542D01*
X97906090Y-109269542D01*
X97906090Y-109523542D01*
X97886090Y-109523542D01*
X97886090Y-110666457D01*
X98108129Y-110788446D01*
X98496513Y-110627583D01*
X98615001Y-110520248D01*
X98615001Y-113575000D01*
X97988448Y-113575000D01*
X97677609Y-113367305D01*
X97339246Y-113300000D01*
X96660754Y-113300000D01*
X96322391Y-113367305D01*
X95938687Y-113623687D01*
X95682305Y-114007391D01*
X95592275Y-114460000D01*
X95668857Y-114845000D01*
X94247440Y-114845000D01*
X94247440Y-113400000D01*
X94198157Y-113152235D01*
X94057809Y-112942191D01*
X93847765Y-112801843D01*
X93600000Y-112752560D01*
X91400000Y-112752560D01*
X91152235Y-112801843D01*
X90942191Y-112942191D01*
X90801843Y-113152235D01*
X90752560Y-113400000D01*
X90752560Y-113626989D01*
X90554690Y-113666348D01*
X90483464Y-113713940D01*
X90335845Y-113812576D01*
X90335844Y-113812577D01*
X90261951Y-113861951D01*
X90212577Y-113935844D01*
X88533422Y-115615000D01*
X83627065Y-115615000D01*
X83814534Y-115414332D01*
X84029175Y-114896122D01*
X83911125Y-114627000D01*
X82467000Y-114627000D01*
X82467000Y-114647000D01*
X82213000Y-114647000D01*
X82213000Y-114627000D01*
X82193000Y-114627000D01*
X82193000Y-114373000D01*
X82213000Y-114373000D01*
X82213000Y-112928396D01*
X82467000Y-112928396D01*
X82467000Y-114373000D01*
X83911125Y-114373000D01*
X84029175Y-114103878D01*
X83814534Y-113585668D01*
X83352392Y-113090988D01*
X82736123Y-112810817D01*
X82467000Y-112928396D01*
X82213000Y-112928396D01*
X81943877Y-112810817D01*
X81327608Y-113090988D01*
X80865466Y-113585668D01*
X80830817Y-113669321D01*
X80694577Y-113465423D01*
X80560856Y-113376074D01*
X80562337Y-113368630D01*
X80545000Y-113281469D01*
X80545000Y-113281465D01*
X80493652Y-113023320D01*
X80439443Y-112942191D01*
X80347424Y-112804475D01*
X80347423Y-112804474D01*
X80298049Y-112730581D01*
X80224156Y-112681207D01*
X70279226Y-102736278D01*
X70279226Y-100162873D01*
X70610760Y-99831339D01*
X70829226Y-99303916D01*
X70829226Y-98733038D01*
X71459226Y-98733038D01*
X71459226Y-99303916D01*
X71677692Y-99831339D01*
X72081364Y-100235011D01*
X72608787Y-100453477D01*
X73179665Y-100453477D01*
X73707088Y-100235011D01*
X74110760Y-99831339D01*
X74329226Y-99303916D01*
X74329226Y-98733038D01*
X74110760Y-98205615D01*
X73707088Y-97801943D01*
X73385000Y-97668530D01*
X73385000Y-86618007D01*
X73535000Y-86255874D01*
X73535000Y-85844126D01*
X73377431Y-85463720D01*
X73086280Y-85172569D01*
X72705874Y-85015000D01*
X72294126Y-85015000D01*
X71913720Y-85172569D01*
X71622569Y-85463720D01*
X71465000Y-85844126D01*
X71465000Y-86255874D01*
X71615000Y-86618007D01*
X71615001Y-98356964D01*
X71459226Y-98733038D01*
X70829226Y-98733038D01*
X70610760Y-98205615D01*
X70371529Y-97966384D01*
X70586280Y-97877431D01*
X70877431Y-97586280D01*
X71035000Y-97205874D01*
X71035000Y-96794126D01*
X70885000Y-96431993D01*
X70885000Y-83574215D01*
X70965423Y-83694577D01*
X70965423Y-83694577D01*
G37*
X70965423Y-83694577D02*
X71440091Y-84011740D01*
X71858667Y-84095000D01*
X72141333Y-84095000D01*
X72559909Y-84011740D01*
X72749589Y-83885000D01*
X74355604Y-83885000D01*
X74687138Y-84216534D01*
X74780912Y-84255377D01*
X74622569Y-84413720D01*
X74465000Y-84794126D01*
X74465000Y-85205874D01*
X74622569Y-85586280D01*
X74913720Y-85877431D01*
X75115001Y-85960804D01*
X75115000Y-87855604D01*
X74783466Y-88187138D01*
X74565000Y-88714561D01*
X74565000Y-89285439D01*
X74783466Y-89812862D01*
X75187138Y-90216534D01*
X75714561Y-90435000D01*
X76285439Y-90435000D01*
X76638392Y-90288802D01*
X76638393Y-97860701D01*
X76559909Y-97808260D01*
X76141333Y-97725000D01*
X75858667Y-97725000D01*
X75440091Y-97808260D01*
X74965423Y-98125423D01*
X74648260Y-98600091D01*
X74536887Y-99160000D01*
X74648260Y-99719909D01*
X74965423Y-100194577D01*
X75088391Y-100276742D01*
X75088391Y-100412839D01*
X75071054Y-100500000D01*
X75088391Y-100587161D01*
X75088391Y-100724325D01*
X75071054Y-100811486D01*
X75088391Y-100898647D01*
X75088391Y-100898650D01*
X75139739Y-101156795D01*
X75335342Y-101449535D01*
X75409238Y-101498911D01*
X75445960Y-101535633D01*
X75595960Y-101897766D01*
X75887111Y-102188917D01*
X76267517Y-102346486D01*
X76638393Y-102346486D01*
X76638393Y-107781031D01*
X76621055Y-107868197D01*
X76689740Y-108213506D01*
X76835968Y-108432351D01*
X76835970Y-108432353D01*
X76885344Y-108506246D01*
X76959237Y-108555620D01*
X77777856Y-109374240D01*
X77742760Y-109550678D01*
X77854133Y-110110587D01*
X78171296Y-110585255D01*
X78645964Y-110902418D01*
X79064540Y-110985678D01*
X79347206Y-110985678D01*
X79765782Y-110902418D01*
X80240450Y-110585255D01*
X80557613Y-110110587D01*
X80668986Y-109550678D01*
X80742760Y-109550678D01*
X80854133Y-110110587D01*
X81171296Y-110585255D01*
X81645964Y-110902418D01*
X82064540Y-110985678D01*
X82347206Y-110985678D01*
X82765782Y-110902418D01*
X83240450Y-110585255D01*
X83557613Y-110110587D01*
X83668986Y-109550678D01*
X83557613Y-108990769D01*
X83240450Y-108516101D01*
X82885000Y-108278597D01*
X82885000Y-107068007D01*
X83035000Y-106705874D01*
X83035000Y-106294126D01*
X82877431Y-105913720D01*
X82586280Y-105622569D01*
X82205874Y-105465000D01*
X81794126Y-105465000D01*
X81413720Y-105622569D01*
X81122569Y-105913720D01*
X80965000Y-106294126D01*
X80965000Y-106705874D01*
X81115000Y-107068007D01*
X81115001Y-108600353D01*
X80854133Y-108990769D01*
X80742760Y-109550678D01*
X80668986Y-109550678D01*
X80557613Y-108990769D01*
X80240450Y-108516101D01*
X79765782Y-108198938D01*
X79347206Y-108115678D01*
X79064540Y-108115678D01*
X79029435Y-108122661D01*
X78408392Y-107501619D01*
X78408392Y-100613583D01*
X78920434Y-100825678D01*
X79491312Y-100825678D01*
X79517234Y-100814941D01*
X79396834Y-101105612D01*
X79396834Y-101517360D01*
X79554403Y-101897766D01*
X79845554Y-102188917D01*
X80225960Y-102346486D01*
X80637708Y-102346486D01*
X81018114Y-102188917D01*
X81309265Y-101897766D01*
X81466834Y-101517360D01*
X81466834Y-101516376D01*
X81589524Y-101332758D01*
X81640872Y-101074613D01*
X81640872Y-101074609D01*
X81658209Y-100987448D01*
X81640872Y-100900287D01*
X81640872Y-100709880D01*
X81920434Y-100825678D01*
X82491312Y-100825678D01*
X83018735Y-100607212D01*
X83207794Y-100418153D01*
X83225960Y-100425678D01*
X83637708Y-100425678D01*
X84018114Y-100268109D01*
X84111083Y-100175140D01*
X84171296Y-100265255D01*
X84409836Y-100424642D01*
X84387111Y-100434055D01*
X84095960Y-100725206D01*
X83938391Y-101105612D01*
X83938391Y-101517360D01*
X84095960Y-101897766D01*
X84320874Y-102122680D01*
X84320873Y-108246282D01*
X83989339Y-108577816D01*
X83770873Y-109105239D01*
X83770873Y-109676117D01*
X83989339Y-110203540D01*
X84393011Y-110607212D01*
X84920434Y-110825678D01*
X85491312Y-110825678D01*
X86018735Y-110607212D01*
X86422407Y-110203540D01*
X86459310Y-110114447D01*
X87603695Y-110114447D01*
X87677829Y-110360566D01*
X88215057Y-110553667D01*
X88785288Y-110526480D01*
X89185839Y-110360566D01*
X89259973Y-110114447D01*
X88431834Y-109286307D01*
X87603695Y-110114447D01*
X86459310Y-110114447D01*
X86640873Y-109676117D01*
X86640873Y-109105239D01*
X86551687Y-108889925D01*
X86984869Y-108889925D01*
X87012056Y-109460156D01*
X87177970Y-109860707D01*
X87424089Y-109934841D01*
X88252229Y-109106702D01*
X88611439Y-109106702D01*
X89439579Y-109934841D01*
X89685698Y-109860707D01*
X89878799Y-109323479D01*
X89851612Y-108753248D01*
X89685698Y-108352697D01*
X89439579Y-108278563D01*
X88611439Y-109106702D01*
X88252229Y-109106702D01*
X87424089Y-108278563D01*
X87177970Y-108352697D01*
X86984869Y-108889925D01*
X86551687Y-108889925D01*
X86422407Y-108577816D01*
X86090873Y-108246282D01*
X86090873Y-108098957D01*
X87603695Y-108098957D01*
X88431834Y-108927097D01*
X89259973Y-108098957D01*
X89185839Y-107852838D01*
X88648611Y-107659737D01*
X88078380Y-107686924D01*
X87677829Y-107852838D01*
X87603695Y-108098957D01*
X86090873Y-108098957D01*
X86090873Y-101631127D01*
X86108210Y-101543967D01*
X86090873Y-101456808D01*
X86090873Y-101456803D01*
X86039525Y-101198658D01*
X86008391Y-101152063D01*
X86008391Y-101105612D01*
X85850822Y-100725206D01*
X85717615Y-100591999D01*
X85765782Y-100582418D01*
X86240450Y-100265255D01*
X86557613Y-99790587D01*
X86668986Y-99230678D01*
X86557613Y-98670769D01*
X86240450Y-98196101D01*
X85765782Y-97878938D01*
X85347206Y-97795678D01*
X85064540Y-97795678D01*
X84645964Y-97878938D01*
X84398391Y-98044361D01*
X84398391Y-96346007D01*
X84547968Y-96246063D01*
X84785890Y-95889987D01*
X85128495Y-96315986D01*
X85621572Y-96585853D01*
X85704352Y-96603390D01*
X85926391Y-96481401D01*
X85926391Y-94938486D01*
X85906391Y-94938486D01*
X85906391Y-94684486D01*
X85926391Y-94684486D01*
X85926391Y-93141571D01*
X85704352Y-93019582D01*
X85621572Y-93037119D01*
X85128495Y-93306986D01*
X84785890Y-93732985D01*
X84547967Y-93376909D01*
X84073299Y-93059746D01*
X83513391Y-92948373D01*
X82953482Y-93059746D01*
X82478814Y-93376910D01*
X82398176Y-93497593D01*
X82371548Y-93363721D01*
X82231200Y-93153677D01*
X82021156Y-93013329D01*
X81773391Y-92964046D01*
X80173391Y-92964046D01*
X79925626Y-93013329D01*
X79715582Y-93153677D01*
X79575234Y-93363721D01*
X79525951Y-93611486D01*
X79525951Y-96011486D01*
X79575234Y-96259251D01*
X79715582Y-96469295D01*
X79882949Y-96581127D01*
X79870872Y-96641841D01*
X79870872Y-96641844D01*
X79853535Y-96729005D01*
X79870872Y-96816166D01*
X79870872Y-98112897D01*
X79491312Y-97955678D01*
X78920434Y-97955678D01*
X78408392Y-98167773D01*
X78408392Y-85804068D01*
X78638382Y-86034058D01*
X78638381Y-88104938D01*
X78621044Y-88192099D01*
X78638381Y-88279260D01*
X78638381Y-88279263D01*
X78689729Y-88537408D01*
X78885332Y-88830148D01*
X78959228Y-88879524D01*
X79685355Y-89605652D01*
X79734729Y-89679545D01*
X79808622Y-89728919D01*
X79808623Y-89728920D01*
X79920521Y-89803688D01*
X80027468Y-89875148D01*
X80285613Y-89926496D01*
X80285617Y-89926496D01*
X80372778Y-89943833D01*
X80459939Y-89926496D01*
X85396823Y-89926496D01*
X88447683Y-92977356D01*
X88033482Y-93059746D01*
X87558814Y-93376910D01*
X87320892Y-93732985D01*
X86978287Y-93306986D01*
X86485210Y-93037119D01*
X86402430Y-93019582D01*
X86180391Y-93141571D01*
X86180391Y-94684486D01*
X86200391Y-94684486D01*
X86200391Y-94938486D01*
X86180391Y-94938486D01*
X86180391Y-96481401D01*
X86402430Y-96603390D01*
X86485210Y-96585853D01*
X86978287Y-96315986D01*
X87320892Y-95889987D01*
X87323391Y-95893728D01*
X87323392Y-98182672D01*
X87080094Y-98546793D01*
X86968721Y-99106702D01*
X87080094Y-99666611D01*
X87230001Y-99890962D01*
X87230000Y-102625079D01*
X87303687Y-102995528D01*
X87584382Y-103415618D01*
X88004471Y-103696313D01*
X88500000Y-103794880D01*
X88995528Y-103696313D01*
X89415618Y-103415618D01*
X89696313Y-102995529D01*
X89770000Y-102625080D01*
X89770000Y-99686926D01*
X89783574Y-99666611D01*
X89894947Y-99106702D01*
X89875541Y-99009140D01*
X89888270Y-98945146D01*
X89863391Y-98820071D01*
X89863391Y-95893727D01*
X90098815Y-96246063D01*
X90573483Y-96563226D01*
X91133391Y-96674599D01*
X91527744Y-96596157D01*
X91565656Y-96687686D01*
X91565657Y-97716486D01*
X91332058Y-97716486D01*
X90913482Y-97799746D01*
X90438814Y-98116909D01*
X90121651Y-98591577D01*
X90010278Y-99151486D01*
X90121651Y-99711395D01*
X90438814Y-100186063D01*
X90913482Y-100503226D01*
X90981400Y-100516736D01*
X91054403Y-100692982D01*
X91345554Y-100984133D01*
X91725960Y-101141702D01*
X92137708Y-101141702D01*
X92518114Y-100984133D01*
X92809265Y-100692982D01*
X92966834Y-100312576D01*
X92966834Y-99900828D01*
X92845647Y-99608256D01*
X92936504Y-99151486D01*
X92901408Y-98975048D01*
X93014812Y-98861644D01*
X93076074Y-98820710D01*
X93010278Y-99151486D01*
X93121651Y-99711395D01*
X93438814Y-100186063D01*
X93588391Y-100286007D01*
X93588392Y-105944906D01*
X91656813Y-107876486D01*
X91187952Y-107876486D01*
X90660529Y-108094952D01*
X90256857Y-108498624D01*
X90038391Y-109026047D01*
X90038391Y-109596925D01*
X90256857Y-110124348D01*
X90660529Y-110528020D01*
X91187952Y-110746486D01*
X91758830Y-110746486D01*
X92286253Y-110528020D01*
X92689925Y-110124348D01*
X92908391Y-109596925D01*
X92908391Y-109128064D01*
X93058178Y-108978278D01*
X93038391Y-109026047D01*
X93038391Y-109596925D01*
X93256857Y-110124348D01*
X93660529Y-110528020D01*
X94187952Y-110746486D01*
X94758830Y-110746486D01*
X95286253Y-110528020D01*
X95689925Y-110124348D01*
X95846814Y-109745583D01*
X96367176Y-109745583D01*
X96606701Y-110251676D01*
X97021667Y-110627583D01*
X97410051Y-110788446D01*
X97632090Y-110666457D01*
X97632090Y-109523542D01*
X96488461Y-109523542D01*
X96367176Y-109745583D01*
X95846814Y-109745583D01*
X95908391Y-109596925D01*
X95908391Y-109128065D01*
X95988955Y-109047501D01*
X96367176Y-109047501D01*
X96488461Y-109269542D01*
X97632090Y-109269542D01*
X97632090Y-108126627D01*
X97410051Y-108004638D01*
X97021667Y-108165501D01*
X96606701Y-108541408D01*
X96367176Y-109047501D01*
X95988955Y-109047501D01*
X96087547Y-108948909D01*
X96161440Y-108899535D01*
X96357043Y-108606796D01*
X96408391Y-108348651D01*
X96408391Y-108348647D01*
X96425728Y-108261487D01*
X96408391Y-108174327D01*
X96408391Y-105568007D01*
X96558391Y-105205874D01*
X96558391Y-104794126D01*
X96400822Y-104413720D01*
X96109671Y-104122569D01*
X95729265Y-103965000D01*
X95358391Y-103965000D01*
X95358391Y-100286007D01*
X95507968Y-100186063D01*
X95825131Y-99711395D01*
X95936504Y-99151486D01*
X95825131Y-98591577D01*
X95507968Y-98116909D01*
X95358391Y-98016965D01*
X95358391Y-97245240D01*
X95585087Y-97018544D01*
X95742656Y-96638138D01*
X95742656Y-96580964D01*
X96213391Y-96674599D01*
X96773300Y-96563226D01*
X97247968Y-96246063D01*
X97565131Y-95771395D01*
X97648391Y-95352818D01*
X97648391Y-94270153D01*
X97565131Y-93851577D01*
X97247967Y-93376909D01*
X96773299Y-93059746D01*
X96213391Y-92948373D01*
X95653482Y-93059746D01*
X95178814Y-93376910D01*
X94943391Y-93729245D01*
X94707967Y-93376909D01*
X94233299Y-93059746D01*
X93673391Y-92948373D01*
X93113482Y-93059746D01*
X92638814Y-93376910D01*
X92403391Y-93729245D01*
X92167967Y-93376909D01*
X91693299Y-93059746D01*
X91133391Y-92948373D01*
X90956953Y-92983469D01*
X86795180Y-88821697D01*
X87087968Y-88626063D01*
X87323391Y-88273727D01*
X87558815Y-88626063D01*
X88033483Y-88943226D01*
X88593391Y-89054599D01*
X89153300Y-88943226D01*
X89627968Y-88626063D01*
X89863391Y-88273727D01*
X90098815Y-88626063D01*
X90573483Y-88943226D01*
X91133391Y-89054599D01*
X91693300Y-88943226D01*
X92167968Y-88626063D01*
X92403391Y-88273727D01*
X92638815Y-88626063D01*
X93113483Y-88943226D01*
X93673391Y-89054599D01*
X94233300Y-88943226D01*
X94707968Y-88626063D01*
X94943391Y-88273727D01*
X95178815Y-88626063D01*
X95653483Y-88943226D01*
X96213391Y-89054599D01*
X96773300Y-88943226D01*
X97247968Y-88626063D01*
X97565131Y-88151395D01*
X97648391Y-87732818D01*
X97648391Y-86650153D01*
X97565131Y-86231577D01*
X97247967Y-85756909D01*
X97098391Y-85656966D01*
X97098391Y-84670546D01*
X97522451Y-84246486D01*
X97991312Y-84246486D01*
X98518735Y-84028020D01*
X98615000Y-83931755D01*
X98615001Y-98063057D01*
X98571952Y-98020008D01*
X98044529Y-97801542D01*
X97473651Y-97801542D01*
X96946228Y-98020008D01*
X96542556Y-98423680D01*
X96324090Y-98951103D01*
X96324090Y-99521981D01*
X96542477Y-100049214D01*
X96396834Y-100400828D01*
X96396834Y-100812576D01*
X96554403Y-101192982D01*
X96845554Y-101484133D01*
X97225960Y-101641702D01*
X97637708Y-101641702D01*
X98018114Y-101484133D01*
X98309265Y-101192982D01*
X98466165Y-100814190D01*
X98592742Y-100624756D01*
X98615001Y-100512854D01*
X98615001Y-108272836D01*
X98496513Y-108165501D01*
X98108129Y-108004638D01*
X97886090Y-108126627D01*
X97886090Y-109269542D01*
X97906090Y-109269542D01*
X97906090Y-109523542D01*
X97886090Y-109523542D01*
X97886090Y-110666457D01*
X98108129Y-110788446D01*
X98496513Y-110627583D01*
X98615001Y-110520248D01*
X98615001Y-113575000D01*
X97988448Y-113575000D01*
X97677609Y-113367305D01*
X97339246Y-113300000D01*
X96660754Y-113300000D01*
X96322391Y-113367305D01*
X95938687Y-113623687D01*
X95682305Y-114007391D01*
X95592275Y-114460000D01*
X95668857Y-114845000D01*
X94247440Y-114845000D01*
X94247440Y-113400000D01*
X94198157Y-113152235D01*
X94057809Y-112942191D01*
X93847765Y-112801843D01*
X93600000Y-112752560D01*
X91400000Y-112752560D01*
X91152235Y-112801843D01*
X90942191Y-112942191D01*
X90801843Y-113152235D01*
X90752560Y-113400000D01*
X90752560Y-113626989D01*
X90554690Y-113666348D01*
X90483464Y-113713940D01*
X90335845Y-113812576D01*
X90335844Y-113812577D01*
X90261951Y-113861951D01*
X90212577Y-113935844D01*
X88533422Y-115615000D01*
X83627065Y-115615000D01*
X83814534Y-115414332D01*
X84029175Y-114896122D01*
X83911125Y-114627000D01*
X82467000Y-114627000D01*
X82467000Y-114647000D01*
X82213000Y-114647000D01*
X82213000Y-114627000D01*
X82193000Y-114627000D01*
X82193000Y-114373000D01*
X82213000Y-114373000D01*
X82213000Y-112928396D01*
X82467000Y-112928396D01*
X82467000Y-114373000D01*
X83911125Y-114373000D01*
X84029175Y-114103878D01*
X83814534Y-113585668D01*
X83352392Y-113090988D01*
X82736123Y-112810817D01*
X82467000Y-112928396D01*
X82213000Y-112928396D01*
X81943877Y-112810817D01*
X81327608Y-113090988D01*
X80865466Y-113585668D01*
X80830817Y-113669321D01*
X80694577Y-113465423D01*
X80560856Y-113376074D01*
X80562337Y-113368630D01*
X80545000Y-113281469D01*
X80545000Y-113281465D01*
X80493652Y-113023320D01*
X80439443Y-112942191D01*
X80347424Y-112804475D01*
X80347423Y-112804474D01*
X80298049Y-112730581D01*
X80224156Y-112681207D01*
X70279226Y-102736278D01*
X70279226Y-100162873D01*
X70610760Y-99831339D01*
X70829226Y-99303916D01*
X70829226Y-98733038D01*
X71459226Y-98733038D01*
X71459226Y-99303916D01*
X71677692Y-99831339D01*
X72081364Y-100235011D01*
X72608787Y-100453477D01*
X73179665Y-100453477D01*
X73707088Y-100235011D01*
X74110760Y-99831339D01*
X74329226Y-99303916D01*
X74329226Y-98733038D01*
X74110760Y-98205615D01*
X73707088Y-97801943D01*
X73385000Y-97668530D01*
X73385000Y-86618007D01*
X73535000Y-86255874D01*
X73535000Y-85844126D01*
X73377431Y-85463720D01*
X73086280Y-85172569D01*
X72705874Y-85015000D01*
X72294126Y-85015000D01*
X71913720Y-85172569D01*
X71622569Y-85463720D01*
X71465000Y-85844126D01*
X71465000Y-86255874D01*
X71615000Y-86618007D01*
X71615001Y-98356964D01*
X71459226Y-98733038D01*
X70829226Y-98733038D01*
X70610760Y-98205615D01*
X70371529Y-97966384D01*
X70586280Y-97877431D01*
X70877431Y-97586280D01*
X71035000Y-97205874D01*
X71035000Y-96794126D01*
X70885000Y-96431993D01*
X70885000Y-83574215D01*
X70965423Y-83694577D01*
G36*
X72749135Y-16089135D02*
X72365666Y-16663037D01*
X72247440Y-17257401D01*
X72247440Y-16400000D01*
X72198157Y-16152235D01*
X72057809Y-15942191D01*
X71847765Y-15801843D01*
X71600000Y-15752560D01*
X69400000Y-15752560D01*
X69152235Y-15801843D01*
X68942191Y-15942191D01*
X68801843Y-16152235D01*
X68752560Y-16400000D01*
X68752560Y-18600000D01*
X68801843Y-18847765D01*
X68942191Y-19057809D01*
X69152235Y-19198157D01*
X69400000Y-19247440D01*
X71600000Y-19247440D01*
X71847765Y-19198157D01*
X72057809Y-19057809D01*
X72198157Y-18847765D01*
X72247440Y-18600000D01*
X72247440Y-17422599D01*
X72365666Y-18016963D01*
X72749135Y-18590865D01*
X73323037Y-18974334D01*
X73829120Y-19075000D01*
X74170880Y-19075000D01*
X74676963Y-18974334D01*
X75250865Y-18590865D01*
X75634334Y-18016963D01*
X75768990Y-17340000D01*
X75634334Y-16663037D01*
X75250865Y-16089135D01*
X74683449Y-15710000D01*
X81680291Y-15710000D01*
X81551843Y-15902235D01*
X81502560Y-16150000D01*
X81502560Y-17850000D01*
X81551843Y-18097765D01*
X81692191Y-18307809D01*
X81902235Y-18448157D01*
X82150000Y-18497440D01*
X83850000Y-18497440D01*
X84097765Y-18448157D01*
X84307809Y-18307809D01*
X84448157Y-18097765D01*
X84457184Y-18052381D01*
X84469375Y-18070625D01*
X84655001Y-18194656D01*
X84655000Y-28543421D01*
X81725853Y-31472569D01*
X81363720Y-31622569D01*
X81072569Y-31913720D01*
X80915000Y-32294126D01*
X80915000Y-32705874D01*
X81072569Y-33086280D01*
X81363720Y-33377431D01*
X81744126Y-33535000D01*
X82155874Y-33535000D01*
X82536280Y-33377431D01*
X82827431Y-33086280D01*
X82977431Y-32724147D01*
X86104156Y-29597423D01*
X86178049Y-29548049D01*
X86287409Y-29384382D01*
X86373652Y-29255310D01*
X86385020Y-29198157D01*
X86425000Y-28997165D01*
X86425000Y-28997161D01*
X86442337Y-28910000D01*
X86425000Y-28822839D01*
X86425000Y-18194656D01*
X86610625Y-18070625D01*
X86810000Y-17772239D01*
X87009375Y-18070625D01*
X87500582Y-18398839D01*
X87933744Y-18485000D01*
X88226256Y-18485000D01*
X88659418Y-18398839D01*
X89150625Y-18070625D01*
X89350000Y-17772239D01*
X89549375Y-18070625D01*
X90040582Y-18398839D01*
X90473744Y-18485000D01*
X90766256Y-18485000D01*
X91199418Y-18398839D01*
X91690625Y-18070625D01*
X91890000Y-17772239D01*
X92089375Y-18070625D01*
X92275000Y-18194656D01*
X92275001Y-23944022D01*
X87261154Y-28957870D01*
X86899021Y-29107870D01*
X86607870Y-29399021D01*
X86450301Y-29779427D01*
X86450301Y-30191175D01*
X86607870Y-30571581D01*
X86870119Y-30833830D01*
X80355000Y-37348950D01*
X80355000Y-37244561D01*
X80136534Y-36717138D01*
X79732862Y-36313466D01*
X79205439Y-36095000D01*
X78634561Y-36095000D01*
X78107138Y-36313466D01*
X77703466Y-36717138D01*
X77656475Y-36830583D01*
X77633864Y-36775995D01*
X77387745Y-36701861D01*
X76559605Y-37530000D01*
X77387745Y-38358139D01*
X77633864Y-38284005D01*
X77654874Y-38225552D01*
X77703466Y-38342862D01*
X78107138Y-38746534D01*
X78634561Y-38965000D01*
X79205439Y-38965000D01*
X79212678Y-38962001D01*
X79205120Y-39000000D01*
X79303687Y-39495529D01*
X79383515Y-39615000D01*
X78577161Y-39615000D01*
X78490000Y-39597663D01*
X78402839Y-39615000D01*
X78402835Y-39615000D01*
X78144690Y-39666348D01*
X77925845Y-39812576D01*
X77925844Y-39812577D01*
X77851951Y-39861951D01*
X77815000Y-39917252D01*
X77815000Y-39784561D01*
X77596534Y-39257138D01*
X77192862Y-38853466D01*
X77079417Y-38806475D01*
X77134005Y-38783864D01*
X77208139Y-38537745D01*
X76380000Y-37709605D01*
X75551861Y-38537745D01*
X75625995Y-38783864D01*
X75684448Y-38804874D01*
X75567138Y-38853466D01*
X75270000Y-39150604D01*
X75270000Y-38327339D01*
X75372255Y-38358139D01*
X76200395Y-37530000D01*
X75372255Y-36701861D01*
X75270000Y-36732661D01*
X75270000Y-35909396D01*
X75567138Y-36206534D01*
X75680583Y-36253525D01*
X75625995Y-36276136D01*
X75551861Y-36522255D01*
X76380000Y-37350395D01*
X77208139Y-36522255D01*
X77134005Y-36276136D01*
X77075552Y-36255126D01*
X77192862Y-36206534D01*
X77596534Y-35802862D01*
X77815000Y-35275439D01*
X77815000Y-34704561D01*
X77650000Y-34306216D01*
X77650000Y-30425074D01*
X77674879Y-30299999D01*
X77650000Y-30174924D01*
X77650000Y-30174920D01*
X77576313Y-29804471D01*
X77295618Y-29384382D01*
X77189579Y-29313529D01*
X76809580Y-28933530D01*
X76495529Y-28723688D01*
X76000000Y-28625121D01*
X75731833Y-28678463D01*
X75747440Y-28600000D01*
X75747440Y-26400000D01*
X75698157Y-26152235D01*
X75557809Y-25942191D01*
X75347765Y-25801843D01*
X75100000Y-25752560D01*
X72900000Y-25752560D01*
X72652235Y-25801843D01*
X72442191Y-25942191D01*
X72301843Y-26152235D01*
X72252560Y-26400000D01*
X72252560Y-27577401D01*
X72134334Y-26983037D01*
X71750865Y-26409135D01*
X71176963Y-26025666D01*
X70670880Y-25925000D01*
X70329120Y-25925000D01*
X69919343Y-26006510D01*
X71209582Y-24716270D01*
X71315619Y-24645419D01*
X71402350Y-24515617D01*
X71596314Y-24225330D01*
X71602669Y-24193381D01*
X71986470Y-23809580D01*
X72196313Y-23495529D01*
X72294879Y-23000000D01*
X72196313Y-22504471D01*
X71915618Y-22084382D01*
X71495529Y-21803687D01*
X71000000Y-21705121D01*
X70504471Y-21803687D01*
X70190420Y-22013530D01*
X69590422Y-22613528D01*
X69484383Y-22684381D01*
X69203688Y-23104471D01*
X69197333Y-23136418D01*
X67914872Y-24418879D01*
X67771645Y-24073076D01*
X67381358Y-23644817D01*
X67222046Y-23570000D01*
X67381358Y-23495183D01*
X67771645Y-23066924D01*
X67941476Y-22656890D01*
X67820155Y-22427000D01*
X66627000Y-22427000D01*
X66627000Y-24713000D01*
X66647000Y-24713000D01*
X66647000Y-24967000D01*
X66627000Y-24967000D01*
X66627000Y-24987000D01*
X66373000Y-24987000D01*
X66373000Y-24967000D01*
X64087000Y-24967000D01*
X64087000Y-24987000D01*
X63833000Y-24987000D01*
X63833000Y-24967000D01*
X62639845Y-24967000D01*
X62518524Y-25196890D01*
X62688355Y-25606924D01*
X63078642Y-26035183D01*
X63208478Y-26096157D01*
X62889375Y-26309375D01*
X62561161Y-26800582D01*
X62445908Y-27380000D01*
X62561161Y-27959418D01*
X62889375Y-28450625D01*
X63187761Y-28650000D01*
X62889375Y-28849375D01*
X62561161Y-29340582D01*
X62445908Y-29920000D01*
X62561161Y-30499418D01*
X62889375Y-30990625D01*
X63187761Y-31190000D01*
X62889375Y-31389375D01*
X62561161Y-31880582D01*
X62445908Y-32460000D01*
X62561161Y-33039418D01*
X62889375Y-33530625D01*
X63187761Y-33730000D01*
X62889375Y-33929375D01*
X62561161Y-34420582D01*
X62445908Y-35000000D01*
X62561161Y-35579418D01*
X62889375Y-36070625D01*
X63380582Y-36398839D01*
X63813744Y-36485000D01*
X64106256Y-36485000D01*
X64539418Y-36398839D01*
X65030625Y-36070625D01*
X65042816Y-36052381D01*
X65051843Y-36097765D01*
X65192191Y-36307809D01*
X65402235Y-36448157D01*
X65650000Y-36497440D01*
X67350000Y-36497440D01*
X67597765Y-36448157D01*
X67807809Y-36307809D01*
X67948157Y-36097765D01*
X67997440Y-35850000D01*
X67997440Y-34150000D01*
X67948157Y-33902235D01*
X67807809Y-33692191D01*
X67597765Y-33551843D01*
X67552381Y-33542816D01*
X67570625Y-33530625D01*
X67898839Y-33039418D01*
X68014092Y-32460000D01*
X67898839Y-31880582D01*
X67570625Y-31389375D01*
X67272239Y-31190000D01*
X67570625Y-30990625D01*
X67898839Y-30499418D01*
X68014092Y-29920000D01*
X67898839Y-29340582D01*
X67570625Y-28849375D01*
X67272239Y-28650000D01*
X67570625Y-28450625D01*
X67898839Y-27959418D01*
X67939022Y-27757406D01*
X68095330Y-27726314D01*
X68515419Y-27445619D01*
X68586272Y-27339580D01*
X68846510Y-27079342D01*
X68731010Y-27660000D01*
X68865666Y-28336963D01*
X69230000Y-28882228D01*
X69230001Y-45874916D01*
X69230000Y-45874921D01*
X69230001Y-67714920D01*
X69205121Y-67840000D01*
X69303688Y-68335529D01*
X69513530Y-68649580D01*
X69513532Y-68649582D01*
X69584383Y-68755618D01*
X69690419Y-68826469D01*
X71930627Y-71066678D01*
X71646546Y-71080222D01*
X71245995Y-71246136D01*
X71171861Y-71492255D01*
X72000000Y-72320395D01*
X72014142Y-72306252D01*
X72193748Y-72485858D01*
X72179605Y-72500000D01*
X73007745Y-73328139D01*
X73253864Y-73254005D01*
X73446965Y-72716777D01*
X73440268Y-72576319D01*
X74119557Y-73255607D01*
X74148260Y-73399909D01*
X74230000Y-73522242D01*
X74230001Y-77625080D01*
X74303688Y-77995529D01*
X74584383Y-78415618D01*
X75004472Y-78696313D01*
X75500000Y-78794880D01*
X75995529Y-78696313D01*
X76415618Y-78415618D01*
X76638391Y-78082215D01*
X76638390Y-82108994D01*
X76312862Y-81783466D01*
X75785439Y-81565000D01*
X75214561Y-81565000D01*
X74687138Y-81783466D01*
X74355604Y-82115000D01*
X73354706Y-82115000D01*
X73351740Y-82100091D01*
X73034577Y-81625423D01*
X72559909Y-81308260D01*
X72141333Y-81225000D01*
X71858667Y-81225000D01*
X71440091Y-81308260D01*
X70965423Y-81625423D01*
X70885000Y-81745785D01*
X70885000Y-75568007D01*
X71035000Y-75205874D01*
X71035000Y-74794126D01*
X70877431Y-74413720D01*
X70586280Y-74122569D01*
X70205874Y-73965000D01*
X69794126Y-73965000D01*
X69413720Y-74122569D01*
X69122569Y-74413720D01*
X68965000Y-74794126D01*
X68965000Y-74965000D01*
X68744126Y-74965000D01*
X68605001Y-75022627D01*
X68605001Y-73507745D01*
X71171861Y-73507745D01*
X71245995Y-73753864D01*
X71783223Y-73946965D01*
X72353454Y-73919778D01*
X72754005Y-73753864D01*
X72828139Y-73507745D01*
X72000000Y-72679605D01*
X71171861Y-73507745D01*
X68605001Y-73507745D01*
X68605001Y-72283223D01*
X70553035Y-72283223D01*
X70580222Y-72853454D01*
X70746136Y-73254005D01*
X70992255Y-73328139D01*
X71820395Y-72500000D01*
X70992255Y-71671861D01*
X70746136Y-71745995D01*
X70553035Y-72283223D01*
X68605001Y-72283223D01*
X68605001Y-45244275D01*
X68629880Y-45119199D01*
X68605001Y-44994123D01*
X68605001Y-44994119D01*
X68599990Y-44968927D01*
X68599990Y-40125080D01*
X68624870Y-40000000D01*
X68526303Y-39504471D01*
X68245608Y-39084382D01*
X67825519Y-38803687D01*
X67455070Y-38730000D01*
X67329990Y-38705120D01*
X67204910Y-38730000D01*
X66739564Y-38730000D01*
X66547765Y-38601843D01*
X66300000Y-38552560D01*
X64700000Y-38552560D01*
X64452235Y-38601843D01*
X64242484Y-38741995D01*
X63716777Y-38553035D01*
X63146546Y-38580222D01*
X62745995Y-38746136D01*
X62671861Y-38992255D01*
X63500000Y-39820395D01*
X63514142Y-39806252D01*
X63693748Y-39985858D01*
X63679605Y-40000000D01*
X63693748Y-40014143D01*
X63514142Y-40193748D01*
X63500000Y-40179605D01*
X62671861Y-41007745D01*
X62745995Y-41253864D01*
X63283223Y-41446965D01*
X63853454Y-41419778D01*
X64243067Y-41258395D01*
X64452235Y-41398157D01*
X64700000Y-41447440D01*
X66059990Y-41447440D01*
X66059991Y-44678723D01*
X65785439Y-44565000D01*
X65214561Y-44565000D01*
X64753856Y-44755830D01*
X64659698Y-44661673D01*
X64426309Y-44565000D01*
X63785750Y-44565000D01*
X63627000Y-44723750D01*
X63627000Y-45873000D01*
X63647000Y-45873000D01*
X63647000Y-46127000D01*
X63627000Y-46127000D01*
X63627000Y-47276250D01*
X63785750Y-47435000D01*
X64426309Y-47435000D01*
X64659698Y-47338327D01*
X64753856Y-47244170D01*
X65214561Y-47435000D01*
X65785439Y-47435000D01*
X66065001Y-47319201D01*
X66065001Y-51730676D01*
X65992608Y-51682305D01*
X65540000Y-51592275D01*
X65087391Y-51682305D01*
X64905000Y-51804175D01*
X64722608Y-51682305D01*
X64270000Y-51592275D01*
X63817391Y-51682305D01*
X63816016Y-51683224D01*
X63651309Y-51615000D01*
X63285750Y-51615000D01*
X63127000Y-51773750D01*
X63127000Y-52575291D01*
X63110000Y-52660755D01*
X63110000Y-53339246D01*
X63127000Y-53424710D01*
X63127000Y-54226250D01*
X63285750Y-54385000D01*
X63651309Y-54385000D01*
X63816016Y-54316776D01*
X63817392Y-54317695D01*
X64270000Y-54407725D01*
X64722609Y-54317695D01*
X64905001Y-54195825D01*
X65087392Y-54317695D01*
X65540000Y-54407725D01*
X65992609Y-54317695D01*
X66065001Y-54269324D01*
X66065001Y-64965000D01*
X65694127Y-64965000D01*
X65313721Y-65122569D01*
X65022570Y-65413720D01*
X64865001Y-65794126D01*
X64865001Y-66205874D01*
X65015002Y-66568009D01*
X65015002Y-67720745D01*
X64909012Y-67487608D01*
X64414332Y-67025466D01*
X63896122Y-66810825D01*
X63627000Y-66928875D01*
X63627000Y-68373000D01*
X63647000Y-68373000D01*
X63647000Y-68627000D01*
X63627000Y-68627000D01*
X63627000Y-70071125D01*
X63896122Y-70189175D01*
X64414332Y-69974534D01*
X64909012Y-69512392D01*
X65015002Y-69279255D01*
X65015001Y-83431993D01*
X64865001Y-83794126D01*
X64865001Y-84205874D01*
X65022570Y-84586280D01*
X65313721Y-84877431D01*
X65694127Y-85035000D01*
X66065002Y-85035000D01*
X66065002Y-89638948D01*
X65690421Y-90013529D01*
X65584382Y-90084382D01*
X65350107Y-90435000D01*
X65303688Y-90504471D01*
X65205121Y-91000000D01*
X65303688Y-91495529D01*
X65584382Y-91915618D01*
X65690420Y-91986470D01*
X65730000Y-92026050D01*
X65730000Y-92959837D01*
X65718049Y-92941951D01*
X65425310Y-92746348D01*
X65167165Y-92695000D01*
X65167161Y-92695000D01*
X65080000Y-92677663D01*
X64992839Y-92695000D01*
X64694656Y-92695000D01*
X64570625Y-92509375D01*
X64272239Y-92310000D01*
X64570625Y-92110625D01*
X64898839Y-91619418D01*
X65014092Y-91040000D01*
X64898839Y-90460582D01*
X64570625Y-89969375D01*
X64548967Y-89954904D01*
X64709698Y-89888327D01*
X64888327Y-89709699D01*
X64985000Y-89476310D01*
X64985000Y-88785750D01*
X64826250Y-88627000D01*
X63627000Y-88627000D01*
X63627000Y-88647000D01*
X63373000Y-88647000D01*
X63373000Y-88627000D01*
X63353000Y-88627000D01*
X63353000Y-88373000D01*
X63373000Y-88373000D01*
X63373000Y-87173750D01*
X63627000Y-87173750D01*
X63627000Y-88373000D01*
X64826250Y-88373000D01*
X64985000Y-88214250D01*
X64985000Y-87523690D01*
X64888327Y-87290301D01*
X64709698Y-87111673D01*
X64476309Y-87015000D01*
X63785750Y-87015000D01*
X63627000Y-87173750D01*
X63373000Y-87173750D01*
X63214250Y-87015000D01*
X62523691Y-87015000D01*
X62290302Y-87111673D01*
X62210000Y-87191975D01*
X62210000Y-83007745D01*
X62671861Y-83007745D01*
X62745995Y-83253864D01*
X63283223Y-83446965D01*
X63853454Y-83419778D01*
X64254005Y-83253864D01*
X64328139Y-83007745D01*
X63500000Y-82179605D01*
X62671861Y-83007745D01*
X62210000Y-83007745D01*
X62210000Y-82666765D01*
X62246136Y-82754005D01*
X62492255Y-82828139D01*
X63320395Y-82000000D01*
X63679605Y-82000000D01*
X64507745Y-82828139D01*
X64753864Y-82754005D01*
X64946965Y-82216777D01*
X64919778Y-81646546D01*
X64753864Y-81245995D01*
X64507745Y-81171861D01*
X63679605Y-82000000D01*
X63320395Y-82000000D01*
X62492255Y-81171861D01*
X62246136Y-81245995D01*
X62210000Y-81346529D01*
X62210000Y-80992255D01*
X62671861Y-80992255D01*
X63500000Y-81820395D01*
X64328139Y-80992255D01*
X64254005Y-80746136D01*
X63716777Y-80553035D01*
X63146546Y-80580222D01*
X62745995Y-80746136D01*
X62671861Y-80992255D01*
X62210000Y-80992255D01*
X62210000Y-72492309D01*
X62465423Y-72874577D01*
X62940091Y-73191740D01*
X63358667Y-73275000D01*
X63641333Y-73275000D01*
X64059909Y-73191740D01*
X64534577Y-72874577D01*
X64851740Y-72399909D01*
X64963113Y-71840000D01*
X64851740Y-71280091D01*
X64534577Y-70805423D01*
X64059909Y-70488260D01*
X63641333Y-70405000D01*
X63358667Y-70405000D01*
X62940091Y-70488260D01*
X62465423Y-70805423D01*
X62210000Y-71187691D01*
X62210000Y-69623576D01*
X62585668Y-69974534D01*
X63103878Y-70189175D01*
X63373000Y-70071125D01*
X63373000Y-68627000D01*
X63353000Y-68627000D01*
X63353000Y-68373000D01*
X63373000Y-68373000D01*
X63373000Y-66928875D01*
X63103878Y-66810825D01*
X62585668Y-67025466D01*
X62210000Y-67376424D01*
X62210000Y-60049647D01*
X62400000Y-60087440D01*
X64600000Y-60087440D01*
X64847765Y-60038157D01*
X65057809Y-59897809D01*
X65198157Y-59687765D01*
X65247440Y-59440000D01*
X65247440Y-57240000D01*
X65198157Y-56992235D01*
X65057809Y-56782191D01*
X64847765Y-56641843D01*
X64600000Y-56592560D01*
X62400000Y-56592560D01*
X62210000Y-56630353D01*
X62210000Y-54327552D01*
X62348691Y-54385000D01*
X62714250Y-54385000D01*
X62873000Y-54226250D01*
X62873000Y-53127000D01*
X62853000Y-53127000D01*
X62853000Y-52873000D01*
X62873000Y-52873000D01*
X62873000Y-51773750D01*
X62714250Y-51615000D01*
X62348691Y-51615000D01*
X62210000Y-51672448D01*
X62210000Y-47208026D01*
X62340302Y-47338327D01*
X62573691Y-47435000D01*
X63214250Y-47435000D01*
X63373000Y-47276250D01*
X63373000Y-46127000D01*
X63353000Y-46127000D01*
X63353000Y-45873000D01*
X63373000Y-45873000D01*
X63373000Y-44723750D01*
X63214250Y-44565000D01*
X62573691Y-44565000D01*
X62340302Y-44661673D01*
X62210000Y-44791974D01*
X62210000Y-40666765D01*
X62246136Y-40754005D01*
X62492255Y-40828139D01*
X63320395Y-40000000D01*
X62492255Y-39171861D01*
X62246136Y-39245995D01*
X62210000Y-39346529D01*
X62210000Y-22656890D01*
X62518524Y-22656890D01*
X62688355Y-23066924D01*
X63078642Y-23495183D01*
X63237954Y-23570000D01*
X63078642Y-23644817D01*
X62688355Y-24073076D01*
X62518524Y-24483110D01*
X62639845Y-24713000D01*
X63833000Y-24713000D01*
X63833000Y-22427000D01*
X64087000Y-22427000D01*
X64087000Y-24713000D01*
X66373000Y-24713000D01*
X66373000Y-22427000D01*
X64087000Y-22427000D01*
X63833000Y-22427000D01*
X62639845Y-22427000D01*
X62518524Y-22656890D01*
X62210000Y-22656890D01*
X62210000Y-20116890D01*
X62518524Y-20116890D01*
X62688355Y-20526924D01*
X63078642Y-20955183D01*
X63237954Y-21030000D01*
X63078642Y-21104817D01*
X62688355Y-21533076D01*
X62518524Y-21943110D01*
X62639845Y-22173000D01*
X63833000Y-22173000D01*
X63833000Y-19887000D01*
X64087000Y-19887000D01*
X64087000Y-22173000D01*
X66373000Y-22173000D01*
X66373000Y-19887000D01*
X66627000Y-19887000D01*
X66627000Y-22173000D01*
X67820155Y-22173000D01*
X67941476Y-21943110D01*
X67771645Y-21533076D01*
X67381358Y-21104817D01*
X67222046Y-21030000D01*
X67381358Y-20955183D01*
X67771645Y-20526924D01*
X67941476Y-20116890D01*
X67820155Y-19887000D01*
X66627000Y-19887000D01*
X66373000Y-19887000D01*
X64087000Y-19887000D01*
X63833000Y-19887000D01*
X62639845Y-19887000D01*
X62518524Y-20116890D01*
X62210000Y-20116890D01*
X62210000Y-17220000D01*
X62445908Y-17220000D01*
X62561161Y-17799418D01*
X62889375Y-18290625D01*
X63208478Y-18503843D01*
X63078642Y-18564817D01*
X62688355Y-18993076D01*
X62518524Y-19403110D01*
X62639845Y-19633000D01*
X63833000Y-19633000D01*
X63833000Y-19613000D01*
X64087000Y-19613000D01*
X64087000Y-19633000D01*
X66373000Y-19633000D01*
X66373000Y-19613000D01*
X66627000Y-19613000D01*
X66627000Y-19633000D01*
X67820155Y-19633000D01*
X67941476Y-19403110D01*
X67771645Y-18993076D01*
X67381358Y-18564817D01*
X67251522Y-18503843D01*
X67570625Y-18290625D01*
X67898839Y-17799418D01*
X68014092Y-17220000D01*
X67898839Y-16640582D01*
X67570625Y-16149375D01*
X67079418Y-15821161D01*
X66646256Y-15735000D01*
X66353744Y-15735000D01*
X65920582Y-15821161D01*
X65727761Y-15950000D01*
X64732239Y-15950000D01*
X64539418Y-15821161D01*
X64106256Y-15735000D01*
X63813744Y-15735000D01*
X63380582Y-15821161D01*
X62889375Y-16149375D01*
X62561161Y-16640582D01*
X62445908Y-17220000D01*
X62210000Y-17220000D01*
X62210000Y-15710000D01*
X73316551Y-15710000D01*
X72749135Y-16089135D01*
X72749135Y-16089135D01*
G37*
X72749135Y-16089135D02*
X72365666Y-16663037D01*
X72247440Y-17257401D01*
X72247440Y-16400000D01*
X72198157Y-16152235D01*
X72057809Y-15942191D01*
X71847765Y-15801843D01*
X71600000Y-15752560D01*
X69400000Y-15752560D01*
X69152235Y-15801843D01*
X68942191Y-15942191D01*
X68801843Y-16152235D01*
X68752560Y-16400000D01*
X68752560Y-18600000D01*
X68801843Y-18847765D01*
X68942191Y-19057809D01*
X69152235Y-19198157D01*
X69400000Y-19247440D01*
X71600000Y-19247440D01*
X71847765Y-19198157D01*
X72057809Y-19057809D01*
X72198157Y-18847765D01*
X72247440Y-18600000D01*
X72247440Y-17422599D01*
X72365666Y-18016963D01*
X72749135Y-18590865D01*
X73323037Y-18974334D01*
X73829120Y-19075000D01*
X74170880Y-19075000D01*
X74676963Y-18974334D01*
X75250865Y-18590865D01*
X75634334Y-18016963D01*
X75768990Y-17340000D01*
X75634334Y-16663037D01*
X75250865Y-16089135D01*
X74683449Y-15710000D01*
X81680291Y-15710000D01*
X81551843Y-15902235D01*
X81502560Y-16150000D01*
X81502560Y-17850000D01*
X81551843Y-18097765D01*
X81692191Y-18307809D01*
X81902235Y-18448157D01*
X82150000Y-18497440D01*
X83850000Y-18497440D01*
X84097765Y-18448157D01*
X84307809Y-18307809D01*
X84448157Y-18097765D01*
X84457184Y-18052381D01*
X84469375Y-18070625D01*
X84655001Y-18194656D01*
X84655000Y-28543421D01*
X81725853Y-31472569D01*
X81363720Y-31622569D01*
X81072569Y-31913720D01*
X80915000Y-32294126D01*
X80915000Y-32705874D01*
X81072569Y-33086280D01*
X81363720Y-33377431D01*
X81744126Y-33535000D01*
X82155874Y-33535000D01*
X82536280Y-33377431D01*
X82827431Y-33086280D01*
X82977431Y-32724147D01*
X86104156Y-29597423D01*
X86178049Y-29548049D01*
X86287409Y-29384382D01*
X86373652Y-29255310D01*
X86385020Y-29198157D01*
X86425000Y-28997165D01*
X86425000Y-28997161D01*
X86442337Y-28910000D01*
X86425000Y-28822839D01*
X86425000Y-18194656D01*
X86610625Y-18070625D01*
X86810000Y-17772239D01*
X87009375Y-18070625D01*
X87500582Y-18398839D01*
X87933744Y-18485000D01*
X88226256Y-18485000D01*
X88659418Y-18398839D01*
X89150625Y-18070625D01*
X89350000Y-17772239D01*
X89549375Y-18070625D01*
X90040582Y-18398839D01*
X90473744Y-18485000D01*
X90766256Y-18485000D01*
X91199418Y-18398839D01*
X91690625Y-18070625D01*
X91890000Y-17772239D01*
X92089375Y-18070625D01*
X92275000Y-18194656D01*
X92275001Y-23944022D01*
X87261154Y-28957870D01*
X86899021Y-29107870D01*
X86607870Y-29399021D01*
X86450301Y-29779427D01*
X86450301Y-30191175D01*
X86607870Y-30571581D01*
X86870119Y-30833830D01*
X80355000Y-37348950D01*
X80355000Y-37244561D01*
X80136534Y-36717138D01*
X79732862Y-36313466D01*
X79205439Y-36095000D01*
X78634561Y-36095000D01*
X78107138Y-36313466D01*
X77703466Y-36717138D01*
X77656475Y-36830583D01*
X77633864Y-36775995D01*
X77387745Y-36701861D01*
X76559605Y-37530000D01*
X77387745Y-38358139D01*
X77633864Y-38284005D01*
X77654874Y-38225552D01*
X77703466Y-38342862D01*
X78107138Y-38746534D01*
X78634561Y-38965000D01*
X79205439Y-38965000D01*
X79212678Y-38962001D01*
X79205120Y-39000000D01*
X79303687Y-39495529D01*
X79383515Y-39615000D01*
X78577161Y-39615000D01*
X78490000Y-39597663D01*
X78402839Y-39615000D01*
X78402835Y-39615000D01*
X78144690Y-39666348D01*
X77925845Y-39812576D01*
X77925844Y-39812577D01*
X77851951Y-39861951D01*
X77815000Y-39917252D01*
X77815000Y-39784561D01*
X77596534Y-39257138D01*
X77192862Y-38853466D01*
X77079417Y-38806475D01*
X77134005Y-38783864D01*
X77208139Y-38537745D01*
X76380000Y-37709605D01*
X75551861Y-38537745D01*
X75625995Y-38783864D01*
X75684448Y-38804874D01*
X75567138Y-38853466D01*
X75270000Y-39150604D01*
X75270000Y-38327339D01*
X75372255Y-38358139D01*
X76200395Y-37530000D01*
X75372255Y-36701861D01*
X75270000Y-36732661D01*
X75270000Y-35909396D01*
X75567138Y-36206534D01*
X75680583Y-36253525D01*
X75625995Y-36276136D01*
X75551861Y-36522255D01*
X76380000Y-37350395D01*
X77208139Y-36522255D01*
X77134005Y-36276136D01*
X77075552Y-36255126D01*
X77192862Y-36206534D01*
X77596534Y-35802862D01*
X77815000Y-35275439D01*
X77815000Y-34704561D01*
X77650000Y-34306216D01*
X77650000Y-30425074D01*
X77674879Y-30299999D01*
X77650000Y-30174924D01*
X77650000Y-30174920D01*
X77576313Y-29804471D01*
X77295618Y-29384382D01*
X77189579Y-29313529D01*
X76809580Y-28933530D01*
X76495529Y-28723688D01*
X76000000Y-28625121D01*
X75731833Y-28678463D01*
X75747440Y-28600000D01*
X75747440Y-26400000D01*
X75698157Y-26152235D01*
X75557809Y-25942191D01*
X75347765Y-25801843D01*
X75100000Y-25752560D01*
X72900000Y-25752560D01*
X72652235Y-25801843D01*
X72442191Y-25942191D01*
X72301843Y-26152235D01*
X72252560Y-26400000D01*
X72252560Y-27577401D01*
X72134334Y-26983037D01*
X71750865Y-26409135D01*
X71176963Y-26025666D01*
X70670880Y-25925000D01*
X70329120Y-25925000D01*
X69919343Y-26006510D01*
X71209582Y-24716270D01*
X71315619Y-24645419D01*
X71402350Y-24515617D01*
X71596314Y-24225330D01*
X71602669Y-24193381D01*
X71986470Y-23809580D01*
X72196313Y-23495529D01*
X72294879Y-23000000D01*
X72196313Y-22504471D01*
X71915618Y-22084382D01*
X71495529Y-21803687D01*
X71000000Y-21705121D01*
X70504471Y-21803687D01*
X70190420Y-22013530D01*
X69590422Y-22613528D01*
X69484383Y-22684381D01*
X69203688Y-23104471D01*
X69197333Y-23136418D01*
X67914872Y-24418879D01*
X67771645Y-24073076D01*
X67381358Y-23644817D01*
X67222046Y-23570000D01*
X67381358Y-23495183D01*
X67771645Y-23066924D01*
X67941476Y-22656890D01*
X67820155Y-22427000D01*
X66627000Y-22427000D01*
X66627000Y-24713000D01*
X66647000Y-24713000D01*
X66647000Y-24967000D01*
X66627000Y-24967000D01*
X66627000Y-24987000D01*
X66373000Y-24987000D01*
X66373000Y-24967000D01*
X64087000Y-24967000D01*
X64087000Y-24987000D01*
X63833000Y-24987000D01*
X63833000Y-24967000D01*
X62639845Y-24967000D01*
X62518524Y-25196890D01*
X62688355Y-25606924D01*
X63078642Y-26035183D01*
X63208478Y-26096157D01*
X62889375Y-26309375D01*
X62561161Y-26800582D01*
X62445908Y-27380000D01*
X62561161Y-27959418D01*
X62889375Y-28450625D01*
X63187761Y-28650000D01*
X62889375Y-28849375D01*
X62561161Y-29340582D01*
X62445908Y-29920000D01*
X62561161Y-30499418D01*
X62889375Y-30990625D01*
X63187761Y-31190000D01*
X62889375Y-31389375D01*
X62561161Y-31880582D01*
X62445908Y-32460000D01*
X62561161Y-33039418D01*
X62889375Y-33530625D01*
X63187761Y-33730000D01*
X62889375Y-33929375D01*
X62561161Y-34420582D01*
X62445908Y-35000000D01*
X62561161Y-35579418D01*
X62889375Y-36070625D01*
X63380582Y-36398839D01*
X63813744Y-36485000D01*
X64106256Y-36485000D01*
X64539418Y-36398839D01*
X65030625Y-36070625D01*
X65042816Y-36052381D01*
X65051843Y-36097765D01*
X65192191Y-36307809D01*
X65402235Y-36448157D01*
X65650000Y-36497440D01*
X67350000Y-36497440D01*
X67597765Y-36448157D01*
X67807809Y-36307809D01*
X67948157Y-36097765D01*
X67997440Y-35850000D01*
X67997440Y-34150000D01*
X67948157Y-33902235D01*
X67807809Y-33692191D01*
X67597765Y-33551843D01*
X67552381Y-33542816D01*
X67570625Y-33530625D01*
X67898839Y-33039418D01*
X68014092Y-32460000D01*
X67898839Y-31880582D01*
X67570625Y-31389375D01*
X67272239Y-31190000D01*
X67570625Y-30990625D01*
X67898839Y-30499418D01*
X68014092Y-29920000D01*
X67898839Y-29340582D01*
X67570625Y-28849375D01*
X67272239Y-28650000D01*
X67570625Y-28450625D01*
X67898839Y-27959418D01*
X67939022Y-27757406D01*
X68095330Y-27726314D01*
X68515419Y-27445619D01*
X68586272Y-27339580D01*
X68846510Y-27079342D01*
X68731010Y-27660000D01*
X68865666Y-28336963D01*
X69230000Y-28882228D01*
X69230001Y-45874916D01*
X69230000Y-45874921D01*
X69230001Y-67714920D01*
X69205121Y-67840000D01*
X69303688Y-68335529D01*
X69513530Y-68649580D01*
X69513532Y-68649582D01*
X69584383Y-68755618D01*
X69690419Y-68826469D01*
X71930627Y-71066678D01*
X71646546Y-71080222D01*
X71245995Y-71246136D01*
X71171861Y-71492255D01*
X72000000Y-72320395D01*
X72014142Y-72306252D01*
X72193748Y-72485858D01*
X72179605Y-72500000D01*
X73007745Y-73328139D01*
X73253864Y-73254005D01*
X73446965Y-72716777D01*
X73440268Y-72576319D01*
X74119557Y-73255607D01*
X74148260Y-73399909D01*
X74230000Y-73522242D01*
X74230001Y-77625080D01*
X74303688Y-77995529D01*
X74584383Y-78415618D01*
X75004472Y-78696313D01*
X75500000Y-78794880D01*
X75995529Y-78696313D01*
X76415618Y-78415618D01*
X76638391Y-78082215D01*
X76638390Y-82108994D01*
X76312862Y-81783466D01*
X75785439Y-81565000D01*
X75214561Y-81565000D01*
X74687138Y-81783466D01*
X74355604Y-82115000D01*
X73354706Y-82115000D01*
X73351740Y-82100091D01*
X73034577Y-81625423D01*
X72559909Y-81308260D01*
X72141333Y-81225000D01*
X71858667Y-81225000D01*
X71440091Y-81308260D01*
X70965423Y-81625423D01*
X70885000Y-81745785D01*
X70885000Y-75568007D01*
X71035000Y-75205874D01*
X71035000Y-74794126D01*
X70877431Y-74413720D01*
X70586280Y-74122569D01*
X70205874Y-73965000D01*
X69794126Y-73965000D01*
X69413720Y-74122569D01*
X69122569Y-74413720D01*
X68965000Y-74794126D01*
X68965000Y-74965000D01*
X68744126Y-74965000D01*
X68605001Y-75022627D01*
X68605001Y-73507745D01*
X71171861Y-73507745D01*
X71245995Y-73753864D01*
X71783223Y-73946965D01*
X72353454Y-73919778D01*
X72754005Y-73753864D01*
X72828139Y-73507745D01*
X72000000Y-72679605D01*
X71171861Y-73507745D01*
X68605001Y-73507745D01*
X68605001Y-72283223D01*
X70553035Y-72283223D01*
X70580222Y-72853454D01*
X70746136Y-73254005D01*
X70992255Y-73328139D01*
X71820395Y-72500000D01*
X70992255Y-71671861D01*
X70746136Y-71745995D01*
X70553035Y-72283223D01*
X68605001Y-72283223D01*
X68605001Y-45244275D01*
X68629880Y-45119199D01*
X68605001Y-44994123D01*
X68605001Y-44994119D01*
X68599990Y-44968927D01*
X68599990Y-40125080D01*
X68624870Y-40000000D01*
X68526303Y-39504471D01*
X68245608Y-39084382D01*
X67825519Y-38803687D01*
X67455070Y-38730000D01*
X67329990Y-38705120D01*
X67204910Y-38730000D01*
X66739564Y-38730000D01*
X66547765Y-38601843D01*
X66300000Y-38552560D01*
X64700000Y-38552560D01*
X64452235Y-38601843D01*
X64242484Y-38741995D01*
X63716777Y-38553035D01*
X63146546Y-38580222D01*
X62745995Y-38746136D01*
X62671861Y-38992255D01*
X63500000Y-39820395D01*
X63514142Y-39806252D01*
X63693748Y-39985858D01*
X63679605Y-40000000D01*
X63693748Y-40014143D01*
X63514142Y-40193748D01*
X63500000Y-40179605D01*
X62671861Y-41007745D01*
X62745995Y-41253864D01*
X63283223Y-41446965D01*
X63853454Y-41419778D01*
X64243067Y-41258395D01*
X64452235Y-41398157D01*
X64700000Y-41447440D01*
X66059990Y-41447440D01*
X66059991Y-44678723D01*
X65785439Y-44565000D01*
X65214561Y-44565000D01*
X64753856Y-44755830D01*
X64659698Y-44661673D01*
X64426309Y-44565000D01*
X63785750Y-44565000D01*
X63627000Y-44723750D01*
X63627000Y-45873000D01*
X63647000Y-45873000D01*
X63647000Y-46127000D01*
X63627000Y-46127000D01*
X63627000Y-47276250D01*
X63785750Y-47435000D01*
X64426309Y-47435000D01*
X64659698Y-47338327D01*
X64753856Y-47244170D01*
X65214561Y-47435000D01*
X65785439Y-47435000D01*
X66065001Y-47319201D01*
X66065001Y-51730676D01*
X65992608Y-51682305D01*
X65540000Y-51592275D01*
X65087391Y-51682305D01*
X64905000Y-51804175D01*
X64722608Y-51682305D01*
X64270000Y-51592275D01*
X63817391Y-51682305D01*
X63816016Y-51683224D01*
X63651309Y-51615000D01*
X63285750Y-51615000D01*
X63127000Y-51773750D01*
X63127000Y-52575291D01*
X63110000Y-52660755D01*
X63110000Y-53339246D01*
X63127000Y-53424710D01*
X63127000Y-54226250D01*
X63285750Y-54385000D01*
X63651309Y-54385000D01*
X63816016Y-54316776D01*
X63817392Y-54317695D01*
X64270000Y-54407725D01*
X64722609Y-54317695D01*
X64905001Y-54195825D01*
X65087392Y-54317695D01*
X65540000Y-54407725D01*
X65992609Y-54317695D01*
X66065001Y-54269324D01*
X66065001Y-64965000D01*
X65694127Y-64965000D01*
X65313721Y-65122569D01*
X65022570Y-65413720D01*
X64865001Y-65794126D01*
X64865001Y-66205874D01*
X65015002Y-66568009D01*
X65015002Y-67720745D01*
X64909012Y-67487608D01*
X64414332Y-67025466D01*
X63896122Y-66810825D01*
X63627000Y-66928875D01*
X63627000Y-68373000D01*
X63647000Y-68373000D01*
X63647000Y-68627000D01*
X63627000Y-68627000D01*
X63627000Y-70071125D01*
X63896122Y-70189175D01*
X64414332Y-69974534D01*
X64909012Y-69512392D01*
X65015002Y-69279255D01*
X65015001Y-83431993D01*
X64865001Y-83794126D01*
X64865001Y-84205874D01*
X65022570Y-84586280D01*
X65313721Y-84877431D01*
X65694127Y-85035000D01*
X66065002Y-85035000D01*
X66065002Y-89638948D01*
X65690421Y-90013529D01*
X65584382Y-90084382D01*
X65350107Y-90435000D01*
X65303688Y-90504471D01*
X65205121Y-91000000D01*
X65303688Y-91495529D01*
X65584382Y-91915618D01*
X65690420Y-91986470D01*
X65730000Y-92026050D01*
X65730000Y-92959837D01*
X65718049Y-92941951D01*
X65425310Y-92746348D01*
X65167165Y-92695000D01*
X65167161Y-92695000D01*
X65080000Y-92677663D01*
X64992839Y-92695000D01*
X64694656Y-92695000D01*
X64570625Y-92509375D01*
X64272239Y-92310000D01*
X64570625Y-92110625D01*
X64898839Y-91619418D01*
X65014092Y-91040000D01*
X64898839Y-90460582D01*
X64570625Y-89969375D01*
X64548967Y-89954904D01*
X64709698Y-89888327D01*
X64888327Y-89709699D01*
X64985000Y-89476310D01*
X64985000Y-88785750D01*
X64826250Y-88627000D01*
X63627000Y-88627000D01*
X63627000Y-88647000D01*
X63373000Y-88647000D01*
X63373000Y-88627000D01*
X63353000Y-88627000D01*
X63353000Y-88373000D01*
X63373000Y-88373000D01*
X63373000Y-87173750D01*
X63627000Y-87173750D01*
X63627000Y-88373000D01*
X64826250Y-88373000D01*
X64985000Y-88214250D01*
X64985000Y-87523690D01*
X64888327Y-87290301D01*
X64709698Y-87111673D01*
X64476309Y-87015000D01*
X63785750Y-87015000D01*
X63627000Y-87173750D01*
X63373000Y-87173750D01*
X63214250Y-87015000D01*
X62523691Y-87015000D01*
X62290302Y-87111673D01*
X62210000Y-87191975D01*
X62210000Y-83007745D01*
X62671861Y-83007745D01*
X62745995Y-83253864D01*
X63283223Y-83446965D01*
X63853454Y-83419778D01*
X64254005Y-83253864D01*
X64328139Y-83007745D01*
X63500000Y-82179605D01*
X62671861Y-83007745D01*
X62210000Y-83007745D01*
X62210000Y-82666765D01*
X62246136Y-82754005D01*
X62492255Y-82828139D01*
X63320395Y-82000000D01*
X63679605Y-82000000D01*
X64507745Y-82828139D01*
X64753864Y-82754005D01*
X64946965Y-82216777D01*
X64919778Y-81646546D01*
X64753864Y-81245995D01*
X64507745Y-81171861D01*
X63679605Y-82000000D01*
X63320395Y-82000000D01*
X62492255Y-81171861D01*
X62246136Y-81245995D01*
X62210000Y-81346529D01*
X62210000Y-80992255D01*
X62671861Y-80992255D01*
X63500000Y-81820395D01*
X64328139Y-80992255D01*
X64254005Y-80746136D01*
X63716777Y-80553035D01*
X63146546Y-80580222D01*
X62745995Y-80746136D01*
X62671861Y-80992255D01*
X62210000Y-80992255D01*
X62210000Y-72492309D01*
X62465423Y-72874577D01*
X62940091Y-73191740D01*
X63358667Y-73275000D01*
X63641333Y-73275000D01*
X64059909Y-73191740D01*
X64534577Y-72874577D01*
X64851740Y-72399909D01*
X64963113Y-71840000D01*
X64851740Y-71280091D01*
X64534577Y-70805423D01*
X64059909Y-70488260D01*
X63641333Y-70405000D01*
X63358667Y-70405000D01*
X62940091Y-70488260D01*
X62465423Y-70805423D01*
X62210000Y-71187691D01*
X62210000Y-69623576D01*
X62585668Y-69974534D01*
X63103878Y-70189175D01*
X63373000Y-70071125D01*
X63373000Y-68627000D01*
X63353000Y-68627000D01*
X63353000Y-68373000D01*
X63373000Y-68373000D01*
X63373000Y-66928875D01*
X63103878Y-66810825D01*
X62585668Y-67025466D01*
X62210000Y-67376424D01*
X62210000Y-60049647D01*
X62400000Y-60087440D01*
X64600000Y-60087440D01*
X64847765Y-60038157D01*
X65057809Y-59897809D01*
X65198157Y-59687765D01*
X65247440Y-59440000D01*
X65247440Y-57240000D01*
X65198157Y-56992235D01*
X65057809Y-56782191D01*
X64847765Y-56641843D01*
X64600000Y-56592560D01*
X62400000Y-56592560D01*
X62210000Y-56630353D01*
X62210000Y-54327552D01*
X62348691Y-54385000D01*
X62714250Y-54385000D01*
X62873000Y-54226250D01*
X62873000Y-53127000D01*
X62853000Y-53127000D01*
X62853000Y-52873000D01*
X62873000Y-52873000D01*
X62873000Y-51773750D01*
X62714250Y-51615000D01*
X62348691Y-51615000D01*
X62210000Y-51672448D01*
X62210000Y-47208026D01*
X62340302Y-47338327D01*
X62573691Y-47435000D01*
X63214250Y-47435000D01*
X63373000Y-47276250D01*
X63373000Y-46127000D01*
X63353000Y-46127000D01*
X63353000Y-45873000D01*
X63373000Y-45873000D01*
X63373000Y-44723750D01*
X63214250Y-44565000D01*
X62573691Y-44565000D01*
X62340302Y-44661673D01*
X62210000Y-44791974D01*
X62210000Y-40666765D01*
X62246136Y-40754005D01*
X62492255Y-40828139D01*
X63320395Y-40000000D01*
X62492255Y-39171861D01*
X62246136Y-39245995D01*
X62210000Y-39346529D01*
X62210000Y-22656890D01*
X62518524Y-22656890D01*
X62688355Y-23066924D01*
X63078642Y-23495183D01*
X63237954Y-23570000D01*
X63078642Y-23644817D01*
X62688355Y-24073076D01*
X62518524Y-24483110D01*
X62639845Y-24713000D01*
X63833000Y-24713000D01*
X63833000Y-22427000D01*
X64087000Y-22427000D01*
X64087000Y-24713000D01*
X66373000Y-24713000D01*
X66373000Y-22427000D01*
X64087000Y-22427000D01*
X63833000Y-22427000D01*
X62639845Y-22427000D01*
X62518524Y-22656890D01*
X62210000Y-22656890D01*
X62210000Y-20116890D01*
X62518524Y-20116890D01*
X62688355Y-20526924D01*
X63078642Y-20955183D01*
X63237954Y-21030000D01*
X63078642Y-21104817D01*
X62688355Y-21533076D01*
X62518524Y-21943110D01*
X62639845Y-22173000D01*
X63833000Y-22173000D01*
X63833000Y-19887000D01*
X64087000Y-19887000D01*
X64087000Y-22173000D01*
X66373000Y-22173000D01*
X66373000Y-19887000D01*
X66627000Y-19887000D01*
X66627000Y-22173000D01*
X67820155Y-22173000D01*
X67941476Y-21943110D01*
X67771645Y-21533076D01*
X67381358Y-21104817D01*
X67222046Y-21030000D01*
X67381358Y-20955183D01*
X67771645Y-20526924D01*
X67941476Y-20116890D01*
X67820155Y-19887000D01*
X66627000Y-19887000D01*
X66373000Y-19887000D01*
X64087000Y-19887000D01*
X63833000Y-19887000D01*
X62639845Y-19887000D01*
X62518524Y-20116890D01*
X62210000Y-20116890D01*
X62210000Y-17220000D01*
X62445908Y-17220000D01*
X62561161Y-17799418D01*
X62889375Y-18290625D01*
X63208478Y-18503843D01*
X63078642Y-18564817D01*
X62688355Y-18993076D01*
X62518524Y-19403110D01*
X62639845Y-19633000D01*
X63833000Y-19633000D01*
X63833000Y-19613000D01*
X64087000Y-19613000D01*
X64087000Y-19633000D01*
X66373000Y-19633000D01*
X66373000Y-19613000D01*
X66627000Y-19613000D01*
X66627000Y-19633000D01*
X67820155Y-19633000D01*
X67941476Y-19403110D01*
X67771645Y-18993076D01*
X67381358Y-18564817D01*
X67251522Y-18503843D01*
X67570625Y-18290625D01*
X67898839Y-17799418D01*
X68014092Y-17220000D01*
X67898839Y-16640582D01*
X67570625Y-16149375D01*
X67079418Y-15821161D01*
X66646256Y-15735000D01*
X66353744Y-15735000D01*
X65920582Y-15821161D01*
X65727761Y-15950000D01*
X64732239Y-15950000D01*
X64539418Y-15821161D01*
X64106256Y-15735000D01*
X63813744Y-15735000D01*
X63380582Y-15821161D01*
X62889375Y-16149375D01*
X62561161Y-16640582D01*
X62445908Y-17220000D01*
X62210000Y-17220000D01*
X62210000Y-15710000D01*
X73316551Y-15710000D01*
X72749135Y-16089135D01*
G36*
X97231535Y-71282725D02*
X97145964Y-71299746D01*
X96671296Y-71616909D01*
X96354133Y-72091577D01*
X96242760Y-72651486D01*
X96354133Y-73211395D01*
X96575819Y-73543171D01*
X96575818Y-80662355D01*
X96425818Y-81024488D01*
X96425818Y-81436236D01*
X96583387Y-81816642D01*
X96627354Y-81860609D01*
X96489339Y-81998624D01*
X96270873Y-82526047D01*
X96270873Y-82994908D01*
X96121086Y-83144694D01*
X96140873Y-83096925D01*
X96140873Y-82526047D01*
X95922407Y-81998624D01*
X95836186Y-81912403D01*
X95850822Y-81897766D01*
X96008391Y-81517360D01*
X96008391Y-81105612D01*
X95850822Y-80725206D01*
X95559671Y-80434055D01*
X95179265Y-80276486D01*
X94767517Y-80276486D01*
X94535000Y-80372797D01*
X94535000Y-80294126D01*
X94377431Y-79913720D01*
X94086280Y-79622569D01*
X93705874Y-79465000D01*
X93294126Y-79465000D01*
X92931993Y-79615000D01*
X91639695Y-79615000D01*
X91552534Y-79597663D01*
X91465373Y-79615000D01*
X91465369Y-79615000D01*
X91207224Y-79666348D01*
X90988379Y-79812576D01*
X90988378Y-79812577D01*
X90914485Y-79861951D01*
X90865111Y-79935844D01*
X89770000Y-81030956D01*
X89770000Y-77874920D01*
X89696313Y-77504471D01*
X89415618Y-77084382D01*
X88995528Y-76803687D01*
X88500000Y-76705120D01*
X88004471Y-76803687D01*
X87584382Y-77084382D01*
X87303687Y-77504472D01*
X87230000Y-77874921D01*
X87230001Y-81779139D01*
X87215300Y-81793840D01*
X86996834Y-82321263D01*
X86996834Y-82892141D01*
X87161834Y-83290486D01*
X87161834Y-83698123D01*
X87086280Y-83622569D01*
X86705874Y-83465000D01*
X86521214Y-83465000D01*
X86640873Y-83176117D01*
X86640873Y-82605239D01*
X86422407Y-82077816D01*
X86018735Y-81674144D01*
X85491312Y-81455678D01*
X84920434Y-81455678D01*
X84393011Y-81674144D01*
X84036011Y-82031144D01*
X84018114Y-82013247D01*
X83637708Y-81855678D01*
X83225960Y-81855678D01*
X83159857Y-81883059D01*
X82922584Y-81724518D01*
X83000822Y-81535633D01*
X83037545Y-81498910D01*
X83111440Y-81449535D01*
X83307043Y-81156796D01*
X83358391Y-80898651D01*
X83358391Y-80898647D01*
X83375728Y-80811486D01*
X83358391Y-80724325D01*
X83358391Y-75294126D01*
X89965000Y-75294126D01*
X89965000Y-75705874D01*
X90122569Y-76086280D01*
X90413720Y-76377431D01*
X90794126Y-76535000D01*
X91205874Y-76535000D01*
X91586280Y-76377431D01*
X91877431Y-76086280D01*
X92035000Y-75705874D01*
X92035000Y-75294126D01*
X91885000Y-74931993D01*
X91885000Y-73972227D01*
X92244696Y-73823236D01*
X92648368Y-73419564D01*
X92821938Y-73000527D01*
X93313959Y-73000527D01*
X93553484Y-73506620D01*
X93968450Y-73882527D01*
X94356834Y-74043390D01*
X94578873Y-73921401D01*
X94578873Y-72778486D01*
X94832873Y-72778486D01*
X94832873Y-73921401D01*
X95054912Y-74043390D01*
X95443296Y-73882527D01*
X95858262Y-73506620D01*
X96097787Y-73000527D01*
X95976502Y-72778486D01*
X94832873Y-72778486D01*
X94578873Y-72778486D01*
X93435244Y-72778486D01*
X93313959Y-73000527D01*
X92821938Y-73000527D01*
X92866834Y-72892141D01*
X92866834Y-72321263D01*
X92859040Y-72302445D01*
X93313959Y-72302445D01*
X93435244Y-72524486D01*
X94578873Y-72524486D01*
X94578873Y-71381571D01*
X94832873Y-71381571D01*
X94832873Y-72524486D01*
X95976502Y-72524486D01*
X96097787Y-72302445D01*
X95858262Y-71796352D01*
X95443296Y-71420445D01*
X95054912Y-71259582D01*
X94832873Y-71381571D01*
X94578873Y-71381571D01*
X94356834Y-71259582D01*
X93968450Y-71420445D01*
X93553484Y-71796352D01*
X93313959Y-72302445D01*
X92859040Y-72302445D01*
X92648368Y-71793840D01*
X92244696Y-71390168D01*
X91717273Y-71171702D01*
X91146395Y-71171702D01*
X90618972Y-71390168D01*
X90215300Y-71793840D01*
X89996834Y-72321263D01*
X89996834Y-72892141D01*
X90115001Y-73177421D01*
X90115000Y-74931993D01*
X89965000Y-75294126D01*
X83358391Y-75294126D01*
X83358391Y-74398647D01*
X83375728Y-74311486D01*
X83358391Y-74224325D01*
X83358391Y-74224321D01*
X83307043Y-73966176D01*
X83216334Y-73830421D01*
X83422407Y-73624348D01*
X83640873Y-73096925D01*
X83640873Y-73079719D01*
X83813959Y-73079719D01*
X84053484Y-73585812D01*
X84468450Y-73961719D01*
X84856834Y-74122582D01*
X85078873Y-74000593D01*
X85078873Y-72857678D01*
X85332873Y-72857678D01*
X85332873Y-74000593D01*
X85554912Y-74122582D01*
X85943296Y-73961719D01*
X86358262Y-73585812D01*
X86597787Y-73079719D01*
X86530068Y-72955743D01*
X87039920Y-72955743D01*
X87279445Y-73461836D01*
X87694411Y-73837743D01*
X88082795Y-73998606D01*
X88304834Y-73876617D01*
X88304834Y-72733702D01*
X88558834Y-72733702D01*
X88558834Y-73876617D01*
X88780873Y-73998606D01*
X89169257Y-73837743D01*
X89584223Y-73461836D01*
X89823748Y-72955743D01*
X89702463Y-72733702D01*
X88558834Y-72733702D01*
X88304834Y-72733702D01*
X87161205Y-72733702D01*
X87039920Y-72955743D01*
X86530068Y-72955743D01*
X86476502Y-72857678D01*
X85332873Y-72857678D01*
X85078873Y-72857678D01*
X83935244Y-72857678D01*
X83813959Y-73079719D01*
X83640873Y-73079719D01*
X83640873Y-72526047D01*
X83581057Y-72381637D01*
X83813959Y-72381637D01*
X83935244Y-72603678D01*
X85078873Y-72603678D01*
X85078873Y-71460763D01*
X85332873Y-71460763D01*
X85332873Y-72603678D01*
X86476502Y-72603678D01*
X86597787Y-72381637D01*
X86539112Y-72257661D01*
X87039920Y-72257661D01*
X87161205Y-72479702D01*
X88304834Y-72479702D01*
X88304834Y-71336787D01*
X88558834Y-71336787D01*
X88558834Y-72479702D01*
X89702463Y-72479702D01*
X89823748Y-72257661D01*
X89584223Y-71751568D01*
X89169257Y-71375661D01*
X88780873Y-71214798D01*
X88558834Y-71336787D01*
X88304834Y-71336787D01*
X88082795Y-71214798D01*
X87694411Y-71375661D01*
X87279445Y-71751568D01*
X87039920Y-72257661D01*
X86539112Y-72257661D01*
X86358262Y-71875544D01*
X85943296Y-71499637D01*
X85554912Y-71338774D01*
X85332873Y-71460763D01*
X85078873Y-71460763D01*
X84856834Y-71338774D01*
X84468450Y-71499637D01*
X84053484Y-71875544D01*
X83813959Y-72381637D01*
X83581057Y-72381637D01*
X83422407Y-71998624D01*
X83018735Y-71594952D01*
X82671721Y-71451214D01*
X83777935Y-70345001D01*
X92228840Y-70345001D01*
X92316001Y-70362338D01*
X92403162Y-70345001D01*
X92403166Y-70345001D01*
X92661311Y-70293653D01*
X92954050Y-70098050D01*
X93003426Y-70024154D01*
X94064156Y-68963425D01*
X94138049Y-68914051D01*
X94199588Y-68821953D01*
X94316037Y-68647674D01*
X94377431Y-68586280D01*
X94423608Y-68474798D01*
X97231535Y-71282725D01*
X97231535Y-71282725D01*
G37*
X97231535Y-71282725D02*
X97145964Y-71299746D01*
X96671296Y-71616909D01*
X96354133Y-72091577D01*
X96242760Y-72651486D01*
X96354133Y-73211395D01*
X96575819Y-73543171D01*
X96575818Y-80662355D01*
X96425818Y-81024488D01*
X96425818Y-81436236D01*
X96583387Y-81816642D01*
X96627354Y-81860609D01*
X96489339Y-81998624D01*
X96270873Y-82526047D01*
X96270873Y-82994908D01*
X96121086Y-83144694D01*
X96140873Y-83096925D01*
X96140873Y-82526047D01*
X95922407Y-81998624D01*
X95836186Y-81912403D01*
X95850822Y-81897766D01*
X96008391Y-81517360D01*
X96008391Y-81105612D01*
X95850822Y-80725206D01*
X95559671Y-80434055D01*
X95179265Y-80276486D01*
X94767517Y-80276486D01*
X94535000Y-80372797D01*
X94535000Y-80294126D01*
X94377431Y-79913720D01*
X94086280Y-79622569D01*
X93705874Y-79465000D01*
X93294126Y-79465000D01*
X92931993Y-79615000D01*
X91639695Y-79615000D01*
X91552534Y-79597663D01*
X91465373Y-79615000D01*
X91465369Y-79615000D01*
X91207224Y-79666348D01*
X90988379Y-79812576D01*
X90988378Y-79812577D01*
X90914485Y-79861951D01*
X90865111Y-79935844D01*
X89770000Y-81030956D01*
X89770000Y-77874920D01*
X89696313Y-77504471D01*
X89415618Y-77084382D01*
X88995528Y-76803687D01*
X88500000Y-76705120D01*
X88004471Y-76803687D01*
X87584382Y-77084382D01*
X87303687Y-77504472D01*
X87230000Y-77874921D01*
X87230001Y-81779139D01*
X87215300Y-81793840D01*
X86996834Y-82321263D01*
X86996834Y-82892141D01*
X87161834Y-83290486D01*
X87161834Y-83698123D01*
X87086280Y-83622569D01*
X86705874Y-83465000D01*
X86521214Y-83465000D01*
X86640873Y-83176117D01*
X86640873Y-82605239D01*
X86422407Y-82077816D01*
X86018735Y-81674144D01*
X85491312Y-81455678D01*
X84920434Y-81455678D01*
X84393011Y-81674144D01*
X84036011Y-82031144D01*
X84018114Y-82013247D01*
X83637708Y-81855678D01*
X83225960Y-81855678D01*
X83159857Y-81883059D01*
X82922584Y-81724518D01*
X83000822Y-81535633D01*
X83037545Y-81498910D01*
X83111440Y-81449535D01*
X83307043Y-81156796D01*
X83358391Y-80898651D01*
X83358391Y-80898647D01*
X83375728Y-80811486D01*
X83358391Y-80724325D01*
X83358391Y-75294126D01*
X89965000Y-75294126D01*
X89965000Y-75705874D01*
X90122569Y-76086280D01*
X90413720Y-76377431D01*
X90794126Y-76535000D01*
X91205874Y-76535000D01*
X91586280Y-76377431D01*
X91877431Y-76086280D01*
X92035000Y-75705874D01*
X92035000Y-75294126D01*
X91885000Y-74931993D01*
X91885000Y-73972227D01*
X92244696Y-73823236D01*
X92648368Y-73419564D01*
X92821938Y-73000527D01*
X93313959Y-73000527D01*
X93553484Y-73506620D01*
X93968450Y-73882527D01*
X94356834Y-74043390D01*
X94578873Y-73921401D01*
X94578873Y-72778486D01*
X94832873Y-72778486D01*
X94832873Y-73921401D01*
X95054912Y-74043390D01*
X95443296Y-73882527D01*
X95858262Y-73506620D01*
X96097787Y-73000527D01*
X95976502Y-72778486D01*
X94832873Y-72778486D01*
X94578873Y-72778486D01*
X93435244Y-72778486D01*
X93313959Y-73000527D01*
X92821938Y-73000527D01*
X92866834Y-72892141D01*
X92866834Y-72321263D01*
X92859040Y-72302445D01*
X93313959Y-72302445D01*
X93435244Y-72524486D01*
X94578873Y-72524486D01*
X94578873Y-71381571D01*
X94832873Y-71381571D01*
X94832873Y-72524486D01*
X95976502Y-72524486D01*
X96097787Y-72302445D01*
X95858262Y-71796352D01*
X95443296Y-71420445D01*
X95054912Y-71259582D01*
X94832873Y-71381571D01*
X94578873Y-71381571D01*
X94356834Y-71259582D01*
X93968450Y-71420445D01*
X93553484Y-71796352D01*
X93313959Y-72302445D01*
X92859040Y-72302445D01*
X92648368Y-71793840D01*
X92244696Y-71390168D01*
X91717273Y-71171702D01*
X91146395Y-71171702D01*
X90618972Y-71390168D01*
X90215300Y-71793840D01*
X89996834Y-72321263D01*
X89996834Y-72892141D01*
X90115001Y-73177421D01*
X90115000Y-74931993D01*
X89965000Y-75294126D01*
X83358391Y-75294126D01*
X83358391Y-74398647D01*
X83375728Y-74311486D01*
X83358391Y-74224325D01*
X83358391Y-74224321D01*
X83307043Y-73966176D01*
X83216334Y-73830421D01*
X83422407Y-73624348D01*
X83640873Y-73096925D01*
X83640873Y-73079719D01*
X83813959Y-73079719D01*
X84053484Y-73585812D01*
X84468450Y-73961719D01*
X84856834Y-74122582D01*
X85078873Y-74000593D01*
X85078873Y-72857678D01*
X85332873Y-72857678D01*
X85332873Y-74000593D01*
X85554912Y-74122582D01*
X85943296Y-73961719D01*
X86358262Y-73585812D01*
X86597787Y-73079719D01*
X86530068Y-72955743D01*
X87039920Y-72955743D01*
X87279445Y-73461836D01*
X87694411Y-73837743D01*
X88082795Y-73998606D01*
X88304834Y-73876617D01*
X88304834Y-72733702D01*
X88558834Y-72733702D01*
X88558834Y-73876617D01*
X88780873Y-73998606D01*
X89169257Y-73837743D01*
X89584223Y-73461836D01*
X89823748Y-72955743D01*
X89702463Y-72733702D01*
X88558834Y-72733702D01*
X88304834Y-72733702D01*
X87161205Y-72733702D01*
X87039920Y-72955743D01*
X86530068Y-72955743D01*
X86476502Y-72857678D01*
X85332873Y-72857678D01*
X85078873Y-72857678D01*
X83935244Y-72857678D01*
X83813959Y-73079719D01*
X83640873Y-73079719D01*
X83640873Y-72526047D01*
X83581057Y-72381637D01*
X83813959Y-72381637D01*
X83935244Y-72603678D01*
X85078873Y-72603678D01*
X85078873Y-71460763D01*
X85332873Y-71460763D01*
X85332873Y-72603678D01*
X86476502Y-72603678D01*
X86597787Y-72381637D01*
X86539112Y-72257661D01*
X87039920Y-72257661D01*
X87161205Y-72479702D01*
X88304834Y-72479702D01*
X88304834Y-71336787D01*
X88558834Y-71336787D01*
X88558834Y-72479702D01*
X89702463Y-72479702D01*
X89823748Y-72257661D01*
X89584223Y-71751568D01*
X89169257Y-71375661D01*
X88780873Y-71214798D01*
X88558834Y-71336787D01*
X88304834Y-71336787D01*
X88082795Y-71214798D01*
X87694411Y-71375661D01*
X87279445Y-71751568D01*
X87039920Y-72257661D01*
X86539112Y-72257661D01*
X86358262Y-71875544D01*
X85943296Y-71499637D01*
X85554912Y-71338774D01*
X85332873Y-71460763D01*
X85078873Y-71460763D01*
X84856834Y-71338774D01*
X84468450Y-71499637D01*
X84053484Y-71875544D01*
X83813959Y-72381637D01*
X83581057Y-72381637D01*
X83422407Y-71998624D01*
X83018735Y-71594952D01*
X82671721Y-71451214D01*
X83777935Y-70345001D01*
X92228840Y-70345001D01*
X92316001Y-70362338D01*
X92403162Y-70345001D01*
X92403166Y-70345001D01*
X92661311Y-70293653D01*
X92954050Y-70098050D01*
X93003426Y-70024154D01*
X94064156Y-68963425D01*
X94138049Y-68914051D01*
X94199588Y-68821953D01*
X94316037Y-68647674D01*
X94377431Y-68586280D01*
X94423608Y-68474798D01*
X97231535Y-71282725D01*
G36*
X101040001Y-68558422D02*
X93055000Y-60573422D01*
X93055000Y-60104561D01*
X92977265Y-59916890D01*
X97558524Y-59916890D01*
X97728355Y-60326924D01*
X98118642Y-60755183D01*
X98643108Y-61001486D01*
X98873000Y-60880819D01*
X98873000Y-59687000D01*
X99127000Y-59687000D01*
X99127000Y-60880819D01*
X99356892Y-61001486D01*
X99881358Y-60755183D01*
X100271645Y-60326924D01*
X100441476Y-59916890D01*
X100320155Y-59687000D01*
X99127000Y-59687000D01*
X98873000Y-59687000D01*
X97679845Y-59687000D01*
X97558524Y-59916890D01*
X92977265Y-59916890D01*
X92836534Y-59577138D01*
X92432862Y-59173466D01*
X92303784Y-59120000D01*
X92432862Y-59066534D01*
X92836534Y-58662862D01*
X93055000Y-58135439D01*
X93055000Y-57564561D01*
X92836534Y-57037138D01*
X92432862Y-56633466D01*
X92303784Y-56580000D01*
X92432862Y-56526534D01*
X92836534Y-56122862D01*
X93055000Y-55595439D01*
X93055000Y-55024561D01*
X92836534Y-54497138D01*
X92432862Y-54093466D01*
X92303784Y-54040000D01*
X92432862Y-53986534D01*
X92836534Y-53582862D01*
X93055000Y-53055439D01*
X93055000Y-52484561D01*
X92836534Y-51957138D01*
X92432862Y-51553466D01*
X92303784Y-51500000D01*
X92432862Y-51446534D01*
X92836534Y-51042862D01*
X92984369Y-50685957D01*
X94522559Y-52224148D01*
X94672559Y-52586280D01*
X94963710Y-52877431D01*
X95344116Y-53035000D01*
X95714991Y-53035000D01*
X95714991Y-54532825D01*
X95697653Y-54619990D01*
X95766338Y-54965299D01*
X95912566Y-55184144D01*
X95912568Y-55184146D01*
X95961942Y-55258039D01*
X96035835Y-55307413D01*
X97529462Y-56801041D01*
X97485908Y-57020000D01*
X97601161Y-57599418D01*
X97929375Y-58090625D01*
X98248478Y-58303843D01*
X98118642Y-58364817D01*
X97728355Y-58793076D01*
X97558524Y-59203110D01*
X97679845Y-59433000D01*
X98873000Y-59433000D01*
X98873000Y-59413000D01*
X99127000Y-59413000D01*
X99127000Y-59433000D01*
X100320155Y-59433000D01*
X100441476Y-59203110D01*
X100271645Y-58793076D01*
X99881358Y-58364817D01*
X99751522Y-58303843D01*
X100070625Y-58090625D01*
X100398839Y-57599418D01*
X100514092Y-57020000D01*
X100398839Y-56440582D01*
X100070625Y-55949375D01*
X99772239Y-55750000D01*
X100070625Y-55550625D01*
X100398839Y-55059418D01*
X100514092Y-54480000D01*
X100398839Y-53900582D01*
X100070625Y-53409375D01*
X99772239Y-53210000D01*
X100070625Y-53010625D01*
X100398839Y-52519418D01*
X100514092Y-51940000D01*
X100398839Y-51360582D01*
X100070625Y-50869375D01*
X99772239Y-50670000D01*
X100070625Y-50470625D01*
X100398839Y-49979418D01*
X100514092Y-49400000D01*
X100398839Y-48820582D01*
X100070625Y-48329375D01*
X99772239Y-48130000D01*
X100070625Y-47930625D01*
X100398839Y-47439418D01*
X100514092Y-46860000D01*
X100398839Y-46280582D01*
X100070625Y-45789375D01*
X99772239Y-45590000D01*
X100070625Y-45390625D01*
X100398839Y-44899418D01*
X100514092Y-44320000D01*
X100398839Y-43740582D01*
X100070625Y-43249375D01*
X99772239Y-43050000D01*
X100070625Y-42850625D01*
X100398839Y-42359418D01*
X100514092Y-41780000D01*
X100398839Y-41200582D01*
X100070625Y-40709375D01*
X99772239Y-40510000D01*
X100070625Y-40310625D01*
X100398839Y-39819418D01*
X100514092Y-39240000D01*
X100398839Y-38660582D01*
X100070625Y-38169375D01*
X99772239Y-37970000D01*
X100070625Y-37770625D01*
X100398839Y-37279418D01*
X100514092Y-36700000D01*
X100398839Y-36120582D01*
X100070625Y-35629375D01*
X99772239Y-35430000D01*
X100070625Y-35230625D01*
X100398839Y-34739418D01*
X100514092Y-34160000D01*
X100398839Y-33580582D01*
X100070625Y-33089375D01*
X99772239Y-32890000D01*
X100070625Y-32690625D01*
X100398839Y-32199418D01*
X100514092Y-31620000D01*
X100398839Y-31040582D01*
X100070625Y-30549375D01*
X99772239Y-30350000D01*
X100070625Y-30150625D01*
X100398839Y-29659418D01*
X100514092Y-29080000D01*
X100398839Y-28500582D01*
X100070625Y-28009375D01*
X99751522Y-27796157D01*
X99881358Y-27735183D01*
X100271645Y-27306924D01*
X100441476Y-26896890D01*
X100320155Y-26667000D01*
X99127000Y-26667000D01*
X99127000Y-26687000D01*
X98873000Y-26687000D01*
X98873000Y-26667000D01*
X97679845Y-26667000D01*
X97558524Y-26896890D01*
X97728355Y-27306924D01*
X98118642Y-27735183D01*
X98248478Y-27796157D01*
X97929375Y-28009375D01*
X97601161Y-28500582D01*
X97485908Y-29080000D01*
X97601161Y-29659418D01*
X97929375Y-30150625D01*
X98227761Y-30350000D01*
X97929375Y-30549375D01*
X97805344Y-30735000D01*
X90561051Y-30735000D01*
X91986470Y-29309581D01*
X92196313Y-28995529D01*
X92294879Y-28500000D01*
X92196313Y-28004471D01*
X91915618Y-27584382D01*
X91495529Y-27303687D01*
X91431274Y-27290906D01*
X93724156Y-24998025D01*
X93798049Y-24948651D01*
X93993652Y-24655912D01*
X94045000Y-24397767D01*
X94045000Y-24397763D01*
X94062337Y-24310603D01*
X94057394Y-24285750D01*
X97515000Y-24285750D01*
X97515000Y-24976310D01*
X97611673Y-25209699D01*
X97790302Y-25388327D01*
X97999878Y-25475136D01*
X97728355Y-25773076D01*
X97558524Y-26183110D01*
X97679845Y-26413000D01*
X98873000Y-26413000D01*
X98873000Y-24127000D01*
X99127000Y-24127000D01*
X99127000Y-26413000D01*
X100320155Y-26413000D01*
X100441476Y-26183110D01*
X100271645Y-25773076D01*
X100000122Y-25475136D01*
X100209698Y-25388327D01*
X100388327Y-25209699D01*
X100485000Y-24976310D01*
X100485000Y-24285750D01*
X100326250Y-24127000D01*
X99127000Y-24127000D01*
X98873000Y-24127000D01*
X97673750Y-24127000D01*
X97515000Y-24285750D01*
X94057394Y-24285750D01*
X94045000Y-24223443D01*
X94045000Y-23023690D01*
X97515000Y-23023690D01*
X97515000Y-23714250D01*
X97673750Y-23873000D01*
X98873000Y-23873000D01*
X98873000Y-22673750D01*
X99127000Y-22673750D01*
X99127000Y-23873000D01*
X100326250Y-23873000D01*
X100485000Y-23714250D01*
X100485000Y-23023690D01*
X100388327Y-22790301D01*
X100209698Y-22611673D01*
X99976309Y-22515000D01*
X99285750Y-22515000D01*
X99127000Y-22673750D01*
X98873000Y-22673750D01*
X98714250Y-22515000D01*
X98023691Y-22515000D01*
X97790302Y-22611673D01*
X97611673Y-22790301D01*
X97515000Y-23023690D01*
X94045000Y-23023690D01*
X94045000Y-18194656D01*
X94230625Y-18070625D01*
X94443843Y-17751522D01*
X94504817Y-17881358D01*
X94933076Y-18271645D01*
X95343110Y-18441476D01*
X95573000Y-18320155D01*
X95573000Y-17127000D01*
X95827000Y-17127000D01*
X95827000Y-18320155D01*
X96056890Y-18441476D01*
X96466924Y-18271645D01*
X96895183Y-17881358D01*
X97141486Y-17356892D01*
X97020819Y-17127000D01*
X95827000Y-17127000D01*
X95573000Y-17127000D01*
X95553000Y-17127000D01*
X95553000Y-16873000D01*
X95573000Y-16873000D01*
X95573000Y-16853000D01*
X95827000Y-16853000D01*
X95827000Y-16873000D01*
X97020819Y-16873000D01*
X97141486Y-16643108D01*
X96895183Y-16118642D01*
X96466924Y-15728355D01*
X96422608Y-15710000D01*
X101040000Y-15710000D01*
X101040001Y-68558422D01*
X101040001Y-68558422D01*
G37*
X101040001Y-68558422D02*
X93055000Y-60573422D01*
X93055000Y-60104561D01*
X92977265Y-59916890D01*
X97558524Y-59916890D01*
X97728355Y-60326924D01*
X98118642Y-60755183D01*
X98643108Y-61001486D01*
X98873000Y-60880819D01*
X98873000Y-59687000D01*
X99127000Y-59687000D01*
X99127000Y-60880819D01*
X99356892Y-61001486D01*
X99881358Y-60755183D01*
X100271645Y-60326924D01*
X100441476Y-59916890D01*
X100320155Y-59687000D01*
X99127000Y-59687000D01*
X98873000Y-59687000D01*
X97679845Y-59687000D01*
X97558524Y-59916890D01*
X92977265Y-59916890D01*
X92836534Y-59577138D01*
X92432862Y-59173466D01*
X92303784Y-59120000D01*
X92432862Y-59066534D01*
X92836534Y-58662862D01*
X93055000Y-58135439D01*
X93055000Y-57564561D01*
X92836534Y-57037138D01*
X92432862Y-56633466D01*
X92303784Y-56580000D01*
X92432862Y-56526534D01*
X92836534Y-56122862D01*
X93055000Y-55595439D01*
X93055000Y-55024561D01*
X92836534Y-54497138D01*
X92432862Y-54093466D01*
X92303784Y-54040000D01*
X92432862Y-53986534D01*
X92836534Y-53582862D01*
X93055000Y-53055439D01*
X93055000Y-52484561D01*
X92836534Y-51957138D01*
X92432862Y-51553466D01*
X92303784Y-51500000D01*
X92432862Y-51446534D01*
X92836534Y-51042862D01*
X92984369Y-50685957D01*
X94522559Y-52224148D01*
X94672559Y-52586280D01*
X94963710Y-52877431D01*
X95344116Y-53035000D01*
X95714991Y-53035000D01*
X95714991Y-54532825D01*
X95697653Y-54619990D01*
X95766338Y-54965299D01*
X95912566Y-55184144D01*
X95912568Y-55184146D01*
X95961942Y-55258039D01*
X96035835Y-55307413D01*
X97529462Y-56801041D01*
X97485908Y-57020000D01*
X97601161Y-57599418D01*
X97929375Y-58090625D01*
X98248478Y-58303843D01*
X98118642Y-58364817D01*
X97728355Y-58793076D01*
X97558524Y-59203110D01*
X97679845Y-59433000D01*
X98873000Y-59433000D01*
X98873000Y-59413000D01*
X99127000Y-59413000D01*
X99127000Y-59433000D01*
X100320155Y-59433000D01*
X100441476Y-59203110D01*
X100271645Y-58793076D01*
X99881358Y-58364817D01*
X99751522Y-58303843D01*
X100070625Y-58090625D01*
X100398839Y-57599418D01*
X100514092Y-57020000D01*
X100398839Y-56440582D01*
X100070625Y-55949375D01*
X99772239Y-55750000D01*
X100070625Y-55550625D01*
X100398839Y-55059418D01*
X100514092Y-54480000D01*
X100398839Y-53900582D01*
X100070625Y-53409375D01*
X99772239Y-53210000D01*
X100070625Y-53010625D01*
X100398839Y-52519418D01*
X100514092Y-51940000D01*
X100398839Y-51360582D01*
X100070625Y-50869375D01*
X99772239Y-50670000D01*
X100070625Y-50470625D01*
X100398839Y-49979418D01*
X100514092Y-49400000D01*
X100398839Y-48820582D01*
X100070625Y-48329375D01*
X99772239Y-48130000D01*
X100070625Y-47930625D01*
X100398839Y-47439418D01*
X100514092Y-46860000D01*
X100398839Y-46280582D01*
X100070625Y-45789375D01*
X99772239Y-45590000D01*
X100070625Y-45390625D01*
X100398839Y-44899418D01*
X100514092Y-44320000D01*
X100398839Y-43740582D01*
X100070625Y-43249375D01*
X99772239Y-43050000D01*
X100070625Y-42850625D01*
X100398839Y-42359418D01*
X100514092Y-41780000D01*
X100398839Y-41200582D01*
X100070625Y-40709375D01*
X99772239Y-40510000D01*
X100070625Y-40310625D01*
X100398839Y-39819418D01*
X100514092Y-39240000D01*
X100398839Y-38660582D01*
X100070625Y-38169375D01*
X99772239Y-37970000D01*
X100070625Y-37770625D01*
X100398839Y-37279418D01*
X100514092Y-36700000D01*
X100398839Y-36120582D01*
X100070625Y-35629375D01*
X99772239Y-35430000D01*
X100070625Y-35230625D01*
X100398839Y-34739418D01*
X100514092Y-34160000D01*
X100398839Y-33580582D01*
X100070625Y-33089375D01*
X99772239Y-32890000D01*
X100070625Y-32690625D01*
X100398839Y-32199418D01*
X100514092Y-31620000D01*
X100398839Y-31040582D01*
X100070625Y-30549375D01*
X99772239Y-30350000D01*
X100070625Y-30150625D01*
X100398839Y-29659418D01*
X100514092Y-29080000D01*
X100398839Y-28500582D01*
X100070625Y-28009375D01*
X99751522Y-27796157D01*
X99881358Y-27735183D01*
X100271645Y-27306924D01*
X100441476Y-26896890D01*
X100320155Y-26667000D01*
X99127000Y-26667000D01*
X99127000Y-26687000D01*
X98873000Y-26687000D01*
X98873000Y-26667000D01*
X97679845Y-26667000D01*
X97558524Y-26896890D01*
X97728355Y-27306924D01*
X98118642Y-27735183D01*
X98248478Y-27796157D01*
X97929375Y-28009375D01*
X97601161Y-28500582D01*
X97485908Y-29080000D01*
X97601161Y-29659418D01*
X97929375Y-30150625D01*
X98227761Y-30350000D01*
X97929375Y-30549375D01*
X97805344Y-30735000D01*
X90561051Y-30735000D01*
X91986470Y-29309581D01*
X92196313Y-28995529D01*
X92294879Y-28500000D01*
X92196313Y-28004471D01*
X91915618Y-27584382D01*
X91495529Y-27303687D01*
X91431274Y-27290906D01*
X93724156Y-24998025D01*
X93798049Y-24948651D01*
X93993652Y-24655912D01*
X94045000Y-24397767D01*
X94045000Y-24397763D01*
X94062337Y-24310603D01*
X94057394Y-24285750D01*
X97515000Y-24285750D01*
X97515000Y-24976310D01*
X97611673Y-25209699D01*
X97790302Y-25388327D01*
X97999878Y-25475136D01*
X97728355Y-25773076D01*
X97558524Y-26183110D01*
X97679845Y-26413000D01*
X98873000Y-26413000D01*
X98873000Y-24127000D01*
X99127000Y-24127000D01*
X99127000Y-26413000D01*
X100320155Y-26413000D01*
X100441476Y-26183110D01*
X100271645Y-25773076D01*
X100000122Y-25475136D01*
X100209698Y-25388327D01*
X100388327Y-25209699D01*
X100485000Y-24976310D01*
X100485000Y-24285750D01*
X100326250Y-24127000D01*
X99127000Y-24127000D01*
X98873000Y-24127000D01*
X97673750Y-24127000D01*
X97515000Y-24285750D01*
X94057394Y-24285750D01*
X94045000Y-24223443D01*
X94045000Y-23023690D01*
X97515000Y-23023690D01*
X97515000Y-23714250D01*
X97673750Y-23873000D01*
X98873000Y-23873000D01*
X98873000Y-22673750D01*
X99127000Y-22673750D01*
X99127000Y-23873000D01*
X100326250Y-23873000D01*
X100485000Y-23714250D01*
X100485000Y-23023690D01*
X100388327Y-22790301D01*
X100209698Y-22611673D01*
X99976309Y-22515000D01*
X99285750Y-22515000D01*
X99127000Y-22673750D01*
X98873000Y-22673750D01*
X98714250Y-22515000D01*
X98023691Y-22515000D01*
X97790302Y-22611673D01*
X97611673Y-22790301D01*
X97515000Y-23023690D01*
X94045000Y-23023690D01*
X94045000Y-18194656D01*
X94230625Y-18070625D01*
X94443843Y-17751522D01*
X94504817Y-17881358D01*
X94933076Y-18271645D01*
X95343110Y-18441476D01*
X95573000Y-18320155D01*
X95573000Y-17127000D01*
X95827000Y-17127000D01*
X95827000Y-18320155D01*
X96056890Y-18441476D01*
X96466924Y-18271645D01*
X96895183Y-17881358D01*
X97141486Y-17356892D01*
X97020819Y-17127000D01*
X95827000Y-17127000D01*
X95573000Y-17127000D01*
X95553000Y-17127000D01*
X95553000Y-16873000D01*
X95573000Y-16873000D01*
X95573000Y-16853000D01*
X95827000Y-16853000D01*
X95827000Y-16873000D01*
X97020819Y-16873000D01*
X97141486Y-16643108D01*
X96895183Y-16118642D01*
X96466924Y-15728355D01*
X96422608Y-15710000D01*
X101040000Y-15710000D01*
X101040001Y-68558422D01*
G36*
X87730001Y-51603949D02*
X87690421Y-51643529D01*
X87584382Y-51714382D01*
X87303687Y-52134472D01*
X87230000Y-52504921D01*
X87230000Y-52504925D01*
X87205121Y-52630000D01*
X87230000Y-52755075D01*
X87230000Y-53286375D01*
X87152235Y-53301843D01*
X86942191Y-53442191D01*
X86801843Y-53652235D01*
X86789220Y-53715695D01*
X86414332Y-53365466D01*
X85896122Y-53150825D01*
X85627000Y-53268875D01*
X85627000Y-54713000D01*
X85647000Y-54713000D01*
X85647000Y-54967000D01*
X85627000Y-54967000D01*
X85627000Y-56411125D01*
X85896122Y-56529175D01*
X86414332Y-56314534D01*
X86752560Y-55998553D01*
X86752560Y-56100000D01*
X86801843Y-56347765D01*
X86942191Y-56557809D01*
X87152235Y-56698157D01*
X87400000Y-56747440D01*
X89600000Y-56747440D01*
X89847765Y-56698157D01*
X90057809Y-56557809D01*
X90198157Y-56347765D01*
X90247440Y-56100000D01*
X90247440Y-55746182D01*
X90403466Y-56122862D01*
X90807138Y-56526534D01*
X90936216Y-56580000D01*
X90807138Y-56633466D01*
X90403466Y-57037138D01*
X90185000Y-57564561D01*
X90185000Y-58135439D01*
X90403466Y-58662862D01*
X90807138Y-59066534D01*
X90936216Y-59120000D01*
X90807138Y-59173466D01*
X90403466Y-59577138D01*
X90185000Y-60104561D01*
X90185000Y-60675439D01*
X90403466Y-61202862D01*
X90807138Y-61606534D01*
X90936216Y-61660000D01*
X90807138Y-61713466D01*
X90403466Y-62117138D01*
X90185000Y-62644561D01*
X90185000Y-63215439D01*
X90403466Y-63742862D01*
X90807138Y-64146534D01*
X90936216Y-64200000D01*
X90807138Y-64253466D01*
X90403466Y-64657138D01*
X90245042Y-65039606D01*
X90134334Y-64483037D01*
X89750865Y-63909135D01*
X89176963Y-63525666D01*
X88670880Y-63425000D01*
X88329120Y-63425000D01*
X87823037Y-63525666D01*
X87249135Y-63909135D01*
X87247440Y-63911672D01*
X87247440Y-63900000D01*
X87198157Y-63652235D01*
X87057809Y-63442191D01*
X86847765Y-63301843D01*
X86600000Y-63252560D01*
X84400000Y-63252560D01*
X84152235Y-63301843D01*
X83942191Y-63442191D01*
X83801843Y-63652235D01*
X83752560Y-63900000D01*
X83752560Y-66100000D01*
X83801843Y-66347765D01*
X83942191Y-66557809D01*
X83967779Y-66574907D01*
X83646546Y-66590222D01*
X83245995Y-66756136D01*
X83171861Y-67002255D01*
X84000000Y-67830395D01*
X84828139Y-67002255D01*
X84754005Y-66756136D01*
X84729812Y-66747440D01*
X85838254Y-66747440D01*
X85727138Y-66793466D01*
X85323466Y-67197138D01*
X85276475Y-67310583D01*
X85253864Y-67255995D01*
X85007745Y-67181861D01*
X84179605Y-68010000D01*
X84193748Y-68024142D01*
X84014143Y-68203748D01*
X84000000Y-68189605D01*
X83985858Y-68203748D01*
X83806253Y-68024143D01*
X83820395Y-68010000D01*
X82992255Y-67181861D01*
X82746136Y-67255995D01*
X82725126Y-67314448D01*
X82676534Y-67197138D01*
X82272862Y-66793466D01*
X81745439Y-66575000D01*
X81174561Y-66575000D01*
X80647138Y-66793466D01*
X80243466Y-67197138D01*
X80190000Y-67326216D01*
X80136534Y-67197138D01*
X79732862Y-66793466D01*
X79205439Y-66575000D01*
X78634561Y-66575000D01*
X78107138Y-66793466D01*
X77703466Y-67197138D01*
X77650000Y-67326216D01*
X77596534Y-67197138D01*
X77192862Y-66793466D01*
X77063784Y-66740000D01*
X77192862Y-66686534D01*
X77596534Y-66282862D01*
X77815000Y-65755439D01*
X77815000Y-65184561D01*
X77596534Y-64657138D01*
X77192862Y-64253466D01*
X77063784Y-64200000D01*
X77192862Y-64146534D01*
X77596534Y-63742862D01*
X77815000Y-63215439D01*
X77815000Y-62644561D01*
X77596534Y-62117138D01*
X77192862Y-61713466D01*
X77063784Y-61660000D01*
X77192862Y-61606534D01*
X77596534Y-61202862D01*
X77815000Y-60675439D01*
X77815000Y-60104561D01*
X77596534Y-59577138D01*
X77192862Y-59173466D01*
X77063784Y-59120000D01*
X77192862Y-59066534D01*
X77596534Y-58662862D01*
X77711628Y-58385000D01*
X82431993Y-58385000D01*
X82794126Y-58535000D01*
X83205874Y-58535000D01*
X83586280Y-58377431D01*
X83877431Y-58086280D01*
X84035000Y-57705874D01*
X84035000Y-57294126D01*
X83877431Y-56913720D01*
X83586280Y-56622569D01*
X83205874Y-56465000D01*
X82794126Y-56465000D01*
X82431993Y-56615000D01*
X77148281Y-56615000D01*
X77063784Y-56580000D01*
X77192862Y-56526534D01*
X77524396Y-56195000D01*
X78256842Y-56195000D01*
X78344003Y-56212337D01*
X78431164Y-56195000D01*
X78431168Y-56195000D01*
X78689313Y-56143652D01*
X78982052Y-55948049D01*
X79031428Y-55874153D01*
X79669458Y-55236123D01*
X83810817Y-55236123D01*
X84090988Y-55852392D01*
X84585668Y-56314534D01*
X85103878Y-56529175D01*
X85373000Y-56411125D01*
X85373000Y-54967000D01*
X83928396Y-54967000D01*
X83810817Y-55236123D01*
X79669458Y-55236123D01*
X80461704Y-54443877D01*
X83810817Y-54443877D01*
X83928396Y-54713000D01*
X85373000Y-54713000D01*
X85373000Y-53268875D01*
X85103878Y-53150825D01*
X84585668Y-53365466D01*
X84090988Y-53827608D01*
X83810817Y-54443877D01*
X80461704Y-54443877D01*
X83033744Y-51871837D01*
X83122569Y-52086280D01*
X83413720Y-52377431D01*
X83794126Y-52535000D01*
X84205874Y-52535000D01*
X84586280Y-52377431D01*
X84877431Y-52086280D01*
X85027431Y-51724147D01*
X86724148Y-50027431D01*
X87086280Y-49877431D01*
X87377431Y-49586280D01*
X87535000Y-49205874D01*
X87535000Y-48794126D01*
X87377431Y-48413720D01*
X87086280Y-48122569D01*
X86871838Y-48033744D01*
X87714157Y-47191424D01*
X87730001Y-47180838D01*
X87730001Y-51603949D01*
X87730001Y-51603949D01*
G37*
X87730001Y-51603949D02*
X87690421Y-51643529D01*
X87584382Y-51714382D01*
X87303687Y-52134472D01*
X87230000Y-52504921D01*
X87230000Y-52504925D01*
X87205121Y-52630000D01*
X87230000Y-52755075D01*
X87230000Y-53286375D01*
X87152235Y-53301843D01*
X86942191Y-53442191D01*
X86801843Y-53652235D01*
X86789220Y-53715695D01*
X86414332Y-53365466D01*
X85896122Y-53150825D01*
X85627000Y-53268875D01*
X85627000Y-54713000D01*
X85647000Y-54713000D01*
X85647000Y-54967000D01*
X85627000Y-54967000D01*
X85627000Y-56411125D01*
X85896122Y-56529175D01*
X86414332Y-56314534D01*
X86752560Y-55998553D01*
X86752560Y-56100000D01*
X86801843Y-56347765D01*
X86942191Y-56557809D01*
X87152235Y-56698157D01*
X87400000Y-56747440D01*
X89600000Y-56747440D01*
X89847765Y-56698157D01*
X90057809Y-56557809D01*
X90198157Y-56347765D01*
X90247440Y-56100000D01*
X90247440Y-55746182D01*
X90403466Y-56122862D01*
X90807138Y-56526534D01*
X90936216Y-56580000D01*
X90807138Y-56633466D01*
X90403466Y-57037138D01*
X90185000Y-57564561D01*
X90185000Y-58135439D01*
X90403466Y-58662862D01*
X90807138Y-59066534D01*
X90936216Y-59120000D01*
X90807138Y-59173466D01*
X90403466Y-59577138D01*
X90185000Y-60104561D01*
X90185000Y-60675439D01*
X90403466Y-61202862D01*
X90807138Y-61606534D01*
X90936216Y-61660000D01*
X90807138Y-61713466D01*
X90403466Y-62117138D01*
X90185000Y-62644561D01*
X90185000Y-63215439D01*
X90403466Y-63742862D01*
X90807138Y-64146534D01*
X90936216Y-64200000D01*
X90807138Y-64253466D01*
X90403466Y-64657138D01*
X90245042Y-65039606D01*
X90134334Y-64483037D01*
X89750865Y-63909135D01*
X89176963Y-63525666D01*
X88670880Y-63425000D01*
X88329120Y-63425000D01*
X87823037Y-63525666D01*
X87249135Y-63909135D01*
X87247440Y-63911672D01*
X87247440Y-63900000D01*
X87198157Y-63652235D01*
X87057809Y-63442191D01*
X86847765Y-63301843D01*
X86600000Y-63252560D01*
X84400000Y-63252560D01*
X84152235Y-63301843D01*
X83942191Y-63442191D01*
X83801843Y-63652235D01*
X83752560Y-63900000D01*
X83752560Y-66100000D01*
X83801843Y-66347765D01*
X83942191Y-66557809D01*
X83967779Y-66574907D01*
X83646546Y-66590222D01*
X83245995Y-66756136D01*
X83171861Y-67002255D01*
X84000000Y-67830395D01*
X84828139Y-67002255D01*
X84754005Y-66756136D01*
X84729812Y-66747440D01*
X85838254Y-66747440D01*
X85727138Y-66793466D01*
X85323466Y-67197138D01*
X85276475Y-67310583D01*
X85253864Y-67255995D01*
X85007745Y-67181861D01*
X84179605Y-68010000D01*
X84193748Y-68024142D01*
X84014143Y-68203748D01*
X84000000Y-68189605D01*
X83985858Y-68203748D01*
X83806253Y-68024143D01*
X83820395Y-68010000D01*
X82992255Y-67181861D01*
X82746136Y-67255995D01*
X82725126Y-67314448D01*
X82676534Y-67197138D01*
X82272862Y-66793466D01*
X81745439Y-66575000D01*
X81174561Y-66575000D01*
X80647138Y-66793466D01*
X80243466Y-67197138D01*
X80190000Y-67326216D01*
X80136534Y-67197138D01*
X79732862Y-66793466D01*
X79205439Y-66575000D01*
X78634561Y-66575000D01*
X78107138Y-66793466D01*
X77703466Y-67197138D01*
X77650000Y-67326216D01*
X77596534Y-67197138D01*
X77192862Y-66793466D01*
X77063784Y-66740000D01*
X77192862Y-66686534D01*
X77596534Y-66282862D01*
X77815000Y-65755439D01*
X77815000Y-65184561D01*
X77596534Y-64657138D01*
X77192862Y-64253466D01*
X77063784Y-64200000D01*
X77192862Y-64146534D01*
X77596534Y-63742862D01*
X77815000Y-63215439D01*
X77815000Y-62644561D01*
X77596534Y-62117138D01*
X77192862Y-61713466D01*
X77063784Y-61660000D01*
X77192862Y-61606534D01*
X77596534Y-61202862D01*
X77815000Y-60675439D01*
X77815000Y-60104561D01*
X77596534Y-59577138D01*
X77192862Y-59173466D01*
X77063784Y-59120000D01*
X77192862Y-59066534D01*
X77596534Y-58662862D01*
X77711628Y-58385000D01*
X82431993Y-58385000D01*
X82794126Y-58535000D01*
X83205874Y-58535000D01*
X83586280Y-58377431D01*
X83877431Y-58086280D01*
X84035000Y-57705874D01*
X84035000Y-57294126D01*
X83877431Y-56913720D01*
X83586280Y-56622569D01*
X83205874Y-56465000D01*
X82794126Y-56465000D01*
X82431993Y-56615000D01*
X77148281Y-56615000D01*
X77063784Y-56580000D01*
X77192862Y-56526534D01*
X77524396Y-56195000D01*
X78256842Y-56195000D01*
X78344003Y-56212337D01*
X78431164Y-56195000D01*
X78431168Y-56195000D01*
X78689313Y-56143652D01*
X78982052Y-55948049D01*
X79031428Y-55874153D01*
X79669458Y-55236123D01*
X83810817Y-55236123D01*
X84090988Y-55852392D01*
X84585668Y-56314534D01*
X85103878Y-56529175D01*
X85373000Y-56411125D01*
X85373000Y-54967000D01*
X83928396Y-54967000D01*
X83810817Y-55236123D01*
X79669458Y-55236123D01*
X80461704Y-54443877D01*
X83810817Y-54443877D01*
X83928396Y-54713000D01*
X85373000Y-54713000D01*
X85373000Y-53268875D01*
X85103878Y-53150825D01*
X84585668Y-53365466D01*
X84090988Y-53827608D01*
X83810817Y-54443877D01*
X80461704Y-54443877D01*
X83033744Y-51871837D01*
X83122569Y-52086280D01*
X83413720Y-52377431D01*
X83794126Y-52535000D01*
X84205874Y-52535000D01*
X84586280Y-52377431D01*
X84877431Y-52086280D01*
X85027431Y-51724147D01*
X86724148Y-50027431D01*
X87086280Y-49877431D01*
X87377431Y-49586280D01*
X87535000Y-49205874D01*
X87535000Y-48794126D01*
X87377431Y-48413720D01*
X87086280Y-48122569D01*
X86871838Y-48033744D01*
X87714157Y-47191424D01*
X87730001Y-47180838D01*
X87730001Y-51603949D01*
G36*
X97929375Y-32690625D02*
X98227761Y-32890000D01*
X97929375Y-33089375D01*
X97601161Y-33580582D01*
X97485908Y-34160000D01*
X97601161Y-34739418D01*
X97929375Y-35230625D01*
X98227761Y-35430000D01*
X97929375Y-35629375D01*
X97601161Y-36120582D01*
X97485908Y-36700000D01*
X97601161Y-37279418D01*
X97929375Y-37770625D01*
X98227761Y-37970000D01*
X97929375Y-38169375D01*
X97805344Y-38355000D01*
X96917162Y-38355000D01*
X96830001Y-38337663D01*
X96742840Y-38355000D01*
X96742836Y-38355000D01*
X96484691Y-38406348D01*
X96265846Y-38552576D01*
X96265845Y-38552577D01*
X96191952Y-38601951D01*
X96142578Y-38675844D01*
X93275853Y-41542570D01*
X92913720Y-41692570D01*
X92822843Y-41783447D01*
X92432862Y-41393466D01*
X92303784Y-41340000D01*
X92432862Y-41286534D01*
X92836534Y-40882862D01*
X93055000Y-40355439D01*
X93055000Y-39784561D01*
X92836534Y-39257138D01*
X92432862Y-38853466D01*
X92303784Y-38800000D01*
X92432862Y-38746534D01*
X92836534Y-38342862D01*
X93055000Y-37815439D01*
X93055000Y-37244561D01*
X92836534Y-36717138D01*
X92544396Y-36425000D01*
X92546310Y-36425000D01*
X92779699Y-36328327D01*
X92958327Y-36149698D01*
X93055000Y-35916309D01*
X93055000Y-35275750D01*
X92896250Y-35117000D01*
X91747000Y-35117000D01*
X91747000Y-35137000D01*
X91493000Y-35137000D01*
X91493000Y-35117000D01*
X90343750Y-35117000D01*
X90185000Y-35275750D01*
X90185000Y-35916309D01*
X90281673Y-36149698D01*
X90460301Y-36328327D01*
X90693690Y-36425000D01*
X90695604Y-36425000D01*
X90403466Y-36717138D01*
X90185000Y-37244561D01*
X90185000Y-37815439D01*
X90403466Y-38342862D01*
X90807138Y-38746534D01*
X90936216Y-38800000D01*
X90807138Y-38853466D01*
X90403466Y-39257138D01*
X90270000Y-39579353D01*
X90270000Y-39125080D01*
X90294880Y-39000000D01*
X90196313Y-38504471D01*
X89915618Y-38084382D01*
X89495529Y-37803687D01*
X89125080Y-37730000D01*
X89000000Y-37705120D01*
X88874920Y-37730000D01*
X83566050Y-37730000D01*
X87032554Y-34263496D01*
X87172580Y-34601549D01*
X87463731Y-34892700D01*
X87844137Y-35050269D01*
X88255885Y-35050269D01*
X88636291Y-34892700D01*
X88927442Y-34601549D01*
X89077442Y-34239416D01*
X89253167Y-34063691D01*
X90185000Y-34063691D01*
X90185000Y-34704250D01*
X90343750Y-34863000D01*
X91493000Y-34863000D01*
X91493000Y-33713750D01*
X91747000Y-33713750D01*
X91747000Y-34863000D01*
X92896250Y-34863000D01*
X93055000Y-34704250D01*
X93055000Y-34063691D01*
X92958327Y-33830302D01*
X92779699Y-33651673D01*
X92546310Y-33555000D01*
X91905750Y-33555000D01*
X91747000Y-33713750D01*
X91493000Y-33713750D01*
X91334250Y-33555000D01*
X90693690Y-33555000D01*
X90460301Y-33651673D01*
X90281673Y-33830302D01*
X90185000Y-34063691D01*
X89253167Y-34063691D01*
X90811859Y-32505000D01*
X97805344Y-32505000D01*
X97929375Y-32690625D01*
X97929375Y-32690625D01*
G37*
X97929375Y-32690625D02*
X98227761Y-32890000D01*
X97929375Y-33089375D01*
X97601161Y-33580582D01*
X97485908Y-34160000D01*
X97601161Y-34739418D01*
X97929375Y-35230625D01*
X98227761Y-35430000D01*
X97929375Y-35629375D01*
X97601161Y-36120582D01*
X97485908Y-36700000D01*
X97601161Y-37279418D01*
X97929375Y-37770625D01*
X98227761Y-37970000D01*
X97929375Y-38169375D01*
X97805344Y-38355000D01*
X96917162Y-38355000D01*
X96830001Y-38337663D01*
X96742840Y-38355000D01*
X96742836Y-38355000D01*
X96484691Y-38406348D01*
X96265846Y-38552576D01*
X96265845Y-38552577D01*
X96191952Y-38601951D01*
X96142578Y-38675844D01*
X93275853Y-41542570D01*
X92913720Y-41692570D01*
X92822843Y-41783447D01*
X92432862Y-41393466D01*
X92303784Y-41340000D01*
X92432862Y-41286534D01*
X92836534Y-40882862D01*
X93055000Y-40355439D01*
X93055000Y-39784561D01*
X92836534Y-39257138D01*
X92432862Y-38853466D01*
X92303784Y-38800000D01*
X92432862Y-38746534D01*
X92836534Y-38342862D01*
X93055000Y-37815439D01*
X93055000Y-37244561D01*
X92836534Y-36717138D01*
X92544396Y-36425000D01*
X92546310Y-36425000D01*
X92779699Y-36328327D01*
X92958327Y-36149698D01*
X93055000Y-35916309D01*
X93055000Y-35275750D01*
X92896250Y-35117000D01*
X91747000Y-35117000D01*
X91747000Y-35137000D01*
X91493000Y-35137000D01*
X91493000Y-35117000D01*
X90343750Y-35117000D01*
X90185000Y-35275750D01*
X90185000Y-35916309D01*
X90281673Y-36149698D01*
X90460301Y-36328327D01*
X90693690Y-36425000D01*
X90695604Y-36425000D01*
X90403466Y-36717138D01*
X90185000Y-37244561D01*
X90185000Y-37815439D01*
X90403466Y-38342862D01*
X90807138Y-38746534D01*
X90936216Y-38800000D01*
X90807138Y-38853466D01*
X90403466Y-39257138D01*
X90270000Y-39579353D01*
X90270000Y-39125080D01*
X90294880Y-39000000D01*
X90196313Y-38504471D01*
X89915618Y-38084382D01*
X89495529Y-37803687D01*
X89125080Y-37730000D01*
X89000000Y-37705120D01*
X88874920Y-37730000D01*
X83566050Y-37730000D01*
X87032554Y-34263496D01*
X87172580Y-34601549D01*
X87463731Y-34892700D01*
X87844137Y-35050269D01*
X88255885Y-35050269D01*
X88636291Y-34892700D01*
X88927442Y-34601549D01*
X89077442Y-34239416D01*
X89253167Y-34063691D01*
X90185000Y-34063691D01*
X90185000Y-34704250D01*
X90343750Y-34863000D01*
X91493000Y-34863000D01*
X91493000Y-33713750D01*
X91747000Y-33713750D01*
X91747000Y-34863000D01*
X92896250Y-34863000D01*
X93055000Y-34704250D01*
X93055000Y-34063691D01*
X92958327Y-33830302D01*
X92779699Y-33651673D01*
X92546310Y-33555000D01*
X91905750Y-33555000D01*
X91747000Y-33713750D01*
X91493000Y-33713750D01*
X91334250Y-33555000D01*
X90693690Y-33555000D01*
X90460301Y-33651673D01*
X90281673Y-33830302D01*
X90185000Y-34063691D01*
X89253167Y-34063691D01*
X90811859Y-32505000D01*
X97805344Y-32505000D01*
X97929375Y-32690625D01*
G04 #@! TD*
M02*
