M48
INCH,TZ
T1C0.0157
T2C0.0295
T3C0.0315
T4C0.0394
T5C0.0433
%
G90
G05
T1
X25945Y-25984
X25945Y-33071
X26181Y-35827
X26508Y-15748
X26728Y-41675
X26772Y-40354
X26772Y-41142
X27146Y-29921
X27146Y-37776
X27559Y-29528
X27559Y-38189
X27756Y-18110
X27953Y-9055
X28543Y-33878
X28937Y-15748
X29724Y-30512
X29724Y-33465
X29921Y-11780
X30108Y-39886
X31102Y-29331
X31289Y-32012
X31666Y-32719
X31666Y-39886
X31693Y-15354
X32087Y-15945
X32264Y-12795
X32273Y-32012
X32283Y-41929
X32677Y-22638
X32847Y-32634
X32847Y-39130
X32921Y-18355
X33071Y-15945
X33071Y-20276
X33454Y-39886
X33898Y-15945
X33898Y-18110
X34055Y-19291
X34055Y-33268
X34311Y-16929
X34443Y-11805
X34665Y-13392
X34843Y-30709
X34843Y-40354
X35827Y-11220
X35827Y-29724
X36194Y-39412
X36398Y-37842
X36811Y-16760
X36811Y-26772
X36811Y-31693
X37055Y-17176
X37286Y-37965
X37391Y-32012
X37598Y-17520
X37608Y-41339
X37618Y-20472
X38359Y-39609
X38370Y-31980
X39587Y-33268
X39715Y-27756
T2
X24803Y-20866
X25303Y-20866
X25803Y-20866
X38189Y-45063
X38189Y-45563
X38189Y-46063
T3
X38488Y-39070
X38488Y-43070
X25000Y-15748
X25787Y-15748
X34816Y-39018
X34816Y-42955
X28346Y-28543
X28346Y-32543
X38467Y-28603
X38467Y-32603
X27362Y-45079
X31362Y-45079
X33546Y-39067
X33546Y-43067
X36013Y-39036
X36013Y-43036
X35997Y-28585
X35997Y-32585
X37194Y-39036
X37194Y-43036
X32365Y-39130
X32365Y-43130
X25000Y-28283
X25000Y-32283
X28699Y-38984
X28699Y-42984
X31879Y-34327
X31879Y-37327
X32879Y-34327
X32879Y-37327
X33879Y-34327
X33879Y-37327
X34879Y-34327
X34879Y-37327
X35879Y-34327
X35879Y-37327
X36879Y-34327
X36879Y-37327
X37879Y-34327
X37879Y-37327
X29921Y-35039
X29921Y-39039
X29724Y-28677
X29724Y-32677
X33546Y-28634
X33546Y-32634
X34816Y-28585
X34816Y-32522
X31183Y-39130
X31183Y-43130
X32365Y-28666
X32365Y-32666
X37286Y-28603
X37286Y-32603
X25000Y-18110
X25787Y-18110
X31092Y-28666
X31092Y-32666
X27321Y-38984
X27321Y-42984
T4
X25181Y-6780
X25181Y-7780
X25181Y-8780
X25181Y-9780
X25181Y-10780
X25181Y-11780
X25181Y-12780
X25181Y-13780
X26181Y-6780
X26181Y-7780
X26181Y-8780
X26181Y-9780
X26181Y-10780
X26181Y-11780
X26181Y-12780
X26181Y-13780
X25000Y-34843
X25000Y-35843
X25000Y-36843
X25000Y-37843
X25000Y-38843
X25000Y-39843
X25000Y-40843
X25000Y-41843
X25000Y-42843
X38976Y-9449
X38976Y-10449
X38976Y-11449
X38976Y-12449
X38976Y-13449
X38976Y-14449
X38976Y-15449
X38976Y-16449
X38976Y-17449
X38976Y-18449
X38976Y-19449
X38976Y-20449
X38976Y-21449
X38976Y-22449
X38976Y-23449
X32677Y-6693
X33677Y-6693
X34677Y-6693
X35677Y-6693
X36677Y-6693
X37677Y-6693
T5
X33661Y-21591
X33661Y-25591
X27756Y-6890
X27756Y-10890
X30071Y-13776
X30071Y-14776
X30071Y-15776
X30071Y-16776
X30071Y-17776
X30071Y-18776
X30071Y-19776
X30071Y-20776
X30071Y-21776
X30071Y-22776
X30071Y-23776
X30071Y-24776
X30071Y-25776
X30071Y-26776
X31071Y-14776
X31071Y-16776
X31071Y-17776
X31071Y-18776
X31071Y-26776
X32071Y-26776
X33071Y-26776
X34071Y-26776
X35071Y-26776
X36071Y-13776
X36071Y-14776
X36071Y-15776
X36071Y-16776
X36071Y-17776
X36071Y-18776
X36071Y-19776
X36071Y-20776
X36071Y-21776
X36071Y-22776
X36071Y-23776
X36071Y-24776
X36071Y-25776
X36071Y-26776
X34843Y-21654
X34843Y-25654
X29134Y-6827
X29134Y-10827
X25000Y-22969
X25000Y-26969
X32417Y-45079
X36417Y-45079
T0
M30
