G04 #@! TF.GenerationSoftware,KiCad,Pcbnew,(5.0.1)-3*
G04 #@! TF.CreationDate,2019-04-01T17:27:39+01:00*
G04 #@! TF.ProjectId,Fractional Clock divider PCB1 bottom board,4672616374696F6E616C20436C6F636B,rev?*
G04 #@! TF.SameCoordinates,Original*
G04 #@! TF.FileFunction,Soldermask,Top*
G04 #@! TF.FilePolarity,Negative*
%FSLAX46Y46*%
G04 Gerber Fmt 4.6, Leading zero omitted, Abs format (unit mm)*
G04 Created by KiCad (PCBNEW (5.0.1)-3) date 01/04/2019 17:27:39*
%MOMM*%
%LPD*%
G01*
G04 APERTURE LIST*
%ADD10C,0.100000*%
G04 APERTURE END LIST*
D10*
G36*
X97337916Y-113892334D02*
X97446492Y-113925271D01*
X97546557Y-113978756D01*
X97634264Y-114050736D01*
X97706244Y-114138443D01*
X97759729Y-114238508D01*
X97792666Y-114347084D01*
X97803787Y-114460000D01*
X97792666Y-114572916D01*
X97759729Y-114681492D01*
X97759726Y-114681497D01*
X97706244Y-114781557D01*
X97634264Y-114869264D01*
X97546557Y-114941244D01*
X97465143Y-114984760D01*
X97444768Y-114998373D01*
X97427441Y-115015701D01*
X97413827Y-115036075D01*
X97404450Y-115058714D01*
X97399669Y-115082747D01*
X97399669Y-115107252D01*
X97404449Y-115131285D01*
X97413827Y-115153924D01*
X97427440Y-115174299D01*
X97444768Y-115191626D01*
X97465143Y-115205240D01*
X97546557Y-115248756D01*
X97634264Y-115320736D01*
X97706244Y-115408443D01*
X97759729Y-115508508D01*
X97792666Y-115617084D01*
X97803787Y-115730000D01*
X97792666Y-115842916D01*
X97759729Y-115951492D01*
X97759726Y-115951497D01*
X97706244Y-116051557D01*
X97634264Y-116139264D01*
X97557365Y-116202374D01*
X97540038Y-116219701D01*
X97526424Y-116240076D01*
X97517046Y-116262715D01*
X97512266Y-116286748D01*
X97512266Y-116311252D01*
X97517047Y-116335286D01*
X97526424Y-116357925D01*
X97540038Y-116378299D01*
X97557365Y-116395626D01*
X97577740Y-116409240D01*
X97600379Y-116418618D01*
X97636664Y-116424000D01*
X97801000Y-116424000D01*
X97801000Y-117576000D01*
X96199000Y-117576000D01*
X96199000Y-116424000D01*
X96363336Y-116424000D01*
X96387722Y-116421598D01*
X96411171Y-116414485D01*
X96432782Y-116402934D01*
X96451724Y-116387388D01*
X96467270Y-116368446D01*
X96478821Y-116346835D01*
X96485934Y-116323386D01*
X96488336Y-116299000D01*
X96485934Y-116274614D01*
X96478821Y-116251165D01*
X96467270Y-116229554D01*
X96442635Y-116202374D01*
X96365736Y-116139264D01*
X96293756Y-116051557D01*
X96240274Y-115951497D01*
X96240271Y-115951492D01*
X96207334Y-115842916D01*
X96196213Y-115730000D01*
X96207334Y-115617084D01*
X96240271Y-115508508D01*
X96293756Y-115408443D01*
X96365736Y-115320736D01*
X96453443Y-115248756D01*
X96534857Y-115205240D01*
X96555232Y-115191627D01*
X96572559Y-115174299D01*
X96586173Y-115153925D01*
X96595550Y-115131286D01*
X96600331Y-115107253D01*
X96600331Y-115082748D01*
X96595551Y-115058715D01*
X96586173Y-115036076D01*
X96572560Y-115015701D01*
X96555232Y-114998374D01*
X96534857Y-114984760D01*
X96453443Y-114941244D01*
X96365736Y-114869264D01*
X96293756Y-114781557D01*
X96240274Y-114681497D01*
X96240271Y-114681492D01*
X96207334Y-114572916D01*
X96196213Y-114460000D01*
X96207334Y-114347084D01*
X96240271Y-114238508D01*
X96293756Y-114138443D01*
X96365736Y-114050736D01*
X96453443Y-113978756D01*
X96553508Y-113925271D01*
X96662084Y-113892334D01*
X96746702Y-113884000D01*
X97253298Y-113884000D01*
X97337916Y-113892334D01*
X97337916Y-113892334D01*
G37*
G36*
X93651000Y-115651000D02*
X91349000Y-115651000D01*
X91349000Y-113349000D01*
X93651000Y-113349000D01*
X93651000Y-115651000D01*
X93651000Y-115651000D01*
G37*
G36*
X82464180Y-113355662D02*
X82565635Y-113365654D01*
X82782600Y-113431470D01*
X82782602Y-113431471D01*
X82782605Y-113431472D01*
X82982556Y-113538347D01*
X83157818Y-113682182D01*
X83301653Y-113857444D01*
X83408528Y-114057395D01*
X83408529Y-114057398D01*
X83408530Y-114057400D01*
X83474346Y-114274365D01*
X83496569Y-114500000D01*
X83474346Y-114725635D01*
X83430776Y-114869264D01*
X83408528Y-114942605D01*
X83301653Y-115142556D01*
X83157818Y-115317818D01*
X82982556Y-115461653D01*
X82782605Y-115568528D01*
X82782602Y-115568529D01*
X82782600Y-115568530D01*
X82565635Y-115634346D01*
X82464180Y-115644338D01*
X82396545Y-115651000D01*
X82283455Y-115651000D01*
X82215820Y-115644338D01*
X82114365Y-115634346D01*
X81897400Y-115568530D01*
X81897398Y-115568529D01*
X81897395Y-115568528D01*
X81697444Y-115461653D01*
X81522182Y-115317818D01*
X81378347Y-115142556D01*
X81271472Y-114942605D01*
X81249224Y-114869264D01*
X81205654Y-114725635D01*
X81183431Y-114500000D01*
X81205654Y-114274365D01*
X81271470Y-114057400D01*
X81271471Y-114057398D01*
X81271472Y-114057395D01*
X81378347Y-113857444D01*
X81522182Y-113682182D01*
X81697444Y-113538347D01*
X81897395Y-113431472D01*
X81897398Y-113431471D01*
X81897400Y-113431470D01*
X82114365Y-113365654D01*
X82215820Y-113355662D01*
X82283455Y-113349000D01*
X82396545Y-113349000D01*
X82464180Y-113355662D01*
X82464180Y-113355662D01*
G37*
G36*
X79826821Y-113661313D02*
X79826824Y-113661314D01*
X79826825Y-113661314D01*
X79987239Y-113709975D01*
X79987241Y-113709976D01*
X79987244Y-113709977D01*
X80135078Y-113788995D01*
X80264659Y-113895341D01*
X80371005Y-114024922D01*
X80450023Y-114172756D01*
X80450024Y-114172759D01*
X80450025Y-114172761D01*
X80480846Y-114274365D01*
X80498687Y-114333179D01*
X80515117Y-114500000D01*
X80498687Y-114666821D01*
X80498686Y-114666824D01*
X80498686Y-114666825D01*
X80473993Y-114748228D01*
X80450023Y-114827244D01*
X80371005Y-114975078D01*
X80264659Y-115104659D01*
X80135078Y-115211005D01*
X79987244Y-115290023D01*
X79987241Y-115290024D01*
X79987239Y-115290025D01*
X79826825Y-115338686D01*
X79826824Y-115338686D01*
X79826821Y-115338687D01*
X79701804Y-115351000D01*
X79618196Y-115351000D01*
X79493179Y-115338687D01*
X79493176Y-115338686D01*
X79493175Y-115338686D01*
X79332761Y-115290025D01*
X79332759Y-115290024D01*
X79332756Y-115290023D01*
X79184922Y-115211005D01*
X79055341Y-115104659D01*
X78948995Y-114975078D01*
X78869977Y-114827244D01*
X78846008Y-114748228D01*
X78821314Y-114666825D01*
X78821314Y-114666824D01*
X78821313Y-114666821D01*
X78804883Y-114500000D01*
X78821313Y-114333179D01*
X78839154Y-114274365D01*
X78869975Y-114172761D01*
X78869976Y-114172759D01*
X78869977Y-114172756D01*
X78948995Y-114024922D01*
X79055341Y-113895341D01*
X79184922Y-113788995D01*
X79332756Y-113709977D01*
X79332759Y-113709976D01*
X79332761Y-113709975D01*
X79493175Y-113661314D01*
X79493176Y-113661314D01*
X79493179Y-113661313D01*
X79618196Y-113649000D01*
X79701804Y-113649000D01*
X79826821Y-113661313D01*
X79826821Y-113661313D01*
G37*
G36*
X69748228Y-113681703D02*
X69903100Y-113745853D01*
X70042481Y-113838985D01*
X70161015Y-113957519D01*
X70254147Y-114096900D01*
X70318297Y-114251772D01*
X70351000Y-114416184D01*
X70351000Y-114583816D01*
X70318297Y-114748228D01*
X70254147Y-114903100D01*
X70161015Y-115042481D01*
X70042481Y-115161015D01*
X69903100Y-115254147D01*
X69748228Y-115318297D01*
X69583816Y-115351000D01*
X69416184Y-115351000D01*
X69251772Y-115318297D01*
X69096900Y-115254147D01*
X68957519Y-115161015D01*
X68838985Y-115042481D01*
X68745853Y-114903100D01*
X68681703Y-114748228D01*
X68649000Y-114583816D01*
X68649000Y-114416184D01*
X68681703Y-114251772D01*
X68745853Y-114096900D01*
X68838985Y-113957519D01*
X68957519Y-113838985D01*
X69096900Y-113745853D01*
X69251772Y-113681703D01*
X69416184Y-113649000D01*
X69583816Y-113649000D01*
X69748228Y-113681703D01*
X69748228Y-113681703D01*
G37*
G36*
X79372694Y-108711991D02*
X79372697Y-108711992D01*
X79372698Y-108711992D01*
X79533112Y-108760653D01*
X79533114Y-108760654D01*
X79533117Y-108760655D01*
X79680951Y-108839673D01*
X79810532Y-108946019D01*
X79916878Y-109075600D01*
X79995896Y-109223434D01*
X79995897Y-109223437D01*
X79995898Y-109223439D01*
X80035785Y-109354930D01*
X80044560Y-109383857D01*
X80060990Y-109550678D01*
X80044560Y-109717499D01*
X80044559Y-109717502D01*
X80044559Y-109717503D01*
X80001076Y-109860849D01*
X79995896Y-109877922D01*
X79916878Y-110025756D01*
X79810532Y-110155337D01*
X79680951Y-110261683D01*
X79533117Y-110340701D01*
X79533114Y-110340702D01*
X79533112Y-110340703D01*
X79372698Y-110389364D01*
X79372697Y-110389364D01*
X79372694Y-110389365D01*
X79247677Y-110401678D01*
X79164069Y-110401678D01*
X79039052Y-110389365D01*
X79039049Y-110389364D01*
X79039048Y-110389364D01*
X78878634Y-110340703D01*
X78878632Y-110340702D01*
X78878629Y-110340701D01*
X78730795Y-110261683D01*
X78601214Y-110155337D01*
X78494868Y-110025756D01*
X78415850Y-109877922D01*
X78410671Y-109860849D01*
X78367187Y-109717503D01*
X78367187Y-109717502D01*
X78367186Y-109717499D01*
X78350756Y-109550678D01*
X78367186Y-109383857D01*
X78375961Y-109354930D01*
X78415848Y-109223439D01*
X78415849Y-109223437D01*
X78415850Y-109223434D01*
X78494868Y-109075600D01*
X78601214Y-108946019D01*
X78730795Y-108839673D01*
X78878629Y-108760655D01*
X78878632Y-108760654D01*
X78878634Y-108760653D01*
X79039048Y-108711992D01*
X79039049Y-108711992D01*
X79039052Y-108711991D01*
X79164069Y-108699678D01*
X79247677Y-108699678D01*
X79372694Y-108711991D01*
X79372694Y-108711991D01*
G37*
G36*
X82372694Y-108711991D02*
X82372697Y-108711992D01*
X82372698Y-108711992D01*
X82533112Y-108760653D01*
X82533114Y-108760654D01*
X82533117Y-108760655D01*
X82680951Y-108839673D01*
X82810532Y-108946019D01*
X82916878Y-109075600D01*
X82995896Y-109223434D01*
X82995897Y-109223437D01*
X82995898Y-109223439D01*
X83035785Y-109354930D01*
X83044560Y-109383857D01*
X83060990Y-109550678D01*
X83044560Y-109717499D01*
X83044559Y-109717502D01*
X83044559Y-109717503D01*
X83001076Y-109860849D01*
X82995896Y-109877922D01*
X82916878Y-110025756D01*
X82810532Y-110155337D01*
X82680951Y-110261683D01*
X82533117Y-110340701D01*
X82533114Y-110340702D01*
X82533112Y-110340703D01*
X82372698Y-110389364D01*
X82372697Y-110389364D01*
X82372694Y-110389365D01*
X82247677Y-110401678D01*
X82164069Y-110401678D01*
X82039052Y-110389365D01*
X82039049Y-110389364D01*
X82039048Y-110389364D01*
X81878634Y-110340703D01*
X81878632Y-110340702D01*
X81878629Y-110340701D01*
X81730795Y-110261683D01*
X81601214Y-110155337D01*
X81494868Y-110025756D01*
X81415850Y-109877922D01*
X81410671Y-109860849D01*
X81367187Y-109717503D01*
X81367187Y-109717502D01*
X81367186Y-109717499D01*
X81350756Y-109550678D01*
X81367186Y-109383857D01*
X81375961Y-109354930D01*
X81415848Y-109223439D01*
X81415849Y-109223437D01*
X81415850Y-109223434D01*
X81494868Y-109075600D01*
X81601214Y-108946019D01*
X81730795Y-108839673D01*
X81878629Y-108760655D01*
X81878632Y-108760654D01*
X81878634Y-108760653D01*
X82039048Y-108711992D01*
X82039049Y-108711992D01*
X82039052Y-108711991D01*
X82164069Y-108699678D01*
X82247677Y-108699678D01*
X82372694Y-108711991D01*
X82372694Y-108711991D01*
G37*
G36*
X97925911Y-108557855D02*
X97925914Y-108557856D01*
X97925915Y-108557856D01*
X98086329Y-108606517D01*
X98086331Y-108606518D01*
X98086334Y-108606519D01*
X98234168Y-108685537D01*
X98363749Y-108791883D01*
X98470095Y-108921464D01*
X98549113Y-109069298D01*
X98549114Y-109069301D01*
X98549115Y-109069303D01*
X98597155Y-109227670D01*
X98597777Y-109229721D01*
X98614207Y-109396542D01*
X98597777Y-109563363D01*
X98597776Y-109563366D01*
X98597776Y-109563367D01*
X98549959Y-109721000D01*
X98549113Y-109723786D01*
X98470095Y-109871620D01*
X98363749Y-110001201D01*
X98234168Y-110107547D01*
X98086334Y-110186565D01*
X98086331Y-110186566D01*
X98086329Y-110186567D01*
X97925915Y-110235228D01*
X97925914Y-110235228D01*
X97925911Y-110235229D01*
X97800894Y-110247542D01*
X97717286Y-110247542D01*
X97592269Y-110235229D01*
X97592266Y-110235228D01*
X97592265Y-110235228D01*
X97431851Y-110186567D01*
X97431849Y-110186566D01*
X97431846Y-110186565D01*
X97284012Y-110107547D01*
X97154431Y-110001201D01*
X97048085Y-109871620D01*
X96969067Y-109723786D01*
X96968222Y-109721000D01*
X96920404Y-109563367D01*
X96920404Y-109563366D01*
X96920403Y-109563363D01*
X96903973Y-109396542D01*
X96920403Y-109229721D01*
X96921025Y-109227670D01*
X96969065Y-109069303D01*
X96969066Y-109069301D01*
X96969067Y-109069298D01*
X97048085Y-108921464D01*
X97154431Y-108791883D01*
X97284012Y-108685537D01*
X97431846Y-108606519D01*
X97431849Y-108606518D01*
X97431851Y-108606517D01*
X97592265Y-108557856D01*
X97592266Y-108557856D01*
X97592269Y-108557855D01*
X97717286Y-108545542D01*
X97800894Y-108545542D01*
X97925911Y-108557855D01*
X97925911Y-108557855D01*
G37*
G36*
X85454101Y-108572381D02*
X85608973Y-108636531D01*
X85748354Y-108729663D01*
X85866888Y-108848197D01*
X85960020Y-108987578D01*
X86024170Y-109142450D01*
X86056873Y-109306862D01*
X86056873Y-109474494D01*
X86024170Y-109638906D01*
X85960020Y-109793778D01*
X85866888Y-109933159D01*
X85748354Y-110051693D01*
X85608973Y-110144825D01*
X85454101Y-110208975D01*
X85289689Y-110241678D01*
X85122057Y-110241678D01*
X84957645Y-110208975D01*
X84802773Y-110144825D01*
X84663392Y-110051693D01*
X84544858Y-109933159D01*
X84451726Y-109793778D01*
X84387576Y-109638906D01*
X84354873Y-109474494D01*
X84354873Y-109306862D01*
X84387576Y-109142450D01*
X84451726Y-108987578D01*
X84544858Y-108848197D01*
X84663392Y-108729663D01*
X84802773Y-108636531D01*
X84957645Y-108572381D01*
X85122057Y-108539678D01*
X85289689Y-108539678D01*
X85454101Y-108572381D01*
X85454101Y-108572381D01*
G37*
G36*
X91721619Y-108493189D02*
X91876491Y-108557339D01*
X92015872Y-108650471D01*
X92134406Y-108769005D01*
X92227538Y-108908386D01*
X92291688Y-109063258D01*
X92324391Y-109227670D01*
X92324391Y-109395302D01*
X92291688Y-109559714D01*
X92227538Y-109714586D01*
X92134406Y-109853967D01*
X92015872Y-109972501D01*
X91876491Y-110065633D01*
X91721619Y-110129783D01*
X91557207Y-110162486D01*
X91389575Y-110162486D01*
X91225163Y-110129783D01*
X91070291Y-110065633D01*
X90930910Y-109972501D01*
X90812376Y-109853967D01*
X90719244Y-109714586D01*
X90655094Y-109559714D01*
X90622391Y-109395302D01*
X90622391Y-109227670D01*
X90655094Y-109063258D01*
X90719244Y-108908386D01*
X90812376Y-108769005D01*
X90930910Y-108650471D01*
X91070291Y-108557339D01*
X91225163Y-108493189D01*
X91389575Y-108460486D01*
X91557207Y-108460486D01*
X91721619Y-108493189D01*
X91721619Y-108493189D01*
G37*
G36*
X94721619Y-108493189D02*
X94876491Y-108557339D01*
X95015872Y-108650471D01*
X95134406Y-108769005D01*
X95227538Y-108908386D01*
X95291688Y-109063258D01*
X95324391Y-109227670D01*
X95324391Y-109395302D01*
X95291688Y-109559714D01*
X95227538Y-109714586D01*
X95134406Y-109853967D01*
X95015872Y-109972501D01*
X94876491Y-110065633D01*
X94721619Y-110129783D01*
X94557207Y-110162486D01*
X94389575Y-110162486D01*
X94225163Y-110129783D01*
X94070291Y-110065633D01*
X93930910Y-109972501D01*
X93812376Y-109853967D01*
X93719244Y-109714586D01*
X93655094Y-109559714D01*
X93622391Y-109395302D01*
X93622391Y-109227670D01*
X93655094Y-109063258D01*
X93719244Y-108908386D01*
X93812376Y-108769005D01*
X93930910Y-108650471D01*
X94070291Y-108557339D01*
X94225163Y-108493189D01*
X94389575Y-108460486D01*
X94557207Y-108460486D01*
X94721619Y-108493189D01*
X94721619Y-108493189D01*
G37*
G36*
X69561047Y-108339790D02*
X69561050Y-108339791D01*
X69561051Y-108339791D01*
X69721465Y-108388452D01*
X69721467Y-108388453D01*
X69721470Y-108388454D01*
X69869304Y-108467472D01*
X69998885Y-108573818D01*
X70105231Y-108703399D01*
X70184249Y-108851233D01*
X70184250Y-108851236D01*
X70184251Y-108851238D01*
X70228354Y-108996627D01*
X70232913Y-109011656D01*
X70249343Y-109178477D01*
X70232913Y-109345298D01*
X70232912Y-109345301D01*
X70232912Y-109345302D01*
X70198063Y-109460185D01*
X70184249Y-109505721D01*
X70105231Y-109653555D01*
X69998885Y-109783136D01*
X69869304Y-109889482D01*
X69721470Y-109968500D01*
X69721467Y-109968501D01*
X69721465Y-109968502D01*
X69561051Y-110017163D01*
X69561050Y-110017163D01*
X69561047Y-110017164D01*
X69436030Y-110029477D01*
X69352422Y-110029477D01*
X69227405Y-110017164D01*
X69227402Y-110017163D01*
X69227401Y-110017163D01*
X69066987Y-109968502D01*
X69066985Y-109968501D01*
X69066982Y-109968500D01*
X68919148Y-109889482D01*
X68789567Y-109783136D01*
X68683221Y-109653555D01*
X68604203Y-109505721D01*
X68590390Y-109460185D01*
X68555540Y-109345302D01*
X68555540Y-109345301D01*
X68555539Y-109345298D01*
X68539109Y-109178477D01*
X68555539Y-109011656D01*
X68560098Y-108996627D01*
X68604201Y-108851238D01*
X68604202Y-108851236D01*
X68604203Y-108851233D01*
X68683221Y-108703399D01*
X68789567Y-108573818D01*
X68919148Y-108467472D01*
X69066982Y-108388454D01*
X69066985Y-108388453D01*
X69066987Y-108388452D01*
X69227401Y-108339791D01*
X69227402Y-108339791D01*
X69227405Y-108339790D01*
X69352422Y-108327477D01*
X69436030Y-108327477D01*
X69561047Y-108339790D01*
X69561047Y-108339790D01*
G37*
G36*
X73061047Y-108339790D02*
X73061050Y-108339791D01*
X73061051Y-108339791D01*
X73221465Y-108388452D01*
X73221467Y-108388453D01*
X73221470Y-108388454D01*
X73369304Y-108467472D01*
X73498885Y-108573818D01*
X73605231Y-108703399D01*
X73684249Y-108851233D01*
X73684250Y-108851236D01*
X73684251Y-108851238D01*
X73728354Y-108996627D01*
X73732913Y-109011656D01*
X73749343Y-109178477D01*
X73732913Y-109345298D01*
X73732912Y-109345301D01*
X73732912Y-109345302D01*
X73698063Y-109460185D01*
X73684249Y-109505721D01*
X73605231Y-109653555D01*
X73498885Y-109783136D01*
X73369304Y-109889482D01*
X73221470Y-109968500D01*
X73221467Y-109968501D01*
X73221465Y-109968502D01*
X73061051Y-110017163D01*
X73061050Y-110017163D01*
X73061047Y-110017164D01*
X72936030Y-110029477D01*
X72852422Y-110029477D01*
X72727405Y-110017164D01*
X72727402Y-110017163D01*
X72727401Y-110017163D01*
X72566987Y-109968502D01*
X72566985Y-109968501D01*
X72566982Y-109968500D01*
X72419148Y-109889482D01*
X72289567Y-109783136D01*
X72183221Y-109653555D01*
X72104203Y-109505721D01*
X72090390Y-109460185D01*
X72055540Y-109345302D01*
X72055540Y-109345301D01*
X72055539Y-109345298D01*
X72039109Y-109178477D01*
X72055539Y-109011656D01*
X72060098Y-108996627D01*
X72104201Y-108851238D01*
X72104202Y-108851236D01*
X72104203Y-108851233D01*
X72183221Y-108703399D01*
X72289567Y-108573818D01*
X72419148Y-108467472D01*
X72566982Y-108388454D01*
X72566985Y-108388453D01*
X72566987Y-108388452D01*
X72727401Y-108339791D01*
X72727402Y-108339791D01*
X72727405Y-108339790D01*
X72852422Y-108327477D01*
X72936030Y-108327477D01*
X73061047Y-108339790D01*
X73061047Y-108339790D01*
G37*
G36*
X88680062Y-108288405D02*
X88834934Y-108352555D01*
X88974315Y-108445687D01*
X89092849Y-108564221D01*
X89185981Y-108703602D01*
X89250131Y-108858474D01*
X89282834Y-109022886D01*
X89282834Y-109190518D01*
X89250131Y-109354930D01*
X89185981Y-109509802D01*
X89092849Y-109649183D01*
X88974315Y-109767717D01*
X88834934Y-109860849D01*
X88680062Y-109924999D01*
X88515650Y-109957702D01*
X88348018Y-109957702D01*
X88183606Y-109924999D01*
X88028734Y-109860849D01*
X87889353Y-109767717D01*
X87770819Y-109649183D01*
X87677687Y-109509802D01*
X87613537Y-109354930D01*
X87580834Y-109190518D01*
X87580834Y-109022886D01*
X87613537Y-108858474D01*
X87677687Y-108703602D01*
X87770819Y-108564221D01*
X87889353Y-108445687D01*
X88028734Y-108352555D01*
X88183606Y-108288405D01*
X88348018Y-108255702D01*
X88515650Y-108255702D01*
X88680062Y-108288405D01*
X88680062Y-108288405D01*
G37*
G36*
X63610443Y-107925519D02*
X63676627Y-107932037D01*
X63789853Y-107966384D01*
X63846467Y-107983557D01*
X63985087Y-108057652D01*
X64002991Y-108067222D01*
X64038729Y-108096552D01*
X64140186Y-108179814D01*
X64223448Y-108281271D01*
X64252778Y-108317009D01*
X64252779Y-108317011D01*
X64336443Y-108473533D01*
X64336443Y-108473534D01*
X64387963Y-108643373D01*
X64405359Y-108820000D01*
X64387963Y-108996627D01*
X64365917Y-109069303D01*
X64336443Y-109166467D01*
X64262348Y-109305087D01*
X64252778Y-109322991D01*
X64226566Y-109354930D01*
X64140186Y-109460186D01*
X64038729Y-109543448D01*
X64002991Y-109572778D01*
X64002989Y-109572779D01*
X63846467Y-109656443D01*
X63789853Y-109673616D01*
X63676627Y-109707963D01*
X63610443Y-109714481D01*
X63544260Y-109721000D01*
X63455740Y-109721000D01*
X63389557Y-109714481D01*
X63323373Y-109707963D01*
X63210147Y-109673616D01*
X63153533Y-109656443D01*
X62997011Y-109572779D01*
X62997009Y-109572778D01*
X62961271Y-109543448D01*
X62859814Y-109460186D01*
X62773434Y-109354930D01*
X62747222Y-109322991D01*
X62737652Y-109305087D01*
X62663557Y-109166467D01*
X62634083Y-109069303D01*
X62612037Y-108996627D01*
X62594641Y-108820000D01*
X62612037Y-108643373D01*
X62663557Y-108473534D01*
X62663557Y-108473533D01*
X62747221Y-108317011D01*
X62747222Y-108317009D01*
X62776552Y-108281271D01*
X62859814Y-108179814D01*
X62961271Y-108096552D01*
X62997009Y-108067222D01*
X63014913Y-108057652D01*
X63153533Y-107983557D01*
X63210147Y-107966384D01*
X63323373Y-107932037D01*
X63389557Y-107925519D01*
X63455740Y-107919000D01*
X63544260Y-107919000D01*
X63610443Y-107925519D01*
X63610443Y-107925519D01*
G37*
G36*
X63610443Y-105385519D02*
X63676627Y-105392037D01*
X63789853Y-105426384D01*
X63846467Y-105443557D01*
X63985087Y-105517652D01*
X64002991Y-105527222D01*
X64038729Y-105556552D01*
X64140186Y-105639814D01*
X64223448Y-105741271D01*
X64252778Y-105777009D01*
X64252779Y-105777011D01*
X64336443Y-105933533D01*
X64336443Y-105933534D01*
X64387963Y-106103373D01*
X64405359Y-106280000D01*
X64387963Y-106456627D01*
X64353616Y-106569853D01*
X64336443Y-106626467D01*
X64262348Y-106765087D01*
X64252778Y-106782991D01*
X64223448Y-106818729D01*
X64140186Y-106920186D01*
X64038729Y-107003448D01*
X64002991Y-107032778D01*
X64002989Y-107032779D01*
X63846467Y-107116443D01*
X63789853Y-107133616D01*
X63676627Y-107167963D01*
X63610442Y-107174482D01*
X63544260Y-107181000D01*
X63455740Y-107181000D01*
X63389558Y-107174482D01*
X63323373Y-107167963D01*
X63210147Y-107133616D01*
X63153533Y-107116443D01*
X62997011Y-107032779D01*
X62997009Y-107032778D01*
X62961271Y-107003448D01*
X62859814Y-106920186D01*
X62776552Y-106818729D01*
X62747222Y-106782991D01*
X62737652Y-106765087D01*
X62663557Y-106626467D01*
X62646384Y-106569853D01*
X62612037Y-106456627D01*
X62594641Y-106280000D01*
X62612037Y-106103373D01*
X62663557Y-105933534D01*
X62663557Y-105933533D01*
X62747221Y-105777011D01*
X62747222Y-105777009D01*
X62776552Y-105741271D01*
X62859814Y-105639814D01*
X62961271Y-105556552D01*
X62997009Y-105527222D01*
X63014913Y-105517652D01*
X63153533Y-105443557D01*
X63210147Y-105426384D01*
X63323373Y-105392037D01*
X63389557Y-105385519D01*
X63455740Y-105379000D01*
X63544260Y-105379000D01*
X63610443Y-105385519D01*
X63610443Y-105385519D01*
G37*
G36*
X63610443Y-102845519D02*
X63676627Y-102852037D01*
X63789853Y-102886384D01*
X63846467Y-102903557D01*
X63985087Y-102977652D01*
X64002991Y-102987222D01*
X64038729Y-103016552D01*
X64140186Y-103099814D01*
X64223448Y-103201271D01*
X64252778Y-103237009D01*
X64252779Y-103237011D01*
X64336443Y-103393533D01*
X64336443Y-103393534D01*
X64387963Y-103563373D01*
X64405359Y-103740000D01*
X64387963Y-103916627D01*
X64353616Y-104029853D01*
X64336443Y-104086467D01*
X64262348Y-104225087D01*
X64252778Y-104242991D01*
X64223448Y-104278729D01*
X64140186Y-104380186D01*
X64038729Y-104463448D01*
X64002991Y-104492778D01*
X64002989Y-104492779D01*
X63846467Y-104576443D01*
X63789853Y-104593616D01*
X63676627Y-104627963D01*
X63610443Y-104634481D01*
X63544260Y-104641000D01*
X63455740Y-104641000D01*
X63389557Y-104634481D01*
X63323373Y-104627963D01*
X63210147Y-104593616D01*
X63153533Y-104576443D01*
X62997011Y-104492779D01*
X62997009Y-104492778D01*
X62961271Y-104463448D01*
X62859814Y-104380186D01*
X62776552Y-104278729D01*
X62747222Y-104242991D01*
X62737652Y-104225087D01*
X62663557Y-104086467D01*
X62646384Y-104029853D01*
X62612037Y-103916627D01*
X62594641Y-103740000D01*
X62612037Y-103563373D01*
X62663557Y-103393534D01*
X62663557Y-103393533D01*
X62747221Y-103237011D01*
X62747222Y-103237009D01*
X62776552Y-103201271D01*
X62859814Y-103099814D01*
X62961271Y-103016552D01*
X62997009Y-102987222D01*
X63014913Y-102977652D01*
X63153533Y-102903557D01*
X63210147Y-102886384D01*
X63323373Y-102852037D01*
X63389558Y-102845518D01*
X63455740Y-102839000D01*
X63544260Y-102839000D01*
X63610443Y-102845519D01*
X63610443Y-102845519D01*
G37*
G36*
X63610442Y-100305518D02*
X63676627Y-100312037D01*
X63789853Y-100346384D01*
X63846467Y-100363557D01*
X63985087Y-100437652D01*
X64002991Y-100447222D01*
X64038729Y-100476552D01*
X64140186Y-100559814D01*
X64223448Y-100661271D01*
X64252778Y-100697009D01*
X64252779Y-100697011D01*
X64336443Y-100853533D01*
X64336443Y-100853534D01*
X64387963Y-101023373D01*
X64405359Y-101200000D01*
X64387963Y-101376627D01*
X64353616Y-101489853D01*
X64336443Y-101546467D01*
X64262348Y-101685087D01*
X64252778Y-101702991D01*
X64223448Y-101738729D01*
X64140186Y-101840186D01*
X64038729Y-101923448D01*
X64002991Y-101952778D01*
X64002989Y-101952779D01*
X63846467Y-102036443D01*
X63789853Y-102053616D01*
X63676627Y-102087963D01*
X63610443Y-102094481D01*
X63544260Y-102101000D01*
X63455740Y-102101000D01*
X63389558Y-102094482D01*
X63323373Y-102087963D01*
X63210147Y-102053616D01*
X63153533Y-102036443D01*
X62997011Y-101952779D01*
X62997009Y-101952778D01*
X62961271Y-101923448D01*
X62859814Y-101840186D01*
X62776552Y-101738729D01*
X62747222Y-101702991D01*
X62737652Y-101685087D01*
X62663557Y-101546467D01*
X62646384Y-101489853D01*
X62612037Y-101376627D01*
X62594641Y-101200000D01*
X62612037Y-101023373D01*
X62663557Y-100853534D01*
X62663557Y-100853533D01*
X62747221Y-100697011D01*
X62747222Y-100697009D01*
X62776552Y-100661271D01*
X62859814Y-100559814D01*
X62961271Y-100476552D01*
X62997009Y-100447222D01*
X63014913Y-100437652D01*
X63153533Y-100363557D01*
X63210147Y-100346384D01*
X63323373Y-100312037D01*
X63389558Y-100305518D01*
X63455740Y-100299000D01*
X63544260Y-100299000D01*
X63610442Y-100305518D01*
X63610442Y-100305518D01*
G37*
G36*
X79454101Y-98572381D02*
X79608973Y-98636531D01*
X79748354Y-98729663D01*
X79866888Y-98848197D01*
X79960020Y-98987578D01*
X80024170Y-99142450D01*
X80056873Y-99306862D01*
X80056873Y-99474494D01*
X80024170Y-99638906D01*
X79960020Y-99793778D01*
X79866888Y-99933159D01*
X79748354Y-100051693D01*
X79608973Y-100144825D01*
X79454101Y-100208975D01*
X79289689Y-100241678D01*
X79122057Y-100241678D01*
X78957645Y-100208975D01*
X78802773Y-100144825D01*
X78663392Y-100051693D01*
X78544858Y-99933159D01*
X78451726Y-99793778D01*
X78387576Y-99638906D01*
X78354873Y-99474494D01*
X78354873Y-99306862D01*
X78387576Y-99142450D01*
X78451726Y-98987578D01*
X78544858Y-98848197D01*
X78663392Y-98729663D01*
X78802773Y-98636531D01*
X78957645Y-98572381D01*
X79122057Y-98539678D01*
X79289689Y-98539678D01*
X79454101Y-98572381D01*
X79454101Y-98572381D01*
G37*
G36*
X82454101Y-98572381D02*
X82608973Y-98636531D01*
X82748354Y-98729663D01*
X82866888Y-98848197D01*
X82960020Y-98987578D01*
X83024170Y-99142450D01*
X83056873Y-99306862D01*
X83056873Y-99474494D01*
X83024170Y-99638906D01*
X82960020Y-99793778D01*
X82866888Y-99933159D01*
X82748354Y-100051693D01*
X82608973Y-100144825D01*
X82454101Y-100208975D01*
X82289689Y-100241678D01*
X82122057Y-100241678D01*
X81957645Y-100208975D01*
X81802773Y-100144825D01*
X81663392Y-100051693D01*
X81544858Y-99933159D01*
X81451726Y-99793778D01*
X81387576Y-99638906D01*
X81354873Y-99474494D01*
X81354873Y-99306862D01*
X81387576Y-99142450D01*
X81451726Y-98987578D01*
X81544858Y-98848197D01*
X81663392Y-98729663D01*
X81802773Y-98636531D01*
X81957645Y-98572381D01*
X82122057Y-98539678D01*
X82289689Y-98539678D01*
X82454101Y-98572381D01*
X82454101Y-98572381D01*
G37*
G36*
X98007318Y-98418245D02*
X98162190Y-98482395D01*
X98301571Y-98575527D01*
X98420105Y-98694061D01*
X98513237Y-98833442D01*
X98577387Y-98988314D01*
X98610090Y-99152726D01*
X98610090Y-99320358D01*
X98577387Y-99484770D01*
X98513237Y-99639642D01*
X98420105Y-99779023D01*
X98301571Y-99897557D01*
X98162190Y-99990689D01*
X98007318Y-100054839D01*
X97842906Y-100087542D01*
X97675274Y-100087542D01*
X97510862Y-100054839D01*
X97355990Y-99990689D01*
X97216609Y-99897557D01*
X97098075Y-99779023D01*
X97004943Y-99639642D01*
X96940793Y-99484770D01*
X96908090Y-99320358D01*
X96908090Y-99152726D01*
X96940793Y-98988314D01*
X97004943Y-98833442D01*
X97098075Y-98694061D01*
X97216609Y-98575527D01*
X97355990Y-98482395D01*
X97510862Y-98418245D01*
X97675274Y-98385542D01*
X97842906Y-98385542D01*
X98007318Y-98418245D01*
X98007318Y-98418245D01*
G37*
G36*
X85372694Y-98391991D02*
X85372697Y-98391992D01*
X85372698Y-98391992D01*
X85533112Y-98440653D01*
X85533114Y-98440654D01*
X85533117Y-98440655D01*
X85680951Y-98519673D01*
X85810532Y-98626019D01*
X85916878Y-98755600D01*
X85995896Y-98903434D01*
X85995897Y-98903437D01*
X85995898Y-98903439D01*
X86023119Y-98993175D01*
X86044560Y-99063857D01*
X86060990Y-99230678D01*
X86044560Y-99397499D01*
X86044559Y-99397502D01*
X86044559Y-99397503D01*
X85998918Y-99547963D01*
X85995896Y-99557922D01*
X85916878Y-99705756D01*
X85810532Y-99835337D01*
X85680951Y-99941683D01*
X85533117Y-100020701D01*
X85533114Y-100020702D01*
X85533112Y-100020703D01*
X85372698Y-100069364D01*
X85372697Y-100069364D01*
X85372694Y-100069365D01*
X85247677Y-100081678D01*
X85164069Y-100081678D01*
X85039052Y-100069365D01*
X85039049Y-100069364D01*
X85039048Y-100069364D01*
X84878634Y-100020703D01*
X84878632Y-100020702D01*
X84878629Y-100020701D01*
X84730795Y-99941683D01*
X84601214Y-99835337D01*
X84494868Y-99705756D01*
X84415850Y-99557922D01*
X84412829Y-99547963D01*
X84367187Y-99397503D01*
X84367187Y-99397502D01*
X84367186Y-99397499D01*
X84350756Y-99230678D01*
X84367186Y-99063857D01*
X84388627Y-98993175D01*
X84415848Y-98903439D01*
X84415849Y-98903437D01*
X84415850Y-98903434D01*
X84494868Y-98755600D01*
X84601214Y-98626019D01*
X84730795Y-98519673D01*
X84878629Y-98440655D01*
X84878632Y-98440654D01*
X84878634Y-98440653D01*
X85039048Y-98391992D01*
X85039049Y-98391992D01*
X85039052Y-98391991D01*
X85164069Y-98379678D01*
X85247677Y-98379678D01*
X85372694Y-98391991D01*
X85372694Y-98391991D01*
G37*
G36*
X76166821Y-98321313D02*
X76166824Y-98321314D01*
X76166825Y-98321314D01*
X76327239Y-98369975D01*
X76327241Y-98369976D01*
X76327244Y-98369977D01*
X76475078Y-98448995D01*
X76604659Y-98555341D01*
X76711005Y-98684922D01*
X76790023Y-98832756D01*
X76790024Y-98832759D01*
X76790025Y-98832761D01*
X76836988Y-98987578D01*
X76838687Y-98993179D01*
X76855117Y-99160000D01*
X76838687Y-99326821D01*
X76838686Y-99326824D01*
X76838686Y-99326825D01*
X76790774Y-99484770D01*
X76790023Y-99487244D01*
X76711005Y-99635078D01*
X76604659Y-99764659D01*
X76475078Y-99871005D01*
X76327244Y-99950023D01*
X76327241Y-99950024D01*
X76327239Y-99950025D01*
X76166825Y-99998686D01*
X76166824Y-99998686D01*
X76166821Y-99998687D01*
X76041804Y-100011000D01*
X75958196Y-100011000D01*
X75833179Y-99998687D01*
X75833176Y-99998686D01*
X75833175Y-99998686D01*
X75672761Y-99950025D01*
X75672759Y-99950024D01*
X75672756Y-99950023D01*
X75524922Y-99871005D01*
X75395341Y-99764659D01*
X75288995Y-99635078D01*
X75209977Y-99487244D01*
X75209227Y-99484770D01*
X75161314Y-99326825D01*
X75161314Y-99326824D01*
X75161313Y-99326821D01*
X75144883Y-99160000D01*
X75161313Y-98993179D01*
X75163012Y-98987578D01*
X75209975Y-98832761D01*
X75209976Y-98832759D01*
X75209977Y-98832756D01*
X75288995Y-98684922D01*
X75395341Y-98555341D01*
X75524922Y-98448995D01*
X75672756Y-98369977D01*
X75672759Y-98369976D01*
X75672761Y-98369975D01*
X75833175Y-98321314D01*
X75833176Y-98321314D01*
X75833179Y-98321313D01*
X75958196Y-98309000D01*
X76041804Y-98309000D01*
X76166821Y-98321313D01*
X76166821Y-98321313D01*
G37*
G36*
X91640212Y-98312799D02*
X91640215Y-98312800D01*
X91640216Y-98312800D01*
X91800630Y-98361461D01*
X91800632Y-98361462D01*
X91800635Y-98361463D01*
X91948469Y-98440481D01*
X92078050Y-98546827D01*
X92184396Y-98676408D01*
X92263414Y-98824242D01*
X92263415Y-98824245D01*
X92263416Y-98824247D01*
X92298492Y-98939877D01*
X92312078Y-98984665D01*
X92328508Y-99151486D01*
X92312078Y-99318307D01*
X92312077Y-99318310D01*
X92312077Y-99318311D01*
X92277000Y-99433946D01*
X92263414Y-99478730D01*
X92184396Y-99626564D01*
X92078050Y-99756145D01*
X91948469Y-99862491D01*
X91800635Y-99941509D01*
X91800632Y-99941510D01*
X91800630Y-99941511D01*
X91640216Y-99990172D01*
X91640215Y-99990172D01*
X91640212Y-99990173D01*
X91515195Y-100002486D01*
X91431587Y-100002486D01*
X91306570Y-99990173D01*
X91306567Y-99990172D01*
X91306566Y-99990172D01*
X91146152Y-99941511D01*
X91146150Y-99941510D01*
X91146147Y-99941509D01*
X90998313Y-99862491D01*
X90868732Y-99756145D01*
X90762386Y-99626564D01*
X90683368Y-99478730D01*
X90669783Y-99433946D01*
X90634705Y-99318311D01*
X90634705Y-99318310D01*
X90634704Y-99318307D01*
X90618274Y-99151486D01*
X90634704Y-98984665D01*
X90648290Y-98939877D01*
X90683366Y-98824247D01*
X90683367Y-98824245D01*
X90683368Y-98824242D01*
X90762386Y-98676408D01*
X90868732Y-98546827D01*
X90998313Y-98440481D01*
X91146147Y-98361463D01*
X91146150Y-98361462D01*
X91146152Y-98361461D01*
X91306566Y-98312800D01*
X91306567Y-98312800D01*
X91306570Y-98312799D01*
X91431587Y-98300486D01*
X91515195Y-98300486D01*
X91640212Y-98312799D01*
X91640212Y-98312799D01*
G37*
G36*
X94640212Y-98312799D02*
X94640215Y-98312800D01*
X94640216Y-98312800D01*
X94800630Y-98361461D01*
X94800632Y-98361462D01*
X94800635Y-98361463D01*
X94948469Y-98440481D01*
X95078050Y-98546827D01*
X95184396Y-98676408D01*
X95263414Y-98824242D01*
X95263415Y-98824245D01*
X95263416Y-98824247D01*
X95298492Y-98939877D01*
X95312078Y-98984665D01*
X95328508Y-99151486D01*
X95312078Y-99318307D01*
X95312077Y-99318310D01*
X95312077Y-99318311D01*
X95277000Y-99433946D01*
X95263414Y-99478730D01*
X95184396Y-99626564D01*
X95078050Y-99756145D01*
X94948469Y-99862491D01*
X94800635Y-99941509D01*
X94800632Y-99941510D01*
X94800630Y-99941511D01*
X94640216Y-99990172D01*
X94640215Y-99990172D01*
X94640212Y-99990173D01*
X94515195Y-100002486D01*
X94431587Y-100002486D01*
X94306570Y-99990173D01*
X94306567Y-99990172D01*
X94306566Y-99990172D01*
X94146152Y-99941511D01*
X94146150Y-99941510D01*
X94146147Y-99941509D01*
X93998313Y-99862491D01*
X93868732Y-99756145D01*
X93762386Y-99626564D01*
X93683368Y-99478730D01*
X93669783Y-99433946D01*
X93634705Y-99318311D01*
X93634705Y-99318310D01*
X93634704Y-99318307D01*
X93618274Y-99151486D01*
X93634704Y-98984665D01*
X93648290Y-98939877D01*
X93683366Y-98824247D01*
X93683367Y-98824245D01*
X93683368Y-98824242D01*
X93762386Y-98676408D01*
X93868732Y-98546827D01*
X93998313Y-98440481D01*
X94146147Y-98361463D01*
X94146150Y-98361462D01*
X94146152Y-98361461D01*
X94306566Y-98312800D01*
X94306567Y-98312800D01*
X94306570Y-98312799D01*
X94431587Y-98300486D01*
X94515195Y-98300486D01*
X94640212Y-98312799D01*
X94640212Y-98312799D01*
G37*
G36*
X88598655Y-98268015D02*
X88598658Y-98268016D01*
X88598659Y-98268016D01*
X88759073Y-98316677D01*
X88759075Y-98316678D01*
X88759078Y-98316679D01*
X88906912Y-98395697D01*
X89036493Y-98502043D01*
X89142839Y-98631624D01*
X89221857Y-98779458D01*
X89221858Y-98779461D01*
X89221859Y-98779463D01*
X89268938Y-98934661D01*
X89270521Y-98939881D01*
X89286951Y-99106702D01*
X89270521Y-99273523D01*
X89270520Y-99273526D01*
X89270520Y-99273527D01*
X89225610Y-99421577D01*
X89221857Y-99433946D01*
X89142839Y-99581780D01*
X89036493Y-99711361D01*
X88906912Y-99817707D01*
X88759078Y-99896725D01*
X88759075Y-99896726D01*
X88759073Y-99896727D01*
X88598659Y-99945388D01*
X88598658Y-99945388D01*
X88598655Y-99945389D01*
X88473638Y-99957702D01*
X88390030Y-99957702D01*
X88265013Y-99945389D01*
X88265010Y-99945388D01*
X88265009Y-99945388D01*
X88104595Y-99896727D01*
X88104593Y-99896726D01*
X88104590Y-99896725D01*
X87956756Y-99817707D01*
X87827175Y-99711361D01*
X87720829Y-99581780D01*
X87641811Y-99433946D01*
X87638059Y-99421577D01*
X87593148Y-99273527D01*
X87593148Y-99273526D01*
X87593147Y-99273523D01*
X87576717Y-99106702D01*
X87593147Y-98939881D01*
X87594730Y-98934661D01*
X87641809Y-98779463D01*
X87641810Y-98779461D01*
X87641811Y-98779458D01*
X87720829Y-98631624D01*
X87827175Y-98502043D01*
X87956756Y-98395697D01*
X88104590Y-98316679D01*
X88104593Y-98316678D01*
X88104595Y-98316677D01*
X88265009Y-98268016D01*
X88265010Y-98268016D01*
X88265013Y-98268015D01*
X88390030Y-98255702D01*
X88473638Y-98255702D01*
X88598655Y-98268015D01*
X88598655Y-98268015D01*
G37*
G36*
X73142454Y-98200180D02*
X73297326Y-98264330D01*
X73436707Y-98357462D01*
X73555241Y-98475996D01*
X73648373Y-98615377D01*
X73712523Y-98770249D01*
X73745226Y-98934661D01*
X73745226Y-99102293D01*
X73712523Y-99266705D01*
X73648373Y-99421577D01*
X73555241Y-99560958D01*
X73436707Y-99679492D01*
X73297326Y-99772624D01*
X73142454Y-99836774D01*
X72978042Y-99869477D01*
X72810410Y-99869477D01*
X72645998Y-99836774D01*
X72491126Y-99772624D01*
X72351745Y-99679492D01*
X72233211Y-99560958D01*
X72140079Y-99421577D01*
X72075929Y-99266705D01*
X72043226Y-99102293D01*
X72043226Y-98934661D01*
X72075929Y-98770249D01*
X72140079Y-98615377D01*
X72233211Y-98475996D01*
X72351745Y-98357462D01*
X72491126Y-98264330D01*
X72645998Y-98200180D01*
X72810410Y-98167477D01*
X72978042Y-98167477D01*
X73142454Y-98200180D01*
X73142454Y-98200180D01*
G37*
G36*
X69642454Y-98200180D02*
X69797326Y-98264330D01*
X69936707Y-98357462D01*
X70055241Y-98475996D01*
X70148373Y-98615377D01*
X70212523Y-98770249D01*
X70245226Y-98934661D01*
X70245226Y-99102293D01*
X70212523Y-99266705D01*
X70148373Y-99421577D01*
X70055241Y-99560958D01*
X69936707Y-99679492D01*
X69797326Y-99772624D01*
X69642454Y-99836774D01*
X69478042Y-99869477D01*
X69310410Y-99869477D01*
X69145998Y-99836774D01*
X68991126Y-99772624D01*
X68851745Y-99679492D01*
X68733211Y-99560958D01*
X68640079Y-99421577D01*
X68575929Y-99266705D01*
X68543226Y-99102293D01*
X68543226Y-98934661D01*
X68575929Y-98770249D01*
X68640079Y-98615377D01*
X68733211Y-98475996D01*
X68851745Y-98357462D01*
X68991126Y-98264330D01*
X69145998Y-98200180D01*
X69310410Y-98167477D01*
X69478042Y-98167477D01*
X69642454Y-98200180D01*
X69642454Y-98200180D01*
G37*
G36*
X63610442Y-97765518D02*
X63676627Y-97772037D01*
X63789853Y-97806384D01*
X63846467Y-97823557D01*
X63985087Y-97897652D01*
X64002991Y-97907222D01*
X64038729Y-97936552D01*
X64140186Y-98019814D01*
X64223448Y-98121271D01*
X64252778Y-98157009D01*
X64252779Y-98157011D01*
X64336443Y-98313533D01*
X64350982Y-98361463D01*
X64387963Y-98483373D01*
X64405359Y-98660000D01*
X64387963Y-98836627D01*
X64356641Y-98939881D01*
X64336443Y-99006467D01*
X64305769Y-99063853D01*
X64252778Y-99162991D01*
X64223448Y-99198729D01*
X64140186Y-99300186D01*
X64038729Y-99383448D01*
X64002991Y-99412778D01*
X64002989Y-99412779D01*
X63846467Y-99496443D01*
X63789853Y-99513616D01*
X63676627Y-99547963D01*
X63610443Y-99554481D01*
X63544260Y-99561000D01*
X63455740Y-99561000D01*
X63389557Y-99554481D01*
X63323373Y-99547963D01*
X63210147Y-99513616D01*
X63153533Y-99496443D01*
X62997011Y-99412779D01*
X62997009Y-99412778D01*
X62961271Y-99383448D01*
X62859814Y-99300186D01*
X62776552Y-99198729D01*
X62747222Y-99162991D01*
X62694231Y-99063853D01*
X62663557Y-99006467D01*
X62643359Y-98939881D01*
X62612037Y-98836627D01*
X62594641Y-98660000D01*
X62612037Y-98483373D01*
X62649018Y-98361463D01*
X62663557Y-98313533D01*
X62747221Y-98157011D01*
X62747222Y-98157009D01*
X62776552Y-98121271D01*
X62859814Y-98019814D01*
X62961271Y-97936552D01*
X62997009Y-97907222D01*
X63014913Y-97897652D01*
X63153533Y-97823557D01*
X63210147Y-97806384D01*
X63323373Y-97772037D01*
X63389558Y-97765518D01*
X63455740Y-97759000D01*
X63544260Y-97759000D01*
X63610442Y-97765518D01*
X63610442Y-97765518D01*
G37*
G36*
X63610443Y-95225519D02*
X63676627Y-95232037D01*
X63789853Y-95266384D01*
X63846467Y-95283557D01*
X63985087Y-95357652D01*
X64002991Y-95367222D01*
X64038729Y-95396552D01*
X64140186Y-95479814D01*
X64188532Y-95538725D01*
X64252778Y-95617009D01*
X64252779Y-95617011D01*
X64336443Y-95773533D01*
X64336443Y-95773534D01*
X64387963Y-95943373D01*
X64405359Y-96120000D01*
X64387963Y-96296627D01*
X64353616Y-96409853D01*
X64336443Y-96466467D01*
X64262348Y-96605087D01*
X64252778Y-96622991D01*
X64223448Y-96658729D01*
X64140186Y-96760186D01*
X64038729Y-96843448D01*
X64002991Y-96872778D01*
X64002989Y-96872779D01*
X63846467Y-96956443D01*
X63789853Y-96973616D01*
X63676627Y-97007963D01*
X63610442Y-97014482D01*
X63544260Y-97021000D01*
X63455740Y-97021000D01*
X63389558Y-97014482D01*
X63323373Y-97007963D01*
X63210147Y-96973616D01*
X63153533Y-96956443D01*
X62997011Y-96872779D01*
X62997009Y-96872778D01*
X62961271Y-96843448D01*
X62859814Y-96760186D01*
X62776552Y-96658729D01*
X62747222Y-96622991D01*
X62737652Y-96605087D01*
X62663557Y-96466467D01*
X62646384Y-96409853D01*
X62612037Y-96296627D01*
X62594641Y-96120000D01*
X62612037Y-95943373D01*
X62663557Y-95773534D01*
X62663557Y-95773533D01*
X62747221Y-95617011D01*
X62747222Y-95617009D01*
X62811468Y-95538725D01*
X62859814Y-95479814D01*
X62961271Y-95396552D01*
X62997009Y-95367222D01*
X63014913Y-95357652D01*
X63153533Y-95283557D01*
X63210147Y-95266384D01*
X63323373Y-95232037D01*
X63389557Y-95225519D01*
X63455740Y-95219000D01*
X63544260Y-95219000D01*
X63610443Y-95225519D01*
X63610443Y-95225519D01*
G37*
G36*
X93840211Y-93572799D02*
X93840214Y-93572800D01*
X93840215Y-93572800D01*
X94000629Y-93621461D01*
X94000631Y-93621462D01*
X94000634Y-93621463D01*
X94148469Y-93700481D01*
X94278050Y-93806827D01*
X94384396Y-93936408D01*
X94463414Y-94084242D01*
X94463414Y-94084243D01*
X94463416Y-94084247D01*
X94512077Y-94244661D01*
X94512078Y-94244665D01*
X94524391Y-94369682D01*
X94524391Y-95253289D01*
X94512078Y-95378306D01*
X94512077Y-95378308D01*
X94512077Y-95378311D01*
X94481286Y-95479814D01*
X94463414Y-95538730D01*
X94384396Y-95686564D01*
X94278050Y-95816145D01*
X94148469Y-95922491D01*
X94000635Y-96001509D01*
X94000632Y-96001510D01*
X94000630Y-96001511D01*
X93840216Y-96050172D01*
X93840215Y-96050172D01*
X93840212Y-96050173D01*
X93673391Y-96066603D01*
X93506571Y-96050173D01*
X93506568Y-96050172D01*
X93506567Y-96050172D01*
X93346153Y-96001511D01*
X93346151Y-96001510D01*
X93346148Y-96001509D01*
X93198314Y-95922491D01*
X93068733Y-95816145D01*
X92962387Y-95686564D01*
X92883369Y-95538730D01*
X92834705Y-95378307D01*
X92822391Y-95253289D01*
X92822391Y-94369683D01*
X92834704Y-94244666D01*
X92834705Y-94244662D01*
X92883366Y-94084248D01*
X92883367Y-94084246D01*
X92883368Y-94084243D01*
X92962386Y-93936408D01*
X93068732Y-93806827D01*
X93198313Y-93700481D01*
X93346147Y-93621463D01*
X93346150Y-93621462D01*
X93346152Y-93621461D01*
X93506566Y-93572800D01*
X93506567Y-93572800D01*
X93506570Y-93572799D01*
X93673391Y-93556369D01*
X93840211Y-93572799D01*
X93840211Y-93572799D01*
G37*
G36*
X96380211Y-93572799D02*
X96380214Y-93572800D01*
X96380215Y-93572800D01*
X96540629Y-93621461D01*
X96540631Y-93621462D01*
X96540634Y-93621463D01*
X96688469Y-93700481D01*
X96818050Y-93806827D01*
X96924396Y-93936408D01*
X97003414Y-94084242D01*
X97003414Y-94084243D01*
X97003416Y-94084247D01*
X97052077Y-94244661D01*
X97052078Y-94244665D01*
X97064391Y-94369682D01*
X97064391Y-95253289D01*
X97052078Y-95378306D01*
X97052077Y-95378308D01*
X97052077Y-95378311D01*
X97021286Y-95479814D01*
X97003414Y-95538730D01*
X96924396Y-95686564D01*
X96818050Y-95816145D01*
X96688469Y-95922491D01*
X96540635Y-96001509D01*
X96540632Y-96001510D01*
X96540630Y-96001511D01*
X96380216Y-96050172D01*
X96380215Y-96050172D01*
X96380212Y-96050173D01*
X96213391Y-96066603D01*
X96046571Y-96050173D01*
X96046568Y-96050172D01*
X96046567Y-96050172D01*
X95886153Y-96001511D01*
X95886151Y-96001510D01*
X95886148Y-96001509D01*
X95738314Y-95922491D01*
X95608733Y-95816145D01*
X95502387Y-95686564D01*
X95423369Y-95538730D01*
X95374705Y-95378307D01*
X95362391Y-95253289D01*
X95362391Y-94369683D01*
X95374704Y-94244666D01*
X95374705Y-94244662D01*
X95423366Y-94084248D01*
X95423367Y-94084246D01*
X95423368Y-94084243D01*
X95502386Y-93936408D01*
X95608732Y-93806827D01*
X95738313Y-93700481D01*
X95886147Y-93621463D01*
X95886150Y-93621462D01*
X95886152Y-93621461D01*
X96046566Y-93572800D01*
X96046567Y-93572800D01*
X96046570Y-93572799D01*
X96213391Y-93556369D01*
X96380211Y-93572799D01*
X96380211Y-93572799D01*
G37*
G36*
X91300211Y-93572799D02*
X91300214Y-93572800D01*
X91300215Y-93572800D01*
X91460629Y-93621461D01*
X91460631Y-93621462D01*
X91460634Y-93621463D01*
X91608469Y-93700481D01*
X91738050Y-93806827D01*
X91844396Y-93936408D01*
X91923414Y-94084242D01*
X91923414Y-94084243D01*
X91923416Y-94084247D01*
X91972077Y-94244661D01*
X91972078Y-94244665D01*
X91984391Y-94369682D01*
X91984391Y-95253289D01*
X91972078Y-95378306D01*
X91972077Y-95378308D01*
X91972077Y-95378311D01*
X91941286Y-95479814D01*
X91923414Y-95538730D01*
X91844396Y-95686564D01*
X91738050Y-95816145D01*
X91608469Y-95922491D01*
X91460635Y-96001509D01*
X91460632Y-96001510D01*
X91460630Y-96001511D01*
X91300216Y-96050172D01*
X91300215Y-96050172D01*
X91300212Y-96050173D01*
X91133391Y-96066603D01*
X90966571Y-96050173D01*
X90966568Y-96050172D01*
X90966567Y-96050172D01*
X90806153Y-96001511D01*
X90806151Y-96001510D01*
X90806148Y-96001509D01*
X90658314Y-95922491D01*
X90528733Y-95816145D01*
X90422387Y-95686564D01*
X90343369Y-95538730D01*
X90294705Y-95378307D01*
X90282391Y-95253289D01*
X90282391Y-94369683D01*
X90294704Y-94244666D01*
X90294705Y-94244662D01*
X90343366Y-94084248D01*
X90343367Y-94084246D01*
X90343368Y-94084243D01*
X90422386Y-93936408D01*
X90528732Y-93806827D01*
X90658313Y-93700481D01*
X90806147Y-93621463D01*
X90806150Y-93621462D01*
X90806152Y-93621461D01*
X90966566Y-93572800D01*
X90966567Y-93572800D01*
X90966570Y-93572799D01*
X91133391Y-93556369D01*
X91300211Y-93572799D01*
X91300211Y-93572799D01*
G37*
G36*
X88760211Y-93572799D02*
X88760214Y-93572800D01*
X88760215Y-93572800D01*
X88920629Y-93621461D01*
X88920631Y-93621462D01*
X88920634Y-93621463D01*
X89068469Y-93700481D01*
X89198050Y-93806827D01*
X89304396Y-93936408D01*
X89383414Y-94084242D01*
X89383414Y-94084243D01*
X89383416Y-94084247D01*
X89432077Y-94244661D01*
X89432078Y-94244665D01*
X89444391Y-94369682D01*
X89444391Y-95253289D01*
X89432078Y-95378306D01*
X89432077Y-95378308D01*
X89432077Y-95378311D01*
X89401286Y-95479814D01*
X89383414Y-95538730D01*
X89304396Y-95686564D01*
X89198050Y-95816145D01*
X89068469Y-95922491D01*
X88920635Y-96001509D01*
X88920632Y-96001510D01*
X88920630Y-96001511D01*
X88760216Y-96050172D01*
X88760215Y-96050172D01*
X88760212Y-96050173D01*
X88593391Y-96066603D01*
X88426571Y-96050173D01*
X88426568Y-96050172D01*
X88426567Y-96050172D01*
X88266153Y-96001511D01*
X88266151Y-96001510D01*
X88266148Y-96001509D01*
X88118314Y-95922491D01*
X87988733Y-95816145D01*
X87882387Y-95686564D01*
X87803369Y-95538730D01*
X87754705Y-95378307D01*
X87742391Y-95253289D01*
X87742391Y-94369683D01*
X87754704Y-94244666D01*
X87754705Y-94244662D01*
X87803366Y-94084248D01*
X87803367Y-94084246D01*
X87803368Y-94084243D01*
X87882386Y-93936408D01*
X87988732Y-93806827D01*
X88118313Y-93700481D01*
X88266147Y-93621463D01*
X88266150Y-93621462D01*
X88266152Y-93621461D01*
X88426566Y-93572800D01*
X88426567Y-93572800D01*
X88426570Y-93572799D01*
X88593391Y-93556369D01*
X88760211Y-93572799D01*
X88760211Y-93572799D01*
G37*
G36*
X83680211Y-93572799D02*
X83680214Y-93572800D01*
X83680215Y-93572800D01*
X83840629Y-93621461D01*
X83840631Y-93621462D01*
X83840634Y-93621463D01*
X83988469Y-93700481D01*
X84118050Y-93806827D01*
X84224396Y-93936408D01*
X84303414Y-94084242D01*
X84303414Y-94084243D01*
X84303416Y-94084247D01*
X84352077Y-94244661D01*
X84352078Y-94244665D01*
X84364391Y-94369682D01*
X84364391Y-95253289D01*
X84352078Y-95378306D01*
X84352077Y-95378308D01*
X84352077Y-95378311D01*
X84321286Y-95479814D01*
X84303414Y-95538730D01*
X84224396Y-95686564D01*
X84118050Y-95816145D01*
X83988469Y-95922491D01*
X83840635Y-96001509D01*
X83840632Y-96001510D01*
X83840630Y-96001511D01*
X83680216Y-96050172D01*
X83680215Y-96050172D01*
X83680212Y-96050173D01*
X83513391Y-96066603D01*
X83346571Y-96050173D01*
X83346568Y-96050172D01*
X83346567Y-96050172D01*
X83186153Y-96001511D01*
X83186151Y-96001510D01*
X83186148Y-96001509D01*
X83038314Y-95922491D01*
X82908733Y-95816145D01*
X82802387Y-95686564D01*
X82723369Y-95538730D01*
X82674705Y-95378307D01*
X82662391Y-95253289D01*
X82662391Y-94369683D01*
X82674704Y-94244666D01*
X82674705Y-94244662D01*
X82723366Y-94084248D01*
X82723367Y-94084246D01*
X82723368Y-94084243D01*
X82802386Y-93936408D01*
X82908732Y-93806827D01*
X83038313Y-93700481D01*
X83186147Y-93621463D01*
X83186150Y-93621462D01*
X83186152Y-93621461D01*
X83346566Y-93572800D01*
X83346567Y-93572800D01*
X83346570Y-93572799D01*
X83513391Y-93556369D01*
X83680211Y-93572799D01*
X83680211Y-93572799D01*
G37*
G36*
X86220211Y-93572799D02*
X86220214Y-93572800D01*
X86220215Y-93572800D01*
X86380629Y-93621461D01*
X86380631Y-93621462D01*
X86380634Y-93621463D01*
X86528469Y-93700481D01*
X86658050Y-93806827D01*
X86764396Y-93936408D01*
X86843414Y-94084242D01*
X86843414Y-94084243D01*
X86843416Y-94084247D01*
X86892077Y-94244661D01*
X86892078Y-94244665D01*
X86904391Y-94369682D01*
X86904391Y-95253289D01*
X86892078Y-95378306D01*
X86892077Y-95378308D01*
X86892077Y-95378311D01*
X86861286Y-95479814D01*
X86843414Y-95538730D01*
X86764396Y-95686564D01*
X86658050Y-95816145D01*
X86528469Y-95922491D01*
X86380635Y-96001509D01*
X86380632Y-96001510D01*
X86380630Y-96001511D01*
X86220216Y-96050172D01*
X86220215Y-96050172D01*
X86220212Y-96050173D01*
X86053391Y-96066603D01*
X85886571Y-96050173D01*
X85886568Y-96050172D01*
X85886567Y-96050172D01*
X85726153Y-96001511D01*
X85726151Y-96001510D01*
X85726148Y-96001509D01*
X85578314Y-95922491D01*
X85448733Y-95816145D01*
X85342387Y-95686564D01*
X85263369Y-95538730D01*
X85214705Y-95378307D01*
X85202391Y-95253289D01*
X85202391Y-94369683D01*
X85214704Y-94244666D01*
X85214705Y-94244662D01*
X85263366Y-94084248D01*
X85263367Y-94084246D01*
X85263368Y-94084243D01*
X85342386Y-93936408D01*
X85448732Y-93806827D01*
X85578313Y-93700481D01*
X85726147Y-93621463D01*
X85726150Y-93621462D01*
X85726152Y-93621461D01*
X85886566Y-93572800D01*
X85886567Y-93572800D01*
X85886570Y-93572799D01*
X86053391Y-93556369D01*
X86220211Y-93572799D01*
X86220211Y-93572799D01*
G37*
G36*
X81824391Y-96062486D02*
X80122391Y-96062486D01*
X80122391Y-93560486D01*
X81824391Y-93560486D01*
X81824391Y-96062486D01*
X81824391Y-96062486D01*
G37*
G36*
X63610442Y-92685518D02*
X63676627Y-92692037D01*
X63789853Y-92726384D01*
X63846467Y-92743557D01*
X63985087Y-92817652D01*
X64002991Y-92827222D01*
X64038729Y-92856552D01*
X64140186Y-92939814D01*
X64223448Y-93041271D01*
X64252778Y-93077009D01*
X64252779Y-93077011D01*
X64336443Y-93233533D01*
X64336443Y-93233534D01*
X64387963Y-93403373D01*
X64405359Y-93580000D01*
X64387963Y-93756627D01*
X64372735Y-93806827D01*
X64336443Y-93926467D01*
X64262348Y-94065087D01*
X64252778Y-94082991D01*
X64251747Y-94084247D01*
X64140186Y-94220186D01*
X64038729Y-94303448D01*
X64002991Y-94332778D01*
X64002989Y-94332779D01*
X63846467Y-94416443D01*
X63789853Y-94433616D01*
X63676627Y-94467963D01*
X63610443Y-94474481D01*
X63544260Y-94481000D01*
X63455740Y-94481000D01*
X63389557Y-94474481D01*
X63323373Y-94467963D01*
X63210147Y-94433616D01*
X63153533Y-94416443D01*
X62997011Y-94332779D01*
X62997009Y-94332778D01*
X62961271Y-94303448D01*
X62859814Y-94220186D01*
X62748253Y-94084247D01*
X62747222Y-94082991D01*
X62737652Y-94065087D01*
X62663557Y-93926467D01*
X62627265Y-93806827D01*
X62612037Y-93756627D01*
X62594641Y-93580000D01*
X62612037Y-93403373D01*
X62663557Y-93233534D01*
X62663557Y-93233533D01*
X62747221Y-93077011D01*
X62747222Y-93077009D01*
X62776552Y-93041271D01*
X62859814Y-92939814D01*
X62961271Y-92856552D01*
X62997009Y-92827222D01*
X63014913Y-92817652D01*
X63153533Y-92743557D01*
X63210147Y-92726384D01*
X63323373Y-92692037D01*
X63389558Y-92685518D01*
X63455740Y-92679000D01*
X63544260Y-92679000D01*
X63610442Y-92685518D01*
X63610442Y-92685518D01*
G37*
G36*
X63610442Y-90145518D02*
X63676627Y-90152037D01*
X63789853Y-90186384D01*
X63846467Y-90203557D01*
X63985087Y-90277652D01*
X64002991Y-90287222D01*
X64038729Y-90316552D01*
X64140186Y-90399814D01*
X64223448Y-90501271D01*
X64252778Y-90537009D01*
X64252779Y-90537011D01*
X64336443Y-90693533D01*
X64336443Y-90693534D01*
X64387963Y-90863373D01*
X64405359Y-91040000D01*
X64387963Y-91216627D01*
X64353616Y-91329853D01*
X64336443Y-91386467D01*
X64262348Y-91525087D01*
X64252778Y-91542991D01*
X64223448Y-91578729D01*
X64140186Y-91680186D01*
X64038729Y-91763448D01*
X64002991Y-91792778D01*
X64002989Y-91792779D01*
X63846467Y-91876443D01*
X63789853Y-91893616D01*
X63676627Y-91927963D01*
X63610442Y-91934482D01*
X63544260Y-91941000D01*
X63455740Y-91941000D01*
X63389558Y-91934482D01*
X63323373Y-91927963D01*
X63210147Y-91893616D01*
X63153533Y-91876443D01*
X62997011Y-91792779D01*
X62997009Y-91792778D01*
X62961271Y-91763448D01*
X62859814Y-91680186D01*
X62776552Y-91578729D01*
X62747222Y-91542991D01*
X62737652Y-91525087D01*
X62663557Y-91386467D01*
X62646384Y-91329853D01*
X62612037Y-91216627D01*
X62594641Y-91040000D01*
X62612037Y-90863373D01*
X62663557Y-90693534D01*
X62663557Y-90693533D01*
X62747221Y-90537011D01*
X62747222Y-90537009D01*
X62776552Y-90501271D01*
X62859814Y-90399814D01*
X62961271Y-90316552D01*
X62997009Y-90287222D01*
X63014913Y-90277652D01*
X63153533Y-90203557D01*
X63210147Y-90186384D01*
X63323373Y-90152037D01*
X63389558Y-90145518D01*
X63455740Y-90139000D01*
X63544260Y-90139000D01*
X63610442Y-90145518D01*
X63610442Y-90145518D01*
G37*
G36*
X76248228Y-88181703D02*
X76403100Y-88245853D01*
X76542481Y-88338985D01*
X76661015Y-88457519D01*
X76754147Y-88596900D01*
X76818297Y-88751772D01*
X76851000Y-88916184D01*
X76851000Y-89083816D01*
X76818297Y-89248228D01*
X76754147Y-89403100D01*
X76661015Y-89542481D01*
X76542481Y-89661015D01*
X76403100Y-89754147D01*
X76248228Y-89818297D01*
X76083816Y-89851000D01*
X75916184Y-89851000D01*
X75751772Y-89818297D01*
X75596900Y-89754147D01*
X75457519Y-89661015D01*
X75338985Y-89542481D01*
X75245853Y-89403100D01*
X75181703Y-89248228D01*
X75149000Y-89083816D01*
X75149000Y-88916184D01*
X75181703Y-88751772D01*
X75245853Y-88596900D01*
X75338985Y-88457519D01*
X75457519Y-88338985D01*
X75596900Y-88245853D01*
X75751772Y-88181703D01*
X75916184Y-88149000D01*
X76083816Y-88149000D01*
X76248228Y-88181703D01*
X76248228Y-88181703D01*
G37*
G36*
X64401000Y-89401000D02*
X62599000Y-89401000D01*
X62599000Y-87599000D01*
X64401000Y-87599000D01*
X64401000Y-89401000D01*
X64401000Y-89401000D01*
G37*
G36*
X83680211Y-85952799D02*
X83680214Y-85952800D01*
X83680215Y-85952800D01*
X83840629Y-86001461D01*
X83840631Y-86001462D01*
X83840634Y-86001463D01*
X83988469Y-86080481D01*
X84118050Y-86186827D01*
X84224396Y-86316408D01*
X84303414Y-86464242D01*
X84352078Y-86624665D01*
X84364391Y-86749682D01*
X84364391Y-87633289D01*
X84352078Y-87758306D01*
X84352077Y-87758308D01*
X84352077Y-87758311D01*
X84303416Y-87918725D01*
X84303414Y-87918730D01*
X84224396Y-88066564D01*
X84118050Y-88196145D01*
X83988469Y-88302491D01*
X83840635Y-88381509D01*
X83840632Y-88381510D01*
X83840630Y-88381511D01*
X83680216Y-88430172D01*
X83680215Y-88430172D01*
X83680212Y-88430173D01*
X83513391Y-88446603D01*
X83346571Y-88430173D01*
X83346568Y-88430172D01*
X83346567Y-88430172D01*
X83186153Y-88381511D01*
X83186151Y-88381510D01*
X83186148Y-88381509D01*
X83038314Y-88302491D01*
X82908733Y-88196145D01*
X82802387Y-88066564D01*
X82723369Y-87918730D01*
X82674705Y-87758307D01*
X82662391Y-87633289D01*
X82662391Y-86749683D01*
X82674704Y-86624666D01*
X82674705Y-86624662D01*
X82723366Y-86464248D01*
X82723367Y-86464246D01*
X82723368Y-86464243D01*
X82802386Y-86316408D01*
X82908732Y-86186827D01*
X83038313Y-86080481D01*
X83186147Y-86001463D01*
X83186150Y-86001462D01*
X83186152Y-86001461D01*
X83346566Y-85952800D01*
X83346567Y-85952800D01*
X83346570Y-85952799D01*
X83513391Y-85936369D01*
X83680211Y-85952799D01*
X83680211Y-85952799D01*
G37*
G36*
X86220211Y-85952799D02*
X86220214Y-85952800D01*
X86220215Y-85952800D01*
X86380629Y-86001461D01*
X86380631Y-86001462D01*
X86380634Y-86001463D01*
X86528469Y-86080481D01*
X86658050Y-86186827D01*
X86764396Y-86316408D01*
X86843414Y-86464242D01*
X86892078Y-86624665D01*
X86904391Y-86749682D01*
X86904391Y-87633289D01*
X86892078Y-87758306D01*
X86892077Y-87758308D01*
X86892077Y-87758311D01*
X86843416Y-87918725D01*
X86843414Y-87918730D01*
X86764396Y-88066564D01*
X86658050Y-88196145D01*
X86528469Y-88302491D01*
X86380635Y-88381509D01*
X86380632Y-88381510D01*
X86380630Y-88381511D01*
X86220216Y-88430172D01*
X86220215Y-88430172D01*
X86220212Y-88430173D01*
X86053391Y-88446603D01*
X85886571Y-88430173D01*
X85886568Y-88430172D01*
X85886567Y-88430172D01*
X85726153Y-88381511D01*
X85726151Y-88381510D01*
X85726148Y-88381509D01*
X85578314Y-88302491D01*
X85448733Y-88196145D01*
X85342387Y-88066564D01*
X85263369Y-87918730D01*
X85214705Y-87758307D01*
X85202391Y-87633289D01*
X85202391Y-86749683D01*
X85214704Y-86624666D01*
X85214705Y-86624662D01*
X85263366Y-86464248D01*
X85263367Y-86464246D01*
X85263368Y-86464243D01*
X85342386Y-86316408D01*
X85448732Y-86186827D01*
X85578313Y-86080481D01*
X85726147Y-86001463D01*
X85726150Y-86001462D01*
X85726152Y-86001461D01*
X85886566Y-85952800D01*
X85886567Y-85952800D01*
X85886570Y-85952799D01*
X86053391Y-85936369D01*
X86220211Y-85952799D01*
X86220211Y-85952799D01*
G37*
G36*
X88760211Y-85952799D02*
X88760214Y-85952800D01*
X88760215Y-85952800D01*
X88920629Y-86001461D01*
X88920631Y-86001462D01*
X88920634Y-86001463D01*
X89068469Y-86080481D01*
X89198050Y-86186827D01*
X89304396Y-86316408D01*
X89383414Y-86464242D01*
X89432078Y-86624665D01*
X89444391Y-86749682D01*
X89444391Y-87633289D01*
X89432078Y-87758306D01*
X89432077Y-87758308D01*
X89432077Y-87758311D01*
X89383416Y-87918725D01*
X89383414Y-87918730D01*
X89304396Y-88066564D01*
X89198050Y-88196145D01*
X89068469Y-88302491D01*
X88920635Y-88381509D01*
X88920632Y-88381510D01*
X88920630Y-88381511D01*
X88760216Y-88430172D01*
X88760215Y-88430172D01*
X88760212Y-88430173D01*
X88593391Y-88446603D01*
X88426571Y-88430173D01*
X88426568Y-88430172D01*
X88426567Y-88430172D01*
X88266153Y-88381511D01*
X88266151Y-88381510D01*
X88266148Y-88381509D01*
X88118314Y-88302491D01*
X87988733Y-88196145D01*
X87882387Y-88066564D01*
X87803369Y-87918730D01*
X87754705Y-87758307D01*
X87742391Y-87633289D01*
X87742391Y-86749683D01*
X87754704Y-86624666D01*
X87754705Y-86624662D01*
X87803366Y-86464248D01*
X87803367Y-86464246D01*
X87803368Y-86464243D01*
X87882386Y-86316408D01*
X87988732Y-86186827D01*
X88118313Y-86080481D01*
X88266147Y-86001463D01*
X88266150Y-86001462D01*
X88266152Y-86001461D01*
X88426566Y-85952800D01*
X88426567Y-85952800D01*
X88426570Y-85952799D01*
X88593391Y-85936369D01*
X88760211Y-85952799D01*
X88760211Y-85952799D01*
G37*
G36*
X91300211Y-85952799D02*
X91300214Y-85952800D01*
X91300215Y-85952800D01*
X91460629Y-86001461D01*
X91460631Y-86001462D01*
X91460634Y-86001463D01*
X91608469Y-86080481D01*
X91738050Y-86186827D01*
X91844396Y-86316408D01*
X91923414Y-86464242D01*
X91972078Y-86624665D01*
X91984391Y-86749682D01*
X91984391Y-87633289D01*
X91972078Y-87758306D01*
X91972077Y-87758308D01*
X91972077Y-87758311D01*
X91923416Y-87918725D01*
X91923414Y-87918730D01*
X91844396Y-88066564D01*
X91738050Y-88196145D01*
X91608469Y-88302491D01*
X91460635Y-88381509D01*
X91460632Y-88381510D01*
X91460630Y-88381511D01*
X91300216Y-88430172D01*
X91300215Y-88430172D01*
X91300212Y-88430173D01*
X91133391Y-88446603D01*
X90966571Y-88430173D01*
X90966568Y-88430172D01*
X90966567Y-88430172D01*
X90806153Y-88381511D01*
X90806151Y-88381510D01*
X90806148Y-88381509D01*
X90658314Y-88302491D01*
X90528733Y-88196145D01*
X90422387Y-88066564D01*
X90343369Y-87918730D01*
X90294705Y-87758307D01*
X90282391Y-87633289D01*
X90282391Y-86749683D01*
X90294704Y-86624666D01*
X90294705Y-86624662D01*
X90343366Y-86464248D01*
X90343367Y-86464246D01*
X90343368Y-86464243D01*
X90422386Y-86316408D01*
X90528732Y-86186827D01*
X90658313Y-86080481D01*
X90806147Y-86001463D01*
X90806150Y-86001462D01*
X90806152Y-86001461D01*
X90966566Y-85952800D01*
X90966567Y-85952800D01*
X90966570Y-85952799D01*
X91133391Y-85936369D01*
X91300211Y-85952799D01*
X91300211Y-85952799D01*
G37*
G36*
X93840211Y-85952799D02*
X93840214Y-85952800D01*
X93840215Y-85952800D01*
X94000629Y-86001461D01*
X94000631Y-86001462D01*
X94000634Y-86001463D01*
X94148469Y-86080481D01*
X94278050Y-86186827D01*
X94384396Y-86316408D01*
X94463414Y-86464242D01*
X94512078Y-86624665D01*
X94524391Y-86749682D01*
X94524391Y-87633289D01*
X94512078Y-87758306D01*
X94512077Y-87758308D01*
X94512077Y-87758311D01*
X94463416Y-87918725D01*
X94463414Y-87918730D01*
X94384396Y-88066564D01*
X94278050Y-88196145D01*
X94148469Y-88302491D01*
X94000635Y-88381509D01*
X94000632Y-88381510D01*
X94000630Y-88381511D01*
X93840216Y-88430172D01*
X93840215Y-88430172D01*
X93840212Y-88430173D01*
X93673391Y-88446603D01*
X93506571Y-88430173D01*
X93506568Y-88430172D01*
X93506567Y-88430172D01*
X93346153Y-88381511D01*
X93346151Y-88381510D01*
X93346148Y-88381509D01*
X93198314Y-88302491D01*
X93068733Y-88196145D01*
X92962387Y-88066564D01*
X92883369Y-87918730D01*
X92834705Y-87758307D01*
X92822391Y-87633289D01*
X92822391Y-86749683D01*
X92834704Y-86624666D01*
X92834705Y-86624662D01*
X92883366Y-86464248D01*
X92883367Y-86464246D01*
X92883368Y-86464243D01*
X92962386Y-86316408D01*
X93068732Y-86186827D01*
X93198313Y-86080481D01*
X93346147Y-86001463D01*
X93346150Y-86001462D01*
X93346152Y-86001461D01*
X93506566Y-85952800D01*
X93506567Y-85952800D01*
X93506570Y-85952799D01*
X93673391Y-85936369D01*
X93840211Y-85952799D01*
X93840211Y-85952799D01*
G37*
G36*
X81140211Y-85952799D02*
X81140214Y-85952800D01*
X81140215Y-85952800D01*
X81300629Y-86001461D01*
X81300631Y-86001462D01*
X81300634Y-86001463D01*
X81448469Y-86080481D01*
X81578050Y-86186827D01*
X81684396Y-86316408D01*
X81763414Y-86464242D01*
X81812078Y-86624665D01*
X81824391Y-86749682D01*
X81824391Y-87633289D01*
X81812078Y-87758306D01*
X81812077Y-87758308D01*
X81812077Y-87758311D01*
X81763416Y-87918725D01*
X81763414Y-87918730D01*
X81684396Y-88066564D01*
X81578050Y-88196145D01*
X81448469Y-88302491D01*
X81300635Y-88381509D01*
X81300632Y-88381510D01*
X81300630Y-88381511D01*
X81140216Y-88430172D01*
X81140215Y-88430172D01*
X81140212Y-88430173D01*
X80973391Y-88446603D01*
X80806571Y-88430173D01*
X80806568Y-88430172D01*
X80806567Y-88430172D01*
X80646153Y-88381511D01*
X80646151Y-88381510D01*
X80646148Y-88381509D01*
X80498314Y-88302491D01*
X80368733Y-88196145D01*
X80262387Y-88066564D01*
X80183369Y-87918730D01*
X80134705Y-87758307D01*
X80122391Y-87633289D01*
X80122391Y-86749683D01*
X80134704Y-86624666D01*
X80134705Y-86624662D01*
X80183366Y-86464248D01*
X80183367Y-86464246D01*
X80183368Y-86464243D01*
X80262386Y-86316408D01*
X80368732Y-86186827D01*
X80498313Y-86080481D01*
X80646147Y-86001463D01*
X80646150Y-86001462D01*
X80646152Y-86001461D01*
X80806566Y-85952800D01*
X80806567Y-85952800D01*
X80806570Y-85952799D01*
X80973391Y-85936369D01*
X81140211Y-85952799D01*
X81140211Y-85952799D01*
G37*
G36*
X96380211Y-85952799D02*
X96380214Y-85952800D01*
X96380215Y-85952800D01*
X96540629Y-86001461D01*
X96540631Y-86001462D01*
X96540634Y-86001463D01*
X96688469Y-86080481D01*
X96818050Y-86186827D01*
X96924396Y-86316408D01*
X97003414Y-86464242D01*
X97052078Y-86624665D01*
X97064391Y-86749682D01*
X97064391Y-87633289D01*
X97052078Y-87758306D01*
X97052077Y-87758308D01*
X97052077Y-87758311D01*
X97003416Y-87918725D01*
X97003414Y-87918730D01*
X96924396Y-88066564D01*
X96818050Y-88196145D01*
X96688469Y-88302491D01*
X96540635Y-88381509D01*
X96540632Y-88381510D01*
X96540630Y-88381511D01*
X96380216Y-88430172D01*
X96380215Y-88430172D01*
X96380212Y-88430173D01*
X96213391Y-88446603D01*
X96046571Y-88430173D01*
X96046568Y-88430172D01*
X96046567Y-88430172D01*
X95886153Y-88381511D01*
X95886151Y-88381510D01*
X95886148Y-88381509D01*
X95738314Y-88302491D01*
X95608733Y-88196145D01*
X95502387Y-88066564D01*
X95423369Y-87918730D01*
X95374705Y-87758307D01*
X95362391Y-87633289D01*
X95362391Y-86749683D01*
X95374704Y-86624666D01*
X95374705Y-86624662D01*
X95423366Y-86464248D01*
X95423367Y-86464246D01*
X95423368Y-86464243D01*
X95502386Y-86316408D01*
X95608732Y-86186827D01*
X95738313Y-86080481D01*
X95886147Y-86001463D01*
X95886150Y-86001462D01*
X95886152Y-86001461D01*
X96046566Y-85952800D01*
X96046567Y-85952800D01*
X96046570Y-85952799D01*
X96213391Y-85936369D01*
X96380211Y-85952799D01*
X96380211Y-85952799D01*
G37*
G36*
X75748228Y-82181703D02*
X75903100Y-82245853D01*
X76042481Y-82338985D01*
X76161015Y-82457519D01*
X76254147Y-82596900D01*
X76318297Y-82751772D01*
X76351000Y-82916184D01*
X76351000Y-83083816D01*
X76318297Y-83248228D01*
X76254147Y-83403100D01*
X76161015Y-83542481D01*
X76042481Y-83661015D01*
X75903100Y-83754147D01*
X75748228Y-83818297D01*
X75583816Y-83851000D01*
X75416184Y-83851000D01*
X75251772Y-83818297D01*
X75096900Y-83754147D01*
X74957519Y-83661015D01*
X74838985Y-83542481D01*
X74745853Y-83403100D01*
X74681703Y-83248228D01*
X74649000Y-83083816D01*
X74649000Y-82916184D01*
X74681703Y-82751772D01*
X74745853Y-82596900D01*
X74838985Y-82457519D01*
X74957519Y-82338985D01*
X75096900Y-82245853D01*
X75251772Y-82181703D01*
X75416184Y-82149000D01*
X75583816Y-82149000D01*
X75748228Y-82181703D01*
X75748228Y-82181703D01*
G37*
G36*
X82372694Y-82132799D02*
X82372697Y-82132800D01*
X82372698Y-82132800D01*
X82533112Y-82181461D01*
X82533114Y-82181462D01*
X82533117Y-82181463D01*
X82680951Y-82260481D01*
X82810532Y-82366827D01*
X82916878Y-82496408D01*
X82995896Y-82644242D01*
X82995897Y-82644245D01*
X82995898Y-82644247D01*
X83033044Y-82766702D01*
X83044560Y-82804665D01*
X83060990Y-82971486D01*
X83044560Y-83138307D01*
X83044559Y-83138310D01*
X83044559Y-83138311D01*
X82997399Y-83293778D01*
X82995896Y-83298730D01*
X82916878Y-83446564D01*
X82810532Y-83576145D01*
X82680951Y-83682491D01*
X82533117Y-83761509D01*
X82533114Y-83761510D01*
X82533112Y-83761511D01*
X82372698Y-83810172D01*
X82372697Y-83810172D01*
X82372694Y-83810173D01*
X82247677Y-83822486D01*
X82164069Y-83822486D01*
X82039052Y-83810173D01*
X82039049Y-83810172D01*
X82039048Y-83810172D01*
X81878634Y-83761511D01*
X81878632Y-83761510D01*
X81878629Y-83761509D01*
X81730795Y-83682491D01*
X81601214Y-83576145D01*
X81494868Y-83446564D01*
X81415850Y-83298730D01*
X81414348Y-83293778D01*
X81367187Y-83138311D01*
X81367187Y-83138310D01*
X81367186Y-83138307D01*
X81350756Y-82971486D01*
X81367186Y-82804665D01*
X81378702Y-82766702D01*
X81415848Y-82644247D01*
X81415849Y-82644245D01*
X81415850Y-82644242D01*
X81494868Y-82496408D01*
X81601214Y-82366827D01*
X81730795Y-82260481D01*
X81878629Y-82181463D01*
X81878632Y-82181462D01*
X81878634Y-82181461D01*
X82039048Y-82132800D01*
X82039049Y-82132800D01*
X82039052Y-82132799D01*
X82164069Y-82120486D01*
X82247677Y-82120486D01*
X82372694Y-82132799D01*
X82372694Y-82132799D01*
G37*
G36*
X79140212Y-82132799D02*
X79140215Y-82132800D01*
X79140216Y-82132800D01*
X79300630Y-82181461D01*
X79300632Y-82181462D01*
X79300635Y-82181463D01*
X79448469Y-82260481D01*
X79578050Y-82366827D01*
X79684396Y-82496408D01*
X79763414Y-82644242D01*
X79763415Y-82644245D01*
X79763416Y-82644247D01*
X79800562Y-82766702D01*
X79812078Y-82804665D01*
X79828508Y-82971486D01*
X79812078Y-83138307D01*
X79812077Y-83138310D01*
X79812077Y-83138311D01*
X79764917Y-83293778D01*
X79763414Y-83298730D01*
X79684396Y-83446564D01*
X79578050Y-83576145D01*
X79448469Y-83682491D01*
X79300635Y-83761509D01*
X79300632Y-83761510D01*
X79300630Y-83761511D01*
X79140216Y-83810172D01*
X79140215Y-83810172D01*
X79140212Y-83810173D01*
X79015195Y-83822486D01*
X78931587Y-83822486D01*
X78806570Y-83810173D01*
X78806567Y-83810172D01*
X78806566Y-83810172D01*
X78646152Y-83761511D01*
X78646150Y-83761510D01*
X78646147Y-83761509D01*
X78498313Y-83682491D01*
X78368732Y-83576145D01*
X78262386Y-83446564D01*
X78183368Y-83298730D01*
X78181866Y-83293778D01*
X78134705Y-83138311D01*
X78134705Y-83138310D01*
X78134704Y-83138307D01*
X78118274Y-82971486D01*
X78134704Y-82804665D01*
X78146220Y-82766702D01*
X78183366Y-82644247D01*
X78183367Y-82644245D01*
X78183368Y-82644242D01*
X78262386Y-82496408D01*
X78368732Y-82366827D01*
X78498313Y-82260481D01*
X78646147Y-82181463D01*
X78646150Y-82181462D01*
X78646152Y-82181461D01*
X78806566Y-82132800D01*
X78806567Y-82132800D01*
X78806570Y-82132799D01*
X78931587Y-82120486D01*
X79015195Y-82120486D01*
X79140212Y-82132799D01*
X79140212Y-82132799D01*
G37*
G36*
X85454101Y-82072381D02*
X85608973Y-82136531D01*
X85748354Y-82229663D01*
X85866888Y-82348197D01*
X85960020Y-82487578D01*
X86024170Y-82642450D01*
X86056873Y-82806862D01*
X86056873Y-82974494D01*
X86024170Y-83138906D01*
X85960020Y-83293778D01*
X85866888Y-83433159D01*
X85748354Y-83551693D01*
X85608973Y-83644825D01*
X85454101Y-83708975D01*
X85289689Y-83741678D01*
X85122057Y-83741678D01*
X84957645Y-83708975D01*
X84802773Y-83644825D01*
X84663392Y-83551693D01*
X84544858Y-83433159D01*
X84451726Y-83293778D01*
X84387576Y-83138906D01*
X84354873Y-82974494D01*
X84354873Y-82806862D01*
X84387576Y-82642450D01*
X84451726Y-82487578D01*
X84544858Y-82348197D01*
X84663392Y-82229663D01*
X84802773Y-82136531D01*
X84957645Y-82072381D01*
X85122057Y-82039678D01*
X85289689Y-82039678D01*
X85454101Y-82072381D01*
X85454101Y-82072381D01*
G37*
G36*
X94954101Y-81993189D02*
X95108973Y-82057339D01*
X95248354Y-82150471D01*
X95366888Y-82269005D01*
X95460020Y-82408386D01*
X95524170Y-82563258D01*
X95556873Y-82727670D01*
X95556873Y-82895302D01*
X95524170Y-83059714D01*
X95460020Y-83214586D01*
X95366888Y-83353967D01*
X95248354Y-83472501D01*
X95108973Y-83565633D01*
X94954101Y-83629783D01*
X94789689Y-83662486D01*
X94622057Y-83662486D01*
X94457645Y-83629783D01*
X94302773Y-83565633D01*
X94163392Y-83472501D01*
X94044858Y-83353967D01*
X93951726Y-83214586D01*
X93887576Y-83059714D01*
X93854873Y-82895302D01*
X93854873Y-82727670D01*
X93887576Y-82563258D01*
X93951726Y-82408386D01*
X94044858Y-82269005D01*
X94163392Y-82150471D01*
X94302773Y-82057339D01*
X94457645Y-81993189D01*
X94622057Y-81960486D01*
X94789689Y-81960486D01*
X94954101Y-81993189D01*
X94954101Y-81993189D01*
G37*
G36*
X97954101Y-81993189D02*
X98108973Y-82057339D01*
X98248354Y-82150471D01*
X98366888Y-82269005D01*
X98460020Y-82408386D01*
X98524170Y-82563258D01*
X98556873Y-82727670D01*
X98556873Y-82895302D01*
X98524170Y-83059714D01*
X98460020Y-83214586D01*
X98366888Y-83353967D01*
X98248354Y-83472501D01*
X98108973Y-83565633D01*
X97954101Y-83629783D01*
X97789689Y-83662486D01*
X97622057Y-83662486D01*
X97457645Y-83629783D01*
X97302773Y-83565633D01*
X97163392Y-83472501D01*
X97044858Y-83353967D01*
X96951726Y-83214586D01*
X96887576Y-83059714D01*
X96854873Y-82895302D01*
X96854873Y-82727670D01*
X96887576Y-82563258D01*
X96951726Y-82408386D01*
X97044858Y-82269005D01*
X97163392Y-82150471D01*
X97302773Y-82057339D01*
X97457645Y-81993189D01*
X97622057Y-81960486D01*
X97789689Y-81960486D01*
X97954101Y-81993189D01*
X97954101Y-81993189D01*
G37*
G36*
X91598655Y-81928015D02*
X91598658Y-81928016D01*
X91598659Y-81928016D01*
X91759073Y-81976677D01*
X91759075Y-81976678D01*
X91759078Y-81976679D01*
X91906912Y-82055697D01*
X92036493Y-82162043D01*
X92142839Y-82291624D01*
X92221857Y-82439458D01*
X92221858Y-82439461D01*
X92221859Y-82439463D01*
X92269617Y-82596900D01*
X92270521Y-82599881D01*
X92286951Y-82766702D01*
X92270521Y-82933523D01*
X92270520Y-82933526D01*
X92270520Y-82933527D01*
X92232242Y-83059714D01*
X92221857Y-83093946D01*
X92142839Y-83241780D01*
X92036493Y-83371361D01*
X91906912Y-83477707D01*
X91759078Y-83556725D01*
X91759075Y-83556726D01*
X91759073Y-83556727D01*
X91598659Y-83605388D01*
X91598658Y-83605388D01*
X91598655Y-83605389D01*
X91473638Y-83617702D01*
X91390030Y-83617702D01*
X91265013Y-83605389D01*
X91265010Y-83605388D01*
X91265009Y-83605388D01*
X91104595Y-83556727D01*
X91104593Y-83556726D01*
X91104590Y-83556725D01*
X90956756Y-83477707D01*
X90827175Y-83371361D01*
X90720829Y-83241780D01*
X90641811Y-83093946D01*
X90631427Y-83059714D01*
X90593148Y-82933527D01*
X90593148Y-82933526D01*
X90593147Y-82933523D01*
X90576717Y-82766702D01*
X90593147Y-82599881D01*
X90594051Y-82596900D01*
X90641809Y-82439463D01*
X90641810Y-82439461D01*
X90641811Y-82439458D01*
X90720829Y-82291624D01*
X90827175Y-82162043D01*
X90956756Y-82055697D01*
X91104590Y-81976679D01*
X91104593Y-81976678D01*
X91104595Y-81976677D01*
X91265009Y-81928016D01*
X91265010Y-81928016D01*
X91265013Y-81928015D01*
X91390030Y-81915702D01*
X91473638Y-81915702D01*
X91598655Y-81928015D01*
X91598655Y-81928015D01*
G37*
G36*
X72166821Y-81821313D02*
X72166824Y-81821314D01*
X72166825Y-81821314D01*
X72327239Y-81869975D01*
X72327241Y-81869976D01*
X72327244Y-81869977D01*
X72475078Y-81948995D01*
X72604659Y-82055341D01*
X72711005Y-82184922D01*
X72790023Y-82332756D01*
X72790024Y-82332759D01*
X72790025Y-82332761D01*
X72827870Y-82457519D01*
X72838687Y-82493179D01*
X72855117Y-82660000D01*
X72838687Y-82826821D01*
X72838686Y-82826824D01*
X72838686Y-82826825D01*
X72794804Y-82971486D01*
X72790023Y-82987244D01*
X72711005Y-83135078D01*
X72604659Y-83264659D01*
X72475078Y-83371005D01*
X72327244Y-83450023D01*
X72327241Y-83450024D01*
X72327239Y-83450025D01*
X72166825Y-83498686D01*
X72166824Y-83498686D01*
X72166821Y-83498687D01*
X72041804Y-83511000D01*
X71958196Y-83511000D01*
X71833179Y-83498687D01*
X71833176Y-83498686D01*
X71833175Y-83498686D01*
X71672761Y-83450025D01*
X71672759Y-83450024D01*
X71672756Y-83450023D01*
X71524922Y-83371005D01*
X71395341Y-83264659D01*
X71288995Y-83135078D01*
X71209977Y-82987244D01*
X71205197Y-82971486D01*
X71161314Y-82826825D01*
X71161314Y-82826824D01*
X71161313Y-82826821D01*
X71144883Y-82660000D01*
X71161313Y-82493179D01*
X71172130Y-82457519D01*
X71209975Y-82332761D01*
X71209976Y-82332759D01*
X71209977Y-82332756D01*
X71288995Y-82184922D01*
X71395341Y-82055341D01*
X71524922Y-81948995D01*
X71672756Y-81869977D01*
X71672759Y-81869976D01*
X71672761Y-81869975D01*
X71833175Y-81821314D01*
X71833176Y-81821314D01*
X71833179Y-81821313D01*
X71958196Y-81809000D01*
X72041804Y-81809000D01*
X72166821Y-81821313D01*
X72166821Y-81821313D01*
G37*
G36*
X88680062Y-81788405D02*
X88834934Y-81852555D01*
X88974315Y-81945687D01*
X89092849Y-82064221D01*
X89185981Y-82203602D01*
X89250131Y-82358474D01*
X89282834Y-82522886D01*
X89282834Y-82690518D01*
X89250131Y-82854930D01*
X89185981Y-83009802D01*
X89092849Y-83149183D01*
X88974315Y-83267717D01*
X88834934Y-83360849D01*
X88680062Y-83424999D01*
X88515650Y-83457702D01*
X88348018Y-83457702D01*
X88183606Y-83424999D01*
X88028734Y-83360849D01*
X87889353Y-83267717D01*
X87770819Y-83149183D01*
X87677687Y-83009802D01*
X87613537Y-82854930D01*
X87580834Y-82690518D01*
X87580834Y-82522886D01*
X87613537Y-82358474D01*
X87677687Y-82203602D01*
X87770819Y-82064221D01*
X87889353Y-81945687D01*
X88028734Y-81852555D01*
X88183606Y-81788405D01*
X88348018Y-81755702D01*
X88515650Y-81755702D01*
X88680062Y-81788405D01*
X88680062Y-81788405D01*
G37*
G36*
X63748228Y-81181703D02*
X63903100Y-81245853D01*
X64042481Y-81338985D01*
X64161015Y-81457519D01*
X64254147Y-81596900D01*
X64318297Y-81751772D01*
X64351000Y-81916184D01*
X64351000Y-82083816D01*
X64318297Y-82248228D01*
X64254147Y-82403100D01*
X64161015Y-82542481D01*
X64042481Y-82661015D01*
X63903100Y-82754147D01*
X63748228Y-82818297D01*
X63583816Y-82851000D01*
X63416184Y-82851000D01*
X63251772Y-82818297D01*
X63096900Y-82754147D01*
X62957519Y-82661015D01*
X62838985Y-82542481D01*
X62745853Y-82403100D01*
X62681703Y-82248228D01*
X62649000Y-82083816D01*
X62649000Y-81916184D01*
X62681703Y-81751772D01*
X62745853Y-81596900D01*
X62838985Y-81457519D01*
X62957519Y-81338985D01*
X63096900Y-81245853D01*
X63251772Y-81181703D01*
X63416184Y-81149000D01*
X63583816Y-81149000D01*
X63748228Y-81181703D01*
X63748228Y-81181703D01*
G37*
G36*
X75666821Y-72001313D02*
X75666824Y-72001314D01*
X75666825Y-72001314D01*
X75827239Y-72049975D01*
X75827241Y-72049976D01*
X75827244Y-72049977D01*
X75975078Y-72128995D01*
X76104659Y-72235341D01*
X76211005Y-72364922D01*
X76290023Y-72512756D01*
X76290024Y-72512759D01*
X76290025Y-72512761D01*
X76338686Y-72673175D01*
X76338687Y-72673179D01*
X76355117Y-72840000D01*
X76338687Y-73006821D01*
X76338686Y-73006824D01*
X76338686Y-73006825D01*
X76302364Y-73126564D01*
X76290023Y-73167244D01*
X76211005Y-73315078D01*
X76104659Y-73444659D01*
X75975078Y-73551005D01*
X75827244Y-73630023D01*
X75827241Y-73630024D01*
X75827239Y-73630025D01*
X75666825Y-73678686D01*
X75666824Y-73678686D01*
X75666821Y-73678687D01*
X75541804Y-73691000D01*
X75458196Y-73691000D01*
X75333179Y-73678687D01*
X75333176Y-73678686D01*
X75333175Y-73678686D01*
X75172761Y-73630025D01*
X75172759Y-73630024D01*
X75172756Y-73630023D01*
X75024922Y-73551005D01*
X74895341Y-73444659D01*
X74788995Y-73315078D01*
X74709977Y-73167244D01*
X74697637Y-73126564D01*
X74661314Y-73006825D01*
X74661314Y-73006824D01*
X74661313Y-73006821D01*
X74644883Y-72840000D01*
X74661313Y-72673179D01*
X74661314Y-72673175D01*
X74709975Y-72512761D01*
X74709976Y-72512759D01*
X74709977Y-72512756D01*
X74788995Y-72364922D01*
X74895341Y-72235341D01*
X75024922Y-72128995D01*
X75172756Y-72049977D01*
X75172759Y-72049976D01*
X75172761Y-72049975D01*
X75333175Y-72001314D01*
X75333176Y-72001314D01*
X75333179Y-72001313D01*
X75458196Y-71989000D01*
X75541804Y-71989000D01*
X75666821Y-72001313D01*
X75666821Y-72001313D01*
G37*
G36*
X82454101Y-71993189D02*
X82608973Y-72057339D01*
X82748354Y-72150471D01*
X82866888Y-72269005D01*
X82960020Y-72408386D01*
X83024170Y-72563258D01*
X83056873Y-72727670D01*
X83056873Y-72895302D01*
X83024170Y-73059714D01*
X82960020Y-73214586D01*
X82866888Y-73353967D01*
X82748354Y-73472501D01*
X82608973Y-73565633D01*
X82454101Y-73629783D01*
X82289689Y-73662486D01*
X82122057Y-73662486D01*
X81957645Y-73629783D01*
X81802773Y-73565633D01*
X81663392Y-73472501D01*
X81544858Y-73353967D01*
X81451726Y-73214586D01*
X81387576Y-73059714D01*
X81354873Y-72895302D01*
X81354873Y-72727670D01*
X81387576Y-72563258D01*
X81451726Y-72408386D01*
X81544858Y-72269005D01*
X81663392Y-72150471D01*
X81802773Y-72057339D01*
X81957645Y-71993189D01*
X82122057Y-71960486D01*
X82289689Y-71960486D01*
X82454101Y-71993189D01*
X82454101Y-71993189D01*
G37*
G36*
X79221619Y-71993189D02*
X79376491Y-72057339D01*
X79515872Y-72150471D01*
X79634406Y-72269005D01*
X79727538Y-72408386D01*
X79791688Y-72563258D01*
X79824391Y-72727670D01*
X79824391Y-72895302D01*
X79791688Y-73059714D01*
X79727538Y-73214586D01*
X79634406Y-73353967D01*
X79515872Y-73472501D01*
X79376491Y-73565633D01*
X79221619Y-73629783D01*
X79057207Y-73662486D01*
X78889575Y-73662486D01*
X78725163Y-73629783D01*
X78570291Y-73565633D01*
X78430910Y-73472501D01*
X78312376Y-73353967D01*
X78219244Y-73214586D01*
X78155094Y-73059714D01*
X78122391Y-72895302D01*
X78122391Y-72727670D01*
X78155094Y-72563258D01*
X78219244Y-72408386D01*
X78312376Y-72269005D01*
X78430910Y-72150471D01*
X78570291Y-72057339D01*
X78725163Y-71993189D01*
X78889575Y-71960486D01*
X79057207Y-71960486D01*
X79221619Y-71993189D01*
X79221619Y-71993189D01*
G37*
G36*
X85372694Y-71891991D02*
X85372697Y-71891992D01*
X85372698Y-71891992D01*
X85533112Y-71940653D01*
X85533114Y-71940654D01*
X85533117Y-71940655D01*
X85680951Y-72019673D01*
X85810532Y-72126019D01*
X85916878Y-72255600D01*
X85995896Y-72403434D01*
X85995897Y-72403437D01*
X85995898Y-72403439D01*
X86044559Y-72563853D01*
X86044560Y-72563857D01*
X86060990Y-72730678D01*
X86044560Y-72897499D01*
X86044559Y-72897502D01*
X86044559Y-72897503D01*
X86010494Y-73009802D01*
X85995896Y-73057922D01*
X85916878Y-73205756D01*
X85810532Y-73335337D01*
X85680951Y-73441683D01*
X85533117Y-73520701D01*
X85533114Y-73520702D01*
X85533112Y-73520703D01*
X85372698Y-73569364D01*
X85372697Y-73569364D01*
X85372694Y-73569365D01*
X85247677Y-73581678D01*
X85164069Y-73581678D01*
X85039052Y-73569365D01*
X85039049Y-73569364D01*
X85039048Y-73569364D01*
X84878634Y-73520703D01*
X84878632Y-73520702D01*
X84878629Y-73520701D01*
X84730795Y-73441683D01*
X84601214Y-73335337D01*
X84494868Y-73205756D01*
X84415850Y-73057922D01*
X84401253Y-73009802D01*
X84367187Y-72897503D01*
X84367187Y-72897502D01*
X84367186Y-72897499D01*
X84350756Y-72730678D01*
X84367186Y-72563857D01*
X84367187Y-72563853D01*
X84415848Y-72403439D01*
X84415849Y-72403437D01*
X84415850Y-72403434D01*
X84494868Y-72255600D01*
X84601214Y-72126019D01*
X84730795Y-72019673D01*
X84878629Y-71940655D01*
X84878632Y-71940654D01*
X84878634Y-71940653D01*
X85039048Y-71891992D01*
X85039049Y-71891992D01*
X85039052Y-71891991D01*
X85164069Y-71879678D01*
X85247677Y-71879678D01*
X85372694Y-71891991D01*
X85372694Y-71891991D01*
G37*
G36*
X94872694Y-71812799D02*
X94872697Y-71812800D01*
X94872698Y-71812800D01*
X95033112Y-71861461D01*
X95033114Y-71861462D01*
X95033117Y-71861463D01*
X95180951Y-71940481D01*
X95310532Y-72046827D01*
X95416878Y-72176408D01*
X95495896Y-72324242D01*
X95495897Y-72324245D01*
X95495898Y-72324247D01*
X95544559Y-72484661D01*
X95544560Y-72484665D01*
X95560990Y-72651486D01*
X95544560Y-72818307D01*
X95544559Y-72818310D01*
X95544559Y-72818311D01*
X95509482Y-72933946D01*
X95495896Y-72978730D01*
X95416878Y-73126564D01*
X95310532Y-73256145D01*
X95180951Y-73362491D01*
X95033117Y-73441509D01*
X95033114Y-73441510D01*
X95033112Y-73441511D01*
X94872698Y-73490172D01*
X94872697Y-73490172D01*
X94872694Y-73490173D01*
X94747677Y-73502486D01*
X94664069Y-73502486D01*
X94539052Y-73490173D01*
X94539049Y-73490172D01*
X94539048Y-73490172D01*
X94378634Y-73441511D01*
X94378632Y-73441510D01*
X94378629Y-73441509D01*
X94230795Y-73362491D01*
X94101214Y-73256145D01*
X93994868Y-73126564D01*
X93915850Y-72978730D01*
X93902265Y-72933946D01*
X93867187Y-72818311D01*
X93867187Y-72818310D01*
X93867186Y-72818307D01*
X93850756Y-72651486D01*
X93867186Y-72484665D01*
X93867187Y-72484661D01*
X93915848Y-72324247D01*
X93915849Y-72324245D01*
X93915850Y-72324242D01*
X93994868Y-72176408D01*
X94101214Y-72046827D01*
X94230795Y-71940481D01*
X94378629Y-71861463D01*
X94378632Y-71861462D01*
X94378634Y-71861461D01*
X94539048Y-71812800D01*
X94539049Y-71812800D01*
X94539052Y-71812799D01*
X94664069Y-71800486D01*
X94747677Y-71800486D01*
X94872694Y-71812799D01*
X94872694Y-71812799D01*
G37*
G36*
X97872694Y-71812799D02*
X97872697Y-71812800D01*
X97872698Y-71812800D01*
X98033112Y-71861461D01*
X98033114Y-71861462D01*
X98033117Y-71861463D01*
X98180951Y-71940481D01*
X98310532Y-72046827D01*
X98416878Y-72176408D01*
X98495896Y-72324242D01*
X98495897Y-72324245D01*
X98495898Y-72324247D01*
X98544559Y-72484661D01*
X98544560Y-72484665D01*
X98560990Y-72651486D01*
X98544560Y-72818307D01*
X98544559Y-72818310D01*
X98544559Y-72818311D01*
X98509482Y-72933946D01*
X98495896Y-72978730D01*
X98416878Y-73126564D01*
X98310532Y-73256145D01*
X98180951Y-73362491D01*
X98033117Y-73441509D01*
X98033114Y-73441510D01*
X98033112Y-73441511D01*
X97872698Y-73490172D01*
X97872697Y-73490172D01*
X97872694Y-73490173D01*
X97747677Y-73502486D01*
X97664069Y-73502486D01*
X97539052Y-73490173D01*
X97539049Y-73490172D01*
X97539048Y-73490172D01*
X97378634Y-73441511D01*
X97378632Y-73441510D01*
X97378629Y-73441509D01*
X97230795Y-73362491D01*
X97101214Y-73256145D01*
X96994868Y-73126564D01*
X96915850Y-72978730D01*
X96902265Y-72933946D01*
X96867187Y-72818311D01*
X96867187Y-72818310D01*
X96867186Y-72818307D01*
X96850756Y-72651486D01*
X96867186Y-72484665D01*
X96867187Y-72484661D01*
X96915848Y-72324247D01*
X96915849Y-72324245D01*
X96915850Y-72324242D01*
X96994868Y-72176408D01*
X97101214Y-72046827D01*
X97230795Y-71940481D01*
X97378629Y-71861463D01*
X97378632Y-71861462D01*
X97378634Y-71861461D01*
X97539048Y-71812800D01*
X97539049Y-71812800D01*
X97539052Y-71812799D01*
X97664069Y-71800486D01*
X97747677Y-71800486D01*
X97872694Y-71812799D01*
X97872694Y-71812799D01*
G37*
G36*
X88598655Y-71768015D02*
X88598658Y-71768016D01*
X88598659Y-71768016D01*
X88759073Y-71816677D01*
X88759075Y-71816678D01*
X88759078Y-71816679D01*
X88906912Y-71895697D01*
X89036493Y-72002043D01*
X89142839Y-72131624D01*
X89221857Y-72279458D01*
X89221858Y-72279461D01*
X89221859Y-72279463D01*
X89260967Y-72408386D01*
X89270521Y-72439881D01*
X89286951Y-72606702D01*
X89270521Y-72773523D01*
X89270520Y-72773526D01*
X89270520Y-72773527D01*
X89231215Y-72903100D01*
X89221857Y-72933946D01*
X89142839Y-73081780D01*
X89036493Y-73211361D01*
X88906912Y-73317707D01*
X88759078Y-73396725D01*
X88759075Y-73396726D01*
X88759073Y-73396727D01*
X88598659Y-73445388D01*
X88598658Y-73445388D01*
X88598655Y-73445389D01*
X88473638Y-73457702D01*
X88390030Y-73457702D01*
X88265013Y-73445389D01*
X88265010Y-73445388D01*
X88265009Y-73445388D01*
X88104595Y-73396727D01*
X88104593Y-73396726D01*
X88104590Y-73396725D01*
X87956756Y-73317707D01*
X87827175Y-73211361D01*
X87720829Y-73081780D01*
X87641811Y-72933946D01*
X87632454Y-72903100D01*
X87593148Y-72773527D01*
X87593148Y-72773526D01*
X87593147Y-72773523D01*
X87576717Y-72606702D01*
X87593147Y-72439881D01*
X87602701Y-72408386D01*
X87641809Y-72279463D01*
X87641810Y-72279461D01*
X87641811Y-72279458D01*
X87720829Y-72131624D01*
X87827175Y-72002043D01*
X87956756Y-71895697D01*
X88104590Y-71816679D01*
X88104593Y-71816678D01*
X88104595Y-71816677D01*
X88265009Y-71768016D01*
X88265010Y-71768016D01*
X88265013Y-71768015D01*
X88390030Y-71755702D01*
X88473638Y-71755702D01*
X88598655Y-71768015D01*
X88598655Y-71768015D01*
G37*
G36*
X91680062Y-71788405D02*
X91834934Y-71852555D01*
X91974315Y-71945687D01*
X92092849Y-72064221D01*
X92185981Y-72203602D01*
X92250131Y-72358474D01*
X92282834Y-72522886D01*
X92282834Y-72690518D01*
X92250131Y-72854930D01*
X92185981Y-73009802D01*
X92092849Y-73149183D01*
X91974315Y-73267717D01*
X91834934Y-73360849D01*
X91680062Y-73424999D01*
X91515650Y-73457702D01*
X91348018Y-73457702D01*
X91183606Y-73424999D01*
X91028734Y-73360849D01*
X90889353Y-73267717D01*
X90770819Y-73149183D01*
X90677687Y-73009802D01*
X90613537Y-72854930D01*
X90580834Y-72690518D01*
X90580834Y-72522886D01*
X90613537Y-72358474D01*
X90677687Y-72203602D01*
X90770819Y-72064221D01*
X90889353Y-71945687D01*
X91028734Y-71852555D01*
X91183606Y-71788405D01*
X91348018Y-71755702D01*
X91515650Y-71755702D01*
X91680062Y-71788405D01*
X91680062Y-71788405D01*
G37*
G36*
X72248228Y-71681703D02*
X72403100Y-71745853D01*
X72542481Y-71838985D01*
X72661015Y-71957519D01*
X72754147Y-72096900D01*
X72818297Y-72251772D01*
X72851000Y-72416184D01*
X72851000Y-72583816D01*
X72818297Y-72748228D01*
X72754147Y-72903100D01*
X72661015Y-73042481D01*
X72542481Y-73161015D01*
X72403100Y-73254147D01*
X72248228Y-73318297D01*
X72083816Y-73351000D01*
X71916184Y-73351000D01*
X71751772Y-73318297D01*
X71596900Y-73254147D01*
X71457519Y-73161015D01*
X71338985Y-73042481D01*
X71245853Y-72903100D01*
X71181703Y-72748228D01*
X71149000Y-72583816D01*
X71149000Y-72416184D01*
X71181703Y-72251772D01*
X71245853Y-72096900D01*
X71338985Y-71957519D01*
X71457519Y-71838985D01*
X71596900Y-71745853D01*
X71751772Y-71681703D01*
X71916184Y-71649000D01*
X72083816Y-71649000D01*
X72248228Y-71681703D01*
X72248228Y-71681703D01*
G37*
G36*
X63666821Y-71001313D02*
X63666824Y-71001314D01*
X63666825Y-71001314D01*
X63827239Y-71049975D01*
X63827241Y-71049976D01*
X63827244Y-71049977D01*
X63975078Y-71128995D01*
X64104659Y-71235341D01*
X64211005Y-71364922D01*
X64290023Y-71512756D01*
X64290024Y-71512759D01*
X64290025Y-71512761D01*
X64338686Y-71673175D01*
X64338687Y-71673179D01*
X64355117Y-71840000D01*
X64338687Y-72006821D01*
X64338686Y-72006824D01*
X64338686Y-72006825D01*
X64295112Y-72150471D01*
X64290023Y-72167244D01*
X64211005Y-72315078D01*
X64104659Y-72444659D01*
X63975078Y-72551005D01*
X63827244Y-72630023D01*
X63827241Y-72630024D01*
X63827239Y-72630025D01*
X63666825Y-72678686D01*
X63666824Y-72678686D01*
X63666821Y-72678687D01*
X63541804Y-72691000D01*
X63458196Y-72691000D01*
X63333179Y-72678687D01*
X63333176Y-72678686D01*
X63333175Y-72678686D01*
X63172761Y-72630025D01*
X63172759Y-72630024D01*
X63172756Y-72630023D01*
X63024922Y-72551005D01*
X62895341Y-72444659D01*
X62788995Y-72315078D01*
X62709977Y-72167244D01*
X62704889Y-72150471D01*
X62661314Y-72006825D01*
X62661314Y-72006824D01*
X62661313Y-72006821D01*
X62644883Y-71840000D01*
X62661313Y-71673179D01*
X62661314Y-71673175D01*
X62709975Y-71512761D01*
X62709976Y-71512759D01*
X62709977Y-71512756D01*
X62788995Y-71364922D01*
X62895341Y-71235341D01*
X63024922Y-71128995D01*
X63172756Y-71049977D01*
X63172759Y-71049976D01*
X63172761Y-71049975D01*
X63333175Y-71001314D01*
X63333176Y-71001314D01*
X63333179Y-71001313D01*
X63458196Y-70989000D01*
X63541804Y-70989000D01*
X63666821Y-71001313D01*
X63666821Y-71001313D01*
G37*
G36*
X63624180Y-67355662D02*
X63725635Y-67365654D01*
X63942600Y-67431470D01*
X63942602Y-67431471D01*
X63942605Y-67431472D01*
X64142556Y-67538347D01*
X64317818Y-67682182D01*
X64461653Y-67857444D01*
X64568528Y-68057395D01*
X64568529Y-68057398D01*
X64568530Y-68057400D01*
X64634346Y-68274365D01*
X64656569Y-68500000D01*
X64634346Y-68725635D01*
X64593283Y-68861000D01*
X64568528Y-68942605D01*
X64461653Y-69142556D01*
X64317818Y-69317818D01*
X64142556Y-69461653D01*
X63942605Y-69568528D01*
X63942602Y-69568529D01*
X63942600Y-69568530D01*
X63725635Y-69634346D01*
X63624180Y-69644338D01*
X63556545Y-69651000D01*
X63443455Y-69651000D01*
X63375820Y-69644338D01*
X63274365Y-69634346D01*
X63057400Y-69568530D01*
X63057398Y-69568529D01*
X63057395Y-69568528D01*
X62857444Y-69461653D01*
X62682182Y-69317818D01*
X62538347Y-69142556D01*
X62431472Y-68942605D01*
X62406717Y-68861000D01*
X62365654Y-68725635D01*
X62343431Y-68500000D01*
X62365654Y-68274365D01*
X62431470Y-68057400D01*
X62431471Y-68057398D01*
X62431472Y-68057395D01*
X62538347Y-67857444D01*
X62682182Y-67682182D01*
X62857444Y-67538347D01*
X63057395Y-67431472D01*
X63057398Y-67431471D01*
X63057400Y-67431470D01*
X63274365Y-67365654D01*
X63375820Y-67355662D01*
X63443455Y-67349000D01*
X63556545Y-67349000D01*
X63624180Y-67355662D01*
X63624180Y-67355662D01*
G37*
G36*
X76628228Y-67191703D02*
X76783100Y-67255853D01*
X76922481Y-67348985D01*
X77041015Y-67467519D01*
X77134147Y-67606900D01*
X77198297Y-67761772D01*
X77231000Y-67926184D01*
X77231000Y-68093816D01*
X77198297Y-68258228D01*
X77134147Y-68413100D01*
X77041015Y-68552481D01*
X76922481Y-68671015D01*
X76783100Y-68764147D01*
X76628228Y-68828297D01*
X76463816Y-68861000D01*
X76296184Y-68861000D01*
X76131772Y-68828297D01*
X75976900Y-68764147D01*
X75837519Y-68671015D01*
X75718985Y-68552481D01*
X75625853Y-68413100D01*
X75561703Y-68258228D01*
X75529000Y-68093816D01*
X75529000Y-67926184D01*
X75561703Y-67761772D01*
X75625853Y-67606900D01*
X75718985Y-67467519D01*
X75837519Y-67348985D01*
X75976900Y-67255853D01*
X76131772Y-67191703D01*
X76296184Y-67159000D01*
X76463816Y-67159000D01*
X76628228Y-67191703D01*
X76628228Y-67191703D01*
G37*
G36*
X81708228Y-67191703D02*
X81863100Y-67255853D01*
X82002481Y-67348985D01*
X82121015Y-67467519D01*
X82214147Y-67606900D01*
X82278297Y-67761772D01*
X82311000Y-67926184D01*
X82311000Y-68093816D01*
X82278297Y-68258228D01*
X82214147Y-68413100D01*
X82121015Y-68552481D01*
X82002481Y-68671015D01*
X81863100Y-68764147D01*
X81708228Y-68828297D01*
X81543816Y-68861000D01*
X81376184Y-68861000D01*
X81211772Y-68828297D01*
X81056900Y-68764147D01*
X80917519Y-68671015D01*
X80798985Y-68552481D01*
X80705853Y-68413100D01*
X80641703Y-68258228D01*
X80609000Y-68093816D01*
X80609000Y-67926184D01*
X80641703Y-67761772D01*
X80705853Y-67606900D01*
X80798985Y-67467519D01*
X80917519Y-67348985D01*
X81056900Y-67255853D01*
X81211772Y-67191703D01*
X81376184Y-67159000D01*
X81543816Y-67159000D01*
X81708228Y-67191703D01*
X81708228Y-67191703D01*
G37*
G36*
X91868228Y-67191703D02*
X92023100Y-67255853D01*
X92162481Y-67348985D01*
X92281015Y-67467519D01*
X92374147Y-67606900D01*
X92438297Y-67761772D01*
X92471000Y-67926184D01*
X92471000Y-68093816D01*
X92438297Y-68258228D01*
X92374147Y-68413100D01*
X92281015Y-68552481D01*
X92162481Y-68671015D01*
X92023100Y-68764147D01*
X91868228Y-68828297D01*
X91703816Y-68861000D01*
X91536184Y-68861000D01*
X91371772Y-68828297D01*
X91216900Y-68764147D01*
X91077519Y-68671015D01*
X90958985Y-68552481D01*
X90865853Y-68413100D01*
X90801703Y-68258228D01*
X90769000Y-68093816D01*
X90769000Y-67926184D01*
X90801703Y-67761772D01*
X90865853Y-67606900D01*
X90958985Y-67467519D01*
X91077519Y-67348985D01*
X91216900Y-67255853D01*
X91371772Y-67191703D01*
X91536184Y-67159000D01*
X91703816Y-67159000D01*
X91868228Y-67191703D01*
X91868228Y-67191703D01*
G37*
G36*
X79168228Y-67191703D02*
X79323100Y-67255853D01*
X79462481Y-67348985D01*
X79581015Y-67467519D01*
X79674147Y-67606900D01*
X79738297Y-67761772D01*
X79771000Y-67926184D01*
X79771000Y-68093816D01*
X79738297Y-68258228D01*
X79674147Y-68413100D01*
X79581015Y-68552481D01*
X79462481Y-68671015D01*
X79323100Y-68764147D01*
X79168228Y-68828297D01*
X79003816Y-68861000D01*
X78836184Y-68861000D01*
X78671772Y-68828297D01*
X78516900Y-68764147D01*
X78377519Y-68671015D01*
X78258985Y-68552481D01*
X78165853Y-68413100D01*
X78101703Y-68258228D01*
X78069000Y-68093816D01*
X78069000Y-67926184D01*
X78101703Y-67761772D01*
X78165853Y-67606900D01*
X78258985Y-67467519D01*
X78377519Y-67348985D01*
X78516900Y-67255853D01*
X78671772Y-67191703D01*
X78836184Y-67159000D01*
X79003816Y-67159000D01*
X79168228Y-67191703D01*
X79168228Y-67191703D01*
G37*
G36*
X86788228Y-67191703D02*
X86943100Y-67255853D01*
X87082481Y-67348985D01*
X87201015Y-67467519D01*
X87294147Y-67606900D01*
X87358297Y-67761772D01*
X87391000Y-67926184D01*
X87391000Y-68093816D01*
X87358297Y-68258228D01*
X87294147Y-68413100D01*
X87201015Y-68552481D01*
X87082481Y-68671015D01*
X86943100Y-68764147D01*
X86788228Y-68828297D01*
X86623816Y-68861000D01*
X86456184Y-68861000D01*
X86291772Y-68828297D01*
X86136900Y-68764147D01*
X85997519Y-68671015D01*
X85878985Y-68552481D01*
X85785853Y-68413100D01*
X85721703Y-68258228D01*
X85689000Y-68093816D01*
X85689000Y-67926184D01*
X85721703Y-67761772D01*
X85785853Y-67606900D01*
X85878985Y-67467519D01*
X85997519Y-67348985D01*
X86136900Y-67255853D01*
X86291772Y-67191703D01*
X86456184Y-67159000D01*
X86623816Y-67159000D01*
X86788228Y-67191703D01*
X86788228Y-67191703D01*
G37*
G36*
X89328228Y-67191703D02*
X89483100Y-67255853D01*
X89622481Y-67348985D01*
X89741015Y-67467519D01*
X89834147Y-67606900D01*
X89898297Y-67761772D01*
X89931000Y-67926184D01*
X89931000Y-68093816D01*
X89898297Y-68258228D01*
X89834147Y-68413100D01*
X89741015Y-68552481D01*
X89622481Y-68671015D01*
X89483100Y-68764147D01*
X89328228Y-68828297D01*
X89163816Y-68861000D01*
X88996184Y-68861000D01*
X88831772Y-68828297D01*
X88676900Y-68764147D01*
X88537519Y-68671015D01*
X88418985Y-68552481D01*
X88325853Y-68413100D01*
X88261703Y-68258228D01*
X88229000Y-68093816D01*
X88229000Y-67926184D01*
X88261703Y-67761772D01*
X88325853Y-67606900D01*
X88418985Y-67467519D01*
X88537519Y-67348985D01*
X88676900Y-67255853D01*
X88831772Y-67191703D01*
X88996184Y-67159000D01*
X89163816Y-67159000D01*
X89328228Y-67191703D01*
X89328228Y-67191703D01*
G37*
G36*
X84248228Y-67191703D02*
X84403100Y-67255853D01*
X84542481Y-67348985D01*
X84661015Y-67467519D01*
X84754147Y-67606900D01*
X84818297Y-67761772D01*
X84851000Y-67926184D01*
X84851000Y-68093816D01*
X84818297Y-68258228D01*
X84754147Y-68413100D01*
X84661015Y-68552481D01*
X84542481Y-68671015D01*
X84403100Y-68764147D01*
X84248228Y-68828297D01*
X84083816Y-68861000D01*
X83916184Y-68861000D01*
X83751772Y-68828297D01*
X83596900Y-68764147D01*
X83457519Y-68671015D01*
X83338985Y-68552481D01*
X83245853Y-68413100D01*
X83181703Y-68258228D01*
X83149000Y-68093816D01*
X83149000Y-67926184D01*
X83181703Y-67761772D01*
X83245853Y-67606900D01*
X83338985Y-67467519D01*
X83457519Y-67348985D01*
X83596900Y-67255853D01*
X83751772Y-67191703D01*
X83916184Y-67159000D01*
X84083816Y-67159000D01*
X84248228Y-67191703D01*
X84248228Y-67191703D01*
G37*
G36*
X91868228Y-64651703D02*
X92023100Y-64715853D01*
X92162481Y-64808985D01*
X92281015Y-64927519D01*
X92374147Y-65066900D01*
X92438297Y-65221772D01*
X92471000Y-65386184D01*
X92471000Y-65553816D01*
X92438297Y-65718228D01*
X92374147Y-65873100D01*
X92281015Y-66012481D01*
X92162481Y-66131015D01*
X92023100Y-66224147D01*
X91868228Y-66288297D01*
X91703816Y-66321000D01*
X91536184Y-66321000D01*
X91371772Y-66288297D01*
X91216900Y-66224147D01*
X91077519Y-66131015D01*
X90958985Y-66012481D01*
X90865853Y-65873100D01*
X90801703Y-65718228D01*
X90769000Y-65553816D01*
X90769000Y-65386184D01*
X90801703Y-65221772D01*
X90865853Y-65066900D01*
X90958985Y-64927519D01*
X91077519Y-64808985D01*
X91216900Y-64715853D01*
X91371772Y-64651703D01*
X91536184Y-64619000D01*
X91703816Y-64619000D01*
X91868228Y-64651703D01*
X91868228Y-64651703D01*
G37*
G36*
X76628228Y-64651703D02*
X76783100Y-64715853D01*
X76922481Y-64808985D01*
X77041015Y-64927519D01*
X77134147Y-65066900D01*
X77198297Y-65221772D01*
X77231000Y-65386184D01*
X77231000Y-65553816D01*
X77198297Y-65718228D01*
X77134147Y-65873100D01*
X77041015Y-66012481D01*
X76922481Y-66131015D01*
X76783100Y-66224147D01*
X76628228Y-66288297D01*
X76463816Y-66321000D01*
X76296184Y-66321000D01*
X76131772Y-66288297D01*
X75976900Y-66224147D01*
X75837519Y-66131015D01*
X75718985Y-66012481D01*
X75625853Y-65873100D01*
X75561703Y-65718228D01*
X75529000Y-65553816D01*
X75529000Y-65386184D01*
X75561703Y-65221772D01*
X75625853Y-65066900D01*
X75718985Y-64927519D01*
X75837519Y-64808985D01*
X75976900Y-64715853D01*
X76131772Y-64651703D01*
X76296184Y-64619000D01*
X76463816Y-64619000D01*
X76628228Y-64651703D01*
X76628228Y-64651703D01*
G37*
G36*
X88624180Y-64015662D02*
X88725635Y-64025654D01*
X88942600Y-64091470D01*
X88942602Y-64091471D01*
X88942605Y-64091472D01*
X89142556Y-64198347D01*
X89317818Y-64342182D01*
X89461653Y-64517444D01*
X89568528Y-64717395D01*
X89568529Y-64717398D01*
X89568530Y-64717400D01*
X89634346Y-64934365D01*
X89656569Y-65160000D01*
X89634346Y-65385635D01*
X89568530Y-65602600D01*
X89568528Y-65602605D01*
X89461653Y-65802556D01*
X89317818Y-65977818D01*
X89142556Y-66121653D01*
X88942605Y-66228528D01*
X88942602Y-66228529D01*
X88942600Y-66228530D01*
X88725635Y-66294346D01*
X88624180Y-66304338D01*
X88556545Y-66311000D01*
X88443455Y-66311000D01*
X88375820Y-66304338D01*
X88274365Y-66294346D01*
X88057400Y-66228530D01*
X88057398Y-66228529D01*
X88057395Y-66228528D01*
X87857444Y-66121653D01*
X87682182Y-65977818D01*
X87538347Y-65802556D01*
X87431472Y-65602605D01*
X87431470Y-65602600D01*
X87365654Y-65385635D01*
X87343431Y-65160000D01*
X87365654Y-64934365D01*
X87431470Y-64717400D01*
X87431471Y-64717398D01*
X87431472Y-64717395D01*
X87538347Y-64517444D01*
X87682182Y-64342182D01*
X87857444Y-64198347D01*
X88057395Y-64091472D01*
X88057398Y-64091471D01*
X88057400Y-64091470D01*
X88274365Y-64025654D01*
X88375820Y-64015662D01*
X88443455Y-64009000D01*
X88556545Y-64009000D01*
X88624180Y-64015662D01*
X88624180Y-64015662D01*
G37*
G36*
X86651000Y-66151000D02*
X84349000Y-66151000D01*
X84349000Y-63849000D01*
X86651000Y-63849000D01*
X86651000Y-66151000D01*
X86651000Y-66151000D01*
G37*
G36*
X91868228Y-62111703D02*
X92023100Y-62175853D01*
X92162481Y-62268985D01*
X92281015Y-62387519D01*
X92374147Y-62526900D01*
X92438297Y-62681772D01*
X92471000Y-62846184D01*
X92471000Y-63013816D01*
X92438297Y-63178228D01*
X92374147Y-63333100D01*
X92281015Y-63472481D01*
X92162481Y-63591015D01*
X92023100Y-63684147D01*
X91868228Y-63748297D01*
X91703816Y-63781000D01*
X91536184Y-63781000D01*
X91371772Y-63748297D01*
X91216900Y-63684147D01*
X91077519Y-63591015D01*
X90958985Y-63472481D01*
X90865853Y-63333100D01*
X90801703Y-63178228D01*
X90769000Y-63013816D01*
X90769000Y-62846184D01*
X90801703Y-62681772D01*
X90865853Y-62526900D01*
X90958985Y-62387519D01*
X91077519Y-62268985D01*
X91216900Y-62175853D01*
X91371772Y-62111703D01*
X91536184Y-62079000D01*
X91703816Y-62079000D01*
X91868228Y-62111703D01*
X91868228Y-62111703D01*
G37*
G36*
X76628228Y-62111703D02*
X76783100Y-62175853D01*
X76922481Y-62268985D01*
X77041015Y-62387519D01*
X77134147Y-62526900D01*
X77198297Y-62681772D01*
X77231000Y-62846184D01*
X77231000Y-63013816D01*
X77198297Y-63178228D01*
X77134147Y-63333100D01*
X77041015Y-63472481D01*
X76922481Y-63591015D01*
X76783100Y-63684147D01*
X76628228Y-63748297D01*
X76463816Y-63781000D01*
X76296184Y-63781000D01*
X76131772Y-63748297D01*
X75976900Y-63684147D01*
X75837519Y-63591015D01*
X75718985Y-63472481D01*
X75625853Y-63333100D01*
X75561703Y-63178228D01*
X75529000Y-63013816D01*
X75529000Y-62846184D01*
X75561703Y-62681772D01*
X75625853Y-62526900D01*
X75718985Y-62387519D01*
X75837519Y-62268985D01*
X75976900Y-62175853D01*
X76131772Y-62111703D01*
X76296184Y-62079000D01*
X76463816Y-62079000D01*
X76628228Y-62111703D01*
X76628228Y-62111703D01*
G37*
G36*
X91868228Y-59571703D02*
X92023100Y-59635853D01*
X92162481Y-59728985D01*
X92281015Y-59847519D01*
X92374147Y-59986900D01*
X92438297Y-60141772D01*
X92471000Y-60306184D01*
X92471000Y-60473816D01*
X92438297Y-60638228D01*
X92374147Y-60793100D01*
X92281015Y-60932481D01*
X92162481Y-61051015D01*
X92023100Y-61144147D01*
X91868228Y-61208297D01*
X91703816Y-61241000D01*
X91536184Y-61241000D01*
X91371772Y-61208297D01*
X91216900Y-61144147D01*
X91077519Y-61051015D01*
X90958985Y-60932481D01*
X90865853Y-60793100D01*
X90801703Y-60638228D01*
X90769000Y-60473816D01*
X90769000Y-60306184D01*
X90801703Y-60141772D01*
X90865853Y-59986900D01*
X90958985Y-59847519D01*
X91077519Y-59728985D01*
X91216900Y-59635853D01*
X91371772Y-59571703D01*
X91536184Y-59539000D01*
X91703816Y-59539000D01*
X91868228Y-59571703D01*
X91868228Y-59571703D01*
G37*
G36*
X76628228Y-59571703D02*
X76783100Y-59635853D01*
X76922481Y-59728985D01*
X77041015Y-59847519D01*
X77134147Y-59986900D01*
X77198297Y-60141772D01*
X77231000Y-60306184D01*
X77231000Y-60473816D01*
X77198297Y-60638228D01*
X77134147Y-60793100D01*
X77041015Y-60932481D01*
X76922481Y-61051015D01*
X76783100Y-61144147D01*
X76628228Y-61208297D01*
X76463816Y-61241000D01*
X76296184Y-61241000D01*
X76131772Y-61208297D01*
X75976900Y-61144147D01*
X75837519Y-61051015D01*
X75718985Y-60932481D01*
X75625853Y-60793100D01*
X75561703Y-60638228D01*
X75529000Y-60473816D01*
X75529000Y-60306184D01*
X75561703Y-60141772D01*
X75625853Y-59986900D01*
X75718985Y-59847519D01*
X75837519Y-59728985D01*
X75976900Y-59635853D01*
X76131772Y-59571703D01*
X76296184Y-59539000D01*
X76463816Y-59539000D01*
X76628228Y-59571703D01*
X76628228Y-59571703D01*
G37*
G36*
X99110443Y-58665519D02*
X99176627Y-58672037D01*
X99272105Y-58701000D01*
X99346467Y-58723557D01*
X99485087Y-58797652D01*
X99502991Y-58807222D01*
X99538729Y-58836552D01*
X99640186Y-58919814D01*
X99723448Y-59021271D01*
X99752778Y-59057009D01*
X99752779Y-59057011D01*
X99836443Y-59213533D01*
X99836443Y-59213534D01*
X99887963Y-59383373D01*
X99905359Y-59560000D01*
X99887963Y-59736627D01*
X99854324Y-59847519D01*
X99836443Y-59906467D01*
X99793450Y-59986900D01*
X99752778Y-60062991D01*
X99723448Y-60098729D01*
X99640186Y-60200186D01*
X99538729Y-60283448D01*
X99502991Y-60312778D01*
X99502989Y-60312779D01*
X99346467Y-60396443D01*
X99289853Y-60413616D01*
X99176627Y-60447963D01*
X99110442Y-60454482D01*
X99044260Y-60461000D01*
X98955740Y-60461000D01*
X98889558Y-60454482D01*
X98823373Y-60447963D01*
X98710147Y-60413616D01*
X98653533Y-60396443D01*
X98497011Y-60312779D01*
X98497009Y-60312778D01*
X98461271Y-60283448D01*
X98359814Y-60200186D01*
X98276552Y-60098729D01*
X98247222Y-60062991D01*
X98206550Y-59986900D01*
X98163557Y-59906467D01*
X98145676Y-59847519D01*
X98112037Y-59736627D01*
X98094641Y-59560000D01*
X98112037Y-59383373D01*
X98163557Y-59213534D01*
X98163557Y-59213533D01*
X98247221Y-59057011D01*
X98247222Y-59057009D01*
X98276552Y-59021271D01*
X98359814Y-58919814D01*
X98461271Y-58836552D01*
X98497009Y-58807222D01*
X98514913Y-58797652D01*
X98653533Y-58723557D01*
X98727895Y-58701000D01*
X98823373Y-58672037D01*
X98889557Y-58665519D01*
X98955740Y-58659000D01*
X99044260Y-58659000D01*
X99110443Y-58665519D01*
X99110443Y-58665519D01*
G37*
G36*
X64651000Y-59491000D02*
X62349000Y-59491000D01*
X62349000Y-57189000D01*
X64651000Y-57189000D01*
X64651000Y-59491000D01*
X64651000Y-59491000D01*
G37*
G36*
X91868228Y-57031703D02*
X92023100Y-57095853D01*
X92162481Y-57188985D01*
X92281015Y-57307519D01*
X92374147Y-57446900D01*
X92438297Y-57601772D01*
X92471000Y-57766184D01*
X92471000Y-57933816D01*
X92438297Y-58098228D01*
X92374147Y-58253100D01*
X92281015Y-58392481D01*
X92162481Y-58511015D01*
X92023100Y-58604147D01*
X91868228Y-58668297D01*
X91703816Y-58701000D01*
X91536184Y-58701000D01*
X91371772Y-58668297D01*
X91216900Y-58604147D01*
X91077519Y-58511015D01*
X90958985Y-58392481D01*
X90865853Y-58253100D01*
X90801703Y-58098228D01*
X90769000Y-57933816D01*
X90769000Y-57766184D01*
X90801703Y-57601772D01*
X90865853Y-57446900D01*
X90958985Y-57307519D01*
X91077519Y-57188985D01*
X91216900Y-57095853D01*
X91371772Y-57031703D01*
X91536184Y-56999000D01*
X91703816Y-56999000D01*
X91868228Y-57031703D01*
X91868228Y-57031703D01*
G37*
G36*
X76628228Y-57031703D02*
X76783100Y-57095853D01*
X76922481Y-57188985D01*
X77041015Y-57307519D01*
X77134147Y-57446900D01*
X77198297Y-57601772D01*
X77231000Y-57766184D01*
X77231000Y-57933816D01*
X77198297Y-58098228D01*
X77134147Y-58253100D01*
X77041015Y-58392481D01*
X76922481Y-58511015D01*
X76783100Y-58604147D01*
X76628228Y-58668297D01*
X76463816Y-58701000D01*
X76296184Y-58701000D01*
X76131772Y-58668297D01*
X75976900Y-58604147D01*
X75837519Y-58511015D01*
X75718985Y-58392481D01*
X75625853Y-58253100D01*
X75561703Y-58098228D01*
X75529000Y-57933816D01*
X75529000Y-57766184D01*
X75561703Y-57601772D01*
X75625853Y-57446900D01*
X75718985Y-57307519D01*
X75837519Y-57188985D01*
X75976900Y-57095853D01*
X76131772Y-57031703D01*
X76296184Y-56999000D01*
X76463816Y-56999000D01*
X76628228Y-57031703D01*
X76628228Y-57031703D01*
G37*
G36*
X99110442Y-56125518D02*
X99176627Y-56132037D01*
X99272105Y-56161000D01*
X99346467Y-56183557D01*
X99485087Y-56257652D01*
X99502991Y-56267222D01*
X99538729Y-56296552D01*
X99640186Y-56379814D01*
X99723448Y-56481271D01*
X99752778Y-56517009D01*
X99752779Y-56517011D01*
X99836443Y-56673533D01*
X99836443Y-56673534D01*
X99887963Y-56843373D01*
X99905359Y-57020000D01*
X99887963Y-57196627D01*
X99854324Y-57307519D01*
X99836443Y-57366467D01*
X99793450Y-57446900D01*
X99752778Y-57522991D01*
X99723448Y-57558729D01*
X99640186Y-57660186D01*
X99538729Y-57743448D01*
X99502991Y-57772778D01*
X99502989Y-57772779D01*
X99346467Y-57856443D01*
X99289853Y-57873616D01*
X99176627Y-57907963D01*
X99110442Y-57914482D01*
X99044260Y-57921000D01*
X98955740Y-57921000D01*
X98889558Y-57914482D01*
X98823373Y-57907963D01*
X98710147Y-57873616D01*
X98653533Y-57856443D01*
X98497011Y-57772779D01*
X98497009Y-57772778D01*
X98461271Y-57743448D01*
X98359814Y-57660186D01*
X98276552Y-57558729D01*
X98247222Y-57522991D01*
X98206550Y-57446900D01*
X98163557Y-57366467D01*
X98145676Y-57307519D01*
X98112037Y-57196627D01*
X98094641Y-57020000D01*
X98112037Y-56843373D01*
X98163557Y-56673534D01*
X98163557Y-56673533D01*
X98247221Y-56517011D01*
X98247222Y-56517009D01*
X98276552Y-56481271D01*
X98359814Y-56379814D01*
X98461271Y-56296552D01*
X98497009Y-56267222D01*
X98514913Y-56257652D01*
X98653533Y-56183557D01*
X98727895Y-56161000D01*
X98823373Y-56132037D01*
X98889558Y-56125518D01*
X98955740Y-56119000D01*
X99044260Y-56119000D01*
X99110442Y-56125518D01*
X99110442Y-56125518D01*
G37*
G36*
X91868228Y-54491703D02*
X92023100Y-54555853D01*
X92162481Y-54648985D01*
X92281015Y-54767519D01*
X92374147Y-54906900D01*
X92438297Y-55061772D01*
X92471000Y-55226184D01*
X92471000Y-55393816D01*
X92438297Y-55558228D01*
X92374147Y-55713100D01*
X92281015Y-55852481D01*
X92162481Y-55971015D01*
X92023100Y-56064147D01*
X91868228Y-56128297D01*
X91703816Y-56161000D01*
X91536184Y-56161000D01*
X91371772Y-56128297D01*
X91216900Y-56064147D01*
X91077519Y-55971015D01*
X90958985Y-55852481D01*
X90865853Y-55713100D01*
X90801703Y-55558228D01*
X90769000Y-55393816D01*
X90769000Y-55226184D01*
X90801703Y-55061772D01*
X90865853Y-54906900D01*
X90958985Y-54767519D01*
X91077519Y-54648985D01*
X91216900Y-54555853D01*
X91371772Y-54491703D01*
X91536184Y-54459000D01*
X91703816Y-54459000D01*
X91868228Y-54491703D01*
X91868228Y-54491703D01*
G37*
G36*
X76628228Y-54491703D02*
X76783100Y-54555853D01*
X76922481Y-54648985D01*
X77041015Y-54767519D01*
X77134147Y-54906900D01*
X77198297Y-55061772D01*
X77231000Y-55226184D01*
X77231000Y-55393816D01*
X77198297Y-55558228D01*
X77134147Y-55713100D01*
X77041015Y-55852481D01*
X76922481Y-55971015D01*
X76783100Y-56064147D01*
X76628228Y-56128297D01*
X76463816Y-56161000D01*
X76296184Y-56161000D01*
X76131772Y-56128297D01*
X75976900Y-56064147D01*
X75837519Y-55971015D01*
X75718985Y-55852481D01*
X75625853Y-55713100D01*
X75561703Y-55558228D01*
X75529000Y-55393816D01*
X75529000Y-55226184D01*
X75561703Y-55061772D01*
X75625853Y-54906900D01*
X75718985Y-54767519D01*
X75837519Y-54648985D01*
X75976900Y-54555853D01*
X76131772Y-54491703D01*
X76296184Y-54459000D01*
X76463816Y-54459000D01*
X76628228Y-54491703D01*
X76628228Y-54491703D01*
G37*
G36*
X89651000Y-56151000D02*
X87349000Y-56151000D01*
X87349000Y-53849000D01*
X89651000Y-53849000D01*
X89651000Y-56151000D01*
X89651000Y-56151000D01*
G37*
G36*
X85624180Y-53695662D02*
X85725635Y-53705654D01*
X85942600Y-53771470D01*
X85942602Y-53771471D01*
X85942605Y-53771472D01*
X86142556Y-53878347D01*
X86317818Y-54022182D01*
X86461653Y-54197444D01*
X86568528Y-54397395D01*
X86568529Y-54397398D01*
X86568530Y-54397400D01*
X86634346Y-54614365D01*
X86656569Y-54840000D01*
X86634346Y-55065635D01*
X86583643Y-55232778D01*
X86568528Y-55282605D01*
X86461653Y-55482556D01*
X86317818Y-55657818D01*
X86142556Y-55801653D01*
X85942605Y-55908528D01*
X85942602Y-55908529D01*
X85942600Y-55908530D01*
X85725635Y-55974346D01*
X85624180Y-55984338D01*
X85556545Y-55991000D01*
X85443455Y-55991000D01*
X85375820Y-55984338D01*
X85274365Y-55974346D01*
X85057400Y-55908530D01*
X85057398Y-55908529D01*
X85057395Y-55908528D01*
X84857444Y-55801653D01*
X84682182Y-55657818D01*
X84538347Y-55482556D01*
X84431472Y-55282605D01*
X84416357Y-55232778D01*
X84365654Y-55065635D01*
X84343431Y-54840000D01*
X84365654Y-54614365D01*
X84431470Y-54397400D01*
X84431471Y-54397398D01*
X84431472Y-54397395D01*
X84538347Y-54197444D01*
X84682182Y-54022182D01*
X84857444Y-53878347D01*
X85057395Y-53771472D01*
X85057398Y-53771471D01*
X85057400Y-53771470D01*
X85274365Y-53705654D01*
X85375820Y-53695662D01*
X85443455Y-53689000D01*
X85556545Y-53689000D01*
X85624180Y-53695662D01*
X85624180Y-53695662D01*
G37*
G36*
X99110442Y-53585518D02*
X99176627Y-53592037D01*
X99272105Y-53621000D01*
X99346467Y-53643557D01*
X99463744Y-53706244D01*
X99502991Y-53727222D01*
X99538729Y-53756552D01*
X99640186Y-53839814D01*
X99723448Y-53941271D01*
X99752778Y-53977009D01*
X99752779Y-53977011D01*
X99836443Y-54133533D01*
X99836443Y-54133534D01*
X99887963Y-54303373D01*
X99905359Y-54480000D01*
X99887963Y-54656627D01*
X99854324Y-54767519D01*
X99836443Y-54826467D01*
X99829209Y-54840000D01*
X99752778Y-54982991D01*
X99723448Y-55018729D01*
X99640186Y-55120186D01*
X99538729Y-55203448D01*
X99502991Y-55232778D01*
X99502989Y-55232779D01*
X99346467Y-55316443D01*
X99289853Y-55333616D01*
X99176627Y-55367963D01*
X99110443Y-55374481D01*
X99044260Y-55381000D01*
X98955740Y-55381000D01*
X98889557Y-55374481D01*
X98823373Y-55367963D01*
X98710147Y-55333616D01*
X98653533Y-55316443D01*
X98497011Y-55232779D01*
X98497009Y-55232778D01*
X98461271Y-55203448D01*
X98359814Y-55120186D01*
X98276552Y-55018729D01*
X98247222Y-54982991D01*
X98170791Y-54840000D01*
X98163557Y-54826467D01*
X98145676Y-54767519D01*
X98112037Y-54656627D01*
X98094641Y-54480000D01*
X98112037Y-54303373D01*
X98163557Y-54133534D01*
X98163557Y-54133533D01*
X98247221Y-53977011D01*
X98247222Y-53977009D01*
X98276552Y-53941271D01*
X98359814Y-53839814D01*
X98461271Y-53756552D01*
X98497009Y-53727222D01*
X98536256Y-53706244D01*
X98653533Y-53643557D01*
X98727895Y-53621000D01*
X98823373Y-53592037D01*
X98889558Y-53585518D01*
X98955740Y-53579000D01*
X99044260Y-53579000D01*
X99110442Y-53585518D01*
X99110442Y-53585518D01*
G37*
G36*
X65652915Y-52207334D02*
X65761491Y-52240271D01*
X65861556Y-52293756D01*
X65949264Y-52365736D01*
X66021244Y-52453443D01*
X66074729Y-52553508D01*
X66107666Y-52662084D01*
X66116000Y-52746702D01*
X66116000Y-53253297D01*
X66107666Y-53337916D01*
X66074729Y-53446492D01*
X66021244Y-53546557D01*
X65949264Y-53634264D01*
X65861557Y-53706244D01*
X65761492Y-53759729D01*
X65652916Y-53792666D01*
X65540000Y-53803787D01*
X65427085Y-53792666D01*
X65318509Y-53759729D01*
X65218444Y-53706244D01*
X65130737Y-53634264D01*
X65058757Y-53546557D01*
X65046779Y-53524147D01*
X65015240Y-53465143D01*
X65001627Y-53444768D01*
X64984299Y-53427441D01*
X64963925Y-53413827D01*
X64941286Y-53404450D01*
X64917253Y-53399669D01*
X64892748Y-53399669D01*
X64868715Y-53404449D01*
X64846076Y-53413827D01*
X64825701Y-53427440D01*
X64808374Y-53444768D01*
X64794760Y-53465143D01*
X64751244Y-53546557D01*
X64679264Y-53634264D01*
X64591557Y-53706244D01*
X64491492Y-53759729D01*
X64382916Y-53792666D01*
X64270000Y-53803787D01*
X64157085Y-53792666D01*
X64048509Y-53759729D01*
X63948444Y-53706244D01*
X63860737Y-53634264D01*
X63823012Y-53588296D01*
X63797626Y-53557364D01*
X63780299Y-53540036D01*
X63759924Y-53526423D01*
X63737285Y-53517045D01*
X63713252Y-53512265D01*
X63688748Y-53512265D01*
X63664714Y-53517046D01*
X63642075Y-53526423D01*
X63621701Y-53540037D01*
X63604373Y-53557364D01*
X63590760Y-53577739D01*
X63581382Y-53600378D01*
X63576000Y-53636663D01*
X63576000Y-53801000D01*
X62424000Y-53801000D01*
X62424000Y-52199000D01*
X63576000Y-52199000D01*
X63576000Y-52363337D01*
X63578402Y-52387723D01*
X63585515Y-52411172D01*
X63597066Y-52432783D01*
X63612612Y-52451725D01*
X63631554Y-52467271D01*
X63653165Y-52478822D01*
X63676614Y-52485935D01*
X63701000Y-52488337D01*
X63725386Y-52485935D01*
X63748835Y-52478822D01*
X63770446Y-52467271D01*
X63797626Y-52442636D01*
X63860734Y-52365739D01*
X63860736Y-52365736D01*
X63948443Y-52293756D01*
X64048508Y-52240271D01*
X64157084Y-52207334D01*
X64270000Y-52196213D01*
X64382915Y-52207334D01*
X64491491Y-52240271D01*
X64591556Y-52293756D01*
X64679264Y-52365736D01*
X64751244Y-52453443D01*
X64794767Y-52534869D01*
X64808373Y-52555232D01*
X64825700Y-52572560D01*
X64846075Y-52586174D01*
X64868713Y-52595551D01*
X64892747Y-52600332D01*
X64917251Y-52600332D01*
X64941285Y-52595552D01*
X64963924Y-52586175D01*
X64984298Y-52572561D01*
X65001626Y-52555234D01*
X65015240Y-52534858D01*
X65058756Y-52453444D01*
X65130734Y-52365739D01*
X65130736Y-52365736D01*
X65218443Y-52293756D01*
X65318508Y-52240271D01*
X65427084Y-52207334D01*
X65540000Y-52196213D01*
X65652915Y-52207334D01*
X65652915Y-52207334D01*
G37*
G36*
X76628228Y-51951703D02*
X76783100Y-52015853D01*
X76922481Y-52108985D01*
X77041015Y-52227519D01*
X77134147Y-52366900D01*
X77198297Y-52521772D01*
X77231000Y-52686184D01*
X77231000Y-52853816D01*
X77198297Y-53018228D01*
X77134147Y-53173100D01*
X77041015Y-53312481D01*
X76922481Y-53431015D01*
X76783100Y-53524147D01*
X76628228Y-53588297D01*
X76463816Y-53621000D01*
X76296184Y-53621000D01*
X76131772Y-53588297D01*
X75976900Y-53524147D01*
X75837519Y-53431015D01*
X75718985Y-53312481D01*
X75625853Y-53173100D01*
X75561703Y-53018228D01*
X75529000Y-52853816D01*
X75529000Y-52686184D01*
X75561703Y-52521772D01*
X75625853Y-52366900D01*
X75718985Y-52227519D01*
X75837519Y-52108985D01*
X75976900Y-52015853D01*
X76131772Y-51951703D01*
X76296184Y-51919000D01*
X76463816Y-51919000D01*
X76628228Y-51951703D01*
X76628228Y-51951703D01*
G37*
G36*
X91868228Y-51951703D02*
X92023100Y-52015853D01*
X92162481Y-52108985D01*
X92281015Y-52227519D01*
X92374147Y-52366900D01*
X92438297Y-52521772D01*
X92471000Y-52686184D01*
X92471000Y-52853816D01*
X92438297Y-53018228D01*
X92374147Y-53173100D01*
X92281015Y-53312481D01*
X92162481Y-53431015D01*
X92023100Y-53524147D01*
X91868228Y-53588297D01*
X91703816Y-53621000D01*
X91536184Y-53621000D01*
X91371772Y-53588297D01*
X91216900Y-53524147D01*
X91077519Y-53431015D01*
X90958985Y-53312481D01*
X90865853Y-53173100D01*
X90801703Y-53018228D01*
X90769000Y-52853816D01*
X90769000Y-52686184D01*
X90801703Y-52521772D01*
X90865853Y-52366900D01*
X90958985Y-52227519D01*
X91077519Y-52108985D01*
X91216900Y-52015853D01*
X91371772Y-51951703D01*
X91536184Y-51919000D01*
X91703816Y-51919000D01*
X91868228Y-51951703D01*
X91868228Y-51951703D01*
G37*
G36*
X99110443Y-51045519D02*
X99176627Y-51052037D01*
X99272105Y-51081000D01*
X99346467Y-51103557D01*
X99485087Y-51177652D01*
X99502991Y-51187222D01*
X99538729Y-51216552D01*
X99640186Y-51299814D01*
X99723448Y-51401271D01*
X99752778Y-51437009D01*
X99752779Y-51437011D01*
X99836443Y-51593533D01*
X99836443Y-51593534D01*
X99887963Y-51763373D01*
X99905359Y-51940000D01*
X99887963Y-52116627D01*
X99862975Y-52199000D01*
X99836443Y-52286467D01*
X99793450Y-52366900D01*
X99752778Y-52442991D01*
X99732852Y-52467271D01*
X99640186Y-52580186D01*
X99540390Y-52662085D01*
X99502991Y-52692778D01*
X99502989Y-52692779D01*
X99346467Y-52776443D01*
X99289853Y-52793616D01*
X99176627Y-52827963D01*
X99110443Y-52834481D01*
X99044260Y-52841000D01*
X98955740Y-52841000D01*
X98889558Y-52834482D01*
X98823373Y-52827963D01*
X98710147Y-52793616D01*
X98653533Y-52776443D01*
X98497011Y-52692779D01*
X98497009Y-52692778D01*
X98459610Y-52662085D01*
X98359814Y-52580186D01*
X98267148Y-52467271D01*
X98247222Y-52442991D01*
X98206550Y-52366900D01*
X98163557Y-52286467D01*
X98137025Y-52199000D01*
X98112037Y-52116627D01*
X98094641Y-51940000D01*
X98112037Y-51763373D01*
X98163557Y-51593534D01*
X98163557Y-51593533D01*
X98247221Y-51437011D01*
X98247222Y-51437009D01*
X98276552Y-51401271D01*
X98359814Y-51299814D01*
X98461271Y-51216552D01*
X98497009Y-51187222D01*
X98514913Y-51177652D01*
X98653533Y-51103557D01*
X98727895Y-51081000D01*
X98823373Y-51052037D01*
X98889558Y-51045518D01*
X98955740Y-51039000D01*
X99044260Y-51039000D01*
X99110443Y-51045519D01*
X99110443Y-51045519D01*
G37*
G36*
X91868228Y-49411703D02*
X92023100Y-49475853D01*
X92162481Y-49568985D01*
X92281015Y-49687519D01*
X92374147Y-49826900D01*
X92438297Y-49981772D01*
X92471000Y-50146184D01*
X92471000Y-50313816D01*
X92438297Y-50478228D01*
X92374147Y-50633100D01*
X92281015Y-50772481D01*
X92162481Y-50891015D01*
X92023100Y-50984147D01*
X91868228Y-51048297D01*
X91703816Y-51081000D01*
X91536184Y-51081000D01*
X91371772Y-51048297D01*
X91216900Y-50984147D01*
X91077519Y-50891015D01*
X90958985Y-50772481D01*
X90865853Y-50633100D01*
X90801703Y-50478228D01*
X90769000Y-50313816D01*
X90769000Y-50146184D01*
X90801703Y-49981772D01*
X90865853Y-49826900D01*
X90958985Y-49687519D01*
X91077519Y-49568985D01*
X91216900Y-49475853D01*
X91371772Y-49411703D01*
X91536184Y-49379000D01*
X91703816Y-49379000D01*
X91868228Y-49411703D01*
X91868228Y-49411703D01*
G37*
G36*
X76628228Y-49411703D02*
X76783100Y-49475853D01*
X76922481Y-49568985D01*
X77041015Y-49687519D01*
X77134147Y-49826900D01*
X77198297Y-49981772D01*
X77231000Y-50146184D01*
X77231000Y-50313816D01*
X77198297Y-50478228D01*
X77134147Y-50633100D01*
X77041015Y-50772481D01*
X76922481Y-50891015D01*
X76783100Y-50984147D01*
X76628228Y-51048297D01*
X76463816Y-51081000D01*
X76296184Y-51081000D01*
X76131772Y-51048297D01*
X75976900Y-50984147D01*
X75837519Y-50891015D01*
X75718985Y-50772481D01*
X75625853Y-50633100D01*
X75561703Y-50478228D01*
X75529000Y-50313816D01*
X75529000Y-50146184D01*
X75561703Y-49981772D01*
X75625853Y-49826900D01*
X75718985Y-49687519D01*
X75837519Y-49568985D01*
X75976900Y-49475853D01*
X76131772Y-49411703D01*
X76296184Y-49379000D01*
X76463816Y-49379000D01*
X76628228Y-49411703D01*
X76628228Y-49411703D01*
G37*
G36*
X99110442Y-48505518D02*
X99176627Y-48512037D01*
X99272105Y-48541000D01*
X99346467Y-48563557D01*
X99485087Y-48637652D01*
X99502991Y-48647222D01*
X99538729Y-48676552D01*
X99640186Y-48759814D01*
X99723448Y-48861271D01*
X99752778Y-48897009D01*
X99752779Y-48897011D01*
X99836443Y-49053533D01*
X99836443Y-49053534D01*
X99887963Y-49223373D01*
X99905359Y-49400000D01*
X99887963Y-49576627D01*
X99854324Y-49687519D01*
X99836443Y-49746467D01*
X99793450Y-49826900D01*
X99752778Y-49902991D01*
X99723448Y-49938729D01*
X99640186Y-50040186D01*
X99538729Y-50123448D01*
X99502991Y-50152778D01*
X99502989Y-50152779D01*
X99346467Y-50236443D01*
X99289853Y-50253616D01*
X99176627Y-50287963D01*
X99110442Y-50294482D01*
X99044260Y-50301000D01*
X98955740Y-50301000D01*
X98889558Y-50294482D01*
X98823373Y-50287963D01*
X98710147Y-50253616D01*
X98653533Y-50236443D01*
X98497011Y-50152779D01*
X98497009Y-50152778D01*
X98461271Y-50123448D01*
X98359814Y-50040186D01*
X98276552Y-49938729D01*
X98247222Y-49902991D01*
X98206550Y-49826900D01*
X98163557Y-49746467D01*
X98145676Y-49687519D01*
X98112037Y-49576627D01*
X98094641Y-49400000D01*
X98112037Y-49223373D01*
X98163557Y-49053534D01*
X98163557Y-49053533D01*
X98247221Y-48897011D01*
X98247222Y-48897009D01*
X98276552Y-48861271D01*
X98359814Y-48759814D01*
X98461271Y-48676552D01*
X98497009Y-48647222D01*
X98514913Y-48637652D01*
X98653533Y-48563557D01*
X98727895Y-48541000D01*
X98823373Y-48512037D01*
X98889558Y-48505518D01*
X98955740Y-48499000D01*
X99044260Y-48499000D01*
X99110442Y-48505518D01*
X99110442Y-48505518D01*
G37*
G36*
X91868228Y-46871703D02*
X92023100Y-46935853D01*
X92162481Y-47028985D01*
X92281015Y-47147519D01*
X92374147Y-47286900D01*
X92438297Y-47441772D01*
X92471000Y-47606184D01*
X92471000Y-47773816D01*
X92438297Y-47938228D01*
X92374147Y-48093100D01*
X92281015Y-48232481D01*
X92162481Y-48351015D01*
X92023100Y-48444147D01*
X91868228Y-48508297D01*
X91703816Y-48541000D01*
X91536184Y-48541000D01*
X91371772Y-48508297D01*
X91216900Y-48444147D01*
X91077519Y-48351015D01*
X90958985Y-48232481D01*
X90865853Y-48093100D01*
X90801703Y-47938228D01*
X90769000Y-47773816D01*
X90769000Y-47606184D01*
X90801703Y-47441772D01*
X90865853Y-47286900D01*
X90958985Y-47147519D01*
X91077519Y-47028985D01*
X91216900Y-46935853D01*
X91371772Y-46871703D01*
X91536184Y-46839000D01*
X91703816Y-46839000D01*
X91868228Y-46871703D01*
X91868228Y-46871703D01*
G37*
G36*
X76628228Y-46871703D02*
X76783100Y-46935853D01*
X76922481Y-47028985D01*
X77041015Y-47147519D01*
X77134147Y-47286900D01*
X77198297Y-47441772D01*
X77231000Y-47606184D01*
X77231000Y-47773816D01*
X77198297Y-47938228D01*
X77134147Y-48093100D01*
X77041015Y-48232481D01*
X76922481Y-48351015D01*
X76783100Y-48444147D01*
X76628228Y-48508297D01*
X76463816Y-48541000D01*
X76296184Y-48541000D01*
X76131772Y-48508297D01*
X75976900Y-48444147D01*
X75837519Y-48351015D01*
X75718985Y-48232481D01*
X75625853Y-48093100D01*
X75561703Y-47938228D01*
X75529000Y-47773816D01*
X75529000Y-47606184D01*
X75561703Y-47441772D01*
X75625853Y-47286900D01*
X75718985Y-47147519D01*
X75837519Y-47028985D01*
X75976900Y-46935853D01*
X76131772Y-46871703D01*
X76296184Y-46839000D01*
X76463816Y-46839000D01*
X76628228Y-46871703D01*
X76628228Y-46871703D01*
G37*
G36*
X79168228Y-46871703D02*
X79323100Y-46935853D01*
X79462481Y-47028985D01*
X79581015Y-47147519D01*
X79674147Y-47286900D01*
X79738297Y-47441772D01*
X79771000Y-47606184D01*
X79771000Y-47773816D01*
X79738297Y-47938228D01*
X79674147Y-48093100D01*
X79581015Y-48232481D01*
X79462481Y-48351015D01*
X79323100Y-48444147D01*
X79168228Y-48508297D01*
X79003816Y-48541000D01*
X78836184Y-48541000D01*
X78671772Y-48508297D01*
X78516900Y-48444147D01*
X78377519Y-48351015D01*
X78258985Y-48232481D01*
X78165853Y-48093100D01*
X78101703Y-47938228D01*
X78069000Y-47773816D01*
X78069000Y-47606184D01*
X78101703Y-47441772D01*
X78165853Y-47286900D01*
X78258985Y-47147519D01*
X78377519Y-47028985D01*
X78516900Y-46935853D01*
X78671772Y-46871703D01*
X78836184Y-46839000D01*
X79003816Y-46839000D01*
X79168228Y-46871703D01*
X79168228Y-46871703D01*
G37*
G36*
X99110443Y-45965519D02*
X99176627Y-45972037D01*
X99272105Y-46001000D01*
X99346467Y-46023557D01*
X99459202Y-46083816D01*
X99502991Y-46107222D01*
X99538729Y-46136552D01*
X99640186Y-46219814D01*
X99723448Y-46321271D01*
X99752778Y-46357009D01*
X99752779Y-46357011D01*
X99836443Y-46513533D01*
X99836443Y-46513534D01*
X99887963Y-46683373D01*
X99905359Y-46860000D01*
X99887963Y-47036627D01*
X99854324Y-47147519D01*
X99836443Y-47206467D01*
X99793450Y-47286900D01*
X99752778Y-47362991D01*
X99723448Y-47398729D01*
X99640186Y-47500186D01*
X99538729Y-47583448D01*
X99502991Y-47612778D01*
X99502989Y-47612779D01*
X99346467Y-47696443D01*
X99289853Y-47713616D01*
X99176627Y-47747963D01*
X99110442Y-47754482D01*
X99044260Y-47761000D01*
X98955740Y-47761000D01*
X98889557Y-47754481D01*
X98823373Y-47747963D01*
X98710147Y-47713616D01*
X98653533Y-47696443D01*
X98497011Y-47612779D01*
X98497009Y-47612778D01*
X98461271Y-47583448D01*
X98359814Y-47500186D01*
X98276552Y-47398729D01*
X98247222Y-47362991D01*
X98206550Y-47286900D01*
X98163557Y-47206467D01*
X98145676Y-47147519D01*
X98112037Y-47036627D01*
X98094641Y-46860000D01*
X98112037Y-46683373D01*
X98163557Y-46513534D01*
X98163557Y-46513533D01*
X98247221Y-46357011D01*
X98247222Y-46357009D01*
X98276552Y-46321271D01*
X98359814Y-46219814D01*
X98461271Y-46136552D01*
X98497009Y-46107222D01*
X98540798Y-46083816D01*
X98653533Y-46023557D01*
X98727895Y-46001000D01*
X98823373Y-45972037D01*
X98889557Y-45965519D01*
X98955740Y-45959000D01*
X99044260Y-45959000D01*
X99110443Y-45965519D01*
X99110443Y-45965519D01*
G37*
G36*
X65748228Y-45181703D02*
X65903100Y-45245853D01*
X66042481Y-45338985D01*
X66161015Y-45457519D01*
X66254147Y-45596900D01*
X66318297Y-45751772D01*
X66351000Y-45916184D01*
X66351000Y-46083816D01*
X66318297Y-46248228D01*
X66254147Y-46403100D01*
X66161015Y-46542481D01*
X66042481Y-46661015D01*
X65903100Y-46754147D01*
X65748228Y-46818297D01*
X65583816Y-46851000D01*
X65416184Y-46851000D01*
X65251772Y-46818297D01*
X65096900Y-46754147D01*
X64957519Y-46661015D01*
X64838985Y-46542481D01*
X64745853Y-46403100D01*
X64681703Y-46248228D01*
X64649000Y-46083816D01*
X64649000Y-45916184D01*
X64681703Y-45751772D01*
X64745853Y-45596900D01*
X64838985Y-45457519D01*
X64957519Y-45338985D01*
X65096900Y-45245853D01*
X65251772Y-45181703D01*
X65416184Y-45149000D01*
X65583816Y-45149000D01*
X65748228Y-45181703D01*
X65748228Y-45181703D01*
G37*
G36*
X64351000Y-46851000D02*
X62649000Y-46851000D01*
X62649000Y-45149000D01*
X64351000Y-45149000D01*
X64351000Y-46851000D01*
X64351000Y-46851000D01*
G37*
G36*
X91868228Y-44331703D02*
X92023100Y-44395853D01*
X92162481Y-44488985D01*
X92281015Y-44607519D01*
X92374147Y-44746900D01*
X92438297Y-44901772D01*
X92471000Y-45066184D01*
X92471000Y-45233816D01*
X92438297Y-45398228D01*
X92374147Y-45553100D01*
X92281015Y-45692481D01*
X92162481Y-45811015D01*
X92023100Y-45904147D01*
X91868228Y-45968297D01*
X91703816Y-46001000D01*
X91536184Y-46001000D01*
X91371772Y-45968297D01*
X91216900Y-45904147D01*
X91077519Y-45811015D01*
X90958985Y-45692481D01*
X90865853Y-45553100D01*
X90801703Y-45398228D01*
X90769000Y-45233816D01*
X90769000Y-45066184D01*
X90801703Y-44901772D01*
X90865853Y-44746900D01*
X90958985Y-44607519D01*
X91077519Y-44488985D01*
X91216900Y-44395853D01*
X91371772Y-44331703D01*
X91536184Y-44299000D01*
X91703816Y-44299000D01*
X91868228Y-44331703D01*
X91868228Y-44331703D01*
G37*
G36*
X79168228Y-44331703D02*
X79323100Y-44395853D01*
X79462481Y-44488985D01*
X79581015Y-44607519D01*
X79674147Y-44746900D01*
X79738297Y-44901772D01*
X79771000Y-45066184D01*
X79771000Y-45233816D01*
X79738297Y-45398228D01*
X79674147Y-45553100D01*
X79581015Y-45692481D01*
X79462481Y-45811015D01*
X79323100Y-45904147D01*
X79168228Y-45968297D01*
X79003816Y-46001000D01*
X78836184Y-46001000D01*
X78671772Y-45968297D01*
X78516900Y-45904147D01*
X78377519Y-45811015D01*
X78258985Y-45692481D01*
X78165853Y-45553100D01*
X78101703Y-45398228D01*
X78069000Y-45233816D01*
X78069000Y-45066184D01*
X78101703Y-44901772D01*
X78165853Y-44746900D01*
X78258985Y-44607519D01*
X78377519Y-44488985D01*
X78516900Y-44395853D01*
X78671772Y-44331703D01*
X78836184Y-44299000D01*
X79003816Y-44299000D01*
X79168228Y-44331703D01*
X79168228Y-44331703D01*
G37*
G36*
X76628228Y-44331703D02*
X76783100Y-44395853D01*
X76922481Y-44488985D01*
X77041015Y-44607519D01*
X77134147Y-44746900D01*
X77198297Y-44901772D01*
X77231000Y-45066184D01*
X77231000Y-45233816D01*
X77198297Y-45398228D01*
X77134147Y-45553100D01*
X77041015Y-45692481D01*
X76922481Y-45811015D01*
X76783100Y-45904147D01*
X76628228Y-45968297D01*
X76463816Y-46001000D01*
X76296184Y-46001000D01*
X76131772Y-45968297D01*
X75976900Y-45904147D01*
X75837519Y-45811015D01*
X75718985Y-45692481D01*
X75625853Y-45553100D01*
X75561703Y-45398228D01*
X75529000Y-45233816D01*
X75529000Y-45066184D01*
X75561703Y-44901772D01*
X75625853Y-44746900D01*
X75718985Y-44607519D01*
X75837519Y-44488985D01*
X75976900Y-44395853D01*
X76131772Y-44331703D01*
X76296184Y-44299000D01*
X76463816Y-44299000D01*
X76628228Y-44331703D01*
X76628228Y-44331703D01*
G37*
G36*
X99110442Y-43425518D02*
X99176627Y-43432037D01*
X99272105Y-43461000D01*
X99346467Y-43483557D01*
X99485087Y-43557652D01*
X99502991Y-43567222D01*
X99538729Y-43596552D01*
X99640186Y-43679814D01*
X99723448Y-43781271D01*
X99752778Y-43817009D01*
X99752779Y-43817011D01*
X99836443Y-43973533D01*
X99836443Y-43973534D01*
X99887963Y-44143373D01*
X99905359Y-44320000D01*
X99887963Y-44496627D01*
X99854324Y-44607519D01*
X99836443Y-44666467D01*
X99793450Y-44746900D01*
X99752778Y-44822991D01*
X99723448Y-44858729D01*
X99640186Y-44960186D01*
X99538729Y-45043448D01*
X99502991Y-45072778D01*
X99502989Y-45072779D01*
X99346467Y-45156443D01*
X99289853Y-45173616D01*
X99176627Y-45207963D01*
X99110442Y-45214482D01*
X99044260Y-45221000D01*
X98955740Y-45221000D01*
X98889558Y-45214482D01*
X98823373Y-45207963D01*
X98710147Y-45173616D01*
X98653533Y-45156443D01*
X98497011Y-45072779D01*
X98497009Y-45072778D01*
X98461271Y-45043448D01*
X98359814Y-44960186D01*
X98276552Y-44858729D01*
X98247222Y-44822991D01*
X98206550Y-44746900D01*
X98163557Y-44666467D01*
X98145676Y-44607519D01*
X98112037Y-44496627D01*
X98094641Y-44320000D01*
X98112037Y-44143373D01*
X98163557Y-43973534D01*
X98163557Y-43973533D01*
X98247221Y-43817011D01*
X98247222Y-43817009D01*
X98276552Y-43781271D01*
X98359814Y-43679814D01*
X98461271Y-43596552D01*
X98497009Y-43567222D01*
X98514913Y-43557652D01*
X98653533Y-43483557D01*
X98727895Y-43461000D01*
X98823373Y-43432037D01*
X98889558Y-43425518D01*
X98955740Y-43419000D01*
X99044260Y-43419000D01*
X99110442Y-43425518D01*
X99110442Y-43425518D01*
G37*
G36*
X91868228Y-41791703D02*
X92023100Y-41855853D01*
X92162481Y-41948985D01*
X92281015Y-42067519D01*
X92374147Y-42206900D01*
X92438297Y-42361772D01*
X92471000Y-42526184D01*
X92471000Y-42693816D01*
X92438297Y-42858228D01*
X92374147Y-43013100D01*
X92281015Y-43152481D01*
X92162481Y-43271015D01*
X92023100Y-43364147D01*
X91868228Y-43428297D01*
X91703816Y-43461000D01*
X91536184Y-43461000D01*
X91371772Y-43428297D01*
X91216900Y-43364147D01*
X91077519Y-43271015D01*
X90958985Y-43152481D01*
X90865853Y-43013100D01*
X90801703Y-42858228D01*
X90769000Y-42693816D01*
X90769000Y-42526184D01*
X90801703Y-42361772D01*
X90865853Y-42206900D01*
X90958985Y-42067519D01*
X91077519Y-41948985D01*
X91216900Y-41855853D01*
X91371772Y-41791703D01*
X91536184Y-41759000D01*
X91703816Y-41759000D01*
X91868228Y-41791703D01*
X91868228Y-41791703D01*
G37*
G36*
X76628228Y-41791703D02*
X76783100Y-41855853D01*
X76922481Y-41948985D01*
X77041015Y-42067519D01*
X77134147Y-42206900D01*
X77198297Y-42361772D01*
X77231000Y-42526184D01*
X77231000Y-42693816D01*
X77198297Y-42858228D01*
X77134147Y-43013100D01*
X77041015Y-43152481D01*
X76922481Y-43271015D01*
X76783100Y-43364147D01*
X76628228Y-43428297D01*
X76463816Y-43461000D01*
X76296184Y-43461000D01*
X76131772Y-43428297D01*
X75976900Y-43364147D01*
X75837519Y-43271015D01*
X75718985Y-43152481D01*
X75625853Y-43013100D01*
X75561703Y-42858228D01*
X75529000Y-42693816D01*
X75529000Y-42526184D01*
X75561703Y-42361772D01*
X75625853Y-42206900D01*
X75718985Y-42067519D01*
X75837519Y-41948985D01*
X75976900Y-41855853D01*
X76131772Y-41791703D01*
X76296184Y-41759000D01*
X76463816Y-41759000D01*
X76628228Y-41791703D01*
X76628228Y-41791703D01*
G37*
G36*
X79168228Y-41791703D02*
X79323100Y-41855853D01*
X79462481Y-41948985D01*
X79581015Y-42067519D01*
X79674147Y-42206900D01*
X79738297Y-42361772D01*
X79771000Y-42526184D01*
X79771000Y-42693816D01*
X79738297Y-42858228D01*
X79674147Y-43013100D01*
X79581015Y-43152481D01*
X79462481Y-43271015D01*
X79323100Y-43364147D01*
X79168228Y-43428297D01*
X79003816Y-43461000D01*
X78836184Y-43461000D01*
X78671772Y-43428297D01*
X78516900Y-43364147D01*
X78377519Y-43271015D01*
X78258985Y-43152481D01*
X78165853Y-43013100D01*
X78101703Y-42858228D01*
X78069000Y-42693816D01*
X78069000Y-42526184D01*
X78101703Y-42361772D01*
X78165853Y-42206900D01*
X78258985Y-42067519D01*
X78377519Y-41948985D01*
X78516900Y-41855853D01*
X78671772Y-41791703D01*
X78836184Y-41759000D01*
X79003816Y-41759000D01*
X79168228Y-41791703D01*
X79168228Y-41791703D01*
G37*
G36*
X99110442Y-40885518D02*
X99176627Y-40892037D01*
X99272105Y-40921000D01*
X99346467Y-40943557D01*
X99485087Y-41017652D01*
X99502991Y-41027222D01*
X99538729Y-41056552D01*
X99640186Y-41139814D01*
X99723448Y-41241271D01*
X99752778Y-41277009D01*
X99752779Y-41277011D01*
X99836443Y-41433533D01*
X99836443Y-41433534D01*
X99887963Y-41603373D01*
X99905359Y-41780000D01*
X99887963Y-41956627D01*
X99854324Y-42067519D01*
X99836443Y-42126467D01*
X99793450Y-42206900D01*
X99752778Y-42282991D01*
X99723448Y-42318729D01*
X99640186Y-42420186D01*
X99538729Y-42503448D01*
X99502991Y-42532778D01*
X99502989Y-42532779D01*
X99346467Y-42616443D01*
X99289853Y-42633616D01*
X99176627Y-42667963D01*
X99110443Y-42674481D01*
X99044260Y-42681000D01*
X98955740Y-42681000D01*
X98889557Y-42674481D01*
X98823373Y-42667963D01*
X98710147Y-42633616D01*
X98653533Y-42616443D01*
X98497011Y-42532779D01*
X98497009Y-42532778D01*
X98461271Y-42503448D01*
X98359814Y-42420186D01*
X98276552Y-42318729D01*
X98247222Y-42282991D01*
X98206550Y-42206900D01*
X98163557Y-42126467D01*
X98145676Y-42067519D01*
X98112037Y-41956627D01*
X98094641Y-41780000D01*
X98112037Y-41603373D01*
X98163557Y-41433534D01*
X98163557Y-41433533D01*
X98247221Y-41277011D01*
X98247222Y-41277009D01*
X98276552Y-41241271D01*
X98359814Y-41139814D01*
X98461271Y-41056552D01*
X98497009Y-41027222D01*
X98514913Y-41017652D01*
X98653533Y-40943557D01*
X98727895Y-40921000D01*
X98823373Y-40892037D01*
X98889558Y-40885518D01*
X98955740Y-40879000D01*
X99044260Y-40879000D01*
X99110442Y-40885518D01*
X99110442Y-40885518D01*
G37*
G36*
X76628228Y-39251703D02*
X76783100Y-39315853D01*
X76922481Y-39408985D01*
X77041015Y-39527519D01*
X77134147Y-39666900D01*
X77198297Y-39821772D01*
X77231000Y-39986184D01*
X77231000Y-40153816D01*
X77198297Y-40318228D01*
X77134147Y-40473100D01*
X77041015Y-40612481D01*
X76922481Y-40731015D01*
X76783100Y-40824147D01*
X76628228Y-40888297D01*
X76463816Y-40921000D01*
X76296184Y-40921000D01*
X76131772Y-40888297D01*
X75976900Y-40824147D01*
X75837519Y-40731015D01*
X75718985Y-40612481D01*
X75625853Y-40473100D01*
X75561703Y-40318228D01*
X75529000Y-40153816D01*
X75529000Y-39986184D01*
X75561703Y-39821772D01*
X75625853Y-39666900D01*
X75718985Y-39527519D01*
X75837519Y-39408985D01*
X75976900Y-39315853D01*
X76131772Y-39251703D01*
X76296184Y-39219000D01*
X76463816Y-39219000D01*
X76628228Y-39251703D01*
X76628228Y-39251703D01*
G37*
G36*
X91868228Y-39251703D02*
X92023100Y-39315853D01*
X92162481Y-39408985D01*
X92281015Y-39527519D01*
X92374147Y-39666900D01*
X92438297Y-39821772D01*
X92471000Y-39986184D01*
X92471000Y-40153816D01*
X92438297Y-40318228D01*
X92374147Y-40473100D01*
X92281015Y-40612481D01*
X92162481Y-40731015D01*
X92023100Y-40824147D01*
X91868228Y-40888297D01*
X91703816Y-40921000D01*
X91536184Y-40921000D01*
X91371772Y-40888297D01*
X91216900Y-40824147D01*
X91077519Y-40731015D01*
X90958985Y-40612481D01*
X90865853Y-40473100D01*
X90801703Y-40318228D01*
X90769000Y-40153816D01*
X90769000Y-39986184D01*
X90801703Y-39821772D01*
X90865853Y-39666900D01*
X90958985Y-39527519D01*
X91077519Y-39408985D01*
X91216900Y-39315853D01*
X91371772Y-39251703D01*
X91536184Y-39219000D01*
X91703816Y-39219000D01*
X91868228Y-39251703D01*
X91868228Y-39251703D01*
G37*
G36*
X66351000Y-40851000D02*
X64649000Y-40851000D01*
X64649000Y-39149000D01*
X66351000Y-39149000D01*
X66351000Y-40851000D01*
X66351000Y-40851000D01*
G37*
G36*
X63748228Y-39181703D02*
X63903100Y-39245853D01*
X64042481Y-39338985D01*
X64161015Y-39457519D01*
X64254147Y-39596900D01*
X64318297Y-39751772D01*
X64351000Y-39916184D01*
X64351000Y-40083816D01*
X64318297Y-40248228D01*
X64254147Y-40403100D01*
X64161015Y-40542481D01*
X64042481Y-40661015D01*
X63903100Y-40754147D01*
X63748228Y-40818297D01*
X63583816Y-40851000D01*
X63416184Y-40851000D01*
X63251772Y-40818297D01*
X63096900Y-40754147D01*
X62957519Y-40661015D01*
X62838985Y-40542481D01*
X62745853Y-40403100D01*
X62681703Y-40248228D01*
X62649000Y-40083816D01*
X62649000Y-39916184D01*
X62681703Y-39751772D01*
X62745853Y-39596900D01*
X62838985Y-39457519D01*
X62957519Y-39338985D01*
X63096900Y-39245853D01*
X63251772Y-39181703D01*
X63416184Y-39149000D01*
X63583816Y-39149000D01*
X63748228Y-39181703D01*
X63748228Y-39181703D01*
G37*
G36*
X99110442Y-38345518D02*
X99176627Y-38352037D01*
X99272105Y-38381000D01*
X99346467Y-38403557D01*
X99485087Y-38477652D01*
X99502991Y-38487222D01*
X99538729Y-38516552D01*
X99640186Y-38599814D01*
X99723448Y-38701271D01*
X99752778Y-38737009D01*
X99752779Y-38737011D01*
X99836443Y-38893533D01*
X99836443Y-38893534D01*
X99887963Y-39063373D01*
X99905359Y-39240000D01*
X99887963Y-39416627D01*
X99854324Y-39527519D01*
X99836443Y-39586467D01*
X99830866Y-39596900D01*
X99752778Y-39742991D01*
X99723448Y-39778729D01*
X99640186Y-39880186D01*
X99538729Y-39963448D01*
X99502991Y-39992778D01*
X99502989Y-39992779D01*
X99346467Y-40076443D01*
X99289853Y-40093616D01*
X99176627Y-40127963D01*
X99110442Y-40134482D01*
X99044260Y-40141000D01*
X98955740Y-40141000D01*
X98889558Y-40134482D01*
X98823373Y-40127963D01*
X98710147Y-40093616D01*
X98653533Y-40076443D01*
X98497011Y-39992779D01*
X98497009Y-39992778D01*
X98461271Y-39963448D01*
X98359814Y-39880186D01*
X98276552Y-39778729D01*
X98247222Y-39742991D01*
X98169134Y-39596900D01*
X98163557Y-39586467D01*
X98145676Y-39527519D01*
X98112037Y-39416627D01*
X98094641Y-39240000D01*
X98112037Y-39063373D01*
X98163557Y-38893534D01*
X98163557Y-38893533D01*
X98247221Y-38737011D01*
X98247222Y-38737009D01*
X98276552Y-38701271D01*
X98359814Y-38599814D01*
X98461271Y-38516552D01*
X98497009Y-38487222D01*
X98514913Y-38477652D01*
X98653533Y-38403557D01*
X98727895Y-38381000D01*
X98823373Y-38352037D01*
X98889558Y-38345518D01*
X98955740Y-38339000D01*
X99044260Y-38339000D01*
X99110442Y-38345518D01*
X99110442Y-38345518D01*
G37*
G36*
X79168228Y-36711703D02*
X79323100Y-36775853D01*
X79462481Y-36868985D01*
X79581015Y-36987519D01*
X79674147Y-37126900D01*
X79738297Y-37281772D01*
X79771000Y-37446184D01*
X79771000Y-37613816D01*
X79738297Y-37778228D01*
X79674147Y-37933100D01*
X79581015Y-38072481D01*
X79462481Y-38191015D01*
X79323100Y-38284147D01*
X79168228Y-38348297D01*
X79003816Y-38381000D01*
X78836184Y-38381000D01*
X78671772Y-38348297D01*
X78516900Y-38284147D01*
X78377519Y-38191015D01*
X78258985Y-38072481D01*
X78165853Y-37933100D01*
X78101703Y-37778228D01*
X78069000Y-37613816D01*
X78069000Y-37446184D01*
X78101703Y-37281772D01*
X78165853Y-37126900D01*
X78258985Y-36987519D01*
X78377519Y-36868985D01*
X78516900Y-36775853D01*
X78671772Y-36711703D01*
X78836184Y-36679000D01*
X79003816Y-36679000D01*
X79168228Y-36711703D01*
X79168228Y-36711703D01*
G37*
G36*
X76628228Y-36711703D02*
X76783100Y-36775853D01*
X76922481Y-36868985D01*
X77041015Y-36987519D01*
X77134147Y-37126900D01*
X77198297Y-37281772D01*
X77231000Y-37446184D01*
X77231000Y-37613816D01*
X77198297Y-37778228D01*
X77134147Y-37933100D01*
X77041015Y-38072481D01*
X76922481Y-38191015D01*
X76783100Y-38284147D01*
X76628228Y-38348297D01*
X76463816Y-38381000D01*
X76296184Y-38381000D01*
X76131772Y-38348297D01*
X75976900Y-38284147D01*
X75837519Y-38191015D01*
X75718985Y-38072481D01*
X75625853Y-37933100D01*
X75561703Y-37778228D01*
X75529000Y-37613816D01*
X75529000Y-37446184D01*
X75561703Y-37281772D01*
X75625853Y-37126900D01*
X75718985Y-36987519D01*
X75837519Y-36868985D01*
X75976900Y-36775853D01*
X76131772Y-36711703D01*
X76296184Y-36679000D01*
X76463816Y-36679000D01*
X76628228Y-36711703D01*
X76628228Y-36711703D01*
G37*
G36*
X91868228Y-36711703D02*
X92023100Y-36775853D01*
X92162481Y-36868985D01*
X92281015Y-36987519D01*
X92374147Y-37126900D01*
X92438297Y-37281772D01*
X92471000Y-37446184D01*
X92471000Y-37613816D01*
X92438297Y-37778228D01*
X92374147Y-37933100D01*
X92281015Y-38072481D01*
X92162481Y-38191015D01*
X92023100Y-38284147D01*
X91868228Y-38348297D01*
X91703816Y-38381000D01*
X91536184Y-38381000D01*
X91371772Y-38348297D01*
X91216900Y-38284147D01*
X91077519Y-38191015D01*
X90958985Y-38072481D01*
X90865853Y-37933100D01*
X90801703Y-37778228D01*
X90769000Y-37613816D01*
X90769000Y-37446184D01*
X90801703Y-37281772D01*
X90865853Y-37126900D01*
X90958985Y-36987519D01*
X91077519Y-36868985D01*
X91216900Y-36775853D01*
X91371772Y-36711703D01*
X91536184Y-36679000D01*
X91703816Y-36679000D01*
X91868228Y-36711703D01*
X91868228Y-36711703D01*
G37*
G36*
X99110442Y-35805518D02*
X99176627Y-35812037D01*
X99272105Y-35841000D01*
X99346467Y-35863557D01*
X99485087Y-35937652D01*
X99502991Y-35947222D01*
X99538729Y-35976552D01*
X99640186Y-36059814D01*
X99723448Y-36161271D01*
X99752778Y-36197009D01*
X99752779Y-36197011D01*
X99836443Y-36353533D01*
X99836443Y-36353534D01*
X99887963Y-36523373D01*
X99905359Y-36700000D01*
X99887963Y-36876627D01*
X99854324Y-36987519D01*
X99836443Y-37046467D01*
X99793450Y-37126900D01*
X99752778Y-37202991D01*
X99723448Y-37238729D01*
X99640186Y-37340186D01*
X99538729Y-37423448D01*
X99502991Y-37452778D01*
X99502989Y-37452779D01*
X99346467Y-37536443D01*
X99289853Y-37553616D01*
X99176627Y-37587963D01*
X99110442Y-37594482D01*
X99044260Y-37601000D01*
X98955740Y-37601000D01*
X98889558Y-37594482D01*
X98823373Y-37587963D01*
X98710147Y-37553616D01*
X98653533Y-37536443D01*
X98497011Y-37452779D01*
X98497009Y-37452778D01*
X98461271Y-37423448D01*
X98359814Y-37340186D01*
X98276552Y-37238729D01*
X98247222Y-37202991D01*
X98206550Y-37126900D01*
X98163557Y-37046467D01*
X98145676Y-36987519D01*
X98112037Y-36876627D01*
X98094641Y-36700000D01*
X98112037Y-36523373D01*
X98163557Y-36353534D01*
X98163557Y-36353533D01*
X98247221Y-36197011D01*
X98247222Y-36197009D01*
X98276552Y-36161271D01*
X98359814Y-36059814D01*
X98461271Y-35976552D01*
X98497009Y-35947222D01*
X98514913Y-35937652D01*
X98653533Y-35863557D01*
X98727895Y-35841000D01*
X98823373Y-35812037D01*
X98889558Y-35805518D01*
X98955740Y-35799000D01*
X99044260Y-35799000D01*
X99110442Y-35805518D01*
X99110442Y-35805518D01*
G37*
G36*
X67401000Y-35901000D02*
X65599000Y-35901000D01*
X65599000Y-34099000D01*
X67401000Y-34099000D01*
X67401000Y-35901000D01*
X67401000Y-35901000D01*
G37*
G36*
X64070442Y-34105518D02*
X64136627Y-34112037D01*
X64225512Y-34139000D01*
X64306467Y-34163557D01*
X64441721Y-34235853D01*
X64462991Y-34247222D01*
X64498729Y-34276552D01*
X64600186Y-34359814D01*
X64683448Y-34461271D01*
X64712778Y-34497009D01*
X64712779Y-34497011D01*
X64796443Y-34653533D01*
X64796443Y-34653534D01*
X64847963Y-34823373D01*
X64865359Y-35000000D01*
X64847963Y-35176627D01*
X64813616Y-35289853D01*
X64796443Y-35346467D01*
X64722348Y-35485087D01*
X64712778Y-35502991D01*
X64688576Y-35532481D01*
X64600186Y-35640186D01*
X64498729Y-35723448D01*
X64462991Y-35752778D01*
X64462989Y-35752779D01*
X64306467Y-35836443D01*
X64291444Y-35841000D01*
X64136627Y-35887963D01*
X64070442Y-35894482D01*
X64004260Y-35901000D01*
X63915740Y-35901000D01*
X63849558Y-35894482D01*
X63783373Y-35887963D01*
X63628556Y-35841000D01*
X63613533Y-35836443D01*
X63457011Y-35752779D01*
X63457009Y-35752778D01*
X63421271Y-35723448D01*
X63319814Y-35640186D01*
X63231424Y-35532481D01*
X63207222Y-35502991D01*
X63197652Y-35485087D01*
X63123557Y-35346467D01*
X63106384Y-35289853D01*
X63072037Y-35176627D01*
X63054641Y-35000000D01*
X63072037Y-34823373D01*
X63123557Y-34653534D01*
X63123557Y-34653533D01*
X63207221Y-34497011D01*
X63207222Y-34497009D01*
X63236552Y-34461271D01*
X63319814Y-34359814D01*
X63421271Y-34276552D01*
X63457009Y-34247222D01*
X63478279Y-34235853D01*
X63613533Y-34163557D01*
X63694488Y-34139000D01*
X63783373Y-34112037D01*
X63849558Y-34105518D01*
X63915740Y-34099000D01*
X64004260Y-34099000D01*
X64070442Y-34105518D01*
X64070442Y-34105518D01*
G37*
G36*
X76628228Y-34171703D02*
X76783100Y-34235853D01*
X76922481Y-34328985D01*
X77041015Y-34447519D01*
X77134147Y-34586900D01*
X77198297Y-34741772D01*
X77231000Y-34906184D01*
X77231000Y-35073816D01*
X77198297Y-35238228D01*
X77134147Y-35393100D01*
X77041015Y-35532481D01*
X76922481Y-35651015D01*
X76783100Y-35744147D01*
X76628228Y-35808297D01*
X76463816Y-35841000D01*
X76296184Y-35841000D01*
X76131772Y-35808297D01*
X75976900Y-35744147D01*
X75837519Y-35651015D01*
X75718985Y-35532481D01*
X75625853Y-35393100D01*
X75561703Y-35238228D01*
X75529000Y-35073816D01*
X75529000Y-34906184D01*
X75561703Y-34741772D01*
X75625853Y-34586900D01*
X75718985Y-34447519D01*
X75837519Y-34328985D01*
X75976900Y-34235853D01*
X76131772Y-34171703D01*
X76296184Y-34139000D01*
X76463816Y-34139000D01*
X76628228Y-34171703D01*
X76628228Y-34171703D01*
G37*
G36*
X92471000Y-35841000D02*
X90769000Y-35841000D01*
X90769000Y-34139000D01*
X92471000Y-34139000D01*
X92471000Y-35841000D01*
X92471000Y-35841000D01*
G37*
G36*
X99110442Y-33265518D02*
X99176627Y-33272037D01*
X99289853Y-33306384D01*
X99346467Y-33323557D01*
X99485087Y-33397652D01*
X99502991Y-33407222D01*
X99538729Y-33436552D01*
X99640186Y-33519814D01*
X99723448Y-33621271D01*
X99752778Y-33657009D01*
X99752779Y-33657011D01*
X99836443Y-33813533D01*
X99836443Y-33813534D01*
X99887963Y-33983373D01*
X99905359Y-34160000D01*
X99887963Y-34336627D01*
X99880929Y-34359814D01*
X99836443Y-34506467D01*
X99793450Y-34586900D01*
X99752778Y-34662991D01*
X99723448Y-34698729D01*
X99640186Y-34800186D01*
X99538729Y-34883448D01*
X99502991Y-34912778D01*
X99502989Y-34912779D01*
X99346467Y-34996443D01*
X99289853Y-35013616D01*
X99176627Y-35047963D01*
X99110442Y-35054482D01*
X99044260Y-35061000D01*
X98955740Y-35061000D01*
X98889558Y-35054482D01*
X98823373Y-35047963D01*
X98710147Y-35013616D01*
X98653533Y-34996443D01*
X98497011Y-34912779D01*
X98497009Y-34912778D01*
X98461271Y-34883448D01*
X98359814Y-34800186D01*
X98276552Y-34698729D01*
X98247222Y-34662991D01*
X98206550Y-34586900D01*
X98163557Y-34506467D01*
X98119071Y-34359814D01*
X98112037Y-34336627D01*
X98094641Y-34160000D01*
X98112037Y-33983373D01*
X98163557Y-33813534D01*
X98163557Y-33813533D01*
X98247221Y-33657011D01*
X98247222Y-33657009D01*
X98276552Y-33621271D01*
X98359814Y-33519814D01*
X98461271Y-33436552D01*
X98497009Y-33407222D01*
X98514913Y-33397652D01*
X98653533Y-33323557D01*
X98710147Y-33306384D01*
X98823373Y-33272037D01*
X98889558Y-33265518D01*
X98955740Y-33259000D01*
X99044260Y-33259000D01*
X99110442Y-33265518D01*
X99110442Y-33265518D01*
G37*
G36*
X66610443Y-31565519D02*
X66676627Y-31572037D01*
X66789853Y-31606384D01*
X66846467Y-31623557D01*
X66985087Y-31697652D01*
X67002991Y-31707222D01*
X67038729Y-31736552D01*
X67140186Y-31819814D01*
X67223448Y-31921271D01*
X67252778Y-31957009D01*
X67252779Y-31957011D01*
X67336443Y-32113533D01*
X67336443Y-32113534D01*
X67387963Y-32283373D01*
X67405359Y-32460000D01*
X67387963Y-32636627D01*
X67353616Y-32749853D01*
X67336443Y-32806467D01*
X67262348Y-32945087D01*
X67252778Y-32962991D01*
X67223448Y-32998729D01*
X67140186Y-33100186D01*
X67038729Y-33183448D01*
X67002991Y-33212778D01*
X67002989Y-33212779D01*
X66846467Y-33296443D01*
X66789853Y-33313616D01*
X66676627Y-33347963D01*
X66610442Y-33354482D01*
X66544260Y-33361000D01*
X66455740Y-33361000D01*
X66389558Y-33354482D01*
X66323373Y-33347963D01*
X66210147Y-33313616D01*
X66153533Y-33296443D01*
X65997011Y-33212779D01*
X65997009Y-33212778D01*
X65961271Y-33183448D01*
X65859814Y-33100186D01*
X65776552Y-32998729D01*
X65747222Y-32962991D01*
X65737652Y-32945087D01*
X65663557Y-32806467D01*
X65646384Y-32749853D01*
X65612037Y-32636627D01*
X65594641Y-32460000D01*
X65612037Y-32283373D01*
X65663557Y-32113534D01*
X65663557Y-32113533D01*
X65747221Y-31957011D01*
X65747222Y-31957009D01*
X65776552Y-31921271D01*
X65859814Y-31819814D01*
X65961271Y-31736552D01*
X65997009Y-31707222D01*
X66014913Y-31697652D01*
X66153533Y-31623557D01*
X66210147Y-31606384D01*
X66323373Y-31572037D01*
X66389557Y-31565519D01*
X66455740Y-31559000D01*
X66544260Y-31559000D01*
X66610443Y-31565519D01*
X66610443Y-31565519D01*
G37*
G36*
X64070443Y-31565519D02*
X64136627Y-31572037D01*
X64249853Y-31606384D01*
X64306467Y-31623557D01*
X64445087Y-31697652D01*
X64462991Y-31707222D01*
X64498729Y-31736552D01*
X64600186Y-31819814D01*
X64683448Y-31921271D01*
X64712778Y-31957009D01*
X64712779Y-31957011D01*
X64796443Y-32113533D01*
X64796443Y-32113534D01*
X64847963Y-32283373D01*
X64865359Y-32460000D01*
X64847963Y-32636627D01*
X64813616Y-32749853D01*
X64796443Y-32806467D01*
X64722348Y-32945087D01*
X64712778Y-32962991D01*
X64683448Y-32998729D01*
X64600186Y-33100186D01*
X64498729Y-33183448D01*
X64462991Y-33212778D01*
X64462989Y-33212779D01*
X64306467Y-33296443D01*
X64249853Y-33313616D01*
X64136627Y-33347963D01*
X64070442Y-33354482D01*
X64004260Y-33361000D01*
X63915740Y-33361000D01*
X63849558Y-33354482D01*
X63783373Y-33347963D01*
X63670147Y-33313616D01*
X63613533Y-33296443D01*
X63457011Y-33212779D01*
X63457009Y-33212778D01*
X63421271Y-33183448D01*
X63319814Y-33100186D01*
X63236552Y-32998729D01*
X63207222Y-32962991D01*
X63197652Y-32945087D01*
X63123557Y-32806467D01*
X63106384Y-32749853D01*
X63072037Y-32636627D01*
X63054641Y-32460000D01*
X63072037Y-32283373D01*
X63123557Y-32113534D01*
X63123557Y-32113533D01*
X63207221Y-31957011D01*
X63207222Y-31957009D01*
X63236552Y-31921271D01*
X63319814Y-31819814D01*
X63421271Y-31736552D01*
X63457009Y-31707222D01*
X63474913Y-31697652D01*
X63613533Y-31623557D01*
X63670147Y-31606384D01*
X63783373Y-31572037D01*
X63849557Y-31565519D01*
X63915740Y-31559000D01*
X64004260Y-31559000D01*
X64070443Y-31565519D01*
X64070443Y-31565519D01*
G37*
G36*
X99110442Y-30725518D02*
X99176627Y-30732037D01*
X99289853Y-30766384D01*
X99346467Y-30783557D01*
X99485087Y-30857652D01*
X99502991Y-30867222D01*
X99538729Y-30896552D01*
X99640186Y-30979814D01*
X99723448Y-31081271D01*
X99752778Y-31117009D01*
X99752779Y-31117011D01*
X99836443Y-31273533D01*
X99836443Y-31273534D01*
X99887963Y-31443373D01*
X99905359Y-31620000D01*
X99887963Y-31796627D01*
X99880929Y-31819814D01*
X99836443Y-31966467D01*
X99762348Y-32105087D01*
X99752778Y-32122991D01*
X99723448Y-32158729D01*
X99640186Y-32260186D01*
X99538729Y-32343448D01*
X99502991Y-32372778D01*
X99502989Y-32372779D01*
X99346467Y-32456443D01*
X99289853Y-32473616D01*
X99176627Y-32507963D01*
X99110442Y-32514482D01*
X99044260Y-32521000D01*
X98955740Y-32521000D01*
X98889558Y-32514482D01*
X98823373Y-32507963D01*
X98710147Y-32473616D01*
X98653533Y-32456443D01*
X98497011Y-32372779D01*
X98497009Y-32372778D01*
X98461271Y-32343448D01*
X98359814Y-32260186D01*
X98276552Y-32158729D01*
X98247222Y-32122991D01*
X98237652Y-32105087D01*
X98163557Y-31966467D01*
X98119071Y-31819814D01*
X98112037Y-31796627D01*
X98094641Y-31620000D01*
X98112037Y-31443373D01*
X98163557Y-31273534D01*
X98163557Y-31273533D01*
X98247221Y-31117011D01*
X98247222Y-31117009D01*
X98276552Y-31081271D01*
X98359814Y-30979814D01*
X98461271Y-30896552D01*
X98497009Y-30867222D01*
X98514913Y-30857652D01*
X98653533Y-30783557D01*
X98710147Y-30766384D01*
X98823373Y-30732037D01*
X98889558Y-30725518D01*
X98955740Y-30719000D01*
X99044260Y-30719000D01*
X99110442Y-30725518D01*
X99110442Y-30725518D01*
G37*
G36*
X64070442Y-29025518D02*
X64136627Y-29032037D01*
X64249853Y-29066384D01*
X64306467Y-29083557D01*
X64445087Y-29157652D01*
X64462991Y-29167222D01*
X64498729Y-29196552D01*
X64600186Y-29279814D01*
X64683448Y-29381271D01*
X64712778Y-29417009D01*
X64712779Y-29417011D01*
X64796443Y-29573533D01*
X64796443Y-29573534D01*
X64847963Y-29743373D01*
X64865359Y-29920000D01*
X64847963Y-30096627D01*
X64813616Y-30209853D01*
X64796443Y-30266467D01*
X64722348Y-30405087D01*
X64712778Y-30422991D01*
X64683448Y-30458729D01*
X64600186Y-30560186D01*
X64498729Y-30643448D01*
X64462991Y-30672778D01*
X64462989Y-30672779D01*
X64306467Y-30756443D01*
X64249853Y-30773616D01*
X64136627Y-30807963D01*
X64070442Y-30814482D01*
X64004260Y-30821000D01*
X63915740Y-30821000D01*
X63849558Y-30814482D01*
X63783373Y-30807963D01*
X63670147Y-30773616D01*
X63613533Y-30756443D01*
X63457011Y-30672779D01*
X63457009Y-30672778D01*
X63421271Y-30643448D01*
X63319814Y-30560186D01*
X63236552Y-30458729D01*
X63207222Y-30422991D01*
X63197652Y-30405087D01*
X63123557Y-30266467D01*
X63106384Y-30209853D01*
X63072037Y-30096627D01*
X63054641Y-29920000D01*
X63072037Y-29743373D01*
X63123557Y-29573534D01*
X63123557Y-29573533D01*
X63207221Y-29417011D01*
X63207222Y-29417009D01*
X63236552Y-29381271D01*
X63319814Y-29279814D01*
X63421271Y-29196552D01*
X63457009Y-29167222D01*
X63474913Y-29157652D01*
X63613533Y-29083557D01*
X63670147Y-29066384D01*
X63783373Y-29032037D01*
X63849558Y-29025518D01*
X63915740Y-29019000D01*
X64004260Y-29019000D01*
X64070442Y-29025518D01*
X64070442Y-29025518D01*
G37*
G36*
X66610442Y-29025518D02*
X66676627Y-29032037D01*
X66789853Y-29066384D01*
X66846467Y-29083557D01*
X66985087Y-29157652D01*
X67002991Y-29167222D01*
X67038729Y-29196552D01*
X67140186Y-29279814D01*
X67223448Y-29381271D01*
X67252778Y-29417009D01*
X67252779Y-29417011D01*
X67336443Y-29573533D01*
X67336443Y-29573534D01*
X67387963Y-29743373D01*
X67405359Y-29920000D01*
X67387963Y-30096627D01*
X67353616Y-30209853D01*
X67336443Y-30266467D01*
X67262348Y-30405087D01*
X67252778Y-30422991D01*
X67223448Y-30458729D01*
X67140186Y-30560186D01*
X67038729Y-30643448D01*
X67002991Y-30672778D01*
X67002989Y-30672779D01*
X66846467Y-30756443D01*
X66789853Y-30773616D01*
X66676627Y-30807963D01*
X66610442Y-30814482D01*
X66544260Y-30821000D01*
X66455740Y-30821000D01*
X66389558Y-30814482D01*
X66323373Y-30807963D01*
X66210147Y-30773616D01*
X66153533Y-30756443D01*
X65997011Y-30672779D01*
X65997009Y-30672778D01*
X65961271Y-30643448D01*
X65859814Y-30560186D01*
X65776552Y-30458729D01*
X65747222Y-30422991D01*
X65737652Y-30405087D01*
X65663557Y-30266467D01*
X65646384Y-30209853D01*
X65612037Y-30096627D01*
X65594641Y-29920000D01*
X65612037Y-29743373D01*
X65663557Y-29573534D01*
X65663557Y-29573533D01*
X65747221Y-29417011D01*
X65747222Y-29417009D01*
X65776552Y-29381271D01*
X65859814Y-29279814D01*
X65961271Y-29196552D01*
X65997009Y-29167222D01*
X66014913Y-29157652D01*
X66153533Y-29083557D01*
X66210147Y-29066384D01*
X66323373Y-29032037D01*
X66389558Y-29025518D01*
X66455740Y-29019000D01*
X66544260Y-29019000D01*
X66610442Y-29025518D01*
X66610442Y-29025518D01*
G37*
G36*
X99110443Y-28185519D02*
X99176627Y-28192037D01*
X99289853Y-28226384D01*
X99346467Y-28243557D01*
X99456843Y-28302555D01*
X99502991Y-28327222D01*
X99538729Y-28356552D01*
X99640186Y-28439814D01*
X99723448Y-28541271D01*
X99752778Y-28577009D01*
X99752779Y-28577011D01*
X99836443Y-28733533D01*
X99836443Y-28733534D01*
X99887963Y-28903373D01*
X99905359Y-29080000D01*
X99887963Y-29256627D01*
X99880929Y-29279814D01*
X99836443Y-29426467D01*
X99762348Y-29565087D01*
X99752778Y-29582991D01*
X99723448Y-29618729D01*
X99640186Y-29720186D01*
X99538729Y-29803448D01*
X99502991Y-29832778D01*
X99502989Y-29832779D01*
X99346467Y-29916443D01*
X99289853Y-29933616D01*
X99176627Y-29967963D01*
X99110443Y-29974481D01*
X99044260Y-29981000D01*
X98955740Y-29981000D01*
X98889557Y-29974481D01*
X98823373Y-29967963D01*
X98710147Y-29933616D01*
X98653533Y-29916443D01*
X98497011Y-29832779D01*
X98497009Y-29832778D01*
X98461271Y-29803448D01*
X98359814Y-29720186D01*
X98276552Y-29618729D01*
X98247222Y-29582991D01*
X98237652Y-29565087D01*
X98163557Y-29426467D01*
X98119071Y-29279814D01*
X98112037Y-29256627D01*
X98094641Y-29080000D01*
X98112037Y-28903373D01*
X98163557Y-28733534D01*
X98163557Y-28733533D01*
X98247221Y-28577011D01*
X98247222Y-28577009D01*
X98276552Y-28541271D01*
X98359814Y-28439814D01*
X98461271Y-28356552D01*
X98497009Y-28327222D01*
X98543157Y-28302555D01*
X98653533Y-28243557D01*
X98710147Y-28226384D01*
X98823373Y-28192037D01*
X98889557Y-28185519D01*
X98955740Y-28179000D01*
X99044260Y-28179000D01*
X99110443Y-28185519D01*
X99110443Y-28185519D01*
G37*
G36*
X70624180Y-26515662D02*
X70725635Y-26525654D01*
X70942600Y-26591470D01*
X70942602Y-26591471D01*
X70942605Y-26591472D01*
X71142556Y-26698347D01*
X71317818Y-26842182D01*
X71461653Y-27017444D01*
X71568528Y-27217395D01*
X71568529Y-27217398D01*
X71568530Y-27217400D01*
X71634346Y-27434365D01*
X71656569Y-27660000D01*
X71634346Y-27885635D01*
X71593530Y-28020185D01*
X71568528Y-28102605D01*
X71461653Y-28302556D01*
X71317818Y-28477818D01*
X71142556Y-28621653D01*
X70942605Y-28728528D01*
X70942602Y-28728529D01*
X70942600Y-28728530D01*
X70725635Y-28794346D01*
X70624180Y-28804338D01*
X70556545Y-28811000D01*
X70443455Y-28811000D01*
X70375820Y-28804338D01*
X70274365Y-28794346D01*
X70057400Y-28728530D01*
X70057398Y-28728529D01*
X70057395Y-28728528D01*
X69857444Y-28621653D01*
X69682182Y-28477818D01*
X69538347Y-28302556D01*
X69431472Y-28102605D01*
X69406470Y-28020185D01*
X69365654Y-27885635D01*
X69343431Y-27660000D01*
X69365654Y-27434365D01*
X69431470Y-27217400D01*
X69431471Y-27217398D01*
X69431472Y-27217395D01*
X69538347Y-27017444D01*
X69682182Y-26842182D01*
X69857444Y-26698347D01*
X70057395Y-26591472D01*
X70057398Y-26591471D01*
X70057400Y-26591470D01*
X70274365Y-26525654D01*
X70375820Y-26515662D01*
X70443455Y-26509000D01*
X70556545Y-26509000D01*
X70624180Y-26515662D01*
X70624180Y-26515662D01*
G37*
G36*
X75151000Y-28651000D02*
X72849000Y-28651000D01*
X72849000Y-26349000D01*
X75151000Y-26349000D01*
X75151000Y-28651000D01*
X75151000Y-28651000D01*
G37*
G36*
X64070442Y-26485518D02*
X64136627Y-26492037D01*
X64247448Y-26525654D01*
X64306467Y-26543557D01*
X64396108Y-26591472D01*
X64462991Y-26627222D01*
X64498729Y-26656552D01*
X64600186Y-26739814D01*
X64683448Y-26841271D01*
X64712778Y-26877009D01*
X64712779Y-26877011D01*
X64796443Y-27033533D01*
X64796443Y-27033534D01*
X64847963Y-27203373D01*
X64865359Y-27380000D01*
X64847963Y-27556627D01*
X64816605Y-27660000D01*
X64796443Y-27726467D01*
X64722348Y-27865087D01*
X64712778Y-27882991D01*
X64710608Y-27885635D01*
X64600186Y-28020186D01*
X64499763Y-28102600D01*
X64462991Y-28132778D01*
X64462989Y-28132779D01*
X64306467Y-28216443D01*
X64249853Y-28233616D01*
X64136627Y-28267963D01*
X64070442Y-28274482D01*
X64004260Y-28281000D01*
X63915740Y-28281000D01*
X63849558Y-28274482D01*
X63783373Y-28267963D01*
X63670147Y-28233616D01*
X63613533Y-28216443D01*
X63457011Y-28132779D01*
X63457009Y-28132778D01*
X63420237Y-28102600D01*
X63319814Y-28020186D01*
X63209392Y-27885635D01*
X63207222Y-27882991D01*
X63197652Y-27865087D01*
X63123557Y-27726467D01*
X63103395Y-27660000D01*
X63072037Y-27556627D01*
X63054641Y-27380000D01*
X63072037Y-27203373D01*
X63123557Y-27033534D01*
X63123557Y-27033533D01*
X63207221Y-26877011D01*
X63207222Y-26877009D01*
X63236552Y-26841271D01*
X63319814Y-26739814D01*
X63421271Y-26656552D01*
X63457009Y-26627222D01*
X63523892Y-26591472D01*
X63613533Y-26543557D01*
X63672552Y-26525654D01*
X63783373Y-26492037D01*
X63849558Y-26485518D01*
X63915740Y-26479000D01*
X64004260Y-26479000D01*
X64070442Y-26485518D01*
X64070442Y-26485518D01*
G37*
G36*
X66610442Y-26485518D02*
X66676627Y-26492037D01*
X66787448Y-26525654D01*
X66846467Y-26543557D01*
X66936108Y-26591472D01*
X67002991Y-26627222D01*
X67038729Y-26656552D01*
X67140186Y-26739814D01*
X67223448Y-26841271D01*
X67252778Y-26877009D01*
X67252779Y-26877011D01*
X67336443Y-27033533D01*
X67336443Y-27033534D01*
X67387963Y-27203373D01*
X67405359Y-27380000D01*
X67387963Y-27556627D01*
X67356605Y-27660000D01*
X67336443Y-27726467D01*
X67262348Y-27865087D01*
X67252778Y-27882991D01*
X67250608Y-27885635D01*
X67140186Y-28020186D01*
X67039763Y-28102600D01*
X67002991Y-28132778D01*
X67002989Y-28132779D01*
X66846467Y-28216443D01*
X66789853Y-28233616D01*
X66676627Y-28267963D01*
X66610442Y-28274482D01*
X66544260Y-28281000D01*
X66455740Y-28281000D01*
X66389558Y-28274482D01*
X66323373Y-28267963D01*
X66210147Y-28233616D01*
X66153533Y-28216443D01*
X65997011Y-28132779D01*
X65997009Y-28132778D01*
X65960237Y-28102600D01*
X65859814Y-28020186D01*
X65749392Y-27885635D01*
X65747222Y-27882991D01*
X65737652Y-27865087D01*
X65663557Y-27726467D01*
X65643395Y-27660000D01*
X65612037Y-27556627D01*
X65594641Y-27380000D01*
X65612037Y-27203373D01*
X65663557Y-27033534D01*
X65663557Y-27033533D01*
X65747221Y-26877011D01*
X65747222Y-26877009D01*
X65776552Y-26841271D01*
X65859814Y-26739814D01*
X65961271Y-26656552D01*
X65997009Y-26627222D01*
X66063892Y-26591472D01*
X66153533Y-26543557D01*
X66212552Y-26525654D01*
X66323373Y-26492037D01*
X66389558Y-26485518D01*
X66455740Y-26479000D01*
X66544260Y-26479000D01*
X66610442Y-26485518D01*
X66610442Y-26485518D01*
G37*
G36*
X99110442Y-25645518D02*
X99176627Y-25652037D01*
X99289853Y-25686384D01*
X99346467Y-25703557D01*
X99485087Y-25777652D01*
X99502991Y-25787222D01*
X99538729Y-25816552D01*
X99640186Y-25899814D01*
X99723448Y-26001271D01*
X99752778Y-26037009D01*
X99752779Y-26037011D01*
X99836443Y-26193533D01*
X99836443Y-26193534D01*
X99887963Y-26363373D01*
X99905359Y-26540000D01*
X99887963Y-26716627D01*
X99880929Y-26739814D01*
X99836443Y-26886467D01*
X99766433Y-27017444D01*
X99752778Y-27042991D01*
X99723448Y-27078729D01*
X99640186Y-27180186D01*
X99538729Y-27263448D01*
X99502991Y-27292778D01*
X99502989Y-27292779D01*
X99346467Y-27376443D01*
X99289853Y-27393616D01*
X99176627Y-27427963D01*
X99111625Y-27434365D01*
X99044260Y-27441000D01*
X98955740Y-27441000D01*
X98888375Y-27434365D01*
X98823373Y-27427963D01*
X98710147Y-27393616D01*
X98653533Y-27376443D01*
X98497011Y-27292779D01*
X98497009Y-27292778D01*
X98461271Y-27263448D01*
X98359814Y-27180186D01*
X98276552Y-27078729D01*
X98247222Y-27042991D01*
X98233567Y-27017444D01*
X98163557Y-26886467D01*
X98119071Y-26739814D01*
X98112037Y-26716627D01*
X98094641Y-26540000D01*
X98112037Y-26363373D01*
X98163557Y-26193534D01*
X98163557Y-26193533D01*
X98247221Y-26037011D01*
X98247222Y-26037009D01*
X98276552Y-26001271D01*
X98359814Y-25899814D01*
X98461271Y-25816552D01*
X98497009Y-25787222D01*
X98514913Y-25777652D01*
X98653533Y-25703557D01*
X98710147Y-25686384D01*
X98823373Y-25652037D01*
X98889557Y-25645519D01*
X98955740Y-25639000D01*
X99044260Y-25639000D01*
X99110442Y-25645518D01*
X99110442Y-25645518D01*
G37*
G36*
X66610443Y-23945519D02*
X66676627Y-23952037D01*
X66789853Y-23986384D01*
X66846467Y-24003557D01*
X66985087Y-24077652D01*
X67002991Y-24087222D01*
X67038729Y-24116552D01*
X67140186Y-24199814D01*
X67223448Y-24301271D01*
X67252778Y-24337009D01*
X67252779Y-24337011D01*
X67336443Y-24493533D01*
X67336443Y-24493534D01*
X67387963Y-24663373D01*
X67405359Y-24840000D01*
X67387963Y-25016627D01*
X67353616Y-25129853D01*
X67336443Y-25186467D01*
X67262348Y-25325087D01*
X67252778Y-25342991D01*
X67223448Y-25378729D01*
X67140186Y-25480186D01*
X67038729Y-25563448D01*
X67002991Y-25592778D01*
X67002989Y-25592779D01*
X66846467Y-25676443D01*
X66789853Y-25693616D01*
X66676627Y-25727963D01*
X66610442Y-25734482D01*
X66544260Y-25741000D01*
X66455740Y-25741000D01*
X66389558Y-25734482D01*
X66323373Y-25727963D01*
X66210147Y-25693616D01*
X66153533Y-25676443D01*
X65997011Y-25592779D01*
X65997009Y-25592778D01*
X65961271Y-25563448D01*
X65859814Y-25480186D01*
X65776552Y-25378729D01*
X65747222Y-25342991D01*
X65737652Y-25325087D01*
X65663557Y-25186467D01*
X65646384Y-25129853D01*
X65612037Y-25016627D01*
X65594641Y-24840000D01*
X65612037Y-24663373D01*
X65663557Y-24493534D01*
X65663557Y-24493533D01*
X65747221Y-24337011D01*
X65747222Y-24337009D01*
X65776552Y-24301271D01*
X65859814Y-24199814D01*
X65961271Y-24116552D01*
X65997009Y-24087222D01*
X66014913Y-24077652D01*
X66153533Y-24003557D01*
X66210147Y-23986384D01*
X66323373Y-23952037D01*
X66389557Y-23945519D01*
X66455740Y-23939000D01*
X66544260Y-23939000D01*
X66610443Y-23945519D01*
X66610443Y-23945519D01*
G37*
G36*
X64070443Y-23945519D02*
X64136627Y-23952037D01*
X64249853Y-23986384D01*
X64306467Y-24003557D01*
X64445087Y-24077652D01*
X64462991Y-24087222D01*
X64498729Y-24116552D01*
X64600186Y-24199814D01*
X64683448Y-24301271D01*
X64712778Y-24337009D01*
X64712779Y-24337011D01*
X64796443Y-24493533D01*
X64796443Y-24493534D01*
X64847963Y-24663373D01*
X64865359Y-24840000D01*
X64847963Y-25016627D01*
X64813616Y-25129853D01*
X64796443Y-25186467D01*
X64722348Y-25325087D01*
X64712778Y-25342991D01*
X64683448Y-25378729D01*
X64600186Y-25480186D01*
X64498729Y-25563448D01*
X64462991Y-25592778D01*
X64462989Y-25592779D01*
X64306467Y-25676443D01*
X64249853Y-25693616D01*
X64136627Y-25727963D01*
X64070442Y-25734482D01*
X64004260Y-25741000D01*
X63915740Y-25741000D01*
X63849558Y-25734482D01*
X63783373Y-25727963D01*
X63670147Y-25693616D01*
X63613533Y-25676443D01*
X63457011Y-25592779D01*
X63457009Y-25592778D01*
X63421271Y-25563448D01*
X63319814Y-25480186D01*
X63236552Y-25378729D01*
X63207222Y-25342991D01*
X63197652Y-25325087D01*
X63123557Y-25186467D01*
X63106384Y-25129853D01*
X63072037Y-25016627D01*
X63054641Y-24840000D01*
X63072037Y-24663373D01*
X63123557Y-24493534D01*
X63123557Y-24493533D01*
X63207221Y-24337011D01*
X63207222Y-24337009D01*
X63236552Y-24301271D01*
X63319814Y-24199814D01*
X63421271Y-24116552D01*
X63457009Y-24087222D01*
X63474913Y-24077652D01*
X63613533Y-24003557D01*
X63670147Y-23986384D01*
X63783373Y-23952037D01*
X63849557Y-23945519D01*
X63915740Y-23939000D01*
X64004260Y-23939000D01*
X64070443Y-23945519D01*
X64070443Y-23945519D01*
G37*
G36*
X99901000Y-24901000D02*
X98099000Y-24901000D01*
X98099000Y-23099000D01*
X99901000Y-23099000D01*
X99901000Y-24901000D01*
X99901000Y-24901000D01*
G37*
G36*
X66610443Y-21405519D02*
X66676627Y-21412037D01*
X66789853Y-21446384D01*
X66846467Y-21463557D01*
X66985087Y-21537652D01*
X67002991Y-21547222D01*
X67038729Y-21576552D01*
X67140186Y-21659814D01*
X67223448Y-21761271D01*
X67252778Y-21797009D01*
X67252779Y-21797011D01*
X67336443Y-21953533D01*
X67336443Y-21953534D01*
X67387963Y-22123373D01*
X67405359Y-22300000D01*
X67387963Y-22476627D01*
X67353616Y-22589853D01*
X67336443Y-22646467D01*
X67262348Y-22785087D01*
X67252778Y-22802991D01*
X67223448Y-22838729D01*
X67140186Y-22940186D01*
X67038729Y-23023448D01*
X67002991Y-23052778D01*
X67002989Y-23052779D01*
X66846467Y-23136443D01*
X66789853Y-23153616D01*
X66676627Y-23187963D01*
X66610442Y-23194482D01*
X66544260Y-23201000D01*
X66455740Y-23201000D01*
X66389558Y-23194482D01*
X66323373Y-23187963D01*
X66210147Y-23153616D01*
X66153533Y-23136443D01*
X65997011Y-23052779D01*
X65997009Y-23052778D01*
X65961271Y-23023448D01*
X65859814Y-22940186D01*
X65776552Y-22838729D01*
X65747222Y-22802991D01*
X65737652Y-22785087D01*
X65663557Y-22646467D01*
X65646384Y-22589853D01*
X65612037Y-22476627D01*
X65594641Y-22300000D01*
X65612037Y-22123373D01*
X65663557Y-21953534D01*
X65663557Y-21953533D01*
X65747221Y-21797011D01*
X65747222Y-21797009D01*
X65776552Y-21761271D01*
X65859814Y-21659814D01*
X65961271Y-21576552D01*
X65997009Y-21547222D01*
X66014913Y-21537652D01*
X66153533Y-21463557D01*
X66210147Y-21446384D01*
X66323373Y-21412037D01*
X66389558Y-21405518D01*
X66455740Y-21399000D01*
X66544260Y-21399000D01*
X66610443Y-21405519D01*
X66610443Y-21405519D01*
G37*
G36*
X64070443Y-21405519D02*
X64136627Y-21412037D01*
X64249853Y-21446384D01*
X64306467Y-21463557D01*
X64445087Y-21537652D01*
X64462991Y-21547222D01*
X64498729Y-21576552D01*
X64600186Y-21659814D01*
X64683448Y-21761271D01*
X64712778Y-21797009D01*
X64712779Y-21797011D01*
X64796443Y-21953533D01*
X64796443Y-21953534D01*
X64847963Y-22123373D01*
X64865359Y-22300000D01*
X64847963Y-22476627D01*
X64813616Y-22589853D01*
X64796443Y-22646467D01*
X64722348Y-22785087D01*
X64712778Y-22802991D01*
X64683448Y-22838729D01*
X64600186Y-22940186D01*
X64498729Y-23023448D01*
X64462991Y-23052778D01*
X64462989Y-23052779D01*
X64306467Y-23136443D01*
X64249853Y-23153616D01*
X64136627Y-23187963D01*
X64070442Y-23194482D01*
X64004260Y-23201000D01*
X63915740Y-23201000D01*
X63849558Y-23194482D01*
X63783373Y-23187963D01*
X63670147Y-23153616D01*
X63613533Y-23136443D01*
X63457011Y-23052779D01*
X63457009Y-23052778D01*
X63421271Y-23023448D01*
X63319814Y-22940186D01*
X63236552Y-22838729D01*
X63207222Y-22802991D01*
X63197652Y-22785087D01*
X63123557Y-22646467D01*
X63106384Y-22589853D01*
X63072037Y-22476627D01*
X63054641Y-22300000D01*
X63072037Y-22123373D01*
X63123557Y-21953534D01*
X63123557Y-21953533D01*
X63207221Y-21797011D01*
X63207222Y-21797009D01*
X63236552Y-21761271D01*
X63319814Y-21659814D01*
X63421271Y-21576552D01*
X63457009Y-21547222D01*
X63474913Y-21537652D01*
X63613533Y-21463557D01*
X63670147Y-21446384D01*
X63783373Y-21412037D01*
X63849558Y-21405518D01*
X63915740Y-21399000D01*
X64004260Y-21399000D01*
X64070443Y-21405519D01*
X64070443Y-21405519D01*
G37*
G36*
X66610443Y-18865519D02*
X66676627Y-18872037D01*
X66789853Y-18906384D01*
X66846467Y-18923557D01*
X66985087Y-18997652D01*
X67002991Y-19007222D01*
X67038729Y-19036552D01*
X67140186Y-19119814D01*
X67223448Y-19221271D01*
X67252778Y-19257009D01*
X67252779Y-19257011D01*
X67336443Y-19413533D01*
X67336443Y-19413534D01*
X67387963Y-19583373D01*
X67405359Y-19760000D01*
X67387963Y-19936627D01*
X67353616Y-20049853D01*
X67336443Y-20106467D01*
X67262348Y-20245087D01*
X67252778Y-20262991D01*
X67223448Y-20298729D01*
X67140186Y-20400186D01*
X67038729Y-20483448D01*
X67002991Y-20512778D01*
X67002989Y-20512779D01*
X66846467Y-20596443D01*
X66789853Y-20613616D01*
X66676627Y-20647963D01*
X66610443Y-20654481D01*
X66544260Y-20661000D01*
X66455740Y-20661000D01*
X66389557Y-20654481D01*
X66323373Y-20647963D01*
X66210147Y-20613616D01*
X66153533Y-20596443D01*
X65997011Y-20512779D01*
X65997009Y-20512778D01*
X65961271Y-20483448D01*
X65859814Y-20400186D01*
X65776552Y-20298729D01*
X65747222Y-20262991D01*
X65737652Y-20245087D01*
X65663557Y-20106467D01*
X65646384Y-20049853D01*
X65612037Y-19936627D01*
X65594641Y-19760000D01*
X65612037Y-19583373D01*
X65663557Y-19413534D01*
X65663557Y-19413533D01*
X65747221Y-19257011D01*
X65747222Y-19257009D01*
X65776552Y-19221271D01*
X65859814Y-19119814D01*
X65961271Y-19036552D01*
X65997009Y-19007222D01*
X66014913Y-18997652D01*
X66153533Y-18923557D01*
X66210147Y-18906384D01*
X66323373Y-18872037D01*
X66389557Y-18865519D01*
X66455740Y-18859000D01*
X66544260Y-18859000D01*
X66610443Y-18865519D01*
X66610443Y-18865519D01*
G37*
G36*
X64070443Y-18865519D02*
X64136627Y-18872037D01*
X64249853Y-18906384D01*
X64306467Y-18923557D01*
X64445087Y-18997652D01*
X64462991Y-19007222D01*
X64498729Y-19036552D01*
X64600186Y-19119814D01*
X64683448Y-19221271D01*
X64712778Y-19257009D01*
X64712779Y-19257011D01*
X64796443Y-19413533D01*
X64796443Y-19413534D01*
X64847963Y-19583373D01*
X64865359Y-19760000D01*
X64847963Y-19936627D01*
X64813616Y-20049853D01*
X64796443Y-20106467D01*
X64722348Y-20245087D01*
X64712778Y-20262991D01*
X64683448Y-20298729D01*
X64600186Y-20400186D01*
X64498729Y-20483448D01*
X64462991Y-20512778D01*
X64462989Y-20512779D01*
X64306467Y-20596443D01*
X64249853Y-20613616D01*
X64136627Y-20647963D01*
X64070443Y-20654481D01*
X64004260Y-20661000D01*
X63915740Y-20661000D01*
X63849557Y-20654481D01*
X63783373Y-20647963D01*
X63670147Y-20613616D01*
X63613533Y-20596443D01*
X63457011Y-20512779D01*
X63457009Y-20512778D01*
X63421271Y-20483448D01*
X63319814Y-20400186D01*
X63236552Y-20298729D01*
X63207222Y-20262991D01*
X63197652Y-20245087D01*
X63123557Y-20106467D01*
X63106384Y-20049853D01*
X63072037Y-19936627D01*
X63054641Y-19760000D01*
X63072037Y-19583373D01*
X63123557Y-19413534D01*
X63123557Y-19413533D01*
X63207221Y-19257011D01*
X63207222Y-19257009D01*
X63236552Y-19221271D01*
X63319814Y-19119814D01*
X63421271Y-19036552D01*
X63457009Y-19007222D01*
X63474913Y-18997652D01*
X63613533Y-18923557D01*
X63670147Y-18906384D01*
X63783373Y-18872037D01*
X63849557Y-18865519D01*
X63915740Y-18859000D01*
X64004260Y-18859000D01*
X64070443Y-18865519D01*
X64070443Y-18865519D01*
G37*
G36*
X71651000Y-18651000D02*
X69349000Y-18651000D01*
X69349000Y-16349000D01*
X71651000Y-16349000D01*
X71651000Y-18651000D01*
X71651000Y-18651000D01*
G37*
G36*
X74124180Y-16195662D02*
X74225635Y-16205654D01*
X74442600Y-16271470D01*
X74442602Y-16271471D01*
X74442605Y-16271472D01*
X74642556Y-16378347D01*
X74817818Y-16522182D01*
X74961653Y-16697444D01*
X75068528Y-16897395D01*
X75068529Y-16897398D01*
X75068530Y-16897400D01*
X75134346Y-17114365D01*
X75156569Y-17340000D01*
X75134346Y-17565635D01*
X75086612Y-17722991D01*
X75068528Y-17782605D01*
X74961653Y-17982556D01*
X74817818Y-18157818D01*
X74642556Y-18301653D01*
X74442605Y-18408528D01*
X74442602Y-18408529D01*
X74442600Y-18408530D01*
X74225635Y-18474346D01*
X74124180Y-18484338D01*
X74056545Y-18491000D01*
X73943455Y-18491000D01*
X73875820Y-18484338D01*
X73774365Y-18474346D01*
X73557400Y-18408530D01*
X73557398Y-18408529D01*
X73557395Y-18408528D01*
X73357444Y-18301653D01*
X73182182Y-18157818D01*
X73038347Y-17982556D01*
X72931472Y-17782605D01*
X72913388Y-17722991D01*
X72865654Y-17565635D01*
X72843431Y-17340000D01*
X72865654Y-17114365D01*
X72931470Y-16897400D01*
X72931471Y-16897398D01*
X72931472Y-16897395D01*
X73038347Y-16697444D01*
X73182182Y-16522182D01*
X73357444Y-16378347D01*
X73557395Y-16271472D01*
X73557398Y-16271471D01*
X73557400Y-16271470D01*
X73774365Y-16205654D01*
X73875820Y-16195662D01*
X73943455Y-16189000D01*
X74056545Y-16189000D01*
X74124180Y-16195662D01*
X74124180Y-16195662D01*
G37*
G36*
X64070443Y-16325519D02*
X64136627Y-16332037D01*
X64228199Y-16359815D01*
X64306467Y-16383557D01*
X64445087Y-16457652D01*
X64462991Y-16467222D01*
X64498729Y-16496552D01*
X64600186Y-16579814D01*
X64683448Y-16681271D01*
X64712778Y-16717009D01*
X64712779Y-16717011D01*
X64796443Y-16873533D01*
X64796443Y-16873534D01*
X64847963Y-17043373D01*
X64865359Y-17220000D01*
X64847963Y-17396627D01*
X64815698Y-17502991D01*
X64796443Y-17566467D01*
X64757039Y-17640185D01*
X64712778Y-17722991D01*
X64688332Y-17752778D01*
X64600186Y-17860186D01*
X64498729Y-17943448D01*
X64462991Y-17972778D01*
X64462989Y-17972779D01*
X64306467Y-18056443D01*
X64249853Y-18073616D01*
X64136627Y-18107963D01*
X64070443Y-18114481D01*
X64004260Y-18121000D01*
X63915740Y-18121000D01*
X63849557Y-18114481D01*
X63783373Y-18107963D01*
X63670147Y-18073616D01*
X63613533Y-18056443D01*
X63457011Y-17972779D01*
X63457009Y-17972778D01*
X63421271Y-17943448D01*
X63319814Y-17860186D01*
X63231668Y-17752778D01*
X63207222Y-17722991D01*
X63162961Y-17640185D01*
X63123557Y-17566467D01*
X63104302Y-17502991D01*
X63072037Y-17396627D01*
X63054641Y-17220000D01*
X63072037Y-17043373D01*
X63123557Y-16873534D01*
X63123557Y-16873533D01*
X63207221Y-16717011D01*
X63207222Y-16717009D01*
X63236552Y-16681271D01*
X63319814Y-16579814D01*
X63421271Y-16496552D01*
X63457009Y-16467222D01*
X63474913Y-16457652D01*
X63613533Y-16383557D01*
X63691801Y-16359815D01*
X63783373Y-16332037D01*
X63849557Y-16325519D01*
X63915740Y-16319000D01*
X64004260Y-16319000D01*
X64070443Y-16325519D01*
X64070443Y-16325519D01*
G37*
G36*
X66610443Y-16325519D02*
X66676627Y-16332037D01*
X66768199Y-16359815D01*
X66846467Y-16383557D01*
X66985087Y-16457652D01*
X67002991Y-16467222D01*
X67038729Y-16496552D01*
X67140186Y-16579814D01*
X67223448Y-16681271D01*
X67252778Y-16717009D01*
X67252779Y-16717011D01*
X67336443Y-16873533D01*
X67336443Y-16873534D01*
X67387963Y-17043373D01*
X67405359Y-17220000D01*
X67387963Y-17396627D01*
X67355698Y-17502991D01*
X67336443Y-17566467D01*
X67297039Y-17640185D01*
X67252778Y-17722991D01*
X67228332Y-17752778D01*
X67140186Y-17860186D01*
X67038729Y-17943448D01*
X67002991Y-17972778D01*
X67002989Y-17972779D01*
X66846467Y-18056443D01*
X66789853Y-18073616D01*
X66676627Y-18107963D01*
X66610443Y-18114481D01*
X66544260Y-18121000D01*
X66455740Y-18121000D01*
X66389557Y-18114481D01*
X66323373Y-18107963D01*
X66210147Y-18073616D01*
X66153533Y-18056443D01*
X65997011Y-17972779D01*
X65997009Y-17972778D01*
X65961271Y-17943448D01*
X65859814Y-17860186D01*
X65771668Y-17752778D01*
X65747222Y-17722991D01*
X65702961Y-17640185D01*
X65663557Y-17566467D01*
X65644302Y-17502991D01*
X65612037Y-17396627D01*
X65594641Y-17220000D01*
X65612037Y-17043373D01*
X65663557Y-16873534D01*
X65663557Y-16873533D01*
X65747221Y-16717011D01*
X65747222Y-16717009D01*
X65776552Y-16681271D01*
X65859814Y-16579814D01*
X65961271Y-16496552D01*
X65997009Y-16467222D01*
X66014913Y-16457652D01*
X66153533Y-16383557D01*
X66231801Y-16359815D01*
X66323373Y-16332037D01*
X66389557Y-16325519D01*
X66455740Y-16319000D01*
X66544260Y-16319000D01*
X66610443Y-16325519D01*
X66610443Y-16325519D01*
G37*
G36*
X95810443Y-16105519D02*
X95876627Y-16112037D01*
X95989853Y-16146384D01*
X96046467Y-16163557D01*
X96185087Y-16237652D01*
X96202991Y-16247222D01*
X96238729Y-16276552D01*
X96340186Y-16359814D01*
X96423448Y-16461271D01*
X96452778Y-16497009D01*
X96452779Y-16497011D01*
X96536443Y-16653533D01*
X96536443Y-16653534D01*
X96587963Y-16823373D01*
X96605359Y-17000000D01*
X96587963Y-17176627D01*
X96574806Y-17220000D01*
X96536443Y-17346467D01*
X96462348Y-17485087D01*
X96452778Y-17502991D01*
X96423448Y-17538729D01*
X96340186Y-17640186D01*
X96239289Y-17722989D01*
X96202991Y-17752778D01*
X96202989Y-17752779D01*
X96046467Y-17836443D01*
X95989853Y-17853616D01*
X95876627Y-17887963D01*
X95810443Y-17894481D01*
X95744260Y-17901000D01*
X95655740Y-17901000D01*
X95589558Y-17894482D01*
X95523373Y-17887963D01*
X95410147Y-17853616D01*
X95353533Y-17836443D01*
X95197011Y-17752779D01*
X95197009Y-17752778D01*
X95160711Y-17722989D01*
X95059814Y-17640186D01*
X94976552Y-17538729D01*
X94947222Y-17502991D01*
X94937652Y-17485087D01*
X94863557Y-17346467D01*
X94825194Y-17220000D01*
X94812037Y-17176627D01*
X94794641Y-17000000D01*
X94812037Y-16823373D01*
X94863557Y-16653534D01*
X94863557Y-16653533D01*
X94947221Y-16497011D01*
X94947222Y-16497009D01*
X94976552Y-16461271D01*
X95059814Y-16359814D01*
X95161271Y-16276552D01*
X95197009Y-16247222D01*
X95214913Y-16237652D01*
X95353533Y-16163557D01*
X95410147Y-16146384D01*
X95523373Y-16112037D01*
X95589557Y-16105519D01*
X95655740Y-16099000D01*
X95744260Y-16099000D01*
X95810443Y-16105519D01*
X95810443Y-16105519D01*
G37*
G36*
X93270443Y-16105519D02*
X93336627Y-16112037D01*
X93449853Y-16146384D01*
X93506467Y-16163557D01*
X93645087Y-16237652D01*
X93662991Y-16247222D01*
X93698729Y-16276552D01*
X93800186Y-16359814D01*
X93883448Y-16461271D01*
X93912778Y-16497009D01*
X93912779Y-16497011D01*
X93996443Y-16653533D01*
X93996443Y-16653534D01*
X94047963Y-16823373D01*
X94065359Y-17000000D01*
X94047963Y-17176627D01*
X94034806Y-17220000D01*
X93996443Y-17346467D01*
X93922348Y-17485087D01*
X93912778Y-17502991D01*
X93883448Y-17538729D01*
X93800186Y-17640186D01*
X93699289Y-17722989D01*
X93662991Y-17752778D01*
X93662989Y-17752779D01*
X93506467Y-17836443D01*
X93449853Y-17853616D01*
X93336627Y-17887963D01*
X93270443Y-17894481D01*
X93204260Y-17901000D01*
X93115740Y-17901000D01*
X93049558Y-17894482D01*
X92983373Y-17887963D01*
X92870147Y-17853616D01*
X92813533Y-17836443D01*
X92657011Y-17752779D01*
X92657009Y-17752778D01*
X92620711Y-17722989D01*
X92519814Y-17640186D01*
X92436552Y-17538729D01*
X92407222Y-17502991D01*
X92397652Y-17485087D01*
X92323557Y-17346467D01*
X92285194Y-17220000D01*
X92272037Y-17176627D01*
X92254641Y-17000000D01*
X92272037Y-16823373D01*
X92323557Y-16653534D01*
X92323557Y-16653533D01*
X92407221Y-16497011D01*
X92407222Y-16497009D01*
X92436552Y-16461271D01*
X92519814Y-16359814D01*
X92621271Y-16276552D01*
X92657009Y-16247222D01*
X92674913Y-16237652D01*
X92813533Y-16163557D01*
X92870147Y-16146384D01*
X92983373Y-16112037D01*
X93049557Y-16105519D01*
X93115740Y-16099000D01*
X93204260Y-16099000D01*
X93270443Y-16105519D01*
X93270443Y-16105519D01*
G37*
G36*
X90730443Y-16105519D02*
X90796627Y-16112037D01*
X90909853Y-16146384D01*
X90966467Y-16163557D01*
X91105087Y-16237652D01*
X91122991Y-16247222D01*
X91158729Y-16276552D01*
X91260186Y-16359814D01*
X91343448Y-16461271D01*
X91372778Y-16497009D01*
X91372779Y-16497011D01*
X91456443Y-16653533D01*
X91456443Y-16653534D01*
X91507963Y-16823373D01*
X91525359Y-17000000D01*
X91507963Y-17176627D01*
X91494806Y-17220000D01*
X91456443Y-17346467D01*
X91382348Y-17485087D01*
X91372778Y-17502991D01*
X91343448Y-17538729D01*
X91260186Y-17640186D01*
X91159289Y-17722989D01*
X91122991Y-17752778D01*
X91122989Y-17752779D01*
X90966467Y-17836443D01*
X90909853Y-17853616D01*
X90796627Y-17887963D01*
X90730443Y-17894481D01*
X90664260Y-17901000D01*
X90575740Y-17901000D01*
X90509558Y-17894482D01*
X90443373Y-17887963D01*
X90330147Y-17853616D01*
X90273533Y-17836443D01*
X90117011Y-17752779D01*
X90117009Y-17752778D01*
X90080711Y-17722989D01*
X89979814Y-17640186D01*
X89896552Y-17538729D01*
X89867222Y-17502991D01*
X89857652Y-17485087D01*
X89783557Y-17346467D01*
X89745194Y-17220000D01*
X89732037Y-17176627D01*
X89714641Y-17000000D01*
X89732037Y-16823373D01*
X89783557Y-16653534D01*
X89783557Y-16653533D01*
X89867221Y-16497011D01*
X89867222Y-16497009D01*
X89896552Y-16461271D01*
X89979814Y-16359814D01*
X90081271Y-16276552D01*
X90117009Y-16247222D01*
X90134913Y-16237652D01*
X90273533Y-16163557D01*
X90330147Y-16146384D01*
X90443373Y-16112037D01*
X90509557Y-16105519D01*
X90575740Y-16099000D01*
X90664260Y-16099000D01*
X90730443Y-16105519D01*
X90730443Y-16105519D01*
G37*
G36*
X88190443Y-16105519D02*
X88256627Y-16112037D01*
X88369853Y-16146384D01*
X88426467Y-16163557D01*
X88565087Y-16237652D01*
X88582991Y-16247222D01*
X88618729Y-16276552D01*
X88720186Y-16359814D01*
X88803448Y-16461271D01*
X88832778Y-16497009D01*
X88832779Y-16497011D01*
X88916443Y-16653533D01*
X88916443Y-16653534D01*
X88967963Y-16823373D01*
X88985359Y-17000000D01*
X88967963Y-17176627D01*
X88954806Y-17220000D01*
X88916443Y-17346467D01*
X88842348Y-17485087D01*
X88832778Y-17502991D01*
X88803448Y-17538729D01*
X88720186Y-17640186D01*
X88619289Y-17722989D01*
X88582991Y-17752778D01*
X88582989Y-17752779D01*
X88426467Y-17836443D01*
X88369853Y-17853616D01*
X88256627Y-17887963D01*
X88190443Y-17894481D01*
X88124260Y-17901000D01*
X88035740Y-17901000D01*
X87969558Y-17894482D01*
X87903373Y-17887963D01*
X87790147Y-17853616D01*
X87733533Y-17836443D01*
X87577011Y-17752779D01*
X87577009Y-17752778D01*
X87540711Y-17722989D01*
X87439814Y-17640186D01*
X87356552Y-17538729D01*
X87327222Y-17502991D01*
X87317652Y-17485087D01*
X87243557Y-17346467D01*
X87205194Y-17220000D01*
X87192037Y-17176627D01*
X87174641Y-17000000D01*
X87192037Y-16823373D01*
X87243557Y-16653534D01*
X87243557Y-16653533D01*
X87327221Y-16497011D01*
X87327222Y-16497009D01*
X87356552Y-16461271D01*
X87439814Y-16359814D01*
X87541271Y-16276552D01*
X87577009Y-16247222D01*
X87594913Y-16237652D01*
X87733533Y-16163557D01*
X87790147Y-16146384D01*
X87903373Y-16112037D01*
X87969557Y-16105519D01*
X88035740Y-16099000D01*
X88124260Y-16099000D01*
X88190443Y-16105519D01*
X88190443Y-16105519D01*
G37*
G36*
X85650443Y-16105519D02*
X85716627Y-16112037D01*
X85829853Y-16146384D01*
X85886467Y-16163557D01*
X86025087Y-16237652D01*
X86042991Y-16247222D01*
X86078729Y-16276552D01*
X86180186Y-16359814D01*
X86263448Y-16461271D01*
X86292778Y-16497009D01*
X86292779Y-16497011D01*
X86376443Y-16653533D01*
X86376443Y-16653534D01*
X86427963Y-16823373D01*
X86445359Y-17000000D01*
X86427963Y-17176627D01*
X86414806Y-17220000D01*
X86376443Y-17346467D01*
X86302348Y-17485087D01*
X86292778Y-17502991D01*
X86263448Y-17538729D01*
X86180186Y-17640186D01*
X86079289Y-17722989D01*
X86042991Y-17752778D01*
X86042989Y-17752779D01*
X85886467Y-17836443D01*
X85829853Y-17853616D01*
X85716627Y-17887963D01*
X85650442Y-17894482D01*
X85584260Y-17901000D01*
X85495740Y-17901000D01*
X85429558Y-17894482D01*
X85363373Y-17887963D01*
X85250147Y-17853616D01*
X85193533Y-17836443D01*
X85037011Y-17752779D01*
X85037009Y-17752778D01*
X85000711Y-17722989D01*
X84899814Y-17640186D01*
X84816552Y-17538729D01*
X84787222Y-17502991D01*
X84777652Y-17485087D01*
X84703557Y-17346467D01*
X84665194Y-17220000D01*
X84652037Y-17176627D01*
X84634641Y-17000000D01*
X84652037Y-16823373D01*
X84703557Y-16653534D01*
X84703557Y-16653533D01*
X84787221Y-16497011D01*
X84787222Y-16497009D01*
X84816552Y-16461271D01*
X84899814Y-16359814D01*
X85001271Y-16276552D01*
X85037009Y-16247222D01*
X85054913Y-16237652D01*
X85193533Y-16163557D01*
X85250147Y-16146384D01*
X85363373Y-16112037D01*
X85429557Y-16105519D01*
X85495740Y-16099000D01*
X85584260Y-16099000D01*
X85650443Y-16105519D01*
X85650443Y-16105519D01*
G37*
G36*
X83901000Y-17901000D02*
X82099000Y-17901000D01*
X82099000Y-16099000D01*
X83901000Y-16099000D01*
X83901000Y-17901000D01*
X83901000Y-17901000D01*
G37*
M02*
