G04 #@! TF.GenerationSoftware,KiCad,Pcbnew,(5.0.1)-3*
G04 #@! TF.CreationDate,2019-04-01T17:27:39+01:00*
G04 #@! TF.ProjectId,Fractional Clock divider PCB1 bottom board,4672616374696F6E616C20436C6F636B,rev?*
G04 #@! TF.SameCoordinates,Original*
G04 #@! TF.FileFunction,Legend,Bot*
G04 #@! TF.FilePolarity,Positive*
%FSLAX46Y46*%
G04 Gerber Fmt 4.6, Leading zero omitted, Abs format (unit mm)*
G04 Created by KiCad (PCBNEW (5.0.1)-3) date 01/04/2019 17:27:39*
%MOMM*%
%LPD*%
G01*
G04 APERTURE LIST*
%ADD10C,0.120000*%
%ADD11C,0.150000*%
G04 APERTURE END LIST*
D10*
G04 #@! TO.C,H1*
X62630000Y-36330000D02*
X65230000Y-36330000D01*
X62630000Y-36330000D02*
X62630000Y-15890000D01*
X62630000Y-15890000D02*
X67830000Y-15890000D01*
X67830000Y-33730000D02*
X67830000Y-15890000D01*
X65230000Y-33730000D02*
X67830000Y-33730000D01*
X65230000Y-36330000D02*
X65230000Y-33730000D01*
X67830000Y-36330000D02*
X67830000Y-35000000D01*
X66500000Y-36330000D02*
X67830000Y-36330000D01*
D11*
G04 #@! TO.C,U2*
X87810000Y-33720000D02*
X87810000Y-32450000D01*
X87810000Y-32450000D02*
X80190000Y-32450000D01*
X80190000Y-32450000D02*
X80190000Y-33720000D01*
X89080000Y-45150000D02*
X89080000Y-48960000D01*
X89080000Y-48960000D02*
X86540000Y-48960000D01*
X86540000Y-48960000D02*
X86540000Y-45150000D01*
X86540000Y-45150000D02*
X89080000Y-45150000D01*
X87810000Y-38800000D02*
X80190000Y-38800000D01*
X80190000Y-38800000D02*
X80190000Y-33720000D01*
X87810000Y-38800000D02*
X87810000Y-33720000D01*
X89080000Y-40070000D02*
X89080000Y-42610000D01*
X89080000Y-42610000D02*
X86540000Y-42610000D01*
X86540000Y-42610000D02*
X86540000Y-40070000D01*
X86540000Y-40070000D02*
X89080000Y-40070000D01*
X81460000Y-66740000D02*
X86540000Y-66740000D01*
X86540000Y-66740000D02*
X86540000Y-64200000D01*
X86540000Y-64200000D02*
X81460000Y-64200000D01*
X89080000Y-60390000D02*
X78920000Y-60390000D01*
X78920000Y-51500000D02*
X89080000Y-51500000D01*
X78920000Y-60390000D02*
X78920000Y-51500000D01*
X89080000Y-60390000D02*
X89080000Y-51500000D01*
X75110000Y-33720000D02*
X75110000Y-69280000D01*
X75110000Y-69280000D02*
X92890000Y-69280000D01*
X92890000Y-69280000D02*
X92890000Y-33720000D01*
X92890000Y-33720000D02*
X75110000Y-33720000D01*
G04 #@! TO.C,H1*
X65991904Y-38222380D02*
X65991904Y-37222380D01*
X65991904Y-37698571D02*
X65420476Y-37698571D01*
X65420476Y-38222380D02*
X65420476Y-37222380D01*
X64420476Y-38222380D02*
X64991904Y-38222380D01*
X64706190Y-38222380D02*
X64706190Y-37222380D01*
X64801428Y-37365238D01*
X64896666Y-37460476D01*
X64991904Y-37508095D01*
G04 #@! TO.C,U2*
X73292380Y-50738095D02*
X74101904Y-50738095D01*
X74197142Y-50785714D01*
X74244761Y-50833333D01*
X74292380Y-50928571D01*
X74292380Y-51119047D01*
X74244761Y-51214285D01*
X74197142Y-51261904D01*
X74101904Y-51309523D01*
X73292380Y-51309523D01*
X73387619Y-51738095D02*
X73340000Y-51785714D01*
X73292380Y-51880952D01*
X73292380Y-52119047D01*
X73340000Y-52214285D01*
X73387619Y-52261904D01*
X73482857Y-52309523D01*
X73578095Y-52309523D01*
X73720952Y-52261904D01*
X74292380Y-51690476D01*
X74292380Y-52309523D01*
G04 #@! TD*
M02*
