G04 #@! TF.GenerationSoftware,KiCad,Pcbnew,(5.0.1)-3*
G04 #@! TF.CreationDate,2019-04-01T17:27:39+01:00*
G04 #@! TF.ProjectId,Fractional Clock divider PCB1 bottom board,4672616374696F6E616C20436C6F636B,rev?*
G04 #@! TF.SameCoordinates,Original*
G04 #@! TF.FileFunction,Legend,Top*
G04 #@! TF.FilePolarity,Positive*
%FSLAX46Y46*%
G04 Gerber Fmt 4.6, Leading zero omitted, Abs format (unit mm)*
G04 Created by KiCad (PCBNEW (5.0.1)-3) date 01/04/2019 17:27:39*
%MOMM*%
%LPD*%
G01*
G04 APERTURE LIST*
%ADD10C,0.100000*%
%ADD11C,0.120000*%
%ADD12C,0.150000*%
G04 APERTURE END LIST*
D10*
X76880952Y-21173809D02*
X76995238Y-21211904D01*
X77185714Y-21211904D01*
X77261904Y-21173809D01*
X77300000Y-21135714D01*
X77338095Y-21059523D01*
X77338095Y-20983333D01*
X77300000Y-20907142D01*
X77261904Y-20869047D01*
X77185714Y-20830952D01*
X77033333Y-20792857D01*
X76957142Y-20754761D01*
X76919047Y-20716666D01*
X76880952Y-20640476D01*
X76880952Y-20564285D01*
X76919047Y-20488095D01*
X76957142Y-20450000D01*
X77033333Y-20411904D01*
X77223809Y-20411904D01*
X77338095Y-20450000D01*
X78176190Y-20411904D02*
X78633333Y-20411904D01*
X78404761Y-21211904D02*
X78404761Y-20411904D01*
X79242857Y-20678571D02*
X79242857Y-21211904D01*
X78900000Y-20678571D02*
X78900000Y-21097619D01*
X78938095Y-21173809D01*
X79014285Y-21211904D01*
X79128571Y-21211904D01*
X79204761Y-21173809D01*
X79242857Y-21135714D01*
X79585714Y-21173809D02*
X79661904Y-21211904D01*
X79814285Y-21211904D01*
X79890476Y-21173809D01*
X79928571Y-21097619D01*
X79928571Y-21059523D01*
X79890476Y-20983333D01*
X79814285Y-20945238D01*
X79700000Y-20945238D01*
X79623809Y-20907142D01*
X79585714Y-20830952D01*
X79585714Y-20792857D01*
X79623809Y-20716666D01*
X79700000Y-20678571D01*
X79814285Y-20678571D01*
X79890476Y-20716666D01*
X80271428Y-21211904D02*
X80271428Y-20411904D01*
X80347619Y-20907142D02*
X80576190Y-21211904D01*
X80576190Y-20678571D02*
X80271428Y-20983333D01*
X81985714Y-21135714D02*
X81947619Y-21173809D01*
X81833333Y-21211904D01*
X81757142Y-21211904D01*
X81642857Y-21173809D01*
X81566666Y-21097619D01*
X81528571Y-21021428D01*
X81490476Y-20869047D01*
X81490476Y-20754761D01*
X81528571Y-20602380D01*
X81566666Y-20526190D01*
X81642857Y-20450000D01*
X81757142Y-20411904D01*
X81833333Y-20411904D01*
X81947619Y-20450000D01*
X81985714Y-20488095D01*
X82442857Y-21211904D02*
X82366666Y-21173809D01*
X82328571Y-21097619D01*
X82328571Y-20411904D01*
X82861904Y-21211904D02*
X82785714Y-21173809D01*
X82747619Y-21135714D01*
X82709523Y-21059523D01*
X82709523Y-20830952D01*
X82747619Y-20754761D01*
X82785714Y-20716666D01*
X82861904Y-20678571D01*
X82976190Y-20678571D01*
X83052380Y-20716666D01*
X83090476Y-20754761D01*
X83128571Y-20830952D01*
X83128571Y-21059523D01*
X83090476Y-21135714D01*
X83052380Y-21173809D01*
X82976190Y-21211904D01*
X82861904Y-21211904D01*
X83814285Y-21173809D02*
X83738095Y-21211904D01*
X83585714Y-21211904D01*
X83509523Y-21173809D01*
X83471428Y-21135714D01*
X83433333Y-21059523D01*
X83433333Y-20830952D01*
X83471428Y-20754761D01*
X83509523Y-20716666D01*
X83585714Y-20678571D01*
X83738095Y-20678571D01*
X83814285Y-20716666D01*
X84157142Y-21211904D02*
X84157142Y-20411904D01*
X84233333Y-20907142D02*
X84461904Y-21211904D01*
X84461904Y-20678571D02*
X84157142Y-20983333D01*
X85414285Y-21211904D02*
X85414285Y-20411904D01*
X85604761Y-20411904D01*
X85719047Y-20450000D01*
X85795238Y-20526190D01*
X85833333Y-20602380D01*
X85871428Y-20754761D01*
X85871428Y-20869047D01*
X85833333Y-21021428D01*
X85795238Y-21097619D01*
X85719047Y-21173809D01*
X85604761Y-21211904D01*
X85414285Y-21211904D01*
X86214285Y-21211904D02*
X86214285Y-20678571D01*
X86214285Y-20411904D02*
X86176190Y-20450000D01*
X86214285Y-20488095D01*
X86252380Y-20450000D01*
X86214285Y-20411904D01*
X86214285Y-20488095D01*
X86519047Y-20678571D02*
X86709523Y-21211904D01*
X86900000Y-20678571D01*
X87204761Y-21211904D02*
X87204761Y-20678571D01*
X87204761Y-20411904D02*
X87166666Y-20450000D01*
X87204761Y-20488095D01*
X87242857Y-20450000D01*
X87204761Y-20411904D01*
X87204761Y-20488095D01*
X87928571Y-21211904D02*
X87928571Y-20411904D01*
X87928571Y-21173809D02*
X87852380Y-21211904D01*
X87700000Y-21211904D01*
X87623809Y-21173809D01*
X87585714Y-21135714D01*
X87547619Y-21059523D01*
X87547619Y-20830952D01*
X87585714Y-20754761D01*
X87623809Y-20716666D01*
X87700000Y-20678571D01*
X87852380Y-20678571D01*
X87928571Y-20716666D01*
X88614285Y-21173809D02*
X88538095Y-21211904D01*
X88385714Y-21211904D01*
X88309523Y-21173809D01*
X88271428Y-21097619D01*
X88271428Y-20792857D01*
X88309523Y-20716666D01*
X88385714Y-20678571D01*
X88538095Y-20678571D01*
X88614285Y-20716666D01*
X88652380Y-20792857D01*
X88652380Y-20869047D01*
X88271428Y-20945238D01*
X88995238Y-21211904D02*
X88995238Y-20678571D01*
X88995238Y-20830952D02*
X89033333Y-20754761D01*
X89071428Y-20716666D01*
X89147619Y-20678571D01*
X89223809Y-20678571D01*
X90061904Y-20983333D02*
X90442857Y-20983333D01*
X89985714Y-21211904D02*
X90252380Y-20411904D01*
X90519047Y-21211904D01*
X90785714Y-20678571D02*
X90785714Y-21478571D01*
X90785714Y-20716666D02*
X90861904Y-20678571D01*
X91014285Y-20678571D01*
X91090476Y-20716666D01*
X91128571Y-20754761D01*
X91166666Y-20830952D01*
X91166666Y-21059523D01*
X91128571Y-21135714D01*
X91090476Y-21173809D01*
X91014285Y-21211904D01*
X90861904Y-21211904D01*
X90785714Y-21173809D01*
X91509523Y-21211904D02*
X91509523Y-20678571D01*
X91509523Y-20830952D02*
X91547619Y-20754761D01*
X91585714Y-20716666D01*
X91661904Y-20678571D01*
X91738095Y-20678571D01*
X92004761Y-21211904D02*
X92004761Y-20678571D01*
X92004761Y-20411904D02*
X91966666Y-20450000D01*
X92004761Y-20488095D01*
X92042857Y-20450000D01*
X92004761Y-20411904D01*
X92004761Y-20488095D01*
X92500000Y-21211904D02*
X92423809Y-21173809D01*
X92385714Y-21097619D01*
X92385714Y-20411904D01*
X93376190Y-20488095D02*
X93414285Y-20450000D01*
X93490476Y-20411904D01*
X93680952Y-20411904D01*
X93757142Y-20450000D01*
X93795238Y-20488095D01*
X93833333Y-20564285D01*
X93833333Y-20640476D01*
X93795238Y-20754761D01*
X93338095Y-21211904D01*
X93833333Y-21211904D01*
X94328571Y-20411904D02*
X94404761Y-20411904D01*
X94480952Y-20450000D01*
X94519047Y-20488095D01*
X94557142Y-20564285D01*
X94595238Y-20716666D01*
X94595238Y-20907142D01*
X94557142Y-21059523D01*
X94519047Y-21135714D01*
X94480952Y-21173809D01*
X94404761Y-21211904D01*
X94328571Y-21211904D01*
X94252380Y-21173809D01*
X94214285Y-21135714D01*
X94176190Y-21059523D01*
X94138095Y-20907142D01*
X94138095Y-20716666D01*
X94176190Y-20564285D01*
X94214285Y-20488095D01*
X94252380Y-20450000D01*
X94328571Y-20411904D01*
X95357142Y-21211904D02*
X94900000Y-21211904D01*
X95128571Y-21211904D02*
X95128571Y-20411904D01*
X95052380Y-20526190D01*
X94976190Y-20602380D01*
X94900000Y-20640476D01*
X95738095Y-21211904D02*
X95890476Y-21211904D01*
X95966666Y-21173809D01*
X96004761Y-21135714D01*
X96080952Y-21021428D01*
X96119047Y-20869047D01*
X96119047Y-20564285D01*
X96080952Y-20488095D01*
X96042857Y-20450000D01*
X95966666Y-20411904D01*
X95814285Y-20411904D01*
X95738095Y-20450000D01*
X95700000Y-20488095D01*
X95661904Y-20564285D01*
X95661904Y-20754761D01*
X95700000Y-20830952D01*
X95738095Y-20869047D01*
X95814285Y-20907142D01*
X95966666Y-20907142D01*
X96042857Y-20869047D01*
X96080952Y-20830952D01*
X96119047Y-20754761D01*
X82842857Y-22092857D02*
X82957142Y-22130952D01*
X82995238Y-22169047D01*
X83033333Y-22245238D01*
X83033333Y-22359523D01*
X82995238Y-22435714D01*
X82957142Y-22473809D01*
X82880952Y-22511904D01*
X82576190Y-22511904D01*
X82576190Y-21711904D01*
X82842857Y-21711904D01*
X82919047Y-21750000D01*
X82957142Y-21788095D01*
X82995238Y-21864285D01*
X82995238Y-21940476D01*
X82957142Y-22016666D01*
X82919047Y-22054761D01*
X82842857Y-22092857D01*
X82576190Y-22092857D01*
X83490476Y-22511904D02*
X83414285Y-22473809D01*
X83376190Y-22435714D01*
X83338095Y-22359523D01*
X83338095Y-22130952D01*
X83376190Y-22054761D01*
X83414285Y-22016666D01*
X83490476Y-21978571D01*
X83604761Y-21978571D01*
X83680952Y-22016666D01*
X83719047Y-22054761D01*
X83757142Y-22130952D01*
X83757142Y-22359523D01*
X83719047Y-22435714D01*
X83680952Y-22473809D01*
X83604761Y-22511904D01*
X83490476Y-22511904D01*
X83985714Y-21978571D02*
X84290476Y-21978571D01*
X84100000Y-21711904D02*
X84100000Y-22397619D01*
X84138095Y-22473809D01*
X84214285Y-22511904D01*
X84290476Y-22511904D01*
X84442857Y-21978571D02*
X84747619Y-21978571D01*
X84557142Y-21711904D02*
X84557142Y-22397619D01*
X84595238Y-22473809D01*
X84671428Y-22511904D01*
X84747619Y-22511904D01*
X85128571Y-22511904D02*
X85052380Y-22473809D01*
X85014285Y-22435714D01*
X84976190Y-22359523D01*
X84976190Y-22130952D01*
X85014285Y-22054761D01*
X85052380Y-22016666D01*
X85128571Y-21978571D01*
X85242857Y-21978571D01*
X85319047Y-22016666D01*
X85357142Y-22054761D01*
X85395238Y-22130952D01*
X85395238Y-22359523D01*
X85357142Y-22435714D01*
X85319047Y-22473809D01*
X85242857Y-22511904D01*
X85128571Y-22511904D01*
X85738095Y-22511904D02*
X85738095Y-21978571D01*
X85738095Y-22054761D02*
X85776190Y-22016666D01*
X85852380Y-21978571D01*
X85966666Y-21978571D01*
X86042857Y-22016666D01*
X86080952Y-22092857D01*
X86080952Y-22511904D01*
X86080952Y-22092857D02*
X86119047Y-22016666D01*
X86195238Y-21978571D01*
X86309523Y-21978571D01*
X86385714Y-22016666D01*
X86423809Y-22092857D01*
X86423809Y-22511904D01*
X87414285Y-22511904D02*
X87414285Y-21711904D01*
X87414285Y-22016666D02*
X87490476Y-21978571D01*
X87642857Y-21978571D01*
X87719047Y-22016666D01*
X87757142Y-22054761D01*
X87795238Y-22130952D01*
X87795238Y-22359523D01*
X87757142Y-22435714D01*
X87719047Y-22473809D01*
X87642857Y-22511904D01*
X87490476Y-22511904D01*
X87414285Y-22473809D01*
X88252380Y-22511904D02*
X88176190Y-22473809D01*
X88138095Y-22435714D01*
X88100000Y-22359523D01*
X88100000Y-22130952D01*
X88138095Y-22054761D01*
X88176190Y-22016666D01*
X88252380Y-21978571D01*
X88366666Y-21978571D01*
X88442857Y-22016666D01*
X88480952Y-22054761D01*
X88519047Y-22130952D01*
X88519047Y-22359523D01*
X88480952Y-22435714D01*
X88442857Y-22473809D01*
X88366666Y-22511904D01*
X88252380Y-22511904D01*
X89204761Y-22511904D02*
X89204761Y-22092857D01*
X89166666Y-22016666D01*
X89090476Y-21978571D01*
X88938095Y-21978571D01*
X88861904Y-22016666D01*
X89204761Y-22473809D02*
X89128571Y-22511904D01*
X88938095Y-22511904D01*
X88861904Y-22473809D01*
X88823809Y-22397619D01*
X88823809Y-22321428D01*
X88861904Y-22245238D01*
X88938095Y-22207142D01*
X89128571Y-22207142D01*
X89204761Y-22169047D01*
X89585714Y-22511904D02*
X89585714Y-21978571D01*
X89585714Y-22130952D02*
X89623809Y-22054761D01*
X89661904Y-22016666D01*
X89738095Y-21978571D01*
X89814285Y-21978571D01*
X90423809Y-22511904D02*
X90423809Y-21711904D01*
X90423809Y-22473809D02*
X90347619Y-22511904D01*
X90195238Y-22511904D01*
X90119047Y-22473809D01*
X90080952Y-22435714D01*
X90042857Y-22359523D01*
X90042857Y-22130952D01*
X90080952Y-22054761D01*
X90119047Y-22016666D01*
X90195238Y-21978571D01*
X90347619Y-21978571D01*
X90423809Y-22016666D01*
D11*
G04 #@! TO.C,C3*
X88431834Y-100146702D02*
X88431834Y-102086702D01*
X88431834Y-108066702D02*
X88431834Y-106126702D01*
X87011834Y-102086702D02*
X87011834Y-106126702D01*
X89851834Y-102086702D02*
X87011834Y-102086702D01*
X89851834Y-106126702D02*
X89851834Y-102086702D01*
X87011834Y-106126702D02*
X89851834Y-106126702D01*
G04 #@! TO.C,C4*
X88431834Y-73646702D02*
X88431834Y-75586702D01*
X88431834Y-81566702D02*
X88431834Y-79626702D01*
X87011834Y-75586702D02*
X87011834Y-79626702D01*
X89851834Y-75586702D02*
X87011834Y-75586702D01*
X89851834Y-79626702D02*
X89851834Y-75586702D01*
X87011834Y-79626702D02*
X89851834Y-79626702D01*
G04 #@! TO.C,C1*
X67120000Y-40000000D02*
G75*
G03X67120000Y-40000000I-2620000J0D01*
G01*
X64500000Y-38960000D02*
X64500000Y-37420000D01*
X64500000Y-42580000D02*
X64500000Y-41040000D01*
X64460000Y-38960000D02*
X64460000Y-37420000D01*
X64460000Y-42580000D02*
X64460000Y-41040000D01*
X64420000Y-42579000D02*
X64420000Y-41040000D01*
X64420000Y-38960000D02*
X64420000Y-37421000D01*
X64380000Y-42578000D02*
X64380000Y-41040000D01*
X64380000Y-38960000D02*
X64380000Y-37422000D01*
X64340000Y-42576000D02*
X64340000Y-41040000D01*
X64340000Y-38960000D02*
X64340000Y-37424000D01*
X64300000Y-42573000D02*
X64300000Y-41040000D01*
X64300000Y-38960000D02*
X64300000Y-37427000D01*
X64260000Y-42569000D02*
X64260000Y-41040000D01*
X64260000Y-38960000D02*
X64260000Y-37431000D01*
X64220000Y-42565000D02*
X64220000Y-41040000D01*
X64220000Y-38960000D02*
X64220000Y-37435000D01*
X64180000Y-42561000D02*
X64180000Y-41040000D01*
X64180000Y-38960000D02*
X64180000Y-37439000D01*
X64140000Y-42556000D02*
X64140000Y-41040000D01*
X64140000Y-38960000D02*
X64140000Y-37444000D01*
X64100000Y-42550000D02*
X64100000Y-41040000D01*
X64100000Y-38960000D02*
X64100000Y-37450000D01*
X64060000Y-42543000D02*
X64060000Y-41040000D01*
X64060000Y-38960000D02*
X64060000Y-37457000D01*
X64020000Y-42536000D02*
X64020000Y-41040000D01*
X64020000Y-38960000D02*
X64020000Y-37464000D01*
X63980000Y-42528000D02*
X63980000Y-41040000D01*
X63980000Y-38960000D02*
X63980000Y-37472000D01*
X63940000Y-42520000D02*
X63940000Y-41040000D01*
X63940000Y-38960000D02*
X63940000Y-37480000D01*
X63900000Y-42511000D02*
X63900000Y-41040000D01*
X63900000Y-38960000D02*
X63900000Y-37489000D01*
X63860000Y-42501000D02*
X63860000Y-41040000D01*
X63860000Y-38960000D02*
X63860000Y-37499000D01*
X63820000Y-42491000D02*
X63820000Y-41040000D01*
X63820000Y-38960000D02*
X63820000Y-37509000D01*
X63779000Y-42480000D02*
X63779000Y-41040000D01*
X63779000Y-38960000D02*
X63779000Y-37520000D01*
X63739000Y-42468000D02*
X63739000Y-41040000D01*
X63739000Y-38960000D02*
X63739000Y-37532000D01*
X63699000Y-42455000D02*
X63699000Y-41040000D01*
X63699000Y-38960000D02*
X63699000Y-37545000D01*
X63659000Y-42442000D02*
X63659000Y-41040000D01*
X63659000Y-38960000D02*
X63659000Y-37558000D01*
X63619000Y-42428000D02*
X63619000Y-41040000D01*
X63619000Y-38960000D02*
X63619000Y-37572000D01*
X63579000Y-42414000D02*
X63579000Y-41040000D01*
X63579000Y-38960000D02*
X63579000Y-37586000D01*
X63539000Y-42398000D02*
X63539000Y-41040000D01*
X63539000Y-38960000D02*
X63539000Y-37602000D01*
X63499000Y-42382000D02*
X63499000Y-41040000D01*
X63499000Y-38960000D02*
X63499000Y-37618000D01*
X63459000Y-42365000D02*
X63459000Y-41040000D01*
X63459000Y-38960000D02*
X63459000Y-37635000D01*
X63419000Y-42348000D02*
X63419000Y-41040000D01*
X63419000Y-38960000D02*
X63419000Y-37652000D01*
X63379000Y-42329000D02*
X63379000Y-41040000D01*
X63379000Y-38960000D02*
X63379000Y-37671000D01*
X63339000Y-42310000D02*
X63339000Y-41040000D01*
X63339000Y-38960000D02*
X63339000Y-37690000D01*
X63299000Y-42290000D02*
X63299000Y-41040000D01*
X63299000Y-38960000D02*
X63299000Y-37710000D01*
X63259000Y-42268000D02*
X63259000Y-41040000D01*
X63259000Y-38960000D02*
X63259000Y-37732000D01*
X63219000Y-42247000D02*
X63219000Y-41040000D01*
X63219000Y-38960000D02*
X63219000Y-37753000D01*
X63179000Y-42224000D02*
X63179000Y-41040000D01*
X63179000Y-38960000D02*
X63179000Y-37776000D01*
X63139000Y-42200000D02*
X63139000Y-41040000D01*
X63139000Y-38960000D02*
X63139000Y-37800000D01*
X63099000Y-42175000D02*
X63099000Y-41040000D01*
X63099000Y-38960000D02*
X63099000Y-37825000D01*
X63059000Y-42149000D02*
X63059000Y-41040000D01*
X63059000Y-38960000D02*
X63059000Y-37851000D01*
X63019000Y-42122000D02*
X63019000Y-41040000D01*
X63019000Y-38960000D02*
X63019000Y-37878000D01*
X62979000Y-42095000D02*
X62979000Y-41040000D01*
X62979000Y-38960000D02*
X62979000Y-37905000D01*
X62939000Y-42065000D02*
X62939000Y-41040000D01*
X62939000Y-38960000D02*
X62939000Y-37935000D01*
X62899000Y-42035000D02*
X62899000Y-41040000D01*
X62899000Y-38960000D02*
X62899000Y-37965000D01*
X62859000Y-42004000D02*
X62859000Y-41040000D01*
X62859000Y-38960000D02*
X62859000Y-37996000D01*
X62819000Y-41971000D02*
X62819000Y-41040000D01*
X62819000Y-38960000D02*
X62819000Y-38029000D01*
X62779000Y-41937000D02*
X62779000Y-41040000D01*
X62779000Y-38960000D02*
X62779000Y-38063000D01*
X62739000Y-41901000D02*
X62739000Y-41040000D01*
X62739000Y-38960000D02*
X62739000Y-38099000D01*
X62699000Y-41864000D02*
X62699000Y-41040000D01*
X62699000Y-38960000D02*
X62699000Y-38136000D01*
X62659000Y-41826000D02*
X62659000Y-41040000D01*
X62659000Y-38960000D02*
X62659000Y-38174000D01*
X62619000Y-41785000D02*
X62619000Y-41040000D01*
X62619000Y-38960000D02*
X62619000Y-38215000D01*
X62579000Y-41743000D02*
X62579000Y-41040000D01*
X62579000Y-38960000D02*
X62579000Y-38257000D01*
X62539000Y-41699000D02*
X62539000Y-41040000D01*
X62539000Y-38960000D02*
X62539000Y-38301000D01*
X62499000Y-41653000D02*
X62499000Y-41040000D01*
X62499000Y-38960000D02*
X62499000Y-38347000D01*
X62459000Y-41605000D02*
X62459000Y-38395000D01*
X62419000Y-41554000D02*
X62419000Y-38446000D01*
X62379000Y-41500000D02*
X62379000Y-38500000D01*
X62339000Y-41443000D02*
X62339000Y-38557000D01*
X62299000Y-41383000D02*
X62299000Y-38617000D01*
X62259000Y-41319000D02*
X62259000Y-38681000D01*
X62219000Y-41251000D02*
X62219000Y-38749000D01*
X62179000Y-41178000D02*
X62179000Y-38822000D01*
X62139000Y-41098000D02*
X62139000Y-38902000D01*
X62099000Y-41011000D02*
X62099000Y-38989000D01*
X62059000Y-40915000D02*
X62059000Y-39085000D01*
X62019000Y-40805000D02*
X62019000Y-39195000D01*
X61979000Y-40677000D02*
X61979000Y-39323000D01*
X61939000Y-40518000D02*
X61939000Y-39482000D01*
X61899000Y-40284000D02*
X61899000Y-39716000D01*
X67304775Y-41475000D02*
X66804775Y-41475000D01*
X67054775Y-41725000D02*
X67054775Y-41225000D01*
G04 #@! TO.C,C2*
X61945225Y-44275000D02*
X61945225Y-44775000D01*
X61695225Y-44525000D02*
X62195225Y-44525000D01*
X67101000Y-45716000D02*
X67101000Y-46284000D01*
X67061000Y-45482000D02*
X67061000Y-46518000D01*
X67021000Y-45323000D02*
X67021000Y-46677000D01*
X66981000Y-45195000D02*
X66981000Y-46805000D01*
X66941000Y-45085000D02*
X66941000Y-46915000D01*
X66901000Y-44989000D02*
X66901000Y-47011000D01*
X66861000Y-44902000D02*
X66861000Y-47098000D01*
X66821000Y-44822000D02*
X66821000Y-47178000D01*
X66781000Y-44749000D02*
X66781000Y-47251000D01*
X66741000Y-44681000D02*
X66741000Y-47319000D01*
X66701000Y-44617000D02*
X66701000Y-47383000D01*
X66661000Y-44557000D02*
X66661000Y-47443000D01*
X66621000Y-44500000D02*
X66621000Y-47500000D01*
X66581000Y-44446000D02*
X66581000Y-47554000D01*
X66541000Y-44395000D02*
X66541000Y-47605000D01*
X66501000Y-47040000D02*
X66501000Y-47653000D01*
X66501000Y-44347000D02*
X66501000Y-44960000D01*
X66461000Y-47040000D02*
X66461000Y-47699000D01*
X66461000Y-44301000D02*
X66461000Y-44960000D01*
X66421000Y-47040000D02*
X66421000Y-47743000D01*
X66421000Y-44257000D02*
X66421000Y-44960000D01*
X66381000Y-47040000D02*
X66381000Y-47785000D01*
X66381000Y-44215000D02*
X66381000Y-44960000D01*
X66341000Y-47040000D02*
X66341000Y-47826000D01*
X66341000Y-44174000D02*
X66341000Y-44960000D01*
X66301000Y-47040000D02*
X66301000Y-47864000D01*
X66301000Y-44136000D02*
X66301000Y-44960000D01*
X66261000Y-47040000D02*
X66261000Y-47901000D01*
X66261000Y-44099000D02*
X66261000Y-44960000D01*
X66221000Y-47040000D02*
X66221000Y-47937000D01*
X66221000Y-44063000D02*
X66221000Y-44960000D01*
X66181000Y-47040000D02*
X66181000Y-47971000D01*
X66181000Y-44029000D02*
X66181000Y-44960000D01*
X66141000Y-47040000D02*
X66141000Y-48004000D01*
X66141000Y-43996000D02*
X66141000Y-44960000D01*
X66101000Y-47040000D02*
X66101000Y-48035000D01*
X66101000Y-43965000D02*
X66101000Y-44960000D01*
X66061000Y-47040000D02*
X66061000Y-48065000D01*
X66061000Y-43935000D02*
X66061000Y-44960000D01*
X66021000Y-47040000D02*
X66021000Y-48095000D01*
X66021000Y-43905000D02*
X66021000Y-44960000D01*
X65981000Y-47040000D02*
X65981000Y-48122000D01*
X65981000Y-43878000D02*
X65981000Y-44960000D01*
X65941000Y-47040000D02*
X65941000Y-48149000D01*
X65941000Y-43851000D02*
X65941000Y-44960000D01*
X65901000Y-47040000D02*
X65901000Y-48175000D01*
X65901000Y-43825000D02*
X65901000Y-44960000D01*
X65861000Y-47040000D02*
X65861000Y-48200000D01*
X65861000Y-43800000D02*
X65861000Y-44960000D01*
X65821000Y-47040000D02*
X65821000Y-48224000D01*
X65821000Y-43776000D02*
X65821000Y-44960000D01*
X65781000Y-47040000D02*
X65781000Y-48247000D01*
X65781000Y-43753000D02*
X65781000Y-44960000D01*
X65741000Y-47040000D02*
X65741000Y-48268000D01*
X65741000Y-43732000D02*
X65741000Y-44960000D01*
X65701000Y-47040000D02*
X65701000Y-48290000D01*
X65701000Y-43710000D02*
X65701000Y-44960000D01*
X65661000Y-47040000D02*
X65661000Y-48310000D01*
X65661000Y-43690000D02*
X65661000Y-44960000D01*
X65621000Y-47040000D02*
X65621000Y-48329000D01*
X65621000Y-43671000D02*
X65621000Y-44960000D01*
X65581000Y-47040000D02*
X65581000Y-48348000D01*
X65581000Y-43652000D02*
X65581000Y-44960000D01*
X65541000Y-47040000D02*
X65541000Y-48365000D01*
X65541000Y-43635000D02*
X65541000Y-44960000D01*
X65501000Y-47040000D02*
X65501000Y-48382000D01*
X65501000Y-43618000D02*
X65501000Y-44960000D01*
X65461000Y-47040000D02*
X65461000Y-48398000D01*
X65461000Y-43602000D02*
X65461000Y-44960000D01*
X65421000Y-47040000D02*
X65421000Y-48414000D01*
X65421000Y-43586000D02*
X65421000Y-44960000D01*
X65381000Y-47040000D02*
X65381000Y-48428000D01*
X65381000Y-43572000D02*
X65381000Y-44960000D01*
X65341000Y-47040000D02*
X65341000Y-48442000D01*
X65341000Y-43558000D02*
X65341000Y-44960000D01*
X65301000Y-47040000D02*
X65301000Y-48455000D01*
X65301000Y-43545000D02*
X65301000Y-44960000D01*
X65261000Y-47040000D02*
X65261000Y-48468000D01*
X65261000Y-43532000D02*
X65261000Y-44960000D01*
X65221000Y-47040000D02*
X65221000Y-48480000D01*
X65221000Y-43520000D02*
X65221000Y-44960000D01*
X65180000Y-47040000D02*
X65180000Y-48491000D01*
X65180000Y-43509000D02*
X65180000Y-44960000D01*
X65140000Y-47040000D02*
X65140000Y-48501000D01*
X65140000Y-43499000D02*
X65140000Y-44960000D01*
X65100000Y-47040000D02*
X65100000Y-48511000D01*
X65100000Y-43489000D02*
X65100000Y-44960000D01*
X65060000Y-47040000D02*
X65060000Y-48520000D01*
X65060000Y-43480000D02*
X65060000Y-44960000D01*
X65020000Y-47040000D02*
X65020000Y-48528000D01*
X65020000Y-43472000D02*
X65020000Y-44960000D01*
X64980000Y-47040000D02*
X64980000Y-48536000D01*
X64980000Y-43464000D02*
X64980000Y-44960000D01*
X64940000Y-47040000D02*
X64940000Y-48543000D01*
X64940000Y-43457000D02*
X64940000Y-44960000D01*
X64900000Y-47040000D02*
X64900000Y-48550000D01*
X64900000Y-43450000D02*
X64900000Y-44960000D01*
X64860000Y-47040000D02*
X64860000Y-48556000D01*
X64860000Y-43444000D02*
X64860000Y-44960000D01*
X64820000Y-47040000D02*
X64820000Y-48561000D01*
X64820000Y-43439000D02*
X64820000Y-44960000D01*
X64780000Y-47040000D02*
X64780000Y-48565000D01*
X64780000Y-43435000D02*
X64780000Y-44960000D01*
X64740000Y-47040000D02*
X64740000Y-48569000D01*
X64740000Y-43431000D02*
X64740000Y-44960000D01*
X64700000Y-47040000D02*
X64700000Y-48573000D01*
X64700000Y-43427000D02*
X64700000Y-44960000D01*
X64660000Y-47040000D02*
X64660000Y-48576000D01*
X64660000Y-43424000D02*
X64660000Y-44960000D01*
X64620000Y-47040000D02*
X64620000Y-48578000D01*
X64620000Y-43422000D02*
X64620000Y-44960000D01*
X64580000Y-47040000D02*
X64580000Y-48579000D01*
X64580000Y-43421000D02*
X64580000Y-44960000D01*
X64540000Y-43420000D02*
X64540000Y-44960000D01*
X64540000Y-47040000D02*
X64540000Y-48580000D01*
X64500000Y-43420000D02*
X64500000Y-44960000D01*
X64500000Y-47040000D02*
X64500000Y-48580000D01*
X67120000Y-46000000D02*
G75*
G03X67120000Y-46000000I-2620000J0D01*
G01*
G04 #@! TO.C,D1*
X72530000Y-24360000D02*
X75470000Y-24360000D01*
X72530000Y-24120000D02*
X75470000Y-24120000D01*
X72530000Y-24240000D02*
X75470000Y-24240000D01*
X74000000Y-18680000D02*
X74000000Y-19700000D01*
X74000000Y-26160000D02*
X74000000Y-25140000D01*
X72530000Y-19700000D02*
X72530000Y-25140000D01*
X75470000Y-19700000D02*
X72530000Y-19700000D01*
X75470000Y-25140000D02*
X75470000Y-19700000D01*
X72530000Y-25140000D02*
X75470000Y-25140000D01*
G04 #@! TO.C,D2*
X71970000Y-19860000D02*
X69030000Y-19860000D01*
X69030000Y-19860000D02*
X69030000Y-25300000D01*
X69030000Y-25300000D02*
X71970000Y-25300000D01*
X71970000Y-25300000D02*
X71970000Y-19860000D01*
X70500000Y-18840000D02*
X70500000Y-19860000D01*
X70500000Y-26320000D02*
X70500000Y-25300000D01*
X71970000Y-20760000D02*
X69030000Y-20760000D01*
X71970000Y-20880000D02*
X69030000Y-20880000D01*
X71970000Y-20640000D02*
X69030000Y-20640000D01*
G04 #@! TO.C,D6*
X90140000Y-115970000D02*
X90140000Y-113030000D01*
X90140000Y-113030000D02*
X84700000Y-113030000D01*
X84700000Y-113030000D02*
X84700000Y-115970000D01*
X84700000Y-115970000D02*
X90140000Y-115970000D01*
X91160000Y-114500000D02*
X90140000Y-114500000D01*
X83680000Y-114500000D02*
X84700000Y-114500000D01*
X89240000Y-115970000D02*
X89240000Y-113030000D01*
X89120000Y-115970000D02*
X89120000Y-113030000D01*
X89360000Y-115970000D02*
X89360000Y-113030000D01*
G04 #@! TO.C,D7*
X64970000Y-60700000D02*
X62030000Y-60700000D01*
X62030000Y-60700000D02*
X62030000Y-66140000D01*
X62030000Y-66140000D02*
X64970000Y-66140000D01*
X64970000Y-66140000D02*
X64970000Y-60700000D01*
X63500000Y-59680000D02*
X63500000Y-60700000D01*
X63500000Y-67160000D02*
X63500000Y-66140000D01*
X64970000Y-61600000D02*
X62030000Y-61600000D01*
X64970000Y-61720000D02*
X62030000Y-61720000D01*
X64970000Y-61480000D02*
X62030000Y-61480000D01*
G04 #@! TO.C,D8*
X89970000Y-58140000D02*
X87030000Y-58140000D01*
X89970000Y-58380000D02*
X87030000Y-58380000D01*
X89970000Y-58260000D02*
X87030000Y-58260000D01*
X88500000Y-63820000D02*
X88500000Y-62800000D01*
X88500000Y-56340000D02*
X88500000Y-57360000D01*
X89970000Y-62800000D02*
X89970000Y-57360000D01*
X87030000Y-62800000D02*
X89970000Y-62800000D01*
X87030000Y-57360000D02*
X87030000Y-62800000D01*
X89970000Y-57360000D02*
X87030000Y-57360000D01*
G04 #@! TO.C,D9*
X84030000Y-61860000D02*
X86970000Y-61860000D01*
X84030000Y-61620000D02*
X86970000Y-61620000D01*
X84030000Y-61740000D02*
X86970000Y-61740000D01*
X85500000Y-56180000D02*
X85500000Y-57200000D01*
X85500000Y-63660000D02*
X85500000Y-62640000D01*
X84030000Y-57200000D02*
X84030000Y-62640000D01*
X86970000Y-57200000D02*
X84030000Y-57200000D01*
X86970000Y-62640000D02*
X86970000Y-57200000D01*
X84030000Y-62640000D02*
X86970000Y-62640000D01*
G04 #@! TO.C,J2*
X81670000Y-18330000D02*
X81670000Y-17000000D01*
X83000000Y-18330000D02*
X81670000Y-18330000D01*
X84270000Y-18330000D02*
X84270000Y-15670000D01*
X84270000Y-15670000D02*
X97030000Y-15670000D01*
X84270000Y-18330000D02*
X97030000Y-18330000D01*
X97030000Y-18330000D02*
X97030000Y-15670000D01*
G04 #@! TO.C,J3*
X97670000Y-60890000D02*
X100330000Y-60890000D01*
X97670000Y-25270000D02*
X97670000Y-60890000D01*
X100330000Y-25270000D02*
X100330000Y-60890000D01*
X97670000Y-25270000D02*
X100330000Y-25270000D01*
X97670000Y-24000000D02*
X97670000Y-22670000D01*
X97670000Y-22670000D02*
X99000000Y-22670000D01*
G04 #@! TO.C,J6*
X62170000Y-87170000D02*
X63500000Y-87170000D01*
X62170000Y-88500000D02*
X62170000Y-87170000D01*
X62170000Y-89770000D02*
X64830000Y-89770000D01*
X64830000Y-89770000D02*
X64830000Y-110150000D01*
X62170000Y-89770000D02*
X62170000Y-110150000D01*
X62170000Y-110150000D02*
X64830000Y-110150000D01*
G04 #@! TO.C,Q4*
X98838478Y-113891522D02*
G75*
G03X94400000Y-115730000I-1838478J-1838478D01*
G01*
X98838478Y-117568478D02*
G75*
G02X94400000Y-115730000I-1838478J1838478D01*
G01*
X98850000Y-117530000D02*
X98850000Y-113930000D01*
G04 #@! TO.C,Q5*
X62470000Y-54850000D02*
X66070000Y-54850000D01*
X62431522Y-54838478D02*
G75*
G02X64270000Y-50400000I1838478J1838478D01*
G01*
X66108478Y-54838478D02*
G75*
G03X64270000Y-50400000I-1838478J1838478D01*
G01*
G04 #@! TO.C,R1*
X99129090Y-101046542D02*
X96389090Y-101046542D01*
X96389090Y-101046542D02*
X96389090Y-107586542D01*
X96389090Y-107586542D02*
X99129090Y-107586542D01*
X99129090Y-107586542D02*
X99129090Y-101046542D01*
X97759090Y-100276542D02*
X97759090Y-101046542D01*
X97759090Y-108356542D02*
X97759090Y-107586542D01*
G04 #@! TO.C,R2*
X94705873Y-73691486D02*
X94705873Y-74461486D01*
X94705873Y-81771486D02*
X94705873Y-81001486D01*
X93335873Y-74461486D02*
X93335873Y-81001486D01*
X96075873Y-74461486D02*
X93335873Y-74461486D01*
X96075873Y-81001486D02*
X96075873Y-74461486D01*
X93335873Y-81001486D02*
X96075873Y-81001486D01*
G04 #@! TO.C,R3*
X83835873Y-81080678D02*
X86575873Y-81080678D01*
X86575873Y-81080678D02*
X86575873Y-74540678D01*
X86575873Y-74540678D02*
X83835873Y-74540678D01*
X83835873Y-74540678D02*
X83835873Y-81080678D01*
X85205873Y-81850678D02*
X85205873Y-81080678D01*
X85205873Y-73770678D02*
X85205873Y-74540678D01*
G04 #@! TO.C,R4*
X91473391Y-100191486D02*
X91473391Y-100961486D01*
X91473391Y-108271486D02*
X91473391Y-107501486D01*
X90103391Y-100961486D02*
X90103391Y-107501486D01*
X92843391Y-100961486D02*
X90103391Y-100961486D01*
X92843391Y-107501486D02*
X92843391Y-100961486D01*
X90103391Y-107501486D02*
X92843391Y-107501486D01*
G04 #@! TO.C,R5*
X96335873Y-81001486D02*
X99075873Y-81001486D01*
X99075873Y-81001486D02*
X99075873Y-74461486D01*
X99075873Y-74461486D02*
X96335873Y-74461486D01*
X96335873Y-74461486D02*
X96335873Y-81001486D01*
X97705873Y-81771486D02*
X97705873Y-81001486D01*
X97705873Y-73691486D02*
X97705873Y-74461486D01*
G04 #@! TO.C,R6*
X83575873Y-74621486D02*
X80835873Y-74621486D01*
X80835873Y-74621486D02*
X80835873Y-81161486D01*
X80835873Y-81161486D02*
X83575873Y-81161486D01*
X83575873Y-81161486D02*
X83575873Y-74621486D01*
X82205873Y-73851486D02*
X82205873Y-74621486D01*
X82205873Y-81931486D02*
X82205873Y-81161486D01*
G04 #@! TO.C,R7*
X93103391Y-107501486D02*
X95843391Y-107501486D01*
X95843391Y-107501486D02*
X95843391Y-100961486D01*
X95843391Y-100961486D02*
X93103391Y-100961486D01*
X93103391Y-100961486D02*
X93103391Y-107501486D01*
X94473391Y-108271486D02*
X94473391Y-107501486D01*
X94473391Y-100191486D02*
X94473391Y-100961486D01*
G04 #@! TO.C,R8*
X92801834Y-74416702D02*
X90061834Y-74416702D01*
X90061834Y-74416702D02*
X90061834Y-80956702D01*
X90061834Y-80956702D02*
X92801834Y-80956702D01*
X92801834Y-80956702D02*
X92801834Y-74416702D01*
X91431834Y-73646702D02*
X91431834Y-74416702D01*
X91431834Y-81726702D02*
X91431834Y-80956702D01*
G04 #@! TO.C,R9*
X78973391Y-81931486D02*
X78973391Y-81161486D01*
X78973391Y-73851486D02*
X78973391Y-74621486D01*
X80343391Y-81161486D02*
X80343391Y-74621486D01*
X77603391Y-81161486D02*
X80343391Y-81161486D01*
X77603391Y-74621486D02*
X77603391Y-81161486D01*
X80343391Y-74621486D02*
X77603391Y-74621486D01*
G04 #@! TO.C,R13*
X75500000Y-73880000D02*
X75500000Y-74650000D01*
X75500000Y-81960000D02*
X75500000Y-81190000D01*
X74130000Y-74650000D02*
X74130000Y-81190000D01*
X76870000Y-74650000D02*
X74130000Y-74650000D01*
X76870000Y-81190000D02*
X76870000Y-74650000D01*
X74130000Y-81190000D02*
X76870000Y-81190000D01*
G04 #@! TO.C,R14*
X72000000Y-81620000D02*
X72000000Y-80850000D01*
X72000000Y-73540000D02*
X72000000Y-74310000D01*
X73370000Y-80850000D02*
X73370000Y-74310000D01*
X70630000Y-80850000D02*
X73370000Y-80850000D01*
X70630000Y-74310000D02*
X70630000Y-80850000D01*
X73370000Y-74310000D02*
X70630000Y-74310000D01*
G04 #@! TO.C,R15*
X70764226Y-100828477D02*
X68024226Y-100828477D01*
X68024226Y-100828477D02*
X68024226Y-107368477D01*
X68024226Y-107368477D02*
X70764226Y-107368477D01*
X70764226Y-107368477D02*
X70764226Y-100828477D01*
X69394226Y-100058477D02*
X69394226Y-100828477D01*
X69394226Y-108138477D02*
X69394226Y-107368477D01*
G04 #@! TO.C,R16*
X72894226Y-108138477D02*
X72894226Y-107368477D01*
X72894226Y-100058477D02*
X72894226Y-100828477D01*
X74264226Y-107368477D02*
X74264226Y-100828477D01*
X71524226Y-107368477D02*
X74264226Y-107368477D01*
X71524226Y-100828477D02*
X71524226Y-107368477D01*
X74264226Y-100828477D02*
X71524226Y-100828477D01*
G04 #@! TO.C,R17*
X80575873Y-101200678D02*
X77835873Y-101200678D01*
X77835873Y-101200678D02*
X77835873Y-107740678D01*
X77835873Y-107740678D02*
X80575873Y-107740678D01*
X80575873Y-107740678D02*
X80575873Y-101200678D01*
X79205873Y-100430678D02*
X79205873Y-101200678D01*
X79205873Y-108510678D02*
X79205873Y-107740678D01*
G04 #@! TO.C,R18*
X82205873Y-108510678D02*
X82205873Y-107740678D01*
X82205873Y-100430678D02*
X82205873Y-101200678D01*
X83575873Y-107740678D02*
X83575873Y-101200678D01*
X80835873Y-107740678D02*
X83575873Y-107740678D01*
X80835873Y-101200678D02*
X80835873Y-107740678D01*
X83575873Y-101200678D02*
X80835873Y-101200678D01*
G04 #@! TO.C,R19*
X78620000Y-114500000D02*
X77850000Y-114500000D01*
X70540000Y-114500000D02*
X71310000Y-114500000D01*
X77850000Y-113130000D02*
X71310000Y-113130000D01*
X77850000Y-115870000D02*
X77850000Y-113130000D01*
X71310000Y-115870000D02*
X77850000Y-115870000D01*
X71310000Y-113130000D02*
X71310000Y-115870000D01*
G04 #@! TO.C,R20*
X62130000Y-80190000D02*
X64870000Y-80190000D01*
X64870000Y-80190000D02*
X64870000Y-73650000D01*
X64870000Y-73650000D02*
X62130000Y-73650000D01*
X62130000Y-73650000D02*
X62130000Y-80190000D01*
X63500000Y-80960000D02*
X63500000Y-80190000D01*
X63500000Y-72880000D02*
X63500000Y-73650000D01*
G04 #@! TO.C,R21*
X83835873Y-107580678D02*
X86575873Y-107580678D01*
X86575873Y-107580678D02*
X86575873Y-101040678D01*
X86575873Y-101040678D02*
X83835873Y-101040678D01*
X83835873Y-101040678D02*
X83835873Y-107580678D01*
X85205873Y-108350678D02*
X85205873Y-107580678D01*
X85205873Y-100270678D02*
X85205873Y-101040678D01*
G04 #@! TO.C,R22*
X76000000Y-98120000D02*
X76000000Y-97350000D01*
X76000000Y-90040000D02*
X76000000Y-90810000D01*
X77370000Y-97350000D02*
X77370000Y-90810000D01*
X74630000Y-97350000D02*
X77370000Y-97350000D01*
X74630000Y-90810000D02*
X74630000Y-97350000D01*
X77370000Y-90810000D02*
X74630000Y-90810000D01*
G04 #@! TO.C,U1*
X79643391Y-90001486D02*
G75*
G02X79643391Y-92001486I0J-1000000D01*
G01*
X79643391Y-92001486D02*
X79643391Y-93251486D01*
X79643391Y-93251486D02*
X97543391Y-93251486D01*
X97543391Y-93251486D02*
X97543391Y-88751486D01*
X97543391Y-88751486D02*
X79643391Y-88751486D01*
X79643391Y-88751486D02*
X79643391Y-90001486D01*
G04 #@! TO.C,C3*
D12*
X88857142Y-104166666D02*
X88904761Y-104214285D01*
X88952380Y-104357142D01*
X88952380Y-104452380D01*
X88904761Y-104595238D01*
X88809523Y-104690476D01*
X88714285Y-104738095D01*
X88523809Y-104785714D01*
X88380952Y-104785714D01*
X88190476Y-104738095D01*
X88095238Y-104690476D01*
X88000000Y-104595238D01*
X87952380Y-104452380D01*
X87952380Y-104357142D01*
X88000000Y-104214285D01*
X88047619Y-104166666D01*
X87952380Y-103833333D02*
X87952380Y-103214285D01*
X88333333Y-103547619D01*
X88333333Y-103404761D01*
X88380952Y-103309523D01*
X88428571Y-103261904D01*
X88523809Y-103214285D01*
X88761904Y-103214285D01*
X88857142Y-103261904D01*
X88904761Y-103309523D01*
X88952380Y-103404761D01*
X88952380Y-103690476D01*
X88904761Y-103785714D01*
X88857142Y-103833333D01*
G04 #@! TO.C,C4*
X88857142Y-77666666D02*
X88904761Y-77714285D01*
X88952380Y-77857142D01*
X88952380Y-77952380D01*
X88904761Y-78095238D01*
X88809523Y-78190476D01*
X88714285Y-78238095D01*
X88523809Y-78285714D01*
X88380952Y-78285714D01*
X88190476Y-78238095D01*
X88095238Y-78190476D01*
X88000000Y-78095238D01*
X87952380Y-77952380D01*
X87952380Y-77857142D01*
X88000000Y-77714285D01*
X88047619Y-77666666D01*
X88285714Y-76809523D02*
X88952380Y-76809523D01*
X87904761Y-77047619D02*
X88619047Y-77285714D01*
X88619047Y-76666666D01*
G04 #@! TO.C,C1*
X64333333Y-44107142D02*
X64285714Y-44154761D01*
X64142857Y-44202380D01*
X64047619Y-44202380D01*
X63904761Y-44154761D01*
X63809523Y-44059523D01*
X63761904Y-43964285D01*
X63714285Y-43773809D01*
X63714285Y-43630952D01*
X63761904Y-43440476D01*
X63809523Y-43345238D01*
X63904761Y-43250000D01*
X64047619Y-43202380D01*
X64142857Y-43202380D01*
X64285714Y-43250000D01*
X64333333Y-43297619D01*
X65285714Y-44202380D02*
X64714285Y-44202380D01*
X65000000Y-44202380D02*
X65000000Y-43202380D01*
X64904761Y-43345238D01*
X64809523Y-43440476D01*
X64714285Y-43488095D01*
G04 #@! TO.C,C2*
X64333333Y-42607142D02*
X64285714Y-42654761D01*
X64142857Y-42702380D01*
X64047619Y-42702380D01*
X63904761Y-42654761D01*
X63809523Y-42559523D01*
X63761904Y-42464285D01*
X63714285Y-42273809D01*
X63714285Y-42130952D01*
X63761904Y-41940476D01*
X63809523Y-41845238D01*
X63904761Y-41750000D01*
X64047619Y-41702380D01*
X64142857Y-41702380D01*
X64285714Y-41750000D01*
X64333333Y-41797619D01*
X64714285Y-41797619D02*
X64761904Y-41750000D01*
X64857142Y-41702380D01*
X65095238Y-41702380D01*
X65190476Y-41750000D01*
X65238095Y-41797619D01*
X65285714Y-41892857D01*
X65285714Y-41988095D01*
X65238095Y-42130952D01*
X64666666Y-42702380D01*
X65285714Y-42702380D01*
G04 #@! TO.C,D1*
X70952380Y-23238095D02*
X69952380Y-23238095D01*
X69952380Y-23000000D01*
X70000000Y-22857142D01*
X70095238Y-22761904D01*
X70190476Y-22714285D01*
X70380952Y-22666666D01*
X70523809Y-22666666D01*
X70714285Y-22714285D01*
X70809523Y-22761904D01*
X70904761Y-22857142D01*
X70952380Y-23000000D01*
X70952380Y-23238095D01*
X70952380Y-21714285D02*
X70952380Y-22285714D01*
X70952380Y-22000000D02*
X69952380Y-22000000D01*
X70095238Y-22095238D01*
X70190476Y-22190476D01*
X70238095Y-22285714D01*
X72352380Y-27761904D02*
X71352380Y-27761904D01*
X72352380Y-27190476D02*
X71780952Y-27619047D01*
X71352380Y-27190476D02*
X71923809Y-27761904D01*
G04 #@! TO.C,D2*
X74452380Y-22738095D02*
X73452380Y-22738095D01*
X73452380Y-22500000D01*
X73500000Y-22357142D01*
X73595238Y-22261904D01*
X73690476Y-22214285D01*
X73880952Y-22166666D01*
X74023809Y-22166666D01*
X74214285Y-22214285D01*
X74309523Y-22261904D01*
X74404761Y-22357142D01*
X74452380Y-22500000D01*
X74452380Y-22738095D01*
X73547619Y-21785714D02*
X73500000Y-21738095D01*
X73452380Y-21642857D01*
X73452380Y-21404761D01*
X73500000Y-21309523D01*
X73547619Y-21261904D01*
X73642857Y-21214285D01*
X73738095Y-21214285D01*
X73880952Y-21261904D01*
X74452380Y-21833333D01*
X74452380Y-21214285D01*
X73052380Y-17761904D02*
X72052380Y-17761904D01*
X73052380Y-17190476D02*
X72480952Y-17619047D01*
X72052380Y-17190476D02*
X72623809Y-17761904D01*
G04 #@! TO.C,D6*
X86681904Y-114952380D02*
X86681904Y-113952380D01*
X86920000Y-113952380D01*
X87062857Y-114000000D01*
X87158095Y-114095238D01*
X87205714Y-114190476D01*
X87253333Y-114380952D01*
X87253333Y-114523809D01*
X87205714Y-114714285D01*
X87158095Y-114809523D01*
X87062857Y-114904761D01*
X86920000Y-114952380D01*
X86681904Y-114952380D01*
X88110476Y-113952380D02*
X87920000Y-113952380D01*
X87824761Y-114000000D01*
X87777142Y-114047619D01*
X87681904Y-114190476D01*
X87634285Y-114380952D01*
X87634285Y-114761904D01*
X87681904Y-114857142D01*
X87729523Y-114904761D01*
X87824761Y-114952380D01*
X88015238Y-114952380D01*
X88110476Y-114904761D01*
X88158095Y-114857142D01*
X88205714Y-114761904D01*
X88205714Y-114523809D01*
X88158095Y-114428571D01*
X88110476Y-114380952D01*
X88015238Y-114333333D01*
X87824761Y-114333333D01*
X87729523Y-114380952D01*
X87681904Y-114428571D01*
X87634285Y-114523809D01*
X92238095Y-117052380D02*
X92238095Y-116052380D01*
X92809523Y-117052380D02*
X92380952Y-116480952D01*
X92809523Y-116052380D02*
X92238095Y-116623809D01*
G04 #@! TO.C,D7*
X63952380Y-64238095D02*
X62952380Y-64238095D01*
X62952380Y-64000000D01*
X63000000Y-63857142D01*
X63095238Y-63761904D01*
X63190476Y-63714285D01*
X63380952Y-63666666D01*
X63523809Y-63666666D01*
X63714285Y-63714285D01*
X63809523Y-63761904D01*
X63904761Y-63857142D01*
X63952380Y-64000000D01*
X63952380Y-64238095D01*
X62952380Y-63333333D02*
X62952380Y-62666666D01*
X63952380Y-63095238D01*
X66052380Y-58601904D02*
X65052380Y-58601904D01*
X66052380Y-58030476D02*
X65480952Y-58459047D01*
X65052380Y-58030476D02*
X65623809Y-58601904D01*
G04 #@! TO.C,D8*
X88952380Y-61238095D02*
X87952380Y-61238095D01*
X87952380Y-61000000D01*
X88000000Y-60857142D01*
X88095238Y-60761904D01*
X88190476Y-60714285D01*
X88380952Y-60666666D01*
X88523809Y-60666666D01*
X88714285Y-60714285D01*
X88809523Y-60761904D01*
X88904761Y-60857142D01*
X88952380Y-61000000D01*
X88952380Y-61238095D01*
X88380952Y-60095238D02*
X88333333Y-60190476D01*
X88285714Y-60238095D01*
X88190476Y-60285714D01*
X88142857Y-60285714D01*
X88047619Y-60238095D01*
X88000000Y-60190476D01*
X87952380Y-60095238D01*
X87952380Y-59904761D01*
X88000000Y-59809523D01*
X88047619Y-59761904D01*
X88142857Y-59714285D01*
X88190476Y-59714285D01*
X88285714Y-59761904D01*
X88333333Y-59809523D01*
X88380952Y-59904761D01*
X88380952Y-60095238D01*
X88428571Y-60190476D01*
X88476190Y-60238095D01*
X88571428Y-60285714D01*
X88761904Y-60285714D01*
X88857142Y-60238095D01*
X88904761Y-60190476D01*
X88952380Y-60095238D01*
X88952380Y-59904761D01*
X88904761Y-59809523D01*
X88857142Y-59761904D01*
X88761904Y-59714285D01*
X88571428Y-59714285D01*
X88476190Y-59761904D01*
X88428571Y-59809523D01*
X88380952Y-59904761D01*
X91052380Y-55261904D02*
X90052380Y-55261904D01*
X91052380Y-54690476D02*
X90480952Y-55119047D01*
X90052380Y-54690476D02*
X90623809Y-55261904D01*
G04 #@! TO.C,D9*
X85952380Y-60658095D02*
X84952380Y-60658095D01*
X84952380Y-60420000D01*
X85000000Y-60277142D01*
X85095238Y-60181904D01*
X85190476Y-60134285D01*
X85380952Y-60086666D01*
X85523809Y-60086666D01*
X85714285Y-60134285D01*
X85809523Y-60181904D01*
X85904761Y-60277142D01*
X85952380Y-60420000D01*
X85952380Y-60658095D01*
X85952380Y-59610476D02*
X85952380Y-59420000D01*
X85904761Y-59324761D01*
X85857142Y-59277142D01*
X85714285Y-59181904D01*
X85523809Y-59134285D01*
X85142857Y-59134285D01*
X85047619Y-59181904D01*
X85000000Y-59229523D01*
X84952380Y-59324761D01*
X84952380Y-59515238D01*
X85000000Y-59610476D01*
X85047619Y-59658095D01*
X85142857Y-59705714D01*
X85380952Y-59705714D01*
X85476190Y-59658095D01*
X85523809Y-59610476D01*
X85571428Y-59515238D01*
X85571428Y-59324761D01*
X85523809Y-59229523D01*
X85476190Y-59181904D01*
X85380952Y-59134285D01*
X83452380Y-64261904D02*
X82452380Y-64261904D01*
X83452380Y-63690476D02*
X82880952Y-64119047D01*
X82452380Y-63690476D02*
X83023809Y-64261904D01*
G04 #@! TO.C,J2*
X80122380Y-17333333D02*
X80836666Y-17333333D01*
X80979523Y-17380952D01*
X81074761Y-17476190D01*
X81122380Y-17619047D01*
X81122380Y-17714285D01*
X80217619Y-16904761D02*
X80170000Y-16857142D01*
X80122380Y-16761904D01*
X80122380Y-16523809D01*
X80170000Y-16428571D01*
X80217619Y-16380952D01*
X80312857Y-16333333D01*
X80408095Y-16333333D01*
X80550952Y-16380952D01*
X81122380Y-16952380D01*
X81122380Y-16333333D01*
G04 #@! TO.C,J3*
X98666666Y-21122380D02*
X98666666Y-21836666D01*
X98619047Y-21979523D01*
X98523809Y-22074761D01*
X98380952Y-22122380D01*
X98285714Y-22122380D01*
X99047619Y-21122380D02*
X99666666Y-21122380D01*
X99333333Y-21503333D01*
X99476190Y-21503333D01*
X99571428Y-21550952D01*
X99619047Y-21598571D01*
X99666666Y-21693809D01*
X99666666Y-21931904D01*
X99619047Y-22027142D01*
X99571428Y-22074761D01*
X99476190Y-22122380D01*
X99190476Y-22122380D01*
X99095238Y-22074761D01*
X99047619Y-22027142D01*
G04 #@! TO.C,J6*
X63166666Y-85622380D02*
X63166666Y-86336666D01*
X63119047Y-86479523D01*
X63023809Y-86574761D01*
X62880952Y-86622380D01*
X62785714Y-86622380D01*
X64071428Y-85622380D02*
X63880952Y-85622380D01*
X63785714Y-85670000D01*
X63738095Y-85717619D01*
X63642857Y-85860476D01*
X63595238Y-86050952D01*
X63595238Y-86431904D01*
X63642857Y-86527142D01*
X63690476Y-86574761D01*
X63785714Y-86622380D01*
X63976190Y-86622380D01*
X64071428Y-86574761D01*
X64119047Y-86527142D01*
X64166666Y-86431904D01*
X64166666Y-86193809D01*
X64119047Y-86098571D01*
X64071428Y-86050952D01*
X63976190Y-86003333D01*
X63785714Y-86003333D01*
X63690476Y-86050952D01*
X63642857Y-86098571D01*
X63595238Y-86193809D01*
G04 #@! TO.C,Q4*
X100547619Y-117595238D02*
X100500000Y-117690476D01*
X100404761Y-117785714D01*
X100261904Y-117928571D01*
X100214285Y-118023809D01*
X100214285Y-118119047D01*
X100452380Y-118071428D02*
X100404761Y-118166666D01*
X100309523Y-118261904D01*
X100119047Y-118309523D01*
X99785714Y-118309523D01*
X99595238Y-118261904D01*
X99500000Y-118166666D01*
X99452380Y-118071428D01*
X99452380Y-117880952D01*
X99500000Y-117785714D01*
X99595238Y-117690476D01*
X99785714Y-117642857D01*
X100119047Y-117642857D01*
X100309523Y-117690476D01*
X100404761Y-117785714D01*
X100452380Y-117880952D01*
X100452380Y-118071428D01*
X99785714Y-116785714D02*
X100452380Y-116785714D01*
X99404761Y-117023809D02*
X100119047Y-117261904D01*
X100119047Y-116642857D01*
G04 #@! TO.C,Q5*
X64174761Y-49987619D02*
X64079523Y-49940000D01*
X63984285Y-49844761D01*
X63841428Y-49701904D01*
X63746190Y-49654285D01*
X63650952Y-49654285D01*
X63698571Y-49892380D02*
X63603333Y-49844761D01*
X63508095Y-49749523D01*
X63460476Y-49559047D01*
X63460476Y-49225714D01*
X63508095Y-49035238D01*
X63603333Y-48940000D01*
X63698571Y-48892380D01*
X63889047Y-48892380D01*
X63984285Y-48940000D01*
X64079523Y-49035238D01*
X64127142Y-49225714D01*
X64127142Y-49559047D01*
X64079523Y-49749523D01*
X63984285Y-49844761D01*
X63889047Y-49892380D01*
X63698571Y-49892380D01*
X65031904Y-48892380D02*
X64555714Y-48892380D01*
X64508095Y-49368571D01*
X64555714Y-49320952D01*
X64650952Y-49273333D01*
X64889047Y-49273333D01*
X64984285Y-49320952D01*
X65031904Y-49368571D01*
X65079523Y-49463809D01*
X65079523Y-49701904D01*
X65031904Y-49797142D01*
X64984285Y-49844761D01*
X64889047Y-49892380D01*
X64650952Y-49892380D01*
X64555714Y-49844761D01*
X64508095Y-49797142D01*
G04 #@! TO.C,R1*
X98452380Y-104483208D02*
X97976190Y-104816542D01*
X98452380Y-105054637D02*
X97452380Y-105054637D01*
X97452380Y-104673684D01*
X97500000Y-104578446D01*
X97547619Y-104530827D01*
X97642857Y-104483208D01*
X97785714Y-104483208D01*
X97880952Y-104530827D01*
X97928571Y-104578446D01*
X97976190Y-104673684D01*
X97976190Y-105054637D01*
X98452380Y-103530827D02*
X98452380Y-104102256D01*
X98452380Y-103816542D02*
X97452380Y-103816542D01*
X97595238Y-103911780D01*
X97690476Y-104007018D01*
X97738095Y-104102256D01*
G04 #@! TO.C,R2*
X91952380Y-77898152D02*
X91476190Y-78231486D01*
X91952380Y-78469581D02*
X90952380Y-78469581D01*
X90952380Y-78088628D01*
X91000000Y-77993390D01*
X91047619Y-77945771D01*
X91142857Y-77898152D01*
X91285714Y-77898152D01*
X91380952Y-77945771D01*
X91428571Y-77993390D01*
X91476190Y-78088628D01*
X91476190Y-78469581D01*
X91047619Y-77517200D02*
X91000000Y-77469581D01*
X90952380Y-77374343D01*
X90952380Y-77136247D01*
X91000000Y-77041009D01*
X91047619Y-76993390D01*
X91142857Y-76945771D01*
X91238095Y-76945771D01*
X91380952Y-76993390D01*
X91952380Y-77564819D01*
X91952380Y-76945771D01*
G04 #@! TO.C,R3*
X82952380Y-77977344D02*
X82476190Y-78310678D01*
X82952380Y-78548773D02*
X81952380Y-78548773D01*
X81952380Y-78167820D01*
X82000000Y-78072582D01*
X82047619Y-78024963D01*
X82142857Y-77977344D01*
X82285714Y-77977344D01*
X82380952Y-78024963D01*
X82428571Y-78072582D01*
X82476190Y-78167820D01*
X82476190Y-78548773D01*
X81952380Y-77644011D02*
X81952380Y-77024963D01*
X82333333Y-77358297D01*
X82333333Y-77215439D01*
X82380952Y-77120201D01*
X82428571Y-77072582D01*
X82523809Y-77024963D01*
X82761904Y-77024963D01*
X82857142Y-77072582D01*
X82904761Y-77120201D01*
X82952380Y-77215439D01*
X82952380Y-77501154D01*
X82904761Y-77596392D01*
X82857142Y-77644011D01*
G04 #@! TO.C,R4*
X91952380Y-104398152D02*
X91476190Y-104731486D01*
X91952380Y-104969581D02*
X90952380Y-104969581D01*
X90952380Y-104588628D01*
X91000000Y-104493390D01*
X91047619Y-104445771D01*
X91142857Y-104398152D01*
X91285714Y-104398152D01*
X91380952Y-104445771D01*
X91428571Y-104493390D01*
X91476190Y-104588628D01*
X91476190Y-104969581D01*
X91285714Y-103541009D02*
X91952380Y-103541009D01*
X90904761Y-103779105D02*
X91619047Y-104017200D01*
X91619047Y-103398152D01*
G04 #@! TO.C,R5*
X97952380Y-77898152D02*
X97476190Y-78231486D01*
X97952380Y-78469581D02*
X96952380Y-78469581D01*
X96952380Y-78088628D01*
X97000000Y-77993390D01*
X97047619Y-77945771D01*
X97142857Y-77898152D01*
X97285714Y-77898152D01*
X97380952Y-77945771D01*
X97428571Y-77993390D01*
X97476190Y-78088628D01*
X97476190Y-78469581D01*
X96952380Y-76993390D02*
X96952380Y-77469581D01*
X97428571Y-77517200D01*
X97380952Y-77469581D01*
X97333333Y-77374343D01*
X97333333Y-77136247D01*
X97380952Y-77041009D01*
X97428571Y-76993390D01*
X97523809Y-76945771D01*
X97761904Y-76945771D01*
X97857142Y-76993390D01*
X97904761Y-77041009D01*
X97952380Y-77136247D01*
X97952380Y-77374343D01*
X97904761Y-77469581D01*
X97857142Y-77517200D01*
G04 #@! TO.C,R6*
X85952380Y-78058152D02*
X85476190Y-78391486D01*
X85952380Y-78629581D02*
X84952380Y-78629581D01*
X84952380Y-78248628D01*
X85000000Y-78153390D01*
X85047619Y-78105771D01*
X85142857Y-78058152D01*
X85285714Y-78058152D01*
X85380952Y-78105771D01*
X85428571Y-78153390D01*
X85476190Y-78248628D01*
X85476190Y-78629581D01*
X84952380Y-77201009D02*
X84952380Y-77391486D01*
X85000000Y-77486724D01*
X85047619Y-77534343D01*
X85190476Y-77629581D01*
X85380952Y-77677200D01*
X85761904Y-77677200D01*
X85857142Y-77629581D01*
X85904761Y-77581962D01*
X85952380Y-77486724D01*
X85952380Y-77296247D01*
X85904761Y-77201009D01*
X85857142Y-77153390D01*
X85761904Y-77105771D01*
X85523809Y-77105771D01*
X85428571Y-77153390D01*
X85380952Y-77201009D01*
X85333333Y-77296247D01*
X85333333Y-77486724D01*
X85380952Y-77581962D01*
X85428571Y-77629581D01*
X85523809Y-77677200D01*
G04 #@! TO.C,R7*
X94952380Y-104398152D02*
X94476190Y-104731486D01*
X94952380Y-104969581D02*
X93952380Y-104969581D01*
X93952380Y-104588628D01*
X94000000Y-104493390D01*
X94047619Y-104445771D01*
X94142857Y-104398152D01*
X94285714Y-104398152D01*
X94380952Y-104445771D01*
X94428571Y-104493390D01*
X94476190Y-104588628D01*
X94476190Y-104969581D01*
X93952380Y-104064819D02*
X93952380Y-103398152D01*
X94952380Y-103826724D01*
G04 #@! TO.C,R8*
X95452380Y-77666666D02*
X94976190Y-78000000D01*
X95452380Y-78238095D02*
X94452380Y-78238095D01*
X94452380Y-77857142D01*
X94500000Y-77761904D01*
X94547619Y-77714285D01*
X94642857Y-77666666D01*
X94785714Y-77666666D01*
X94880952Y-77714285D01*
X94928571Y-77761904D01*
X94976190Y-77857142D01*
X94976190Y-78238095D01*
X94880952Y-77095238D02*
X94833333Y-77190476D01*
X94785714Y-77238095D01*
X94690476Y-77285714D01*
X94642857Y-77285714D01*
X94547619Y-77238095D01*
X94500000Y-77190476D01*
X94452380Y-77095238D01*
X94452380Y-76904761D01*
X94500000Y-76809523D01*
X94547619Y-76761904D01*
X94642857Y-76714285D01*
X94690476Y-76714285D01*
X94785714Y-76761904D01*
X94833333Y-76809523D01*
X94880952Y-76904761D01*
X94880952Y-77095238D01*
X94928571Y-77190476D01*
X94976190Y-77238095D01*
X95071428Y-77285714D01*
X95261904Y-77285714D01*
X95357142Y-77238095D01*
X95404761Y-77190476D01*
X95452380Y-77095238D01*
X95452380Y-76904761D01*
X95404761Y-76809523D01*
X95357142Y-76761904D01*
X95261904Y-76714285D01*
X95071428Y-76714285D01*
X94976190Y-76761904D01*
X94928571Y-76809523D01*
X94880952Y-76904761D01*
G04 #@! TO.C,R9*
X79425771Y-77978152D02*
X78949581Y-78311486D01*
X79425771Y-78549581D02*
X78425771Y-78549581D01*
X78425771Y-78168628D01*
X78473391Y-78073390D01*
X78521010Y-78025771D01*
X78616248Y-77978152D01*
X78759105Y-77978152D01*
X78854343Y-78025771D01*
X78901962Y-78073390D01*
X78949581Y-78168628D01*
X78949581Y-78549581D01*
X79425771Y-77501962D02*
X79425771Y-77311486D01*
X79378152Y-77216247D01*
X79330533Y-77168628D01*
X79187676Y-77073390D01*
X78997200Y-77025771D01*
X78616248Y-77025771D01*
X78521010Y-77073390D01*
X78473391Y-77121009D01*
X78425771Y-77216247D01*
X78425771Y-77406724D01*
X78473391Y-77501962D01*
X78521010Y-77549581D01*
X78616248Y-77597200D01*
X78854343Y-77597200D01*
X78949581Y-77549581D01*
X78997200Y-77501962D01*
X79044819Y-77406724D01*
X79044819Y-77216247D01*
X78997200Y-77121009D01*
X78949581Y-77073390D01*
X78854343Y-77025771D01*
G04 #@! TO.C,R13*
X75952380Y-78642857D02*
X75476190Y-78976190D01*
X75952380Y-79214285D02*
X74952380Y-79214285D01*
X74952380Y-78833333D01*
X75000000Y-78738095D01*
X75047619Y-78690476D01*
X75142857Y-78642857D01*
X75285714Y-78642857D01*
X75380952Y-78690476D01*
X75428571Y-78738095D01*
X75476190Y-78833333D01*
X75476190Y-79214285D01*
X75952380Y-77690476D02*
X75952380Y-78261904D01*
X75952380Y-77976190D02*
X74952380Y-77976190D01*
X75095238Y-78071428D01*
X75190476Y-78166666D01*
X75238095Y-78261904D01*
X74952380Y-77357142D02*
X74952380Y-76738095D01*
X75333333Y-77071428D01*
X75333333Y-76928571D01*
X75380952Y-76833333D01*
X75428571Y-76785714D01*
X75523809Y-76738095D01*
X75761904Y-76738095D01*
X75857142Y-76785714D01*
X75904761Y-76833333D01*
X75952380Y-76928571D01*
X75952380Y-77214285D01*
X75904761Y-77309523D01*
X75857142Y-77357142D01*
G04 #@! TO.C,R14*
X72452380Y-78222857D02*
X71976190Y-78556190D01*
X72452380Y-78794285D02*
X71452380Y-78794285D01*
X71452380Y-78413333D01*
X71500000Y-78318095D01*
X71547619Y-78270476D01*
X71642857Y-78222857D01*
X71785714Y-78222857D01*
X71880952Y-78270476D01*
X71928571Y-78318095D01*
X71976190Y-78413333D01*
X71976190Y-78794285D01*
X72452380Y-77270476D02*
X72452380Y-77841904D01*
X72452380Y-77556190D02*
X71452380Y-77556190D01*
X71595238Y-77651428D01*
X71690476Y-77746666D01*
X71738095Y-77841904D01*
X71785714Y-76413333D02*
X72452380Y-76413333D01*
X71404761Y-76651428D02*
X72119047Y-76889523D01*
X72119047Y-76270476D01*
G04 #@! TO.C,R15*
X69846606Y-104661334D02*
X69370416Y-104994667D01*
X69846606Y-105232762D02*
X68846606Y-105232762D01*
X68846606Y-104851810D01*
X68894226Y-104756572D01*
X68941845Y-104708953D01*
X69037083Y-104661334D01*
X69179940Y-104661334D01*
X69275178Y-104708953D01*
X69322797Y-104756572D01*
X69370416Y-104851810D01*
X69370416Y-105232762D01*
X69846606Y-103708953D02*
X69846606Y-104280381D01*
X69846606Y-103994667D02*
X68846606Y-103994667D01*
X68989464Y-104089905D01*
X69084702Y-104185143D01*
X69132321Y-104280381D01*
X68846606Y-102804191D02*
X68846606Y-103280381D01*
X69322797Y-103328000D01*
X69275178Y-103280381D01*
X69227559Y-103185143D01*
X69227559Y-102947048D01*
X69275178Y-102851810D01*
X69322797Y-102804191D01*
X69418035Y-102756572D01*
X69656130Y-102756572D01*
X69751368Y-102804191D01*
X69798987Y-102851810D01*
X69846606Y-102947048D01*
X69846606Y-103185143D01*
X69798987Y-103280381D01*
X69751368Y-103328000D01*
G04 #@! TO.C,R16*
X73346606Y-104741334D02*
X72870416Y-105074667D01*
X73346606Y-105312762D02*
X72346606Y-105312762D01*
X72346606Y-104931810D01*
X72394226Y-104836572D01*
X72441845Y-104788953D01*
X72537083Y-104741334D01*
X72679940Y-104741334D01*
X72775178Y-104788953D01*
X72822797Y-104836572D01*
X72870416Y-104931810D01*
X72870416Y-105312762D01*
X73346606Y-103788953D02*
X73346606Y-104360381D01*
X73346606Y-104074667D02*
X72346606Y-104074667D01*
X72489464Y-104169905D01*
X72584702Y-104265143D01*
X72632321Y-104360381D01*
X72346606Y-102931810D02*
X72346606Y-103122286D01*
X72394226Y-103217524D01*
X72441845Y-103265143D01*
X72584702Y-103360381D01*
X72775178Y-103408000D01*
X73156130Y-103408000D01*
X73251368Y-103360381D01*
X73298987Y-103312762D01*
X73346606Y-103217524D01*
X73346606Y-103027048D01*
X73298987Y-102931810D01*
X73251368Y-102884191D01*
X73156130Y-102836572D01*
X72918035Y-102836572D01*
X72822797Y-102884191D01*
X72775178Y-102931810D01*
X72727559Y-103027048D01*
X72727559Y-103217524D01*
X72775178Y-103312762D01*
X72822797Y-103360381D01*
X72918035Y-103408000D01*
G04 #@! TO.C,R17*
X79452380Y-105142857D02*
X78976190Y-105476190D01*
X79452380Y-105714285D02*
X78452380Y-105714285D01*
X78452380Y-105333333D01*
X78500000Y-105238095D01*
X78547619Y-105190476D01*
X78642857Y-105142857D01*
X78785714Y-105142857D01*
X78880952Y-105190476D01*
X78928571Y-105238095D01*
X78976190Y-105333333D01*
X78976190Y-105714285D01*
X79452380Y-104190476D02*
X79452380Y-104761904D01*
X79452380Y-104476190D02*
X78452380Y-104476190D01*
X78595238Y-104571428D01*
X78690476Y-104666666D01*
X78738095Y-104761904D01*
X78452380Y-103857142D02*
X78452380Y-103190476D01*
X79452380Y-103619047D01*
G04 #@! TO.C,R18*
X85452380Y-105113535D02*
X84976190Y-105446868D01*
X85452380Y-105684963D02*
X84452380Y-105684963D01*
X84452380Y-105304011D01*
X84500000Y-105208773D01*
X84547619Y-105161154D01*
X84642857Y-105113535D01*
X84785714Y-105113535D01*
X84880952Y-105161154D01*
X84928571Y-105208773D01*
X84976190Y-105304011D01*
X84976190Y-105684963D01*
X85452380Y-104161154D02*
X85452380Y-104732582D01*
X85452380Y-104446868D02*
X84452380Y-104446868D01*
X84595238Y-104542106D01*
X84690476Y-104637344D01*
X84738095Y-104732582D01*
X84880952Y-103589725D02*
X84833333Y-103684963D01*
X84785714Y-103732582D01*
X84690476Y-103780201D01*
X84642857Y-103780201D01*
X84547619Y-103732582D01*
X84500000Y-103684963D01*
X84452380Y-103589725D01*
X84452380Y-103399249D01*
X84500000Y-103304011D01*
X84547619Y-103256392D01*
X84642857Y-103208773D01*
X84690476Y-103208773D01*
X84785714Y-103256392D01*
X84833333Y-103304011D01*
X84880952Y-103399249D01*
X84880952Y-103589725D01*
X84928571Y-103684963D01*
X84976190Y-103732582D01*
X85071428Y-103780201D01*
X85261904Y-103780201D01*
X85357142Y-103732582D01*
X85404761Y-103684963D01*
X85452380Y-103589725D01*
X85452380Y-103399249D01*
X85404761Y-103304011D01*
X85357142Y-103256392D01*
X85261904Y-103208773D01*
X85071428Y-103208773D01*
X84976190Y-103256392D01*
X84928571Y-103304011D01*
X84880952Y-103399249D01*
G04 #@! TO.C,R19*
X73857142Y-114952380D02*
X73523809Y-114476190D01*
X73285714Y-114952380D02*
X73285714Y-113952380D01*
X73666666Y-113952380D01*
X73761904Y-114000000D01*
X73809523Y-114047619D01*
X73857142Y-114142857D01*
X73857142Y-114285714D01*
X73809523Y-114380952D01*
X73761904Y-114428571D01*
X73666666Y-114476190D01*
X73285714Y-114476190D01*
X74809523Y-114952380D02*
X74238095Y-114952380D01*
X74523809Y-114952380D02*
X74523809Y-113952380D01*
X74428571Y-114095238D01*
X74333333Y-114190476D01*
X74238095Y-114238095D01*
X75285714Y-114952380D02*
X75476190Y-114952380D01*
X75571428Y-114904761D01*
X75619047Y-114857142D01*
X75714285Y-114714285D01*
X75761904Y-114523809D01*
X75761904Y-114142857D01*
X75714285Y-114047619D01*
X75666666Y-114000000D01*
X75571428Y-113952380D01*
X75380952Y-113952380D01*
X75285714Y-114000000D01*
X75238095Y-114047619D01*
X75190476Y-114142857D01*
X75190476Y-114380952D01*
X75238095Y-114476190D01*
X75285714Y-114523809D01*
X75380952Y-114571428D01*
X75571428Y-114571428D01*
X75666666Y-114523809D01*
X75714285Y-114476190D01*
X75761904Y-114380952D01*
G04 #@! TO.C,R20*
X63952380Y-77562857D02*
X63476190Y-77896190D01*
X63952380Y-78134285D02*
X62952380Y-78134285D01*
X62952380Y-77753333D01*
X63000000Y-77658095D01*
X63047619Y-77610476D01*
X63142857Y-77562857D01*
X63285714Y-77562857D01*
X63380952Y-77610476D01*
X63428571Y-77658095D01*
X63476190Y-77753333D01*
X63476190Y-78134285D01*
X63047619Y-77181904D02*
X63000000Y-77134285D01*
X62952380Y-77039047D01*
X62952380Y-76800952D01*
X63000000Y-76705714D01*
X63047619Y-76658095D01*
X63142857Y-76610476D01*
X63238095Y-76610476D01*
X63380952Y-76658095D01*
X63952380Y-77229523D01*
X63952380Y-76610476D01*
X62952380Y-75991428D02*
X62952380Y-75896190D01*
X63000000Y-75800952D01*
X63047619Y-75753333D01*
X63142857Y-75705714D01*
X63333333Y-75658095D01*
X63571428Y-75658095D01*
X63761904Y-75705714D01*
X63857142Y-75753333D01*
X63904761Y-75800952D01*
X63952380Y-75896190D01*
X63952380Y-75991428D01*
X63904761Y-76086666D01*
X63857142Y-76134285D01*
X63761904Y-76181904D01*
X63571428Y-76229523D01*
X63333333Y-76229523D01*
X63142857Y-76181904D01*
X63047619Y-76134285D01*
X63000000Y-76086666D01*
X62952380Y-75991428D01*
G04 #@! TO.C,R21*
X82452380Y-105142857D02*
X81976190Y-105476190D01*
X82452380Y-105714285D02*
X81452380Y-105714285D01*
X81452380Y-105333333D01*
X81500000Y-105238095D01*
X81547619Y-105190476D01*
X81642857Y-105142857D01*
X81785714Y-105142857D01*
X81880952Y-105190476D01*
X81928571Y-105238095D01*
X81976190Y-105333333D01*
X81976190Y-105714285D01*
X81547619Y-104761904D02*
X81500000Y-104714285D01*
X81452380Y-104619047D01*
X81452380Y-104380952D01*
X81500000Y-104285714D01*
X81547619Y-104238095D01*
X81642857Y-104190476D01*
X81738095Y-104190476D01*
X81880952Y-104238095D01*
X82452380Y-104809523D01*
X82452380Y-104190476D01*
X82452380Y-103238095D02*
X82452380Y-103809523D01*
X82452380Y-103523809D02*
X81452380Y-103523809D01*
X81595238Y-103619047D01*
X81690476Y-103714285D01*
X81738095Y-103809523D01*
G04 #@! TO.C,R22*
X76425771Y-94722857D02*
X75949581Y-95056190D01*
X76425771Y-95294285D02*
X75425771Y-95294285D01*
X75425771Y-94913333D01*
X75473391Y-94818095D01*
X75521010Y-94770476D01*
X75616248Y-94722857D01*
X75759105Y-94722857D01*
X75854343Y-94770476D01*
X75901962Y-94818095D01*
X75949581Y-94913333D01*
X75949581Y-95294285D01*
X75521010Y-94341904D02*
X75473391Y-94294285D01*
X75425771Y-94199047D01*
X75425771Y-93960952D01*
X75473391Y-93865714D01*
X75521010Y-93818095D01*
X75616248Y-93770476D01*
X75711486Y-93770476D01*
X75854343Y-93818095D01*
X76425771Y-94389523D01*
X76425771Y-93770476D01*
X75521010Y-93389523D02*
X75473391Y-93341904D01*
X75425771Y-93246666D01*
X75425771Y-93008571D01*
X75473391Y-92913333D01*
X75521010Y-92865714D01*
X75616248Y-92818095D01*
X75711486Y-92818095D01*
X75854343Y-92865714D01*
X76425771Y-93437142D01*
X76425771Y-92818095D01*
G04 #@! TO.C,U1*
X78095771Y-91763390D02*
X78905295Y-91763390D01*
X79000533Y-91715771D01*
X79048152Y-91668152D01*
X79095771Y-91572914D01*
X79095771Y-91382438D01*
X79048152Y-91287200D01*
X79000533Y-91239581D01*
X78905295Y-91191962D01*
X78095771Y-91191962D01*
X79095771Y-90191962D02*
X79095771Y-90763390D01*
X79095771Y-90477676D02*
X78095771Y-90477676D01*
X78238629Y-90572914D01*
X78333867Y-90668152D01*
X78381486Y-90763390D01*
G04 #@! TD*
M02*
