G04 #@! TF.GenerationSoftware,KiCad,Pcbnew,(5.0.1)-3*
G04 #@! TF.CreationDate,2019-04-01T17:24:46+01:00*
G04 #@! TF.ProjectId,Fractional Clock divider PCB1 top board,4672616374696F6E616C20436C6F636B,rev?*
G04 #@! TF.SameCoordinates,Original*
G04 #@! TF.FileFunction,Soldermask,Bot*
G04 #@! TF.FilePolarity,Negative*
%FSLAX46Y46*%
G04 Gerber Fmt 4.6, Leading zero omitted, Abs format (unit mm)*
G04 Created by KiCad (PCBNEW (5.0.1)-3) date 01/04/2019 17:24:46*
%MOMM*%
%LPD*%
G01*
G04 APERTURE LIST*
%ADD10C,0.100000*%
G04 APERTURE END LIST*
D10*
G36*
X35277396Y-117505546D02*
X35450466Y-117577234D01*
X35606230Y-117681312D01*
X35738688Y-117813770D01*
X35842766Y-117969534D01*
X35914454Y-118142604D01*
X35951000Y-118326333D01*
X35951000Y-118513667D01*
X35914454Y-118697396D01*
X35842766Y-118870466D01*
X35738688Y-119026230D01*
X35606230Y-119158688D01*
X35450466Y-119262766D01*
X35277396Y-119334454D01*
X35093667Y-119371000D01*
X34906333Y-119371000D01*
X34722604Y-119334454D01*
X34549534Y-119262766D01*
X34393770Y-119158688D01*
X34261312Y-119026230D01*
X34157234Y-118870466D01*
X34085546Y-118697396D01*
X34049000Y-118513667D01*
X34049000Y-118326333D01*
X34085546Y-118142604D01*
X34157234Y-117969534D01*
X34261312Y-117813770D01*
X34393770Y-117681312D01*
X34549534Y-117577234D01*
X34722604Y-117505546D01*
X34906333Y-117469000D01*
X35093667Y-117469000D01*
X35277396Y-117505546D01*
X35277396Y-117505546D01*
G37*
G36*
X53757396Y-112585546D02*
X53930466Y-112657234D01*
X54086230Y-112761312D01*
X54218688Y-112893770D01*
X54322766Y-113049534D01*
X54394454Y-113222604D01*
X54431000Y-113406333D01*
X54431000Y-113593667D01*
X54394454Y-113777396D01*
X54322766Y-113950466D01*
X54218688Y-114106230D01*
X54086230Y-114238688D01*
X53930466Y-114342766D01*
X53757396Y-114414454D01*
X53573667Y-114451000D01*
X53386333Y-114451000D01*
X53202604Y-114414454D01*
X53029534Y-114342766D01*
X52873770Y-114238688D01*
X52741312Y-114106230D01*
X52637234Y-113950466D01*
X52565546Y-113777396D01*
X52529000Y-113593667D01*
X52529000Y-113406333D01*
X52565546Y-113222604D01*
X52637234Y-113049534D01*
X52741312Y-112893770D01*
X52873770Y-112761312D01*
X53029534Y-112657234D01*
X53202604Y-112585546D01*
X53386333Y-112549000D01*
X53573667Y-112549000D01*
X53757396Y-112585546D01*
X53757396Y-112585546D01*
G37*
G36*
X42357396Y-112585546D02*
X42530466Y-112657234D01*
X42686230Y-112761312D01*
X42818688Y-112893770D01*
X42922766Y-113049534D01*
X42994454Y-113222604D01*
X43031000Y-113406333D01*
X43031000Y-113593667D01*
X42994454Y-113777396D01*
X42922766Y-113950466D01*
X42818688Y-114106230D01*
X42686230Y-114238688D01*
X42530466Y-114342766D01*
X42357396Y-114414454D01*
X42173667Y-114451000D01*
X41986333Y-114451000D01*
X41802604Y-114414454D01*
X41629534Y-114342766D01*
X41473770Y-114238688D01*
X41341312Y-114106230D01*
X41237234Y-113950466D01*
X41165546Y-113777396D01*
X41129000Y-113593667D01*
X41129000Y-113406333D01*
X41165546Y-113222604D01*
X41237234Y-113049534D01*
X41341312Y-112893770D01*
X41473770Y-112761312D01*
X41629534Y-112657234D01*
X41802604Y-112585546D01*
X41986333Y-112549000D01*
X42173667Y-112549000D01*
X42357396Y-112585546D01*
X42357396Y-112585546D01*
G37*
G36*
X50657396Y-112585546D02*
X50830466Y-112657234D01*
X50986230Y-112761312D01*
X51118688Y-112893770D01*
X51222766Y-113049534D01*
X51294454Y-113222604D01*
X51331000Y-113406333D01*
X51331000Y-113593667D01*
X51294454Y-113777396D01*
X51222766Y-113950466D01*
X51118688Y-114106230D01*
X50986230Y-114238688D01*
X50830466Y-114342766D01*
X50657396Y-114414454D01*
X50473667Y-114451000D01*
X50286333Y-114451000D01*
X50102604Y-114414454D01*
X49929534Y-114342766D01*
X49773770Y-114238688D01*
X49641312Y-114106230D01*
X49537234Y-113950466D01*
X49465546Y-113777396D01*
X49429000Y-113593667D01*
X49429000Y-113406333D01*
X49465546Y-113222604D01*
X49537234Y-113049534D01*
X49641312Y-112893770D01*
X49773770Y-112761312D01*
X49929534Y-112657234D01*
X50102604Y-112585546D01*
X50286333Y-112549000D01*
X50473667Y-112549000D01*
X50657396Y-112585546D01*
X50657396Y-112585546D01*
G37*
G36*
X16797396Y-112585546D02*
X16970466Y-112657234D01*
X17126230Y-112761312D01*
X17258688Y-112893770D01*
X17362766Y-113049534D01*
X17434454Y-113222604D01*
X17471000Y-113406333D01*
X17471000Y-113593667D01*
X17434454Y-113777396D01*
X17362766Y-113950466D01*
X17258688Y-114106230D01*
X17126230Y-114238688D01*
X16970466Y-114342766D01*
X16797396Y-114414454D01*
X16613667Y-114451000D01*
X16426333Y-114451000D01*
X16242604Y-114414454D01*
X16069534Y-114342766D01*
X15913770Y-114238688D01*
X15781312Y-114106230D01*
X15677234Y-113950466D01*
X15605546Y-113777396D01*
X15569000Y-113593667D01*
X15569000Y-113406333D01*
X15605546Y-113222604D01*
X15677234Y-113049534D01*
X15781312Y-112893770D01*
X15913770Y-112761312D01*
X16069534Y-112657234D01*
X16242604Y-112585546D01*
X16426333Y-112549000D01*
X16613667Y-112549000D01*
X16797396Y-112585546D01*
X16797396Y-112585546D01*
G37*
G36*
X28197396Y-112585546D02*
X28370466Y-112657234D01*
X28526230Y-112761312D01*
X28658688Y-112893770D01*
X28762766Y-113049534D01*
X28834454Y-113222604D01*
X28871000Y-113406333D01*
X28871000Y-113593667D01*
X28834454Y-113777396D01*
X28762766Y-113950466D01*
X28658688Y-114106230D01*
X28526230Y-114238688D01*
X28370466Y-114342766D01*
X28197396Y-114414454D01*
X28013667Y-114451000D01*
X27826333Y-114451000D01*
X27642604Y-114414454D01*
X27469534Y-114342766D01*
X27313770Y-114238688D01*
X27181312Y-114106230D01*
X27077234Y-113950466D01*
X27005546Y-113777396D01*
X26969000Y-113593667D01*
X26969000Y-113406333D01*
X27005546Y-113222604D01*
X27077234Y-113049534D01*
X27181312Y-112893770D01*
X27313770Y-112761312D01*
X27469534Y-112657234D01*
X27642604Y-112585546D01*
X27826333Y-112549000D01*
X28013667Y-112549000D01*
X28197396Y-112585546D01*
X28197396Y-112585546D01*
G37*
G36*
X19897396Y-112585546D02*
X20070466Y-112657234D01*
X20226230Y-112761312D01*
X20358688Y-112893770D01*
X20462766Y-113049534D01*
X20534454Y-113222604D01*
X20571000Y-113406333D01*
X20571000Y-113593667D01*
X20534454Y-113777396D01*
X20462766Y-113950466D01*
X20358688Y-114106230D01*
X20226230Y-114238688D01*
X20070466Y-114342766D01*
X19897396Y-114414454D01*
X19713667Y-114451000D01*
X19526333Y-114451000D01*
X19342604Y-114414454D01*
X19169534Y-114342766D01*
X19013770Y-114238688D01*
X18881312Y-114106230D01*
X18777234Y-113950466D01*
X18705546Y-113777396D01*
X18669000Y-113593667D01*
X18669000Y-113406333D01*
X18705546Y-113222604D01*
X18777234Y-113049534D01*
X18881312Y-112893770D01*
X19013770Y-112761312D01*
X19169534Y-112657234D01*
X19342604Y-112585546D01*
X19526333Y-112549000D01*
X19713667Y-112549000D01*
X19897396Y-112585546D01*
X19897396Y-112585546D01*
G37*
G36*
X35277396Y-109205546D02*
X35450466Y-109277234D01*
X35606230Y-109381312D01*
X35738688Y-109513770D01*
X35842766Y-109669534D01*
X35914454Y-109842604D01*
X35951000Y-110026333D01*
X35951000Y-110213667D01*
X35914454Y-110397396D01*
X35842766Y-110570466D01*
X35738688Y-110726230D01*
X35606230Y-110858688D01*
X35450466Y-110962766D01*
X35277396Y-111034454D01*
X35093667Y-111071000D01*
X34906333Y-111071000D01*
X34722604Y-111034454D01*
X34549534Y-110962766D01*
X34393770Y-110858688D01*
X34261312Y-110726230D01*
X34157234Y-110570466D01*
X34085546Y-110397396D01*
X34049000Y-110213667D01*
X34049000Y-110026333D01*
X34085546Y-109842604D01*
X34157234Y-109669534D01*
X34261312Y-109513770D01*
X34393770Y-109381312D01*
X34549534Y-109277234D01*
X34722604Y-109205546D01*
X34906333Y-109169000D01*
X35093667Y-109169000D01*
X35277396Y-109205546D01*
X35277396Y-109205546D01*
G37*
G36*
X17110443Y-107925519D02*
X17176627Y-107932037D01*
X17289853Y-107966384D01*
X17346467Y-107983557D01*
X17485087Y-108057652D01*
X17502991Y-108067222D01*
X17526148Y-108086227D01*
X17640186Y-108179814D01*
X17723448Y-108281271D01*
X17752778Y-108317009D01*
X17752779Y-108317011D01*
X17836443Y-108473533D01*
X17836443Y-108473534D01*
X17887963Y-108643373D01*
X17905359Y-108820000D01*
X17887963Y-108996627D01*
X17853616Y-109109853D01*
X17836443Y-109166467D01*
X17815554Y-109205547D01*
X17752778Y-109322991D01*
X17723448Y-109358729D01*
X17640186Y-109460186D01*
X17538729Y-109543448D01*
X17502991Y-109572778D01*
X17502989Y-109572779D01*
X17346467Y-109656443D01*
X17303314Y-109669533D01*
X17176627Y-109707963D01*
X17110443Y-109714481D01*
X17044260Y-109721000D01*
X16955740Y-109721000D01*
X16889557Y-109714481D01*
X16823373Y-109707963D01*
X16696686Y-109669533D01*
X16653533Y-109656443D01*
X16497011Y-109572779D01*
X16497009Y-109572778D01*
X16461271Y-109543448D01*
X16359814Y-109460186D01*
X16276552Y-109358729D01*
X16247222Y-109322991D01*
X16184446Y-109205547D01*
X16163557Y-109166467D01*
X16146384Y-109109853D01*
X16112037Y-108996627D01*
X16094641Y-108820000D01*
X16112037Y-108643373D01*
X16163557Y-108473534D01*
X16163557Y-108473533D01*
X16247221Y-108317011D01*
X16247222Y-108317009D01*
X16276552Y-108281271D01*
X16359814Y-108179814D01*
X16473852Y-108086227D01*
X16497009Y-108067222D01*
X16514913Y-108057652D01*
X16653533Y-107983557D01*
X16710147Y-107966384D01*
X16823373Y-107932037D01*
X16889557Y-107925519D01*
X16955740Y-107919000D01*
X17044260Y-107919000D01*
X17110443Y-107925519D01*
X17110443Y-107925519D01*
G37*
G36*
X47277396Y-106565546D02*
X47450466Y-106637234D01*
X47606230Y-106741312D01*
X47738688Y-106873770D01*
X47842766Y-107029534D01*
X47914454Y-107202604D01*
X47951000Y-107386333D01*
X47951000Y-107573667D01*
X47914454Y-107757396D01*
X47842766Y-107930466D01*
X47738688Y-108086230D01*
X47606230Y-108218688D01*
X47450466Y-108322766D01*
X47277396Y-108394454D01*
X47093667Y-108431000D01*
X46906333Y-108431000D01*
X46722604Y-108394454D01*
X46549534Y-108322766D01*
X46393770Y-108218688D01*
X46261312Y-108086230D01*
X46157234Y-107930466D01*
X46085546Y-107757396D01*
X46049000Y-107573667D01*
X46049000Y-107386333D01*
X46085546Y-107202604D01*
X46157234Y-107029534D01*
X46261312Y-106873770D01*
X46393770Y-106741312D01*
X46549534Y-106637234D01*
X46722604Y-106565546D01*
X46906333Y-106529000D01*
X47093667Y-106529000D01*
X47277396Y-106565546D01*
X47277396Y-106565546D01*
G37*
G36*
X35277396Y-106105546D02*
X35450466Y-106177234D01*
X35606230Y-106281312D01*
X35738688Y-106413770D01*
X35842766Y-106569534D01*
X35914454Y-106742604D01*
X35951000Y-106926333D01*
X35951000Y-107113667D01*
X35914454Y-107297396D01*
X35842766Y-107470466D01*
X35738688Y-107626230D01*
X35606230Y-107758688D01*
X35450466Y-107862766D01*
X35277396Y-107934454D01*
X35093667Y-107971000D01*
X34906333Y-107971000D01*
X34722604Y-107934454D01*
X34549534Y-107862766D01*
X34393770Y-107758688D01*
X34261312Y-107626230D01*
X34157234Y-107470466D01*
X34085546Y-107297396D01*
X34049000Y-107113667D01*
X34049000Y-106926333D01*
X34085546Y-106742604D01*
X34157234Y-106569534D01*
X34261312Y-106413770D01*
X34393770Y-106281312D01*
X34549534Y-106177234D01*
X34722604Y-106105546D01*
X34906333Y-106069000D01*
X35093667Y-106069000D01*
X35277396Y-106105546D01*
X35277396Y-106105546D01*
G37*
G36*
X23277396Y-106065546D02*
X23450466Y-106137234D01*
X23606230Y-106241312D01*
X23738688Y-106373770D01*
X23842766Y-106529534D01*
X23914454Y-106702604D01*
X23951000Y-106886333D01*
X23951000Y-107073667D01*
X23914454Y-107257396D01*
X23842766Y-107430466D01*
X23738688Y-107586230D01*
X23606230Y-107718688D01*
X23450466Y-107822766D01*
X23277396Y-107894454D01*
X23093667Y-107931000D01*
X22906333Y-107931000D01*
X22722604Y-107894454D01*
X22549534Y-107822766D01*
X22393770Y-107718688D01*
X22261312Y-107586230D01*
X22157234Y-107430466D01*
X22085546Y-107257396D01*
X22049000Y-107073667D01*
X22049000Y-106886333D01*
X22085546Y-106702604D01*
X22157234Y-106529534D01*
X22261312Y-106373770D01*
X22393770Y-106241312D01*
X22549534Y-106137234D01*
X22722604Y-106065546D01*
X22906333Y-106029000D01*
X23093667Y-106029000D01*
X23277396Y-106065546D01*
X23277396Y-106065546D01*
G37*
G36*
X17110443Y-105385519D02*
X17176627Y-105392037D01*
X17289853Y-105426384D01*
X17346467Y-105443557D01*
X17485087Y-105517652D01*
X17502991Y-105527222D01*
X17538729Y-105556552D01*
X17640186Y-105639814D01*
X17723448Y-105741271D01*
X17752778Y-105777009D01*
X17752779Y-105777011D01*
X17836443Y-105933533D01*
X17836443Y-105933534D01*
X17887963Y-106103373D01*
X17905359Y-106280000D01*
X17887963Y-106456627D01*
X17866009Y-106529000D01*
X17836443Y-106626467D01*
X17762348Y-106765087D01*
X17752778Y-106782991D01*
X17723448Y-106818729D01*
X17640186Y-106920186D01*
X17538729Y-107003448D01*
X17502991Y-107032778D01*
X17502989Y-107032779D01*
X17346467Y-107116443D01*
X17289853Y-107133616D01*
X17176627Y-107167963D01*
X17110442Y-107174482D01*
X17044260Y-107181000D01*
X16955740Y-107181000D01*
X16889558Y-107174482D01*
X16823373Y-107167963D01*
X16710147Y-107133616D01*
X16653533Y-107116443D01*
X16497011Y-107032779D01*
X16497009Y-107032778D01*
X16461271Y-107003448D01*
X16359814Y-106920186D01*
X16276552Y-106818729D01*
X16247222Y-106782991D01*
X16237652Y-106765087D01*
X16163557Y-106626467D01*
X16133991Y-106529000D01*
X16112037Y-106456627D01*
X16094641Y-106280000D01*
X16112037Y-106103373D01*
X16163557Y-105933534D01*
X16163557Y-105933533D01*
X16247221Y-105777011D01*
X16247222Y-105777009D01*
X16276552Y-105741271D01*
X16359814Y-105639814D01*
X16461271Y-105556552D01*
X16497009Y-105527222D01*
X16514913Y-105517652D01*
X16653533Y-105443557D01*
X16710147Y-105426384D01*
X16823373Y-105392037D01*
X16889557Y-105385519D01*
X16955740Y-105379000D01*
X17044260Y-105379000D01*
X17110443Y-105385519D01*
X17110443Y-105385519D01*
G37*
G36*
X47277396Y-103465546D02*
X47450466Y-103537234D01*
X47606230Y-103641312D01*
X47738688Y-103773770D01*
X47842766Y-103929534D01*
X47914454Y-104102604D01*
X47951000Y-104286333D01*
X47951000Y-104473667D01*
X47914454Y-104657396D01*
X47842766Y-104830466D01*
X47738688Y-104986230D01*
X47606230Y-105118688D01*
X47450466Y-105222766D01*
X47277396Y-105294454D01*
X47093667Y-105331000D01*
X46906333Y-105331000D01*
X46722604Y-105294454D01*
X46549534Y-105222766D01*
X46393770Y-105118688D01*
X46261312Y-104986230D01*
X46157234Y-104830466D01*
X46085546Y-104657396D01*
X46049000Y-104473667D01*
X46049000Y-104286333D01*
X46085546Y-104102604D01*
X46157234Y-103929534D01*
X46261312Y-103773770D01*
X46393770Y-103641312D01*
X46549534Y-103537234D01*
X46722604Y-103465546D01*
X46906333Y-103429000D01*
X47093667Y-103429000D01*
X47277396Y-103465546D01*
X47277396Y-103465546D01*
G37*
G36*
X23277396Y-102965546D02*
X23450466Y-103037234D01*
X23606230Y-103141312D01*
X23738688Y-103273770D01*
X23842766Y-103429534D01*
X23914454Y-103602604D01*
X23951000Y-103786333D01*
X23951000Y-103973667D01*
X23914454Y-104157396D01*
X23842766Y-104330466D01*
X23738688Y-104486230D01*
X23606230Y-104618688D01*
X23450466Y-104722766D01*
X23277396Y-104794454D01*
X23093667Y-104831000D01*
X22906333Y-104831000D01*
X22722604Y-104794454D01*
X22549534Y-104722766D01*
X22393770Y-104618688D01*
X22261312Y-104486230D01*
X22157234Y-104330466D01*
X22085546Y-104157396D01*
X22049000Y-103973667D01*
X22049000Y-103786333D01*
X22085546Y-103602604D01*
X22157234Y-103429534D01*
X22261312Y-103273770D01*
X22393770Y-103141312D01*
X22549534Y-103037234D01*
X22722604Y-102965546D01*
X22906333Y-102929000D01*
X23093667Y-102929000D01*
X23277396Y-102965546D01*
X23277396Y-102965546D01*
G37*
G36*
X17110443Y-102845519D02*
X17176627Y-102852037D01*
X17289853Y-102886384D01*
X17346467Y-102903557D01*
X17462440Y-102965547D01*
X17502991Y-102987222D01*
X17538729Y-103016552D01*
X17640186Y-103099814D01*
X17723448Y-103201271D01*
X17752778Y-103237009D01*
X17752779Y-103237011D01*
X17836443Y-103393533D01*
X17853616Y-103450147D01*
X17887963Y-103563373D01*
X17905359Y-103740000D01*
X17887963Y-103916627D01*
X17870660Y-103973667D01*
X17836443Y-104086467D01*
X17827817Y-104102604D01*
X17752778Y-104242991D01*
X17723448Y-104278729D01*
X17640186Y-104380186D01*
X17538729Y-104463448D01*
X17502991Y-104492778D01*
X17502989Y-104492779D01*
X17346467Y-104576443D01*
X17289853Y-104593616D01*
X17176627Y-104627963D01*
X17110443Y-104634481D01*
X17044260Y-104641000D01*
X16955740Y-104641000D01*
X16889557Y-104634481D01*
X16823373Y-104627963D01*
X16710147Y-104593616D01*
X16653533Y-104576443D01*
X16497011Y-104492779D01*
X16497009Y-104492778D01*
X16461271Y-104463448D01*
X16359814Y-104380186D01*
X16276552Y-104278729D01*
X16247222Y-104242991D01*
X16172183Y-104102604D01*
X16163557Y-104086467D01*
X16129340Y-103973667D01*
X16112037Y-103916627D01*
X16094641Y-103740000D01*
X16112037Y-103563373D01*
X16146384Y-103450147D01*
X16163557Y-103393533D01*
X16247221Y-103237011D01*
X16247222Y-103237009D01*
X16276552Y-103201271D01*
X16359814Y-103099814D01*
X16461271Y-103016552D01*
X16497009Y-102987222D01*
X16537560Y-102965547D01*
X16653533Y-102903557D01*
X16710147Y-102886384D01*
X16823373Y-102852037D01*
X16889557Y-102845519D01*
X16955740Y-102839000D01*
X17044260Y-102839000D01*
X17110443Y-102845519D01*
X17110443Y-102845519D01*
G37*
G36*
X17110442Y-100305518D02*
X17176627Y-100312037D01*
X17289853Y-100346384D01*
X17346467Y-100363557D01*
X17485087Y-100437652D01*
X17502991Y-100447222D01*
X17538729Y-100476552D01*
X17640186Y-100559814D01*
X17723448Y-100661271D01*
X17752778Y-100697009D01*
X17752779Y-100697011D01*
X17836443Y-100853533D01*
X17836443Y-100853534D01*
X17887963Y-101023373D01*
X17905359Y-101200000D01*
X17887963Y-101376627D01*
X17876488Y-101414454D01*
X17836443Y-101546467D01*
X17762348Y-101685087D01*
X17752778Y-101702991D01*
X17723448Y-101738729D01*
X17640186Y-101840186D01*
X17538729Y-101923448D01*
X17502991Y-101952778D01*
X17502989Y-101952779D01*
X17346467Y-102036443D01*
X17289853Y-102053616D01*
X17176627Y-102087963D01*
X17110442Y-102094482D01*
X17044260Y-102101000D01*
X16955740Y-102101000D01*
X16889558Y-102094482D01*
X16823373Y-102087963D01*
X16710147Y-102053616D01*
X16653533Y-102036443D01*
X16497011Y-101952779D01*
X16497009Y-101952778D01*
X16461271Y-101923448D01*
X16359814Y-101840186D01*
X16276552Y-101738729D01*
X16247222Y-101702991D01*
X16237652Y-101685087D01*
X16163557Y-101546467D01*
X16123512Y-101414454D01*
X16112037Y-101376627D01*
X16094641Y-101200000D01*
X16112037Y-101023373D01*
X16163557Y-100853534D01*
X16163557Y-100853533D01*
X16247221Y-100697011D01*
X16247222Y-100697009D01*
X16276552Y-100661271D01*
X16359814Y-100559814D01*
X16461271Y-100476552D01*
X16497009Y-100447222D01*
X16514913Y-100437652D01*
X16653533Y-100363557D01*
X16710147Y-100346384D01*
X16823373Y-100312037D01*
X16889558Y-100305518D01*
X16955740Y-100299000D01*
X17044260Y-100299000D01*
X17110442Y-100305518D01*
X17110442Y-100305518D01*
G37*
G36*
X40197396Y-99585546D02*
X40370466Y-99657234D01*
X40526230Y-99761312D01*
X40658688Y-99893770D01*
X40762766Y-100049534D01*
X40834454Y-100222604D01*
X40871000Y-100406333D01*
X40871000Y-100593667D01*
X40834454Y-100777396D01*
X40762766Y-100950466D01*
X40658688Y-101106230D01*
X40526230Y-101238688D01*
X40370466Y-101342766D01*
X40197396Y-101414454D01*
X40013667Y-101451000D01*
X39826333Y-101451000D01*
X39642604Y-101414454D01*
X39469534Y-101342766D01*
X39313770Y-101238688D01*
X39181312Y-101106230D01*
X39077234Y-100950466D01*
X39005546Y-100777396D01*
X38969000Y-100593667D01*
X38969000Y-100406333D01*
X39005546Y-100222604D01*
X39077234Y-100049534D01*
X39181312Y-99893770D01*
X39313770Y-99761312D01*
X39469534Y-99657234D01*
X39642604Y-99585546D01*
X39826333Y-99549000D01*
X40013667Y-99549000D01*
X40197396Y-99585546D01*
X40197396Y-99585546D01*
G37*
G36*
X28797396Y-99585546D02*
X28970466Y-99657234D01*
X29126230Y-99761312D01*
X29258688Y-99893770D01*
X29362766Y-100049534D01*
X29434454Y-100222604D01*
X29471000Y-100406333D01*
X29471000Y-100593667D01*
X29434454Y-100777396D01*
X29362766Y-100950466D01*
X29258688Y-101106230D01*
X29126230Y-101238688D01*
X28970466Y-101342766D01*
X28797396Y-101414454D01*
X28613667Y-101451000D01*
X28426333Y-101451000D01*
X28242604Y-101414454D01*
X28069534Y-101342766D01*
X27913770Y-101238688D01*
X27781312Y-101106230D01*
X27677234Y-100950466D01*
X27605546Y-100777396D01*
X27569000Y-100593667D01*
X27569000Y-100406333D01*
X27605546Y-100222604D01*
X27677234Y-100049534D01*
X27781312Y-99893770D01*
X27913770Y-99761312D01*
X28069534Y-99657234D01*
X28242604Y-99585546D01*
X28426333Y-99549000D01*
X28613667Y-99549000D01*
X28797396Y-99585546D01*
X28797396Y-99585546D01*
G37*
G36*
X31897396Y-99585546D02*
X32070466Y-99657234D01*
X32226230Y-99761312D01*
X32358688Y-99893770D01*
X32462766Y-100049534D01*
X32534454Y-100222604D01*
X32571000Y-100406333D01*
X32571000Y-100593667D01*
X32534454Y-100777396D01*
X32462766Y-100950466D01*
X32358688Y-101106230D01*
X32226230Y-101238688D01*
X32070466Y-101342766D01*
X31897396Y-101414454D01*
X31713667Y-101451000D01*
X31526333Y-101451000D01*
X31342604Y-101414454D01*
X31169534Y-101342766D01*
X31013770Y-101238688D01*
X30881312Y-101106230D01*
X30777234Y-100950466D01*
X30705546Y-100777396D01*
X30669000Y-100593667D01*
X30669000Y-100406333D01*
X30705546Y-100222604D01*
X30777234Y-100049534D01*
X30881312Y-99893770D01*
X31013770Y-99761312D01*
X31169534Y-99657234D01*
X31342604Y-99585546D01*
X31526333Y-99549000D01*
X31713667Y-99549000D01*
X31897396Y-99585546D01*
X31897396Y-99585546D01*
G37*
G36*
X17110442Y-97765518D02*
X17176627Y-97772037D01*
X17289853Y-97806384D01*
X17346467Y-97823557D01*
X17485087Y-97897652D01*
X17502991Y-97907222D01*
X17538729Y-97936552D01*
X17640186Y-98019814D01*
X17723448Y-98121271D01*
X17752778Y-98157009D01*
X17752779Y-98157011D01*
X17836443Y-98313533D01*
X17836443Y-98313534D01*
X17887963Y-98483373D01*
X17905359Y-98660000D01*
X17887963Y-98836627D01*
X17853616Y-98949853D01*
X17836443Y-99006467D01*
X17762348Y-99145087D01*
X17752778Y-99162991D01*
X17723448Y-99198729D01*
X17640186Y-99300186D01*
X17538729Y-99383448D01*
X17502991Y-99412778D01*
X17502989Y-99412779D01*
X17346467Y-99496443D01*
X17289853Y-99513616D01*
X17176627Y-99547963D01*
X17110443Y-99554481D01*
X17044260Y-99561000D01*
X16955740Y-99561000D01*
X16889557Y-99554481D01*
X16823373Y-99547963D01*
X16710147Y-99513616D01*
X16653533Y-99496443D01*
X16497011Y-99412779D01*
X16497009Y-99412778D01*
X16461271Y-99383448D01*
X16359814Y-99300186D01*
X16276552Y-99198729D01*
X16247222Y-99162991D01*
X16237652Y-99145087D01*
X16163557Y-99006467D01*
X16146384Y-98949853D01*
X16112037Y-98836627D01*
X16094641Y-98660000D01*
X16112037Y-98483373D01*
X16163557Y-98313534D01*
X16163557Y-98313533D01*
X16247221Y-98157011D01*
X16247222Y-98157009D01*
X16276552Y-98121271D01*
X16359814Y-98019814D01*
X16461271Y-97936552D01*
X16497009Y-97907222D01*
X16514913Y-97897652D01*
X16653533Y-97823557D01*
X16710147Y-97806384D01*
X16823373Y-97772037D01*
X16889558Y-97765518D01*
X16955740Y-97759000D01*
X17044260Y-97759000D01*
X17110442Y-97765518D01*
X17110442Y-97765518D01*
G37*
G36*
X47277396Y-95165546D02*
X47450466Y-95237234D01*
X47606230Y-95341312D01*
X47738688Y-95473770D01*
X47842766Y-95629534D01*
X47914454Y-95802604D01*
X47951000Y-95986333D01*
X47951000Y-96173667D01*
X47914454Y-96357396D01*
X47842766Y-96530466D01*
X47738688Y-96686230D01*
X47606230Y-96818688D01*
X47450466Y-96922766D01*
X47277396Y-96994454D01*
X47093667Y-97031000D01*
X46906333Y-97031000D01*
X46722604Y-96994454D01*
X46549534Y-96922766D01*
X46393770Y-96818688D01*
X46261312Y-96686230D01*
X46157234Y-96530466D01*
X46085546Y-96357396D01*
X46049000Y-96173667D01*
X46049000Y-95986333D01*
X46085546Y-95802604D01*
X46157234Y-95629534D01*
X46261312Y-95473770D01*
X46393770Y-95341312D01*
X46549534Y-95237234D01*
X46722604Y-95165546D01*
X46906333Y-95129000D01*
X47093667Y-95129000D01*
X47277396Y-95165546D01*
X47277396Y-95165546D01*
G37*
G36*
X17110443Y-95225519D02*
X17176627Y-95232037D01*
X17289853Y-95266384D01*
X17346467Y-95283557D01*
X17454517Y-95341312D01*
X17502991Y-95367222D01*
X17538729Y-95396552D01*
X17640186Y-95479814D01*
X17723448Y-95581271D01*
X17752778Y-95617009D01*
X17752779Y-95617011D01*
X17836443Y-95773533D01*
X17836443Y-95773534D01*
X17887963Y-95943373D01*
X17905359Y-96120000D01*
X17887963Y-96296627D01*
X17881270Y-96318690D01*
X17836443Y-96466467D01*
X17801949Y-96531000D01*
X17752778Y-96622991D01*
X17723448Y-96658729D01*
X17640186Y-96760186D01*
X17538729Y-96843448D01*
X17502991Y-96872778D01*
X17502989Y-96872779D01*
X17346467Y-96956443D01*
X17289853Y-96973616D01*
X17176627Y-97007963D01*
X17110442Y-97014482D01*
X17044260Y-97021000D01*
X16955740Y-97021000D01*
X16889558Y-97014482D01*
X16823373Y-97007963D01*
X16710147Y-96973616D01*
X16653533Y-96956443D01*
X16497011Y-96872779D01*
X16497009Y-96872778D01*
X16461271Y-96843448D01*
X16359814Y-96760186D01*
X16276552Y-96658729D01*
X16247222Y-96622991D01*
X16198051Y-96531000D01*
X16163557Y-96466467D01*
X16118730Y-96318690D01*
X16112037Y-96296627D01*
X16094641Y-96120000D01*
X16112037Y-95943373D01*
X16163557Y-95773534D01*
X16163557Y-95773533D01*
X16247221Y-95617011D01*
X16247222Y-95617009D01*
X16276552Y-95581271D01*
X16359814Y-95479814D01*
X16461271Y-95396552D01*
X16497009Y-95367222D01*
X16545483Y-95341312D01*
X16653533Y-95283557D01*
X16710147Y-95266384D01*
X16823373Y-95232037D01*
X16889557Y-95225519D01*
X16955740Y-95219000D01*
X17044260Y-95219000D01*
X17110443Y-95225519D01*
X17110443Y-95225519D01*
G37*
G36*
X23277396Y-94665546D02*
X23450466Y-94737234D01*
X23606230Y-94841312D01*
X23738688Y-94973770D01*
X23842766Y-95129534D01*
X23914454Y-95302604D01*
X23951000Y-95486333D01*
X23951000Y-95673667D01*
X23914454Y-95857396D01*
X23842766Y-96030466D01*
X23738688Y-96186230D01*
X23606230Y-96318688D01*
X23450466Y-96422766D01*
X23277396Y-96494454D01*
X23093667Y-96531000D01*
X22906333Y-96531000D01*
X22722604Y-96494454D01*
X22549534Y-96422766D01*
X22393770Y-96318688D01*
X22261312Y-96186230D01*
X22157234Y-96030466D01*
X22085546Y-95857396D01*
X22049000Y-95673667D01*
X22049000Y-95486333D01*
X22085546Y-95302604D01*
X22157234Y-95129534D01*
X22261312Y-94973770D01*
X22393770Y-94841312D01*
X22549534Y-94737234D01*
X22722604Y-94665546D01*
X22906333Y-94629000D01*
X23093667Y-94629000D01*
X23277396Y-94665546D01*
X23277396Y-94665546D01*
G37*
G36*
X17110442Y-92685518D02*
X17176627Y-92692037D01*
X17289853Y-92726384D01*
X17346467Y-92743557D01*
X17485087Y-92817652D01*
X17502991Y-92827222D01*
X17538729Y-92856552D01*
X17640186Y-92939814D01*
X17723448Y-93041271D01*
X17752778Y-93077009D01*
X17752779Y-93077011D01*
X17836443Y-93233533D01*
X17836443Y-93233534D01*
X17887963Y-93403373D01*
X17905359Y-93580000D01*
X17887963Y-93756627D01*
X17853616Y-93869853D01*
X17836443Y-93926467D01*
X17762348Y-94065087D01*
X17752778Y-94082991D01*
X17723448Y-94118729D01*
X17640186Y-94220186D01*
X17538729Y-94303448D01*
X17502991Y-94332778D01*
X17502989Y-94332779D01*
X17346467Y-94416443D01*
X17289853Y-94433616D01*
X17176627Y-94467963D01*
X17110443Y-94474481D01*
X17044260Y-94481000D01*
X16955740Y-94481000D01*
X16889557Y-94474481D01*
X16823373Y-94467963D01*
X16710147Y-94433616D01*
X16653533Y-94416443D01*
X16497011Y-94332779D01*
X16497009Y-94332778D01*
X16461271Y-94303448D01*
X16359814Y-94220186D01*
X16276552Y-94118729D01*
X16247222Y-94082991D01*
X16237652Y-94065087D01*
X16163557Y-93926467D01*
X16146384Y-93869853D01*
X16112037Y-93756627D01*
X16094641Y-93580000D01*
X16112037Y-93403373D01*
X16163557Y-93233534D01*
X16163557Y-93233533D01*
X16247221Y-93077011D01*
X16247222Y-93077009D01*
X16276552Y-93041271D01*
X16359814Y-92939814D01*
X16461271Y-92856552D01*
X16497009Y-92827222D01*
X16514913Y-92817652D01*
X16653533Y-92743557D01*
X16710147Y-92726384D01*
X16823373Y-92692037D01*
X16889558Y-92685518D01*
X16955740Y-92679000D01*
X17044260Y-92679000D01*
X17110442Y-92685518D01*
X17110442Y-92685518D01*
G37*
G36*
X45737396Y-90085546D02*
X45910466Y-90157234D01*
X46066230Y-90261312D01*
X46198688Y-90393770D01*
X46302766Y-90549534D01*
X46374454Y-90722604D01*
X46411000Y-90906333D01*
X46411000Y-91093667D01*
X46374454Y-91277396D01*
X46302766Y-91450466D01*
X46198688Y-91606230D01*
X46066230Y-91738688D01*
X45910466Y-91842766D01*
X45737396Y-91914454D01*
X45553667Y-91951000D01*
X45366333Y-91951000D01*
X45182604Y-91914454D01*
X45009534Y-91842766D01*
X44853770Y-91738688D01*
X44721312Y-91606230D01*
X44617234Y-91450466D01*
X44545546Y-91277396D01*
X44509000Y-91093667D01*
X44509000Y-90906333D01*
X44545546Y-90722604D01*
X44617234Y-90549534D01*
X44721312Y-90393770D01*
X44853770Y-90261312D01*
X45009534Y-90157234D01*
X45182604Y-90085546D01*
X45366333Y-90049000D01*
X45553667Y-90049000D01*
X45737396Y-90085546D01*
X45737396Y-90085546D01*
G37*
G36*
X24951000Y-91951000D02*
X23049000Y-91951000D01*
X23049000Y-90049000D01*
X24951000Y-90049000D01*
X24951000Y-91951000D01*
X24951000Y-91951000D01*
G37*
G36*
X36951000Y-91951000D02*
X35049000Y-91951000D01*
X35049000Y-90049000D01*
X36951000Y-90049000D01*
X36951000Y-91951000D01*
X36951000Y-91951000D01*
G37*
G36*
X33737396Y-90085546D02*
X33910466Y-90157234D01*
X34066230Y-90261312D01*
X34198688Y-90393770D01*
X34302766Y-90549534D01*
X34374454Y-90722604D01*
X34411000Y-90906333D01*
X34411000Y-91093667D01*
X34374454Y-91277396D01*
X34302766Y-91450466D01*
X34198688Y-91606230D01*
X34066230Y-91738688D01*
X33910466Y-91842766D01*
X33737396Y-91914454D01*
X33553667Y-91951000D01*
X33366333Y-91951000D01*
X33182604Y-91914454D01*
X33009534Y-91842766D01*
X32853770Y-91738688D01*
X32721312Y-91606230D01*
X32617234Y-91450466D01*
X32545546Y-91277396D01*
X32509000Y-91093667D01*
X32509000Y-90906333D01*
X32545546Y-90722604D01*
X32617234Y-90549534D01*
X32721312Y-90393770D01*
X32853770Y-90261312D01*
X33009534Y-90157234D01*
X33182604Y-90085546D01*
X33366333Y-90049000D01*
X33553667Y-90049000D01*
X33737396Y-90085546D01*
X33737396Y-90085546D01*
G37*
G36*
X21737396Y-90085546D02*
X21910466Y-90157234D01*
X22066230Y-90261312D01*
X22198688Y-90393770D01*
X22302766Y-90549534D01*
X22374454Y-90722604D01*
X22411000Y-90906333D01*
X22411000Y-91093667D01*
X22374454Y-91277396D01*
X22302766Y-91450466D01*
X22198688Y-91606230D01*
X22066230Y-91738688D01*
X21910466Y-91842766D01*
X21737396Y-91914454D01*
X21553667Y-91951000D01*
X21366333Y-91951000D01*
X21182604Y-91914454D01*
X21009534Y-91842766D01*
X20853770Y-91738688D01*
X20721312Y-91606230D01*
X20617234Y-91450466D01*
X20545546Y-91277396D01*
X20509000Y-91093667D01*
X20509000Y-90906333D01*
X20545546Y-90722604D01*
X20617234Y-90549534D01*
X20721312Y-90393770D01*
X20853770Y-90261312D01*
X21009534Y-90157234D01*
X21182604Y-90085546D01*
X21366333Y-90049000D01*
X21553667Y-90049000D01*
X21737396Y-90085546D01*
X21737396Y-90085546D01*
G37*
G36*
X48951000Y-91951000D02*
X47049000Y-91951000D01*
X47049000Y-90049000D01*
X48951000Y-90049000D01*
X48951000Y-91951000D01*
X48951000Y-91951000D01*
G37*
G36*
X17110442Y-90145518D02*
X17176627Y-90152037D01*
X17289853Y-90186384D01*
X17346467Y-90203557D01*
X17454517Y-90261312D01*
X17502991Y-90287222D01*
X17538729Y-90316552D01*
X17640186Y-90399814D01*
X17689547Y-90459962D01*
X17752778Y-90537009D01*
X17752779Y-90537011D01*
X17836443Y-90693533D01*
X17836443Y-90693534D01*
X17887963Y-90863373D01*
X17905359Y-91040000D01*
X17887963Y-91216627D01*
X17876842Y-91253288D01*
X17836443Y-91386467D01*
X17769523Y-91511663D01*
X17752778Y-91542991D01*
X17740982Y-91557364D01*
X17640186Y-91680186D01*
X17543265Y-91759726D01*
X17502991Y-91792778D01*
X17502989Y-91792779D01*
X17346467Y-91876443D01*
X17289853Y-91893616D01*
X17176627Y-91927963D01*
X17110442Y-91934482D01*
X17044260Y-91941000D01*
X16955740Y-91941000D01*
X16889558Y-91934482D01*
X16823373Y-91927963D01*
X16710147Y-91893616D01*
X16653533Y-91876443D01*
X16497011Y-91792779D01*
X16497009Y-91792778D01*
X16456735Y-91759726D01*
X16359814Y-91680186D01*
X16259018Y-91557364D01*
X16247222Y-91542991D01*
X16230477Y-91511663D01*
X16163557Y-91386467D01*
X16123158Y-91253288D01*
X16112037Y-91216627D01*
X16094641Y-91040000D01*
X16112037Y-90863373D01*
X16163557Y-90693534D01*
X16163557Y-90693533D01*
X16247221Y-90537011D01*
X16247222Y-90537009D01*
X16310453Y-90459962D01*
X16359814Y-90399814D01*
X16461271Y-90316552D01*
X16497009Y-90287222D01*
X16545483Y-90261312D01*
X16653533Y-90203557D01*
X16710147Y-90186384D01*
X16823373Y-90152037D01*
X16889558Y-90145518D01*
X16955740Y-90139000D01*
X17044260Y-90139000D01*
X17110442Y-90145518D01*
X17110442Y-90145518D01*
G37*
G36*
X28342916Y-90207334D02*
X28451492Y-90240271D01*
X28551557Y-90293756D01*
X28639264Y-90365736D01*
X28702374Y-90442635D01*
X28719701Y-90459962D01*
X28740076Y-90473576D01*
X28762715Y-90482954D01*
X28786748Y-90487734D01*
X28811252Y-90487734D01*
X28835286Y-90482953D01*
X28857925Y-90473576D01*
X28878299Y-90459962D01*
X28895626Y-90442635D01*
X28909240Y-90422260D01*
X28918618Y-90399621D01*
X28924000Y-90363336D01*
X28924000Y-90199000D01*
X30076000Y-90199000D01*
X30076000Y-91801000D01*
X28924000Y-91801000D01*
X28924000Y-91636663D01*
X28921598Y-91612277D01*
X28914485Y-91588828D01*
X28902934Y-91567217D01*
X28887388Y-91548275D01*
X28868446Y-91532729D01*
X28846835Y-91521178D01*
X28823386Y-91514065D01*
X28799000Y-91511663D01*
X28774614Y-91514065D01*
X28751165Y-91521178D01*
X28729554Y-91532729D01*
X28702377Y-91557361D01*
X28639264Y-91634264D01*
X28551556Y-91706244D01*
X28451491Y-91759729D01*
X28342915Y-91792666D01*
X28230000Y-91803787D01*
X28117084Y-91792666D01*
X28008508Y-91759729D01*
X27908443Y-91706244D01*
X27820736Y-91634264D01*
X27748756Y-91546556D01*
X27705240Y-91465142D01*
X27691627Y-91444767D01*
X27674299Y-91427440D01*
X27653925Y-91413826D01*
X27631286Y-91404449D01*
X27607253Y-91399668D01*
X27582748Y-91399668D01*
X27558715Y-91404448D01*
X27536076Y-91413826D01*
X27515701Y-91427439D01*
X27498374Y-91444767D01*
X27484767Y-91465131D01*
X27441244Y-91546557D01*
X27369264Y-91634264D01*
X27281556Y-91706244D01*
X27181491Y-91759729D01*
X27072915Y-91792666D01*
X26960000Y-91803787D01*
X26847084Y-91792666D01*
X26738508Y-91759729D01*
X26638443Y-91706244D01*
X26550736Y-91634264D01*
X26478756Y-91546556D01*
X26425271Y-91446491D01*
X26392334Y-91337915D01*
X26384000Y-91253297D01*
X26384000Y-90746702D01*
X26392334Y-90662084D01*
X26425271Y-90553508D01*
X26462983Y-90482954D01*
X26478755Y-90453446D01*
X26504349Y-90422260D01*
X26550737Y-90365736D01*
X26638444Y-90293756D01*
X26738509Y-90240271D01*
X26847085Y-90207334D01*
X26960000Y-90196213D01*
X27072916Y-90207334D01*
X27181492Y-90240271D01*
X27281557Y-90293756D01*
X27369264Y-90365736D01*
X27441244Y-90453443D01*
X27484760Y-90534857D01*
X27498373Y-90555232D01*
X27515701Y-90572559D01*
X27536075Y-90586173D01*
X27558714Y-90595550D01*
X27582747Y-90600331D01*
X27607252Y-90600331D01*
X27631285Y-90595551D01*
X27653924Y-90586173D01*
X27674299Y-90572560D01*
X27691626Y-90555232D01*
X27705240Y-90534857D01*
X27748755Y-90453446D01*
X27774349Y-90422260D01*
X27820737Y-90365736D01*
X27908444Y-90293756D01*
X28008509Y-90240271D01*
X28117085Y-90207334D01*
X28230000Y-90196213D01*
X28342916Y-90207334D01*
X28342916Y-90207334D01*
G37*
G36*
X52342916Y-90207334D02*
X52451492Y-90240271D01*
X52551557Y-90293756D01*
X52639264Y-90365736D01*
X52702374Y-90442635D01*
X52719701Y-90459962D01*
X52740076Y-90473576D01*
X52762715Y-90482954D01*
X52786748Y-90487734D01*
X52811252Y-90487734D01*
X52835286Y-90482953D01*
X52857925Y-90473576D01*
X52878299Y-90459962D01*
X52895626Y-90442635D01*
X52909240Y-90422260D01*
X52918618Y-90399621D01*
X52924000Y-90363336D01*
X52924000Y-90199000D01*
X54076000Y-90199000D01*
X54076000Y-91801000D01*
X52924000Y-91801000D01*
X52924000Y-91636663D01*
X52921598Y-91612277D01*
X52914485Y-91588828D01*
X52902934Y-91567217D01*
X52887388Y-91548275D01*
X52868446Y-91532729D01*
X52846835Y-91521178D01*
X52823386Y-91514065D01*
X52799000Y-91511663D01*
X52774614Y-91514065D01*
X52751165Y-91521178D01*
X52729554Y-91532729D01*
X52702377Y-91557361D01*
X52639264Y-91634264D01*
X52551556Y-91706244D01*
X52451491Y-91759729D01*
X52342915Y-91792666D01*
X52230000Y-91803787D01*
X52117084Y-91792666D01*
X52008508Y-91759729D01*
X51908443Y-91706244D01*
X51820736Y-91634264D01*
X51748756Y-91546556D01*
X51705240Y-91465142D01*
X51691627Y-91444767D01*
X51674299Y-91427440D01*
X51653925Y-91413826D01*
X51631286Y-91404449D01*
X51607253Y-91399668D01*
X51582748Y-91399668D01*
X51558715Y-91404448D01*
X51536076Y-91413826D01*
X51515701Y-91427439D01*
X51498374Y-91444767D01*
X51484767Y-91465131D01*
X51441244Y-91546557D01*
X51369264Y-91634264D01*
X51281556Y-91706244D01*
X51181491Y-91759729D01*
X51072915Y-91792666D01*
X50960000Y-91803787D01*
X50847084Y-91792666D01*
X50738508Y-91759729D01*
X50638443Y-91706244D01*
X50550736Y-91634264D01*
X50478756Y-91546556D01*
X50425271Y-91446491D01*
X50392334Y-91337915D01*
X50384000Y-91253297D01*
X50384000Y-90746702D01*
X50392334Y-90662084D01*
X50425271Y-90553508D01*
X50462983Y-90482954D01*
X50478755Y-90453446D01*
X50504349Y-90422260D01*
X50550737Y-90365736D01*
X50638444Y-90293756D01*
X50738509Y-90240271D01*
X50847085Y-90207334D01*
X50960000Y-90196213D01*
X51072916Y-90207334D01*
X51181492Y-90240271D01*
X51281557Y-90293756D01*
X51369264Y-90365736D01*
X51441244Y-90453443D01*
X51484760Y-90534857D01*
X51498373Y-90555232D01*
X51515701Y-90572559D01*
X51536075Y-90586173D01*
X51558714Y-90595550D01*
X51582747Y-90600331D01*
X51607252Y-90600331D01*
X51631285Y-90595551D01*
X51653924Y-90586173D01*
X51674299Y-90572560D01*
X51691626Y-90555232D01*
X51705240Y-90534857D01*
X51748755Y-90453446D01*
X51774349Y-90422260D01*
X51820737Y-90365736D01*
X51908444Y-90293756D01*
X52008509Y-90240271D01*
X52117085Y-90207334D01*
X52230000Y-90196213D01*
X52342916Y-90207334D01*
X52342916Y-90207334D01*
G37*
G36*
X40342916Y-89707334D02*
X40451492Y-89740271D01*
X40551557Y-89793756D01*
X40639264Y-89865736D01*
X40702374Y-89942635D01*
X40719701Y-89959962D01*
X40740076Y-89973576D01*
X40762715Y-89982954D01*
X40786748Y-89987734D01*
X40811252Y-89987734D01*
X40835286Y-89982953D01*
X40857925Y-89973576D01*
X40878299Y-89959962D01*
X40895626Y-89942635D01*
X40909240Y-89922260D01*
X40918618Y-89899621D01*
X40924000Y-89863336D01*
X40924000Y-89699000D01*
X42076000Y-89699000D01*
X42076000Y-91301000D01*
X40924000Y-91301000D01*
X40924000Y-91136663D01*
X40921598Y-91112277D01*
X40914485Y-91088828D01*
X40902934Y-91067217D01*
X40887388Y-91048275D01*
X40868446Y-91032729D01*
X40846835Y-91021178D01*
X40823386Y-91014065D01*
X40799000Y-91011663D01*
X40774614Y-91014065D01*
X40751165Y-91021178D01*
X40729554Y-91032729D01*
X40702377Y-91057361D01*
X40639264Y-91134264D01*
X40551556Y-91206244D01*
X40451491Y-91259729D01*
X40342915Y-91292666D01*
X40230000Y-91303787D01*
X40117084Y-91292666D01*
X40008508Y-91259729D01*
X39908443Y-91206244D01*
X39820736Y-91134264D01*
X39748756Y-91046556D01*
X39705240Y-90965142D01*
X39691627Y-90944767D01*
X39674299Y-90927440D01*
X39653925Y-90913826D01*
X39631286Y-90904449D01*
X39607253Y-90899668D01*
X39582748Y-90899668D01*
X39558715Y-90904448D01*
X39536076Y-90913826D01*
X39515701Y-90927439D01*
X39498374Y-90944767D01*
X39484767Y-90965131D01*
X39441244Y-91046557D01*
X39369264Y-91134264D01*
X39281556Y-91206244D01*
X39181491Y-91259729D01*
X39072915Y-91292666D01*
X38960000Y-91303787D01*
X38847084Y-91292666D01*
X38738508Y-91259729D01*
X38638443Y-91206244D01*
X38550736Y-91134264D01*
X38478756Y-91046556D01*
X38425271Y-90946491D01*
X38392334Y-90837915D01*
X38384000Y-90753297D01*
X38384000Y-90246702D01*
X38392334Y-90162084D01*
X38425271Y-90053508D01*
X38462983Y-89982954D01*
X38478755Y-89953446D01*
X38504349Y-89922260D01*
X38550737Y-89865736D01*
X38638444Y-89793756D01*
X38738509Y-89740271D01*
X38847085Y-89707334D01*
X38960000Y-89696213D01*
X39072916Y-89707334D01*
X39181492Y-89740271D01*
X39281557Y-89793756D01*
X39369264Y-89865736D01*
X39441244Y-89953443D01*
X39484760Y-90034857D01*
X39498373Y-90055232D01*
X39515701Y-90072559D01*
X39536075Y-90086173D01*
X39558714Y-90095550D01*
X39582747Y-90100331D01*
X39607252Y-90100331D01*
X39631285Y-90095551D01*
X39653924Y-90086173D01*
X39674299Y-90072560D01*
X39691626Y-90055232D01*
X39705240Y-90034857D01*
X39748755Y-89953446D01*
X39774349Y-89922260D01*
X39820737Y-89865736D01*
X39908444Y-89793756D01*
X40008509Y-89740271D01*
X40117085Y-89707334D01*
X40230000Y-89696213D01*
X40342916Y-89707334D01*
X40342916Y-89707334D01*
G37*
G36*
X17901000Y-89401000D02*
X16099000Y-89401000D01*
X16099000Y-87599000D01*
X17901000Y-87599000D01*
X17901000Y-89401000D01*
X17901000Y-89401000D01*
G37*
G36*
X41326821Y-85661313D02*
X41326824Y-85661314D01*
X41326825Y-85661314D01*
X41487239Y-85709975D01*
X41487241Y-85709976D01*
X41487244Y-85709977D01*
X41635078Y-85788995D01*
X41764659Y-85895341D01*
X41871005Y-86024922D01*
X41950023Y-86172756D01*
X41950024Y-86172759D01*
X41950025Y-86172761D01*
X41998686Y-86333175D01*
X41998687Y-86333179D01*
X42015117Y-86500000D01*
X41998687Y-86666821D01*
X41998686Y-86666824D01*
X41998686Y-86666825D01*
X41973993Y-86748228D01*
X41950023Y-86827244D01*
X41871005Y-86975078D01*
X41764659Y-87104659D01*
X41635078Y-87211005D01*
X41487244Y-87290023D01*
X41487241Y-87290024D01*
X41487239Y-87290025D01*
X41326825Y-87338686D01*
X41326824Y-87338686D01*
X41326821Y-87338687D01*
X41201804Y-87351000D01*
X41118196Y-87351000D01*
X40993179Y-87338687D01*
X40993176Y-87338686D01*
X40993175Y-87338686D01*
X40832761Y-87290025D01*
X40832759Y-87290024D01*
X40832756Y-87290023D01*
X40684922Y-87211005D01*
X40555341Y-87104659D01*
X40448995Y-86975078D01*
X40369977Y-86827244D01*
X40346008Y-86748228D01*
X40321314Y-86666825D01*
X40321314Y-86666824D01*
X40321313Y-86666821D01*
X40304883Y-86500000D01*
X40321313Y-86333179D01*
X40321314Y-86333175D01*
X40369975Y-86172761D01*
X40369976Y-86172759D01*
X40369977Y-86172756D01*
X40448995Y-86024922D01*
X40555341Y-85895341D01*
X40684922Y-85788995D01*
X40832756Y-85709977D01*
X40832759Y-85709976D01*
X40832761Y-85709975D01*
X40993175Y-85661314D01*
X40993176Y-85661314D01*
X40993179Y-85661313D01*
X41118196Y-85649000D01*
X41201804Y-85649000D01*
X41326821Y-85661313D01*
X41326821Y-85661313D01*
G37*
G36*
X54326821Y-85661313D02*
X54326824Y-85661314D01*
X54326825Y-85661314D01*
X54487239Y-85709975D01*
X54487241Y-85709976D01*
X54487244Y-85709977D01*
X54635078Y-85788995D01*
X54764659Y-85895341D01*
X54871005Y-86024922D01*
X54950023Y-86172756D01*
X54950024Y-86172759D01*
X54950025Y-86172761D01*
X54998686Y-86333175D01*
X54998687Y-86333179D01*
X55015117Y-86500000D01*
X54998687Y-86666821D01*
X54998686Y-86666824D01*
X54998686Y-86666825D01*
X54973993Y-86748228D01*
X54950023Y-86827244D01*
X54871005Y-86975078D01*
X54764659Y-87104659D01*
X54635078Y-87211005D01*
X54487244Y-87290023D01*
X54487241Y-87290024D01*
X54487239Y-87290025D01*
X54326825Y-87338686D01*
X54326824Y-87338686D01*
X54326821Y-87338687D01*
X54201804Y-87351000D01*
X54118196Y-87351000D01*
X53993179Y-87338687D01*
X53993176Y-87338686D01*
X53993175Y-87338686D01*
X53832761Y-87290025D01*
X53832759Y-87290024D01*
X53832756Y-87290023D01*
X53684922Y-87211005D01*
X53555341Y-87104659D01*
X53448995Y-86975078D01*
X53369977Y-86827244D01*
X53346008Y-86748228D01*
X53321314Y-86666825D01*
X53321314Y-86666824D01*
X53321313Y-86666821D01*
X53304883Y-86500000D01*
X53321313Y-86333179D01*
X53321314Y-86333175D01*
X53369975Y-86172761D01*
X53369976Y-86172759D01*
X53369977Y-86172756D01*
X53448995Y-86024922D01*
X53555341Y-85895341D01*
X53684922Y-85788995D01*
X53832756Y-85709977D01*
X53832759Y-85709976D01*
X53832761Y-85709975D01*
X53993175Y-85661314D01*
X53993176Y-85661314D01*
X53993179Y-85661313D01*
X54118196Y-85649000D01*
X54201804Y-85649000D01*
X54326821Y-85661313D01*
X54326821Y-85661313D01*
G37*
G36*
X44248228Y-85681703D02*
X44403100Y-85745853D01*
X44542481Y-85838985D01*
X44661015Y-85957519D01*
X44754147Y-86096900D01*
X44818297Y-86251772D01*
X44851000Y-86416184D01*
X44851000Y-86583816D01*
X44818297Y-86748228D01*
X44754147Y-86903100D01*
X44661015Y-87042481D01*
X44542481Y-87161015D01*
X44403100Y-87254147D01*
X44248228Y-87318297D01*
X44083816Y-87351000D01*
X43916184Y-87351000D01*
X43751772Y-87318297D01*
X43596900Y-87254147D01*
X43457519Y-87161015D01*
X43338985Y-87042481D01*
X43245853Y-86903100D01*
X43181703Y-86748228D01*
X43149000Y-86583816D01*
X43149000Y-86416184D01*
X43181703Y-86251772D01*
X43245853Y-86096900D01*
X43338985Y-85957519D01*
X43457519Y-85838985D01*
X43596900Y-85745853D01*
X43751772Y-85681703D01*
X43916184Y-85649000D01*
X44083816Y-85649000D01*
X44248228Y-85681703D01*
X44248228Y-85681703D01*
G37*
G36*
X31248228Y-85681703D02*
X31403100Y-85745853D01*
X31542481Y-85838985D01*
X31661015Y-85957519D01*
X31754147Y-86096900D01*
X31818297Y-86251772D01*
X31851000Y-86416184D01*
X31851000Y-86583816D01*
X31818297Y-86748228D01*
X31754147Y-86903100D01*
X31661015Y-87042481D01*
X31542481Y-87161015D01*
X31403100Y-87254147D01*
X31248228Y-87318297D01*
X31083816Y-87351000D01*
X30916184Y-87351000D01*
X30751772Y-87318297D01*
X30596900Y-87254147D01*
X30457519Y-87161015D01*
X30338985Y-87042481D01*
X30245853Y-86903100D01*
X30181703Y-86748228D01*
X30149000Y-86583816D01*
X30149000Y-86416184D01*
X30181703Y-86251772D01*
X30245853Y-86096900D01*
X30338985Y-85957519D01*
X30457519Y-85838985D01*
X30596900Y-85745853D01*
X30751772Y-85681703D01*
X30916184Y-85649000D01*
X31083816Y-85649000D01*
X31248228Y-85681703D01*
X31248228Y-85681703D01*
G37*
G36*
X28826821Y-84161313D02*
X28826824Y-84161314D01*
X28826825Y-84161314D01*
X28987239Y-84209975D01*
X28987241Y-84209976D01*
X28987244Y-84209977D01*
X29135078Y-84288995D01*
X29264659Y-84395341D01*
X29371005Y-84524922D01*
X29450023Y-84672756D01*
X29450024Y-84672759D01*
X29450025Y-84672761D01*
X29498686Y-84833175D01*
X29498687Y-84833179D01*
X29515117Y-85000000D01*
X29498687Y-85166821D01*
X29498686Y-85166824D01*
X29498686Y-85166825D01*
X29473993Y-85248228D01*
X29450023Y-85327244D01*
X29371005Y-85475078D01*
X29264659Y-85604659D01*
X29135078Y-85711005D01*
X28987244Y-85790023D01*
X28987241Y-85790024D01*
X28987239Y-85790025D01*
X28826825Y-85838686D01*
X28826824Y-85838686D01*
X28826821Y-85838687D01*
X28701804Y-85851000D01*
X28618196Y-85851000D01*
X28493179Y-85838687D01*
X28493176Y-85838686D01*
X28493175Y-85838686D01*
X28332761Y-85790025D01*
X28332759Y-85790024D01*
X28332756Y-85790023D01*
X28184922Y-85711005D01*
X28055341Y-85604659D01*
X27948995Y-85475078D01*
X27869977Y-85327244D01*
X27846008Y-85248228D01*
X27821314Y-85166825D01*
X27821314Y-85166824D01*
X27821313Y-85166821D01*
X27804883Y-85000000D01*
X27821313Y-84833179D01*
X27821314Y-84833175D01*
X27869975Y-84672761D01*
X27869976Y-84672759D01*
X27869977Y-84672756D01*
X27948995Y-84524922D01*
X28055341Y-84395341D01*
X28184922Y-84288995D01*
X28332756Y-84209977D01*
X28332759Y-84209976D01*
X28332761Y-84209975D01*
X28493175Y-84161314D01*
X28493176Y-84161314D01*
X28493179Y-84161313D01*
X28618196Y-84149000D01*
X28701804Y-84149000D01*
X28826821Y-84161313D01*
X28826821Y-84161313D01*
G37*
G36*
X18748228Y-84181703D02*
X18903100Y-84245853D01*
X19042481Y-84338985D01*
X19161015Y-84457519D01*
X19254147Y-84596900D01*
X19318297Y-84751772D01*
X19351000Y-84916184D01*
X19351000Y-85083816D01*
X19318297Y-85248228D01*
X19254147Y-85403100D01*
X19161015Y-85542481D01*
X19042481Y-85661015D01*
X18903100Y-85754147D01*
X18748228Y-85818297D01*
X18583816Y-85851000D01*
X18416184Y-85851000D01*
X18251772Y-85818297D01*
X18096900Y-85754147D01*
X17957519Y-85661015D01*
X17838985Y-85542481D01*
X17745853Y-85403100D01*
X17681703Y-85248228D01*
X17649000Y-85083816D01*
X17649000Y-84916184D01*
X17681703Y-84751772D01*
X17745853Y-84596900D01*
X17838985Y-84457519D01*
X17957519Y-84338985D01*
X18096900Y-84245853D01*
X18251772Y-84181703D01*
X18416184Y-84149000D01*
X18583816Y-84149000D01*
X18748228Y-84181703D01*
X18748228Y-84181703D01*
G37*
G36*
X45306565Y-81789389D02*
X45497834Y-81868615D01*
X45669976Y-81983637D01*
X45816363Y-82130024D01*
X45931385Y-82302166D01*
X46010611Y-82493435D01*
X46051000Y-82696484D01*
X46051000Y-82903516D01*
X46010611Y-83106565D01*
X45931385Y-83297834D01*
X45816363Y-83469976D01*
X45669976Y-83616363D01*
X45497834Y-83731385D01*
X45306565Y-83810611D01*
X45103516Y-83851000D01*
X44896484Y-83851000D01*
X44693435Y-83810611D01*
X44502166Y-83731385D01*
X44330024Y-83616363D01*
X44183637Y-83469976D01*
X44068615Y-83297834D01*
X43989389Y-83106565D01*
X43949000Y-82903516D01*
X43949000Y-82696484D01*
X43989389Y-82493435D01*
X44068615Y-82302166D01*
X44183637Y-82130024D01*
X44330024Y-81983637D01*
X44502166Y-81868615D01*
X44693435Y-81789389D01*
X44896484Y-81749000D01*
X45103516Y-81749000D01*
X45306565Y-81789389D01*
X45306565Y-81789389D01*
G37*
G36*
X37704472Y-79825938D02*
X37832049Y-79878782D01*
X37946865Y-79955500D01*
X38044500Y-80053135D01*
X38121218Y-80167951D01*
X38174062Y-80295528D01*
X38201000Y-80430956D01*
X38201000Y-80569044D01*
X38174062Y-80704472D01*
X38121218Y-80832049D01*
X38044500Y-80946865D01*
X37946865Y-81044500D01*
X37832049Y-81121218D01*
X37704472Y-81174062D01*
X37569044Y-81201000D01*
X37430956Y-81201000D01*
X37295528Y-81174062D01*
X37167951Y-81121218D01*
X37053135Y-81044500D01*
X36955500Y-80946865D01*
X36878782Y-80832049D01*
X36825938Y-80704472D01*
X36799000Y-80569044D01*
X36799000Y-80430956D01*
X36825938Y-80295528D01*
X36878782Y-80167951D01*
X36955500Y-80053135D01*
X37053135Y-79955500D01*
X37167951Y-79878782D01*
X37295528Y-79825938D01*
X37430956Y-79799000D01*
X37569044Y-79799000D01*
X37704472Y-79825938D01*
X37704472Y-79825938D01*
G37*
G36*
X31005039Y-76217825D02*
X31250279Y-76292218D01*
X31250281Y-76292219D01*
X31476295Y-76413026D01*
X31674396Y-76575603D01*
X31807821Y-76738182D01*
X31836975Y-76773706D01*
X31957782Y-76999720D01*
X32032175Y-77244960D01*
X32051000Y-77436095D01*
X32051000Y-78563905D01*
X32032175Y-78755040D01*
X31957782Y-79000280D01*
X31957781Y-79000282D01*
X31836974Y-79226296D01*
X31674397Y-79424397D01*
X31476296Y-79586974D01*
X31476294Y-79586975D01*
X31250280Y-79707782D01*
X31005040Y-79782175D01*
X30750000Y-79807294D01*
X30494961Y-79782175D01*
X30249721Y-79707782D01*
X30023707Y-79586975D01*
X30023705Y-79586974D01*
X29825604Y-79424397D01*
X29663026Y-79226295D01*
X29542219Y-79000282D01*
X29542218Y-79000280D01*
X29467825Y-78755040D01*
X29449000Y-78563905D01*
X29449000Y-77436096D01*
X29467825Y-77244961D01*
X29542218Y-76999721D01*
X29663025Y-76773707D01*
X29663026Y-76773705D01*
X29825603Y-76575604D01*
X30023705Y-76413026D01*
X30023704Y-76413026D01*
X30023706Y-76413025D01*
X30249720Y-76292218D01*
X30494960Y-76217825D01*
X30750000Y-76192706D01*
X31005039Y-76217825D01*
X31005039Y-76217825D01*
G37*
G36*
X27505039Y-76217825D02*
X27750279Y-76292218D01*
X27750281Y-76292219D01*
X27976295Y-76413026D01*
X28174396Y-76575603D01*
X28307821Y-76738182D01*
X28336975Y-76773706D01*
X28457782Y-76999720D01*
X28532175Y-77244960D01*
X28551000Y-77436095D01*
X28551000Y-78563905D01*
X28532175Y-78755040D01*
X28457782Y-79000280D01*
X28457781Y-79000282D01*
X28336974Y-79226296D01*
X28174397Y-79424397D01*
X27976296Y-79586974D01*
X27976294Y-79586975D01*
X27750280Y-79707782D01*
X27505040Y-79782175D01*
X27250000Y-79807294D01*
X26994961Y-79782175D01*
X26749721Y-79707782D01*
X26523707Y-79586975D01*
X26523705Y-79586974D01*
X26325604Y-79424397D01*
X26163026Y-79226295D01*
X26042219Y-79000282D01*
X26042218Y-79000280D01*
X25967825Y-78755040D01*
X25949000Y-78563905D01*
X25949000Y-77436096D01*
X25967825Y-77244961D01*
X26042218Y-76999721D01*
X26163025Y-76773707D01*
X26163026Y-76773705D01*
X26325603Y-76575604D01*
X26523705Y-76413026D01*
X26523704Y-76413026D01*
X26523706Y-76413025D01*
X26749720Y-76292218D01*
X26994960Y-76217825D01*
X27250000Y-76192706D01*
X27505039Y-76217825D01*
X27505039Y-76217825D01*
G37*
G36*
X37704472Y-77325938D02*
X37832049Y-77378782D01*
X37946865Y-77455500D01*
X38044500Y-77553135D01*
X38121218Y-77667951D01*
X38174062Y-77795528D01*
X38201000Y-77930956D01*
X38201000Y-78069044D01*
X38174062Y-78204472D01*
X38121218Y-78332049D01*
X38044500Y-78446865D01*
X37946865Y-78544500D01*
X37832049Y-78621218D01*
X37704472Y-78674062D01*
X37569044Y-78701000D01*
X37430956Y-78701000D01*
X37295528Y-78674062D01*
X37167951Y-78621218D01*
X37053135Y-78544500D01*
X36955500Y-78446865D01*
X36878782Y-78332049D01*
X36825938Y-78204472D01*
X36799000Y-78069044D01*
X36799000Y-77930956D01*
X36825938Y-77795528D01*
X36878782Y-77667951D01*
X36955500Y-77553135D01*
X37053135Y-77455500D01*
X37167951Y-77378782D01*
X37295528Y-77325938D01*
X37430956Y-77299000D01*
X37569044Y-77299000D01*
X37704472Y-77325938D01*
X37704472Y-77325938D01*
G37*
G36*
X37704472Y-74825938D02*
X37832049Y-74878782D01*
X37946865Y-74955500D01*
X38044500Y-75053135D01*
X38121218Y-75167951D01*
X38174062Y-75295528D01*
X38201000Y-75430956D01*
X38201000Y-75569044D01*
X38174062Y-75704472D01*
X38121218Y-75832049D01*
X38044500Y-75946865D01*
X37946865Y-76044500D01*
X37832049Y-76121218D01*
X37704472Y-76174062D01*
X37569044Y-76201000D01*
X37430956Y-76201000D01*
X37295528Y-76174062D01*
X37167951Y-76121218D01*
X37053135Y-76044500D01*
X36955500Y-75946865D01*
X36878782Y-75832049D01*
X36825938Y-75704472D01*
X36799000Y-75569044D01*
X36799000Y-75430956D01*
X36825938Y-75295528D01*
X36878782Y-75167951D01*
X36955500Y-75053135D01*
X37053135Y-74955500D01*
X37167951Y-74878782D01*
X37295528Y-74825938D01*
X37430956Y-74799000D01*
X37569044Y-74799000D01*
X37704472Y-74825938D01*
X37704472Y-74825938D01*
G37*
G36*
X45306565Y-72189389D02*
X45497834Y-72268615D01*
X45669976Y-72383637D01*
X45816363Y-72530024D01*
X45931385Y-72702166D01*
X46010611Y-72893435D01*
X46051000Y-73096484D01*
X46051000Y-73303516D01*
X46010611Y-73506565D01*
X45931385Y-73697834D01*
X45816363Y-73869976D01*
X45669976Y-74016363D01*
X45497834Y-74131385D01*
X45306565Y-74210611D01*
X45103516Y-74251000D01*
X44896484Y-74251000D01*
X44693435Y-74210611D01*
X44502166Y-74131385D01*
X44330024Y-74016363D01*
X44183637Y-73869976D01*
X44068615Y-73697834D01*
X43989389Y-73506565D01*
X43949000Y-73303516D01*
X43949000Y-73096484D01*
X43989389Y-72893435D01*
X44068615Y-72702166D01*
X44183637Y-72530024D01*
X44330024Y-72383637D01*
X44502166Y-72268615D01*
X44693435Y-72189389D01*
X44896484Y-72149000D01*
X45103516Y-72149000D01*
X45306565Y-72189389D01*
X45306565Y-72189389D01*
G37*
G36*
X18451000Y-73451000D02*
X16549000Y-73451000D01*
X16549000Y-71549000D01*
X18451000Y-71549000D01*
X18451000Y-73451000D01*
X18451000Y-73451000D01*
G37*
G36*
X20317396Y-71585546D02*
X20490466Y-71657234D01*
X20646230Y-71761312D01*
X20778688Y-71893770D01*
X20882766Y-72049534D01*
X20954454Y-72222604D01*
X20991000Y-72406333D01*
X20991000Y-72593667D01*
X20954454Y-72777396D01*
X20882766Y-72950466D01*
X20778688Y-73106230D01*
X20646230Y-73238688D01*
X20490466Y-73342766D01*
X20317396Y-73414454D01*
X20133667Y-73451000D01*
X19946333Y-73451000D01*
X19762604Y-73414454D01*
X19589534Y-73342766D01*
X19433770Y-73238688D01*
X19301312Y-73106230D01*
X19197234Y-72950466D01*
X19125546Y-72777396D01*
X19089000Y-72593667D01*
X19089000Y-72406333D01*
X19125546Y-72222604D01*
X19197234Y-72049534D01*
X19301312Y-71893770D01*
X19433770Y-71761312D01*
X19589534Y-71657234D01*
X19762604Y-71585546D01*
X19946333Y-71549000D01*
X20133667Y-71549000D01*
X20317396Y-71585546D01*
X20317396Y-71585546D01*
G37*
G36*
X30951000Y-70451000D02*
X29049000Y-70451000D01*
X29049000Y-68549000D01*
X30951000Y-68549000D01*
X30951000Y-70451000D01*
X30951000Y-70451000D01*
G37*
G36*
X32817396Y-68585546D02*
X32990466Y-68657234D01*
X33146230Y-68761312D01*
X33278688Y-68893770D01*
X33382766Y-69049534D01*
X33454454Y-69222604D01*
X33491000Y-69406333D01*
X33491000Y-69593667D01*
X33454454Y-69777396D01*
X33382766Y-69950466D01*
X33278688Y-70106230D01*
X33146230Y-70238688D01*
X32990466Y-70342766D01*
X32817396Y-70414454D01*
X32633667Y-70451000D01*
X32446333Y-70451000D01*
X32262604Y-70414454D01*
X32089534Y-70342766D01*
X31933770Y-70238688D01*
X31801312Y-70106230D01*
X31697234Y-69950466D01*
X31625546Y-69777396D01*
X31589000Y-69593667D01*
X31589000Y-69406333D01*
X31625546Y-69222604D01*
X31697234Y-69049534D01*
X31801312Y-68893770D01*
X31933770Y-68761312D01*
X32089534Y-68657234D01*
X32262604Y-68585546D01*
X32446333Y-68549000D01*
X32633667Y-68549000D01*
X32817396Y-68585546D01*
X32817396Y-68585546D01*
G37*
G36*
X39588228Y-68181703D02*
X39743100Y-68245853D01*
X39882481Y-68338985D01*
X40001015Y-68457519D01*
X40094147Y-68596900D01*
X40158297Y-68751772D01*
X40191000Y-68916184D01*
X40191000Y-69083816D01*
X40158297Y-69248228D01*
X40094147Y-69403100D01*
X40001015Y-69542481D01*
X39882481Y-69661015D01*
X39743100Y-69754147D01*
X39588228Y-69818297D01*
X39423816Y-69851000D01*
X39256184Y-69851000D01*
X39091772Y-69818297D01*
X38936900Y-69754147D01*
X38797519Y-69661015D01*
X38678985Y-69542481D01*
X38585853Y-69403100D01*
X38521703Y-69248228D01*
X38489000Y-69083816D01*
X38489000Y-68916184D01*
X38521703Y-68751772D01*
X38585853Y-68596900D01*
X38678985Y-68457519D01*
X38797519Y-68338985D01*
X38936900Y-68245853D01*
X39091772Y-68181703D01*
X39256184Y-68149000D01*
X39423816Y-68149000D01*
X39588228Y-68181703D01*
X39588228Y-68181703D01*
G37*
G36*
X49666821Y-68161313D02*
X49666824Y-68161314D01*
X49666825Y-68161314D01*
X49827239Y-68209975D01*
X49827241Y-68209976D01*
X49827244Y-68209977D01*
X49975078Y-68288995D01*
X50104659Y-68395341D01*
X50211005Y-68524922D01*
X50290023Y-68672756D01*
X50290024Y-68672759D01*
X50290025Y-68672761D01*
X50338686Y-68833175D01*
X50338687Y-68833179D01*
X50355117Y-69000000D01*
X50338687Y-69166821D01*
X50338686Y-69166824D01*
X50338686Y-69166825D01*
X50313993Y-69248228D01*
X50290023Y-69327244D01*
X50211005Y-69475078D01*
X50104659Y-69604659D01*
X49975078Y-69711005D01*
X49827244Y-69790023D01*
X49827241Y-69790024D01*
X49827239Y-69790025D01*
X49666825Y-69838686D01*
X49666824Y-69838686D01*
X49666821Y-69838687D01*
X49541804Y-69851000D01*
X49458196Y-69851000D01*
X49333179Y-69838687D01*
X49333176Y-69838686D01*
X49333175Y-69838686D01*
X49172761Y-69790025D01*
X49172759Y-69790024D01*
X49172756Y-69790023D01*
X49024922Y-69711005D01*
X48895341Y-69604659D01*
X48788995Y-69475078D01*
X48709977Y-69327244D01*
X48686008Y-69248228D01*
X48661314Y-69166825D01*
X48661314Y-69166824D01*
X48661313Y-69166821D01*
X48644883Y-69000000D01*
X48661313Y-68833179D01*
X48661314Y-68833175D01*
X48709975Y-68672761D01*
X48709976Y-68672759D01*
X48709977Y-68672756D01*
X48788995Y-68524922D01*
X48895341Y-68395341D01*
X49024922Y-68288995D01*
X49172756Y-68209977D01*
X49172759Y-68209976D01*
X49172761Y-68209975D01*
X49333175Y-68161314D01*
X49333176Y-68161314D01*
X49333179Y-68161313D01*
X49458196Y-68149000D01*
X49541804Y-68149000D01*
X49666821Y-68161313D01*
X49666821Y-68161313D01*
G37*
G36*
X18451000Y-68951000D02*
X16549000Y-68951000D01*
X16549000Y-67049000D01*
X18451000Y-67049000D01*
X18451000Y-68951000D01*
X18451000Y-68951000D01*
G37*
G36*
X20317396Y-67085546D02*
X20490466Y-67157234D01*
X20646230Y-67261312D01*
X20778688Y-67393770D01*
X20882766Y-67549534D01*
X20954454Y-67722604D01*
X20991000Y-67906333D01*
X20991000Y-68093667D01*
X20954454Y-68277396D01*
X20882766Y-68450466D01*
X20778688Y-68606230D01*
X20646230Y-68738688D01*
X20490466Y-68842766D01*
X20317396Y-68914454D01*
X20133667Y-68951000D01*
X19946333Y-68951000D01*
X19762604Y-68914454D01*
X19589534Y-68842766D01*
X19433770Y-68738688D01*
X19301312Y-68606230D01*
X19197234Y-68450466D01*
X19125546Y-68277396D01*
X19089000Y-68093667D01*
X19089000Y-67906333D01*
X19125546Y-67722604D01*
X19197234Y-67549534D01*
X19301312Y-67393770D01*
X19433770Y-67261312D01*
X19589534Y-67157234D01*
X19762604Y-67085546D01*
X19946333Y-67049000D01*
X20133667Y-67049000D01*
X20317396Y-67085546D01*
X20317396Y-67085546D01*
G37*
G36*
X29375256Y-63991298D02*
X29481579Y-64012447D01*
X29782042Y-64136903D01*
X30011202Y-64290023D01*
X30052454Y-64317587D01*
X30282413Y-64547546D01*
X30463098Y-64817960D01*
X30587553Y-65118422D01*
X30651000Y-65437389D01*
X30651000Y-65762611D01*
X30587553Y-66081578D01*
X30463098Y-66382040D01*
X30282413Y-66652454D01*
X30052454Y-66882413D01*
X30052451Y-66882415D01*
X29782042Y-67063097D01*
X29782041Y-67063098D01*
X29782040Y-67063098D01*
X29727843Y-67085547D01*
X29481579Y-67187553D01*
X29375256Y-67208702D01*
X29162611Y-67251000D01*
X28837389Y-67251000D01*
X28624744Y-67208702D01*
X28518421Y-67187553D01*
X28272157Y-67085547D01*
X28217960Y-67063098D01*
X28217959Y-67063098D01*
X28217958Y-67063097D01*
X27947549Y-66882415D01*
X27947546Y-66882413D01*
X27717587Y-66652454D01*
X27536902Y-66382040D01*
X27412447Y-66081578D01*
X27349000Y-65762611D01*
X27349000Y-65437389D01*
X27412447Y-65118422D01*
X27536902Y-64817960D01*
X27717587Y-64547546D01*
X27947546Y-64317587D01*
X27988798Y-64290023D01*
X28217958Y-64136903D01*
X28518421Y-64012447D01*
X28624744Y-63991298D01*
X28837389Y-63949000D01*
X29162611Y-63949000D01*
X29375256Y-63991298D01*
X29375256Y-63991298D01*
G37*
G36*
X42748228Y-62681703D02*
X42903100Y-62745853D01*
X43042481Y-62838985D01*
X43161015Y-62957519D01*
X43254147Y-63096900D01*
X43318297Y-63251772D01*
X43351000Y-63416184D01*
X43351000Y-63583816D01*
X43318297Y-63748228D01*
X43254147Y-63903100D01*
X43161015Y-64042481D01*
X43042481Y-64161015D01*
X42903100Y-64254147D01*
X42748228Y-64318297D01*
X42583816Y-64351000D01*
X42416184Y-64351000D01*
X42251772Y-64318297D01*
X42096900Y-64254147D01*
X41957519Y-64161015D01*
X41838985Y-64042481D01*
X41745853Y-63903100D01*
X41681703Y-63748228D01*
X41649000Y-63583816D01*
X41649000Y-63416184D01*
X41681703Y-63251772D01*
X41745853Y-63096900D01*
X41838985Y-62957519D01*
X41957519Y-62838985D01*
X42096900Y-62745853D01*
X42251772Y-62681703D01*
X42416184Y-62649000D01*
X42583816Y-62649000D01*
X42748228Y-62681703D01*
X42748228Y-62681703D01*
G37*
G36*
X52826821Y-62661313D02*
X52826824Y-62661314D01*
X52826825Y-62661314D01*
X52987239Y-62709975D01*
X52987241Y-62709976D01*
X52987244Y-62709977D01*
X53135078Y-62788995D01*
X53264659Y-62895341D01*
X53371005Y-63024922D01*
X53450023Y-63172756D01*
X53450024Y-63172759D01*
X53450025Y-63172761D01*
X53493586Y-63316363D01*
X53498687Y-63333179D01*
X53515117Y-63500000D01*
X53498687Y-63666821D01*
X53498686Y-63666824D01*
X53498686Y-63666825D01*
X53473993Y-63748228D01*
X53450023Y-63827244D01*
X53371005Y-63975078D01*
X53264659Y-64104659D01*
X53135078Y-64211005D01*
X52987244Y-64290023D01*
X52987241Y-64290024D01*
X52987239Y-64290025D01*
X52826825Y-64338686D01*
X52826824Y-64338686D01*
X52826821Y-64338687D01*
X52701804Y-64351000D01*
X52618196Y-64351000D01*
X52493179Y-64338687D01*
X52493176Y-64338686D01*
X52493175Y-64338686D01*
X52332761Y-64290025D01*
X52332759Y-64290024D01*
X52332756Y-64290023D01*
X52184922Y-64211005D01*
X52055341Y-64104659D01*
X51948995Y-63975078D01*
X51869977Y-63827244D01*
X51846008Y-63748228D01*
X51821314Y-63666825D01*
X51821314Y-63666824D01*
X51821313Y-63666821D01*
X51804883Y-63500000D01*
X51821313Y-63333179D01*
X51826414Y-63316363D01*
X51869975Y-63172761D01*
X51869976Y-63172759D01*
X51869977Y-63172756D01*
X51948995Y-63024922D01*
X52055341Y-62895341D01*
X52184922Y-62788995D01*
X52332756Y-62709977D01*
X52332759Y-62709976D01*
X52332761Y-62709975D01*
X52493175Y-62661314D01*
X52493176Y-62661314D01*
X52493179Y-62661313D01*
X52618196Y-62649000D01*
X52701804Y-62649000D01*
X52826821Y-62661313D01*
X52826821Y-62661313D01*
G37*
G36*
X36306565Y-61489389D02*
X36497834Y-61568615D01*
X36669976Y-61683637D01*
X36816363Y-61830024D01*
X36931385Y-62002166D01*
X37010611Y-62193435D01*
X37051000Y-62396484D01*
X37051000Y-62603516D01*
X37010611Y-62806565D01*
X36931385Y-62997834D01*
X36816363Y-63169976D01*
X36669976Y-63316363D01*
X36497834Y-63431385D01*
X36306565Y-63510611D01*
X36103516Y-63551000D01*
X35896484Y-63551000D01*
X35693435Y-63510611D01*
X35502166Y-63431385D01*
X35330024Y-63316363D01*
X35183637Y-63169976D01*
X35068615Y-62997834D01*
X34989389Y-62806565D01*
X34949000Y-62603516D01*
X34949000Y-62396484D01*
X34989389Y-62193435D01*
X35068615Y-62002166D01*
X35183637Y-61830024D01*
X35330024Y-61683637D01*
X35502166Y-61568615D01*
X35693435Y-61489389D01*
X35896484Y-61449000D01*
X36103516Y-61449000D01*
X36306565Y-61489389D01*
X36306565Y-61489389D01*
G37*
G36*
X21806565Y-61489389D02*
X21997834Y-61568615D01*
X22169976Y-61683637D01*
X22316363Y-61830024D01*
X22431385Y-62002166D01*
X22510611Y-62193435D01*
X22551000Y-62396484D01*
X22551000Y-62603516D01*
X22510611Y-62806565D01*
X22431385Y-62997834D01*
X22316363Y-63169976D01*
X22169976Y-63316363D01*
X21997834Y-63431385D01*
X21806565Y-63510611D01*
X21603516Y-63551000D01*
X21396484Y-63551000D01*
X21193435Y-63510611D01*
X21002166Y-63431385D01*
X20830024Y-63316363D01*
X20683637Y-63169976D01*
X20568615Y-62997834D01*
X20489389Y-62806565D01*
X20449000Y-62603516D01*
X20449000Y-62396484D01*
X20489389Y-62193435D01*
X20568615Y-62002166D01*
X20683637Y-61830024D01*
X20830024Y-61683637D01*
X21002166Y-61568615D01*
X21193435Y-61489389D01*
X21396484Y-61449000D01*
X21603516Y-61449000D01*
X21806565Y-61489389D01*
X21806565Y-61489389D01*
G37*
G36*
X21806565Y-58989389D02*
X21997834Y-59068615D01*
X22169976Y-59183637D01*
X22316363Y-59330024D01*
X22431385Y-59502166D01*
X22510611Y-59693435D01*
X22551000Y-59896484D01*
X22551000Y-60103516D01*
X22510611Y-60306565D01*
X22431385Y-60497834D01*
X22316363Y-60669976D01*
X22169976Y-60816363D01*
X21997834Y-60931385D01*
X21806565Y-61010611D01*
X21603516Y-61051000D01*
X21396484Y-61051000D01*
X21193435Y-61010611D01*
X21002166Y-60931385D01*
X20830024Y-60816363D01*
X20683637Y-60669976D01*
X20568615Y-60497834D01*
X20489389Y-60306565D01*
X20449000Y-60103516D01*
X20449000Y-59896484D01*
X20489389Y-59693435D01*
X20568615Y-59502166D01*
X20683637Y-59330024D01*
X20830024Y-59183637D01*
X21002166Y-59068615D01*
X21193435Y-58989389D01*
X21396484Y-58949000D01*
X21603516Y-58949000D01*
X21806565Y-58989389D01*
X21806565Y-58989389D01*
G37*
G36*
X52610443Y-58665519D02*
X52676627Y-58672037D01*
X52789853Y-58706384D01*
X52846467Y-58723557D01*
X52985087Y-58797652D01*
X53002991Y-58807222D01*
X53038729Y-58836552D01*
X53140186Y-58919814D01*
X53223448Y-59021271D01*
X53252778Y-59057009D01*
X53252779Y-59057011D01*
X53336443Y-59213533D01*
X53336443Y-59213534D01*
X53387963Y-59383373D01*
X53405359Y-59560000D01*
X53387963Y-59736627D01*
X53353616Y-59849853D01*
X53336443Y-59906467D01*
X53262348Y-60045087D01*
X53252778Y-60062991D01*
X53223448Y-60098729D01*
X53140186Y-60200186D01*
X53038729Y-60283448D01*
X53002991Y-60312778D01*
X53002989Y-60312779D01*
X52846467Y-60396443D01*
X52789853Y-60413616D01*
X52676627Y-60447963D01*
X52610442Y-60454482D01*
X52544260Y-60461000D01*
X52455740Y-60461000D01*
X52389558Y-60454482D01*
X52323373Y-60447963D01*
X52210147Y-60413616D01*
X52153533Y-60396443D01*
X51997011Y-60312779D01*
X51997009Y-60312778D01*
X51961271Y-60283448D01*
X51859814Y-60200186D01*
X51776552Y-60098729D01*
X51747222Y-60062991D01*
X51737652Y-60045087D01*
X51663557Y-59906467D01*
X51646384Y-59849853D01*
X51612037Y-59736627D01*
X51594641Y-59560000D01*
X51612037Y-59383373D01*
X51663557Y-59213534D01*
X51663557Y-59213533D01*
X51747221Y-59057011D01*
X51747222Y-59057009D01*
X51776552Y-59021271D01*
X51859814Y-58919814D01*
X51961271Y-58836552D01*
X51997009Y-58807222D01*
X52014913Y-58797652D01*
X52153533Y-58723557D01*
X52210147Y-58706384D01*
X52323373Y-58672037D01*
X52389557Y-58665519D01*
X52455740Y-58659000D01*
X52544260Y-58659000D01*
X52610443Y-58665519D01*
X52610443Y-58665519D01*
G37*
G36*
X22551000Y-58551000D02*
X20449000Y-58551000D01*
X20449000Y-56449000D01*
X22551000Y-56449000D01*
X22551000Y-58551000D01*
X22551000Y-58551000D01*
G37*
G36*
X36306565Y-56489389D02*
X36497834Y-56568615D01*
X36669976Y-56683637D01*
X36816363Y-56830024D01*
X36931385Y-57002166D01*
X37010611Y-57193435D01*
X37051000Y-57396484D01*
X37051000Y-57603516D01*
X37010611Y-57806565D01*
X36931385Y-57997834D01*
X36816363Y-58169976D01*
X36669976Y-58316363D01*
X36497834Y-58431385D01*
X36306565Y-58510611D01*
X36103516Y-58551000D01*
X35896484Y-58551000D01*
X35693435Y-58510611D01*
X35502166Y-58431385D01*
X35330024Y-58316363D01*
X35183637Y-58169976D01*
X35068615Y-57997834D01*
X34989389Y-57806565D01*
X34949000Y-57603516D01*
X34949000Y-57396484D01*
X34989389Y-57193435D01*
X35068615Y-57002166D01*
X35183637Y-56830024D01*
X35330024Y-56683637D01*
X35502166Y-56568615D01*
X35693435Y-56489389D01*
X35896484Y-56449000D01*
X36103516Y-56449000D01*
X36306565Y-56489389D01*
X36306565Y-56489389D01*
G37*
G36*
X52610442Y-56125518D02*
X52676627Y-56132037D01*
X52789853Y-56166384D01*
X52846467Y-56183557D01*
X52985087Y-56257652D01*
X53002991Y-56267222D01*
X53038729Y-56296552D01*
X53140186Y-56379814D01*
X53223448Y-56481271D01*
X53252778Y-56517009D01*
X53252779Y-56517011D01*
X53336443Y-56673533D01*
X53353616Y-56730147D01*
X53387963Y-56843373D01*
X53405359Y-57020000D01*
X53387963Y-57196627D01*
X53353616Y-57309853D01*
X53336443Y-57366467D01*
X53320398Y-57396484D01*
X53252778Y-57522991D01*
X53223448Y-57558729D01*
X53140186Y-57660186D01*
X53038729Y-57743448D01*
X53002991Y-57772778D01*
X53002989Y-57772779D01*
X52846467Y-57856443D01*
X52789853Y-57873616D01*
X52676627Y-57907963D01*
X52610442Y-57914482D01*
X52544260Y-57921000D01*
X52455740Y-57921000D01*
X52389558Y-57914482D01*
X52323373Y-57907963D01*
X52210147Y-57873616D01*
X52153533Y-57856443D01*
X51997011Y-57772779D01*
X51997009Y-57772778D01*
X51961271Y-57743448D01*
X51859814Y-57660186D01*
X51776552Y-57558729D01*
X51747222Y-57522991D01*
X51679602Y-57396484D01*
X51663557Y-57366467D01*
X51646384Y-57309853D01*
X51612037Y-57196627D01*
X51594641Y-57020000D01*
X51612037Y-56843373D01*
X51646384Y-56730147D01*
X51663557Y-56673533D01*
X51747221Y-56517011D01*
X51747222Y-56517009D01*
X51776552Y-56481271D01*
X51859814Y-56379814D01*
X51961271Y-56296552D01*
X51997009Y-56267222D01*
X52014913Y-56257652D01*
X52153533Y-56183557D01*
X52210147Y-56166384D01*
X52323373Y-56132037D01*
X52389558Y-56125518D01*
X52455740Y-56119000D01*
X52544260Y-56119000D01*
X52610442Y-56125518D01*
X52610442Y-56125518D01*
G37*
G36*
X44352527Y-53688736D02*
X44452410Y-53708604D01*
X44734674Y-53825521D01*
X44988705Y-53995259D01*
X45204741Y-54211295D01*
X45374479Y-54465326D01*
X45491396Y-54747590D01*
X45551000Y-55047240D01*
X45551000Y-55352760D01*
X45491396Y-55652410D01*
X45374479Y-55934674D01*
X45204741Y-56188705D01*
X44988705Y-56404741D01*
X44734674Y-56574479D01*
X44452410Y-56691396D01*
X44352527Y-56711264D01*
X44152762Y-56751000D01*
X43847238Y-56751000D01*
X43647473Y-56711264D01*
X43547590Y-56691396D01*
X43265326Y-56574479D01*
X43011295Y-56404741D01*
X42795259Y-56188705D01*
X42625521Y-55934674D01*
X42508604Y-55652410D01*
X42449000Y-55352760D01*
X42449000Y-55047240D01*
X42508604Y-54747590D01*
X42625521Y-54465326D01*
X42795259Y-54211295D01*
X43011295Y-53995259D01*
X43265326Y-53825521D01*
X43547590Y-53708604D01*
X43647473Y-53688736D01*
X43847238Y-53649000D01*
X44152762Y-53649000D01*
X44352527Y-53688736D01*
X44352527Y-53688736D01*
G37*
G36*
X29375256Y-52791298D02*
X29481579Y-52812447D01*
X29782042Y-52936903D01*
X30048852Y-53115180D01*
X30052454Y-53117587D01*
X30282413Y-53347546D01*
X30463098Y-53617960D01*
X30475955Y-53649000D01*
X30549073Y-53825521D01*
X30587553Y-53918422D01*
X30645810Y-54211295D01*
X30651000Y-54237391D01*
X30651000Y-54562609D01*
X30587553Y-54881579D01*
X30463097Y-55182042D01*
X30349025Y-55352762D01*
X30282413Y-55452454D01*
X30052454Y-55682413D01*
X30052451Y-55682415D01*
X29782042Y-55863097D01*
X29481579Y-55987553D01*
X29375256Y-56008702D01*
X29162611Y-56051000D01*
X28837389Y-56051000D01*
X28624744Y-56008702D01*
X28518421Y-55987553D01*
X28217958Y-55863097D01*
X27947549Y-55682415D01*
X27947546Y-55682413D01*
X27717587Y-55452454D01*
X27650975Y-55352762D01*
X27536903Y-55182042D01*
X27412447Y-54881579D01*
X27349000Y-54562609D01*
X27349000Y-54237391D01*
X27354191Y-54211295D01*
X27412447Y-53918422D01*
X27450928Y-53825521D01*
X27524045Y-53649000D01*
X27536902Y-53617960D01*
X27717587Y-53347546D01*
X27947546Y-53117587D01*
X27951148Y-53115180D01*
X28217958Y-52936903D01*
X28518421Y-52812447D01*
X28624744Y-52791298D01*
X28837389Y-52749000D01*
X29162611Y-52749000D01*
X29375256Y-52791298D01*
X29375256Y-52791298D01*
G37*
G36*
X52610442Y-53585518D02*
X52676627Y-53592037D01*
X52789853Y-53626384D01*
X52846467Y-53643557D01*
X52985087Y-53717652D01*
X53002991Y-53727222D01*
X53038729Y-53756552D01*
X53140186Y-53839814D01*
X53204696Y-53918421D01*
X53252778Y-53977009D01*
X53252779Y-53977011D01*
X53336443Y-54133533D01*
X53336443Y-54133534D01*
X53387963Y-54303373D01*
X53405359Y-54480000D01*
X53387963Y-54656627D01*
X53360370Y-54747590D01*
X53336443Y-54826467D01*
X53262348Y-54965087D01*
X53252778Y-54982991D01*
X53223448Y-55018729D01*
X53140186Y-55120186D01*
X53064813Y-55182042D01*
X53002991Y-55232778D01*
X53002989Y-55232779D01*
X52846467Y-55316443D01*
X52789853Y-55333616D01*
X52676627Y-55367963D01*
X52610443Y-55374481D01*
X52544260Y-55381000D01*
X52455740Y-55381000D01*
X52389557Y-55374481D01*
X52323373Y-55367963D01*
X52210147Y-55333616D01*
X52153533Y-55316443D01*
X51997011Y-55232779D01*
X51997009Y-55232778D01*
X51935187Y-55182042D01*
X51859814Y-55120186D01*
X51776552Y-55018729D01*
X51747222Y-54982991D01*
X51737652Y-54965087D01*
X51663557Y-54826467D01*
X51639630Y-54747590D01*
X51612037Y-54656627D01*
X51594641Y-54480000D01*
X51612037Y-54303373D01*
X51663557Y-54133534D01*
X51663557Y-54133533D01*
X51747221Y-53977011D01*
X51747222Y-53977009D01*
X51795304Y-53918421D01*
X51859814Y-53839814D01*
X51961271Y-53756552D01*
X51997009Y-53727222D01*
X52014913Y-53717652D01*
X52153533Y-53643557D01*
X52210147Y-53626384D01*
X52323373Y-53592037D01*
X52389558Y-53585518D01*
X52455740Y-53579000D01*
X52544260Y-53579000D01*
X52610442Y-53585518D01*
X52610442Y-53585518D01*
G37*
G36*
X52610443Y-51045519D02*
X52676627Y-51052037D01*
X52789853Y-51086384D01*
X52846467Y-51103557D01*
X52985087Y-51177652D01*
X53002991Y-51187222D01*
X53038729Y-51216552D01*
X53140186Y-51299814D01*
X53223448Y-51401271D01*
X53252778Y-51437009D01*
X53252779Y-51437011D01*
X53336443Y-51593533D01*
X53336443Y-51593534D01*
X53387963Y-51763373D01*
X53405359Y-51940000D01*
X53387963Y-52116627D01*
X53353616Y-52229853D01*
X53336443Y-52286467D01*
X53262348Y-52425087D01*
X53252778Y-52442991D01*
X53223448Y-52478729D01*
X53140186Y-52580186D01*
X53038729Y-52663448D01*
X53002991Y-52692778D01*
X53002989Y-52692779D01*
X52846467Y-52776443D01*
X52789853Y-52793616D01*
X52676627Y-52827963D01*
X52610443Y-52834481D01*
X52544260Y-52841000D01*
X52455740Y-52841000D01*
X52389558Y-52834482D01*
X52323373Y-52827963D01*
X52210147Y-52793616D01*
X52153533Y-52776443D01*
X51997011Y-52692779D01*
X51997009Y-52692778D01*
X51961271Y-52663448D01*
X51859814Y-52580186D01*
X51776552Y-52478729D01*
X51747222Y-52442991D01*
X51737652Y-52425087D01*
X51663557Y-52286467D01*
X51646384Y-52229853D01*
X51612037Y-52116627D01*
X51594641Y-51940000D01*
X51612037Y-51763373D01*
X51663557Y-51593534D01*
X51663557Y-51593533D01*
X51747221Y-51437011D01*
X51747222Y-51437009D01*
X51776552Y-51401271D01*
X51859814Y-51299814D01*
X51961271Y-51216552D01*
X51997009Y-51187222D01*
X52014913Y-51177652D01*
X52153533Y-51103557D01*
X52210147Y-51086384D01*
X52323373Y-51052037D01*
X52389558Y-51045518D01*
X52455740Y-51039000D01*
X52544260Y-51039000D01*
X52610443Y-51045519D01*
X52610443Y-51045519D01*
G37*
G36*
X44352527Y-48988736D02*
X44452410Y-49008604D01*
X44734674Y-49125521D01*
X44988705Y-49295259D01*
X45204741Y-49511295D01*
X45374479Y-49765326D01*
X45488329Y-50040186D01*
X45491396Y-50047591D01*
X45541803Y-50301000D01*
X45551000Y-50347240D01*
X45551000Y-50652760D01*
X45491396Y-50952410D01*
X45374479Y-51234674D01*
X45204741Y-51488705D01*
X44988705Y-51704741D01*
X44734674Y-51874479D01*
X44452410Y-51991396D01*
X44352527Y-52011264D01*
X44152762Y-52051000D01*
X43847238Y-52051000D01*
X43647473Y-52011264D01*
X43547590Y-51991396D01*
X43265326Y-51874479D01*
X43011295Y-51704741D01*
X42795259Y-51488705D01*
X42625521Y-51234674D01*
X42508604Y-50952410D01*
X42449000Y-50652760D01*
X42449000Y-50347240D01*
X42458198Y-50301000D01*
X42508604Y-50047591D01*
X42511671Y-50040186D01*
X42625521Y-49765326D01*
X42795259Y-49511295D01*
X43011295Y-49295259D01*
X43265326Y-49125521D01*
X43547590Y-49008604D01*
X43647473Y-48988736D01*
X43847238Y-48949000D01*
X44152762Y-48949000D01*
X44352527Y-48988736D01*
X44352527Y-48988736D01*
G37*
G36*
X52610442Y-48505518D02*
X52676627Y-48512037D01*
X52789853Y-48546384D01*
X52846467Y-48563557D01*
X52985087Y-48637652D01*
X53002991Y-48647222D01*
X53038729Y-48676552D01*
X53140186Y-48759814D01*
X53223448Y-48861271D01*
X53252778Y-48897009D01*
X53252779Y-48897011D01*
X53336443Y-49053533D01*
X53336443Y-49053534D01*
X53387963Y-49223373D01*
X53405359Y-49400000D01*
X53387963Y-49576627D01*
X53378984Y-49606227D01*
X53336443Y-49746467D01*
X53326361Y-49765328D01*
X53252778Y-49902991D01*
X53243371Y-49914453D01*
X53140186Y-50040186D01*
X53038729Y-50123448D01*
X53002991Y-50152778D01*
X53002989Y-50152779D01*
X52846467Y-50236443D01*
X52789853Y-50253616D01*
X52676627Y-50287963D01*
X52610442Y-50294482D01*
X52544260Y-50301000D01*
X52455740Y-50301000D01*
X52389558Y-50294482D01*
X52323373Y-50287963D01*
X52210147Y-50253616D01*
X52153533Y-50236443D01*
X51997011Y-50152779D01*
X51997009Y-50152778D01*
X51961271Y-50123448D01*
X51859814Y-50040186D01*
X51756629Y-49914453D01*
X51747222Y-49902991D01*
X51673639Y-49765328D01*
X51663557Y-49746467D01*
X51621016Y-49606227D01*
X51612037Y-49576627D01*
X51594641Y-49400000D01*
X51612037Y-49223373D01*
X51663557Y-49053534D01*
X51663557Y-49053533D01*
X51747221Y-48897011D01*
X51747222Y-48897009D01*
X51776552Y-48861271D01*
X51859814Y-48759814D01*
X51961271Y-48676552D01*
X51997009Y-48647222D01*
X52014913Y-48637652D01*
X52153533Y-48563557D01*
X52210147Y-48546384D01*
X52323373Y-48512037D01*
X52389558Y-48505518D01*
X52455740Y-48499000D01*
X52544260Y-48499000D01*
X52610442Y-48505518D01*
X52610442Y-48505518D01*
G37*
G36*
X18451000Y-49951000D02*
X16549000Y-49951000D01*
X16549000Y-48049000D01*
X18451000Y-48049000D01*
X18451000Y-49951000D01*
X18451000Y-49951000D01*
G37*
G36*
X20317396Y-48085546D02*
X20490466Y-48157234D01*
X20646230Y-48261312D01*
X20778688Y-48393770D01*
X20882766Y-48549534D01*
X20954454Y-48722604D01*
X20991000Y-48906333D01*
X20991000Y-49093667D01*
X20954454Y-49277396D01*
X20882766Y-49450466D01*
X20778688Y-49606230D01*
X20646230Y-49738688D01*
X20490466Y-49842766D01*
X20317396Y-49914454D01*
X20133667Y-49951000D01*
X19946333Y-49951000D01*
X19762604Y-49914454D01*
X19589534Y-49842766D01*
X19433770Y-49738688D01*
X19301312Y-49606230D01*
X19197234Y-49450466D01*
X19125546Y-49277396D01*
X19089000Y-49093667D01*
X19089000Y-48906333D01*
X19125546Y-48722604D01*
X19197234Y-48549534D01*
X19301312Y-48393770D01*
X19433770Y-48261312D01*
X19589534Y-48157234D01*
X19762604Y-48085546D01*
X19946333Y-48049000D01*
X20133667Y-48049000D01*
X20317396Y-48085546D01*
X20317396Y-48085546D01*
G37*
G36*
X52610443Y-45965519D02*
X52676627Y-45972037D01*
X52789853Y-46006384D01*
X52846467Y-46023557D01*
X52985087Y-46097652D01*
X53002991Y-46107222D01*
X53038729Y-46136552D01*
X53140186Y-46219814D01*
X53204214Y-46297834D01*
X53252778Y-46357009D01*
X53252779Y-46357011D01*
X53336443Y-46513533D01*
X53336443Y-46513534D01*
X53387963Y-46683373D01*
X53405359Y-46860000D01*
X53387963Y-47036627D01*
X53353616Y-47149853D01*
X53336443Y-47206467D01*
X53291047Y-47291396D01*
X53252778Y-47362991D01*
X53223448Y-47398729D01*
X53140186Y-47500186D01*
X53038729Y-47583448D01*
X53002991Y-47612778D01*
X53002989Y-47612779D01*
X52846467Y-47696443D01*
X52789853Y-47713616D01*
X52676627Y-47747963D01*
X52610442Y-47754482D01*
X52544260Y-47761000D01*
X52455740Y-47761000D01*
X52389557Y-47754481D01*
X52323373Y-47747963D01*
X52210147Y-47713616D01*
X52153533Y-47696443D01*
X51997011Y-47612779D01*
X51997009Y-47612778D01*
X51961271Y-47583448D01*
X51859814Y-47500186D01*
X51776552Y-47398729D01*
X51747222Y-47362991D01*
X51708953Y-47291396D01*
X51663557Y-47206467D01*
X51646384Y-47149853D01*
X51612037Y-47036627D01*
X51594641Y-46860000D01*
X51612037Y-46683373D01*
X51663557Y-46513534D01*
X51663557Y-46513533D01*
X51747221Y-46357011D01*
X51747222Y-46357009D01*
X51795786Y-46297834D01*
X51859814Y-46219814D01*
X51961271Y-46136552D01*
X51997009Y-46107222D01*
X52014913Y-46097652D01*
X52153533Y-46023557D01*
X52210147Y-46006384D01*
X52323373Y-45972037D01*
X52389557Y-45965519D01*
X52455740Y-45959000D01*
X52544260Y-45959000D01*
X52610443Y-45965519D01*
X52610443Y-45965519D01*
G37*
G36*
X44352527Y-44288736D02*
X44452410Y-44308604D01*
X44734674Y-44425521D01*
X44988705Y-44595259D01*
X45204741Y-44811295D01*
X45374479Y-45065326D01*
X45491396Y-45347590D01*
X45551000Y-45647240D01*
X45551000Y-45952760D01*
X45491396Y-46252410D01*
X45374479Y-46534674D01*
X45204741Y-46788705D01*
X44988705Y-47004741D01*
X44734674Y-47174479D01*
X44452410Y-47291396D01*
X44352527Y-47311264D01*
X44152762Y-47351000D01*
X43847238Y-47351000D01*
X43647473Y-47311264D01*
X43547590Y-47291396D01*
X43265326Y-47174479D01*
X43011295Y-47004741D01*
X42795259Y-46788705D01*
X42625521Y-46534674D01*
X42508604Y-46252410D01*
X42449000Y-45952760D01*
X42449000Y-45647240D01*
X42508604Y-45347590D01*
X42625521Y-45065326D01*
X42795259Y-44811295D01*
X43011295Y-44595259D01*
X43265326Y-44425521D01*
X43547590Y-44308604D01*
X43647473Y-44288736D01*
X43847238Y-44249000D01*
X44152762Y-44249000D01*
X44352527Y-44288736D01*
X44352527Y-44288736D01*
G37*
G36*
X29306565Y-44789389D02*
X29497834Y-44868615D01*
X29669976Y-44983637D01*
X29816363Y-45130024D01*
X29931385Y-45302166D01*
X30010611Y-45493435D01*
X30051000Y-45696484D01*
X30051000Y-45903516D01*
X30010611Y-46106565D01*
X29931385Y-46297834D01*
X29816363Y-46469976D01*
X29669976Y-46616363D01*
X29497834Y-46731385D01*
X29306565Y-46810611D01*
X29103516Y-46851000D01*
X28896484Y-46851000D01*
X28693435Y-46810611D01*
X28502166Y-46731385D01*
X28330024Y-46616363D01*
X28183637Y-46469976D01*
X28068615Y-46297834D01*
X27989389Y-46106565D01*
X27949000Y-45903516D01*
X27949000Y-45696484D01*
X27989389Y-45493435D01*
X28068615Y-45302166D01*
X28183637Y-45130024D01*
X28330024Y-44983637D01*
X28502166Y-44868615D01*
X28693435Y-44789389D01*
X28896484Y-44749000D01*
X29103516Y-44749000D01*
X29306565Y-44789389D01*
X29306565Y-44789389D01*
G37*
G36*
X52610442Y-43425518D02*
X52676627Y-43432037D01*
X52760630Y-43457519D01*
X52846467Y-43483557D01*
X52985087Y-43557652D01*
X53002991Y-43567222D01*
X53038729Y-43596552D01*
X53140186Y-43679814D01*
X53223448Y-43781271D01*
X53252778Y-43817009D01*
X53252779Y-43817011D01*
X53336443Y-43973533D01*
X53336443Y-43973534D01*
X53387963Y-44143373D01*
X53405359Y-44320000D01*
X53387963Y-44496627D01*
X53374053Y-44542481D01*
X53336443Y-44666467D01*
X53289577Y-44754146D01*
X53252778Y-44822991D01*
X53229791Y-44851000D01*
X53140186Y-44960186D01*
X53038729Y-45043448D01*
X53002991Y-45072778D01*
X53002989Y-45072779D01*
X52846467Y-45156443D01*
X52789853Y-45173616D01*
X52676627Y-45207963D01*
X52610442Y-45214482D01*
X52544260Y-45221000D01*
X52455740Y-45221000D01*
X52389558Y-45214482D01*
X52323373Y-45207963D01*
X52210147Y-45173616D01*
X52153533Y-45156443D01*
X51997011Y-45072779D01*
X51997009Y-45072778D01*
X51961271Y-45043448D01*
X51859814Y-44960186D01*
X51770209Y-44851000D01*
X51747222Y-44822991D01*
X51710423Y-44754146D01*
X51663557Y-44666467D01*
X51625947Y-44542481D01*
X51612037Y-44496627D01*
X51594641Y-44320000D01*
X51612037Y-44143373D01*
X51663557Y-43973534D01*
X51663557Y-43973533D01*
X51747221Y-43817011D01*
X51747222Y-43817009D01*
X51776552Y-43781271D01*
X51859814Y-43679814D01*
X51961271Y-43596552D01*
X51997009Y-43567222D01*
X52014913Y-43557652D01*
X52153533Y-43483557D01*
X52239370Y-43457519D01*
X52323373Y-43432037D01*
X52389558Y-43425518D01*
X52455740Y-43419000D01*
X52544260Y-43419000D01*
X52610442Y-43425518D01*
X52610442Y-43425518D01*
G37*
G36*
X18248228Y-43181703D02*
X18403100Y-43245853D01*
X18542481Y-43338985D01*
X18661015Y-43457519D01*
X18754147Y-43596900D01*
X18818297Y-43751772D01*
X18851000Y-43916184D01*
X18851000Y-44083816D01*
X18818297Y-44248228D01*
X18754147Y-44403100D01*
X18661015Y-44542481D01*
X18542481Y-44661015D01*
X18403100Y-44754147D01*
X18248228Y-44818297D01*
X18083816Y-44851000D01*
X17916184Y-44851000D01*
X17751772Y-44818297D01*
X17596900Y-44754147D01*
X17457519Y-44661015D01*
X17338985Y-44542481D01*
X17245853Y-44403100D01*
X17181703Y-44248228D01*
X17149000Y-44083816D01*
X17149000Y-43916184D01*
X17181703Y-43751772D01*
X17245853Y-43596900D01*
X17338985Y-43457519D01*
X17457519Y-43338985D01*
X17596900Y-43245853D01*
X17751772Y-43181703D01*
X17916184Y-43149000D01*
X18083816Y-43149000D01*
X18248228Y-43181703D01*
X18248228Y-43181703D01*
G37*
G36*
X21704472Y-42825938D02*
X21832049Y-42878782D01*
X21946865Y-42955500D01*
X22044500Y-43053135D01*
X22121218Y-43167951D01*
X22174062Y-43295528D01*
X22201000Y-43430956D01*
X22201000Y-43569044D01*
X22174062Y-43704472D01*
X22121218Y-43832049D01*
X22044500Y-43946865D01*
X21946865Y-44044500D01*
X21832049Y-44121218D01*
X21704472Y-44174062D01*
X21569044Y-44201000D01*
X21430956Y-44201000D01*
X21295528Y-44174062D01*
X21167951Y-44121218D01*
X21053135Y-44044500D01*
X20955500Y-43946865D01*
X20878782Y-43832049D01*
X20825938Y-43704472D01*
X20799000Y-43569044D01*
X20799000Y-43430956D01*
X20825938Y-43295528D01*
X20878782Y-43167951D01*
X20955500Y-43053135D01*
X21053135Y-42955500D01*
X21167951Y-42878782D01*
X21295528Y-42825938D01*
X21430956Y-42799000D01*
X21569044Y-42799000D01*
X21704472Y-42825938D01*
X21704472Y-42825938D01*
G37*
G36*
X52610442Y-40885518D02*
X52676627Y-40892037D01*
X52789853Y-40926384D01*
X52846467Y-40943557D01*
X52985087Y-41017652D01*
X53002991Y-41027222D01*
X53038729Y-41056552D01*
X53140186Y-41139814D01*
X53193250Y-41204474D01*
X53252778Y-41277009D01*
X53252779Y-41277011D01*
X53336443Y-41433533D01*
X53336443Y-41433534D01*
X53387963Y-41603373D01*
X53405359Y-41780000D01*
X53387963Y-41956627D01*
X53353616Y-42069853D01*
X53336443Y-42126467D01*
X53262348Y-42265087D01*
X53252778Y-42282991D01*
X53223448Y-42318729D01*
X53140186Y-42420186D01*
X53038729Y-42503448D01*
X53002991Y-42532778D01*
X53002989Y-42532779D01*
X52846467Y-42616443D01*
X52789853Y-42633616D01*
X52676627Y-42667963D01*
X52610443Y-42674481D01*
X52544260Y-42681000D01*
X52455740Y-42681000D01*
X52389557Y-42674481D01*
X52323373Y-42667963D01*
X52210147Y-42633616D01*
X52153533Y-42616443D01*
X51997011Y-42532779D01*
X51997009Y-42532778D01*
X51961271Y-42503448D01*
X51859814Y-42420186D01*
X51776552Y-42318729D01*
X51747222Y-42282991D01*
X51737652Y-42265087D01*
X51663557Y-42126467D01*
X51646384Y-42069853D01*
X51612037Y-41956627D01*
X51594641Y-41780000D01*
X51612037Y-41603373D01*
X51663557Y-41433534D01*
X51663557Y-41433533D01*
X51747221Y-41277011D01*
X51747222Y-41277009D01*
X51806750Y-41204474D01*
X51859814Y-41139814D01*
X51961271Y-41056552D01*
X51997009Y-41027222D01*
X52014913Y-41017652D01*
X52153533Y-40943557D01*
X52210147Y-40926384D01*
X52323373Y-40892037D01*
X52389558Y-40885518D01*
X52455740Y-40879000D01*
X52544260Y-40879000D01*
X52610442Y-40885518D01*
X52610442Y-40885518D01*
G37*
G36*
X21704472Y-40325938D02*
X21832049Y-40378782D01*
X21946865Y-40455500D01*
X22044500Y-40553135D01*
X22121218Y-40667951D01*
X22174062Y-40795528D01*
X22201000Y-40930956D01*
X22201000Y-41069044D01*
X22174062Y-41204472D01*
X22121218Y-41332049D01*
X22044500Y-41446865D01*
X21946865Y-41544500D01*
X21832049Y-41621218D01*
X21704472Y-41674062D01*
X21569044Y-41701000D01*
X21430956Y-41701000D01*
X21295528Y-41674062D01*
X21167951Y-41621218D01*
X21053135Y-41544500D01*
X20955500Y-41446865D01*
X20878782Y-41332049D01*
X20825938Y-41204472D01*
X20799000Y-41069044D01*
X20799000Y-40930956D01*
X20825938Y-40795528D01*
X20878782Y-40667951D01*
X20955500Y-40553135D01*
X21053135Y-40455500D01*
X21167951Y-40378782D01*
X21295528Y-40325938D01*
X21430956Y-40299000D01*
X21569044Y-40299000D01*
X21704472Y-40325938D01*
X21704472Y-40325938D01*
G37*
G36*
X52610442Y-38345518D02*
X52676627Y-38352037D01*
X52789853Y-38386384D01*
X52846467Y-38403557D01*
X52985087Y-38477652D01*
X53002991Y-38487222D01*
X53038729Y-38516552D01*
X53140186Y-38599814D01*
X53223448Y-38701271D01*
X53252778Y-38737009D01*
X53252779Y-38737011D01*
X53336443Y-38893533D01*
X53336443Y-38893534D01*
X53387963Y-39063373D01*
X53405359Y-39240000D01*
X53387963Y-39416627D01*
X53353616Y-39529853D01*
X53336443Y-39586467D01*
X53262348Y-39725087D01*
X53252778Y-39742991D01*
X53223448Y-39778729D01*
X53140186Y-39880186D01*
X53038729Y-39963448D01*
X53002991Y-39992778D01*
X53002989Y-39992779D01*
X52846467Y-40076443D01*
X52789853Y-40093616D01*
X52676627Y-40127963D01*
X52610442Y-40134482D01*
X52544260Y-40141000D01*
X52455740Y-40141000D01*
X52389558Y-40134482D01*
X52323373Y-40127963D01*
X52210147Y-40093616D01*
X52153533Y-40076443D01*
X51997011Y-39992779D01*
X51997009Y-39992778D01*
X51961271Y-39963448D01*
X51859814Y-39880186D01*
X51776552Y-39778729D01*
X51747222Y-39742991D01*
X51737652Y-39725087D01*
X51663557Y-39586467D01*
X51646384Y-39529853D01*
X51612037Y-39416627D01*
X51594641Y-39240000D01*
X51612037Y-39063373D01*
X51663557Y-38893534D01*
X51663557Y-38893533D01*
X51747221Y-38737011D01*
X51747222Y-38737009D01*
X51776552Y-38701271D01*
X51859814Y-38599814D01*
X51961271Y-38516552D01*
X51997009Y-38487222D01*
X52014913Y-38477652D01*
X52153533Y-38403557D01*
X52210147Y-38386384D01*
X52323373Y-38352037D01*
X52389558Y-38345518D01*
X52455740Y-38339000D01*
X52544260Y-38339000D01*
X52610442Y-38345518D01*
X52610442Y-38345518D01*
G37*
G36*
X21704472Y-37825938D02*
X21832049Y-37878782D01*
X21946865Y-37955500D01*
X22044500Y-38053135D01*
X22121218Y-38167951D01*
X22174062Y-38295528D01*
X22201000Y-38430956D01*
X22201000Y-38569044D01*
X22174062Y-38704472D01*
X22121218Y-38832049D01*
X22044500Y-38946865D01*
X21946865Y-39044500D01*
X21832049Y-39121218D01*
X21704472Y-39174062D01*
X21569044Y-39201000D01*
X21430956Y-39201000D01*
X21295528Y-39174062D01*
X21167951Y-39121218D01*
X21053135Y-39044500D01*
X20955500Y-38946865D01*
X20878782Y-38832049D01*
X20825938Y-38704472D01*
X20799000Y-38569044D01*
X20799000Y-38430956D01*
X20825938Y-38295528D01*
X20878782Y-38167951D01*
X20955500Y-38053135D01*
X21053135Y-37955500D01*
X21167951Y-37878782D01*
X21295528Y-37825938D01*
X21430956Y-37799000D01*
X21569044Y-37799000D01*
X21704472Y-37825938D01*
X21704472Y-37825938D01*
G37*
G36*
X37748228Y-36181703D02*
X37903100Y-36245853D01*
X38042481Y-36338985D01*
X38161015Y-36457519D01*
X38254147Y-36596900D01*
X38318297Y-36751772D01*
X38351000Y-36916184D01*
X38351000Y-37083816D01*
X38318297Y-37248228D01*
X38254147Y-37403100D01*
X38161015Y-37542481D01*
X38042481Y-37661015D01*
X37903100Y-37754147D01*
X37748228Y-37818297D01*
X37583816Y-37851000D01*
X37416184Y-37851000D01*
X37251772Y-37818297D01*
X37096900Y-37754147D01*
X36957519Y-37661015D01*
X36838985Y-37542481D01*
X36745853Y-37403100D01*
X36681703Y-37248228D01*
X36649000Y-37083816D01*
X36649000Y-36916184D01*
X36681703Y-36751772D01*
X36745853Y-36596900D01*
X36838985Y-36457519D01*
X36957519Y-36338985D01*
X37096900Y-36245853D01*
X37251772Y-36181703D01*
X37416184Y-36149000D01*
X37583816Y-36149000D01*
X37748228Y-36181703D01*
X37748228Y-36181703D01*
G37*
G36*
X44302002Y-34678686D02*
X44452410Y-34708604D01*
X44734674Y-34825521D01*
X44988705Y-34995259D01*
X45204741Y-35211295D01*
X45374479Y-35465326D01*
X45491396Y-35747590D01*
X45491396Y-35747591D01*
X45551000Y-36047238D01*
X45551000Y-36352762D01*
X45550846Y-36353534D01*
X45491396Y-36652410D01*
X45374479Y-36934674D01*
X45204741Y-37188705D01*
X44988705Y-37404741D01*
X44734674Y-37574479D01*
X44452410Y-37691396D01*
X44352527Y-37711264D01*
X44152762Y-37751000D01*
X43847238Y-37751000D01*
X43647473Y-37711264D01*
X43547590Y-37691396D01*
X43265326Y-37574479D01*
X43011295Y-37404741D01*
X42795259Y-37188705D01*
X42625521Y-36934674D01*
X42508604Y-36652410D01*
X42449154Y-36353534D01*
X42449000Y-36352762D01*
X42449000Y-36047238D01*
X42508604Y-35747591D01*
X42508604Y-35747590D01*
X42625521Y-35465326D01*
X42795259Y-35211295D01*
X43011295Y-34995259D01*
X43265326Y-34825521D01*
X43547590Y-34708604D01*
X43697998Y-34678686D01*
X43847238Y-34649000D01*
X44152762Y-34649000D01*
X44302002Y-34678686D01*
X44302002Y-34678686D01*
G37*
G36*
X52610442Y-35805518D02*
X52676627Y-35812037D01*
X52789853Y-35846384D01*
X52846467Y-35863557D01*
X52985087Y-35937652D01*
X53002991Y-35947222D01*
X53038729Y-35976552D01*
X53140186Y-36059814D01*
X53213378Y-36149000D01*
X53252778Y-36197009D01*
X53252779Y-36197011D01*
X53336443Y-36353533D01*
X53336443Y-36353534D01*
X53387963Y-36523373D01*
X53405359Y-36700000D01*
X53387963Y-36876627D01*
X53353616Y-36989853D01*
X53336443Y-37046467D01*
X53262348Y-37185087D01*
X53252778Y-37202991D01*
X53246525Y-37210610D01*
X53140186Y-37340186D01*
X53061524Y-37404741D01*
X53002991Y-37452778D01*
X53002989Y-37452779D01*
X52846467Y-37536443D01*
X52789853Y-37553616D01*
X52676627Y-37587963D01*
X52610442Y-37594482D01*
X52544260Y-37601000D01*
X52455740Y-37601000D01*
X52389558Y-37594482D01*
X52323373Y-37587963D01*
X52210147Y-37553616D01*
X52153533Y-37536443D01*
X51997011Y-37452779D01*
X51997009Y-37452778D01*
X51938476Y-37404741D01*
X51859814Y-37340186D01*
X51753475Y-37210610D01*
X51747222Y-37202991D01*
X51737652Y-37185087D01*
X51663557Y-37046467D01*
X51646384Y-36989853D01*
X51612037Y-36876627D01*
X51594641Y-36700000D01*
X51612037Y-36523373D01*
X51663557Y-36353534D01*
X51663557Y-36353533D01*
X51747221Y-36197011D01*
X51747222Y-36197009D01*
X51786622Y-36149000D01*
X51859814Y-36059814D01*
X51961271Y-35976552D01*
X51997009Y-35947222D01*
X52014913Y-35937652D01*
X52153533Y-35863557D01*
X52210147Y-35846384D01*
X52323373Y-35812037D01*
X52389558Y-35805518D01*
X52455740Y-35799000D01*
X52544260Y-35799000D01*
X52610442Y-35805518D01*
X52610442Y-35805518D01*
G37*
G36*
X29306565Y-35189389D02*
X29497834Y-35268615D01*
X29669976Y-35383637D01*
X29816363Y-35530024D01*
X29931385Y-35702166D01*
X30010611Y-35893435D01*
X30051000Y-36096484D01*
X30051000Y-36303516D01*
X30010611Y-36506565D01*
X29931385Y-36697834D01*
X29816363Y-36869976D01*
X29669976Y-37016363D01*
X29497834Y-37131385D01*
X29306565Y-37210611D01*
X29103516Y-37251000D01*
X28896484Y-37251000D01*
X28693435Y-37210611D01*
X28502166Y-37131385D01*
X28330024Y-37016363D01*
X28183637Y-36869976D01*
X28068615Y-36697834D01*
X27989389Y-36506565D01*
X27949000Y-36303516D01*
X27949000Y-36096484D01*
X27989389Y-35893435D01*
X28068615Y-35702166D01*
X28183637Y-35530024D01*
X28330024Y-35383637D01*
X28502166Y-35268615D01*
X28693435Y-35189389D01*
X28896484Y-35149000D01*
X29103516Y-35149000D01*
X29306565Y-35189389D01*
X29306565Y-35189389D01*
G37*
G36*
X52610442Y-33265518D02*
X52676627Y-33272037D01*
X52789853Y-33306384D01*
X52846467Y-33323557D01*
X52923854Y-33364922D01*
X53002991Y-33407222D01*
X53038729Y-33436552D01*
X53140186Y-33519814D01*
X53223448Y-33621271D01*
X53252778Y-33657009D01*
X53252779Y-33657011D01*
X53336443Y-33813533D01*
X53353616Y-33870147D01*
X53387963Y-33983373D01*
X53405359Y-34160000D01*
X53387963Y-34336627D01*
X53355192Y-34444659D01*
X53336443Y-34506467D01*
X53270400Y-34630023D01*
X53252778Y-34662991D01*
X53229791Y-34691000D01*
X53140186Y-34800186D01*
X53038729Y-34883448D01*
X53002991Y-34912778D01*
X53002989Y-34912779D01*
X52846467Y-34996443D01*
X52789853Y-35013616D01*
X52676627Y-35047963D01*
X52610442Y-35054482D01*
X52544260Y-35061000D01*
X52455740Y-35061000D01*
X52389558Y-35054482D01*
X52323373Y-35047963D01*
X52210147Y-35013616D01*
X52153533Y-34996443D01*
X51997011Y-34912779D01*
X51997009Y-34912778D01*
X51961271Y-34883448D01*
X51859814Y-34800186D01*
X51770209Y-34691000D01*
X51747222Y-34662991D01*
X51729600Y-34630023D01*
X51663557Y-34506467D01*
X51644808Y-34444659D01*
X51612037Y-34336627D01*
X51594641Y-34160000D01*
X51612037Y-33983373D01*
X51646384Y-33870147D01*
X51663557Y-33813533D01*
X51747221Y-33657011D01*
X51747222Y-33657009D01*
X51776552Y-33621271D01*
X51859814Y-33519814D01*
X51961271Y-33436552D01*
X51997009Y-33407222D01*
X52076146Y-33364922D01*
X52153533Y-33323557D01*
X52210147Y-33306384D01*
X52323373Y-33272037D01*
X52389558Y-33265518D01*
X52455740Y-33259000D01*
X52544260Y-33259000D01*
X52610442Y-33265518D01*
X52610442Y-33265518D01*
G37*
G36*
X18166821Y-33001313D02*
X18166824Y-33001314D01*
X18166825Y-33001314D01*
X18327239Y-33049975D01*
X18327241Y-33049976D01*
X18327244Y-33049977D01*
X18475078Y-33128995D01*
X18604659Y-33235341D01*
X18711005Y-33364922D01*
X18790023Y-33512756D01*
X18790024Y-33512759D01*
X18790025Y-33512761D01*
X18838686Y-33673175D01*
X18838687Y-33673179D01*
X18855117Y-33840000D01*
X18838687Y-34006821D01*
X18838686Y-34006824D01*
X18838686Y-34006825D01*
X18792221Y-34160000D01*
X18790023Y-34167244D01*
X18711005Y-34315078D01*
X18604659Y-34444659D01*
X18475078Y-34551005D01*
X18327244Y-34630023D01*
X18327241Y-34630024D01*
X18327239Y-34630025D01*
X18166825Y-34678686D01*
X18166824Y-34678686D01*
X18166821Y-34678687D01*
X18041804Y-34691000D01*
X17958196Y-34691000D01*
X17833179Y-34678687D01*
X17833176Y-34678686D01*
X17833175Y-34678686D01*
X17672761Y-34630025D01*
X17672759Y-34630024D01*
X17672756Y-34630023D01*
X17524922Y-34551005D01*
X17395341Y-34444659D01*
X17288995Y-34315078D01*
X17209977Y-34167244D01*
X17207780Y-34160000D01*
X17161314Y-34006825D01*
X17161314Y-34006824D01*
X17161313Y-34006821D01*
X17144883Y-33840000D01*
X17161313Y-33673179D01*
X17161314Y-33673175D01*
X17209975Y-33512761D01*
X17209976Y-33512759D01*
X17209977Y-33512756D01*
X17288995Y-33364922D01*
X17395341Y-33235341D01*
X17524922Y-33128995D01*
X17672756Y-33049977D01*
X17672759Y-33049976D01*
X17672761Y-33049975D01*
X17833175Y-33001314D01*
X17833176Y-33001314D01*
X17833179Y-33001313D01*
X17958196Y-32989000D01*
X18041804Y-32989000D01*
X18166821Y-33001313D01*
X18166821Y-33001313D01*
G37*
G36*
X44313635Y-29981000D02*
X44452410Y-30008604D01*
X44734674Y-30125521D01*
X44988705Y-30295259D01*
X45204741Y-30511295D01*
X45374479Y-30765326D01*
X45491396Y-31047590D01*
X45551000Y-31347240D01*
X45551000Y-31652760D01*
X45491396Y-31952410D01*
X45374479Y-32234674D01*
X45204741Y-32488705D01*
X44988705Y-32704741D01*
X44734674Y-32874479D01*
X44452410Y-32991396D01*
X44352527Y-33011264D01*
X44152762Y-33051000D01*
X43847238Y-33051000D01*
X43647473Y-33011264D01*
X43547590Y-32991396D01*
X43265326Y-32874479D01*
X43011295Y-32704741D01*
X42795259Y-32488705D01*
X42625521Y-32234674D01*
X42508604Y-31952410D01*
X42449000Y-31652760D01*
X42449000Y-31347240D01*
X42508604Y-31047590D01*
X42625521Y-30765326D01*
X42795259Y-30511295D01*
X43011295Y-30295259D01*
X43265326Y-30125521D01*
X43547590Y-30008604D01*
X43686365Y-29981000D01*
X43847238Y-29949000D01*
X44152762Y-29949000D01*
X44313635Y-29981000D01*
X44313635Y-29981000D01*
G37*
G36*
X52610442Y-30725518D02*
X52676627Y-30732037D01*
X52786366Y-30765326D01*
X52846467Y-30783557D01*
X52972642Y-30851000D01*
X53002991Y-30867222D01*
X53038729Y-30896552D01*
X53140186Y-30979814D01*
X53195808Y-31047591D01*
X53252778Y-31117009D01*
X53252779Y-31117011D01*
X53336443Y-31273533D01*
X53336443Y-31273534D01*
X53387963Y-31443373D01*
X53405359Y-31620000D01*
X53387963Y-31796627D01*
X53353616Y-31909853D01*
X53336443Y-31966467D01*
X53262348Y-32105087D01*
X53252778Y-32122991D01*
X53223448Y-32158729D01*
X53140186Y-32260186D01*
X53038729Y-32343448D01*
X53002991Y-32372778D01*
X53002989Y-32372779D01*
X52846467Y-32456443D01*
X52789853Y-32473616D01*
X52676627Y-32507963D01*
X52610442Y-32514482D01*
X52544260Y-32521000D01*
X52455740Y-32521000D01*
X52389558Y-32514482D01*
X52323373Y-32507963D01*
X52210147Y-32473616D01*
X52153533Y-32456443D01*
X51997011Y-32372779D01*
X51997009Y-32372778D01*
X51961271Y-32343448D01*
X51859814Y-32260186D01*
X51776552Y-32158729D01*
X51747222Y-32122991D01*
X51737652Y-32105087D01*
X51663557Y-31966467D01*
X51646384Y-31909853D01*
X51612037Y-31796627D01*
X51594641Y-31620000D01*
X51612037Y-31443373D01*
X51663557Y-31273534D01*
X51663557Y-31273533D01*
X51747221Y-31117011D01*
X51747222Y-31117009D01*
X51804192Y-31047591D01*
X51859814Y-30979814D01*
X51961271Y-30896552D01*
X51997009Y-30867222D01*
X52027358Y-30851000D01*
X52153533Y-30783557D01*
X52213634Y-30765326D01*
X52323373Y-30732037D01*
X52389558Y-30725518D01*
X52455740Y-30719000D01*
X52544260Y-30719000D01*
X52610442Y-30725518D01*
X52610442Y-30725518D01*
G37*
G36*
X18451000Y-30951000D02*
X16549000Y-30951000D01*
X16549000Y-29049000D01*
X18451000Y-29049000D01*
X18451000Y-30951000D01*
X18451000Y-30951000D01*
G37*
G36*
X20317396Y-29085546D02*
X20490466Y-29157234D01*
X20646230Y-29261312D01*
X20778688Y-29393770D01*
X20882766Y-29549534D01*
X20954454Y-29722604D01*
X20991000Y-29906333D01*
X20991000Y-30093667D01*
X20954454Y-30277396D01*
X20882766Y-30450466D01*
X20778688Y-30606230D01*
X20646230Y-30738688D01*
X20490466Y-30842766D01*
X20317396Y-30914454D01*
X20133667Y-30951000D01*
X19946333Y-30951000D01*
X19762604Y-30914454D01*
X19589534Y-30842766D01*
X19433770Y-30738688D01*
X19301312Y-30606230D01*
X19197234Y-30450466D01*
X19125546Y-30277396D01*
X19089000Y-30093667D01*
X19089000Y-29906333D01*
X19125546Y-29722604D01*
X19197234Y-29549534D01*
X19301312Y-29393770D01*
X19433770Y-29261312D01*
X19589534Y-29157234D01*
X19762604Y-29085546D01*
X19946333Y-29049000D01*
X20133667Y-29049000D01*
X20317396Y-29085546D01*
X20317396Y-29085546D01*
G37*
G36*
X22748228Y-29181703D02*
X22903100Y-29245853D01*
X23042481Y-29338985D01*
X23161015Y-29457519D01*
X23254147Y-29596900D01*
X23318297Y-29751772D01*
X23351000Y-29916184D01*
X23351000Y-30083816D01*
X23318297Y-30248228D01*
X23254147Y-30403100D01*
X23161015Y-30542481D01*
X23042481Y-30661015D01*
X22903100Y-30754147D01*
X22748228Y-30818297D01*
X22583816Y-30851000D01*
X22416184Y-30851000D01*
X22251772Y-30818297D01*
X22096900Y-30754147D01*
X21957519Y-30661015D01*
X21838985Y-30542481D01*
X21745853Y-30403100D01*
X21681703Y-30248228D01*
X21649000Y-30083816D01*
X21649000Y-29916184D01*
X21681703Y-29751772D01*
X21745853Y-29596900D01*
X21838985Y-29457519D01*
X21957519Y-29338985D01*
X22096900Y-29245853D01*
X22251772Y-29181703D01*
X22416184Y-29149000D01*
X22583816Y-29149000D01*
X22748228Y-29181703D01*
X22748228Y-29181703D01*
G37*
G36*
X32826821Y-29161313D02*
X32826824Y-29161314D01*
X32826825Y-29161314D01*
X32987239Y-29209975D01*
X32987241Y-29209976D01*
X32987244Y-29209977D01*
X33135078Y-29288995D01*
X33264659Y-29395341D01*
X33371005Y-29524922D01*
X33450023Y-29672756D01*
X33450024Y-29672759D01*
X33450025Y-29672761D01*
X33498566Y-29832779D01*
X33498687Y-29833179D01*
X33515117Y-30000000D01*
X33498687Y-30166821D01*
X33498686Y-30166824D01*
X33498686Y-30166825D01*
X33465145Y-30277396D01*
X33450023Y-30327244D01*
X33371005Y-30475078D01*
X33264659Y-30604659D01*
X33135078Y-30711005D01*
X32987244Y-30790023D01*
X32987241Y-30790024D01*
X32987239Y-30790025D01*
X32826825Y-30838686D01*
X32826824Y-30838686D01*
X32826821Y-30838687D01*
X32701804Y-30851000D01*
X32618196Y-30851000D01*
X32493179Y-30838687D01*
X32493176Y-30838686D01*
X32493175Y-30838686D01*
X32332761Y-30790025D01*
X32332759Y-30790024D01*
X32332756Y-30790023D01*
X32184922Y-30711005D01*
X32055341Y-30604659D01*
X31948995Y-30475078D01*
X31869977Y-30327244D01*
X31854856Y-30277396D01*
X31821314Y-30166825D01*
X31821314Y-30166824D01*
X31821313Y-30166821D01*
X31804883Y-30000000D01*
X31821313Y-29833179D01*
X31821434Y-29832779D01*
X31869975Y-29672761D01*
X31869976Y-29672759D01*
X31869977Y-29672756D01*
X31948995Y-29524922D01*
X32055341Y-29395341D01*
X32184922Y-29288995D01*
X32332756Y-29209977D01*
X32332759Y-29209976D01*
X32332761Y-29209975D01*
X32493175Y-29161314D01*
X32493176Y-29161314D01*
X32493179Y-29161313D01*
X32618196Y-29149000D01*
X32701804Y-29149000D01*
X32826821Y-29161313D01*
X32826821Y-29161313D01*
G37*
G36*
X52610443Y-28185519D02*
X52676627Y-28192037D01*
X52789853Y-28226384D01*
X52846467Y-28243557D01*
X52935966Y-28291396D01*
X53002991Y-28327222D01*
X53031964Y-28351000D01*
X53140186Y-28439814D01*
X53223448Y-28541271D01*
X53252778Y-28577009D01*
X53252779Y-28577011D01*
X53336443Y-28733533D01*
X53336443Y-28733534D01*
X53387963Y-28903373D01*
X53405359Y-29080000D01*
X53387963Y-29256627D01*
X53378144Y-29288995D01*
X53336443Y-29426467D01*
X53319845Y-29457519D01*
X53252778Y-29582991D01*
X53241363Y-29596900D01*
X53140186Y-29720186D01*
X53038729Y-29803448D01*
X53002991Y-29832778D01*
X53002989Y-29832779D01*
X52846467Y-29916443D01*
X52789853Y-29933616D01*
X52676627Y-29967963D01*
X52610443Y-29974481D01*
X52544260Y-29981000D01*
X52455740Y-29981000D01*
X52389557Y-29974481D01*
X52323373Y-29967963D01*
X52210147Y-29933616D01*
X52153533Y-29916443D01*
X51997011Y-29832779D01*
X51997009Y-29832778D01*
X51961271Y-29803448D01*
X51859814Y-29720186D01*
X51758637Y-29596900D01*
X51747222Y-29582991D01*
X51680155Y-29457519D01*
X51663557Y-29426467D01*
X51621856Y-29288995D01*
X51612037Y-29256627D01*
X51594641Y-29080000D01*
X51612037Y-28903373D01*
X51663557Y-28733534D01*
X51663557Y-28733533D01*
X51747221Y-28577011D01*
X51747222Y-28577009D01*
X51776552Y-28541271D01*
X51859814Y-28439814D01*
X51968036Y-28351000D01*
X51997009Y-28327222D01*
X52064034Y-28291396D01*
X52153533Y-28243557D01*
X52210147Y-28226384D01*
X52323373Y-28192037D01*
X52389557Y-28185519D01*
X52455740Y-28179000D01*
X52544260Y-28179000D01*
X52610443Y-28185519D01*
X52610443Y-28185519D01*
G37*
G36*
X44352527Y-25288736D02*
X44452410Y-25308604D01*
X44734674Y-25425521D01*
X44988705Y-25595259D01*
X45204741Y-25811295D01*
X45374479Y-26065326D01*
X45491396Y-26347590D01*
X45511264Y-26447473D01*
X45551000Y-26647238D01*
X45551000Y-26952762D01*
X45533052Y-27042991D01*
X45491396Y-27252410D01*
X45374479Y-27534674D01*
X45204741Y-27788705D01*
X44988705Y-28004741D01*
X44734674Y-28174479D01*
X44452410Y-28291396D01*
X44352527Y-28311264D01*
X44152762Y-28351000D01*
X43847238Y-28351000D01*
X43647473Y-28311264D01*
X43547590Y-28291396D01*
X43265326Y-28174479D01*
X43011295Y-28004741D01*
X42795259Y-27788705D01*
X42625521Y-27534674D01*
X42508604Y-27252410D01*
X42466948Y-27042991D01*
X42449000Y-26952762D01*
X42449000Y-26647238D01*
X42488736Y-26447473D01*
X42508604Y-26347590D01*
X42625521Y-26065326D01*
X42795259Y-25811295D01*
X43011295Y-25595259D01*
X43265326Y-25425521D01*
X43547590Y-25308604D01*
X43647473Y-25288736D01*
X43847238Y-25249000D01*
X44152762Y-25249000D01*
X44352527Y-25288736D01*
X44352527Y-25288736D01*
G37*
G36*
X29306565Y-25789389D02*
X29497834Y-25868615D01*
X29669976Y-25983637D01*
X29816363Y-26130024D01*
X29931385Y-26302166D01*
X30010611Y-26493435D01*
X30051000Y-26696484D01*
X30051000Y-26903516D01*
X30010611Y-27106565D01*
X29931385Y-27297834D01*
X29816363Y-27469976D01*
X29669976Y-27616363D01*
X29497834Y-27731385D01*
X29306565Y-27810611D01*
X29103516Y-27851000D01*
X28896484Y-27851000D01*
X28693435Y-27810611D01*
X28502166Y-27731385D01*
X28330024Y-27616363D01*
X28183637Y-27469976D01*
X28068615Y-27297834D01*
X27989389Y-27106565D01*
X27949000Y-26903516D01*
X27949000Y-26696484D01*
X27989389Y-26493435D01*
X28068615Y-26302166D01*
X28183637Y-26130024D01*
X28330024Y-25983637D01*
X28502166Y-25868615D01*
X28693435Y-25789389D01*
X28896484Y-25749000D01*
X29103516Y-25749000D01*
X29306565Y-25789389D01*
X29306565Y-25789389D01*
G37*
G36*
X37666821Y-26001313D02*
X37666824Y-26001314D01*
X37666825Y-26001314D01*
X37827239Y-26049975D01*
X37827241Y-26049976D01*
X37827244Y-26049977D01*
X37975078Y-26128995D01*
X38104659Y-26235341D01*
X38211005Y-26364922D01*
X38290023Y-26512756D01*
X38290024Y-26512759D01*
X38290025Y-26512761D01*
X38338686Y-26673175D01*
X38338687Y-26673179D01*
X38355117Y-26840000D01*
X38338687Y-27006821D01*
X38290023Y-27167244D01*
X38211005Y-27315078D01*
X38104659Y-27444659D01*
X37975078Y-27551005D01*
X37827244Y-27630023D01*
X37827241Y-27630024D01*
X37827239Y-27630025D01*
X37666825Y-27678686D01*
X37666824Y-27678686D01*
X37666821Y-27678687D01*
X37541804Y-27691000D01*
X37458196Y-27691000D01*
X37333179Y-27678687D01*
X37333176Y-27678686D01*
X37333175Y-27678686D01*
X37172761Y-27630025D01*
X37172759Y-27630024D01*
X37172756Y-27630023D01*
X37024922Y-27551005D01*
X36895341Y-27444659D01*
X36788995Y-27315078D01*
X36709977Y-27167244D01*
X36661313Y-27006821D01*
X36644883Y-26840000D01*
X36661313Y-26673179D01*
X36661314Y-26673175D01*
X36709975Y-26512761D01*
X36709976Y-26512759D01*
X36709977Y-26512756D01*
X36788995Y-26364922D01*
X36895341Y-26235341D01*
X37024922Y-26128995D01*
X37172756Y-26049977D01*
X37172759Y-26049976D01*
X37172761Y-26049975D01*
X37333175Y-26001314D01*
X37333176Y-26001314D01*
X37333179Y-26001313D01*
X37458196Y-25989000D01*
X37541804Y-25989000D01*
X37666821Y-26001313D01*
X37666821Y-26001313D01*
G37*
G36*
X52610442Y-25645518D02*
X52676627Y-25652037D01*
X52789853Y-25686384D01*
X52846467Y-25703557D01*
X52985087Y-25777652D01*
X53002991Y-25787222D01*
X53032321Y-25811293D01*
X53140186Y-25899814D01*
X53213378Y-25989000D01*
X53252778Y-26037009D01*
X53252779Y-26037011D01*
X53336443Y-26193533D01*
X53336443Y-26193534D01*
X53387963Y-26363373D01*
X53405359Y-26540000D01*
X53387963Y-26716627D01*
X53353616Y-26829853D01*
X53336443Y-26886467D01*
X53327331Y-26903514D01*
X53252778Y-27042991D01*
X53223448Y-27078729D01*
X53140186Y-27180186D01*
X53052179Y-27252410D01*
X53002991Y-27292778D01*
X53002989Y-27292779D01*
X52846467Y-27376443D01*
X52789853Y-27393616D01*
X52676627Y-27427963D01*
X52610442Y-27434482D01*
X52544260Y-27441000D01*
X52455740Y-27441000D01*
X52389558Y-27434482D01*
X52323373Y-27427963D01*
X52210147Y-27393616D01*
X52153533Y-27376443D01*
X51997011Y-27292779D01*
X51997009Y-27292778D01*
X51947821Y-27252410D01*
X51859814Y-27180186D01*
X51776552Y-27078729D01*
X51747222Y-27042991D01*
X51672669Y-26903514D01*
X51663557Y-26886467D01*
X51646384Y-26829853D01*
X51612037Y-26716627D01*
X51594641Y-26540000D01*
X51612037Y-26363373D01*
X51663557Y-26193534D01*
X51663557Y-26193533D01*
X51747221Y-26037011D01*
X51747222Y-26037009D01*
X51786622Y-25989000D01*
X51859814Y-25899814D01*
X51967679Y-25811293D01*
X51997009Y-25787222D01*
X52014913Y-25777652D01*
X52153533Y-25703557D01*
X52210147Y-25686384D01*
X52323373Y-25652037D01*
X52389557Y-25645519D01*
X52455740Y-25639000D01*
X52544260Y-25639000D01*
X52610442Y-25645518D01*
X52610442Y-25645518D01*
G37*
G36*
X21704472Y-23825938D02*
X21832049Y-23878782D01*
X21946865Y-23955500D01*
X22044500Y-24053135D01*
X22121218Y-24167951D01*
X22174062Y-24295528D01*
X22201000Y-24430956D01*
X22201000Y-24569044D01*
X22174062Y-24704472D01*
X22121218Y-24832049D01*
X22044500Y-24946865D01*
X21946865Y-25044500D01*
X21832049Y-25121218D01*
X21704472Y-25174062D01*
X21569044Y-25201000D01*
X21430956Y-25201000D01*
X21295528Y-25174062D01*
X21167951Y-25121218D01*
X21053135Y-25044500D01*
X20955500Y-24946865D01*
X20878782Y-24832049D01*
X20825938Y-24704472D01*
X20799000Y-24569044D01*
X20799000Y-24430956D01*
X20825938Y-24295528D01*
X20878782Y-24167951D01*
X20955500Y-24053135D01*
X21053135Y-23955500D01*
X21167951Y-23878782D01*
X21295528Y-23825938D01*
X21430956Y-23799000D01*
X21569044Y-23799000D01*
X21704472Y-23825938D01*
X21704472Y-23825938D01*
G37*
G36*
X53401000Y-24901000D02*
X51599000Y-24901000D01*
X51599000Y-23099000D01*
X53401000Y-23099000D01*
X53401000Y-24901000D01*
X53401000Y-24901000D01*
G37*
G36*
X37248228Y-22181703D02*
X37403100Y-22245853D01*
X37542481Y-22338985D01*
X37661015Y-22457519D01*
X37754147Y-22596900D01*
X37818297Y-22751772D01*
X37851000Y-22916184D01*
X37851000Y-23083816D01*
X37818297Y-23248228D01*
X37754147Y-23403100D01*
X37661015Y-23542481D01*
X37542481Y-23661015D01*
X37403100Y-23754147D01*
X37248228Y-23818297D01*
X37083816Y-23851000D01*
X36916184Y-23851000D01*
X36751772Y-23818297D01*
X36596900Y-23754147D01*
X36457519Y-23661015D01*
X36338985Y-23542481D01*
X36245853Y-23403100D01*
X36181703Y-23248228D01*
X36149000Y-23083816D01*
X36149000Y-22916184D01*
X36181703Y-22751772D01*
X36245853Y-22596900D01*
X36338985Y-22457519D01*
X36457519Y-22338985D01*
X36596900Y-22245853D01*
X36751772Y-22181703D01*
X36916184Y-22149000D01*
X37083816Y-22149000D01*
X37248228Y-22181703D01*
X37248228Y-22181703D01*
G37*
G36*
X47326821Y-22161313D02*
X47326824Y-22161314D01*
X47326825Y-22161314D01*
X47487239Y-22209975D01*
X47487241Y-22209976D01*
X47487244Y-22209977D01*
X47635078Y-22288995D01*
X47764659Y-22395341D01*
X47871005Y-22524922D01*
X47950023Y-22672756D01*
X47950024Y-22672759D01*
X47950025Y-22672761D01*
X47998686Y-22833175D01*
X47998687Y-22833179D01*
X48015117Y-23000000D01*
X47998687Y-23166821D01*
X47998686Y-23166824D01*
X47998686Y-23166825D01*
X47973993Y-23248228D01*
X47950023Y-23327244D01*
X47871005Y-23475078D01*
X47764659Y-23604659D01*
X47635078Y-23711005D01*
X47487244Y-23790023D01*
X47487241Y-23790024D01*
X47487239Y-23790025D01*
X47326825Y-23838686D01*
X47326824Y-23838686D01*
X47326821Y-23838687D01*
X47201804Y-23851000D01*
X47118196Y-23851000D01*
X46993179Y-23838687D01*
X46993176Y-23838686D01*
X46993175Y-23838686D01*
X46832761Y-23790025D01*
X46832759Y-23790024D01*
X46832756Y-23790023D01*
X46684922Y-23711005D01*
X46555341Y-23604659D01*
X46448995Y-23475078D01*
X46369977Y-23327244D01*
X46346008Y-23248228D01*
X46321314Y-23166825D01*
X46321314Y-23166824D01*
X46321313Y-23166821D01*
X46304883Y-23000000D01*
X46321313Y-22833179D01*
X46321314Y-22833175D01*
X46369975Y-22672761D01*
X46369976Y-22672759D01*
X46369977Y-22672756D01*
X46448995Y-22524922D01*
X46555341Y-22395341D01*
X46684922Y-22288995D01*
X46832756Y-22209977D01*
X46832759Y-22209976D01*
X46832761Y-22209975D01*
X46993175Y-22161314D01*
X46993176Y-22161314D01*
X46993179Y-22161313D01*
X47118196Y-22149000D01*
X47201804Y-22149000D01*
X47326821Y-22161313D01*
X47326821Y-22161313D01*
G37*
G36*
X21704472Y-21325938D02*
X21832049Y-21378782D01*
X21946865Y-21455500D01*
X22044500Y-21553135D01*
X22121218Y-21667951D01*
X22174062Y-21795528D01*
X22201000Y-21930956D01*
X22201000Y-22069044D01*
X22174062Y-22204472D01*
X22121218Y-22332049D01*
X22044500Y-22446865D01*
X21946865Y-22544500D01*
X21832049Y-22621218D01*
X21704472Y-22674062D01*
X21569044Y-22701000D01*
X21430956Y-22701000D01*
X21295528Y-22674062D01*
X21167951Y-22621218D01*
X21053135Y-22544500D01*
X20955500Y-22446865D01*
X20878782Y-22332049D01*
X20825938Y-22204472D01*
X20799000Y-22069044D01*
X20799000Y-21930956D01*
X20825938Y-21795528D01*
X20878782Y-21667951D01*
X20955500Y-21553135D01*
X21053135Y-21455500D01*
X21167951Y-21378782D01*
X21295528Y-21325938D01*
X21430956Y-21299000D01*
X21569044Y-21299000D01*
X21704472Y-21325938D01*
X21704472Y-21325938D01*
G37*
G36*
X21704472Y-18825938D02*
X21832049Y-18878782D01*
X21946865Y-18955500D01*
X22044500Y-19053135D01*
X22121218Y-19167951D01*
X22174062Y-19295528D01*
X22201000Y-19430956D01*
X22201000Y-19569044D01*
X22174062Y-19704472D01*
X22121218Y-19832049D01*
X22044500Y-19946865D01*
X21946865Y-20044500D01*
X21832049Y-20121218D01*
X21704472Y-20174062D01*
X21569044Y-20201000D01*
X21430956Y-20201000D01*
X21295528Y-20174062D01*
X21167951Y-20121218D01*
X21053135Y-20044500D01*
X20955500Y-19946865D01*
X20878782Y-19832049D01*
X20825938Y-19704472D01*
X20799000Y-19569044D01*
X20799000Y-19430956D01*
X20825938Y-19295528D01*
X20878782Y-19167951D01*
X20955500Y-19053135D01*
X21053135Y-18955500D01*
X21167951Y-18878782D01*
X21295528Y-18825938D01*
X21430956Y-18799000D01*
X21569044Y-18799000D01*
X21704472Y-18825938D01*
X21704472Y-18825938D01*
G37*
G36*
X29306565Y-16189389D02*
X29497834Y-16268615D01*
X29669976Y-16383637D01*
X29816363Y-16530024D01*
X29931385Y-16702166D01*
X30010611Y-16893435D01*
X30051000Y-17096484D01*
X30051000Y-17303516D01*
X30010611Y-17506565D01*
X29931385Y-17697834D01*
X29816363Y-17869976D01*
X29669976Y-18016363D01*
X29497834Y-18131385D01*
X29306565Y-18210611D01*
X29103516Y-18251000D01*
X28896484Y-18251000D01*
X28693435Y-18210611D01*
X28502166Y-18131385D01*
X28330024Y-18016363D01*
X28183637Y-17869976D01*
X28068615Y-17697834D01*
X27989389Y-17506565D01*
X27949000Y-17303516D01*
X27949000Y-17096484D01*
X27989389Y-16893435D01*
X28068615Y-16702166D01*
X28183637Y-16530024D01*
X28330024Y-16383637D01*
X28502166Y-16268615D01*
X28693435Y-16189389D01*
X28896484Y-16149000D01*
X29103516Y-16149000D01*
X29306565Y-16189389D01*
X29306565Y-16189389D01*
G37*
G36*
X46770443Y-16105519D02*
X46836627Y-16112037D01*
X46949853Y-16146384D01*
X47006467Y-16163557D01*
X47054796Y-16189390D01*
X47162991Y-16247222D01*
X47189058Y-16268615D01*
X47300186Y-16359814D01*
X47383448Y-16461271D01*
X47412778Y-16497009D01*
X47412779Y-16497011D01*
X47496443Y-16653533D01*
X47496443Y-16653534D01*
X47547963Y-16823373D01*
X47565359Y-17000000D01*
X47547963Y-17176627D01*
X47513616Y-17289853D01*
X47496443Y-17346467D01*
X47422348Y-17485087D01*
X47412778Y-17502991D01*
X47383448Y-17538729D01*
X47300186Y-17640186D01*
X47229939Y-17697835D01*
X47162991Y-17752778D01*
X47162989Y-17752779D01*
X47006467Y-17836443D01*
X46949853Y-17853616D01*
X46836627Y-17887963D01*
X46770442Y-17894482D01*
X46704260Y-17901000D01*
X46615740Y-17901000D01*
X46549558Y-17894482D01*
X46483373Y-17887963D01*
X46370147Y-17853616D01*
X46313533Y-17836443D01*
X46157011Y-17752779D01*
X46157009Y-17752778D01*
X46090061Y-17697835D01*
X46019814Y-17640186D01*
X45936552Y-17538729D01*
X45907222Y-17502991D01*
X45897652Y-17485087D01*
X45823557Y-17346467D01*
X45806384Y-17289853D01*
X45772037Y-17176627D01*
X45754641Y-17000000D01*
X45772037Y-16823373D01*
X45823557Y-16653534D01*
X45823557Y-16653533D01*
X45907221Y-16497011D01*
X45907222Y-16497009D01*
X45936552Y-16461271D01*
X46019814Y-16359814D01*
X46130942Y-16268615D01*
X46157009Y-16247222D01*
X46265204Y-16189390D01*
X46313533Y-16163557D01*
X46370147Y-16146384D01*
X46483373Y-16112037D01*
X46549557Y-16105519D01*
X46615740Y-16099000D01*
X46704260Y-16099000D01*
X46770443Y-16105519D01*
X46770443Y-16105519D01*
G37*
G36*
X49310443Y-16105519D02*
X49376627Y-16112037D01*
X49489853Y-16146384D01*
X49546467Y-16163557D01*
X49594796Y-16189390D01*
X49702991Y-16247222D01*
X49729058Y-16268615D01*
X49840186Y-16359814D01*
X49923448Y-16461271D01*
X49952778Y-16497009D01*
X49952779Y-16497011D01*
X50036443Y-16653533D01*
X50036443Y-16653534D01*
X50087963Y-16823373D01*
X50105359Y-17000000D01*
X50087963Y-17176627D01*
X50053616Y-17289853D01*
X50036443Y-17346467D01*
X49962348Y-17485087D01*
X49952778Y-17502991D01*
X49923448Y-17538729D01*
X49840186Y-17640186D01*
X49769939Y-17697835D01*
X49702991Y-17752778D01*
X49702989Y-17752779D01*
X49546467Y-17836443D01*
X49489853Y-17853616D01*
X49376627Y-17887963D01*
X49310442Y-17894482D01*
X49244260Y-17901000D01*
X49155740Y-17901000D01*
X49089558Y-17894482D01*
X49023373Y-17887963D01*
X48910147Y-17853616D01*
X48853533Y-17836443D01*
X48697011Y-17752779D01*
X48697009Y-17752778D01*
X48630061Y-17697835D01*
X48559814Y-17640186D01*
X48476552Y-17538729D01*
X48447222Y-17502991D01*
X48437652Y-17485087D01*
X48363557Y-17346467D01*
X48346384Y-17289853D01*
X48312037Y-17176627D01*
X48294641Y-17000000D01*
X48312037Y-16823373D01*
X48363557Y-16653534D01*
X48363557Y-16653533D01*
X48447221Y-16497011D01*
X48447222Y-16497009D01*
X48476552Y-16461271D01*
X48559814Y-16359814D01*
X48670942Y-16268615D01*
X48697009Y-16247222D01*
X48805204Y-16189390D01*
X48853533Y-16163557D01*
X48910147Y-16146384D01*
X49023373Y-16112037D01*
X49089557Y-16105519D01*
X49155740Y-16099000D01*
X49244260Y-16099000D01*
X49310443Y-16105519D01*
X49310443Y-16105519D01*
G37*
G36*
X37401000Y-17901000D02*
X35599000Y-17901000D01*
X35599000Y-16099000D01*
X37401000Y-16099000D01*
X37401000Y-17901000D01*
X37401000Y-17901000D01*
G37*
G36*
X39150443Y-16105519D02*
X39216627Y-16112037D01*
X39329853Y-16146384D01*
X39386467Y-16163557D01*
X39434796Y-16189390D01*
X39542991Y-16247222D01*
X39569058Y-16268615D01*
X39680186Y-16359814D01*
X39763448Y-16461271D01*
X39792778Y-16497009D01*
X39792779Y-16497011D01*
X39876443Y-16653533D01*
X39876443Y-16653534D01*
X39927963Y-16823373D01*
X39945359Y-17000000D01*
X39927963Y-17176627D01*
X39893616Y-17289853D01*
X39876443Y-17346467D01*
X39802348Y-17485087D01*
X39792778Y-17502991D01*
X39763448Y-17538729D01*
X39680186Y-17640186D01*
X39609939Y-17697835D01*
X39542991Y-17752778D01*
X39542989Y-17752779D01*
X39386467Y-17836443D01*
X39329853Y-17853616D01*
X39216627Y-17887963D01*
X39150442Y-17894482D01*
X39084260Y-17901000D01*
X38995740Y-17901000D01*
X38929558Y-17894482D01*
X38863373Y-17887963D01*
X38750147Y-17853616D01*
X38693533Y-17836443D01*
X38537011Y-17752779D01*
X38537009Y-17752778D01*
X38470061Y-17697835D01*
X38399814Y-17640186D01*
X38316552Y-17538729D01*
X38287222Y-17502991D01*
X38277652Y-17485087D01*
X38203557Y-17346467D01*
X38186384Y-17289853D01*
X38152037Y-17176627D01*
X38134641Y-17000000D01*
X38152037Y-16823373D01*
X38203557Y-16653534D01*
X38203557Y-16653533D01*
X38287221Y-16497011D01*
X38287222Y-16497009D01*
X38316552Y-16461271D01*
X38399814Y-16359814D01*
X38510942Y-16268615D01*
X38537009Y-16247222D01*
X38645204Y-16189390D01*
X38693533Y-16163557D01*
X38750147Y-16146384D01*
X38863373Y-16112037D01*
X38929557Y-16105519D01*
X38995740Y-16099000D01*
X39084260Y-16099000D01*
X39150443Y-16105519D01*
X39150443Y-16105519D01*
G37*
G36*
X44230443Y-16105519D02*
X44296627Y-16112037D01*
X44409853Y-16146384D01*
X44466467Y-16163557D01*
X44514796Y-16189390D01*
X44622991Y-16247222D01*
X44649058Y-16268615D01*
X44760186Y-16359814D01*
X44843448Y-16461271D01*
X44872778Y-16497009D01*
X44872779Y-16497011D01*
X44956443Y-16653533D01*
X44956443Y-16653534D01*
X45007963Y-16823373D01*
X45025359Y-17000000D01*
X45007963Y-17176627D01*
X44973616Y-17289853D01*
X44956443Y-17346467D01*
X44882348Y-17485087D01*
X44872778Y-17502991D01*
X44843448Y-17538729D01*
X44760186Y-17640186D01*
X44689939Y-17697835D01*
X44622991Y-17752778D01*
X44622989Y-17752779D01*
X44466467Y-17836443D01*
X44409853Y-17853616D01*
X44296627Y-17887963D01*
X44230442Y-17894482D01*
X44164260Y-17901000D01*
X44075740Y-17901000D01*
X44009558Y-17894482D01*
X43943373Y-17887963D01*
X43830147Y-17853616D01*
X43773533Y-17836443D01*
X43617011Y-17752779D01*
X43617009Y-17752778D01*
X43550061Y-17697835D01*
X43479814Y-17640186D01*
X43396552Y-17538729D01*
X43367222Y-17502991D01*
X43357652Y-17485087D01*
X43283557Y-17346467D01*
X43266384Y-17289853D01*
X43232037Y-17176627D01*
X43214641Y-17000000D01*
X43232037Y-16823373D01*
X43283557Y-16653534D01*
X43283557Y-16653533D01*
X43367221Y-16497011D01*
X43367222Y-16497009D01*
X43396552Y-16461271D01*
X43479814Y-16359814D01*
X43590942Y-16268615D01*
X43617009Y-16247222D01*
X43725204Y-16189390D01*
X43773533Y-16163557D01*
X43830147Y-16146384D01*
X43943373Y-16112037D01*
X44009557Y-16105519D01*
X44075740Y-16099000D01*
X44164260Y-16099000D01*
X44230443Y-16105519D01*
X44230443Y-16105519D01*
G37*
G36*
X41690443Y-16105519D02*
X41756627Y-16112037D01*
X41869853Y-16146384D01*
X41926467Y-16163557D01*
X41974796Y-16189390D01*
X42082991Y-16247222D01*
X42109058Y-16268615D01*
X42220186Y-16359814D01*
X42303448Y-16461271D01*
X42332778Y-16497009D01*
X42332779Y-16497011D01*
X42416443Y-16653533D01*
X42416443Y-16653534D01*
X42467963Y-16823373D01*
X42485359Y-17000000D01*
X42467963Y-17176627D01*
X42433616Y-17289853D01*
X42416443Y-17346467D01*
X42342348Y-17485087D01*
X42332778Y-17502991D01*
X42303448Y-17538729D01*
X42220186Y-17640186D01*
X42149939Y-17697835D01*
X42082991Y-17752778D01*
X42082989Y-17752779D01*
X41926467Y-17836443D01*
X41869853Y-17853616D01*
X41756627Y-17887963D01*
X41690442Y-17894482D01*
X41624260Y-17901000D01*
X41535740Y-17901000D01*
X41469558Y-17894482D01*
X41403373Y-17887963D01*
X41290147Y-17853616D01*
X41233533Y-17836443D01*
X41077011Y-17752779D01*
X41077009Y-17752778D01*
X41010061Y-17697835D01*
X40939814Y-17640186D01*
X40856552Y-17538729D01*
X40827222Y-17502991D01*
X40817652Y-17485087D01*
X40743557Y-17346467D01*
X40726384Y-17289853D01*
X40692037Y-17176627D01*
X40674641Y-17000000D01*
X40692037Y-16823373D01*
X40743557Y-16653534D01*
X40743557Y-16653533D01*
X40827221Y-16497011D01*
X40827222Y-16497009D01*
X40856552Y-16461271D01*
X40939814Y-16359814D01*
X41050942Y-16268615D01*
X41077009Y-16247222D01*
X41185204Y-16189390D01*
X41233533Y-16163557D01*
X41290147Y-16146384D01*
X41403373Y-16112037D01*
X41469557Y-16105519D01*
X41535740Y-16099000D01*
X41624260Y-16099000D01*
X41690443Y-16105519D01*
X41690443Y-16105519D01*
G37*
M02*
