M48
INCH,TZ
T1C0.0157
T2C0.0295
T3C0.0315
T4C0.0354
T5C0.0394
T6C0.0591
T7C0.0630
T8C0.0709
T9C0.0787
T10C0.1024
%
G90
G05
T1
X8465Y-35039
X9449Y-7677
X9449Y-28543
X9843Y-15551
X9862Y-26752
X10236Y-12992
X10433Y-16142
X10630Y-13583
X11024Y-37598
X11417Y-7480
X12205Y-24606
X12427Y-16535
X12992Y-15551
X12992Y-24213
X13189Y-34927
X13272Y-7480
X13583Y-16142
X13583Y-21850
X13583Y-27953
X14370Y-17520
X14764Y-27953
X14961Y-22638
X15157Y-25000
X15839Y-36811
X16732Y-26772
X18307Y-18110
X18504Y-11614
X18504Y-15551
X18548Y-17704
X18661Y-22244
X19902Y-10630
X19902Y-19291
X19902Y-20472
X20079Y-26378
X20472Y-37795
X21407Y-30709
T2
X10614Y-35827
X11114Y-35827
X11614Y-35827
X20063Y-35827
X20563Y-35827
X21063Y-35827
X15339Y-35630
X15839Y-35630
X16339Y-35630
T3
X14567Y-9055
X18567Y-9055
X7283Y-33465
X11283Y-33465
X16732Y-25000
X20732Y-25000
X17323Y-34055
X21323Y-34055
X14764Y-10567
X14764Y-14567
X12205Y-34055
X16205Y-34055
X7087Y-13323
X7087Y-17323
X8858Y-11811
X12858Y-11811
X15488Y-27165
X19488Y-27165
T4
X6890Y-26772
X7890Y-26772
X8449Y-35827
X9449Y-35827
X13173Y-35827
X14173Y-35827
X17898Y-35827
X18898Y-35827
X6890Y-28543
X7890Y-28543
X6890Y-19291
X7890Y-19291
X6890Y-11811
X7890Y-11811
X11811Y-27362
X12811Y-27362
T5
X14764Y-29724
X14764Y-30709
X14764Y-31693
X8465Y-7677
X8465Y-8661
X8465Y-9646
X8465Y-22638
X8465Y-23622
X8465Y-24606
X14173Y-22638
X14173Y-24606
X6693Y-34843
X6693Y-35843
X6693Y-36843
X6693Y-37843
X6693Y-38843
X6693Y-39843
X6693Y-40843
X6693Y-41843
X6693Y-42843
X20669Y-9449
X20669Y-10449
X20669Y-11449
X20669Y-12449
X20669Y-13449
X20669Y-14449
X20669Y-15449
X20669Y-16449
X20669Y-17449
X20669Y-18449
X20669Y-19449
X20669Y-20449
X20669Y-21449
X20669Y-22449
X20669Y-23449
X14370Y-6693
X15370Y-6693
X16370Y-6693
X17370Y-6693
X18370Y-6693
X19370Y-6693
X8465Y-15157
X8465Y-16142
X8465Y-17126
T7
X6504Y-44685
X7724Y-44685
X10992Y-44685
X11228Y-39567
X12449Y-39567
X15717Y-39567
X13780Y-42134
X13780Y-43354
X13780Y-46622
X18504Y-37827
X18504Y-41094
X18504Y-42315
X9055Y-37630
X9055Y-40898
X9055Y-42118
X16567Y-44685
X19835Y-44685
X21055Y-44685
T8
X11417Y-14252
X11417Y-18031
X17717Y-28819
X17717Y-32598
X11417Y-6772
X11417Y-10551
T9
X17323Y-10551
X17323Y-12402
X17323Y-14252
X17323Y-18031
X17323Y-19882
X17323Y-21732
T10
X11417Y-21417
X11417Y-25827
T6
X10728Y-30512G85X10728Y-30906
G05
X12106Y-30512G85X12106Y-30906
G05
T0
M30
