G04 #@! TF.GenerationSoftware,KiCad,Pcbnew,(5.0.1)-3*
G04 #@! TF.CreationDate,2019-04-01T17:24:46+01:00*
G04 #@! TF.ProjectId,Fractional Clock divider PCB1 top board,4672616374696F6E616C20436C6F636B,rev?*
G04 #@! TF.SameCoordinates,Original*
G04 #@! TF.FileFunction,Legend,Top*
G04 #@! TF.FilePolarity,Positive*
%FSLAX46Y46*%
G04 Gerber Fmt 4.6, Leading zero omitted, Abs format (unit mm)*
G04 Created by KiCad (PCBNEW (5.0.1)-3) date 01/04/2019 17:24:46*
%MOMM*%
%LPD*%
G01*
G04 APERTURE LIST*
%ADD10C,0.100000*%
%ADD11C,0.150000*%
%ADD12C,0.120000*%
G04 APERTURE END LIST*
D10*
X52173809Y-84619047D02*
X52211904Y-84504761D01*
X52211904Y-84314285D01*
X52173809Y-84238095D01*
X52135714Y-84200000D01*
X52059523Y-84161904D01*
X51983333Y-84161904D01*
X51907142Y-84200000D01*
X51869047Y-84238095D01*
X51830952Y-84314285D01*
X51792857Y-84466666D01*
X51754761Y-84542857D01*
X51716666Y-84580952D01*
X51640476Y-84619047D01*
X51564285Y-84619047D01*
X51488095Y-84580952D01*
X51450000Y-84542857D01*
X51411904Y-84466666D01*
X51411904Y-84276190D01*
X51450000Y-84161904D01*
X51411904Y-83323809D02*
X51411904Y-82866666D01*
X52211904Y-83095238D02*
X51411904Y-83095238D01*
X51678571Y-82257142D02*
X52211904Y-82257142D01*
X51678571Y-82600000D02*
X52097619Y-82600000D01*
X52173809Y-82561904D01*
X52211904Y-82485714D01*
X52211904Y-82371428D01*
X52173809Y-82295238D01*
X52135714Y-82257142D01*
X52173809Y-81914285D02*
X52211904Y-81838095D01*
X52211904Y-81685714D01*
X52173809Y-81609523D01*
X52097619Y-81571428D01*
X52059523Y-81571428D01*
X51983333Y-81609523D01*
X51945238Y-81685714D01*
X51945238Y-81800000D01*
X51907142Y-81876190D01*
X51830952Y-81914285D01*
X51792857Y-81914285D01*
X51716666Y-81876190D01*
X51678571Y-81800000D01*
X51678571Y-81685714D01*
X51716666Y-81609523D01*
X52211904Y-81228571D02*
X51411904Y-81228571D01*
X51907142Y-81152380D02*
X52211904Y-80923809D01*
X51678571Y-80923809D02*
X51983333Y-81228571D01*
X52135714Y-79514285D02*
X52173809Y-79552380D01*
X52211904Y-79666666D01*
X52211904Y-79742857D01*
X52173809Y-79857142D01*
X52097619Y-79933333D01*
X52021428Y-79971428D01*
X51869047Y-80009523D01*
X51754761Y-80009523D01*
X51602380Y-79971428D01*
X51526190Y-79933333D01*
X51450000Y-79857142D01*
X51411904Y-79742857D01*
X51411904Y-79666666D01*
X51450000Y-79552380D01*
X51488095Y-79514285D01*
X52211904Y-79057142D02*
X52173809Y-79133333D01*
X52097619Y-79171428D01*
X51411904Y-79171428D01*
X52211904Y-78638095D02*
X52173809Y-78714285D01*
X52135714Y-78752380D01*
X52059523Y-78790476D01*
X51830952Y-78790476D01*
X51754761Y-78752380D01*
X51716666Y-78714285D01*
X51678571Y-78638095D01*
X51678571Y-78523809D01*
X51716666Y-78447619D01*
X51754761Y-78409523D01*
X51830952Y-78371428D01*
X52059523Y-78371428D01*
X52135714Y-78409523D01*
X52173809Y-78447619D01*
X52211904Y-78523809D01*
X52211904Y-78638095D01*
X52173809Y-77685714D02*
X52211904Y-77761904D01*
X52211904Y-77914285D01*
X52173809Y-77990476D01*
X52135714Y-78028571D01*
X52059523Y-78066666D01*
X51830952Y-78066666D01*
X51754761Y-78028571D01*
X51716666Y-77990476D01*
X51678571Y-77914285D01*
X51678571Y-77761904D01*
X51716666Y-77685714D01*
X52211904Y-77342857D02*
X51411904Y-77342857D01*
X51907142Y-77266666D02*
X52211904Y-77038095D01*
X51678571Y-77038095D02*
X51983333Y-77342857D01*
X52211904Y-76085714D02*
X51411904Y-76085714D01*
X51411904Y-75895238D01*
X51450000Y-75780952D01*
X51526190Y-75704761D01*
X51602380Y-75666666D01*
X51754761Y-75628571D01*
X51869047Y-75628571D01*
X52021428Y-75666666D01*
X52097619Y-75704761D01*
X52173809Y-75780952D01*
X52211904Y-75895238D01*
X52211904Y-76085714D01*
X52211904Y-75285714D02*
X51678571Y-75285714D01*
X51411904Y-75285714D02*
X51450000Y-75323809D01*
X51488095Y-75285714D01*
X51450000Y-75247619D01*
X51411904Y-75285714D01*
X51488095Y-75285714D01*
X51678571Y-74980952D02*
X52211904Y-74790476D01*
X51678571Y-74600000D01*
X52211904Y-74295238D02*
X51678571Y-74295238D01*
X51411904Y-74295238D02*
X51450000Y-74333333D01*
X51488095Y-74295238D01*
X51450000Y-74257142D01*
X51411904Y-74295238D01*
X51488095Y-74295238D01*
X52211904Y-73571428D02*
X51411904Y-73571428D01*
X52173809Y-73571428D02*
X52211904Y-73647619D01*
X52211904Y-73800000D01*
X52173809Y-73876190D01*
X52135714Y-73914285D01*
X52059523Y-73952380D01*
X51830952Y-73952380D01*
X51754761Y-73914285D01*
X51716666Y-73876190D01*
X51678571Y-73800000D01*
X51678571Y-73647619D01*
X51716666Y-73571428D01*
X52173809Y-72885714D02*
X52211904Y-72961904D01*
X52211904Y-73114285D01*
X52173809Y-73190476D01*
X52097619Y-73228571D01*
X51792857Y-73228571D01*
X51716666Y-73190476D01*
X51678571Y-73114285D01*
X51678571Y-72961904D01*
X51716666Y-72885714D01*
X51792857Y-72847619D01*
X51869047Y-72847619D01*
X51945238Y-73228571D01*
X52211904Y-72504761D02*
X51678571Y-72504761D01*
X51830952Y-72504761D02*
X51754761Y-72466666D01*
X51716666Y-72428571D01*
X51678571Y-72352380D01*
X51678571Y-72276190D01*
X51983333Y-71438095D02*
X51983333Y-71057142D01*
X52211904Y-71514285D02*
X51411904Y-71247619D01*
X52211904Y-70980952D01*
X51678571Y-70714285D02*
X52478571Y-70714285D01*
X51716666Y-70714285D02*
X51678571Y-70638095D01*
X51678571Y-70485714D01*
X51716666Y-70409523D01*
X51754761Y-70371428D01*
X51830952Y-70333333D01*
X52059523Y-70333333D01*
X52135714Y-70371428D01*
X52173809Y-70409523D01*
X52211904Y-70485714D01*
X52211904Y-70638095D01*
X52173809Y-70714285D01*
X52211904Y-69990476D02*
X51678571Y-69990476D01*
X51830952Y-69990476D02*
X51754761Y-69952380D01*
X51716666Y-69914285D01*
X51678571Y-69838095D01*
X51678571Y-69761904D01*
X52211904Y-69495238D02*
X51678571Y-69495238D01*
X51411904Y-69495238D02*
X51450000Y-69533333D01*
X51488095Y-69495238D01*
X51450000Y-69457142D01*
X51411904Y-69495238D01*
X51488095Y-69495238D01*
X52211904Y-69000000D02*
X52173809Y-69076190D01*
X52097619Y-69114285D01*
X51411904Y-69114285D01*
X51488095Y-68123809D02*
X51450000Y-68085714D01*
X51411904Y-68009523D01*
X51411904Y-67819047D01*
X51450000Y-67742857D01*
X51488095Y-67704761D01*
X51564285Y-67666666D01*
X51640476Y-67666666D01*
X51754761Y-67704761D01*
X52211904Y-68161904D01*
X52211904Y-67666666D01*
X51411904Y-67171428D02*
X51411904Y-67095238D01*
X51450000Y-67019047D01*
X51488095Y-66980952D01*
X51564285Y-66942857D01*
X51716666Y-66904761D01*
X51907142Y-66904761D01*
X52059523Y-66942857D01*
X52135714Y-66980952D01*
X52173809Y-67019047D01*
X52211904Y-67095238D01*
X52211904Y-67171428D01*
X52173809Y-67247619D01*
X52135714Y-67285714D01*
X52059523Y-67323809D01*
X51907142Y-67361904D01*
X51716666Y-67361904D01*
X51564285Y-67323809D01*
X51488095Y-67285714D01*
X51450000Y-67247619D01*
X51411904Y-67171428D01*
X52211904Y-66142857D02*
X52211904Y-66600000D01*
X52211904Y-66371428D02*
X51411904Y-66371428D01*
X51526190Y-66447619D01*
X51602380Y-66523809D01*
X51640476Y-66600000D01*
X52211904Y-65761904D02*
X52211904Y-65609523D01*
X52173809Y-65533333D01*
X52135714Y-65495238D01*
X52021428Y-65419047D01*
X51869047Y-65380952D01*
X51564285Y-65380952D01*
X51488095Y-65419047D01*
X51450000Y-65457142D01*
X51411904Y-65533333D01*
X51411904Y-65685714D01*
X51450000Y-65761904D01*
X51488095Y-65800000D01*
X51564285Y-65838095D01*
X51754761Y-65838095D01*
X51830952Y-65800000D01*
X51869047Y-65761904D01*
X51907142Y-65685714D01*
X51907142Y-65533333D01*
X51869047Y-65457142D01*
X51830952Y-65419047D01*
X51754761Y-65380952D01*
X52711904Y-77952380D02*
X52711904Y-77495238D01*
X53511904Y-77723809D02*
X52711904Y-77723809D01*
X53511904Y-77114285D02*
X53473809Y-77190476D01*
X53435714Y-77228571D01*
X53359523Y-77266666D01*
X53130952Y-77266666D01*
X53054761Y-77228571D01*
X53016666Y-77190476D01*
X52978571Y-77114285D01*
X52978571Y-77000000D01*
X53016666Y-76923809D01*
X53054761Y-76885714D01*
X53130952Y-76847619D01*
X53359523Y-76847619D01*
X53435714Y-76885714D01*
X53473809Y-76923809D01*
X53511904Y-77000000D01*
X53511904Y-77114285D01*
X52978571Y-76504761D02*
X53778571Y-76504761D01*
X53016666Y-76504761D02*
X52978571Y-76428571D01*
X52978571Y-76276190D01*
X53016666Y-76200000D01*
X53054761Y-76161904D01*
X53130952Y-76123809D01*
X53359523Y-76123809D01*
X53435714Y-76161904D01*
X53473809Y-76200000D01*
X53511904Y-76276190D01*
X53511904Y-76428571D01*
X53473809Y-76504761D01*
X53511904Y-75171428D02*
X52711904Y-75171428D01*
X53016666Y-75171428D02*
X52978571Y-75095238D01*
X52978571Y-74942857D01*
X53016666Y-74866666D01*
X53054761Y-74828571D01*
X53130952Y-74790476D01*
X53359523Y-74790476D01*
X53435714Y-74828571D01*
X53473809Y-74866666D01*
X53511904Y-74942857D01*
X53511904Y-75095238D01*
X53473809Y-75171428D01*
X53511904Y-74333333D02*
X53473809Y-74409523D01*
X53435714Y-74447619D01*
X53359523Y-74485714D01*
X53130952Y-74485714D01*
X53054761Y-74447619D01*
X53016666Y-74409523D01*
X52978571Y-74333333D01*
X52978571Y-74219047D01*
X53016666Y-74142857D01*
X53054761Y-74104761D01*
X53130952Y-74066666D01*
X53359523Y-74066666D01*
X53435714Y-74104761D01*
X53473809Y-74142857D01*
X53511904Y-74219047D01*
X53511904Y-74333333D01*
X53511904Y-73380952D02*
X53092857Y-73380952D01*
X53016666Y-73419047D01*
X52978571Y-73495238D01*
X52978571Y-73647619D01*
X53016666Y-73723809D01*
X53473809Y-73380952D02*
X53511904Y-73457142D01*
X53511904Y-73647619D01*
X53473809Y-73723809D01*
X53397619Y-73761904D01*
X53321428Y-73761904D01*
X53245238Y-73723809D01*
X53207142Y-73647619D01*
X53207142Y-73457142D01*
X53169047Y-73380952D01*
X53511904Y-73000000D02*
X52978571Y-73000000D01*
X53130952Y-73000000D02*
X53054761Y-72961904D01*
X53016666Y-72923809D01*
X52978571Y-72847619D01*
X52978571Y-72771428D01*
X53511904Y-72161904D02*
X52711904Y-72161904D01*
X53473809Y-72161904D02*
X53511904Y-72238095D01*
X53511904Y-72390476D01*
X53473809Y-72466666D01*
X53435714Y-72504761D01*
X53359523Y-72542857D01*
X53130952Y-72542857D01*
X53054761Y-72504761D01*
X53016666Y-72466666D01*
X52978571Y-72390476D01*
X52978571Y-72238095D01*
X53016666Y-72161904D01*
D11*
G04 #@! TO.C,CV_in1*
X40800000Y-118000000D02*
X40800000Y-109000000D01*
X51700000Y-118000000D02*
X51700000Y-109000000D01*
X40800000Y-118000000D02*
X51700000Y-118000000D01*
X40800000Y-109000000D02*
X51700000Y-109000000D01*
X48800000Y-113500000D02*
G75*
G03X48800000Y-113500000I-1800000J0D01*
G01*
X45200000Y-113500000D02*
X48800000Y-113500000D01*
X47000000Y-115300000D02*
X47000000Y-111700000D01*
G04 #@! TO.C,Reset_In1*
X39500000Y-119700000D02*
X30500000Y-119700000D01*
X39500000Y-108800000D02*
X30500000Y-108800000D01*
X39500000Y-119700000D02*
X39500000Y-108800000D01*
X30500000Y-119700000D02*
X30500000Y-108800000D01*
X36800000Y-113500000D02*
G75*
G03X36800000Y-113500000I-1800000J0D01*
G01*
X35000000Y-115300000D02*
X35000000Y-111700000D01*
X36800000Y-113500000D02*
X33200000Y-113500000D01*
G04 #@! TO.C,Trigger/Clock_in1*
X29200000Y-109000000D02*
X29200000Y-118000000D01*
X18300000Y-109000000D02*
X18300000Y-118000000D01*
X29200000Y-109000000D02*
X18300000Y-109000000D01*
X29200000Y-118000000D02*
X18300000Y-118000000D01*
X24800000Y-113500000D02*
G75*
G03X24800000Y-113500000I-1800000J0D01*
G01*
X24800000Y-113500000D02*
X21200000Y-113500000D01*
X23000000Y-111700000D02*
X23000000Y-115300000D01*
G04 #@! TO.C,DigiThruJack1*
X42500000Y-94800000D02*
X51500000Y-94800000D01*
X42500000Y-105700000D02*
X51500000Y-105700000D01*
X42500000Y-94800000D02*
X42500000Y-105700000D01*
X51500000Y-94800000D02*
X51500000Y-105700000D01*
X48800000Y-101000000D02*
G75*
G03X48800000Y-101000000I-1800000J0D01*
G01*
X47000000Y-99200000D02*
X47000000Y-102800000D01*
X45200000Y-101000000D02*
X48800000Y-101000000D01*
G04 #@! TO.C,CycleOutJack1*
X41200000Y-96000000D02*
X41200000Y-105000000D01*
X30300000Y-96000000D02*
X30300000Y-105000000D01*
X41200000Y-96000000D02*
X30300000Y-96000000D01*
X41200000Y-105000000D02*
X30300000Y-105000000D01*
X36800000Y-100500000D02*
G75*
G03X36800000Y-100500000I-1800000J0D01*
G01*
X36800000Y-100500000D02*
X33200000Y-100500000D01*
X35000000Y-98700000D02*
X35000000Y-102300000D01*
G04 #@! TO.C,DigiOutJack1*
X18500000Y-94300000D02*
X27500000Y-94300000D01*
X18500000Y-105200000D02*
X27500000Y-105200000D01*
X18500000Y-94300000D02*
X18500000Y-105200000D01*
X27500000Y-94300000D02*
X27500000Y-105200000D01*
X24800000Y-100500000D02*
G75*
G03X24800000Y-100500000I-1800000J0D01*
G01*
X23000000Y-98700000D02*
X23000000Y-102300000D01*
X21200000Y-100500000D02*
X24800000Y-100500000D01*
G04 #@! TO.C,RV1*
X33850000Y-17250000D02*
X33850000Y-26750000D01*
X22500000Y-17250000D02*
X22500000Y-26750000D01*
X33850000Y-26750000D02*
X22500000Y-26750000D01*
X33850000Y-17250000D02*
X22500000Y-17250000D01*
X32175000Y-22000000D02*
G75*
G03X32175000Y-22000000I-3175000J0D01*
G01*
X30270000Y-22000000D02*
X27730000Y-22000000D01*
X29000000Y-20730000D02*
X29000000Y-23270000D01*
G04 #@! TO.C,RV2*
X49850000Y-73250000D02*
X49850000Y-82750000D01*
X38500000Y-73250000D02*
X38500000Y-82750000D01*
X49850000Y-82750000D02*
X38500000Y-82750000D01*
X49850000Y-73250000D02*
X38500000Y-73250000D01*
X48175000Y-78000000D02*
G75*
G03X48175000Y-78000000I-3175000J0D01*
G01*
X46270000Y-78000000D02*
X43730000Y-78000000D01*
X45000000Y-76730000D02*
X45000000Y-79270000D01*
G04 #@! TO.C,RV3*
X33850000Y-36250000D02*
X33850000Y-45750000D01*
X22500000Y-36250000D02*
X22500000Y-45750000D01*
X33850000Y-45750000D02*
X22500000Y-45750000D01*
X33850000Y-36250000D02*
X22500000Y-36250000D01*
X32175000Y-41000000D02*
G75*
G03X32175000Y-41000000I-3175000J0D01*
G01*
X30270000Y-41000000D02*
X27730000Y-41000000D01*
X29000000Y-39730000D02*
X29000000Y-42270000D01*
D12*
G04 #@! TO.C,R27*
X41150000Y-67630000D02*
X41150000Y-70370000D01*
X41150000Y-70370000D02*
X47690000Y-70370000D01*
X47690000Y-70370000D02*
X47690000Y-67630000D01*
X47690000Y-67630000D02*
X41150000Y-67630000D01*
X40380000Y-69000000D02*
X41150000Y-69000000D01*
X48460000Y-69000000D02*
X47690000Y-69000000D01*
G04 #@! TO.C,D3*
X36290000Y-89920000D02*
X36290000Y-89764000D01*
X36290000Y-92236000D02*
X36290000Y-92080000D01*
X33688870Y-89920163D02*
G75*
G02X35770961Y-89920000I1041130J-1079837D01*
G01*
X33688870Y-92079837D02*
G75*
G03X35770961Y-92080000I1041130J1079837D01*
G01*
X33057665Y-89921392D02*
G75*
G02X36290000Y-89764484I1672335J-1078608D01*
G01*
X33057665Y-92078608D02*
G75*
G03X36290000Y-92235516I1672335J1078608D01*
G01*
G04 #@! TO.C,D4*
X21057665Y-92078608D02*
G75*
G03X24290000Y-92235516I1672335J1078608D01*
G01*
X21057665Y-89921392D02*
G75*
G02X24290000Y-89764484I1672335J-1078608D01*
G01*
X21688870Y-92079837D02*
G75*
G03X23770961Y-92080000I1041130J1079837D01*
G01*
X21688870Y-89920163D02*
G75*
G02X23770961Y-89920000I1041130J-1079837D01*
G01*
X24290000Y-92236000D02*
X24290000Y-92080000D01*
X24290000Y-89920000D02*
X24290000Y-89764000D01*
G04 #@! TO.C,D5*
X48290000Y-89920000D02*
X48290000Y-89764000D01*
X48290000Y-92236000D02*
X48290000Y-92080000D01*
X45688870Y-89920163D02*
G75*
G02X47770961Y-89920000I1041130J-1079837D01*
G01*
X45688870Y-92079837D02*
G75*
G03X47770961Y-92080000I1041130J1079837D01*
G01*
X45057665Y-89921392D02*
G75*
G02X48290000Y-89764484I1672335J-1078608D01*
G01*
X45057665Y-92078608D02*
G75*
G03X48290000Y-92235516I1672335J1078608D01*
G01*
G04 #@! TO.C,D10*
X20442335Y-28921392D02*
G75*
G03X17210000Y-28764484I-1672335J-1078608D01*
G01*
X20442335Y-31078608D02*
G75*
G02X17210000Y-31235516I-1672335J1078608D01*
G01*
X19811130Y-28920163D02*
G75*
G03X17729039Y-28920000I-1041130J-1079837D01*
G01*
X19811130Y-31079837D02*
G75*
G02X17729039Y-31080000I-1041130J1079837D01*
G01*
X17210000Y-28764000D02*
X17210000Y-28920000D01*
X17210000Y-31080000D02*
X17210000Y-31236000D01*
G04 #@! TO.C,D11*
X17210000Y-50080000D02*
X17210000Y-50236000D01*
X17210000Y-47764000D02*
X17210000Y-47920000D01*
X19811130Y-50079837D02*
G75*
G02X17729039Y-50080000I-1041130J1079837D01*
G01*
X19811130Y-47920163D02*
G75*
G03X17729039Y-47920000I-1041130J-1079837D01*
G01*
X20442335Y-50078608D02*
G75*
G02X17210000Y-50235516I-1672335J1078608D01*
G01*
X20442335Y-47921392D02*
G75*
G03X17210000Y-47764484I-1672335J-1078608D01*
G01*
G04 #@! TO.C,D12*
X20442335Y-66921392D02*
G75*
G03X17210000Y-66764484I-1672335J-1078608D01*
G01*
X20442335Y-69078608D02*
G75*
G02X17210000Y-69235516I-1672335J1078608D01*
G01*
X19811130Y-66920163D02*
G75*
G03X17729039Y-66920000I-1041130J-1079837D01*
G01*
X19811130Y-69079837D02*
G75*
G02X17729039Y-69080000I-1041130J1079837D01*
G01*
X17210000Y-66764000D02*
X17210000Y-66920000D01*
X17210000Y-69080000D02*
X17210000Y-69236000D01*
G04 #@! TO.C,D13*
X20442335Y-71421392D02*
G75*
G03X17210000Y-71264484I-1672335J-1078608D01*
G01*
X20442335Y-73578608D02*
G75*
G02X17210000Y-73735516I-1672335J1078608D01*
G01*
X19811130Y-71420163D02*
G75*
G03X17729039Y-71420000I-1041130J-1079837D01*
G01*
X19811130Y-73579837D02*
G75*
G02X17729039Y-73580000I-1041130J1079837D01*
G01*
X17210000Y-71264000D02*
X17210000Y-71420000D01*
X17210000Y-73580000D02*
X17210000Y-73736000D01*
G04 #@! TO.C,D14*
X29710000Y-70580000D02*
X29710000Y-70736000D01*
X29710000Y-68264000D02*
X29710000Y-68420000D01*
X32311130Y-70579837D02*
G75*
G02X30229039Y-70580000I-1041130J1079837D01*
G01*
X32311130Y-68420163D02*
G75*
G03X30229039Y-68420000I-1041130J-1079837D01*
G01*
X32942335Y-70578608D02*
G75*
G02X29710000Y-70735516I-1672335J1078608D01*
G01*
X32942335Y-68421392D02*
G75*
G03X29710000Y-68264484I-1672335J-1078608D01*
G01*
G04 #@! TO.C,Q1*
X42030000Y-88650000D02*
X38430000Y-88650000D01*
X42068478Y-88661522D02*
G75*
G02X40230000Y-93100000I-1838478J-1838478D01*
G01*
X38391522Y-88661522D02*
G75*
G03X40230000Y-93100000I1838478J-1838478D01*
G01*
G04 #@! TO.C,Q2*
X30030000Y-89150000D02*
X26430000Y-89150000D01*
X30068478Y-89161522D02*
G75*
G02X28230000Y-93600000I-1838478J-1838478D01*
G01*
X26391522Y-89161522D02*
G75*
G03X28230000Y-93600000I1838478J-1838478D01*
G01*
G04 #@! TO.C,Q3*
X50391522Y-89161522D02*
G75*
G03X52230000Y-93600000I1838478J-1838478D01*
G01*
X54068478Y-89161522D02*
G75*
G02X52230000Y-93600000I-1838478J-1838478D01*
G01*
X54030000Y-89150000D02*
X50430000Y-89150000D01*
G04 #@! TO.C,R10*
X40120000Y-86500000D02*
X39350000Y-86500000D01*
X32040000Y-86500000D02*
X32810000Y-86500000D01*
X39350000Y-85130000D02*
X32810000Y-85130000D01*
X39350000Y-87870000D02*
X39350000Y-85130000D01*
X32810000Y-87870000D02*
X39350000Y-87870000D01*
X32810000Y-85130000D02*
X32810000Y-87870000D01*
G04 #@! TO.C,R11*
X20310000Y-83630000D02*
X20310000Y-86370000D01*
X20310000Y-86370000D02*
X26850000Y-86370000D01*
X26850000Y-86370000D02*
X26850000Y-83630000D01*
X26850000Y-83630000D02*
X20310000Y-83630000D01*
X19540000Y-85000000D02*
X20310000Y-85000000D01*
X27620000Y-85000000D02*
X26850000Y-85000000D01*
G04 #@! TO.C,R12*
X53120000Y-86500000D02*
X52350000Y-86500000D01*
X45040000Y-86500000D02*
X45810000Y-86500000D01*
X52350000Y-85130000D02*
X45810000Y-85130000D01*
X52350000Y-87870000D02*
X52350000Y-85130000D01*
X45810000Y-87870000D02*
X52350000Y-87870000D01*
X45810000Y-85130000D02*
X45810000Y-87870000D01*
G04 #@! TO.C,R23*
X51620000Y-63500000D02*
X50850000Y-63500000D01*
X43540000Y-63500000D02*
X44310000Y-63500000D01*
X50850000Y-62130000D02*
X44310000Y-62130000D01*
X50850000Y-64870000D02*
X50850000Y-62130000D01*
X44310000Y-64870000D02*
X50850000Y-64870000D01*
X44310000Y-62130000D02*
X44310000Y-64870000D01*
G04 #@! TO.C,R24*
X31620000Y-30000000D02*
X30850000Y-30000000D01*
X23540000Y-30000000D02*
X24310000Y-30000000D01*
X30850000Y-28630000D02*
X24310000Y-28630000D01*
X30850000Y-31370000D02*
X30850000Y-28630000D01*
X24310000Y-31370000D02*
X30850000Y-31370000D01*
X24310000Y-28630000D02*
X24310000Y-31370000D01*
G04 #@! TO.C,R25*
X16630000Y-42190000D02*
X19370000Y-42190000D01*
X19370000Y-42190000D02*
X19370000Y-35650000D01*
X19370000Y-35650000D02*
X16630000Y-35650000D01*
X16630000Y-35650000D02*
X16630000Y-42190000D01*
X18000000Y-42960000D02*
X18000000Y-42190000D01*
X18000000Y-34880000D02*
X18000000Y-35650000D01*
G04 #@! TO.C,R26*
X37500000Y-27880000D02*
X37500000Y-28650000D01*
X37500000Y-35960000D02*
X37500000Y-35190000D01*
X36130000Y-28650000D02*
X36130000Y-35190000D01*
X38870000Y-28650000D02*
X36130000Y-28650000D01*
X38870000Y-35190000D02*
X38870000Y-28650000D01*
X36130000Y-35190000D02*
X38870000Y-35190000D01*
G04 #@! TO.C,R28*
X38810000Y-21630000D02*
X38810000Y-24370000D01*
X38810000Y-24370000D02*
X45350000Y-24370000D01*
X45350000Y-24370000D02*
X45350000Y-21630000D01*
X45350000Y-21630000D02*
X38810000Y-21630000D01*
X38040000Y-23000000D02*
X38810000Y-23000000D01*
X46120000Y-23000000D02*
X45350000Y-23000000D01*
D11*
G04 #@! TO.C,SW1*
X48000000Y-38000000D02*
X40000000Y-38000000D01*
X48000000Y-25000000D02*
X48000000Y-38000000D01*
X40000000Y-25000000D02*
X48000000Y-25000000D01*
X40000000Y-38000000D02*
X40000000Y-25000000D01*
D12*
G04 #@! TO.C,SW2*
X32000000Y-60000000D02*
G75*
G03X32000000Y-60000000I-3000000J0D01*
G01*
X31000000Y-54100000D02*
X35100000Y-54100000D01*
X35100000Y-65900000D02*
X31000000Y-65900000D01*
X27000000Y-65900000D02*
X22900000Y-65900000D01*
X27000000Y-54100000D02*
X22900000Y-54100000D01*
X22900000Y-54100000D02*
X22900000Y-65900000D01*
X21500000Y-56200000D02*
X21200000Y-55900000D01*
X21200000Y-55900000D02*
X21800000Y-55900000D01*
X21800000Y-55900000D02*
X21500000Y-56200000D01*
X35100000Y-54100000D02*
X35100000Y-56500000D01*
X35100000Y-58700000D02*
X35100000Y-61300000D01*
X35100000Y-63500000D02*
X35100000Y-65900000D01*
X29000000Y-59500000D02*
X29000000Y-60500000D01*
X28500000Y-60000000D02*
X29500000Y-60000000D01*
D11*
G04 #@! TO.C,SW3*
X34000000Y-78000000D02*
G75*
G03X34000000Y-78000000I-5000000J0D01*
G01*
G04 #@! TO.C,SW4*
X40000000Y-57000000D02*
X40000000Y-44000000D01*
X40000000Y-44000000D02*
X48000000Y-44000000D01*
X48000000Y-44000000D02*
X48000000Y-57000000D01*
X48000000Y-57000000D02*
X40000000Y-57000000D01*
G04 #@! TO.C,RV1*
X19952380Y-22595238D02*
X19476190Y-22928571D01*
X19952380Y-23166666D02*
X18952380Y-23166666D01*
X18952380Y-22785714D01*
X19000000Y-22690476D01*
X19047619Y-22642857D01*
X19142857Y-22595238D01*
X19285714Y-22595238D01*
X19380952Y-22642857D01*
X19428571Y-22690476D01*
X19476190Y-22785714D01*
X19476190Y-23166666D01*
X18952380Y-22309523D02*
X19952380Y-21976190D01*
X18952380Y-21642857D01*
X19952380Y-20785714D02*
X19952380Y-21357142D01*
X19952380Y-21071428D02*
X18952380Y-21071428D01*
X19095238Y-21166666D01*
X19190476Y-21261904D01*
X19238095Y-21357142D01*
G04 #@! TO.C,RV2*
X35952380Y-78595238D02*
X35476190Y-78928571D01*
X35952380Y-79166666D02*
X34952380Y-79166666D01*
X34952380Y-78785714D01*
X35000000Y-78690476D01*
X35047619Y-78642857D01*
X35142857Y-78595238D01*
X35285714Y-78595238D01*
X35380952Y-78642857D01*
X35428571Y-78690476D01*
X35476190Y-78785714D01*
X35476190Y-79166666D01*
X34952380Y-78309523D02*
X35952380Y-77976190D01*
X34952380Y-77642857D01*
X35047619Y-77357142D02*
X35000000Y-77309523D01*
X34952380Y-77214285D01*
X34952380Y-76976190D01*
X35000000Y-76880952D01*
X35047619Y-76833333D01*
X35142857Y-76785714D01*
X35238095Y-76785714D01*
X35380952Y-76833333D01*
X35952380Y-77404761D01*
X35952380Y-76785714D01*
G04 #@! TO.C,RV3*
X35452380Y-41595238D02*
X34976190Y-41928571D01*
X35452380Y-42166666D02*
X34452380Y-42166666D01*
X34452380Y-41785714D01*
X34500000Y-41690476D01*
X34547619Y-41642857D01*
X34642857Y-41595238D01*
X34785714Y-41595238D01*
X34880952Y-41642857D01*
X34928571Y-41690476D01*
X34976190Y-41785714D01*
X34976190Y-42166666D01*
X34452380Y-41309523D02*
X35452380Y-40976190D01*
X34452380Y-40642857D01*
X34452380Y-40404761D02*
X34452380Y-39785714D01*
X34833333Y-40119047D01*
X34833333Y-39976190D01*
X34880952Y-39880952D01*
X34928571Y-39833333D01*
X35023809Y-39785714D01*
X35261904Y-39785714D01*
X35357142Y-39833333D01*
X35404761Y-39880952D01*
X35452380Y-39976190D01*
X35452380Y-40261904D01*
X35404761Y-40357142D01*
X35357142Y-40404761D01*
G04 #@! TO.C,R27*
X43857142Y-69452380D02*
X43523809Y-68976190D01*
X43285714Y-69452380D02*
X43285714Y-68452380D01*
X43666666Y-68452380D01*
X43761904Y-68500000D01*
X43809523Y-68547619D01*
X43857142Y-68642857D01*
X43857142Y-68785714D01*
X43809523Y-68880952D01*
X43761904Y-68928571D01*
X43666666Y-68976190D01*
X43285714Y-68976190D01*
X44238095Y-68547619D02*
X44285714Y-68500000D01*
X44380952Y-68452380D01*
X44619047Y-68452380D01*
X44714285Y-68500000D01*
X44761904Y-68547619D01*
X44809523Y-68642857D01*
X44809523Y-68738095D01*
X44761904Y-68880952D01*
X44190476Y-69452380D01*
X44809523Y-69452380D01*
X45142857Y-68452380D02*
X45809523Y-68452380D01*
X45380952Y-69452380D01*
G04 #@! TO.C,D3*
X33991904Y-94412380D02*
X33991904Y-93412380D01*
X34230000Y-93412380D01*
X34372857Y-93460000D01*
X34468095Y-93555238D01*
X34515714Y-93650476D01*
X34563333Y-93840952D01*
X34563333Y-93983809D01*
X34515714Y-94174285D01*
X34468095Y-94269523D01*
X34372857Y-94364761D01*
X34230000Y-94412380D01*
X33991904Y-94412380D01*
X34896666Y-93412380D02*
X35515714Y-93412380D01*
X35182380Y-93793333D01*
X35325238Y-93793333D01*
X35420476Y-93840952D01*
X35468095Y-93888571D01*
X35515714Y-93983809D01*
X35515714Y-94221904D01*
X35468095Y-94317142D01*
X35420476Y-94364761D01*
X35325238Y-94412380D01*
X35039523Y-94412380D01*
X34944285Y-94364761D01*
X34896666Y-94317142D01*
G04 #@! TO.C,D4*
X21991904Y-94412380D02*
X21991904Y-93412380D01*
X22230000Y-93412380D01*
X22372857Y-93460000D01*
X22468095Y-93555238D01*
X22515714Y-93650476D01*
X22563333Y-93840952D01*
X22563333Y-93983809D01*
X22515714Y-94174285D01*
X22468095Y-94269523D01*
X22372857Y-94364761D01*
X22230000Y-94412380D01*
X21991904Y-94412380D01*
X23420476Y-93745714D02*
X23420476Y-94412380D01*
X23182380Y-93364761D02*
X22944285Y-94079047D01*
X23563333Y-94079047D01*
G04 #@! TO.C,D5*
X45991904Y-94412380D02*
X45991904Y-93412380D01*
X46230000Y-93412380D01*
X46372857Y-93460000D01*
X46468095Y-93555238D01*
X46515714Y-93650476D01*
X46563333Y-93840952D01*
X46563333Y-93983809D01*
X46515714Y-94174285D01*
X46468095Y-94269523D01*
X46372857Y-94364761D01*
X46230000Y-94412380D01*
X45991904Y-94412380D01*
X47468095Y-93412380D02*
X46991904Y-93412380D01*
X46944285Y-93888571D01*
X46991904Y-93840952D01*
X47087142Y-93793333D01*
X47325238Y-93793333D01*
X47420476Y-93840952D01*
X47468095Y-93888571D01*
X47515714Y-93983809D01*
X47515714Y-94221904D01*
X47468095Y-94317142D01*
X47420476Y-94364761D01*
X47325238Y-94412380D01*
X47087142Y-94412380D01*
X46991904Y-94364761D01*
X46944285Y-94317142D01*
G04 #@! TO.C,D10*
X17555714Y-27492380D02*
X17555714Y-26492380D01*
X17793809Y-26492380D01*
X17936666Y-26540000D01*
X18031904Y-26635238D01*
X18079523Y-26730476D01*
X18127142Y-26920952D01*
X18127142Y-27063809D01*
X18079523Y-27254285D01*
X18031904Y-27349523D01*
X17936666Y-27444761D01*
X17793809Y-27492380D01*
X17555714Y-27492380D01*
X19079523Y-27492380D02*
X18508095Y-27492380D01*
X18793809Y-27492380D02*
X18793809Y-26492380D01*
X18698571Y-26635238D01*
X18603333Y-26730476D01*
X18508095Y-26778095D01*
X19698571Y-26492380D02*
X19793809Y-26492380D01*
X19889047Y-26540000D01*
X19936666Y-26587619D01*
X19984285Y-26682857D01*
X20031904Y-26873333D01*
X20031904Y-27111428D01*
X19984285Y-27301904D01*
X19936666Y-27397142D01*
X19889047Y-27444761D01*
X19793809Y-27492380D01*
X19698571Y-27492380D01*
X19603333Y-27444761D01*
X19555714Y-27397142D01*
X19508095Y-27301904D01*
X19460476Y-27111428D01*
X19460476Y-26873333D01*
X19508095Y-26682857D01*
X19555714Y-26587619D01*
X19603333Y-26540000D01*
X19698571Y-26492380D01*
G04 #@! TO.C,D11*
X17555714Y-46492380D02*
X17555714Y-45492380D01*
X17793809Y-45492380D01*
X17936666Y-45540000D01*
X18031904Y-45635238D01*
X18079523Y-45730476D01*
X18127142Y-45920952D01*
X18127142Y-46063809D01*
X18079523Y-46254285D01*
X18031904Y-46349523D01*
X17936666Y-46444761D01*
X17793809Y-46492380D01*
X17555714Y-46492380D01*
X19079523Y-46492380D02*
X18508095Y-46492380D01*
X18793809Y-46492380D02*
X18793809Y-45492380D01*
X18698571Y-45635238D01*
X18603333Y-45730476D01*
X18508095Y-45778095D01*
X20031904Y-46492380D02*
X19460476Y-46492380D01*
X19746190Y-46492380D02*
X19746190Y-45492380D01*
X19650952Y-45635238D01*
X19555714Y-45730476D01*
X19460476Y-45778095D01*
G04 #@! TO.C,D12*
X17555714Y-65492380D02*
X17555714Y-64492380D01*
X17793809Y-64492380D01*
X17936666Y-64540000D01*
X18031904Y-64635238D01*
X18079523Y-64730476D01*
X18127142Y-64920952D01*
X18127142Y-65063809D01*
X18079523Y-65254285D01*
X18031904Y-65349523D01*
X17936666Y-65444761D01*
X17793809Y-65492380D01*
X17555714Y-65492380D01*
X19079523Y-65492380D02*
X18508095Y-65492380D01*
X18793809Y-65492380D02*
X18793809Y-64492380D01*
X18698571Y-64635238D01*
X18603333Y-64730476D01*
X18508095Y-64778095D01*
X19460476Y-64587619D02*
X19508095Y-64540000D01*
X19603333Y-64492380D01*
X19841428Y-64492380D01*
X19936666Y-64540000D01*
X19984285Y-64587619D01*
X20031904Y-64682857D01*
X20031904Y-64778095D01*
X19984285Y-64920952D01*
X19412857Y-65492380D01*
X20031904Y-65492380D01*
G04 #@! TO.C,D13*
X17555714Y-76452380D02*
X17555714Y-75452380D01*
X17793809Y-75452380D01*
X17936666Y-75500000D01*
X18031904Y-75595238D01*
X18079523Y-75690476D01*
X18127142Y-75880952D01*
X18127142Y-76023809D01*
X18079523Y-76214285D01*
X18031904Y-76309523D01*
X17936666Y-76404761D01*
X17793809Y-76452380D01*
X17555714Y-76452380D01*
X19079523Y-76452380D02*
X18508095Y-76452380D01*
X18793809Y-76452380D02*
X18793809Y-75452380D01*
X18698571Y-75595238D01*
X18603333Y-75690476D01*
X18508095Y-75738095D01*
X19412857Y-75452380D02*
X20031904Y-75452380D01*
X19698571Y-75833333D01*
X19841428Y-75833333D01*
X19936666Y-75880952D01*
X19984285Y-75928571D01*
X20031904Y-76023809D01*
X20031904Y-76261904D01*
X19984285Y-76357142D01*
X19936666Y-76404761D01*
X19841428Y-76452380D01*
X19555714Y-76452380D01*
X19460476Y-76404761D01*
X19412857Y-76357142D01*
G04 #@! TO.C,D14*
X30055714Y-72952380D02*
X30055714Y-71952380D01*
X30293809Y-71952380D01*
X30436666Y-72000000D01*
X30531904Y-72095238D01*
X30579523Y-72190476D01*
X30627142Y-72380952D01*
X30627142Y-72523809D01*
X30579523Y-72714285D01*
X30531904Y-72809523D01*
X30436666Y-72904761D01*
X30293809Y-72952380D01*
X30055714Y-72952380D01*
X31579523Y-72952380D02*
X31008095Y-72952380D01*
X31293809Y-72952380D02*
X31293809Y-71952380D01*
X31198571Y-72095238D01*
X31103333Y-72190476D01*
X31008095Y-72238095D01*
X32436666Y-72285714D02*
X32436666Y-72952380D01*
X32198571Y-71904761D02*
X31960476Y-72619047D01*
X32579523Y-72619047D01*
G04 #@! TO.C,Q1*
X40134761Y-94607619D02*
X40039523Y-94560000D01*
X39944285Y-94464761D01*
X39801428Y-94321904D01*
X39706190Y-94274285D01*
X39610952Y-94274285D01*
X39658571Y-94512380D02*
X39563333Y-94464761D01*
X39468095Y-94369523D01*
X39420476Y-94179047D01*
X39420476Y-93845714D01*
X39468095Y-93655238D01*
X39563333Y-93560000D01*
X39658571Y-93512380D01*
X39849047Y-93512380D01*
X39944285Y-93560000D01*
X40039523Y-93655238D01*
X40087142Y-93845714D01*
X40087142Y-94179047D01*
X40039523Y-94369523D01*
X39944285Y-94464761D01*
X39849047Y-94512380D01*
X39658571Y-94512380D01*
X41039523Y-94512380D02*
X40468095Y-94512380D01*
X40753809Y-94512380D02*
X40753809Y-93512380D01*
X40658571Y-93655238D01*
X40563333Y-93750476D01*
X40468095Y-93798095D01*
G04 #@! TO.C,Q2*
X28134761Y-95107619D02*
X28039523Y-95060000D01*
X27944285Y-94964761D01*
X27801428Y-94821904D01*
X27706190Y-94774285D01*
X27610952Y-94774285D01*
X27658571Y-95012380D02*
X27563333Y-94964761D01*
X27468095Y-94869523D01*
X27420476Y-94679047D01*
X27420476Y-94345714D01*
X27468095Y-94155238D01*
X27563333Y-94060000D01*
X27658571Y-94012380D01*
X27849047Y-94012380D01*
X27944285Y-94060000D01*
X28039523Y-94155238D01*
X28087142Y-94345714D01*
X28087142Y-94679047D01*
X28039523Y-94869523D01*
X27944285Y-94964761D01*
X27849047Y-95012380D01*
X27658571Y-95012380D01*
X28468095Y-94107619D02*
X28515714Y-94060000D01*
X28610952Y-94012380D01*
X28849047Y-94012380D01*
X28944285Y-94060000D01*
X28991904Y-94107619D01*
X29039523Y-94202857D01*
X29039523Y-94298095D01*
X28991904Y-94440952D01*
X28420476Y-95012380D01*
X29039523Y-95012380D01*
G04 #@! TO.C,Q3*
X52134761Y-95107619D02*
X52039523Y-95060000D01*
X51944285Y-94964761D01*
X51801428Y-94821904D01*
X51706190Y-94774285D01*
X51610952Y-94774285D01*
X51658571Y-95012380D02*
X51563333Y-94964761D01*
X51468095Y-94869523D01*
X51420476Y-94679047D01*
X51420476Y-94345714D01*
X51468095Y-94155238D01*
X51563333Y-94060000D01*
X51658571Y-94012380D01*
X51849047Y-94012380D01*
X51944285Y-94060000D01*
X52039523Y-94155238D01*
X52087142Y-94345714D01*
X52087142Y-94679047D01*
X52039523Y-94869523D01*
X51944285Y-94964761D01*
X51849047Y-95012380D01*
X51658571Y-95012380D01*
X52420476Y-94012380D02*
X53039523Y-94012380D01*
X52706190Y-94393333D01*
X52849047Y-94393333D01*
X52944285Y-94440952D01*
X52991904Y-94488571D01*
X53039523Y-94583809D01*
X53039523Y-94821904D01*
X52991904Y-94917142D01*
X52944285Y-94964761D01*
X52849047Y-95012380D01*
X52563333Y-95012380D01*
X52468095Y-94964761D01*
X52420476Y-94917142D01*
G04 #@! TO.C,R10*
X35357142Y-86952380D02*
X35023809Y-86476190D01*
X34785714Y-86952380D02*
X34785714Y-85952380D01*
X35166666Y-85952380D01*
X35261904Y-86000000D01*
X35309523Y-86047619D01*
X35357142Y-86142857D01*
X35357142Y-86285714D01*
X35309523Y-86380952D01*
X35261904Y-86428571D01*
X35166666Y-86476190D01*
X34785714Y-86476190D01*
X36309523Y-86952380D02*
X35738095Y-86952380D01*
X36023809Y-86952380D02*
X36023809Y-85952380D01*
X35928571Y-86095238D01*
X35833333Y-86190476D01*
X35738095Y-86238095D01*
X36928571Y-85952380D02*
X37023809Y-85952380D01*
X37119047Y-86000000D01*
X37166666Y-86047619D01*
X37214285Y-86142857D01*
X37261904Y-86333333D01*
X37261904Y-86571428D01*
X37214285Y-86761904D01*
X37166666Y-86857142D01*
X37119047Y-86904761D01*
X37023809Y-86952380D01*
X36928571Y-86952380D01*
X36833333Y-86904761D01*
X36785714Y-86857142D01*
X36738095Y-86761904D01*
X36690476Y-86571428D01*
X36690476Y-86333333D01*
X36738095Y-86142857D01*
X36785714Y-86047619D01*
X36833333Y-86000000D01*
X36928571Y-85952380D01*
G04 #@! TO.C,R11*
X22857142Y-85452380D02*
X22523809Y-84976190D01*
X22285714Y-85452380D02*
X22285714Y-84452380D01*
X22666666Y-84452380D01*
X22761904Y-84500000D01*
X22809523Y-84547619D01*
X22857142Y-84642857D01*
X22857142Y-84785714D01*
X22809523Y-84880952D01*
X22761904Y-84928571D01*
X22666666Y-84976190D01*
X22285714Y-84976190D01*
X23809523Y-85452380D02*
X23238095Y-85452380D01*
X23523809Y-85452380D02*
X23523809Y-84452380D01*
X23428571Y-84595238D01*
X23333333Y-84690476D01*
X23238095Y-84738095D01*
X24761904Y-85452380D02*
X24190476Y-85452380D01*
X24476190Y-85452380D02*
X24476190Y-84452380D01*
X24380952Y-84595238D01*
X24285714Y-84690476D01*
X24190476Y-84738095D01*
G04 #@! TO.C,R12*
X48437142Y-86952380D02*
X48103809Y-86476190D01*
X47865714Y-86952380D02*
X47865714Y-85952380D01*
X48246666Y-85952380D01*
X48341904Y-86000000D01*
X48389523Y-86047619D01*
X48437142Y-86142857D01*
X48437142Y-86285714D01*
X48389523Y-86380952D01*
X48341904Y-86428571D01*
X48246666Y-86476190D01*
X47865714Y-86476190D01*
X49389523Y-86952380D02*
X48818095Y-86952380D01*
X49103809Y-86952380D02*
X49103809Y-85952380D01*
X49008571Y-86095238D01*
X48913333Y-86190476D01*
X48818095Y-86238095D01*
X49770476Y-86047619D02*
X49818095Y-86000000D01*
X49913333Y-85952380D01*
X50151428Y-85952380D01*
X50246666Y-86000000D01*
X50294285Y-86047619D01*
X50341904Y-86142857D01*
X50341904Y-86238095D01*
X50294285Y-86380952D01*
X49722857Y-86952380D01*
X50341904Y-86952380D01*
G04 #@! TO.C,R23*
X46937142Y-63952380D02*
X46603809Y-63476190D01*
X46365714Y-63952380D02*
X46365714Y-62952380D01*
X46746666Y-62952380D01*
X46841904Y-63000000D01*
X46889523Y-63047619D01*
X46937142Y-63142857D01*
X46937142Y-63285714D01*
X46889523Y-63380952D01*
X46841904Y-63428571D01*
X46746666Y-63476190D01*
X46365714Y-63476190D01*
X47318095Y-63047619D02*
X47365714Y-63000000D01*
X47460952Y-62952380D01*
X47699047Y-62952380D01*
X47794285Y-63000000D01*
X47841904Y-63047619D01*
X47889523Y-63142857D01*
X47889523Y-63238095D01*
X47841904Y-63380952D01*
X47270476Y-63952380D01*
X47889523Y-63952380D01*
X48222857Y-62952380D02*
X48841904Y-62952380D01*
X48508571Y-63333333D01*
X48651428Y-63333333D01*
X48746666Y-63380952D01*
X48794285Y-63428571D01*
X48841904Y-63523809D01*
X48841904Y-63761904D01*
X48794285Y-63857142D01*
X48746666Y-63904761D01*
X48651428Y-63952380D01*
X48365714Y-63952380D01*
X48270476Y-63904761D01*
X48222857Y-63857142D01*
G04 #@! TO.C,R24*
X26857142Y-30452380D02*
X26523809Y-29976190D01*
X26285714Y-30452380D02*
X26285714Y-29452380D01*
X26666666Y-29452380D01*
X26761904Y-29500000D01*
X26809523Y-29547619D01*
X26857142Y-29642857D01*
X26857142Y-29785714D01*
X26809523Y-29880952D01*
X26761904Y-29928571D01*
X26666666Y-29976190D01*
X26285714Y-29976190D01*
X27238095Y-29547619D02*
X27285714Y-29500000D01*
X27380952Y-29452380D01*
X27619047Y-29452380D01*
X27714285Y-29500000D01*
X27761904Y-29547619D01*
X27809523Y-29642857D01*
X27809523Y-29738095D01*
X27761904Y-29880952D01*
X27190476Y-30452380D01*
X27809523Y-30452380D01*
X28666666Y-29785714D02*
X28666666Y-30452380D01*
X28428571Y-29404761D02*
X28190476Y-30119047D01*
X28809523Y-30119047D01*
G04 #@! TO.C,R25*
X18452380Y-39562857D02*
X17976190Y-39896190D01*
X18452380Y-40134285D02*
X17452380Y-40134285D01*
X17452380Y-39753333D01*
X17500000Y-39658095D01*
X17547619Y-39610476D01*
X17642857Y-39562857D01*
X17785714Y-39562857D01*
X17880952Y-39610476D01*
X17928571Y-39658095D01*
X17976190Y-39753333D01*
X17976190Y-40134285D01*
X17547619Y-39181904D02*
X17500000Y-39134285D01*
X17452380Y-39039047D01*
X17452380Y-38800952D01*
X17500000Y-38705714D01*
X17547619Y-38658095D01*
X17642857Y-38610476D01*
X17738095Y-38610476D01*
X17880952Y-38658095D01*
X18452380Y-39229523D01*
X18452380Y-38610476D01*
X17452380Y-37705714D02*
X17452380Y-38181904D01*
X17928571Y-38229523D01*
X17880952Y-38181904D01*
X17833333Y-38086666D01*
X17833333Y-37848571D01*
X17880952Y-37753333D01*
X17928571Y-37705714D01*
X18023809Y-37658095D01*
X18261904Y-37658095D01*
X18357142Y-37705714D01*
X18404761Y-37753333D01*
X18452380Y-37848571D01*
X18452380Y-38086666D01*
X18404761Y-38181904D01*
X18357142Y-38229523D01*
G04 #@! TO.C,R26*
X37952380Y-32142857D02*
X37476190Y-32476190D01*
X37952380Y-32714285D02*
X36952380Y-32714285D01*
X36952380Y-32333333D01*
X37000000Y-32238095D01*
X37047619Y-32190476D01*
X37142857Y-32142857D01*
X37285714Y-32142857D01*
X37380952Y-32190476D01*
X37428571Y-32238095D01*
X37476190Y-32333333D01*
X37476190Y-32714285D01*
X37047619Y-31761904D02*
X37000000Y-31714285D01*
X36952380Y-31619047D01*
X36952380Y-31380952D01*
X37000000Y-31285714D01*
X37047619Y-31238095D01*
X37142857Y-31190476D01*
X37238095Y-31190476D01*
X37380952Y-31238095D01*
X37952380Y-31809523D01*
X37952380Y-31190476D01*
X36952380Y-30333333D02*
X36952380Y-30523809D01*
X37000000Y-30619047D01*
X37047619Y-30666666D01*
X37190476Y-30761904D01*
X37380952Y-30809523D01*
X37761904Y-30809523D01*
X37857142Y-30761904D01*
X37904761Y-30714285D01*
X37952380Y-30619047D01*
X37952380Y-30428571D01*
X37904761Y-30333333D01*
X37857142Y-30285714D01*
X37761904Y-30238095D01*
X37523809Y-30238095D01*
X37428571Y-30285714D01*
X37380952Y-30333333D01*
X37333333Y-30428571D01*
X37333333Y-30619047D01*
X37380952Y-30714285D01*
X37428571Y-30761904D01*
X37523809Y-30809523D01*
G04 #@! TO.C,R28*
X41437142Y-23452380D02*
X41103809Y-22976190D01*
X40865714Y-23452380D02*
X40865714Y-22452380D01*
X41246666Y-22452380D01*
X41341904Y-22500000D01*
X41389523Y-22547619D01*
X41437142Y-22642857D01*
X41437142Y-22785714D01*
X41389523Y-22880952D01*
X41341904Y-22928571D01*
X41246666Y-22976190D01*
X40865714Y-22976190D01*
X41818095Y-22547619D02*
X41865714Y-22500000D01*
X41960952Y-22452380D01*
X42199047Y-22452380D01*
X42294285Y-22500000D01*
X42341904Y-22547619D01*
X42389523Y-22642857D01*
X42389523Y-22738095D01*
X42341904Y-22880952D01*
X41770476Y-23452380D01*
X42389523Y-23452380D01*
X42960952Y-22880952D02*
X42865714Y-22833333D01*
X42818095Y-22785714D01*
X42770476Y-22690476D01*
X42770476Y-22642857D01*
X42818095Y-22547619D01*
X42865714Y-22500000D01*
X42960952Y-22452380D01*
X43151428Y-22452380D01*
X43246666Y-22500000D01*
X43294285Y-22547619D01*
X43341904Y-22642857D01*
X43341904Y-22690476D01*
X43294285Y-22785714D01*
X43246666Y-22833333D01*
X43151428Y-22880952D01*
X42960952Y-22880952D01*
X42865714Y-22928571D01*
X42818095Y-22976190D01*
X42770476Y-23071428D01*
X42770476Y-23261904D01*
X42818095Y-23357142D01*
X42865714Y-23404761D01*
X42960952Y-23452380D01*
X43151428Y-23452380D01*
X43246666Y-23404761D01*
X43294285Y-23357142D01*
X43341904Y-23261904D01*
X43341904Y-23071428D01*
X43294285Y-22976190D01*
X43246666Y-22928571D01*
X43151428Y-22880952D01*
G04 #@! TO.C,SW1*
X49404761Y-37333333D02*
X49452380Y-37190476D01*
X49452380Y-36952380D01*
X49404761Y-36857142D01*
X49357142Y-36809523D01*
X49261904Y-36761904D01*
X49166666Y-36761904D01*
X49071428Y-36809523D01*
X49023809Y-36857142D01*
X48976190Y-36952380D01*
X48928571Y-37142857D01*
X48880952Y-37238095D01*
X48833333Y-37285714D01*
X48738095Y-37333333D01*
X48642857Y-37333333D01*
X48547619Y-37285714D01*
X48500000Y-37238095D01*
X48452380Y-37142857D01*
X48452380Y-36904761D01*
X48500000Y-36761904D01*
X48452380Y-36428571D02*
X49452380Y-36190476D01*
X48738095Y-36000000D01*
X49452380Y-35809523D01*
X48452380Y-35571428D01*
X49452380Y-34666666D02*
X49452380Y-35238095D01*
X49452380Y-34952380D02*
X48452380Y-34952380D01*
X48595238Y-35047619D01*
X48690476Y-35142857D01*
X48738095Y-35238095D01*
G04 #@! TO.C,SW2*
X22966666Y-53204761D02*
X23109523Y-53252380D01*
X23347619Y-53252380D01*
X23442857Y-53204761D01*
X23490476Y-53157142D01*
X23538095Y-53061904D01*
X23538095Y-52966666D01*
X23490476Y-52871428D01*
X23442857Y-52823809D01*
X23347619Y-52776190D01*
X23157142Y-52728571D01*
X23061904Y-52680952D01*
X23014285Y-52633333D01*
X22966666Y-52538095D01*
X22966666Y-52442857D01*
X23014285Y-52347619D01*
X23061904Y-52300000D01*
X23157142Y-52252380D01*
X23395238Y-52252380D01*
X23538095Y-52300000D01*
X23871428Y-52252380D02*
X24109523Y-53252380D01*
X24300000Y-52538095D01*
X24490476Y-53252380D01*
X24728571Y-52252380D01*
X25061904Y-52347619D02*
X25109523Y-52300000D01*
X25204761Y-52252380D01*
X25442857Y-52252380D01*
X25538095Y-52300000D01*
X25585714Y-52347619D01*
X25633333Y-52442857D01*
X25633333Y-52538095D01*
X25585714Y-52680952D01*
X25014285Y-53252380D01*
X25633333Y-53252380D01*
G04 #@! TO.C,SW3*
X28166666Y-81654761D02*
X28309523Y-81702380D01*
X28547619Y-81702380D01*
X28642857Y-81654761D01*
X28690476Y-81607142D01*
X28738095Y-81511904D01*
X28738095Y-81416666D01*
X28690476Y-81321428D01*
X28642857Y-81273809D01*
X28547619Y-81226190D01*
X28357142Y-81178571D01*
X28261904Y-81130952D01*
X28214285Y-81083333D01*
X28166666Y-80988095D01*
X28166666Y-80892857D01*
X28214285Y-80797619D01*
X28261904Y-80750000D01*
X28357142Y-80702380D01*
X28595238Y-80702380D01*
X28738095Y-80750000D01*
X29071428Y-80702380D02*
X29309523Y-81702380D01*
X29500000Y-80988095D01*
X29690476Y-81702380D01*
X29928571Y-80702380D01*
X30214285Y-80702380D02*
X30833333Y-80702380D01*
X30500000Y-81083333D01*
X30642857Y-81083333D01*
X30738095Y-81130952D01*
X30785714Y-81178571D01*
X30833333Y-81273809D01*
X30833333Y-81511904D01*
X30785714Y-81607142D01*
X30738095Y-81654761D01*
X30642857Y-81702380D01*
X30357142Y-81702380D01*
X30261904Y-81654761D01*
X30214285Y-81607142D01*
G04 #@! TO.C,SW4*
X49404761Y-56333333D02*
X49452380Y-56190476D01*
X49452380Y-55952380D01*
X49404761Y-55857142D01*
X49357142Y-55809523D01*
X49261904Y-55761904D01*
X49166666Y-55761904D01*
X49071428Y-55809523D01*
X49023809Y-55857142D01*
X48976190Y-55952380D01*
X48928571Y-56142857D01*
X48880952Y-56238095D01*
X48833333Y-56285714D01*
X48738095Y-56333333D01*
X48642857Y-56333333D01*
X48547619Y-56285714D01*
X48500000Y-56238095D01*
X48452380Y-56142857D01*
X48452380Y-55904761D01*
X48500000Y-55761904D01*
X48452380Y-55428571D02*
X49452380Y-55190476D01*
X48738095Y-55000000D01*
X49452380Y-54809523D01*
X48452380Y-54571428D01*
X48785714Y-53761904D02*
X49452380Y-53761904D01*
X48404761Y-54000000D02*
X49119047Y-54238095D01*
X49119047Y-53619047D01*
G04 #@! TD*
M02*
